<!-- Generated by IcoMoon.io -->
<svg version="1.1" xmlns="http://www.w3.org/2000/svg" width="64" height="64" viewBox="0 0 64 64">
<title>accessibility_feedback</title>
<path d="M27.2 52c-11 0-20-9-20-20s9-20 20-20c9.6 0 17.6 6.8 19.6 15.6 0.4 0 1 0 1.4 0 1 0 1.8 0 2.8 0.2-2.2-11.2-12-19.8-23.8-19.8-13.2 0-24 10.8-24 24s10.8 24 24 24c4.8 0 9.4-1.4 13.2-4-1.6-0.6-3.2-1.4-4.4-2-2.8 1.2-5.6 2-8.8 2z"></path>
<path d="M31.2 20c0 2.209-1.791 4-4 4s-4-1.791-4-4c0-2.209 1.791-4 4-4s4 1.791 4 4z"></path>
<path d="M39.6 28l-0.8-3.8-8.6 2h-6l-8.4-2-1 3.8 8.6 1.8v8.4l-2 9.4 3.8 0.8 2-10.2 2.2 10.2 3.8-0.8-2-9.4v-8.4z"></path>
<path d="M47.6 31.2c-7.2 0-13.2 4.2-13.2 9.4 0 4.6 5 8.4 11.2 9.2 0.6 1-0.4 5.8-0.4 5.8s4.4-3.2 4.8-5.8c6.8-1.8 10.8-4.8 10.8-9.2s-5.8-9.4-13.2-9.4zM51.4 45h-10.8v-3h10.8v3zM55 39.6h-14.4v-3h14.4v3z"></path>
</svg>
