<!-- Generated by IcoMoon.io -->
<svg version="1.1" xmlns="http://www.w3.org/2000/svg" width="32" height="32" viewBox="0 0 32 32">
<title>accept_button</title>
<path d="M25.824 10.23c-1.42 1.648-1.078 1.352-1.76 2.111 0.506 1.116 0.789 2.354 0.789 3.658 0 4.889-3.965 8.856-8.854 8.856s-8.854-3.966-8.854-8.855c0-4.89 3.964-8.854 8.854-8.854 1.39 0 2.706 0.321 3.876 0.893 0.639-0.668 0.963-1.315 1.652-2-1.636-0.913-3.521-1.43-5.527-1.43-6.292 0-11.391 5.099-11.391 11.39 0 6.292 5.1 11.392 11.391 11.392s11.391-5.1 11.391-11.392c0-2.105-0.571-4.077-1.567-5.769zM11.64 11.79l-2.434 2.286 6.953 6.71 10.753-14.032-2.244-1.975-8.876 11.262-4.152-4.251z"></path>
</svg>
