<!-- Generated by IcoMoon.io -->
<svg version="1.1" xmlns="http://www.w3.org/2000/svg" width="64" height="64" viewBox="0 0 64 64">
<title>accept_button</title>
<path d="M51.648 20.46c-2.84 3.296-2.156 2.704-3.52 4.222 1.012 2.232 1.578 4.708 1.578 7.316 0 9.778-7.93 17.712-17.708 17.712s-17.708-7.932-17.708-17.71c0-9.78 7.928-17.708 17.708-17.708 2.78 0 5.412 0.642 7.752 1.786 1.278-1.336 1.926-2.63 3.304-4-3.272-1.826-7.042-2.86-11.054-2.86-12.584 0-22.782 10.198-22.782 22.78 0 12.584 10.2 22.784 22.782 22.784s22.782-10.2 22.782-22.784c0-4.21-1.142-8.154-3.134-11.538zM23.28 23.58l-4.868 4.572 13.906 13.42 21.506-28.064-4.488-3.95-17.752 22.524-8.304-8.502z"></path>
</svg>
