<!-- Generated by IcoMoon.io -->
<svg version="1.1" xmlns="http://www.w3.org/2000/svg" width="64" height="64" viewBox="0 0 64 64">
<title>accepted_coupons</title>
<path d="M53.594 28.526c-0.116-0.348-1.418-3.312-1.418-3.312l-11.464 14.638-15.922-15.308 9.938-10.246 5.984 8.202 3.434-7.018c0 0-22.29-6.436-37.442-10.986-1.706-0.512-2.292 0.378-2.38 0.672-0.482 1.644-0.628 2.304-0.656 4.394-0.058 4.61 6.716 25.358 11.98 26.732 8.828 2.374 17.348 4.058 26.536 5.516 1.074 0.168 2.194-0.51 3.152-1.414 0.002 0 3.412-3.038 6.782-5.914 0.64-0.544 1.104-1.058 1.434-1.54 1.532 1.71 4.292 5.298 3.854 8.576-0.478 3.562-6.224 4.898-11.4 6.772-6.246 2.258-12.278 4.806-12.408 10.802l2.172 0.566c0.12-5.394 6.362-7.652 12.4-9.832 5.362-1.942 10.426-3.774 10.968-7.82 0.6-4.47-3.534-9.416-4.876-10.892 0.102-1.17-0.486-2.040-0.668-2.588zM17.972 35.366c-7.896-2.806-14.436-22.918-13.226-30.696 1.318 7.518 11.268 17.032 14.25 18.86-1.046 1.152-4.49 7.242-1.024 11.836zM34.248 18.090l-6.362 5.816 12.956 11.844 19.49-27.87-3.414-0.012-15.95 18.702-6.72-8.48z"></path>
</svg>
