<!-- Generated by IcoMoon.io -->
<svg version="1.1" xmlns="http://www.w3.org/2000/svg" width="32" height="32" viewBox="0 0 32 32">
<title>accepted_coupons</title>
<path d="M26.797 14.263c-0.058-0.174-0.709-1.656-0.709-1.656l-5.732 7.319-7.961-7.654 4.969-5.123 2.992 4.101 1.717-3.509c0 0-11.145-3.218-18.721-5.493-0.853-0.256-1.146 0.189-1.19 0.336-0.241 0.822-0.314 1.152-0.328 2.197-0.029 2.305 3.358 12.679 5.99 13.366 4.414 1.187 8.674 2.029 13.268 2.758 0.537 0.084 1.097-0.255 1.576-0.707 0.001 0 1.706-1.519 3.391-2.957 0.32-0.272 0.552-0.529 0.717-0.77 0.766 0.855 2.146 2.649 1.927 4.288-0.239 1.781-3.112 2.449-5.7 3.386-3.123 1.129-6.139 2.403-6.204 5.401l1.086 0.283c0.060-2.697 3.181-3.826 6.2-4.916 2.681-0.971 5.213-1.887 5.484-3.91 0.3-2.235-1.767-4.708-2.438-5.446 0.051-0.585-0.243-1.020-0.334-1.294zM8.986 17.683c-3.948-1.403-7.218-11.459-6.613-15.348 0.659 3.759 5.634 8.516 7.125 9.43-0.523 0.576-2.245 3.621-0.512 5.918zM17.124 9.045l-3.181 2.908 6.478 5.922 9.745-13.935-1.707-0.006-7.975 9.351-3.36-4.24z"></path>
</svg>
