<!-- Generated by IcoMoon.io -->
<svg version="1.1" xmlns="http://www.w3.org/2000/svg" width="32" height="32" viewBox="0 0 32 32">
<title>accomplishments</title>
<path d="M5.6 10.2c2.4-0.5-0.6-4.3-0.6-4.3s-1.9 4.2 0.6 4.3zM7.1 7.8c2.5 0 0.7-4.3 0.7-4.3s-3 3.6-0.7 4.3zM4.8 13.1c2.2-1.1-1.8-4.1-1.8-4.1s-0.6 4.4 1.8 4.1zM4.9 16c1.9-1.5-2.8-3.6-2.8-3.6s0.5 4.4 2.8 3.6zM5.8 18.5c1.3-1.9-3.9-2.8-3.9-2.8s2 4.1 3.9 2.8zM7.5 21c0.8-2.1-4.6-2-4.6-2s3.1 3.6 4.6 2zM9.7 22.8c0-2.2-5.1-0.7-5.1-0.7s4.2 2.7 5.1 0.7zM12.6 24.4c-0.5-2.1-5.1 0.2-5.1 0.2s4.8 1.8 5.1-0.2zM9.2 27.7l2.4-0.3 0.2 1.9c0 0 4.2-2.3 4-4.4-1.5-1.2-6.6 2.8-6.6 2.8zM14.6 24.2c-0.5-1.5-1.9-3.6-1.9-3.6l-0.6 2.5c0 0 1.2 0.7 0.9 1.4 0 0.1 1-0.4 1.6-0.3zM11.7 23.1c0-1.1-0.7-3.7-0.7-3.7s-1.5 2.1-1.5 2.4c0.6 0.5 0.5 1.5 0.4 1.6 0-0.1 1.1-0.5 1.8-0.3zM9.2 21.5c0.5-1.2 0.3-3.8 0.3-3.8l-1.8 2c0 0 0.5 1.1 0 1.5 0 0 1 0 1.5 0.3zM7.3 19.4c0.7-1 1.2-3.7 1.2-3.7s-2.1 1.3-2.1 1.6c0.3 0.8-0.4 1.5-0.4 1.5s0.9 0.2 1.3 0.6zM6.1 16.9c1.1-0.7 2.1-3.1 2.1-3.1l-2.3 1c0 0 0.1 1-0.9 1.5-0.1 0 0.9 0.4 1.1 0.6zM4.8 13.4l0.8 0.9c0 0 2.6-1.2 2.8-2.4l-2.5 0.4c0 0-0.5 1.1-1.1 1.1zM5.4 10.6c0 0 0.5 0.5 0.7 1.2 1.1-0.3 3.2-1.5 3.2-2-0.7 0-2.5 0-2.5 0s-0.3 0.9-1.4 0.8zM10.6 8.3c-0.3-0.2-2.3-0.7-2.3-0.7s-0.5 0.6-1.5 0.6c0.3 0.4 0.2 1.2 0.2 1.2 0.4 0 3.2-0.2 3.6-1.1zM12.4 7c0 0-2.2-1.7-3.5-1.3 0 0.5-0.3 1.6-0.3 1.6 1.6 0.2 3.8-0.3 3.8-0.3zM10.5 5.4c0 0 1.6-1.4 1.6-2.7-2 0.2-3.5 1.6-3.5 1.6l0.1 0.8c0.9-0.1 1.8 0.3 1.8 0.3zM26.4 10.2c2.4-0.2 0.6-4.3 0.6-4.3s-3 3.8-0.6 4.3zM24.9 7.8c2.3-0.7-0.7-4.3-0.7-4.3s-1.8 4.2 0.7 4.3zM27.2 13.1c2.4 0.3 1.8-4.1 1.8-4.1s-4 3-1.8 4.1zM27.1 16c2.3 0.8 2.8-3.6 2.8-3.6s-4.7 2.1-2.8 3.6zM30.1 15.7c0 0-5.2 1-3.9 2.8 1.9 1.3 3.9-2.8 3.9-2.8zM24.5 21c1.5 1.7 4.6-2 4.6-2s-5.3-0.1-4.6 2zM22.3 22.8c0.8 2 5.1-0.7 5.1-0.7s-5.1-1.4-5.1 0.7zM19.4 24.4c0.4 2.1 5.1 0.2 5.1 0.2s-4.6-2.4-5.1-0.2zM19 24.6c-0.3-0.7 0.9-1.4 0.9-1.4l-0.6-2.5c0 0-1.3 2-1.8 3.6 0.5-0.2 1.5 0.3 1.5 0.3zM22.5 21.8c0-0.3-1.5-2.4-1.5-2.4s-0.7 2.6-0.7 3.7c0.7-0.2 1.7 0.3 1.7 0.3-0.1-0.2-0.1-1.2 0.5-1.6zM22.5 17.8c0 0-0.3 2.5 0.3 3.8 0.5-0.3 1.5-0.3 1.5-0.3-0.5-0.4 0-1.5 0-1.5l-1.8-2zM26 18.8c0 0-0.7-0.7-0.4-1.5 0-0.3-2.1-1.6-2.1-1.6s0.4 2.7 1.2 3.7c0.4-0.4 1.3-0.6 1.3-0.6zM23.9 13.8c0 0 0.9 2.4 2.1 3.1 0.1-0.3 1.2-0.7 1.2-0.7-1.1-0.5-0.9-1.5-0.9-1.5l-2.4-0.9zM26.1 12.3l-2.5-0.4c0.1 1.2 2.8 2.4 2.8 2.4l0.8-0.9c-0.6 0-1.1-1.1-1.1-1.1zM25.3 9.9c0 0-1.8 0-2.5 0 0 0.4 2.1 1.6 3.2 2 0.1-0.7 0.7-1.2 0.7-1.2-1.2 0-1.4-0.8-1.4-0.8zM23.7 7.6c0 0-2 0.5-2.3 0.7 0.4 1 3.2 1.1 3.6 1.1 0 0-0.1-0.9 0.2-1.2-1 0-1.5-0.6-1.5-0.6zM23.4 7.3c0 0-0.3-1.2-0.3-1.6-1.2-0.4-3.5 1.3-3.5 1.3s2.2 0.5 3.8 0.3zM21.5 5.4c0 0 0.9-0.4 1.8-0.2l0.1-0.8c0 0-1.5-1.4-3.5-1.6 0 1.2 1.6 2.6 1.6 2.6zM17.8 22.6c0-1-0.8-1.8-1.8-1.8s-1.8 0.8-1.8 1.8c0 1 0.8 1.8 1.8 1.8s1.8-0.8 1.8-1.8zM16.4 24.8c-0.2 2.1 4 4.4 4 4.4l0.2-1.9 2.4 0.3c0 0.1-5.2-3.9-6.6-2.8z"></path>
</svg>
