<!-- Generated by IcoMoon.io -->
<svg version="1.1" xmlns="http://www.w3.org/2000/svg" width="64" height="64" viewBox="0 0 64 64">
<title>accomplishments</title>
<path d="M11.2 20.4c4.8-1-1.2-8.6-1.2-8.6s-3.8 8.4 1.2 8.6zM14.2 15.6c5 0 1.4-8.6 1.4-8.6s-6 7.2-1.4 8.6zM9.6 26.2c4.4-2.2-3.6-8.2-3.6-8.2s-1.2 8.8 3.6 8.2zM9.8 32c3.8-3-5.6-7.2-5.6-7.2s1 8.8 5.6 7.2zM11.6 37c2.6-3.8-7.8-5.6-7.8-5.6s4 8.2 7.8 5.6zM15 42c1.6-4.2-9.2-4-9.2-4s6.2 7.2 9.2 4zM19.4 45.6c0-4.4-10.2-1.4-10.2-1.4s8.4 5.4 10.2 1.4zM25.2 48.8c-1-4.2-10.2 0.4-10.2 0.4s9.6 3.6 10.2-0.4zM18.4 55.4l4.8-0.6 0.4 3.8c0 0 8.4-4.6 8-8.8-3-2.4-13.2 5.6-13.2 5.6zM29.2 48.4c-1-3-3.8-7.2-3.8-7.2l-1.2 5c0 0 2.4 1.4 1.8 2.8 0 0.2 2-0.8 3.2-0.6zM23.4 46.2c0-2.2-1.4-7.4-1.4-7.4s-3 4.2-3 4.8c1.2 1 1 3 0.8 3.2 0-0.2 2.2-1 3.6-0.6zM18.4 43c1-2.4 0.6-7.6 0.6-7.6l-3.6 4c0 0 1 2.2 0 3 0 0 2 0 3 0.6zM14.6 38.8c1.4-2 2.4-7.4 2.4-7.4s-4.2 2.6-4.2 3.2c0.6 1.6-0.8 3-0.8 3s1.8 0.4 2.6 1.2zM12.2 33.8c2.2-1.4 4.2-6.2 4.2-6.2l-4.6 2c0 0 0.2 2-1.8 3-0.2 0 1.8 0.8 2.2 1.2zM9.6 26.8l1.6 1.8c0 0 5.2-2.4 5.6-4.8l-5 0.8c0 0-1 2.2-2.2 2.2zM10.8 21.2c0 0 1 1 1.4 2.4 2.2-0.6 6.4-3 6.4-4-1.4 0-5 0-5 0s-0.6 1.8-2.8 1.6zM21.2 16.6c-0.6-0.4-4.6-1.4-4.6-1.4s-1 1.2-3 1.2c0.6 0.8 0.4 2.4 0.4 2.4 0.8 0 6.4-0.4 7.2-2.2zM24.8 14c0 0-4.4-3.4-7-2.6 0 1-0.6 3.2-0.6 3.2 3.2 0.4 7.6-0.6 7.6-0.6zM21 10.8c0 0 3.2-2.8 3.2-5.4-4 0.4-7 3.2-7 3.2l0.2 1.6c1.8-0.2 3.6 0.6 3.6 0.6zM52.8 20.4c4.8-0.4 1.2-8.6 1.2-8.6s-6 7.6-1.2 8.6zM49.8 15.6c4.6-1.4-1.4-8.6-1.4-8.6s-3.6 8.4 1.4 8.6zM54.4 26.2c4.8 0.6 3.6-8.2 3.6-8.2s-8 6-3.6 8.2zM54.2 32c4.6 1.6 5.6-7.2 5.6-7.2s-9.4 4.2-5.6 7.2zM60.2 31.4c0 0-10.4 2-7.8 5.6 3.8 2.6 7.8-5.6 7.8-5.6zM49 42c3 3.4 9.2-4 9.2-4s-10.6-0.2-9.2 4zM44.6 45.6c1.6 4 10.2-1.4 10.2-1.4s-10.2-2.8-10.2 1.4zM38.8 48.8c0.8 4.2 10.2 0.4 10.2 0.4s-9.2-4.8-10.2-0.4zM38 49.2c-0.6-1.4 1.8-2.8 1.8-2.8l-1.2-5c0 0-2.6 4-3.6 7.2 1-0.4 3 0.6 3 0.6zM45 43.6c0-0.6-3-4.8-3-4.8s-1.4 5.2-1.4 7.4c1.4-0.4 3.4 0.6 3.4 0.6-0.2-0.4-0.2-2.4 1-3.2zM45 35.6c0 0-0.6 5 0.6 7.6 1-0.6 3-0.6 3-0.6-1-0.8 0-3 0-3l-3.6-4zM52 37.6c0 0-1.4-1.4-0.8-3 0-0.6-4.2-3.2-4.2-3.2s0.8 5.4 2.4 7.4c0.8-0.8 2.6-1.2 2.6-1.2zM47.8 27.6c0 0 1.8 4.8 4.2 6.2 0.2-0.6 2.4-1.4 2.4-1.4-2.2-1-1.8-3-1.8-3l-4.8-1.8zM52.2 24.6l-5-0.8c0.2 2.4 5.6 4.8 5.6 4.8l1.6-1.8c-1.2 0-2.2-2.2-2.2-2.2zM50.6 19.8c0 0-3.6 0-5 0 0 0.8 4.2 3.2 6.4 4 0.2-1.4 1.4-2.4 1.4-2.4-2.4 0-2.8-1.6-2.8-1.6zM47.4 15.2c0 0-4 1-4.6 1.4 0.8 2 6.4 2.2 7.2 2.2 0 0-0.2-1.8 0.4-2.4-2 0-3-1.2-3-1.2zM46.8 14.6c0 0-0.6-2.4-0.6-3.2-2.4-0.8-7 2.6-7 2.6s4.4 1 7.6 0.6zM43 10.8c0 0 1.8-0.8 3.6-0.4l0.2-1.6c0 0-3-2.8-7-3.2 0 2.4 3.2 5.2 3.2 5.2zM35.6 45.2c0-2-1.6-3.6-3.6-3.6s-3.6 1.6-3.6 3.6c0 2 1.6 3.6 3.6 3.6s3.6-1.6 3.6-3.6zM32.8 49.6c-0.4 4.2 8 8.8 8 8.8l0.4-3.8 4.8 0.6c0 0.2-10.4-7.8-13.2-5.6z"></path>
</svg>
