<!-- Generated by IcoMoon.io -->
<svg version="1.1" xmlns="http://www.w3.org/2000/svg" width="64" height="64" viewBox="0 0 64 64">
<title>add_exam</title>
<path d="M32 50.458c-0.458-3.106-8.272-12.734-8.272-12.734l-4.048 3.468c0 0 6.11 6.742 9.75 9.266h-9.004v-4.196l-4.012-5v10.398c0 1.566 1.27 2.836 2.834 2.836h15.46l-2.4-4.040h-0.308zM20.426 10.398h29.99v16.896l4.012 0.724v-18.698c0-1.566-1.27-2.834-2.836-2.834h-32.342c-1.564 0-2.834 1.268-2.834 2.834v7.8l4.012 6.906v-13.628zM46.404 14.422h-21.946v4.026h21.946v-4.026zM24.458 26.448h21.946v-4.024h-21.946v4.024zM24.458 30.418v4.026h12.83l3.118-4.026h-15.948zM31.044 42.45h5.412v-4.028h-7.998l2.586 4.028zM23.088 36.976l-7.848-9.182-4.686 4.022 8.49 8.632 4.044-3.472zM10.164 21.26c-2.374-2.768-6.332-5.656-8.036-4.198-1.706 1.462 0.792 5.236 3.35 8.22 2.558 2.98 3.836 4.468 3.836 4.468l4.686-4.012c0 0-1.462-1.708-3.836-4.478zM19.376 26.896c-2.192-2.552-2.74-3.196-4.75-5.538-2.008-2.342-3.622-2.066-3.622-2.066l9.682 11.292c0 0 0.884-1.13-1.31-3.688zM45.124 60.812h6.946v-5.208h-6.946v5.208zM56.412 32.442c-1.918-1.59-5.554-2.386-8.376-2.386-2.766 0-5.040 0.98-7.106 2.59-3.128 2.428-2.954 8.902-2.954 8.902h6.876c0-2.848 1.578-4.926 4.156-4.926 2.364 0 3.050 2.308 3.050 2.758 0 1.204-0.684 2.45-2.050 3.738-3.066 2.872-4.614 4.914-4.64 6.118v3.86h6.73v-2.176c0.054-1.316 0.704-2.546 1.942-3.696 2.258-2.016 5.492-3.82 5.492-8.132 0.002-3.874-3.12-6.65-3.12-6.65z"></path>
</svg>
