<!-- Generated by IcoMoon.io -->
<svg version="1.1" xmlns="http://www.w3.org/2000/svg" width="32" height="32" viewBox="0 0 32 32">
<title>add_message</title>
<path d="M20.432 13.118l7.064-0.036c0 0 0.033 2.983 0.033 4.532 1.076-1.318 1.863-2.83 1.863-4.435 0-5.13-6.238-9.289-13.932-9.289s-13.933 4.159-13.933 9.289c0 3.315 0.849 10.312 12.611 14.695-0.476-0.949-3.777-6.004-2.5-5.762 1.214 0.232 2.496 0.354 3.821 0.354 0-2.564 0.061-4.406 0.061-4.406l4.92-0.023-0.008-4.919zM25.467 20.059v-4.982h-2.979v4.982h-5.006v3.053h5.006v5h2.979v-5h5.006v-3.053h-5.006z"></path>
</svg>
