<!-- Generated by IcoMoon.io -->
<svg version="1.1" xmlns="http://www.w3.org/2000/svg" width="64" height="64" viewBox="0 0 64 64">
<title>add_curriculum</title>
<path d="M28.088 52.692c0 0-0.542-0.96-0.542-4.956 0-3.992 0.632-5.956 0.632-5.956s8.64-2.608 15.702-4.85v-4.39l11.954-2.314 2.25 4.44v5.626l1.836-0.078 0.046-8.108 1.028-0.602v-1.936l-2.074-0.666c2.148-1.734 2.964-4.852 3.040-7.386 0.074-2.54-0.926-6.51-6.008-7.928-4.788-1.338-22.034-5.408-22.034-5.408l-25.654 4.9-0.074 1.668 2.298 0.466c0.594 2.874-0.734 6.582-0.734 6.582l-2.148 0.574v1.578l5.968 2.504c0 0-1.036 0-5.572 0.86-4.536 0.862-5.966 3.796-5.966 5.73 0 1.932 0.476 5.226 3.738 8.45 3.946 3.896 21.328 14.83 21.328 14.83l8.924-3.554-2.054-2.392-5.884 2.316zM34.878 20.778c0 0 19.082-3.7 20.856-3.894 1.778-0.19 4.71 1.036 4.496 4.996-0.21 3.962-0.992 5.312-3.476 5.698-2.484 0.382-22.016 5.686-22.016 5.686s2.414-5.844 0.14-12.486zM6.666 38.99c-1.62-1.332-2.116-3.824-2.116-5.668 0-1.834 1.694-4.252 4.088-2.856 2.394 1.394 16.896 10.078 16.896 10.078s-0.704 3.23-0.704 6.022c0 2.788 0.752 5.268 0.752 5.268s-17.296-11.512-18.916-12.844zM10.044 22.36c0 0 1.93-3.806 1.188-6.944l17.308 5.474 3.112-0.146c0 0 3.34 1.778 0.52 12.256l-22.128-10.64zM54.008 44.148v-9.964h-5.958v9.964h-10.010v6.104h10.012v10h5.958v-10h10.012v-6.104h-10.014z"></path>
</svg>
