<!-- Generated by IcoMoon.io -->
<svg version="1.1" xmlns="http://www.w3.org/2000/svg" width="32" height="32" viewBox="0 0 32 32">
<title>add_course</title>
<path d="M21.95 18.155c1.319-0.69 2.999-1.27 2.999-1.27s-1.188-5.437-1.268-5.808c-4.090-3.921-5.128-4.196-5.969-3.978-0.503 0.13-0.687 0.423-0.761 0.568 0 0.448 0 7.484 0 11.261 0.391-0.327 0.756-0.69 1.241-0.87 1.298-0.475 2.557-0.331 3.758 0.097zM13.676 18.060c0.486 0.18 0.85 0.543 1.241 0.87 0-3.776 0-10.813 0-11.261-0.075-0.146-0.257-0.438-0.761-0.568-0.842-0.219-1.75 0.057-5.839 3.978-0.116 0.533-1.315 6.024-1.977 9.060 2.199-1.358 4.62-3.077 7.336-2.079zM28.589 16.996l-1.422-4.731-1.263-0.009 1.032 4.728 1.653 0.012zM22.068 21.975v-1.319c0 0-3.093-0.965-4.289-0.525-0.815 0.301-1.397 1.389-1.779 2.503-0.382-1.114-0.964-2.202-1.78-2.503-2.684-0.986-7.275 1.963-8.817 3.184l-1.47-1.159 2.197-10.063-0.98-0.010-4.135 12.875h15.916l2.087-2.983h3.050zM26.94 23.947v-4.985h-2.979v4.985h-5.006v3.051h5.006v5.002h2.979v-5.002h5.006v-3.051h-5.006z"></path>
</svg>
