<!-- Generated by IcoMoon.io -->
<svg version="1.1" xmlns="http://www.w3.org/2000/svg" width="32" height="32" viewBox="0 0 32 32">
<title>add_supplemental_material</title>
<path d="M21.789 14.096l5.072-0.064 2.059-3.643-7.002 0.725-0.648-2.245-6.1 0.101-1.078-1.573-10.262 0.788-1.243 1.88-1.878-0.039 5.14 14.522 0.191-0.038-0.018 0.057 10.784-2.203v-3.324h4.982v-4.944zM9.89 12.358l-0.121 0.379-3.18 10.039-3.714-11.353 0.94-0.049 1.241-1.881 7.724-0.683 0.966 1.278 6.405-0.203 0.454 1.364-10.715 1.109zM26.285 20.552v-4.984h-2.979v4.984h-5.006v3.052h5.006v5h2.979v-5h5.006v-3.052h-5.006z"></path>
</svg>
