<!-- Generated by IcoMoon.io -->
<svg version="1.1" xmlns="http://www.w3.org/2000/svg" width="32" height="32" viewBox="0 0 32 32">
<title>add_user</title>
<path d="M14.5 27.4c-2.4 0-5.5-1.9-5.5-1.9s-0.3-1.5 0.9-4.4l-1.3-0.4c0 0-1.2 2-1.2 4.8-0.6 0-1.7 0-2.6 0 0-4.7 2.9-8.7 6.9-10.1 0.8 0.4 1.7 0.6 2.7 0.6s1.9-0.2 2.8-0.6c0.8 0.2 1.5 0.6 2.2 1 0.4-0.5 1-1.3 1.6-1.9-0.5-0.3-1-0.6-1.5-0.9 1-1.2 1.7-2.8 1.7-4.5 0-3.8-3-6.8-6.8-6.8s-6.8 3-6.8 6.8c0 1.7 0.7 3.3 1.7 4.5-4.1 2.1-6.9 6.6-6.9 11.7 0 0.6 0.1 2.1 1.1 2.1s4.2 0 4.2 0 3.6 1.9 6.7 1.9c1.7 0 3.5-0.5 4.9-1 0-1.1-0.1-1.3-0.3-2.3-1.1 0.6-2.9 1.4-4.5 1.4zM14.5 4.6c2.6 0 4.6 2.1 4.6 4.6 0 2.6-2.1 4.6-4.6 4.6-2.6 0-4.6-2.1-4.6-4.6-0.1-2.6 2-4.6 4.6-4.6zM24.5 21.6v-5h-3v5h-5v3.1h5v5h3v-5h5v-3.1h-5z"></path>
</svg>
