<!-- Generated by IcoMoon.io -->
<svg version="1.1" xmlns="http://www.w3.org/2000/svg" width="64" height="64" viewBox="0 0 64 64">
<title>add_video2</title>
<path d="M58 43.8h4v-14c0-1.8-2.8-2.2-4.4-0.6-2.2 2-5 3.8-6.2 4.6h6.6v10z"></path>
<path d="M37.8 24.2c4.8 0 8.8-4 8.8-8.8s-4-8.8-8.8-8.8c-4.8 0-8.8 4-8.8 8.8 0 5 4 8.8 8.8 8.8z"></path>
<path d="M25.422 9.178c3.437 3.437 3.437 9.008 0 12.445s-9.008 3.437-12.445 0c-3.437-3.437-3.437-9.008 0-12.445s9.008-3.437 12.445 0z"></path>
<path d="M44 33.8h6.8v-1.8c0-2.6-2.2-4.8-4.8-4.8h-31.8c-2.6 0-4.8 2.2-4.8 4.8v20.6c0 2.6 2.2 4.8 4.8 4.8h19.8v-13.6h10v-10z"></path>
<path d="M3.8 27.4c-1.2 0-1.8 1-1.8 2.2v8.6c0 1.2 0.6 2.2 1.8 2.2s2-1 2-2.2v-8.6c0-1.2-0.8-2.2-2-2.2z"></path>
<path d="M54 47.8v-10h-6v10h-10v6.2h10v10h6v-10h10v-6.2z"></path>
</svg>
