<!-- Generated by IcoMoon.io -->
<svg version="1.1" xmlns="http://www.w3.org/2000/svg" width="64" height="64" viewBox="0 0 64 64">
<title>add_user</title>
<path d="M29 54.8c-4.8 0-11-3.8-11-3.8s-0.6-3 1.8-8.8l-2.6-0.8c0 0-2.4 4-2.4 9.6-1.2 0-3.4 0-5.2 0 0-9.4 5.8-17.4 13.8-20.2 1.6 0.8 3.4 1.2 5.4 1.2s3.8-0.4 5.6-1.2c1.6 0.4 3 1.2 4.4 2 0.8-1 2-2.6 3.2-3.8-1-0.6-2-1.2-3-1.8 2-2.4 3.4-5.6 3.4-9 0-7.6-6-13.6-13.6-13.6s-13.6 6-13.6 13.6c0 3.4 1.4 6.6 3.4 9-8.2 4.2-13.8 13.2-13.8 23.4 0 1.2 0.2 4.2 2.2 4.2s8.4 0 8.4 0 7.2 3.8 13.4 3.8c3.4 0 7-1 9.8-2 0-2.2-0.2-2.6-0.6-4.6-2.2 1.2-5.8 2.8-9 2.8zM29 9.2c5.2 0 9.2 4.2 9.2 9.2 0 5.2-4.2 9.2-9.2 9.2-5.2 0-9.2-4.2-9.2-9.2-0.2-5.2 4-9.2 9.2-9.2zM49 43.2v-10h-6v10h-10v6.2h10v10h6v-10h10v-6.2h-10z"></path>
</svg>
