<!-- Generated by IcoMoon.io -->
<svg version="1.1" xmlns="http://www.w3.org/2000/svg" width="64" height="64" viewBox="0 0 64 64">
<title>add_to_pool</title>
<path d="M27.798 27.352c11.908 0 20.258-2.234 20.258-4.994s0-9.666 0-9.666-3.964 5.106-20.346 5.106-21.674-5.106-21.674-5.106-0.058 6.906-0.058 9.666 9.914 4.994 21.82 4.994zM28.042 51.418c0 0-0.032-6.45-0.032-8.208-16.746 0-21.974-3.882-21.974-3.882s-0.058 7.382-0.058 10.14 10.166 4.996 22.074 4.996c10.042 0.076-0.010-3.046-0.010-3.046zM6.036 25.418c0 0-0.022 7.738-0.022 10.492 0 2.762 9.878 5 21.786 5 0.886 0 2.42-2.102 2.42-2.102l7.806-0.094 0.028-9.596c0 0-5.292 0.882-10.6 0.882-14.972 0-21.418-4.582-21.418-4.582zM27.798 15.124c11.908 0 20.258-2.236 20.258-4.994s-8.35-4.996-20.258-4.996c-11.906 0-21.748 2.238-21.748 4.996s9.842 4.994 21.748 4.994zM48.012 42.758v-9.966h-5.958v9.966h-10.012v6.102h10.012v10.008h5.958v-10.008h10.012v-6.102h-10.012z"></path>
</svg>
