<!-- Generated by IcoMoon.io -->
<svg version="1.1" xmlns="http://www.w3.org/2000/svg" width="32" height="32" viewBox="0 0 32 32">
<title>add_skill_assessment</title>
<path d="M2.5 20.853c0 0.554 0.447 1.001 1 1.001h11v-2h-11c-0.553 0-1 0.447-1 0.999zM18.186 15.654c0.905-0.645 4.94-3.985 4.94-3.985s-4.388 1.694-5.672 2.222c-0.45-0.45-1.073-0.729-1.762-0.729-1.376 0-2.492 1.117-2.492 2.493s1.116 2.493 2.492 2.493c1.377-0.001 2.494-1.118 2.494-2.494zM3.5 18.41h2c0.553 0 1-0.348 1-0.778s-0.447-0.777-1-0.777h-2c-0.553 0-1 0.348-1 0.777 0 0.431 0.447 0.778 1 0.778zM26.5 16.854c-0.553 0-1 0.348-1 0.777 0 0.431 0.447 0.778 1 0.778h2c0.553 0 1-0.348 1-0.778s-0.447-0.777-1-0.777h-2zM16.003 8.136c0.43 0 0.778-0.449 0.778-1.001v-2c0-0.552-0.349-1-0.778-1-0.431 0-0.778 0.448-0.778 1v2c0 0.552 0.347 1.001 0.778 1.001zM3.725 15.149l1.933 0.518c0.533 0.144 1.056-0.078 1.167-0.494 0.111-0.415-0.23-0.867-0.765-1.011l-1.932-0.519c-0.533-0.142-1.056 0.079-1.167 0.494-0.111 0.417 0.23 0.87 0.764 1.012zM18.461 8.459c0.416 0.111 0.868-0.231 1.012-0.765l0.518-1.932c0.143-0.533-0.078-1.056-0.493-1.168-0.416-0.111-0.868 0.231-1.012 0.766l-0.518 1.932c-0.143 0.534 0.078 1.056 0.493 1.167zM4.787 12.056l1.731 1c0.479 0.275 1.040 0.197 1.255-0.173 0.216-0.372 0.002-0.898-0.477-1.175l-1.731-1c-0.479-0.275-1.040-0.198-1.256 0.175-0.214 0.372 0 0.897 0.478 1.173zM20.752 9.41c0.373 0.214 0.898 0.001 1.175-0.479l1-1.732c0.275-0.478 0.198-1.039-0.175-1.254-0.372-0.216-0.897-0.002-1.174 0.477l-1 1.731c-0.276 0.479-0.198 1.041 0.174 1.257zM8.026 10.759c0.391 0.392 0.954 0.461 1.258 0.156s0.234-0.867-0.156-1.258l-1.414-1.413c-0.391-0.392-0.954-0.462-1.258-0.158s-0.234 0.869 0.156 1.259l1.414 1.414zM22.719 10.919c0.305 0.305 0.867 0.234 1.258-0.156l1.414-1.414c0.391-0.391 0.461-0.954 0.157-1.258s-0.867-0.234-1.258 0.156l-1.414 1.414c-0.391 0.392-0.461 0.954-0.157 1.258zM10.078 8.925c0.276 0.479 0.803 0.691 1.175 0.479 0.372-0.216 0.45-0.778 0.174-1.257l-1-1.731c-0.277-0.479-0.802-0.692-1.174-0.478s-0.45 0.777-0.175 1.255l1 1.732zM24.229 12.884c0.216 0.37 0.777 0.448 1.256 0.173l1.732-1c0.478-0.276 0.691-0.802 0.477-1.174s-0.777-0.45-1.256-0.174l-1.731 1c-0.479 0.275-0.693 0.802-0.478 1.175zM12.534 7.689c0.144 0.534 0.596 0.876 1.011 0.766 0.416-0.113 0.637-0.634 0.493-1.168l-0.518-1.933c-0.143-0.533-0.595-0.876-1.011-0.765-0.415 0.11-0.636 0.634-0.493 1.167l0.518 1.933zM25.179 15.175c0.111 0.415 0.634 0.637 1.167 0.493l1.932-0.518c0.534-0.143 0.876-0.595 0.765-1.011s-0.634-0.637-1.167-0.494l-1.932 0.519c-0.535 0.144-0.877 0.596-0.765 1.011zM24.492 14.831h-2.979v4.982h-5.006v3.052h5.006v5h2.979v-5h5.005v-3.052h-5.005v-4.982z"></path>
</svg>
