<!-- Generated by IcoMoon.io -->
<svg version="1.1" xmlns="http://www.w3.org/2000/svg" width="32" height="32" viewBox="0 0 32 32">
<title>add_document</title>
<path d="M7.983 25.851c0-0.764 0-19.034 0-19.766 0-0.729 0.445-1.145 1.145-1.145s7.876 0 7.876 0 0 4.647 0 5.79c0 1.145 1.145 2.258 2.543 2.258s3.443 0 3.443 0v8.009h2.012v-8.334c0-0.596-0.053-1.343-1.070-2.359-0.874-0.875-4.701-5.544-5.369-6.215-0.668-0.666-1.719-1.112-2.375-1.112h-7.917c-1.253 0-2.268 1.015-2.268 2.268v21.455c0 1.252 1.015 2.268 2.268 2.268h7.74v-2.005c0 0-6.807 0-7.011 0-0.381 0-1.017-0.349-1.017-1.112zM9.998 20.985h6v-2.002h-6v2.002zM20.998 14.984h-11v2.001h11v-2.001zM9.998 12.983h5v-1.997h-5v1.997zM14.998 6.986h-5v1.999h5v-1.999zM20.99 22.948v-4.981h-2.979v4.981h-5.006v3.052h5.006v5h2.979v-5h5.006v-3.052h-5.006z"></path>
</svg>
