<!-- Generated by IcoMoon.io -->
<svg version="1.1" xmlns="http://www.w3.org/2000/svg" width="32" height="32" viewBox="0 0 32 32">
<title>add_curriculum</title>
<path d="M14.044 26.346c0 0-0.271-0.48-0.271-2.478 0-1.996 0.316-2.978 0.316-2.978s4.32-1.304 7.851-2.425v-2.195l5.977-1.157 1.125 2.22v2.813l0.918-0.039 0.023-4.054 0.514-0.301v-0.968l-1.037-0.333c1.074-0.867 1.482-2.426 1.52-3.693 0.037-1.27-0.463-3.255-3.004-3.964-2.394-0.669-11.017-2.704-11.017-2.704l-12.827 2.45-0.037 0.834 1.149 0.233c0.297 1.437-0.367 3.291-0.367 3.291l-1.074 0.287v0.789l2.984 1.252c0 0-0.518 0-2.786 0.43s-2.983 1.898-2.983 2.865c0 0.966 0.238 2.613 1.869 4.225 1.973 1.948 10.664 7.415 10.664 7.415l4.462-1.777-1.027-1.196-2.942 1.158zM17.439 10.389c0 0 9.541-1.85 10.428-1.947 0.889-0.095 2.355 0.518 2.248 2.498-0.105 1.981-0.496 2.656-1.738 2.849-1.242 0.191-11.008 2.843-11.008 2.843s1.207-2.922 0.070-6.243zM3.333 19.495c-0.81-0.666-1.058-1.912-1.058-2.834 0-0.917 0.847-2.126 2.044-1.428s8.448 5.039 8.448 5.039-0.352 1.615-0.352 3.011c0 1.394 0.376 2.634 0.376 2.634s-8.648-5.756-9.458-6.422zM5.022 11.18c0 0 0.965-1.903 0.594-3.472l8.654 2.737 1.556-0.073c0 0 1.67 0.889 0.26 6.128l-11.064-5.32zM27.004 22.074v-4.982h-2.979v4.982h-5.005v3.052h5.006v5h2.979v-5h5.006v-3.052h-5.007z"></path>
</svg>
