<!-- Generated by IcoMoon.io -->
<svg version="1.1" xmlns="http://www.w3.org/2000/svg" width="64" height="64" viewBox="0 0 64 64">
<title>add_course</title>
<path d="M43.9 36.31c2.638-1.38 5.998-2.54 5.998-2.54s-2.376-10.874-2.536-11.616c-8.18-7.842-10.256-8.392-11.938-7.956-1.006 0.26-1.374 0.846-1.522 1.136 0 0.896 0 14.968 0 22.522 0.782-0.654 1.512-1.38 2.482-1.74 2.596-0.95 5.114-0.662 7.516 0.194zM27.352 36.12c0.972 0.36 1.7 1.086 2.482 1.74 0-7.552 0-21.626 0-22.522-0.15-0.292-0.514-0.876-1.522-1.136-1.684-0.438-3.5 0.114-11.678 7.956-0.232 1.066-2.63 12.048-3.954 18.12 4.398-2.716 9.24-6.154 14.672-4.158zM57.178 33.992l-2.844-9.462-2.526-0.018 2.064 9.456 3.306 0.024zM44.136 43.95v-2.638c0 0-6.186-1.93-8.578-1.050-1.63 0.602-2.794 2.778-3.558 5.006-0.764-2.228-1.928-4.404-3.56-5.006-5.368-1.972-14.55 3.926-17.634 6.368l-2.94-2.318 4.394-20.126-1.96-0.020-8.27 25.75h31.832l4.174-5.966h6.1zM53.88 47.894v-9.97h-5.958v9.97h-10.012v6.102h10.012v10.004h5.958v-10.004h10.012v-6.102h-10.012z"></path>
</svg>
