<!-- Generated by IcoMoon.io -->
<svg version="1.1" xmlns="http://www.w3.org/2000/svg" width="64" height="64" viewBox="0 0 64 64">
<title>add_message</title>
<path d="M40.864 26.236l14.128-0.072c0 0 0.066 5.966 0.066 9.064 2.152-2.636 3.726-5.66 3.726-8.87 0-10.26-12.476-18.578-27.864-18.578s-27.866 8.318-27.866 18.578c0 6.63 1.698 20.624 25.222 29.39-0.952-1.898-7.554-12.008-5-11.524 2.428 0.464 4.992 0.708 7.642 0.708 0-5.128 0.122-8.812 0.122-8.812l9.84-0.046-0.016-9.838zM50.934 40.118v-9.964h-5.958v9.964h-10.012v6.106h10.012v10h5.958v-10h10.012v-6.106h-10.012z"></path>
</svg>
