<!-- Generated by IcoMoon.io -->
<svg version="1.1" xmlns="http://www.w3.org/2000/svg" width="64" height="64" viewBox="0 0 64 64">
<title>add_skill_assessment</title>
<path d="M5 41.706c0 1.108 0.894 2.002 2 2.002h22v-4h-22c-1.106 0-2 0.894-2 1.998zM36.372 31.308c1.81-1.29 9.88-7.97 9.88-7.97s-8.776 3.388-11.344 4.444c-0.9-0.9-2.146-1.458-3.524-1.458-2.752 0-4.984 2.234-4.984 4.986s2.232 4.986 4.984 4.986c2.754-0.002 4.988-2.236 4.988-4.988zM7 36.82h4c1.106 0 2-0.696 2-1.556s-0.894-1.554-2-1.554h-4c-1.106 0-2 0.696-2 1.554 0 0.862 0.894 1.556 2 1.556zM53 33.708c-1.106 0-2 0.696-2 1.554 0 0.862 0.894 1.556 2 1.556h4c1.106 0 2-0.696 2-1.556s-0.894-1.554-2-1.554h-4zM32.006 16.272c0.86 0 1.556-0.898 1.556-2.002v-4c0-1.104-0.698-2-1.556-2-0.862 0-1.556 0.896-1.556 2v4c0 1.104 0.694 2.002 1.556 2.002zM7.45 30.298l3.866 1.036c1.066 0.288 2.112-0.156 2.334-0.988 0.222-0.83-0.46-1.734-1.53-2.022l-3.864-1.038c-1.066-0.284-2.112 0.158-2.334 0.988-0.222 0.834 0.46 1.74 1.528 2.024zM36.922 16.918c0.832 0.222 1.736-0.462 2.024-1.53l1.036-3.864c0.286-1.066-0.156-2.112-0.986-2.336-0.832-0.222-1.736 0.462-2.024 1.532l-1.036 3.864c-0.286 1.068 0.156 2.112 0.986 2.334zM9.574 24.112l3.462 2c0.958 0.55 2.080 0.394 2.51-0.346 0.432-0.744 0.004-1.796-0.954-2.35l-3.462-2c-0.958-0.55-2.080-0.396-2.512 0.35-0.428 0.744 0 1.794 0.956 2.346zM41.504 18.82c0.746 0.428 1.796 0.002 2.35-0.958l2-3.464c0.55-0.956 0.396-2.078-0.35-2.508-0.744-0.432-1.794-0.004-2.348 0.954l-2 3.462c-0.552 0.958-0.396 2.082 0.348 2.514zM16.052 21.518c0.782 0.784 1.908 0.922 2.516 0.312 0.608-0.608 0.468-1.734-0.312-2.516l-2.828-2.826c-0.782-0.784-1.908-0.924-2.516-0.316-0.608 0.61-0.468 1.738 0.312 2.518l2.828 2.828zM45.438 21.838c0.61 0.61 1.734 0.468 2.516-0.312l2.828-2.828c0.782-0.782 0.922-1.908 0.314-2.516s-1.734-0.468-2.516 0.312l-2.828 2.828c-0.782 0.784-0.922 1.908-0.314 2.516zM20.156 17.85c0.552 0.958 1.606 1.382 2.35 0.958 0.744-0.432 0.9-1.556 0.348-2.514l-2-3.462c-0.554-0.958-1.604-1.384-2.348-0.956-0.744 0.43-0.9 1.554-0.35 2.51l2 3.464zM48.458 25.768c0.432 0.74 1.554 0.896 2.512 0.346l3.464-2c0.956-0.552 1.382-1.604 0.954-2.348s-1.554-0.9-2.512-0.348l-3.462 2c-0.958 0.55-1.386 1.604-0.956 2.35zM25.068 15.378c0.288 1.068 1.192 1.752 2.022 1.532 0.832-0.226 1.274-1.268 0.986-2.336l-1.036-3.866c-0.286-1.066-1.19-1.752-2.022-1.53-0.83 0.22-1.272 1.268-0.986 2.334l1.036 3.866zM50.358 30.35c0.222 0.83 1.268 1.274 2.334 0.986l3.864-1.036c1.068-0.286 1.752-1.19 1.53-2.022s-1.268-1.274-2.334-0.988l-3.864 1.038c-1.070 0.288-1.754 1.192-1.53 2.022zM48.984 29.662h-5.958v9.964h-10.012v6.104h10.012v10h5.958v-10h10.010v-6.104h-10.010v-9.964z"></path>
</svg>
