<!-- Generated by IcoMoon.io -->
<svg version="1.1" xmlns="http://www.w3.org/2000/svg" width="32" height="32" viewBox="0 0 32 32">
<title>add_content</title>
<path d="M24.5 7.6c0.2-1.5 0.3-2.7 0.3-3.1 0.1-1.3-0.6-1.3-0.9-1.3-0.4 0.1-4.1 1-5 1.2s-1.1 0.6-1.4 0.9c-0.2 0.3-0.2 0.3-0.7 1.1-0.3 0.5-0.8 1.1-1.8 1.4-0.9 0.3-9 2.7-9.8 3-0.7 0.2-2.9 0.9-2.5 3.5s2.3 13.2 2.3 13.7c0 0.3 0.2 0.6 0.4 0.7 0-1.8 0-12.2 0-12.4 0-1.5 1.1-2.5 2.5-3 1.5-0.6 16.4-5.7 16.6-5.7z"></path>
<path d="M26.5 16.6c0.1-0.3 2.2-6.7 2.6-8 0.3-1.2 0.3-1.8-0.7-1.4-0.7 0.2-15.7 5.5-18.5 6.4-2.5 0.8-3 2.1-3.1 3.8 0 1.6-0.2 9.5-0.2 11.1 0 0.2-0.2 0.3-0.2 0.3s0.3 0 0.5-0.1c2.7-1.6 18.8-11.2 19.1-11.4 0.3-0.3 0.4-0.4 0.5-0.7z"></path>
<path d="M27 23.9v-4.9h-3v4.9h-5v3.1h5v5h3v-5h5v-3.1z"></path>
</svg>
