<!-- Generated by IcoMoon.io -->
<svg version="1.1" xmlns="http://www.w3.org/2000/svg" width="64" height="64" viewBox="0 0 64 64">
<title>add_supplemental_material</title>
<path d="M43.578 28.192l10.144-0.128 4.118-7.286-14.004 1.45-1.296-4.49-12.2 0.202-2.156-3.146-20.524 1.576-2.486 3.76-3.756-0.078 10.28 29.044 0.382-0.076-0.036 0.114 21.568-4.406v-6.648h9.964v-9.888zM19.78 24.716l-0.242 0.758-6.36 20.078-7.428-22.706 1.88-0.098 2.482-3.762 15.448-1.366 1.932 2.556 12.81-0.406 0.908 2.728-21.43 2.218zM52.57 41.104v-9.968h-5.958v9.968h-10.012v6.104h10.012v10h5.958v-10h10.012v-6.104h-10.012z"></path>
</svg>
