<!-- Generated by IcoMoon.io -->
<svg version="1.1" xmlns="http://www.w3.org/2000/svg" width="64" height="64" viewBox="0 0 64 64">
<title>add_coaching</title>
<path d="M51.4 26c1.8-2.2 3-5 3-8 0-6.8-5.4-12.4-12-12.4-3.2 0-6 1.2-8 3.2 0.6 1.2 1.4 2 2.2 3.2 1.4-1.6 3.4-2.6 5.8-2.6 4.4 0 8.2 3.8 8.2 8.4s-3.6 8.4-8.2 8.4c-1.4 0-2.6-0.4-3.8-1-0.4 1.2-1.2 3.8-1 3.8 1.4 0.6 3 1 4.8 1s3.4-0.4 4.8-1c2 1.2 4 2.8 5.8 5h5.2c-2-3.4-4.4-6.2-6.8-8z"></path>
<path d="M30.2 29.4c3.4-2.2 5.6-6.2 5.6-10.6 0-7.2-5.8-12.8-12.8-12.8s-12.8 5.6-12.8 12.8c0 4.4 2.2 8.4 5.8 10.6l7 3.2 7.2-3.2-3.4 8.8-4-4.2-4 4.2-2.8-8.8c-9 3.2-13.6 9.8-13.6 20.6 0 0.2 0 1.2 0 1.6 0 0.2 2.4 3.4 8.6 2.4 0 0.2 3.4 4.6 12.2 4.6 5.8 0 9.2-2 10.8-3.4v-11.4h8.6c-1.4-7.4-5.4-12-12.4-14.4zM22.2 53.8c0 0-3.2-2.6-2.6-6 0.8-3.2 2.6-8.8 2.2-8.8-0.2 0-1-2-1-2l1.4-1.8h1l1 1.8-1.4 2.2c0 0 0.8 4.8 1.8 8.4s-2.4 6.2-2.4 6.2zM22.8 27.4c-4.6 0-8.6-4-8.6-8.8 0-5 3.8-8.8 8.6-8.8s8.6 4 8.6 8.8c0 5-3.8 8.8-8.6 8.8z"></path>
<path d="M54 47.8v-9.8h-6v9.8h-10v6.2h10v10h6v-10h10v-6.2z"></path>
</svg>
