<!-- Generated by IcoMoon.io -->
<svg version="1.1" xmlns="http://www.w3.org/2000/svg" width="64" height="64" viewBox="0 0 64 64">
<title>add_document</title>
<path d="M15.966 51.702c0-1.528 0-38.068 0-39.532 0-1.458 0.89-2.29 2.29-2.29s15.752 0 15.752 0 0 9.294 0 11.58c0 2.29 2.29 4.516 5.086 4.516s6.886 0 6.886 0v16.018h4.024v-16.668c0-1.192-0.106-2.686-2.14-4.718-1.748-1.75-9.402-11.088-10.738-12.43-1.336-1.332-3.438-2.224-4.75-2.224h-15.834c-2.506 0-4.536 2.030-4.536 4.536v42.91c0 2.504 2.030 4.536 4.536 4.536h15.48v-4.010c0 0-13.614 0-14.022 0-0.762 0-2.034-0.698-2.034-2.224zM19.996 41.97h12v-4.004h-12v4.004zM41.996 29.968h-22v4.002h22v-4.002zM19.996 25.966h10v-3.994h-10v3.994zM29.996 13.972h-10v3.998h10v-3.998zM41.98 45.896v-9.962h-5.958v9.962h-10.012v6.104h10.012v10h5.958v-10h10.012v-6.104h-10.012z"></path>
</svg>
