<!-- Generated by IcoMoon.io -->
<svg version="1.1" xmlns="http://www.w3.org/2000/svg" width="32" height="32" viewBox="0 0 32 32">
<title>add_exam</title>
<path d="M16 25.229c-0.229-1.553-4.136-6.367-4.136-6.367l-2.024 1.734c0 0 3.055 3.371 4.875 4.633h-4.502v-2.098l-2.006-2.5v5.199c0 0.783 0.635 1.418 1.417 1.418h7.73l-1.2-2.020h-0.154zM10.213 5.199h14.995v8.448l2.006 0.362v-9.349c0-0.783-0.635-1.417-1.418-1.417h-16.171c-0.782 0-1.417 0.634-1.417 1.417v3.9l2.006 3.453v-6.814zM23.202 7.211h-10.973v2.013h10.973v-2.013zM12.229 13.224h10.973v-2.012h-10.973v2.012zM12.229 15.209v2.013h6.415l1.559-2.013h-7.974zM15.522 21.225h2.706v-2.014h-3.999l1.293 2.014zM11.544 18.488l-3.924-4.591-2.343 2.011 4.245 4.316 2.022-1.736zM5.082 10.63c-1.187-1.384-3.166-2.828-4.018-2.099-0.853 0.731 0.396 2.618 1.675 4.11 1.279 1.49 1.918 2.234 1.918 2.234l2.343-2.006c0 0-0.731-0.854-1.918-2.239zM9.688 13.448c-1.096-1.276-1.37-1.598-2.375-2.769-1.004-1.171-1.811-1.033-1.811-1.033l4.841 5.646c0 0 0.442-0.565-0.655-1.844zM22.562 30.406h3.473v-2.604h-3.473v2.604zM28.206 16.221c-0.959-0.795-2.777-1.193-4.188-1.193-1.383 0-2.52 0.49-3.553 1.295-1.564 1.214-1.477 4.451-1.477 4.451h3.438c0-1.424 0.789-2.463 2.078-2.463 1.182 0 1.525 1.154 1.525 1.379 0 0.602-0.342 1.225-1.025 1.869-1.533 1.436-2.307 2.457-2.32 3.059v1.93h3.365v-1.088c0.027-0.658 0.352-1.273 0.971-1.848 1.129-1.008 2.746-1.91 2.746-4.066 0.001-1.937-1.56-3.325-1.56-3.325z"></path>
</svg>
