<!-- Generated by IcoMoon.io -->
<svg version="1.1" xmlns="http://www.w3.org/2000/svg" width="32" height="32" viewBox="0 0 32 32">
<title>admin_add</title>
<path d="M23.2 19.6c-0.6 0-1.1 0.5-1.1 1.1s0.5 1.1 1.1 1.1c0.6 0 1.1-0.5 1.1-1.1s-0.5-1.1-1.1-1.1zM19.8 14h-2.1c0.6 0 1.3 0 2.1 0 0.7 0 1.4 0 2 0h-2c3.1 0 5.6-2.5 5.6-5.6s-2.5-5.6-5.6-5.6c-3.1 0-5.6 2.5-5.6 5.6 0.1 3.1 2.6 5.6 5.6 5.6zM22.8 14h-0.4c0.7 0 1.1 0.1 1.1 0.5 0 0.7-1.7 1.3-3.8 1.3s-3.8-0.6-3.8-1.3c0-0.4 0.4-0.5 1.1-0.5h-0.2c-1.9 0-3.6 0.7-4.9 2 1.1 0.5 3.6 2.1 4.1 4.7s-0.9 5.9-0.9 5.9 0.4 1.6 1.7 1.6h5.9c3.9 0 7.1-3.2 7.1-7.1 0.1-3.9-3.1-7.1-7-7.1zM26.1 21.3c0 0-0.6-0.2-0.8 0.2-0.2 0.3 0.1 0.7 0.3 0.9l-0.8 0.8c0 0-0.3-0.5-0.7-0.4-0.4 0.2-0.4 0.9-0.4 0.9h-1.1c0 0 0.1-0.6-0.2-0.8s-0.9 0.4-0.9 0.4l-0.7-0.8c0 0 0.5-0.4 0.4-0.8s-0.9-0.3-0.9-0.3v-1.1c0 0 0.6 0 0.8-0.2 0.4-0.5-0.3-0.9-0.3-0.9l0.8-0.7c0 0 0.4 0.6 0.9 0.3 0.4-0.2 0.3-0.8 0.3-0.8h1.1c0 0-0.1 0.6 0.2 0.8s0.9-0.4 0.9-0.4l0.7 0.8c0 0-0.5 0.5-0.3 0.9 0.3 0.4 0.8 0.2 0.8 0.2v1zM10.1 16.1h-4v4h-4v4h4v4h4v-4h4v-4h-4v-4z"></path>
</svg>
