<!-- Generated by IcoMoon.io -->
<svg version="1.1" xmlns="http://www.w3.org/2000/svg" width="64" height="64" viewBox="0 0 64 64">
<title>admin_add</title>
<path d="M46.4 39.2c-1.2 0-2.2 1-2.2 2.2s1 2.2 2.2 2.2c1.2 0 2.2-1 2.2-2.2s-1-2.2-2.2-2.2zM39.6 28h-4.2c1.2 0 2.6 0 4.2 0 1.4 0 2.8 0 4 0h-4c6.2 0 11.2-5 11.2-11.2s-5-11.2-11.2-11.2c-6.2 0-11.2 5-11.2 11.2 0.2 6.2 5.2 11.2 11.2 11.2zM45.6 28h-0.8c1.4 0 2.2 0.2 2.2 1 0 1.4-3.4 2.6-7.6 2.6s-7.6-1.2-7.6-2.6c0-0.8 0.8-1 2.2-1h-0.4c-3.8 0-7.2 1.4-9.8 4 2.2 1 7.2 4.2 8.2 9.4s-1.8 11.8-1.8 11.8 0.8 3.2 3.4 3.2h11.8c7.8 0 14.2-6.4 14.2-14.2 0.2-7.8-6.2-14.2-14-14.2zM52.2 42.6c0 0-1.2-0.4-1.6 0.4-0.4 0.6 0.2 1.4 0.6 1.8l-1.6 1.6c0 0-0.6-1-1.4-0.8-0.8 0.4-0.8 1.8-0.8 1.8h-2.2c0 0 0.2-1.2-0.4-1.6s-1.8 0.8-1.8 0.8l-1.4-1.6c0 0 1-0.8 0.8-1.6s-1.8-0.6-1.8-0.6v-2.2c0 0 1.2 0 1.6-0.4 0.8-1-0.6-1.8-0.6-1.8l1.6-1.4c0 0 0.8 1.2 1.8 0.6 0.8-0.4 0.6-1.6 0.6-1.6h2.2c0 0-0.2 1.2 0.4 1.6s1.8-0.8 1.8-0.8l1.4 1.6c0 0-1 1-0.6 1.8 0.6 0.8 1.6 0.4 1.6 0.4v2zM20.2 32.2h-8v8h-8v8h8v8h8v-8h8v-8h-8v-8z"></path>
</svg>
