<!-- Generated by IcoMoon.io -->
<svg version="1.1" xmlns="http://www.w3.org/2000/svg" width="32" height="32" viewBox="0 0 32 32">
<title>announcements-message</title>
<path d="M12.458 16.646c1.553 1.554 3.165 1.481 4.79-0.144 1.626-1.625 8.775-8.656 9.932-9.812 1.156-1.157 0.036-3.026-1.119-3.026s-20.97 0-22.342 0c-1.373 0-2.275 2.086-1.12 3.242s8.017 7.899 9.859 9.74zM23.719 6.694c0 0-6.378 6.276-7.355 7.254-0.979 0.979-2.073 1.021-3.007 0.087-1.108-1.107-7.544-7.357-7.544-7.357l17.906 0.016zM6.262 18.658c-0.415 0-1.443-0.211-1.443-1.729 0-1.805-0.011-6.007-0.011-6.007l-2.98-2.969v11.582c0 1.196 0.971 2.166 2.167 2.166h8.665l2.128-3.043c-0.001 0-6.566 0-8.526 0zM30.173 18.584l-7.313-5.956v3.053c-5.023 1.471-10.016 7.155-10.016 12.654 0.802-2.476 7.289-6.417 10.016-7.121v3.438l7.313-6.068z"></path>
</svg>
