<!-- Generated by IcoMoon.io -->
<svg version="1.1" xmlns="http://www.w3.org/2000/svg" width="64" height="64" viewBox="0 0 64 64">
<title>announcements_high_priority_new</title>
<path d="M48.2 10l-1.6-2-5.2 4 1.4 2 5.4-4zM51.6 34.2l6.6-1.4-0.6-2.4-6.4 1.4 0.4 2.4zM47.4 23.6l8.6-3.8-1-2.4-8.6 3.8 1 2.4zM18.4 45.6c0 0 13.4-1.4 13.8-1.6 0 0.4 0.2 1 0.2 1.6 1-1.4 11-16.6 11.6-17.4-4.2-9.2-9-19.6-9-19.6s-2.4-1.8-3.6 1.4c0.8 1.4 1 2.4 1 2.4l-27.8 25.2c0 0-3-1.8-2.6 2.2l4.2 8.6c0 0 2.8 1.6 3-1.4 1.4-0.4 6.8-1.2 6.8-1.2s-1 6 3.8 6.8c2-0.2 5.2-0.4 8-0.6 0.2-0.4 1.4-2.2 1.8-2.8-2.8 0.4-8.2 0.8-9.2 1-1.6-0.2-2-0.8-2-4.6zM61 55l-13.2-21.4c-0.8-1.2-2.6-1.2-3.4 0l-13.2 21.4c-1 1.4-0.6 3.4 1.6 3.4h26.6c2.2 0 2.4-2 1.6-3.4zM46.2 55.6c-0.8 0-1.6-0.8-1.6-1.6s0.8-1.6 1.6-1.6c0.8 0 1.6 0.8 1.6 1.6s-0.6 1.6-1.6 1.6zM46.2 51.6c-0.6-2.8-1.6-10-1.6-10.8s0.8-1.6 1.6-1.6c0.8 0 1.6 0.8 1.6 1.6s-1 8.2-1.6 10.8z"></path>
</svg>
