<!-- Generated by IcoMoon.io -->
<svg version="1.1" xmlns="http://www.w3.org/2000/svg" width="64" height="64" viewBox="0 0 64 64">
<title>announcements_new</title>
<path d="M49.4 25.6l8.6-3.8-1-2.4-8.6 3.8 1 2.4zM50.2 12l-1.6-2-5.2 4 1.4 2 5.4-4zM33.2 12.2c0.8 1.4 1 2.4 1 2.4l-27.6 25c0 0-3-1.8-2.6 2.2l4.2 8.6c0 0 2.8 1.6 3-1.4 1.4-0.4 6.8-1.2 6.8-1.2s-1 6 3.8 6.8c3.2-0.2 9-0.6 12.2-0.8 3.8-1.2 2-8.2 2-8.2l11.6-2 0.8 2.2c0 0 3.2 1.8 3.6-2-2-4.2-15.4-33.2-15.4-33.2s-2.2-1.6-3.4 1.6zM33.2 51.2c-1.4 0.2-9.2 1-10.8 1.2-1.6-0.2-2-0.8-2.2-4.6 0 0 13.4-1.4 13.8-1.6 0.2 1.2 1 4-0.8 5zM59.6 32.4l-6.4 1.4 0.4 2.4 6.6-1.4-0.6-2.4z"></path>
</svg>
