<!-- Generated by IcoMoon.io -->
<svg version="1.1" xmlns="http://www.w3.org/2000/svg" width="32" height="32" viewBox="0 0 32 32">
<title>announcements</title>
<path d="M19.5 27.3l-5.7-6.2h-8.4c-1.3 0-2.4-1.1-2.4-2.4v-12.1c0-1.3 1.1-2.4 2.4-2.4h21.3c1.3 0 2.4 1.1 2.4 2.4v12.2c0 1.3-1.1 2.4-2.4 2.4h-4.7c0 0 0 4.9 0 5.6s-1.3 1.6-2.5 0.5zM6.9 7.2c-0.5 0-0.9 0.4-0.9 0.8v9.3c0 0.5 0.4 0.9 0.9 0.9h7.5c0.2 0 0.4 0.1 0.5 0.2l5.1 5.9v-5.3c0-0.4 0.3-0.7 0.7-0.7h4.4c0.5 0 0.9-0.4 0.9-0.9v-9.4c0-0.5-0.4-0.9-0.9-0.9h-18.2z"></path>
</svg>
