<!-- Generated by IcoMoon.io -->
<svg version="1.1" xmlns="http://www.w3.org/2000/svg" width="64" height="64" viewBox="0 0 64 64">
<title>announcements-message</title>
<path d="M24.916 33.292c3.106 3.108 6.33 2.962 9.58-0.288 3.252-3.25 17.55-17.312 19.864-19.624 2.312-2.314 0.072-6.052-2.238-6.052-2.312 0-41.94 0-44.684 0-2.746 0-4.55 4.172-2.24 6.484 2.312 2.314 16.034 15.798 19.718 19.48zM47.438 13.388c0 0-12.756 12.552-14.71 14.508-1.958 1.958-4.146 2.042-6.014 0.174-2.216-2.214-15.088-14.714-15.088-14.714l35.812 0.032zM12.524 37.316c-0.83 0-2.886-0.422-2.886-3.458 0-3.61-0.022-12.014-0.022-12.014l-5.96-5.938v23.164c0 2.392 1.942 4.332 4.334 4.332h17.33l4.256-6.086c-0.002 0-13.132 0-17.052 0zM60.346 37.168l-14.626-11.912v6.106c-10.046 2.942-20.032 14.31-20.032 25.308 1.604-4.952 14.578-12.834 20.032-14.242v6.876l14.626-12.136z"></path>
</svg>
