<!-- Generated by IcoMoon.io -->
<svg version="1.1" xmlns="http://www.w3.org/2000/svg" width="64" height="64" viewBox="0 0 64 64">
<title>announcements</title>
<path d="M39 54.6l-11.4-12.4h-16.8c-2.6 0-4.8-2.2-4.8-4.8v-24.2c0-2.6 2.2-4.8 4.8-4.8h42.6c2.6 0 4.8 2.2 4.8 4.8v24.4c0 2.6-2.2 4.8-4.8 4.8h-9.4c0 0 0 9.8 0 11.2s-2.6 3.2-5 1zM13.8 14.4c-1 0-1.8 0.8-1.8 1.6v18.6c0 1 0.8 1.8 1.8 1.8h15c0.4 0 0.8 0.2 1 0.4l10.2 11.8v-10.6c0-0.8 0.6-1.4 1.4-1.4h8.8c1 0 1.8-0.8 1.8-1.8v-18.8c0-1-0.8-1.8-1.8-1.8h-36.4z"></path>
</svg>
