<!-- Generated by IcoMoon.io -->
<svg version="1.1" xmlns="http://www.w3.org/2000/svg" width="32" height="32" viewBox="0 0 32 32">
<title>arrow_down2</title>
<path d="M18.374 21.976l5.932-5.951c1.035-1.038 1.033-2.718-0.003-3.754l-0.096-0.094c-1.038-1.036-2.719-1.034-3.753 0.004l-0.504 0.505c0 0-1.169 1.127-1.977 1.934-1.425 1.426-1.634 1.341-2.822 0.153-1.054-1.053-2.723-2.592-2.723-2.592-1.035-1.038-2.716-1.040-3.755-0.004l-0.093 0.094c-1.037 1.036-1.040 2.716-0.004 3.754l5.931 5.951c0.533 0.534 1.234 0.793 1.935 0.778 0.698 0.015 1.4-0.244 1.932-0.778z"></path>
</svg>
