<!-- Generated by IcoMoon.io -->
<svg version="1.1" xmlns="http://www.w3.org/2000/svg" width="64" height="64" viewBox="0 0 64 64">
<title>arrow_down2</title>
<path d="M36.748 43.952l11.864-11.902c2.070-2.076 2.066-5.436-0.006-7.508l-0.192-0.188c-2.076-2.072-5.438-2.068-7.506 0.008l-1.008 1.010c0 0-2.338 2.254-3.954 3.868-2.85 2.852-3.268 2.682-5.644 0.306-2.108-2.106-5.446-5.184-5.446-5.184-2.070-2.076-5.432-2.080-7.51-0.008l-0.186 0.188c-2.074 2.072-2.080 5.432-0.008 7.508l11.862 11.902c1.066 1.068 2.468 1.586 3.87 1.556 1.396 0.030 2.8-0.488 3.864-1.556z"></path>
</svg>
