<!-- Generated by IcoMoon.io -->
<svg version="1.1" xmlns="http://www.w3.org/2000/svg" width="32" height="32" viewBox="0 0 32 32">
<title>assessments</title>
<path d="M9.135 20.562l-1.29-0.443c0 0-1.191 2.047-1.191 4.791-0.576 0-1.652 0-2.593 0 0-4.74 2.911-8.747 6.907-10.051 0.832 0.359 1.749 0.566 2.715 0.566 0.996 0 1.94-0.221 2.792-0.604 1.905 0.591 3.571 1.79 4.803 3.392 1.041-0.219 1.957-0.061 2.951 0.209-1.248-2.328-3.146-4.201-5.426-5.332 1.044-1.195 1.682-2.754 1.682-4.467 0-3.756-3.046-6.803-6.803-6.803s-6.801 3.046-6.801 6.802c0 1.748 0.665 3.336 1.748 4.541-4.069 2.088-6.887 6.559-6.887 11.746 0 0.582 0.072 2.066 1.107 2.066s4.242 0 4.242 0 2.6 1.371 5.246 1.789c0.009-0.66 0.127-1.324 0.332-2.049-2.17-0.396-4.423-1.807-4.423-1.807s-0.317-1.511 0.889-4.346zM13.682 4.001c2.552 0 4.62 2.068 4.62 4.621s-2.068 4.619-4.62 4.619c-2.551 0-4.62-2.067-4.62-4.619 0.001-2.553 2.069-4.621 4.62-4.621zM29.631 28.692h-15.682c-0.346 0-0.627 0.391-0.627 0.736 0 0.348 0.281 0.752 0.627 0.752h15.682c0.346 0 0.627-0.404 0.627-0.752 0-0.345-0.281-0.736-0.627-0.736zM21.598 27.856c0.863 0 1.563-0.699 1.563-1.563 0.568-0.403 3.1-2.499 3.1-2.499s-2.752 1.063-3.558 1.393c-0.282-0.281-0.673-0.457-1.104-0.457-0.863 0-1.563 0.701-1.563 1.563-0.002 0.864 0.698 1.563 1.562 1.563zM13.949 27.046c-0.346 0-0.627 0.219-0.627 0.488s0.281 0.488 0.627 0.488h1.255c0.346 0 0.627-0.219 0.627-0.488s-0.281-0.488-0.627-0.488h-1.255zM28.376 27.046c-0.347 0-0.627 0.219-0.627 0.488s0.28 0.488 0.627 0.488h1.255c0.346 0 0.627-0.219 0.627-0.488s-0.281-0.488-0.627-0.488h-1.255zM22.28 20.949v-1.255c0-0.346-0.219-0.627-0.488-0.627-0.271 0-0.488 0.281-0.488 0.627v1.255c0 0.347 0.218 0.628 0.488 0.628s0.488-0.281 0.488-0.628zM16.035 25.991c0.070-0.26-0.145-0.545-0.479-0.634l-1.211-0.325c-0.335-0.090-0.663 0.049-0.732 0.311-0.070 0.26 0.145 0.544 0.479 0.633l1.212 0.325c0.333 0.091 0.661-0.049 0.731-0.31zM23.983 19.356c-0.261-0.070-0.544 0.145-0.634 0.48l-0.325 1.211c-0.090 0.336 0.049 0.662 0.31 0.732s0.544-0.145 0.634-0.48l0.325-1.211c0.090-0.333-0.049-0.661-0.31-0.732zM16.631 24.555c0.135-0.233 0-0.563-0.3-0.737l-1.086-0.627c-0.3-0.173-0.653-0.124-0.788 0.109-0.135 0.234-0.001 0.564 0.299 0.736l1.086 0.627c0.301 0.174 0.654 0.125 0.789-0.108zM24.771 22.377c0.232 0.134 0.563 0.001 0.736-0.301l0.627-1.087c0.173-0.299 0.124-0.65-0.109-0.786s-0.563-0.001-0.736 0.3l-0.627 1.086c-0.174 0.299-0.125 0.652 0.109 0.788zM17.578 23.32c0.19-0.19 0.146-0.544-0.099-0.788l-0.887-0.887c-0.245-0.246-0.599-0.29-0.789-0.1-0.19 0.191-0.146 0.545 0.098 0.789l0.887 0.888c0.246 0.246 0.599 0.289 0.79 0.098zM26.005 23.323c0.19 0.191 0.544 0.146 0.788-0.098l0.888-0.887c0.245-0.246 0.289-0.6 0.099-0.79s-0.544-0.147-0.789 0.099l-0.887 0.887c-0.246 0.246-0.29 0.598-0.099 0.789zM18.813 22.372c0.233-0.135 0.282-0.488 0.109-0.787l-0.627-1.088c-0.174-0.299-0.504-0.433-0.737-0.299-0.233 0.135-0.282 0.488-0.108 0.787l0.627 1.086c0.172 0.302 0.502 0.436 0.736 0.301zM26.951 24.556c0.135 0.232 0.488 0.281 0.788 0.108l1.086-0.628c0.3-0.172 0.435-0.502 0.3-0.736-0.135-0.232-0.488-0.281-0.788-0.109l-1.086 0.629c-0.3 0.171-0.435 0.501-0.3 0.736zM20.56 21.044l-0.324-1.211c-0.090-0.334-0.374-0.549-0.634-0.48-0.261 0.070-0.399 0.398-0.31 0.732l0.324 1.213c0.090 0.334 0.374 0.549 0.634 0.479 0.261-0.071 0.399-0.397 0.31-0.733zM27.547 25.992c0.070 0.261 0.398 0.399 0.732 0.31l1.212-0.324c0.335-0.090 0.55-0.373 0.479-0.635-0.070-0.26-0.397-0.398-0.732-0.309l-1.212 0.324c-0.334 0.090-0.548 0.373-0.479 0.634z"></path>
</svg>
