<!-- Generated by IcoMoon.io -->
<svg version="1.1" xmlns="http://www.w3.org/2000/svg" width="64" height="64" viewBox="0 0 64 64">
<title>assessments</title>
<path d="M18.27 41.124l-2.58-0.886c0 0-2.382 4.094-2.382 9.582-1.152 0-3.304 0-5.186 0 0-9.48 5.822-17.494 13.814-20.102 1.664 0.718 3.498 1.132 5.43 1.132 1.992 0 3.88-0.442 5.584-1.208 3.81 1.182 7.142 3.58 9.606 6.784 2.082-0.438 3.914-0.122 5.902 0.418-2.496-4.656-6.292-8.402-10.852-10.664 2.088-2.39 3.364-5.508 3.364-8.934 0-7.512-6.092-13.606-13.606-13.606s-13.602 6.092-13.602 13.604c0 3.496 1.33 6.672 3.496 9.082-8.138 4.176-13.774 13.118-13.774 23.492 0 1.164 0.144 4.132 2.214 4.132 2.072 0 8.484 0 8.484 0s5.2 2.742 10.492 3.578c0.018-1.32 0.254-2.648 0.664-4.098-4.34-0.792-8.846-3.614-8.846-3.614s-0.634-3.022 1.778-8.692zM27.364 8.002c5.104 0 9.24 4.136 9.24 9.242 0 5.104-4.136 9.238-9.24 9.238-5.102 0-9.24-4.134-9.24-9.238 0.002-5.106 4.138-9.242 9.24-9.242zM59.262 57.384h-31.364c-0.692 0-1.254 0.782-1.254 1.472 0 0.696 0.562 1.504 1.254 1.504h31.364c0.692 0 1.254-0.808 1.254-1.504 0-0.69-0.562-1.472-1.254-1.472zM43.196 55.712c1.726 0 3.126-1.398 3.126-3.126 1.136-0.806 6.2-4.998 6.2-4.998s-5.504 2.126-7.116 2.786c-0.564-0.562-1.346-0.914-2.208-0.914-1.726 0-3.126 1.402-3.126 3.126-0.004 1.728 1.396 3.126 3.124 3.126zM27.898 54.092c-0.692 0-1.254 0.438-1.254 0.976s0.562 0.976 1.254 0.976h2.51c0.692 0 1.254-0.438 1.254-0.976s-0.562-0.976-1.254-0.976h-2.51zM56.752 54.092c-0.694 0-1.254 0.438-1.254 0.976s0.56 0.976 1.254 0.976h2.51c0.692 0 1.254-0.438 1.254-0.976s-0.562-0.976-1.254-0.976h-2.51zM44.56 41.898v-2.51c0-0.692-0.438-1.254-0.976-1.254-0.542 0-0.976 0.562-0.976 1.254v2.51c0 0.694 0.436 1.256 0.976 1.256s0.976-0.562 0.976-1.256zM32.070 51.982c0.14-0.52-0.29-1.090-0.958-1.268l-2.422-0.65c-0.67-0.18-1.326 0.098-1.464 0.622-0.14 0.52 0.29 1.088 0.958 1.266l2.424 0.65c0.666 0.182 1.322-0.098 1.462-0.62zM47.966 38.712c-0.522-0.14-1.088 0.29-1.268 0.96l-0.65 2.422c-0.18 0.672 0.098 1.324 0.62 1.464s1.088-0.29 1.268-0.96l0.65-2.422c0.18-0.666-0.098-1.322-0.62-1.464zM33.262 49.11c0.27-0.466 0-1.126-0.6-1.474l-2.172-1.254c-0.6-0.346-1.306-0.248-1.576 0.218-0.27 0.468-0.002 1.128 0.598 1.472l2.172 1.254c0.602 0.348 1.308 0.25 1.578-0.216zM49.542 44.754c0.464 0.268 1.126 0.002 1.472-0.602l1.254-2.174c0.346-0.598 0.248-1.3-0.218-1.572s-1.126-0.002-1.472 0.6l-1.254 2.172c-0.348 0.598-0.25 1.304 0.218 1.576zM35.156 46.64c0.38-0.38 0.292-1.088-0.198-1.576l-1.774-1.774c-0.49-0.492-1.198-0.58-1.578-0.2-0.38 0.382-0.292 1.090 0.196 1.578l1.774 1.776c0.492 0.492 1.198 0.578 1.58 0.196zM52.010 46.646c0.38 0.382 1.088 0.292 1.576-0.196l1.776-1.774c0.49-0.492 0.578-1.2 0.198-1.58-0.382-0.38-1.088-0.294-1.578 0.198l-1.774 1.774c-0.492 0.492-0.58 1.196-0.198 1.578zM37.626 44.744c0.466-0.27 0.564-0.976 0.218-1.574l-1.254-2.176c-0.348-0.598-1.008-0.866-1.474-0.598-0.466 0.27-0.564 0.976-0.216 1.574l1.254 2.172c0.344 0.604 1.004 0.872 1.472 0.602zM53.902 49.112c0.27 0.464 0.976 0.562 1.576 0.216l2.172-1.256c0.6-0.344 0.87-1.004 0.6-1.472-0.27-0.464-0.976-0.562-1.576-0.218l-2.172 1.258c-0.6 0.342-0.87 1.002-0.6 1.472zM41.12 42.088l-0.648-2.422c-0.18-0.668-0.748-1.098-1.268-0.96-0.522 0.14-0.798 0.796-0.62 1.464l0.648 2.426c0.18 0.668 0.748 1.098 1.268 0.958 0.522-0.142 0.798-0.794 0.62-1.466zM55.094 51.984c0.14 0.522 0.796 0.798 1.464 0.62l2.424-0.648c0.67-0.18 1.1-0.746 0.958-1.27-0.14-0.52-0.794-0.796-1.464-0.618l-2.424 0.648c-0.668 0.18-1.096 0.746-0.958 1.268z"></path>
</svg>
