<!-- Generated by IcoMoon.io -->
<svg version="1.1" xmlns="http://www.w3.org/2000/svg" width="64" height="64" viewBox="0 0 64 64">
<title>assign_multiple_courses</title>
<path d="M54.4 29.8h-2.8l4.4 16.2h-42.8l-1.6 4.6h49.2l-6.4-20.8zM24 31.4c0.8 0.2 1.4 0.8 2 1.4v-18.4c-0.2-0.2-0.4-0.8-1.2-1-1.4-0.4-2.8 0-9.6 6.6-0.2 0.8-2.2 9.8-3.2 14.8 3.6-2.2 7.6-5 12-3.4zM43.8 34.8c-1-5-3-14-3.2-14.8-6.8-6.4-8.4-6.8-9.8-6.6-0.8 0.2-1.2 0.6-1.2 1v18.4c0.6-0.6 1.2-1.2 2-1.4 4.4-1.6 8.4 1.2 12.2 3.4zM46.2 22h-2l3.6 16.2-2.4 2c-2.6-2-10-6.8-14.4-5.2-1.4 0.4-2.2 2.2-3 4.2-0.6-1.8-1.6-3.6-3-4.2-4.4-1.6-12 3.2-14.4 5.2l-2.4-2 3.6-16.6h-1.6l-7 21.2h49.2l-6.2-20.8z"></path>
</svg>
