<!-- Generated by IcoMoon.io -->
<svg version="1.1" xmlns="http://www.w3.org/2000/svg" width="32" height="32" viewBox="0 0 32 32">
<title>assign_multiple_courses</title>
<path d="M27.2 14.9h-1.4l2.2 8.1h-21.4l-0.8 2.3h24.6l-3.2-10.4zM12 15.7c0.4 0.1 0.7 0.4 1 0.7v-9.2c-0.1-0.1-0.2-0.4-0.6-0.5-0.7-0.2-1.4 0-4.8 3.3-0.1 0.4-1.1 4.9-1.6 7.4 1.8-1.1 3.8-2.5 6-1.7zM21.9 17.4c-0.5-2.5-1.5-7-1.6-7.4-3.4-3.2-4.2-3.4-4.9-3.3-0.4 0.1-0.6 0.3-0.6 0.5v9.2c0.3-0.3 0.6-0.6 1-0.7 2.2-0.8 4.2 0.6 6.1 1.7zM23.1 11h-1l1.8 8.1-1.2 1c-1.3-1-5-3.4-7.2-2.6-0.7 0.2-1.1 1.1-1.5 2.1-0.3-0.9-0.8-1.8-1.5-2.1-2.2-0.8-6 1.6-7.2 2.6l-1.2-1 1.8-8.3h-0.8l-3.5 10.6h24.6l-3.1-10.4z"></path>
</svg>
