<!-- Generated by IcoMoon.io -->
<svg version="1.1" xmlns="http://www.w3.org/2000/svg" width="64" height="64" viewBox="0 0 64 64">
<title>assign_training_plans</title>
<path d="M55.4 15.6c0-2-0.8-5-4.6-6.2-3.8-1-17.2-4.2-17.2-4.2l-20 3.8v1.2l1.8 0.4c0.4 2.2-0.6 5.2-0.6 5.2l-1.8 0.4v1.2l4.6 2c0 0-0.8 0-4.4 0.6s-4.6 3-4.6 4.4c0 1.6 0.4 4 3 6.6 3 3 16.6 11.6 16.6 11.6l1.8-0.6-2 8.4-10.4-2.4 14 11 13.4-11-10.4 2.4-2.6-9.2 22.4-9 0.2-1.6c-1.2-0.4-1.6-1.6-1.8-3.2s0.4-3.6 0.4-3.6l1.4-0.4v-1.6l-1.6-0.6c1.6-1.2 2.2-3.6 2.4-5.6zM12.2 29.2c-1.2-1-1.6-3-1.6-4.4s1.4-3.4 3.2-2.2c1.8 1 13.2 7.8 13.2 7.8s-0.6 2.6-0.6 4.6c0 2.2 0.6 4.2 0.6 4.2s-13.4-9-14.8-10zM15 16.2c0 0 1.6-3 1-5.4l13.4 4.2 2.4-0.2c0 0 2.6 1.4 0.4 9.6l-17.2-8.2zM29 39.8c0 0-0.4-0.8-0.4-3.8 0-3.2 0.4-4.6 0.4-4.6l22.2-7c0 0-0.6 2.2-0.4 3.6 0.2 1.6 1.2 2.8 1.2 2.8l-23 9zM51.2 20.2c-2 0.2-17.2 4.4-17.2 4.4s1.8-4.6 0.2-9.8c0 0 14.8-2.8 16.2-3s3.6 0.8 3.6 3.8c-0.2 3.4-0.8 4.4-2.8 4.6z"></path>
</svg>
