<!-- Generated by IcoMoon.io -->
<svg version="1.1" xmlns="http://www.w3.org/2000/svg" width="32" height="32" viewBox="0 0 32 32">
<title>assign</title>
<path d="M24.033 9.2h-22.008v0.982h22.008v-0.982zM7.023 20.12v-8.954h-2.991v8.954h2.991zM2.025 23.188h12.995l0.25-2.004h-13.245v2.004zM1.021 26.151h13.983v-1.953h-13.983v1.953zM12.986 2.579l-11.93 5.593h23.907l-11.977-5.593zM12.023 20.12v-8.954h-2.991v8.954h2.991zM17.023 20.12v-8.954h-2.992v8.954h2.992zM21.461 11.166h-2.43v1.703l2.43-1.703zM26.547 19.467c0.658-0.754 1.061-1.736 1.061-2.815 0-2.367-1.92-4.287-4.287-4.287s-4.287 1.919-4.287 4.287c0 1.103 0.42 2.103 1.102 2.861-2.564 1.316-4.339 4.134-4.339 7.403 0 0.366 0.046 1.302 0.698 1.302 0.653 0 2.672 0 2.672 0s2.281 1.203 4.199 1.203c2.002 0 4.449-1.203 4.449-1.203s1.75 0.008 2.422 0c0.674-0.008 0.742-0.877 0.742-1.302 0-3.309-1.817-6.153-4.432-7.449zM23.32 13.74c1.607 0 2.91 1.304 2.91 2.911 0 1.608-1.303 2.911-2.91 2.911-1.609 0-2.912-1.303-2.912-2.911 0-1.607 1.303-2.911 2.912-2.911zM27.764 26.929c0-1.18-0.723-3.033-0.723-3.033l-0.813 0.281c0.76 1.786 0.582 2.738 0.582 2.738s-1.938 1.203-3.471 1.203c-1.525 0-3.445-1.203-3.445-1.203s-0.201-0.952 0.559-2.738l-0.813-0.281c0 0-0.75 1.291-0.75 3.020-0.363 0-1.041 0-1.633 0 0-2.988 1.834-5.512 4.352-6.334 0.525 0.229 1.102 0.357 1.711 0.357 0.627 0 1.223-0.139 1.76-0.381 2.563 0.795 4.438 3.337 4.438 6.357-0.426 0-1.241 0.014-1.754 0.014z"></path>
</svg>
