<!-- Generated by IcoMoon.io -->
<svg version="1.1" xmlns="http://www.w3.org/2000/svg" width="32" height="32" viewBox="0 0 32 32">
<title>assign_training_plans</title>
<path d="M27.7 7.8c0-1-0.4-2.5-2.3-3.1-1.9-0.5-8.6-2.1-8.6-2.1l-10 1.9v0.6l0.9 0.2c0.2 1.1-0.3 2.6-0.3 2.6l-0.9 0.2v0.6l2.3 1c0 0-0.4 0-2.2 0.3s-2.3 1.5-2.3 2.2c0 0.8 0.2 2 1.5 3.3 1.5 1.5 8.3 5.8 8.3 5.8l0.9-0.3-1 4.2-5.2-1.2 7 5.5 6.7-5.5-5.2 1.2-1.3-4.6 11.2-4.5 0.1-0.8c-0.6-0.2-0.8-0.8-0.9-1.6s0.2-1.8 0.2-1.8l0.7-0.2v-0.8l-0.8-0.3c0.8-0.6 1.1-1.8 1.2-2.8zM6.1 14.6c-0.6-0.5-0.8-1.5-0.8-2.2s0.7-1.7 1.6-1.1c0.9 0.5 6.6 3.9 6.6 3.9s-0.3 1.3-0.3 2.3c0 1.1 0.3 2.1 0.3 2.1s-6.7-4.5-7.4-5zM7.5 8.1c0 0 0.8-1.5 0.5-2.7l6.7 2.1 1.2-0.1c0 0 1.3 0.7 0.2 4.8l-8.6-4.1zM14.5 19.9c0 0-0.2-0.4-0.2-1.9 0-1.6 0.2-2.3 0.2-2.3l11.1-3.5c0 0-0.3 1.1-0.2 1.8 0.1 0.8 0.6 1.4 0.6 1.4l-11.5 4.5zM25.6 10.1c-1 0.1-8.6 2.2-8.6 2.2s0.9-2.3 0.1-4.9c0 0 7.4-1.4 8.1-1.5s1.8 0.4 1.8 1.9c-0.1 1.7-0.4 2.2-1.4 2.3z"></path>
</svg>
