<!-- Generated by IcoMoon.io -->
<svg version="1.1" xmlns="http://www.w3.org/2000/svg" width="64" height="64" viewBox="0 0 64 64">
<title>assign</title>
<path d="M48.066 18.4h-44.016v1.964h44.016v-1.964zM14.046 40.24v-17.908h-5.982v17.908h5.982zM4.050 46.376h25.99l0.5-4.008h-26.49v4.008zM2.042 52.302h27.966v-3.906h-27.966v3.906zM25.972 5.158l-23.86 11.186h47.814l-23.954-11.186zM24.046 40.24v-17.908h-5.982v17.908h5.982zM34.046 40.24v-17.908h-5.984v17.908h5.984zM42.922 22.332h-4.86v3.406l4.86-3.406zM53.094 38.934c1.316-1.508 2.122-3.472 2.122-5.63 0-4.734-3.84-8.574-8.574-8.574s-8.574 3.838-8.574 8.574c0 2.206 0.84 4.206 2.204 5.722-5.128 2.632-8.678 8.268-8.678 14.806 0 0.732 0.092 2.604 1.396 2.604 1.306 0 5.344 0 5.344 0s4.562 2.406 8.398 2.406c4.004 0 8.898-2.406 8.898-2.406s3.5 0.016 4.844 0c1.348-0.016 1.484-1.754 1.484-2.604 0-6.618-3.634-12.306-8.864-14.898zM46.64 27.48c3.214 0 5.82 2.608 5.82 5.822 0 3.216-2.606 5.822-5.82 5.822-3.218 0-5.824-2.606-5.824-5.822 0-3.214 2.606-5.822 5.824-5.822zM55.528 53.858c0-2.36-1.446-6.066-1.446-6.066l-1.626 0.562c1.52 3.572 1.164 5.476 1.164 5.476s-3.876 2.406-6.942 2.406c-3.050 0-6.89-2.406-6.89-2.406s-0.402-1.904 1.118-5.476l-1.626-0.562c0 0-1.5 2.582-1.5 6.040-0.726 0-2.082 0-3.266 0 0-5.976 3.668-11.024 8.704-12.668 1.050 0.458 2.204 0.714 3.422 0.714 1.254 0 2.446-0.278 3.52-0.762 5.126 1.59 8.876 6.674 8.876 12.714-0.852 0-2.482 0.028-3.508 0.028z"></path>
</svg>
