<!-- Generated by IcoMoon.io -->
<svg version="1.1" xmlns="http://www.w3.org/2000/svg" width="64" height="64" viewBox="0 0 64 64">
<title>assign_course</title>
<path d="M28.606 26.378c0.75 0.278 1.312 0.84 1.918 1.344 0-5.836 0-16.714 0-17.41-0.116-0.224-0.396-0.678-1.176-0.876-1.3-0.338-4.45 0.086-10.772 6.148-0.18 0.822-2.034 9.316-3.058 14.008 3.4-2.096 8.886-4.754 13.088-3.214zM48.482 29.592c-1.026-4.692-2.878-13.186-3.058-14.008-6.322-6.062-9.472-6.486-10.774-6.148-0.778 0.2-1.060 0.652-1.176 0.876 0 0.696 0 11.574 0 17.41 0.606-0.504 1.168-1.066 1.92-1.344 4.202-1.54 9.688 1.118 13.088 3.214zM33.076 37.044h23.64l-5.902-19.624-1.954-0.016 3.344 15.308-2.274 1.792c-2.382-1.884-9.484-6.45-13.632-4.926-1.376 0.508-2.326 1.668-2.908 3.542l-1.39-0.272-1.39 0.274c-0.584-1.876-1.534-3.036-2.908-3.542-4.15-1.524-11.248 3.042-13.632 4.926l-2.274-1.792 3.396-15.562-1.514-0.012-6.394 19.904h24.064l-2.27 9.076-10.356-2.438 14.086 10.964 13.402-10.964-10.356 2.438-2.778-9.076z"></path>
</svg>
