<!-- Generated by IcoMoon.io -->
<svg version="1.1" xmlns="http://www.w3.org/2000/svg" width="64" height="64" viewBox="0 0 64 64">
<title>assign_multiple_plans</title>
<path d="M60.8 24.2c0-2.2-0.8-5.6-5-6.8-0.4 0-1.2-0.4-1.2-0.4h-0.2c0 0 1.2 1.8 1.2 3.2 1.2 0 3.2 1.6 3.2 4.2 0 3.4-1.6 4.6-2.4 4.8-0.2 0.2-2 1.2-2 1.2s-1.8 2.2-1.4 4.6c1-0.2 2.8-0.8 2.8-0.8s-0.6 2.4-0.4 4c0.2 1.6 1.4 2.2 1.4 2.2l-28.6 11 3.4 2.2 28.6-11.4 0.2-1.8c-1.4-0.6-1.8-1.6-2-3.4s0.6-4 0.6-4l1.6-0.6v-1.6l-1.8-0.6c1.2-1.2 2-3.8 2-6zM51.8 37.2c-1.4-0.4-1.8-1.6-2-3.4s0.4-3.8 0.4-3.8l1.4-0.4v-1.6l-1.8-0.6c1.8-1.4 2.4-4 2.6-6.2 0-2-0.8-5.4-5-6.6-4-1.2-18.2-4.4-18.2-4.4l-21.2 4v1.4l2 0.4c0.4 2.4-0.6 5.4-0.6 5.4l-1.6 0.6v1.4l5 2c0 0-0.8 0-4.6 0.8s-5 3.2-5 4.8c0 1.6 0.4 4.4 3 7 3.2 3.2 17.6 12.2 17.6 12.2l27.8-11 0.2-2zM30.4 20.8c0 0 15.8-3 17.2-3.2s3.8 0.8 3.8 4.2c-0.2 3.2-0.8 4.4-2.8 4.8s-18.2 4.6-18.2 4.6 1.8-5 0-10.4zM7 35.8c-1.4-1.2-1.8-3.2-1.8-4.6 0-1.6 1.4-3.6 3.4-2.4s14 8.4 14 8.4-0.6 2.6-0.6 4.8c0 2.4 0.6 4.4 0.6 4.4s-14.2-9.4-15.6-10.6zM9.8 22c0 0 1.6-3.2 1-5.8l14.4 4.6 2.6-0.2c0 0 2.8 1.4 0.4 10.2l-18.4-8.8zM24.6 47.2c0 0-0.4-0.8-0.4-4 0-3.4 0.6-5 0.6-5l23.4-7.4c0 0-0.6 2.2-0.4 3.8s1.2 3 1.2 3l-24.4 9.6z"></path>
</svg>
