<!-- Generated by IcoMoon.io -->
<svg version="1.1" xmlns="http://www.w3.org/2000/svg" width="32" height="32" viewBox="0 0 32 32">
<title>assign_course</title>
<path d="M14.303 13.189c0.375 0.139 0.656 0.42 0.959 0.672 0-2.918 0-8.357 0-8.705-0.058-0.112-0.198-0.339-0.588-0.438-0.65-0.169-2.225 0.043-5.386 3.074-0.090 0.411-1.017 4.658-1.529 7.004 1.7-1.048 4.443-2.377 6.544-1.607zM24.241 14.796c-0.513-2.346-1.439-6.593-1.529-7.004-3.161-3.031-4.736-3.243-5.387-3.074-0.389 0.1-0.53 0.326-0.588 0.438 0 0.348 0 5.787 0 8.705 0.303-0.252 0.584-0.533 0.96-0.672 2.101-0.77 4.844 0.559 6.544 1.607zM16.538 18.522h11.82l-2.951-9.812-0.977-0.008 1.672 7.654-1.137 0.896c-1.191-0.942-4.742-3.225-6.816-2.463-0.688 0.254-1.163 0.834-1.454 1.771l-0.695-0.136-0.695 0.137c-0.292-0.938-0.767-1.518-1.454-1.771-2.075-0.762-5.624 1.521-6.816 2.463l-1.137-0.896 1.698-7.781-0.757-0.006-3.197 9.952h12.032l-1.135 4.538-5.178-1.219 7.043 5.482 6.701-5.482-5.178 1.219-1.389-4.538z"></path>
</svg>
