<!-- Generated by IcoMoon.io -->
<svg version="1.1" xmlns="http://www.w3.org/2000/svg" width="32" height="32" viewBox="0 0 32 32">
<title>audio-sound</title>
<path d="M13.793 6.353c-0.663-0.364-1.642-0.030-2.199 0.529-0.899 0.898-4.91 4.91-4.91 4.91s-1.797 0-2.792 0c-0.994 0-1.572 0.289-1.572 1.379v5.776c0 0.803 0.385 1.477 1.187 1.477s3.37 0 3.37 0 3.562 3.562 4.685 4.686c0.783 0.781 1.397 0.843 2.086 0.472 0.69-0.373 0.834-1.016 0.834-1.789v-15.885c0-0.85-0.285-1.333-0.689-1.555zM21.96 8.268c-0.463-0.465-1.218-0.465-1.682 0s-0.464 1.218 0 1.683c1.616 1.616 2.506 3.765 2.506 6.050s-0.89 4.435-2.506 6.051c-0.464 0.464-0.464 1.218 0 1.683 0.233 0.231 0.537 0.348 0.841 0.348s0.609-0.116 0.841-0.348c2.066-2.066 3.204-4.813 3.204-7.733 0-2.923-1.138-5.669-3.204-7.734zM25.667 6.308c-0.465-0.465-1.218-0.465-1.684 0s-0.466 1.218 0.001 1.683c2.137 2.138 3.316 4.983 3.316 8.009 0 3.025-1.179 5.869-3.315 8.010-0.467 0.465-0.467 1.217 0 1.682 0.231 0.233 0.536 0.35 0.84 0.35s0.61-0.116 0.843-0.348c2.588-2.59 4.014-6.031 4.014-9.693-0.001-3.662-1.427-7.105-4.015-9.693zM18.256 10.226c-0.465-0.464-1.219-0.464-1.683 0-0.466 0.465-0.466 1.219 0 1.684 1.093 1.092 1.694 2.545 1.694 4.090s-0.602 2.998-1.694 4.091c-0.466 0.464-0.466 1.218 0 1.682 0.231 0.233 0.537 0.35 0.841 0.35 0.307 0 0.609-0.116 0.842-0.348 1.541-1.543 2.393-3.594 2.393-5.774-0.001-2.182-0.852-4.232-2.393-5.775z"></path>
</svg>
