<!-- Generated by IcoMoon.io -->
<svg version="1.1" xmlns="http://www.w3.org/2000/svg" width="64" height="64" viewBox="0 0 64 64">
<title>audio-sound</title>
<path d="M27.586 12.706c-1.326-0.728-3.284-0.060-4.398 1.058-1.798 1.796-9.82 9.82-9.82 9.82s-3.594 0-5.584 0c-1.988 0-3.144 0.578-3.144 2.758v11.552c0 1.606 0.77 2.954 2.374 2.954 1.606 0 6.74 0 6.74 0s7.124 7.124 9.37 9.372c1.566 1.562 2.794 1.686 4.172 0.944 1.38-0.746 1.668-2.032 1.668-3.578v-31.77c0-1.7-0.57-2.666-1.378-3.11zM43.92 16.536c-0.926-0.93-2.436-0.93-3.364 0-0.928 0.928-0.928 2.436 0 3.366 3.232 3.232 5.012 7.53 5.012 12.1s-1.78 8.87-5.012 12.102c-0.928 0.928-0.928 2.436 0 3.366 0.466 0.462 1.074 0.696 1.682 0.696 0.61 0 1.218-0.232 1.682-0.696 4.132-4.132 6.408-9.626 6.408-15.466 0-5.846-2.276-11.338-6.408-15.468zM51.334 12.616c-0.93-0.93-2.436-0.93-3.368 0-0.932 0.928-0.932 2.436 0.002 3.366 4.274 4.276 6.632 9.966 6.632 16.018 0 6.050-2.358 11.738-6.63 16.020-0.934 0.93-0.934 2.434 0 3.364 0.462 0.466 1.072 0.7 1.68 0.7s1.22-0.232 1.686-0.696c5.176-5.18 8.028-12.062 8.028-19.386-0.002-7.324-2.854-14.21-8.030-19.386zM36.512 20.452c-0.93-0.928-2.438-0.928-3.366 0-0.932 0.93-0.932 2.438 0 3.368 2.186 2.184 3.388 5.090 3.388 8.18s-1.204 5.996-3.388 8.182c-0.932 0.928-0.932 2.436 0 3.364 0.462 0.466 1.074 0.7 1.682 0.7 0.614 0 1.218-0.232 1.684-0.696 3.082-3.086 4.786-7.188 4.786-11.548-0.002-4.364-1.704-8.464-4.786-11.55z"></path>
</svg>
