<!-- Generated by IcoMoon.io -->
<svg version="1.1" xmlns="http://www.w3.org/2000/svg" width="32" height="32" viewBox="0 0 32 32">
<title>automated_rules</title>
<path d="M23.3 20.2l-0.7-0.6-1.8 1.7-0.8-0.9-0.7 0.6 1.5 1.7 2.5-2.5zM13.9 8.8c2.9 0 5.2 2.3 5.2 5.2 4.1 0 5.7 0 5.7 0v-2.1c0 0-1.9 0.5-2.9-0.9s1-3.4 1-3.4l-2.8-2.9c0 0-2.2 2.1-3.3 1.4-1.2-0.8-0.8-3.1-0.8-3.1h-4.2c0 0 0.5 2.2-1.1 3s-3.3-1.3-3.3-1.3l-2.9 2.8c0 0 2.6 1.7 1.2 3.6-0.7 1.1-2.7 0.9-2.7 0.9v4c0 0 2.5-0.2 3.1 1.3 0.5 1.4-1.4 3.1-1.4 3.1l2.8 2.9c0 0 2.2-2 3.4-1.3s0.9 3.2 0.9 3.2h2.1c0 0 0-3.9 0-5.9-2.9 0-5.2-2.3-5.2-5.2 0-3 2.3-5.3 5.2-5.3zM28.1 15.6h-11.6c-0.5 0-0.9 0.4-0.9 0.9v11.6c0 0.5 0.4 0.9 0.9 0.9h11.6c0.5 0 0.9-0.4 0.9-0.9v-11.6c0-0.5-0.4-0.9-0.9-0.9zM27.3 27.3h-10v-8.4h10.1v8.4zM23.3 24.1l-0.7-0.6-1.8 1.7-0.8-0.9-0.7 0.6 1.5 1.7 2.5-2.5z"></path>
</svg>
