<!-- Generated by IcoMoon.io -->
<svg version="1.1" xmlns="http://www.w3.org/2000/svg" width="64" height="64" viewBox="0 0 64 64">
<title>automated_rules</title>
<path d="M46.6 40.4l-1.4-1.2-3.6 3.4-1.6-1.8-1.4 1.2 3 3.4 5-5zM27.8 17.6c5.8 0 10.4 4.6 10.4 10.4 8.2 0 11.4 0 11.4 0v-4.2c0 0-3.8 1-5.8-1.8s2-6.8 2-6.8l-5.6-5.8c0 0-4.4 4.2-6.6 2.8-2.4-1.6-1.6-6.2-1.6-6.2h-8.4c0 0 1 4.4-2.2 6s-6.6-2.6-6.6-2.6l-5.8 5.6c0 0 5.2 3.4 2.4 7.2-1.4 2.2-5.4 1.8-5.4 1.8v8c0 0 5-0.4 6.2 2.6 1 2.8-2.8 6.2-2.8 6.2l5.6 5.8c0 0 4.4-4 6.8-2.6s1.8 6.4 1.8 6.4h4.2c0 0 0-7.8 0-11.8-5.8 0-10.4-4.6-10.4-10.4 0-6 4.6-10.6 10.4-10.6zM56.2 31.2h-23.2c-1 0-1.8 0.8-1.8 1.8v23.2c0 1 0.8 1.8 1.8 1.8h23.2c1 0 1.8-0.8 1.8-1.8v-23.2c0-1-0.8-1.8-1.8-1.8zM54.6 54.6h-20v-16.8h20.2v16.8zM46.6 48.2l-1.4-1.2-3.6 3.4-1.6-1.8-1.4 1.2 3 3.4 5-5z"></path>
</svg>
