<!-- Generated by IcoMoon.io -->
<svg version="1.1" xmlns="http://www.w3.org/2000/svg" width="32" height="32" viewBox="0 0 32 32">
<title>career</title>
<path d="M13.808 6.331c1.572 0.119 2.943-1.058 3.062-2.63 0.12-1.571-1.057-2.942-2.629-3.063-1.572-0.119-2.943 1.058-3.063 2.63-0.119 1.572 1.058 2.943 2.63 3.063zM10.651 25.458c-0.389-0.075-2.297-0.46-2.297-0.46l-1.968 3.948c-0.298 0.591 0.076 1.318 0.836 1.629 0.196 0.080 0.398 0.124 0.596 0.137 0.574 0.035 1.111-0.201 1.339-0.64l2.346-4.576c-0.001 0-0.462 0.038-0.852-0.038zM18.78 12.447l-2.177-4.546c-0.271-0.515-0.863-0.827-1.484-0.844v-0.003l-0.337 0.001 0.032 0.022-0.583 1.483 0.787 4.51-1.005 2.116-0.813-2.41 0.581-4.23-0.7-1.48-0.952 0.004c-0.564-0.057-1.137 0.134-1.48 0.55l-3.647 4.421c-0.103 0.123-0.177 0.263-0.222 0.411l-0.88 3.19c0.061-0.2 0.088-0.3 0.096-0.333-0.010 0.040-0.041 0.173-0.065 0.346-0.555 0.021-0.886 0.306-0.953 0.7l-0.082 0.478-2.69-0.489c-0.212-0.038-0.414-0.005-0.579 0.077l4.68 3.666 0.072-0.406 1.096 0.206-0.074 0.406 5.604-1.703c-0.128-0.194-0.352-0.346-0.63-0.396l-2.5-0.454 0.090-0.482c0.091-0.487-0.317-0.992-1.144-1.14l-0.259-0.046 0.746-2.605 2.186-2.683-0.184 6.576c1.488 0.339 1.782 0.415 2.21 0.985s0.066 1.657 0.066 1.657l1.631 3.828 1.647 6.472c0.193 0.676 1.030 1.146 1.875 1.056 0.849-0.093 1.385-0.72 1.194-1.401l-1.647-6.635c-0.017-0.062-0.039-0.123-0.068-0.183l-2.309-5.434 0.212-5.092 0.882 2.022c0.019 0.036 0.040 0.072 0.063 0.107l2.549 3.814c0.298 0.453 0.863 0.724 1.448 0.742 0.263 0.008 0.529-0.034 0.777-0.134 0.804-0.323 0.579-1.608 0.144-2.272l-3.204-4.445zM5.995 17.030l0.075-0.428c0.154 0.235 0.384 0.434 0.676 0.564l-0.751-0.136zM8.565 16.945c0.044-0.048 0.059-0.098 0.058-0.149l0.073 0.013c0.057 0.011 0.179 0.102 0.153 0.244l-0.088 0.481-1.152-0.21c0.37-0.023 0.711-0.155 0.956-0.379zM7.191 21.455l-1.089-0.208 0.118-0.667-4.911-3.849c-0.024 0.051-0.043 0.104-0.052 0.162l-0.903 5.372c-0.059 0.374 0.259 0.749 0.712 0.838l10.025 1.639c0.474 0.093 0.92-0.14 0.996-0.521l1.026-5.152c0.002-0.013 0.001-0.024 0.003-0.036l-5.804 1.754-0.121 0.668zM31.653 10.657l-5.34-5.607v2.785h-6.116v4.905h6.133v3.367l5.323-5.45z"></path>
</svg>
