<!-- Generated by IcoMoon.io -->
<svg version="1.1" xmlns="http://www.w3.org/2000/svg" width="64" height="64" viewBox="0 0 64 64">
<title>career</title>
<path d="M27.616 12.662c3.144 0.238 5.886-2.116 6.124-5.26 0.24-3.142-2.114-5.884-5.258-6.126-3.144-0.238-5.886 2.116-6.126 5.26-0.238 3.144 2.116 5.886 5.26 6.126zM21.302 50.916c-0.778-0.15-4.594-0.92-4.594-0.92l-3.936 7.896c-0.596 1.182 0.152 2.636 1.672 3.258 0.392 0.16 0.796 0.248 1.192 0.274 1.148 0.070 2.222-0.402 2.678-1.28l4.692-9.152c-0.002 0-0.924 0.076-1.704-0.076zM37.56 24.894l-4.354-9.092c-0.542-1.030-1.726-1.654-2.968-1.688v-0.006l-0.674 0.002 0.064 0.044-1.166 2.966 1.574 9.020-2.010 4.232-1.626-4.82 1.162-8.46-1.4-2.96-1.904 0.008c-1.128-0.114-2.274 0.268-2.96 1.1l-7.294 8.842c-0.206 0.246-0.354 0.526-0.444 0.822l-1.76 6.38c0.122-0.4 0.176-0.6 0.192-0.666-0.020 0.080-0.082 0.346-0.13 0.692-1.11 0.042-1.772 0.612-1.906 1.4l-0.164 0.956-5.38-0.978c-0.424-0.076-0.828-0.010-1.158 0.154l9.36 7.332 0.144-0.812 2.192 0.412-0.148 0.812 11.208-3.406c-0.256-0.388-0.704-0.692-1.26-0.792l-5-0.908 0.18-0.964c0.182-0.974-0.634-1.984-2.288-2.28l-0.518-0.092 1.492-5.21 4.372-5.366-0.368 13.152c2.976 0.678 3.564 0.83 4.42 1.97s0.132 3.314 0.132 3.314l3.262 7.656 3.294 12.944c0.386 1.352 2.060 2.292 3.75 2.112 1.698-0.186 2.77-1.44 2.388-2.802l-3.294-13.27c-0.034-0.124-0.078-0.246-0.136-0.366l-4.618-10.868 0.424-10.184 1.764 4.044c0.038 0.072 0.080 0.144 0.126 0.214l5.098 7.628c0.596 0.906 1.726 1.448 2.896 1.484 0.526 0.016 1.058-0.068 1.554-0.268 1.608-0.646 1.158-3.216 0.288-4.544l-6.408-8.89zM11.99 34.060l0.15-0.856c0.308 0.47 0.768 0.868 1.352 1.128l-1.502-0.272zM17.13 33.89c0.088-0.096 0.118-0.196 0.116-0.298l0.146 0.026c0.114 0.022 0.358 0.204 0.306 0.488l-0.176 0.962-2.304-0.42c0.74-0.046 1.422-0.31 1.912-0.758zM14.382 42.91l-2.178-0.416 0.236-1.334-9.822-7.698c-0.048 0.102-0.086 0.208-0.104 0.324l-1.806 10.744c-0.118 0.748 0.518 1.498 1.424 1.676l20.050 3.278c0.948 0.186 1.84-0.28 1.992-1.042l2.052-10.304c0.004-0.026 0.002-0.048 0.006-0.072l-11.608 3.508-0.242 1.336zM63.306 21.314l-10.68-11.214v5.57h-12.232v9.81h12.266v6.734l10.646-10.9z"></path>
</svg>
