<!-- Generated by IcoMoon.io -->
<svg version="1.1" xmlns="http://www.w3.org/2000/svg" width="64" height="64" viewBox="0 0 64 64">
<title>certifications</title>
<path d="M53 38c-4.2 0-8.4 2.8-8.4 7.4 0 6 7.8 7.2 8 5 0.2-3.2-2.6-1.8-3.8-3.4-1-1.6 0-4.8 4.2-4.8s8.4 7 0.4 10.8c-8 3.8-17.2-5.4-10-14.4 5.4-6.6 16-4 16-4s-18.6-8.6-26.2-14c-7.6-5.4-13.8-14.2-13.8-14.2s-8.6-2.4-14 4.2c-6.6 8.2-2 15.6-2 15.6s7.8 2.6 14.4 6.4c-1 1-3 2-6.2 2.6l1.8 1.8-1.2 2.8c0 0 3.8-1 5.6-3 0 0-1 3.4-7.6 8.2l3.8 1 0.6 5.2c0 0 7.8-5 11.4-12.4 9.2 9.2 14 19.2 23.2 19.2 7.4 0 12.6-4.8 12.6-11.2 0.2-6.2-4.6-8.8-8.8-8.8zM32.8 32.4c-3 4.8-8.6 5.4-12 2.2-3.2-2.8-3.4-8-1.2-11.8 2.4-3.8 7-5.4 10.6-3.4 4 2.4 5.6 8.2 2.6 13zM28.8 22.2c-2.4-1.4-5.6-0.4-7.4 2.2-1.6 2.6-1.4 6.2 0.8 8 2.4 2 6 1.4 8-1.8 2-3 1.2-6.8-1.4-8.4z"></path>
</svg>
