<!-- Generated by IcoMoon.io -->
<svg version="1.1" xmlns="http://www.w3.org/2000/svg" width="32" height="32" viewBox="0 0 32 32">
<title>certifications</title>
<path d="M26.5 19c-2.1 0-4.2 1.4-4.2 3.7 0 3 3.9 3.6 4 2.5 0.1-1.6-1.3-0.9-1.9-1.7-0.5-0.8 0-2.4 2.1-2.4s4.2 3.5 0.2 5.4c-4 1.9-8.6-2.7-5-7.2 2.7-3.3 8-2 8-2s-9.3-4.3-13.1-7c-3.8-2.7-6.9-7.1-6.9-7.1s-4.3-1.2-7 2.1c-3.3 4.1-1 7.8-1 7.8s3.9 1.3 7.2 3.2c-0.5 0.5-1.5 1-3.1 1.3l0.9 0.9-0.6 1.4c0 0 1.9-0.5 2.8-1.5 0 0-0.5 1.7-3.8 4.1l1.9 0.5 0.3 2.6c0 0 3.9-2.5 5.7-6.2 4.6 4.6 7 9.6 11.6 9.6 3.7 0 6.3-2.4 6.3-5.6 0.1-3.1-2.3-4.4-4.4-4.4zM16.4 16.2c-1.5 2.4-4.3 2.7-6 1.1-1.6-1.4-1.7-4-0.6-5.9 1.2-1.9 3.5-2.7 5.3-1.7 2 1.2 2.8 4.1 1.3 6.5zM14.4 11.1c-1.2-0.7-2.8-0.2-3.7 1.1-0.8 1.3-0.7 3.1 0.4 4 1.2 1 3 0.7 4-0.9 1-1.5 0.6-3.4-0.7-4.2z"></path>
</svg>
