<!-- Generated by IcoMoon.io -->
<svg version="1.1" xmlns="http://www.w3.org/2000/svg" width="32" height="32" viewBox="0 0 32 32">
<title>cfa_scorm</title>
<path d="M13.8 3h4.3v12.2h-4.3v-12.2z"></path>
<path d="M30.1 9.1l-4.5-6.1h-6.1l0.4 6.1z"></path>
<path d="M12.2 3h-5.8l-4.4 6.1h9.9z"></path>
<path d="M27.1 24.9c0.2 0 0.4-0.1 0.5-0.3 0.1-0.1 0.1-0.3 0.1-0.6 0-0.2 0-0.4-0.1-0.5-0.1-0.2-0.3-0.3-0.5-0.3s-0.4 0.1-0.5 0.3c-0.1 0.1-0.1 0.3-0.1 0.5s0 0.4 0.1 0.6c0.1 0.2 0.2 0.3 0.5 0.3z"></path>
<path d="M5.3 23.3c-0.3 0-0.5 0.2-0.6 0.6h1.1c0-0.4-0.2-0.6-0.5-0.6z"></path>
<path d="M11.3 23.3c-0.3 0-0.5 0.2-0.6 0.6h1.1c0-0.4-0.1-0.6-0.5-0.6z"></path>
<path d="M19.9 17.1h-7.9v-5.8h-10.1v17.7h28.1v-17.7h-10.1v5.8zM4.8 24.8c0.1 0.1 0.3 0.2 0.5 0.2s0.4-0.1 0.5-0.3h0.8c0 0 0 0.1-0.1 0.2-0.1 0.2-0.2 0.4-0.5 0.6-0.2 0.1-0.5 0.2-0.7 0.2-0.4 0-0.7-0.1-1-0.4-0.2-0.3-0.3-0.6-0.3-1s0.1-0.8 0.3-1.1c0.2-0.3 0.6-0.5 1-0.5 0.9 0 1.3 0.6 1.3 1.7h-1.9c0 0.1 0 0.3 0.1 0.4zM9.8 25.5h-2.7v-3.8h0.8v3.1h1.8v0.7zM10.9 24.8c0.1 0.1 0.2 0.2 0.4 0.2s0.4-0.1 0.5-0.3h0.8c0 0 0 0.1-0.1 0.2-0.1 0.2-0.2 0.4-0.5 0.6-0.2 0.1-0.5 0.2-0.7 0.2-0.4 0-0.7-0.1-1-0.4-0.2-0.3-0.3-0.6-0.3-1s0.1-0.8 0.3-1.1c0.2-0.3 0.6-0.5 1-0.5 0.9 0 1.3 0.6 1.3 1.7h-1.9c0 0.1 0.1 0.3 0.2 0.4zM15.6 25.5h-0.8c-0.1-0.1-0.1-0.2-0.1-0.3-0.2 0.3-0.5 0.4-0.9 0.4-0.3 0-0.5-0.1-0.6-0.2s-0.2-0.4-0.2-0.6c0-0.5 0.3-0.8 0.9-0.9l0.6-0.1c0.1 0 0.2-0.1 0.2-0.2 0-0.2-0.2-0.3-0.5-0.3-0.2 0-0.3 0-0.3 0.1-0.1 0.1-0.1 0.2-0.1 0.3h-0.7v-0.2c0-0.2 0.2-0.4 0.4-0.6 0.2-0.1 0.5-0.2 0.7-0.2 0.3 0 0.6 0.1 0.8 0.2 0.3 0.1 0.4 0.3 0.4 0.6v1.5c0 0.2 0.1 0.3 0.2 0.4v0.1zM17.7 23.4c-0.3 0-0.5 0-0.6 0.1-0.2 0.1-0.3 0.3-0.3 0.5v1.5h-0.7v-2.8h0.7v0.5c0.2-0.4 0.5-0.6 0.9-0.6v0.8zM26 23.1c0.2-0.3 0.5-0.5 0.9-0.5 0.3 0 0.6 0.1 0.8 0.4v-0.3h0.7v2.8c0 0.1 0 0.2 0 0.3 0 0.3-0.2 0.5-0.5 0.7-0.2 0.1-0.5 0.2-0.9 0.2-0.3 0-0.6-0.1-0.8-0.2-0.3-0.1-0.4-0.4-0.4-0.7h0.8c0.1 0.2 0.2 0.3 0.5 0.3 0.2 0 0.3 0 0.4-0.1s0.2-0.2 0.2-0.4v-0.4c-0.2 0.3-0.4 0.4-0.8 0.4s-0.7-0.1-0.9-0.4c-0.2-0.3-0.3-0.6-0.3-1 0-0.5 0.1-0.8 0.3-1.1zM22.7 22.7h0.7v0.3c0.1-0.1 0.3-0.2 0.4-0.3s0.3-0.1 0.5-0.1c0.3 0 0.5 0.1 0.7 0.3s0.2 0.4 0.2 0.7v1.9h-0.7v-1.7c0-0.4-0.1-0.5-0.4-0.5-0.2 0-0.3 0.1-0.4 0.2s-0.2 0.3-0.2 0.4v1.6h-0.7v-2.8zM21.3 21.8h0.7v0.7h-0.7v-0.7zM21.3 22.7h0.7v2.8h-0.7v-2.8zM20.6 23.6v1.9h-0.7v-1.7c0-0.4-0.1-0.5-0.4-0.5-0.2 0-0.3 0.1-0.4 0.2s-0.2 0.3-0.2 0.4v1.6h-0.7v-2.8h0.7v0.3c0.1-0.1 0.3-0.2 0.4-0.3s0.3-0.1 0.5-0.1c0.3 0 0.5 0.1 0.7 0.3 0 0.2 0.1 0.4 0.1 0.7z"></path>
<path d="M13.7 24.7c0 0.1 0 0.2 0.1 0.3s0.2 0.1 0.3 0.1 0.3-0.1 0.4-0.2c0.1-0.1 0.2-0.3 0.2-0.5v-0.3c-0.3 0.1-0.5 0.1-0.6 0.2-0.3 0.1-0.4 0.2-0.4 0.4z"></path>
</svg>
