<!-- Generated by IcoMoon.io -->
<svg version="1.1" xmlns="http://www.w3.org/2000/svg" width="64" height="64" viewBox="0 0 64 64">
<title>cfa_scorm</title>
<path d="M27.6 6h8.6v24.4h-8.6v-24.4z"></path>
<path d="M60.2 18.2l-9-12.2h-12.2l0.8 12.2z"></path>
<path d="M24.4 6h-11.6l-8.8 12.2h19.8z"></path>
<path d="M54.2 49.8c0.4 0 0.8-0.2 1-0.6 0.2-0.2 0.2-0.6 0.2-1.2 0-0.4 0-0.8-0.2-1-0.2-0.4-0.6-0.6-1-0.6s-0.8 0.2-1 0.6c-0.2 0.2-0.2 0.6-0.2 1s0 0.8 0.2 1.2c0.2 0.4 0.4 0.6 1 0.6z"></path>
<path d="M10.6 46.6c-0.6 0-1 0.4-1.2 1.2h2.2c0-0.8-0.4-1.2-1-1.2z"></path>
<path d="M22.6 46.6c-0.6 0-1 0.4-1.2 1.2h2.2c0-0.8-0.2-1.2-1-1.2z"></path>
<path d="M39.8 34.2h-15.8v-11.6h-20.2v35.4h56.2v-35.4h-20.2v11.6zM9.6 49.6c0.2 0.2 0.6 0.4 1 0.4s0.8-0.2 1-0.6h1.6c0 0 0 0.2-0.2 0.4-0.2 0.4-0.4 0.8-1 1.2-0.4 0.2-1 0.4-1.4 0.4-0.8 0-1.4-0.2-2-0.8-0.4-0.6-0.6-1.2-0.6-2s0.2-1.6 0.6-2.2c0.4-0.6 1.2-1 2-1 1.8 0 2.6 1.2 2.6 3.4h-3.8c0 0.2 0 0.6 0.2 0.8zM19.6 51h-5.4v-7.6h1.6v6.2h3.6v1.4zM21.8 49.6c0.2 0.2 0.4 0.4 0.8 0.4s0.8-0.2 1-0.6h1.6c0 0 0 0.2-0.2 0.4-0.2 0.4-0.4 0.8-1 1.2-0.4 0.2-1 0.4-1.4 0.4-0.8 0-1.4-0.2-2-0.8-0.4-0.6-0.6-1.2-0.6-2s0.2-1.6 0.6-2.2c0.4-0.6 1.2-1 2-1 1.8 0 2.6 1.2 2.6 3.4h-3.8c0 0.2 0.2 0.6 0.4 0.8zM31.2 51h-1.6c-0.2-0.2-0.2-0.4-0.2-0.6-0.4 0.6-1 0.8-1.8 0.8-0.6 0-1-0.2-1.2-0.4s-0.4-0.8-0.4-1.2c0-1 0.6-1.6 1.8-1.8l1.2-0.2c0.2 0 0.4-0.2 0.4-0.4 0-0.4-0.4-0.6-1-0.6-0.4 0-0.6 0-0.6 0.2-0.2 0.2-0.2 0.4-0.2 0.6h-1.4v-0.4c0-0.4 0.4-0.8 0.8-1.2 0.4-0.2 1-0.4 1.4-0.4 0.6 0 1.2 0.2 1.6 0.4 0.6 0.2 0.8 0.6 0.8 1.2v3c0 0.4 0.2 0.6 0.4 0.8v0.2zM35.4 46.8c-0.6 0-1 0-1.2 0.2-0.4 0.2-0.6 0.6-0.6 1v3h-1.4v-5.6h1.4v1c0.4-0.8 1-1.2 1.8-1.2v1.6zM52 46.2c0.4-0.6 1-1 1.8-1 0.6 0 1.2 0.2 1.6 0.8v-0.6h1.4v5.6c0 0.2 0 0.4 0 0.6 0 0.6-0.4 1-1 1.4-0.4 0.2-1 0.4-1.8 0.4-0.6 0-1.2-0.2-1.6-0.4-0.6-0.2-0.8-0.8-0.8-1.4h1.6c0.2 0.4 0.4 0.6 1 0.6 0.4 0 0.6 0 0.8-0.2s0.4-0.4 0.4-0.8v-0.8c-0.4 0.6-0.8 0.8-1.6 0.8s-1.4-0.2-1.8-0.8c-0.4-0.6-0.6-1.2-0.6-2 0-1 0.2-1.6 0.6-2.2zM45.4 45.4h1.4v0.6c0.2-0.2 0.6-0.4 0.8-0.6s0.6-0.2 1-0.2c0.6 0 1 0.2 1.4 0.6s0.4 0.8 0.4 1.4v3.8h-1.4v-3.4c0-0.8-0.2-1-0.8-1-0.4 0-0.6 0.2-0.8 0.4s-0.4 0.6-0.4 0.8v3.2h-1.4v-5.6zM42.6 43.6h1.4v1.4h-1.4v-1.4zM42.6 45.4h1.4v5.6h-1.4v-5.6zM41.2 47.2v3.8h-1.4v-3.4c0-0.8-0.2-1-0.8-1-0.4 0-0.6 0.2-0.8 0.4s-0.4 0.6-0.4 0.8v3.2h-1.4v-5.6h1.4v0.6c0.2-0.2 0.6-0.4 0.8-0.6s0.6-0.2 1-0.2c0.6 0 1 0.2 1.4 0.6 0 0.4 0.2 0.8 0.2 1.4z"></path>
<path d="M27.4 49.4c0 0.2 0 0.4 0.2 0.6s0.4 0.2 0.6 0.2 0.6-0.2 0.8-0.4c0.2-0.2 0.4-0.6 0.4-1v-0.6c-0.6 0.2-1 0.2-1.2 0.4-0.6 0.2-0.8 0.4-0.8 0.8z"></path>
</svg>
