<!-- Generated by IcoMoon.io -->
<svg version="1.1" xmlns="http://www.w3.org/2000/svg" width="64" height="64" viewBox="0 0 64 64">
<title>change_owner</title>
<path d="M25.6 43.8c0-1 0.2-3.6 1.4-6.4l-2-0.6c0 0-2 3.2-2 7.6-1.8 0-4-0.2-4.8-0.6 0-8.8 6.6-15.8 14.8-15.8 2.6 0 5 0.6 7 1.8 1.6-0.6 3-0.4 5.2-0.6-1.8-1.8-4-3-6.4-4 2.8-1.8 4.6-5 4.6-8.6 0-5.8-4.6-10.4-10.4-10.4s-10.4 4.6-10.4 10.4c0 3.6 1.8 6.8 4.6 8.6-7.4 2.6-12.8 9.8-12.8 18.6 0 0.2 0 1.4 0 1.4s3.4 3.4 8.6 1.6c0 0 1.2 0.8 4.4 1.4-0.2-0.8-0.2-1.8 0-3.4-1.4-0.4-1.8-1-1.8-1zM26 16.6c0-3.8 3.2-7 7-7s7 3.2 7 7c0 3.8-3.2 7-7 7s-7-3.2-7-7zM13.8 22.6c1.2 0.4 2.4 0.8 3.6 0.8 1.4 0 2.6-0.2 3.8-0.8-0.4-1.6-0.4-3-0.8-2.8-1 0.4-2 0.6-3 0.6-3.4 0-6-2.8-6-6.4 0-3.4 2.8-6.4 6.2-6.4 1.4 0 2.6 0.4 3.6 1.2 0.4-0.8 0.2-0.8 1.4-2.4-1.4-1-3.2-1.8-5.2-1.8-5 0.2-9 4.4-9 9.4 0 2.4 0.8 4.6 2.4 6.2-5.4 2.8-9.2 9-9.2 16 0 0.8 0 2.8 1.4 2.8s5.6 0 5.6 0 1.2 0.8 2.8 1.4c0.4-0.6 1.2-3 1.2-3l-2.6-1.2c0 0-0.4-2 1.2-6l-1.8-0.6c0 0-1.6 2.8-1.6 6.6h-3.2c0-6.4 4-11.8 9.2-13.6zM35.6 46c0-5.2 4.2-9.2 9.4-9.2 2.6 0 5 1.2 6.6 3l-3 3.4h9.4v-9.6l-3 3.2c-2.6-2.6-6-4.2-9.8-4.2-7.6 0-14 6-14 13.8 0 0.2 0 0 0 0.2l4.4-0.6c0-0.2 0 0.2 0 0zM59 46h-4.4c0 0.2 0 0 0 0.2 0 5.2-4.2 9.2-9.4 9.2-2.6 0-5.2-1-7-2.8l3.2-3.6h-9.2v9.8l3-3c2.6 2.6 6.2 4 10 4 7.6 0 14-6 14-13.8-0.2 0.2-0.2 0.2-0.2 0z"></path>
</svg>
