<!-- Generated by IcoMoon.io -->
<svg version="1.1" xmlns="http://www.w3.org/2000/svg" width="64" height="64" viewBox="0 0 64 64">
<title>chart</title>
<path d="M52 10.6c-3.4 0-6 2.8-6 6 0 2.2 1 4 2.8 5l-11 20.4c-0.6 0-1 0-1.6 0-0.8 0-1.6 0.2-2.2 0.6l-5.8-11c1-1 1.6-2.2 1.6-3.8 0-2.8-2.4-5.2-5.2-5.2s-5.2 2.4-5.2 5.2c0 1.4 0.6 2.6 1.4 3.6l-7.8 12.2c-0.6-0.2-1.4-0.4-2-0.4-2.8 0-5.2 2.4-5.2 5.2s2.4 5.2 5.2 5.2c2.8 0 5.2-2.4 5.2-5.2 0-1.4-0.6-2.6-1.4-3.4l7.8-12.2c0.6 0.2 1.2 0.4 1.8 0.4s1.2-0.2 1.6-0.4l6 11.2c-0.8 0.8-1.2 2-1.2 3.2 0 2.8 2.4 5.2 5.2 5.2s5.2-2.2 5.2-5.2c0-1.6-0.6-2.8-1.8-3.8l11-20.6c0.4 0 0.8 0.2 1.2 0.2 3.4 0 6-2.8 6-6 0.4-3.6-2.4-6.4-5.6-6.4z"></path>
</svg>
