<!-- Generated by IcoMoon.io -->
<svg version="1.1" xmlns="http://www.w3.org/2000/svg" width="32" height="32" viewBox="0 0 32 32">
<title>chart</title>
<path d="M26 5.3c-1.7 0-3 1.4-3 3 0 1.1 0.5 2 1.4 2.5l-5.5 10.2c-0.3 0-0.5 0-0.8 0-0.4 0-0.8 0.1-1.1 0.3l-2.9-5.5c0.5-0.5 0.8-1.1 0.8-1.9 0-1.4-1.2-2.6-2.6-2.6s-2.6 1.2-2.6 2.6c0 0.7 0.3 1.3 0.7 1.8l-3.9 6.1c-0.3-0.1-0.7-0.2-1-0.2-1.4 0-2.6 1.2-2.6 2.6s1.2 2.6 2.6 2.6c1.4 0 2.6-1.2 2.6-2.6 0-0.7-0.3-1.3-0.7-1.7l3.9-6.1c0.3 0.1 0.6 0.2 0.9 0.2s0.6-0.1 0.8-0.2l3 5.6c-0.4 0.4-0.6 1-0.6 1.6 0 1.4 1.2 2.6 2.6 2.6s2.6-1.1 2.6-2.6c0-0.8-0.3-1.4-0.9-1.9l5.5-10.3c0.2 0 0.4 0.1 0.6 0.1 1.7 0 3-1.4 3-3 0.2-1.8-1.2-3.2-2.8-3.2z"></path>
</svg>
