<!-- Generated by IcoMoon.io -->
<svg version="1.1" xmlns="http://www.w3.org/2000/svg" width="64" height="64" viewBox="0 0 64 64">
<title>coach</title>
<path d="M39.4 29.2c3.4-2.2 5.6-6.2 5.6-10.6 0-7.2-5.8-12.8-12.8-12.8s-12.8 5.6-12.8 12.6c0 4.4 2.2 8.4 5.8 10.6-9 3.2-13.6 9.8-13.6 20.6 0 0.2 0 1.2 0 1.6 0 0.2 2.4 3.4 8.6 2.4 0 0.2 3.4 4.6 12.2 4.6s11.8-4.6 12-4.6c6.6 2 8-2 8-2s0-1.4 0-1.8c0-10.8-4-17.6-13-20.6zM23.4 18.4c0-5 3.8-8.8 8.6-8.8s8.6 4 8.6 8.8c0 5-3.8 8.8-8.6 8.8-4.6 0-8.6-4-8.6-8.8zM31.4 53.6c0 0-3.2-2.6-2.6-6 0.8-3.2 2.6-8.8 2.2-8.8-0.2 0-1-2-1-2l1.4-1.8h1l1 1.8-1.4 2.2c0 0 0.8 4.8 1.8 8.4s-2.4 6.2-2.4 6.2zM36 38l-4-4.2-4 4.2-2.8-8.8 7 3.2 7-3.2-3.2 8.8z"></path>
</svg>
