<!-- Generated by IcoMoon.io -->
<svg version="1.1" xmlns="http://www.w3.org/2000/svg" width="64" height="64" viewBox="0 0 64 64">
<title>collector</title>
<path d="M27.2 53c-6.4 0-9.2-2.2-9.2-2.2 0-1.4 0.2-4.4 1.8-8l-2.6-0.8c0 0-2.4 3.8-2.6 9.4-2.2 0-4 0-5.8-0.6 0-10.8 8.2-19.4 18.2-19.4 2.8 0 5.6 0.8 8 2 1-0.8 1.8-1.4 4-3-1.6-1-3.4-2-5.2-2.6 3.4-2.2 5.6-6.2 5.6-10.6 0-7-5.8-12.8-12.8-12.8s-12.8 5.8-12.8 12.8c0 4.4 2.2 8.4 5.8 10.6-8.4 3.2-15 12.2-15 23 0 0.2 0 1.2 0 1.6 0 0.2 4.2 3.2 10.4 2.2 0 0.2 3.4 2.2 12.2 2.2 1.4 0 2.6 0 3.6-0.2-0.4-1.2-1.2-3-1.8-3.8-0.4 0.2-1.2 0.2-1.8 0.2zM18.4 17.2c0-4.8 3.8-8.6 8.6-8.6s8.6 3.8 8.6 8.6c0 4.8-3.8 8.6-8.6 8.6s-8.6-3.8-8.6-8.6zM27 16.6c0 0-0.2 3.6 4.2 3.6 4.2 0 3.2-4.4 3.2-4.4s-3.2-0.8-7.4 0c-3.6-0.6-7 0-7 0s-1 4.2 3 4.2c3 0 4-3.4 4-3.4zM39.4 41.6c1.8-1 14.4-7.4 14.4-7.4l0.2-2.8-20.6 11 2.6 13.8c0 0 1.4-8.6 1.8-10.4 0.2-1.6 0.4-3.6 1.6-4.2zM58 33.8c-1.2 0.8-11.2 5.6-16 8-2.8 1.4-2.8 2.8-3.4 5.4s-2.6 12.4-2.6 12.4 17-11.2 18.2-11.8c1.2-0.8 1.4-1.2 1.6-2s2.8-8.8 3.2-10.2c0.6-1.6 0.2-2.6-1-1.8zM47.2 33.2c0 0-0.4-1.2-0.6-2s-1-1.2-2.2-0.8c-1.2 0.4-3.8 1.4-4.6 1.8-2.2 0.8-0.6 3.2-3.2 4.4-2.8 1.2-6.8 2.8-8.2 3.6s-1.4 1.8-0.8 3.6c0.8 1.8 6.4 15 8.2 15.4l-4.8-17.2 16.2-8.8z"></path>
</svg>
