<!-- Generated by IcoMoon.io -->
<svg version="1.1" xmlns="http://www.w3.org/2000/svg" width="64" height="64" viewBox="0 0 64 64">
<title>color_palette</title>
<path d="M57.738 5.71c-0.608-0.478-0.89-0.764-1.324-1.064s-0.87-0.118-1.272 0.334-14.85 16.274-15.418 16.922c-0.566 0.646-0.726 1.078-0.214 1.538 0.512 0.458 2.184 1.966 2.64 2.318 0.458 0.35 0.604 0.386 1.262-0.382 0.984-1.148 14.064-17.668 14.37-18.188 0.302-0.524 0.564-1.002-0.044-1.478zM50.696 37.642c-1.588 0-4.256 1.236-6.1-0.89-1.622-1.866-0.572-4.638 0.572-7.308 0.43-1.004 0.762-2.054 1.008-2.972-2.186 2.338-3.436 3.798-3.436 3.798-0.084 2.416-1.792 5.292-4.042 7.334-3.114 2.826-9.918 2.598-12.126 2.416-3.542-0.292-3.372-3.458-1.376-4.542 1.998-1.086 3.138-3.534 3.708-5.376 0.572-1.842 1.668-5.374 6.75-6.708 1.274-2.86 6.5-7.792 7.464-8.612-1.744-1.89-6.482-5.992-14.794-5.992-11.628 0-22.432 10.994-22.432 25.8s11.694 24.91 26.054 24.91 22.94-14.87 22.94-17.92c0.002-3.046-2.602-3.938-4.19-3.938zM28.046 13.814c2.040 0 3.692 1.654 3.692 3.692s-1.654 3.692-3.692 3.692-3.692-1.654-3.692-3.692c0-2.040 1.652-3.692 3.692-3.692zM10.124 33.66c0-2.042 1.654-3.694 3.692-3.694s3.692 1.652 3.692 3.694c0 2.038-1.654 3.692-3.692 3.692s-3.692-1.654-3.692-3.692zM17.584 47.964c-2.040 0-3.692-1.652-3.692-3.692 0-2.038 1.654-3.692 3.692-3.692s3.692 1.654 3.692 3.692c0.002 2.040-1.652 3.692-3.692 3.692zM17.892 26.426c-2.038 0-3.692-1.652-3.692-3.69 0-2.040 1.654-3.692 3.692-3.692 2.040 0 3.692 1.654 3.692 3.692s-1.652 3.69-3.692 3.69zM27.2 53.81c-2.040 0-3.692-1.652-3.692-3.692s1.654-3.694 3.692-3.694c2.038 0 3.692 1.654 3.692 3.694s-1.654 3.692-3.692 3.692zM33.624 27.32c-2.5 2.082-2.24 5.096-3.398 6.93-1.12 1.768-2.804 2.616-3.694 3.316 1.508 0.35 5.77 0.834 10.19-1.944 4.422-2.774 3.72-7.36 3.72-7.36l-2.56-2.346c0 0.002-2.156-0.348-4.258 1.404z"></path>
</svg>
