<!-- Generated by IcoMoon.io -->
<svg version="1.1" xmlns="http://www.w3.org/2000/svg" width="32" height="32" viewBox="0 0 32 32">
<title>color_palette</title>
<path d="M28.869 2.855c-0.304-0.239-0.445-0.382-0.662-0.532s-0.435-0.059-0.636 0.167-7.425 8.137-7.709 8.461c-0.283 0.323-0.363 0.539-0.107 0.769 0.256 0.229 1.092 0.983 1.32 1.159s0.302 0.193 0.631-0.191c0.492-0.574 7.032-8.834 7.185-9.094 0.151-0.262 0.282-0.501-0.022-0.739zM25.348 18.821c-0.794 0-2.128 0.618-3.050-0.445-0.811-0.933-0.286-2.319 0.286-3.654 0.215-0.502 0.381-1.027 0.504-1.486-1.093 1.169-1.718 1.899-1.718 1.899-0.042 1.208-0.896 2.646-2.021 3.667-1.557 1.413-4.959 1.299-6.063 1.208-1.771-0.146-1.686-1.729-0.688-2.271 0.999-0.543 1.569-1.767 1.854-2.688s0.834-2.687 3.375-3.354c0.637-1.43 3.25-3.896 3.732-4.306-0.872-0.945-3.241-2.996-7.397-2.996-5.814 0-11.216 5.497-11.216 12.9s5.847 12.455 13.027 12.455 11.47-7.435 11.47-8.96c0.001-1.523-1.301-1.969-2.095-1.969zM14.023 6.907c1.020 0 1.846 0.827 1.846 1.846s-0.827 1.846-1.846 1.846-1.846-0.827-1.846-1.846c0-1.020 0.826-1.846 1.846-1.846zM5.062 16.83c0-1.021 0.827-1.847 1.846-1.847s1.846 0.826 1.846 1.847c0 1.019-0.827 1.846-1.846 1.846s-1.846-0.827-1.846-1.846zM8.792 23.982c-1.020 0-1.846-0.826-1.846-1.846 0-1.019 0.827-1.846 1.846-1.846s1.846 0.827 1.846 1.846c0.001 1.020-0.826 1.846-1.846 1.846zM8.946 13.213c-1.019 0-1.846-0.826-1.846-1.845s0.827-1.846 1.846-1.846c1.020 0 1.846 0.827 1.846 1.846s-0.826 1.845-1.846 1.845zM13.6 26.905c-1.020 0-1.846-0.826-1.846-1.846s0.827-1.847 1.846-1.847c1.019 0 1.846 0.827 1.846 1.847s-0.827 1.846-1.846 1.846zM16.812 13.66c-1.25 1.041-1.12 2.548-1.699 3.465-0.56 0.884-1.402 1.308-1.847 1.658 0.754 0.175 2.885 0.417 5.095-0.972 2.211-1.387 1.86-3.68 1.86-3.68l-1.28-1.173c0 0.001-1.078-0.174-2.129 0.702z"></path>
</svg>
