<!-- Generated by IcoMoon.io -->
<svg version="1.1" xmlns="http://www.w3.org/2000/svg" width="64" height="64" viewBox="0 0 64 64">
<title>community_builder</title>
<path d="M44.8 23.4l4.8-3.4c0.6 0.6 1.6 1 2.4 1 2 0 3.4-1.6 3.4-3.4 0.2-2-1.4-3.6-3.4-3.6s-3.4 1.6-3.4 3.4c0 0.6 0.2 1.2 0.4 1.6l-4.8 3.4c0.2 0.4 0.4 0.6 0.6 1zM19.6 40.4l-5.2 3.6c-0.6-0.6-1.6-1-2.4-1-2 0-3.4 1.6-3.4 3.4-0.2 2 1.4 3.6 3.4 3.6s3.4-1.6 3.4-3.4c0-0.6-0.2-1.2-0.4-1.6l5.2-3.8c-0.2-0.2-0.4-0.6-0.6-0.8zM27 46l-2 6.2c-0.2 0-0.4 0-0.6 0-2 0-3.4 1.6-3.4 3.4 0 2 1.6 3.4 3.4 3.4s3.4-1.6 3.4-3.4c0-1.4-0.8-2.6-2-3.2l2-6.2c-0.2 0-0.6-0.2-0.8-0.2zM38 11.6l-1.8 5.4c0.4 0.2 0.6 0.2 1 0.4l1.8-5.4c0.2 0 0.4 0 0.6 0 2 0 3.4-1.6 3.4-3.4 0-2-1.6-3.4-3.4-3.4-2 0-3.4 1.6-3.4 3.4 0 1.2 0.8 2.4 1.8 3zM52 43c-1 0-1.8 0.4-2.4 1l-5-3.8c-0.2 0.2-0.4 0.6-0.6 0.8l5.2 3.8c-0.2 0.4-0.4 1-0.4 1.6 0 2 1.6 3.4 3.4 3.4 2 0 3.4-1.6 3.4-3.4s-1.6-3.4-3.6-3.4zM12 21c1 0 1.8-0.4 2.4-1l4.8 3.4c0.2-0.2 0.4-0.6 0.6-0.8l-4.8-3.6c0.4-0.4 0.4-1 0.4-1.6 0-1.8-1.4-3.4-3.4-3.4s-3.6 1.6-3.6 3.4c0 2 1.6 3.6 3.6 3.6zM24.4 12c0.2 0 0.4 0 0.6 0l1.8 5.4c0.4-0.2 0.6-0.2 1-0.4l-1.8-5.4c1.2-0.6 2-1.8 2-3.2 0-2-1.6-3.4-3.4-3.4s-3.4 1.6-3.4 3.4c-0.4 2 1.2 3.6 3.2 3.6zM10.8 32.6h6.2c0-0.4 0-0.6 0-1 0 0 0 0 0-0.2h-6c-0.2-1.6-1.6-3-3.4-3-2 0-3.4 1.6-3.4 3.4 0 2 1.6 3.4 3.4 3.4 1.4 0.2 2.8-1 3.2-2.6zM39.6 52c-0.2 0-0.4 0-0.6 0l-2-6.2c-0.4 0.2-0.6 0.2-1 0.4l2 6.2c-1.2 0.6-2 1.8-2 3.2 0 2 1.6 3.4 3.4 3.4 2 0 3.4-1.6 3.4-3.4 0.4-2-1.2-3.6-3.2-3.6zM45 31.6c0-7.2-5.8-13-13-13s-13 5.8-13 13c0 7.2 5.8 13 13 13s13-5.8 13-13zM38 40.2l-11.4-11.4-1 1-0.8-0.8-0.8 0.8 0.8 0.8-1.2 1.4-2.6-2.6 1.4-1.4 0.8 0.8 0.8-0.8-0.8-0.8 4-4c0 0 1.8 1.2 4-1l1.2 1.2-3.4 3.4 11.4 11.4-2.4 2zM56.8 28.6c-1.8 0-3.2 1.2-3.4 3h-6c0 0 0 0 0 0.2 0 0.4 0 0.6 0 1h6.2c0.2 1.6 1.6 3 3.4 3 2 0 3.4-1.6 3.4-3.4-0.2-2.4-1.8-3.8-3.6-3.8z"></path>
</svg>
