<!-- Generated by IcoMoon.io -->
<svg version="1.1" xmlns="http://www.w3.org/2000/svg" width="32" height="32" viewBox="0 0 32 32">
<title>community_builder</title>
<path d="M22.4 11.7l2.4-1.7c0.3 0.3 0.8 0.5 1.2 0.5 1 0 1.7-0.8 1.7-1.7 0.1-1-0.7-1.8-1.7-1.8s-1.7 0.8-1.7 1.7c0 0.3 0.1 0.6 0.2 0.8l-2.4 1.7c0.1 0.2 0.2 0.3 0.3 0.5zM9.8 20.2l-2.6 1.8c-0.3-0.3-0.8-0.5-1.2-0.5-1 0-1.7 0.8-1.7 1.7-0.1 1 0.7 1.8 1.7 1.8s1.7-0.8 1.7-1.7c0-0.3-0.1-0.6-0.2-0.8l2.6-1.9c-0.1-0.1-0.2-0.3-0.3-0.4zM13.5 23l-1 3.1c-0.1 0-0.2 0-0.3 0-1 0-1.7 0.8-1.7 1.7 0 1 0.8 1.7 1.7 1.7s1.7-0.8 1.7-1.7c0-0.7-0.4-1.3-1-1.6l1-3.1c-0.1 0-0.3-0.1-0.4-0.1zM19 5.8l-0.9 2.7c0.2 0.1 0.3 0.1 0.5 0.2l0.9-2.7c0.1 0 0.2 0 0.3 0 1 0 1.7-0.8 1.7-1.7 0-1-0.8-1.7-1.7-1.7-1 0-1.7 0.8-1.7 1.7 0 0.6 0.4 1.2 0.9 1.5zM26 21.5c-0.5 0-0.9 0.2-1.2 0.5l-2.5-1.9c-0.1 0.1-0.2 0.3-0.3 0.4l2.6 1.9c-0.1 0.2-0.2 0.5-0.2 0.8 0 1 0.8 1.7 1.7 1.7 1 0 1.7-0.8 1.7-1.7s-0.8-1.7-1.8-1.7zM6 10.5c0.5 0 0.9-0.2 1.2-0.5l2.4 1.7c0.1-0.1 0.2-0.3 0.3-0.4l-2.4-1.8c0.2-0.2 0.2-0.5 0.2-0.8 0-0.9-0.7-1.7-1.7-1.7s-1.8 0.8-1.8 1.7c0 1 0.8 1.8 1.8 1.8zM12.2 6c0.1 0 0.2 0 0.3 0l0.9 2.7c0.2-0.1 0.3-0.1 0.5-0.2l-0.9-2.7c0.6-0.3 1-0.9 1-1.6 0-1-0.8-1.7-1.7-1.7s-1.7 0.8-1.7 1.7c-0.2 1 0.6 1.8 1.6 1.8zM5.4 16.3h3.1c0-0.2 0-0.3 0-0.5 0 0 0 0 0-0.1h-3c-0.1-0.8-0.8-1.5-1.7-1.5-1 0-1.7 0.8-1.7 1.7 0 1 0.8 1.7 1.7 1.7 0.7 0.1 1.4-0.5 1.6-1.3zM19.8 26c-0.1 0-0.2 0-0.3 0l-1-3.1c-0.2 0.1-0.3 0.1-0.5 0.2l1 3.1c-0.6 0.3-1 0.9-1 1.6 0 1 0.8 1.7 1.7 1.7 1 0 1.7-0.8 1.7-1.7 0.2-1-0.6-1.8-1.6-1.8zM22.5 15.8c0-3.6-2.9-6.5-6.5-6.5s-6.5 2.9-6.5 6.5c0 3.6 2.9 6.5 6.5 6.5s6.5-2.9 6.5-6.5zM19 20.1l-5.7-5.7-0.5 0.5-0.4-0.4-0.4 0.4 0.4 0.4-0.6 0.7-1.3-1.3 0.7-0.7 0.4 0.4 0.4-0.4-0.4-0.4 2-2c0 0 0.9 0.6 2-0.5l0.6 0.6-1.7 1.7 5.7 5.7-1.2 1zM28.4 14.3c-0.9 0-1.6 0.6-1.7 1.5h-3c0 0 0 0 0 0.1 0 0.2 0 0.3 0 0.5h3.1c0.1 0.8 0.8 1.5 1.7 1.5 1 0 1.7-0.8 1.7-1.7-0.1-1.2-0.9-1.9-1.8-1.9z"></path>
</svg>
