<!-- Generated by IcoMoon.io -->
<svg version="1.1" xmlns="http://www.w3.org/2000/svg" width="64" height="64" viewBox="0 0 64 64">
<title>compare</title>
<path d="M52.258 16.776c0.408-0.39 0.662-0.936 0.662-1.542 0-1.184-0.96-2.142-2.14-2.142-0.41 0-0.792 0.116-1.118 0.314-2.644-1.28-8.516-3.81-14.786-4.45l-2.922-4.61-2.854 4.628c-6.268 0.678-12.066 3.282-14.536 4.528-0.35-0.262-0.782-0.412-1.252-0.412-1.184 0-2.14 0.958-2.14 2.142 0 0.628 0.274 1.196 0.708 1.584l-9.898 20.892c0 0 0.892 8.478 11.418 8.478 10.528 0 10.882-8.478 10.882-8.478l-9.68-20.77c0.516-0.39 0.852-1.008 0.852-1.706 0-0.034-0.004-0.064-0.004-0.096 2.8-1.31 7.822-3.328 13.234-3.976l0.802 42.396c-8.46 0.938-16.174 6.098-16.174 6.098h37.822c0 0-7.936-5.172-16.536-6.102l0.722-42.404c5.398 0.626 10.442 2.602 13.324 3.92-0.004 0.052-0.010 0.11-0.010 0.164 0 0.716 0.358 1.356 0.902 1.744l-9.822 20.73c0 0 0.89 8.478 11.418 8.478 10.526 0 10.882-8.478 10.882-8.478l-9.756-20.93zM22.608 37.544h-18.948l9.548-21.144 9.4 21.144zM41.392 37.544l9.552-21.144 9.398 21.144h-18.95z"></path>
</svg>
