<!-- Generated by IcoMoon.io -->
<svg version="1.1" xmlns="http://www.w3.org/2000/svg" width="32" height="32" viewBox="0 0 32 32">
<title>compare</title>
<path d="M26.129 8.388c0.204-0.195 0.331-0.468 0.331-0.771 0-0.592-0.48-1.071-1.070-1.071-0.205 0-0.396 0.058-0.559 0.157-1.322-0.64-4.258-1.905-7.393-2.225l-1.461-2.305-1.427 2.314c-3.134 0.339-6.033 1.641-7.268 2.264-0.175-0.131-0.391-0.206-0.626-0.206-0.592 0-1.070 0.479-1.070 1.071 0 0.314 0.137 0.598 0.354 0.792l-4.949 10.446c0 0 0.446 4.239 5.709 4.239 5.264 0 5.441-4.239 5.441-4.239l-4.84-10.385c0.258-0.195 0.426-0.504 0.426-0.853 0-0.017-0.002-0.032-0.002-0.048 1.4-0.655 3.911-1.664 6.617-1.988l0.401 21.198c-4.23 0.469-8.087 3.049-8.087 3.049h18.911c0 0-3.968-2.586-8.268-3.051l0.361-21.202c2.699 0.313 5.221 1.301 6.662 1.96-0.002 0.026-0.005 0.055-0.005 0.082 0 0.358 0.179 0.678 0.451 0.872l-4.911 10.365c0 0 0.445 4.239 5.709 4.239s5.441-4.239 5.441-4.239l-4.878-10.465zM11.304 18.772h-9.474l4.774-10.572 4.7 10.572zM20.696 18.772l4.776-10.572 4.699 10.572h-9.475z"></path>
</svg>
