<!-- Generated by IcoMoon.io -->
<svg version="1.1" xmlns="http://www.w3.org/2000/svg" width="32" height="32" viewBox="0 0 32 32">
<title>completion_attempts</title>
<path d="M27.2 13l-1 2.9-2.4-1.2c1.4 1.9 0.5 4.2 0.3 5.2-1 4.5-5.7 7.1-10.1 5.9-4.6-1.2-7.2-5.8-6-10.2 0.8-3.2 3.2-5.5 6.2-6.1l-1.1 4.1 8.8-3.8-5.5-7.6-0.9 3.3c-5.2 0.1-9.8 3.7-11.2 9-1.8 6.5 2.1 13.2 8.5 14.9 6.5 1.7 13.1-2.1 14.8-8.6 0.9-3.4 0.6-5.9-0.4-7.8zM15.9 19.3l-2.4-4.6-3.5 2.8 5.8 6.9h0.7c4.3-11 8.5-12.6 8.5-12.6l-0.3-0.4c-7.1 3.1-8.8 7.9-8.8 7.9z"></path>
</svg>
