<!-- Generated by IcoMoon.io -->
<svg version="1.1" xmlns="http://www.w3.org/2000/svg" width="64" height="64" viewBox="0 0 64 64">
<title>completion_attempts</title>
<path d="M54.4 26l-2 5.8-4.8-2.4c2.8 3.8 1 8.4 0.6 10.4-2 9-11.4 14.2-20.2 11.8-9.2-2.4-14.4-11.6-12-20.4 1.6-6.4 6.4-11 12.4-12.2l-2.2 8.2 17.6-7.6-11-15.2-1.8 6.6c-10.4 0.2-19.6 7.4-22.4 18-3.6 13 4.2 26.4 17 29.8 13 3.4 26.2-4.2 29.6-17.2 1.8-6.8 1.2-11.8-0.8-15.6zM31.8 38.6l-4.8-9.2-7 5.6 11.6 13.8h1.4c8.6-22 17-25.2 17-25.2l-0.6-0.8c-14.2 6.2-17.6 15.8-17.6 15.8z"></path>
</svg>
