<!-- Generated by IcoMoon.io -->
<svg version="1.1" xmlns="http://www.w3.org/2000/svg" width="64" height="64" viewBox="0 0 64 64">
<title>contributor</title>
<path d="M17.2 40.4c0 0-2.4 4-2.4 9.6h-5.2c0-8.8 5-16.2 12-19.4l2.6 5.6 5.6-4.2 5.6 4.4 2.4-5.2c0.8 0.4 1.6 1 2.4 1.6 1.2-1.6 2.4-2.2 3.2-3.6-1.4-1-2.8-2-4.2-2.6 2-2.4 3.4-5.6 3.4-9 0-7.6-6-13.6-13.6-13.6s-13.6 6-13.6 13.6c0 3.4 1.4 6.6 3.4 9-8.2 4-13.8 13-13.8 23.4 0 1.2 0.2 4.2 2.2 4.2 4 0 11.8 0 11.8 0l-1-4.2c0 0-0.6-3 1.8-8.6l-2.6-1zM29 8.2c5.2 0 9.2 4.2 9.2 9.2s-4.2 9.2-9.2 9.2c-5.2 0-9.2-4.2-9.2-9.2-0.2-5.2 4-9.2 9.2-9.2zM49 42.2v-10h-6v10h-10v6.2h10v10h6v-10h10v-6.2h-10zM31 44.2h-4v6h-6v4h6v6h4v-6h6v-4h-6v-6z"></path>
</svg>
