<!-- Generated by IcoMoon.io -->
<svg version="1.1" xmlns="http://www.w3.org/2000/svg" width="64" height="64" viewBox="0 0 64 64">
<title>content</title>
<path d="M56.8 14.246c-1.406 0.47-31.484 10.958-37.012 12.768-5.030 1.644-6.012 4.106-6.142 7.634-0.122 3.32-0.418 19.218-0.478 22.394-0.010 0.456-0.464 0.614-0.464 0.614s0.65-0.022 1.020-0.24c5.394-3.216 37.606-22.442 38.12-22.79 0.782-0.526 0.968-0.812 1.172-1.474 0.156-0.512 4.428-13.494 5.126-16.016 0.674-2.434 0.546-3.514-1.342-2.89zM49.042 15.112c0.304-3.012 0.536-5.422 0.578-6.216 0.136-2.504-1.106-2.656-1.862-2.512s-8.162 1.98-9.956 2.356c-1.802 0.38-2.248 1.136-2.702 1.71-0.458 0.574-0.372 0.53-1.386 2.18-0.636 1.038-1.688 2.222-3.504 2.762-1.824 0.542-18.076 5.49-19.558 5.9-1.488 0.41-5.774 1.772-5.092 7.072 0.71 5.52 4.392 26.572 4.526 27.634 0.084 0.668 0.4 1.12 0.776 1.32 0-3.524 0.064-24.444 0.064-24.822 0-3.092 2.126-4.912 4.972-6.052 2.848-1.142 32.784-11.172 33.144-11.332z"></path>
</svg>
