<!-- Generated by IcoMoon.io -->
<svg version="1.1" xmlns="http://www.w3.org/2000/svg" width="32" height="32" viewBox="0 0 32 32">
<title>content_manager</title>
<path d="M19.8 14h-2.1c0.6 0 1.3 0 2.1 0 0.7 0 1.4 0 1.9 0h-1.9c3.1 0 5.6-2.5 5.6-5.6s-2.5-5.6-5.6-5.6c-3.1 0-5.6 2.5-5.6 5.6 0.1 3.1 2.6 5.6 5.6 5.6zM22.8 14h-0.4c0.7 0 1.1 0.1 1.1 0.5 0 0.7-1.7 1.3-3.8 1.3s-3.7-0.6-3.7-1.3c0-0.4 0.4-0.5 1.1-0.5h-0.1c-1.5 0-2.9 0.5-4 1.2-1.4 1-1.7 2-1.7 2l3.7 0.8 1.4 2.1h4c0 0-3.6 6.4-4.9 7.2-0.4 0.3 0.4 0.8 1.1 0.8h6.1c3.9 0 7.1-3.2 7.1-7.1 0.1-3.8-3.1-7-7-7zM14.4 21.3l-0.9-2.2h-3.9l-0.6-1h-5.5l-0.7 1h-1.2l3.1 10.6 9.4-2 3.7-6.7-3.4 0.3zM7 21.9l-1.8 6.4-2-8.1h0.4l0.7-1h4.1l0.6 1h3.9l0.5 1.3-6.4 0.4z"></path>
</svg>
