<!-- Generated by IcoMoon.io -->
<svg version="1.1" xmlns="http://www.w3.org/2000/svg" width="32" height="32" viewBox="0 0 32 32">
<title>content</title>
<path d="M28.4 7.123c-0.703 0.235-15.742 5.479-18.506 6.384-2.515 0.822-3.006 2.053-3.071 3.817-0.061 1.66-0.209 9.609-0.239 11.197-0.005 0.228-0.232 0.307-0.232 0.307s0.325-0.011 0.51-0.12c2.697-1.608 18.803-11.221 19.060-11.395 0.391-0.263 0.484-0.406 0.586-0.737 0.078-0.256 2.214-6.747 2.563-8.008 0.337-1.217 0.273-1.757-0.671-1.445zM24.521 7.556c0.152-1.506 0.268-2.711 0.289-3.108 0.068-1.252-0.553-1.328-0.931-1.256s-4.081 0.99-4.978 1.178c-0.901 0.19-1.124 0.568-1.351 0.855-0.229 0.287-0.186 0.265-0.693 1.090-0.318 0.519-0.844 1.111-1.752 1.381-0.912 0.271-9.038 2.745-9.779 2.95-0.744 0.205-2.887 0.886-2.546 3.536 0.355 2.76 2.196 13.286 2.263 13.817 0.042 0.334 0.2 0.56 0.388 0.66 0-1.762 0.032-12.222 0.032-12.411 0-1.546 1.063-2.456 2.486-3.026s16.392-5.586 16.572-5.666z"></path>
</svg>
