<!-- Generated by IcoMoon.io -->
<svg version="1.1" xmlns="http://www.w3.org/2000/svg" width="32" height="32" viewBox="0 0 32 32">
<title>contributor</title>
<path d="M8.6 20.2c0 0-1.2 2-1.2 4.8h-2.6c0-4.4 2.5-8.1 6-9.7l1.3 2.8 2.8-2.1 2.8 2.2 1.2-2.6c0.4 0.2 0.8 0.5 1.2 0.8 0.6-0.8 1.2-1.1 1.6-1.8-0.7-0.5-1.4-1-2.1-1.3 1-1.2 1.7-2.8 1.7-4.5 0-3.8-3-6.8-6.8-6.8s-6.8 3-6.8 6.8c0 1.7 0.7 3.3 1.7 4.5-4.1 2-6.9 6.5-6.9 11.7 0 0.6 0.1 2.1 1.1 2.1 2 0 5.9 0 5.9 0l-0.5-2.1c0 0-0.3-1.5 0.9-4.3l-1.3-0.5zM14.5 4.1c2.6 0 4.6 2.1 4.6 4.6s-2.1 4.6-4.6 4.6c-2.6 0-4.6-2.1-4.6-4.6-0.1-2.6 2-4.6 4.6-4.6zM24.5 21.1v-5h-3v5h-5v3.1h5v5h3v-5h5v-3.1h-5zM15.5 22.1h-2v3h-3v2h3v3h2v-3h3v-2h-3v-3z"></path>
</svg>
