<!-- Generated by IcoMoon.io -->
<svg version="1.1" xmlns="http://www.w3.org/2000/svg" width="32" height="32" viewBox="0 0 32 32">
<title>contact_support</title>
<path d="M30 14.5c0-6.1-6.3-11-14-11s-14 4.9-14 11c0 6.1 6.3 11 14 11 1.2 2.1 6.5 3.1 6.5 3.1s-2.8-2.5-1.1-3.9c5.1-1.7 8.6-5.7 8.6-10.2zM20.5 22.9c-1.1 0.3-2.5 0.8-4.5 0.7-6.4 0-11.6-4.1-11.6-9.1s5.2-9.1 11.6-9.1c6.4 0 11.6 4.1 11.6 9.1 0 3.8-3 7-7.1 8.4zM14.1 21.2h3v-2.2h-3v2.2zM19 9.1c-0.8-0.7-2.4-1-3.6-1s-2.2 0.4-3 1.1c-1.3 1-1.3 3.8-1.3 3.8h2.9c0-1.2 0.7-2.1 1.8-2.1 1 0 1.3 1 1.3 1.2 0 0.5-0.3 1-0.9 1.6-1.3 1.2-2 2.1-2 2.6v1.7h2.9v-1c0-0.6 0.3-1.1 0.8-1.6 1-0.9 2.3-1.6 2.3-3.5 0.1-1.6-1.2-2.8-1.2-2.8z"></path>
</svg>
