<!-- Generated by IcoMoon.io -->
<svg version="1.1" xmlns="http://www.w3.org/2000/svg" width="64" height="64" viewBox="0 0 64 64">
<title>contact_support</title>
<path d="M60 29c0-12.2-12.6-22-28-22s-28 9.8-28 22c0 12.2 12.6 22 28 22 2.4 4.2 13 6.2 13 6.2s-5.6-5-2.2-7.8c10.2-3.4 17.2-11.4 17.2-20.4zM41 45.8c-2.2 0.6-5 1.6-9 1.4-12.8 0-23.2-8.2-23.2-18.2s10.4-18.2 23.2-18.2c12.8 0 23.2 8.2 23.2 18.2 0 7.6-6 14-14.2 16.8zM28.2 42.4h6v-4.4h-6v4.4zM38 18.2c-1.6-1.4-4.8-2-7.2-2s-4.4 0.8-6 2.2c-2.6 2-2.6 7.6-2.6 7.6h5.8c0-2.4 1.4-4.2 3.6-4.2 2 0 2.6 2 2.6 2.4 0 1-0.6 2-1.8 3.2-2.6 2.4-4 4.2-4 5.2v3.4h5.8v-2c0-1.2 0.6-2.2 1.6-3.2 2-1.8 4.6-3.2 4.6-7 0.2-3.2-2.4-5.6-2.4-5.6z"></path>
</svg>
