<!-- Generated by IcoMoon.io -->
<svg version="1.1" xmlns="http://www.w3.org/2000/svg" width="64" height="64" viewBox="0 0 64 64">
<title>content_manager</title>
<path d="M39.6 28h-4.2c1.2 0 2.6 0 4.2 0 1.4 0 2.8 0 3.8 0h-3.8c6.2 0 11.2-5 11.2-11.2s-5-11.2-11.2-11.2c-6.2 0-11.2 5-11.2 11.2 0.2 6.2 5.2 11.2 11.2 11.2zM45.6 28h-0.8c1.4 0 2.2 0.2 2.2 1 0 1.4-3.4 2.6-7.6 2.6s-7.4-1.2-7.4-2.6c0-0.8 0.8-1 2.2-1h-0.2c-3 0-5.8 1-8 2.4-2.8 2-3.4 4-3.4 4l7.4 1.6 2.8 4.2h8c0 0-7.2 12.8-9.8 14.4-0.8 0.6 0.8 1.6 2.2 1.6h12.2c7.8 0 14.2-6.4 14.2-14.2 0.2-7.6-6.2-14-14-14zM28.8 42.6l-1.8-4.4h-7.8l-1.2-2h-11l-1.4 2h-2.4l6.2 21.2 18.8-4 7.4-13.4-6.8 0.6zM14 43.8l-3.6 12.8-4-16.2h0.8l1.4-2h8.2l1.2 2h7.8l1 2.6-12.8 0.8z"></path>
</svg>
