<!-- Generated by IcoMoon.io -->
<svg version="1.1" xmlns="http://www.w3.org/2000/svg" width="64" height="64" viewBox="0 0 64 64">
<title>copy_event</title>
<path d="M57.8 32c0.2 0.4 0.4 0.6 0.4 1v25.4c0 1.6-1.4 3-3 3h-24.8c-0.4 0-0.8 0-1-0.2 0.4 1.2 1.6 2.2 2.8 2.2h23.8c2.6 0 4.2-2.2 4.2-4.6v-24c0-1.2-1.2-2.4-2.4-2.8zM52.2 23.4h2v-6.6c0-1.8-1-3.4-2.6-4 0.2 0.4 0.4 1 0.4 1.6v9zM56.2 56.4v-24c0-1.6-1.4-3-3-3h-3v-4h-2v4h-14v-4h-2v4h-3c-1.6 0-3 1.4-3 3v24c0 1.6 1.4 3 3 3h24c1.6 0 3-1.4 3-3zM48.2 31.6v0.8c0 1.4 1 1.2 1 1.2 0.6 0 1-0.6 1-1.2v-0.8c0.6 0.4 1 1 1 1.6 0 1-0.8 2-2 2s-2-0.8-2-2c0.2-0.6 0.6-1.2 1-1.6zM32.2 31.6v0.8c0 1.4 1 1.2 1 1.2 0.6 0 1-0.6 1-1.2v-0.8c0.6 0.4 1 1 1 1.6 0 1-0.8 2-2 2s-2-0.8-2-2c0.2-0.6 0.6-1.2 1-1.6zM29.4 57.4c-0.6 0-1.2-0.6-1.2-1.2v-16.8h26v16.8c0 0.6-0.6 1.2-1.2 1.2h-23.6zM10.4 55c0.6 1.6 2.2 2.4 4 2.4h9.8v-2h-12.2c-0.6 0-1.2-0.2-1.6-0.4zM24.2 53.4v-2h-14.2c-1 0-1.8-0.8-1.8-1.8v-26.2h42v-9.8c0-2.4-2-4.2-4.2-4.2h-3.8v-4.8c0-1-1-1.8-2-1.8s-2 0.8-2 1.8v4.8h-20v-4.8c0-1-1-1.8-2-1.8s-2 0.8-2 1.8v4.8h-3.8c-2.4 0-4.2 2-4.2 4.2v35.6c0 2.4 2 4.2 4.2 4.2h13.8zM38.2 12v1.4c0 1.8 2 1.8 2 1.8 1 0 2-0.8 2-1.8v-1.2c0.4 0.4 0.6 1.2 0.6 1.8 0 1.6-1.2 2.8-2.8 2.8s-2.8-1.2-2.8-2.8c0.2-0.8 0.6-1.6 1-2zM14.2 12v1.4c0 1.8 2 1.8 2 1.8 1 0 2-0.8 2-1.8v-1.2c0.4 0.4 0.6 1 0.6 1.8 0 1.6-1.2 2.8-2.8 2.8-1.4-0.2-2.6-1.4-2.6-2.8 0-0.8 0.4-1.6 0.8-2z"></path>
</svg>
