<!-- Generated by IcoMoon.io -->
<svg version="1.1" xmlns="http://www.w3.org/2000/svg" width="64" height="64" viewBox="0 0 64 64">
<title>copy_vignette</title>
<path d="M3.694 21.048c-1.706 1.46 0.792 5.232 3.35 8.216 2.556 2.984 3.836 4.472 3.836 4.472l4.686-4.018c0 0-1.46-1.706-3.836-4.474s-6.332-5.66-8.036-4.196z"></path>
<path d="M12.118 35.796l4.444 4.422 0.938-7.656-0.694-0.782z"></path>
<path d="M9.766 49.178l2.93-3.666 2.296-0.906-4.95-5.090v3.568l-3.974 4.912 0.002-12.236-4.024-4.872 0.010 22.166 13.662-0.898-0.032-3.52z"></path>
<path d="M20.15 29.954c0 0-2.214-2.582-3.958-4.612-2.010-2.344-3.622-2.068-3.622-2.068l6.632 7.734 0.948-1.054z"></path>
<path d="M9.982 15.278v4.118h4.032l0.004-5.832c0 0 8.754-2.96 13.546 0.472 2.992 2.142 2.446 7.514 2.446 7.514l0.022 4.294 3.958-0.008v-4.288c0 0-0.69-5.372 2.302-7.514 4.792-3.434 13.722-0.472 13.722-0.472l-0.018 11.876h4.026v-10.162l4 4.554v6.086l3.99 3.24 0.006-11.574-7.928-7.396c0 0-1.5-1.578-11.164-1.578-9.662 0-11.102 4.832-11.102 4.832s-0.76-4.832-11.064-4.832c-9.664 0-10.228 1.578-10.228 1.578l-8.554 7.398 5.472 0.6 2.532-2.906z"></path>
<path d="M23.93 59.236l2.246-2.812 1.762-0.694-3.796-3.904v2.736l-3.048 3.768 0.002-9.382-3.086-3.74 0.008 17 14.536-0.954-2.178-2.608z"></path>
<path d="M57.92 29.336c0 0-1.148-1.21-8.56-1.21-7.408 0-8.512 3.706-8.512 3.706s-0.584-3.706-8.486-3.706c-7.41 0-7.842 1.21-7.842 1.21l-6.562 5.674 4.196 0.458 1.942-2.228v3.158h3.092l0.004-4.472c0 0 6.712-2.27 10.386 0.362 2.292 1.642 1.876 5.762 1.876 5.762v15.216c0 0 2.016 2.816 3.334 4.64 0.32-0.756 0.984-1.676 2.342-2.438 3.81-2.132 11.116 0.954 11.116 0.954l2.312 2.812-13.612-1.134-1.444 0.75c0 0 0.382 1.506 0.488 2.3 2.858-0.18 19.998 1.056 19.998 1.056l0.012-27.198-6.080-5.672zM54.782 53.166c0 0-8.732-3.32-12.276 1.308v-16.426c0 0-0.528-4.12 1.766-5.762 3.674-2.634 10.524-0.364 10.524-0.364l-0.014 21.244zM57.87 54.562v-21.322l3.066 3.49 0.004 21.6-3.070-3.768z"></path>
<path d="M32.734 56.168c0 0 8.018 8.854 9.326 7.734 1.31-1.12-6.222-10.394-6.222-10.394l-3.104 2.66z"></path>
<path d="M28.858 40.958c-1.542-1.796-2.778-1.584-2.778-1.584l7.426 8.656c0 0 0.678-0.864-1.002-2.826-1.684-1.96-2.104-2.45-3.646-4.246z"></path>
<path d="M25.732 48.974l6.514 6.62 3.102-2.658-6.020-7.040z"></path>
<path d="M19.274 37.666c-1.308 1.12 0.608 4.012 2.568 6.298 1.96 2.29 2.94 3.43 2.94 3.43l3.596-3.080c0 0-1.122-1.308-2.942-3.432-1.82-2.122-4.854-4.34-6.162-3.216z"></path>
</svg>
