<!-- Generated by IcoMoon.io -->
<svg version="1.1" xmlns="http://www.w3.org/2000/svg" width="32" height="32" viewBox="0 0 32 32">
<title>copy2</title>
<path d="M5.511 23.497v-14.025c0-0.637 0.388-0.997 0.998-0.997 0.246 0 2.956 0 2.956 0v-1.998h-3.747c-1.226 0-2.219 0.994-2.219 2.22v15.606c0 1.226 0.993 2.22 2.219 2.22h3.784v-2.056c0 0-3.002 0-3.104 0-0.333 0-0.887-0.305-0.887-0.97zM27.454 9.847c-0.855-0.855-4.010-3.643-4.664-4.296-0.652-0.652-1.682-1.029-2.323-1.029h-6.748c-1.226 0-2.219 0.995-2.219 2.22v6.764l2.012 0.005c0 0 0-4.697 0-6.024 0-0.637 0.388-0.997 0.998-0.997s5.981 0 5.981 0-0.002 2.678-0.002 3.741 1.063 2.248 2.363 2.248c1.299 0 3.607 0.004 3.607 0.004s0 11.732 0 12.148c0 0.415-0.471 0.886-1.025 0.886h-11.035c-0.333 0-0.887-0.305-0.887-0.971 0-1.715 0-4.068 0-4.068l-2.012-0.007v4.787c0 1.226 0.994 2.22 2.219 2.22l12.563 0.001c1.226 0 2.219-0.993 2.219-2.218v-13.104c0-0.584-0.051-1.315-1.047-2.31zM7.493 18.518h10.184l-3.021 3.994h2.902l4.229-5.592-4.229-5.403h-2.902l3.119 3.985h-10.282v3.016z"></path>
</svg>
