<!-- Generated by IcoMoon.io -->
<svg version="1.1" xmlns="http://www.w3.org/2000/svg" width="32" height="32" viewBox="0 0 32 32">
<title>copy</title>
<path d="M25.452 12.020c-0.783-0.785-4.078-4.079-4.677-4.678s-1.542-0.944-2.132-0.944h-7.438c-1.124 0-2.034 0.911-2.034 2.035v18.592c0 1.124 0.91 2.034 2.034 2.034h13.173c1.122 0 2.034-0.91 2.034-2.034v-12.888c0-0.534-0.046-1.204-0.96-2.117zM24.26 26.073c0 0.381-0.432 0.813-0.94 0.813s-10.878 0-11.184 0c-0.305 0-0.813-0.279-0.813-0.889 0-6.322 0-13.457 0-16.479 0-0.584 0.355-0.915 0.914-0.915 0.56 0 6.646 0 6.646 0s0.040 2.422 0.040 3.397c0 0.974 0.975 1.922 2.167 1.922s3.169 0.046 3.169 0.046 0.001 11.723 0.001 12.105z"></path>
<path d="M15.061 2.94h-7.439c-1.124 0-2.034 0.911-2.034 2.035v18.592c0 1.124 1.037 2.010 2.161 2.010 0 0-0.009-16.495-0.009-19.518 0-0.584 0.355-0.915 0.914-0.915 0.56 0 8.758 0 8.758 0s-0.406-2.204-2.351-2.204z"></path>
</svg>
