<!-- Generated by IcoMoon.io -->
<svg version="1.1" xmlns="http://www.w3.org/2000/svg" width="64" height="64" viewBox="0 0 64 64">
<title>copy2</title>
<path d="M11.022 46.994v-28.050c0-1.274 0.776-1.994 1.996-1.994 0.492 0 5.912 0 5.912 0v-3.996h-7.494c-2.452 0-4.438 1.988-4.438 4.44v31.212c0 2.452 1.986 4.44 4.438 4.44h7.568v-4.112c0 0-6.004 0-6.208 0-0.666 0-1.774-0.61-1.774-1.94zM54.908 19.694c-1.71-1.71-8.020-7.286-9.328-8.592-1.304-1.304-3.364-2.058-4.646-2.058h-13.496c-2.452 0-4.438 1.99-4.438 4.44v13.528l4.024 0.010c0 0 0-9.394 0-12.048 0-1.274 0.776-1.994 1.996-1.994 1.218 0 11.962 0 11.962 0s-0.004 5.356-0.004 7.482 2.126 4.496 4.726 4.496c2.598 0 7.214 0.008 7.214 0.008s0 23.464 0 24.296c0 0.83-0.942 1.772-2.050 1.772h-22.070c-0.666 0-1.774-0.61-1.774-1.942 0-3.43 0-8.136 0-8.136l-4.024-0.014v9.574c0 2.452 1.988 4.44 4.438 4.44l25.126 0.002c2.452 0 4.438-1.986 4.438-4.436v-26.208c0-1.168-0.102-2.63-2.094-4.62zM14.986 37.036h20.368l-6.042 7.988h5.804l8.458-11.184-8.458-10.806h-5.804l6.238 7.97h-20.564v6.032z"></path>
</svg>
