<!-- Generated by IcoMoon.io -->
<svg version="1.1" xmlns="http://www.w3.org/2000/svg" width="64" height="64" viewBox="0 0 64 64">
<title>copy</title>
<path d="M50.904 24.040c-1.566-1.57-8.156-8.158-9.354-9.356s-3.084-1.888-4.264-1.888h-14.876c-2.248 0-4.068 1.822-4.068 4.070v37.184c0 2.248 1.82 4.068 4.068 4.068h26.346c2.244 0 4.068-1.82 4.068-4.068v-25.776c0-1.068-0.092-2.408-1.92-4.234zM48.52 52.146c0 0.762-0.864 1.626-1.88 1.626s-21.756 0-22.368 0c-0.61 0-1.626-0.558-1.626-1.778 0-12.644 0-26.914 0-32.958 0-1.168 0.71-1.83 1.828-1.83 1.12 0 13.292 0 13.292 0s0.080 4.844 0.080 6.794c0 1.948 1.95 3.844 4.334 3.844 2.382 0 6.338 0.092 6.338 0.092s0.002 23.446 0.002 24.21z"></path>
<path d="M30.122 5.88h-14.878c-2.248 0-4.068 1.822-4.068 4.070v37.184c0 2.248 2.074 4.020 4.322 4.020 0 0-0.018-32.99-0.018-39.036 0-1.168 0.71-1.83 1.828-1.83 1.12 0 17.516 0 17.516 0s-0.812-4.408-4.702-4.408z"></path>
</svg>
