<!-- Generated by IcoMoon.io -->
<svg version="1.1" xmlns="http://www.w3.org/2000/svg" width="32" height="32" viewBox="0 0 32 32">
<title>copy_vignette</title>
<path d="M1.847 10.524c-0.853 0.73 0.396 2.616 1.675 4.108s1.918 2.236 1.918 2.236l2.343-2.009c0 0-0.73-0.853-1.918-2.237s-3.166-2.83-4.018-2.098z"></path>
<path d="M6.059 17.898l2.222 2.211 0.469-3.828-0.347-0.391z"></path>
<path d="M4.883 24.589l1.465-1.833 1.148-0.453-2.475-2.545v1.784l-1.987 2.456 0.001-6.118-2.012-2.436 0.005 11.083 6.831-0.449-0.016-1.76z"></path>
<path d="M10.075 14.977c0 0-1.107-1.291-1.979-2.306-1.005-1.172-1.811-1.034-1.811-1.034l3.316 3.867 0.474-0.527z"></path>
<path d="M4.991 7.639v2.059h2.016l0.002-2.916c0 0 4.377-1.48 6.773 0.236 1.496 1.071 1.223 3.757 1.223 3.757l0.011 2.147 1.979-0.004v-2.144c0 0-0.345-2.686 1.151-3.757 2.396-1.717 6.861-0.236 6.861-0.236l-0.009 5.938h2.013v-5.081l2 2.277v3.043l1.995 1.62 0.003-5.787-3.964-3.698c0 0-0.75-0.789-5.582-0.789-4.831 0-5.551 2.416-5.551 2.416s-0.38-2.416-5.532-2.416c-4.832 0-5.114 0.789-5.114 0.789l-4.277 3.699 2.736 0.3 1.266-1.453z"></path>
<path d="M11.965 29.618l1.123-1.406 0.881-0.347-1.898-1.952v1.368l-1.524 1.884 0.001-4.691-1.543-1.87 0.004 8.5 7.268-0.477-1.089-1.304z"></path>
<path d="M28.96 14.668c0 0-0.574-0.605-4.28-0.605-3.704 0-4.256 1.853-4.256 1.853s-0.292-1.853-4.243-1.853c-3.705 0-3.921 0.605-3.921 0.605l-3.281 2.837 2.098 0.229 0.971-1.114v1.579h1.546l0.002-2.236c0 0 3.356-1.135 5.193 0.181 1.146 0.821 0.938 2.881 0.938 2.881v7.608c0 0 1.008 1.408 1.667 2.32 0.16-0.378 0.492-0.838 1.171-1.219 1.905-1.066 5.558 0.477 5.558 0.477l1.156 1.406-6.806-0.567-0.722 0.375c0 0 0.191 0.753 0.244 1.15 1.429-0.090 9.999 0.528 9.999 0.528l0.006-13.599-3.040-2.836zM27.391 26.583c0 0-4.366-1.66-6.138 0.654v-8.213c0 0-0.264-2.060 0.883-2.881 1.837-1.317 5.262-0.182 5.262-0.182l-0.007 10.622zM28.935 27.281v-10.661l1.533 1.745 0.002 10.8-1.535-1.884z"></path>
<path d="M16.367 28.084c0 0 4.009 4.427 4.663 3.867 0.655-0.56-3.111-5.197-3.111-5.197l-1.552 1.33z"></path>
<path d="M14.429 20.479c-0.771-0.898-1.389-0.792-1.389-0.792l3.713 4.328c0 0 0.339-0.432-0.501-1.413-0.842-0.98-1.052-1.225-1.823-2.123z"></path>
<path d="M12.866 24.487l3.257 3.31 1.551-1.329-3.010-3.52z"></path>
<path d="M9.637 18.833c-0.654 0.56 0.304 2.006 1.284 3.149 0.98 1.145 1.47 1.715 1.47 1.715l1.798-1.54c0 0-0.561-0.654-1.471-1.716-0.91-1.061-2.427-2.17-3.081-1.608z"></path>
</svg>
