<!-- Generated by IcoMoon.io -->
<svg version="1.1" xmlns="http://www.w3.org/2000/svg" width="32" height="32" viewBox="0 0 32 32">
<title>coupons</title>
<path d="M27.413 15.557c0.052-0.585-0.242-1.020-0.333-1.292-0.163-0.491-2.222-5.020-2.222-5.022-0.3-0.573-0.724-1.006-1.247-1.152-6.29-1.735-11.855-3.403-19.976-5.841-0.852-0.257-1.145 0.187-1.189 0.336-0.241 0.821-0.314 1.152-0.327 2.196-0.029 2.306 3.358 12.68 5.989 13.367 4.414 1.188 8.673 2.031 13.267 2.758 0.537 0.084 1.097-0.257 1.576-0.708 0.001 0.002 1.706-1.517 3.391-2.956 0.32-0.273 0.552-0.53 0.717-0.772 0.766 0.856 2.146 2.651 1.927 4.29-0.239 1.781-3.112 2.449-5.7 3.385-3.123 1.129-6.139 2.406-6.204 5.401l1.086 0.282c0.060-2.695 3.181-3.823 6.2-4.916 2.681-0.969 5.213-1.884 5.484-3.909 0.299-2.233-1.767-4.709-2.439-5.447zM9.27 17.685c-3.948-1.407-7.218-11.46-6.613-15.348 0.659 3.757 5.634 8.517 7.125 9.428-0.523 0.577-2.245 3.622-0.512 5.92zM24.704 15.268c-0.202 1.16-1.351 1.956-2.56 1.771-1.211-0.186-2.021-1.289-1.822-2.453 0.198-1.165 1.338-1.946 2.551-1.758 1.212 0.19 2.033 1.276 1.831 2.44z"></path>
</svg>
