<!-- Generated by IcoMoon.io -->
<svg version="1.1" xmlns="http://www.w3.org/2000/svg" width="64" height="64" viewBox="0 0 64 64">
<title>coupons</title>
<path d="M54.826 31.114c0.104-1.17-0.484-2.040-0.666-2.584-0.326-0.982-4.444-10.040-4.444-10.044-0.6-1.146-1.448-2.012-2.494-2.304-12.58-3.47-23.71-6.806-39.952-11.682-1.704-0.514-2.29 0.374-2.378 0.672-0.482 1.642-0.628 2.304-0.654 4.392-0.058 4.612 6.716 25.36 11.978 26.734 8.828 2.376 17.346 4.062 26.534 5.516 1.074 0.168 2.194-0.514 3.152-1.416 0.002 0.004 3.412-3.034 6.782-5.912 0.64-0.546 1.104-1.060 1.434-1.544 1.532 1.712 4.292 5.302 3.854 8.58-0.478 3.562-6.224 4.898-11.4 6.77-6.246 2.258-12.278 4.812-12.408 10.802l2.172 0.564c0.12-5.39 6.362-7.646 12.4-9.832 5.362-1.938 10.426-3.768 10.968-7.818 0.598-4.466-3.534-9.418-4.878-10.894zM18.54 35.37c-7.896-2.814-14.436-22.92-13.226-30.696 1.318 7.514 11.268 17.034 14.25 18.856-1.046 1.154-4.49 7.244-1.024 11.84zM49.408 30.536c-0.404 2.32-2.702 3.912-5.12 3.542-2.422-0.372-4.042-2.578-3.644-4.906 0.396-2.33 2.676-3.892 5.102-3.516 2.424 0.38 4.066 2.552 3.662 4.88z"></path>
</svg>
