<!-- Generated by IcoMoon.io -->
<svg version="1.1" xmlns="http://www.w3.org/2000/svg" width="32" height="32" viewBox="0 0 32 32">
<title>course_update_file_description</title>
<path d="M17.8 20.1c-0.8 0.3-1.4 1.4-1.8 2.5-0.4-1.1-1-2.2-1.8-2.5-2.7-1-7.3 2-8.8 3.2l-1.5-1.2 2.2-10.1h-1l-4.1 13h18.3v-5c-0.5-0.1-1.1 0-1.5 0.1z"></path>
<path d="M23.7 11.1c-4.1-3.9-5.1-4.2-6-4-0.5 0.1-0.7 0.4-0.7 0.6v11.3c0.4-0.3 0.8-0.7 1.2-0.9 0.4-0.1 0.8-0.2 1.2-0.3 0-0.2 0-0.5 0-1.1s0.5-1 0.9-1c0.4 0 4.4 0 4.4 0s-1-4.3-1-4.6z"></path>
<path d="M28.2 15.7l-1-3.4h-1.3l0.8 3.4z"></path>
<path d="M13.7 18.1c0.5 0.2 0.8 0.5 1.2 0.9v-11.3c-0.1-0.1-0.3-0.4-0.8-0.6-0.8-0.2-1.8 0.1-5.8 4-0.1 0.5-1.3 6-2 9.1 2.2-1.4 4.7-3.1 7.4-2.1z"></path>
<path d="M30.8 17.5h-8.9c-0.4 0-0.8 0.3-0.8 0.8v11.7c0 0.4 0.3 0.8 0.8 0.8h6.7l3-2.9v-9.5c-0.1-0.6-0.4-0.9-0.8-0.9zM30.4 28h-2.2v1.6h-6.1v-11.1h8.3v9.5z"></path>
<path d="M23.3 26.3h6v1.1h-6v-1.1z"></path>
<path d="M23.3 24.1h6v1.1h-6v-1.1z"></path>
<path d="M23.3 21.9h6v1.1h-6v-1.1z"></path>
<path d="M23.3 19.7h6v1.1h-6v-1.1z"></path>
</svg>
