<!-- Generated by IcoMoon.io -->
<svg version="1.1" xmlns="http://www.w3.org/2000/svg" width="64" height="64" viewBox="0 0 64 64">
<title>course_update_file_title</title>
<path d="M48.4 38.4h2.6c-1.4-6.2-3.4-15.4-3.6-16.2-8.2-7.8-10.2-8.4-12-8-1 0.2-1.4 0.8-1.4 1.2v22.6c0.8-0.6 1.6-1.4 2.4-1.8 4.2-1.6 8.2 0.2 12 2.2z"></path>
<path d="M28.4 14.2c-1.6-0.4-3.6 0.2-11.6 8-0.2 1-2.6 12-4 18.2 4.4-2.8 9.2-6.2 14.6-4.2 1 0.4 1.6 1 2.4 1.8v-22.6c-0.2-0.4-0.4-1-1.4-1.2z"></path>
<path d="M10.8 46.6l-3-2.4 4.4-20.2h-2l-8.2 26h27.8v-8.6c-0.4-0.4-0.8-0.8-1.4-1-5.4-2.2-14.6 3.8-17.6 6.2z"></path>
<path d="M58.6 38.4l-4.2-13.8h-2.6l3 13.8z"></path>
<path d="M62.2 41.6h-26.4c-1 0-1.8 0.8-1.8 1.8v11.4c0 1 0.8 1.8 1.8 1.8h26.4c1 0 1.8-0.8 1.8-1.8v-11.4c0-0.8-0.8-1.8-1.8-1.8zM62.2 53h-26.4v-7.6h26.4v7.6z"></path>
<path d="M37.6 47.4h17v3.8h-17v-3.8z"></path>
</svg>
