<!-- Generated by IcoMoon.io -->
<svg version="1.1" xmlns="http://www.w3.org/2000/svg" width="64" height="64" viewBox="0 0 64 64">
<title>course_update_file_description</title>
<path d="M35.6 40.2c-1.6 0.6-2.8 2.8-3.6 5-0.8-2.2-2-4.4-3.6-5-5.4-2-14.6 4-17.6 6.4l-3-2.4 4.4-20.2h-2l-8.2 26h36.6v-10c-1-0.2-2.2 0-3 0.2z"></path>
<path d="M47.4 22.2c-8.2-7.8-10.2-8.4-12-8-1 0.2-1.4 0.8-1.4 1.2v22.6c0.8-0.6 1.6-1.4 2.4-1.8 0.8-0.2 1.6-0.4 2.4-0.6 0-0.4 0-1 0-2.2s1-2 1.8-2c0.8 0 8.8 0 8.8 0s-2-8.6-2-9.2z"></path>
<path d="M56.4 31.4l-2-6.8h-2.6l1.6 6.8z"></path>
<path d="M27.4 36.2c1 0.4 1.6 1 2.4 1.8v-22.6c-0.2-0.2-0.6-0.8-1.6-1.2-1.6-0.4-3.6 0.2-11.6 8-0.2 1-2.6 12-4 18.2 4.4-2.8 9.4-6.2 14.8-4.2z"></path>
<path d="M61.6 35h-17.8c-0.8 0-1.6 0.6-1.6 1.6v23.4c0 0.8 0.6 1.6 1.6 1.6h13.4l6-5.8v-19c-0.2-1.2-0.8-1.8-1.6-1.8zM60.8 56h-4.4v3.2h-12.2v-22.2h16.6v19z"></path>
<path d="M46.6 52.6h12v2.2h-12v-2.2z"></path>
<path d="M46.6 48.2h12v2.2h-12v-2.2z"></path>
<path d="M46.6 43.8h12v2.2h-12v-2.2z"></path>
<path d="M46.6 39.4h12v2.2h-12v-2.2z"></path>
</svg>
