<!-- Generated by IcoMoon.io -->
<svg version="1.1" xmlns="http://www.w3.org/2000/svg" width="32" height="32" viewBox="0 0 32 32">
<title>course</title>
<path d="M13.676 18.057c0.485 0.179 0.85 0.543 1.241 0.869v-11.259c-0.074-0.146-0.258-0.438-0.76-0.567-0.843-0.219-1.75 0.057-5.84 3.978-0.115 0.532-1.315 6.024-1.977 9.058 2.199-1.358 4.62-3.076 7.336-2.079zM25.66 20.135c-0.662-3.034-1.863-8.526-1.979-9.058-4.088-3.92-5.127-4.197-5.969-3.978-0.502 0.129-0.686 0.421-0.76 0.567v11.259c0.391-0.326 0.756-0.69 1.24-0.869 2.718-0.996 5.269 0.722 7.468 2.079zM27.168 12.263l-1.264-0.009 2.162 9.898-1.469 1.158c-1.543-1.219-6.133-4.169-8.818-3.184-0.814 0.3-1.398 1.388-1.779 2.502-0.382-1.114-0.965-2.202-1.78-2.502-2.684-0.985-7.275 1.965-8.817 3.184l-1.47-1.158 2.197-10.063-0.98-0.006-4.135 12.872h29.969l-3.816-12.692z"></path>
</svg>
