<!-- Generated by IcoMoon.io -->
<svg version="1.1" xmlns="http://www.w3.org/2000/svg" width="32" height="32" viewBox="0 0 32 32">
<title>course_price</title>
<path d="M12.282 13.716c0 0-0.454 1.943-0.991 3.58 0.595-0.021 1.205 0.065 1.83 0.295 0.486 0.179 0.85 0.543 1.241 0.869 0-3.775 0-10.811 0-11.26-0.075-0.145-0.257-0.438-0.761-0.567-0.842-0.219-1.749 0.056-5.839 3.977-0.042 0.195 0.138 0.774 0.208 1.636 1.991 0.094 4.312 1.47 4.312 1.47zM25.104 19.668c-0.662-3.033-1.861-8.526-1.977-9.059-4.090-3.921-5.128-4.196-5.969-3.977-0.504 0.129-0.686 0.422-0.761 0.567 0 0.449 0 7.485 0 11.26 0.392-0.326 0.756-0.69 1.241-0.869 2.717-0.997 5.268 0.723 7.466 2.078zM11.514 24.488h18.916l-3.817-12.691-1.263-0.010 2.162 9.899-1.47 1.158c-1.542-1.22-6.134-4.17-8.817-3.184-0.815 0.301-1.398 1.388-1.779 2.502-0.382-1.114-0.965-2.201-1.78-2.502-0.479-0.176-1.99-0.227-2.562-0.185 2.943 2.604 0.41 5.013 0.41 5.013zM9.485 19.446c-0.516-0.344-1.383-0.75-2.601-1.218v-2.766c1.024 0.088 2.024 0.332 2.999 0.731l0.881-2.193c-1.156-0.512-2.449-0.8-3.88-0.862v-1.396h-1.283v1.434c-1.269 0.125-2.258 0.479-2.967 1.063s-1.063 1.33-1.063 2.235c0 0.843 0.258 1.551 0.773 2.124 0.515 0.571 1.392 1.101 2.629 1.588l0.628 0.243v2.906c-0.6-0.037-1.283-0.159-2.048-0.365-0.766-0.207-1.42-0.443-1.964-0.713v2.475c1.149 0.506 2.487 0.775 4.012 0.807v1.883h1.284v-1.921c1.293-0.118 2.299-0.479 3.018-1.083s1.078-1.4 1.078-2.395c0-0.549-0.121-1.031-0.361-1.443s-0.619-0.79-1.135-1.134zM5.601 17.703c-0.425-0.188-0.733-0.37-0.923-0.549s-0.286-0.404-0.286-0.679c0-0.531 0.403-0.856 1.209-0.975v2.203zM6.885 23.27v-2.333c0.425 0.194 0.743 0.382 0.956 0.563s0.319 0.403 0.319 0.665c-0.001 0.593-0.426 0.962-1.275 1.105z"></path>
</svg>
