<!-- Generated by IcoMoon.io -->
<svg version="1.1" xmlns="http://www.w3.org/2000/svg" width="32" height="32" viewBox="0 0 32 32">
<title>course_delete</title>
<path d="M21.2 9.6c-3.8-3.6-4.7-3.9-5.5-3.7-0.3 0.1-0.5 0.3-0.7 0.5v10.4c0.3-0.3 0.7-0.6 1.1-0.8 0.9-0.3 2-0.4 2.9-0.1 1.4-2.5 3-2.7 3-2.7s-0.7-3.4-0.8-3.6zM12.5 5.9c-0.8-0.2-1.7 0.1-5.4 3.7-0.1 0.5-1.2 5.5-1.8 8.3 2-1.2 4.3-2.8 6.8-1.9 0.4 0.2 0.8 0.5 1.1 0.8v-10.4c-0.2-0.2-0.4-0.4-0.7-0.5zM18.1 22.4h-17.8l3.8-11.9h0.9l-2 9.3 1.4 1.1c1.4-1.1 5.6-3.8 8.1-2.9 0.8 0.3 1.4 1.5 1.7 2.6h-0.2c0.3-1.1 0.9-2.3 1.7-2.6 0.7-0.2 1.5-0.2 2.3 0-0.5 2.7 0.1 4.4 0.1 4.4v0zM25.1 12.8l-0.6-2.1h-1.2l0.5 2.1h1.3z"></path>
<path d="M25.6 14.3c-3.3 0-6 2.6-6 6 0 3.3 2.6 6 6 6 3.3 0 6-2.6 6-6s-2.7-6-6-6zM29 22.9h-1.4l-1.8-2-1.8 2h-1.3l2.6-2.6-2.6-2.6h1.3l1.8 1.9 1.8-1.9h1.4l-2.6 2.6 2.6 2.6z"></path>
</svg>
