<!-- Generated by IcoMoon.io -->
<svg version="1.1" xmlns="http://www.w3.org/2000/svg" width="64" height="64" viewBox="0 0 64 64">
<title>course_price</title>
<path d="M24.564 27.432c0 0-0.908 3.886-1.982 7.16 1.19-0.042 2.41 0.13 3.66 0.59 0.972 0.358 1.7 1.086 2.482 1.738 0-7.55 0-21.622 0-22.52-0.15-0.29-0.514-0.876-1.522-1.134-1.684-0.438-3.498 0.112-11.678 7.954-0.084 0.39 0.276 1.548 0.416 3.272 3.982 0.188 8.624 2.94 8.624 2.94zM50.208 39.336c-1.324-6.066-3.722-17.052-3.954-18.118-8.18-7.842-10.256-8.392-11.938-7.954-1.008 0.258-1.372 0.844-1.522 1.134 0 0.898 0 14.97 0 22.52 0.784-0.652 1.512-1.38 2.482-1.738 5.434-1.994 10.536 1.446 14.932 4.156zM23.028 48.976h37.832l-7.634-25.382-2.526-0.020 4.324 19.798-2.94 2.316c-3.084-2.44-12.268-8.34-17.634-6.368-1.63 0.602-2.796 2.776-3.558 5.004-0.764-2.228-1.93-4.402-3.56-5.004-0.958-0.352-3.98-0.454-5.124-0.37 5.886 5.208 0.82 10.026 0.82 10.026zM18.97 38.892c-1.032-0.688-2.766-1.5-5.202-2.436v-5.532c2.048 0.176 4.048 0.664 5.998 1.462l1.762-4.386c-2.312-1.024-4.898-1.6-7.76-1.724v-2.792h-2.566v2.868c-2.538 0.25-4.516 0.958-5.934 2.126s-2.126 2.66-2.126 4.47c0 1.686 0.516 3.102 1.546 4.248 1.030 1.142 2.784 2.202 5.258 3.176l1.256 0.486v5.812c-1.2-0.074-2.566-0.318-4.096-0.73-1.532-0.414-2.84-0.886-3.928-1.426v4.95c2.298 1.012 4.974 1.55 8.024 1.614v3.766h2.568v-3.842c2.586-0.236 4.598-0.958 6.036-2.166 1.438-1.206 2.156-2.8 2.156-4.79 0-1.098-0.242-2.062-0.722-2.886s-1.238-1.58-2.27-2.268zM11.202 35.406c-0.85-0.376-1.466-0.74-1.846-1.098-0.382-0.356-0.572-0.808-0.572-1.358 0-1.062 0.806-1.712 2.418-1.95v4.406zM13.77 46.54v-4.666c0.85 0.388 1.486 0.764 1.912 1.126s0.638 0.806 0.638 1.33c-0.002 1.186-0.852 1.924-2.55 2.21z"></path>
</svg>
