<!-- Generated by IcoMoon.io -->
<svg version="1.1" xmlns="http://www.w3.org/2000/svg" width="32" height="32" viewBox="0 0 32 32">
<title>course_bundle</title>
<path d="M8.726 24.385c5.206 0 7.168 2.691 7.168 2.691s1.749-2.689 6.827-2.689c5.076 0 7.295 2.689 7.295 2.689s0-11.174 0-14.383c0-1.563-3.348-3.623-6.783-3.659-3.621-0.038-7.339 1.834-7.339 3.461 0-1.562-3.496-3.454-6.998-3.438-3.517 0.017-7.040 1.949-7.040 3.438 0 2.972 0 14.501 0 14.501s1.665-2.611 6.87-2.611zM17.898 13.525c0-1.902 3.414-2.493 5.121-2.493 1.705 0 4.99 0.552 4.99 2.453s0 9.981 0 9.981-0.811-1.383-5.162-1.383-4.949 1.225-4.949 1.225 0-7.881 0-9.783zM3.819 13.525c0-1.902 3.413-2.493 5.12-2.493s4.992 0.552 4.992 2.453c0 1.902 0 9.981 0 9.981s-0.811-1.383-5.163-1.383-4.949 1.225-4.949 1.225 0-7.881 0-9.783zM30.059 28.484c0 0-1.621-1.877-6.912-1.877s-7.21 2.004-7.21 2.004-1.92-1.877-7.467-1.877c-5.546 0-6.912 1.834-6.912 1.834l-1.066 1.623h31.018l-1.451-1.707zM8.814 7.214c1.727 1.080 5.904 1.884 7.142 3.275 1.066-1.445 3.744-1.704 7.013-3.275 0.699-0.388 1.436-1.579 1.436-2.632 0-1.054-0.979-2.717-2.871-2.717-3.391 0-4.841 5.365-5.609 5.151s-2.414-5.206-5.479-5.206c-1.696 0-3 1.386-3 2.772s0.897 2.244 1.368 2.632zM21.475 3.362c0.979 0 1.174 1.054 1.174 1.331 0 1.275-2.414 2.521-3.719 2.521-0.51 0-2.494 1.017-2.494 1.017s2.843-4.869 5.039-4.869zM10.379 3.362c2.247 0 4.953 4.762 4.953 4.762s-1.899-0.91-2.409-0.91c-1.305 0-3.718-1.246-3.718-2.521 0-0.277 0.196-1.331 1.174-1.331z"></path>
</svg>
