<!-- Generated by IcoMoon.io -->
<svg version="1.1" xmlns="http://www.w3.org/2000/svg" width="32" height="32" viewBox="0 0 32 32">
<title>course_completion_rate</title>
<path d="M12.735 18.693c0.525 0.168 0.919 0.516 1.342 0.826v-10.68c-0.081-0.14-0.278-0.418-0.822-0.54-0.91-0.206-2.512 0.055-6.933 3.773-0.125 0.504-1.421 5.714-2.138 8.591 2.377-1.284 5.614-2.917 8.551-1.97zM20.717 18.838c-1.042-1.182-5.285-6.518-5.285-6.518s2.393-2.113 3.801-3.281c-2.58-1.592-4.326-0.2-4.326-0.2v10.681c-0.001 0 2.736-1.918 5.81-0.682zM24.826 20.641l0.648 3.035c-1.668-1.157-5.764-3.957-8.666-3.020-0.96 0.312-1.625 1.021-2.032 2.17h-0.199c-0.407-1.148-0.914-1.858-1.874-2.17-2.902-0.938-8.968 1.643-10.635 2.799l2.438-10.424-1.059-0.006-3.433 12.211h28.33l-2.685-6.643-0.833 2.048zM31.7 6.764c-7.128 3.154-8.886 7.979-8.886 7.979l-2.406-4.57-3.428 2.691 5.752 6.855h0.693c4.325-10.893 8.561-12.547 8.561-12.547l-0.286-0.408z"></path>
</svg>
