<!-- Generated by IcoMoon.io -->
<svg version="1.1" xmlns="http://www.w3.org/2000/svg" width="64" height="64" viewBox="0 0 64 64">
<title>course_completion_rate</title>
<path d="M25.47 37.386c1.050 0.336 1.838 1.032 2.684 1.652v-21.36c-0.162-0.28-0.556-0.836-1.644-1.080-1.82-0.412-5.024 0.11-13.866 7.546-0.25 1.008-2.842 11.428-4.276 17.182 4.754-2.568 11.228-5.834 17.102-3.94zM41.434 37.676c-2.084-2.364-10.57-13.036-10.57-13.036s4.786-4.226 7.602-6.562c-5.16-3.184-8.652-0.4-8.652-0.4v21.362c-0.002 0 5.472-3.836 11.62-1.364zM49.652 41.282l1.296 6.070c-3.336-2.314-11.528-7.914-17.332-6.040-1.92 0.624-3.25 2.042-4.064 4.34h-0.398c-0.814-2.296-1.828-3.716-3.748-4.34-5.804-1.876-17.936 3.286-21.27 5.598l4.876-20.848-2.118-0.012-6.866 24.422h56.66l-5.37-13.286-1.666 4.096zM63.4 13.528c-14.256 6.308-17.772 15.958-17.772 15.958l-4.812-9.14-6.856 5.382 11.504 13.71h1.386c8.65-21.786 17.122-25.094 17.122-25.094l-0.572-0.816z"></path>
</svg>
