<!-- Generated by IcoMoon.io -->
<svg version="1.1" xmlns="http://www.w3.org/2000/svg" width="32" height="32" viewBox="0 0 32 32">
<title>course_update_file_title</title>
<path d="M24.2 19.2h1.3c-0.7-3.1-1.7-7.7-1.8-8.1-4.1-3.9-5.1-4.2-6-4-0.5 0.1-0.7 0.4-0.7 0.6v11.3c0.4-0.3 0.8-0.7 1.2-0.9 2.1-0.8 4.1 0.1 6 1.1z"></path>
<path d="M14.2 7.1c-0.8-0.2-1.8 0.1-5.8 4-0.1 0.5-1.3 6-2 9.1 2.2-1.4 4.6-3.1 7.3-2.1 0.5 0.2 0.8 0.5 1.2 0.9v-11.3c-0.1-0.2-0.2-0.5-0.7-0.6z"></path>
<path d="M5.4 23.3l-1.5-1.2 2.2-10.1h-1l-4.1 13h13.9v-4.3c-0.2-0.2-0.4-0.4-0.7-0.5-2.7-1.1-7.3 1.9-8.8 3.1z"></path>
<path d="M29.3 19.2l-2.1-6.9h-1.3l1.5 6.9z"></path>
<path d="M31.1 20.8h-13.2c-0.5 0-0.9 0.4-0.9 0.9v5.7c0 0.5 0.4 0.9 0.9 0.9h13.2c0.5 0 0.9-0.4 0.9-0.9v-5.7c0-0.4-0.4-0.9-0.9-0.9zM31.1 26.5h-13.2v-3.8h13.2v3.8z"></path>
<path d="M18.8 23.7h8.5v1.9h-8.5v-1.9z"></path>
</svg>
