<!-- Generated by IcoMoon.io -->
<svg version="1.1" xmlns="http://www.w3.org/2000/svg" width="64" height="64" viewBox="0 0 64 64">
<title>course_bundle</title>
<path d="M17.452 48.77c10.412 0 14.336 5.382 14.336 5.382s3.498-5.378 13.654-5.378c10.152 0 14.59 5.378 14.59 5.378s0-22.348 0-28.766c0-3.126-6.696-7.246-13.566-7.318-7.242-0.076-14.678 3.668-14.678 6.922 0-3.124-6.992-6.908-13.996-6.876-7.034 0.034-14.080 3.898-14.080 6.876 0 5.944 0 29.002 0 29.002s3.33-5.222 13.74-5.222zM35.796 27.050c0-3.804 6.828-4.986 10.242-4.986 3.41 0 9.98 1.104 9.98 4.906 0 3.804 0 19.962 0 19.962s-1.622-2.766-10.324-2.766-9.898 2.45-9.898 2.45 0-15.762 0-19.566zM7.638 27.050c0-3.804 6.826-4.986 10.24-4.986s9.984 1.104 9.984 4.906c0 3.804 0 19.962 0 19.962s-1.622-2.766-10.326-2.766-9.898 2.45-9.898 2.45 0-15.762 0-19.566zM60.118 56.968c0 0-3.242-3.754-13.824-3.754s-14.42 4.008-14.42 4.008-3.84-3.754-14.934-3.754c-11.092 0-13.824 3.668-13.824 3.668l-2.132 3.246h62.036l-2.902-3.414zM17.628 14.428c3.454 2.16 11.808 3.768 14.284 6.55 2.132-2.89 7.488-3.408 14.026-6.55 1.398-0.776 2.872-3.158 2.872-5.264 0-2.108-1.958-5.434-5.742-5.434-6.782 0-9.682 10.73-11.218 10.302s-4.828-10.412-10.958-10.412c-3.392 0-6 2.772-6 5.544s1.794 4.488 2.736 5.264zM42.95 6.724c1.958 0 2.348 2.108 2.348 2.662 0 2.55-4.828 5.042-7.438 5.042-1.020 0-4.988 2.034-4.988 2.034s5.686-9.738 10.078-9.738zM20.758 6.724c4.494 0 9.906 9.524 9.906 9.524s-3.798-1.82-4.818-1.82c-2.61 0-7.436-2.492-7.436-5.042 0-0.554 0.392-2.662 2.348-2.662z"></path>
</svg>
