<!-- Generated by IcoMoon.io -->
<svg version="1.1" xmlns="http://www.w3.org/2000/svg" width="64" height="64" viewBox="0 0 64 64">
<title>course</title>
<path d="M27.352 36.114c0.97 0.358 1.7 1.086 2.482 1.738v-22.518c-0.148-0.292-0.516-0.876-1.52-1.134-1.686-0.438-3.5 0.114-11.68 7.956-0.23 1.064-2.63 12.048-3.954 18.116 4.398-2.716 9.24-6.152 14.672-4.158zM51.32 40.27c-1.324-6.068-3.726-17.052-3.958-18.116-8.176-7.84-10.254-8.394-11.938-7.956-1.004 0.258-1.372 0.842-1.52 1.134v22.518c0.782-0.652 1.512-1.38 2.48-1.738 5.436-1.992 10.538 1.444 14.936 4.158zM54.336 24.526l-2.528-0.018 4.324 19.796-2.938 2.316c-3.086-2.438-12.266-8.338-17.636-6.368-1.628 0.6-2.796 2.776-3.558 5.004-0.764-2.228-1.93-4.404-3.56-5.004-5.368-1.97-14.55 3.93-17.634 6.368l-2.94-2.316 4.394-20.126-1.96-0.012-8.27 25.744h59.938l-7.632-25.384z"></path>
</svg>
