<!-- Generated by IcoMoon.io -->
<svg version="1.1" xmlns="http://www.w3.org/2000/svg" width="64" height="64" viewBox="0 0 64 64">
<title>course_video</title>
<path d="M48.565 29.397v0c-5.438 0-9.845 4.408-9.845 9.845v0c0 5.438 4.408 9.845 9.845 9.845s9.845-4.408 9.845-9.845c0-5.438-4.408-9.845-9.845-9.845zM48.565 31.572c0.001 0 0.002 0 0.002 0 4.238 0 7.673 3.435 7.673 7.673s-3.435 7.673-7.673 7.673c-4.238 0-7.673-3.435-7.673-7.673 0-0.001 0-0.002 0-0.002v0c0-0 0-0.001 0-0.001 0-4.236 3.434-7.669 7.669-7.669 0 0 0.001 0 0.001 0h-0zM45.587 33.641v10.866l7.569-5.433-7.569-5.433zM40.813 21.168c0.087 0.404 1.169 5.365 1.169 5.365s-2.425 1.059-4.735 5.351l0.056 0.015c-0.74-0.227-1.525-0.349-2.339-0.349-0.961 0-1.882 0.17-2.679 0.464l-0.041 0.018c-0.704 0.337-1.342 0.79-1.888 1.334v-17.497l0.004-0.009c0.236-0.443 0.662-0.769 1.179-0.871 1.304-0.342 2.921 0.091 9.273 6.179zM26.016 14.989l0.011 0.002c0.505 0.102 0.929 0.428 1.168 0.879v17.497c-0.545-0.545-1.181-0.998-1.925-1.352-4.22-1.55-7.983 1.121-11.395 3.229 1.025-4.716 2.887-13.248 3.070-14.075 6.352-6.087 7.762-6.52 9.071-6.179zM35.684 42.731c0 0-0.876-2.82-0.197-7.584l0.049 0.011c-0.583-0.157-1.196-0.24-1.828-0.24-0.737 0-1.448 0.114-2.066 0.31-1.381 0.51-2.334 2.473-2.921 4.35h0.313c-0.582-1.877-1.54-3.84-2.921-4.35-4.167-1.53-11.299 3.051-13.695 4.947l-2.286-1.8 3.412-15.634-1.521-0.010-6.424 19.999h30.085zM45.043 26.553l-0.78-3.551 1.963 0.010 1.063 3.537z"></path>
</svg>
