<!-- Generated by IcoMoon.io -->
<svg version="1.1" xmlns="http://www.w3.org/2000/svg" width="64" height="64" viewBox="0 0 64 64">
<title>course_delete</title>
<path d="M42.4 19.2c-7.6-7.2-9.4-7.8-11-7.4-0.6 0.2-1 0.6-1.4 1v20.8c0.6-0.6 1.4-1.2 2.2-1.6 1.8-0.6 4-0.8 5.8-0.2 2.8-5 6-5.4 6-5.4s-1.4-6.8-1.6-7.2zM25 11.8c-1.6-0.4-3.4 0.2-10.8 7.4-0.2 1-2.4 11-3.6 16.6 4-2.4 8.6-5.6 13.6-3.8 0.8 0.4 1.6 1 2.2 1.6v-20.8c-0.4-0.4-0.8-0.8-1.4-1zM36.2 44.8h-35.6l7.6-23.8h1.8l-4 18.6 2.8 2.2c2.8-2.2 11.2-7.6 16.2-5.8 1.6 0.6 2.8 3 3.4 5.2h-0.4c0.6-2.2 1.8-4.6 3.4-5.2 1.4-0.4 3-0.4 4.6 0-1 5.4 0.2 8.8 0.2 8.8v0zM50.2 25.6l-1.2-4.2h-2.4l1 4.2h2.6z"></path>
<path d="M51.2 28.6c-6.6 0-12 5.2-12 12 0 6.6 5.2 12 12 12 6.6 0 12-5.2 12-12s-5.4-12-12-12zM58 45.8h-2.8l-3.6-4-3.6 4h-2.6l5.2-5.2-5.2-5.2h2.6l3.6 3.8 3.6-3.8h2.8l-5.2 5.2 5.2 5.2z"></path>
</svg>
