<!-- Generated by IcoMoon.io -->
<svg version="1.1" xmlns="http://www.w3.org/2000/svg" width="64" height="64" viewBox="0 0 64 64">
<title>create_new_exam</title>
<path d="M32.016 50.458c-0.476-3.116-8.286-12.734-8.286-12.734l-4.046 3.468c0 0 6.1 6.736 9.742 9.266h-8.998v-4.198l-4.012-4.998v10.396c0 1.564 1.27 2.836 2.836 2.836h15.458l-2.398-4.038h-0.296v0.002zM20.428 10.398h29.99v21.898l4.012 0.78v-23.756c0-1.566-1.27-2.834-2.836-2.834h-32.342c-1.566 0-2.836 1.268-2.836 2.834v7.8l4.012 6.908v-13.63zM46.404 14.422h-21.944v4.026h21.944v-4.026zM46.404 22.422h-21.944v4.026h21.944v-4.026zM46.404 30.422h-21.944v4.028h18.83l3.116-2.156v-1.872zM31.046 42.45h12.358v-4.028h-14.944l2.586 4.028zM23.090 36.976l-7.85-9.18-4.686 4.020 8.49 8.632 4.046-3.472zM10.166 21.262c-2.376-2.77-6.334-5.66-8.038-4.198s0.792 5.234 3.35 8.218c2.558 2.982 3.836 4.472 3.836 4.472l4.686-4.016c0.002-0.002-1.458-1.708-3.834-4.476zM19.378 26.896c-2.192-2.554-2.74-3.194-4.75-5.538s-3.622-2.066-3.622-2.066l9.682 11.29c0-0.002 0.882-1.128-1.31-3.686zM52.42 45.41v-9.968h-5.96v9.968h-10.012v6.104h10.012v10h5.958v-10h10.010v-6.104h-10.008z"></path>
</svg>
