<!-- Generated by IcoMoon.io -->
<svg version="1.1" xmlns="http://www.w3.org/2000/svg" width="32" height="32" viewBox="0 0 32 32">
<title>create_new_vignette</title>
<path d="M4.39 22.331l1.465-1.834 1.148-0.454-2.475-2.544v1.784l-1.987 2.456 0.001-6.118-2.012-2.436 0.005 11.085 9.479-0.624-1.422-1.7-4.202 0.385zM21.496 19.448c0-0.678-0.045-0.992-0.045-1.773-1.73-0.179-3.775-0.033-4.949 1.499v-10.659c0 0-0.344-2.687 1.152-3.758 2.395-1.715 6.861-0.236 6.861-0.236l-0.008 10.948h2.010v-10.090l1.988 1.098v14l2.006 0.018 0.006-13.962-3.965-3.698c0 0-0.75-0.789-5.582-0.789s-5.551 2.416-5.551 2.416-0.38-2.416-5.532-2.416c-4.832 0-5.114 0.789-5.114 0.789l-3.39 2.93 2.062 0.823 1.053-1.208v2.17l2.016-0.051 0.002-2.979c0 0 4.377-1.479 6.773 0.236 1.496 1.071 1.223 3.758 1.223 3.758v10.711c0 0 1.488 1.47 2.167 2.458 0.207-0.496 0.637-1.307 1.535-1.809 0.903-0.506 2.112-0.561 3.282-0.426zM5.566 15.64l4.245 4.316 2.023-1.735-3.925-4.59-2.343 2.009zM10.13 20.329c0 0 5.229 5.774 6.081 5.044 0.853-0.731-4.058-6.778-4.058-6.778l-2.023 1.734zM4.947 14.608l2.343-2.008c0 0-0.73-0.854-1.918-2.237-1.188-1.385-3.166-2.83-4.018-2.1-0.853 0.731 0.396 2.617 1.675 4.109s1.918 2.236 1.918 2.236zM7.603 10.412c-1.005-1.172-1.811-1.035-1.811-1.035l4.842 5.645c0 0 0.441-0.563-0.655-1.841s-1.371-1.597-2.376-2.769zM26.498 22.438v-4.984h-2.978v4.984h-5.006v3.052h5.006v5h2.979v-5h5.006v-3.052h-5.007z"></path>
</svg>
