<!-- Generated by IcoMoon.io -->
<svg version="1.1" xmlns="http://www.w3.org/2000/svg" width="32" height="32" viewBox="0 0 32 32">
<title>create_new_exam</title>
<path d="M16.008 25.229c-0.238-1.558-4.143-6.367-4.143-6.367l-2.023 1.734c0 0 3.050 3.368 4.871 4.633h-4.499v-2.099l-2.006-2.499v5.198c0 0.782 0.635 1.418 1.418 1.418h7.729l-1.199-2.019h-0.148v0.001zM10.214 5.199h14.995v10.949l2.006 0.39v-11.878c0-0.783-0.635-1.417-1.418-1.417h-16.171c-0.783 0-1.418 0.634-1.418 1.417v3.9l2.006 3.454v-6.815zM23.202 7.211h-10.972v2.013h10.972v-2.013zM23.202 11.211h-10.972v2.013h10.972v-2.013zM23.202 15.211h-10.972v2.014h9.415l1.558-1.078v-0.936zM15.523 21.225h6.179v-2.014h-7.472l1.293 2.014zM11.545 18.488l-3.925-4.59-2.343 2.010 4.245 4.316 2.023-1.736zM5.083 10.631c-1.188-1.385-3.167-2.83-4.019-2.099s0.396 2.617 1.675 4.109c1.279 1.491 1.918 2.236 1.918 2.236l2.343-2.008c0.001-0.001-0.729-0.854-1.917-2.238zM9.689 13.448c-1.096-1.277-1.37-1.597-2.375-2.769s-1.811-1.033-1.811-1.033l4.841 5.645c0-0.001 0.441-0.564-0.655-1.843zM26.21 22.705v-4.984h-2.98v4.984h-5.006v3.052h5.006v5h2.979v-5h5.005v-3.052h-5.004z"></path>
</svg>
