<!-- Generated by IcoMoon.io -->
<svg version="1.1" xmlns="http://www.w3.org/2000/svg" width="64" height="64" viewBox="0 0 64 64">
<title>create_event</title>
<path d="M52.2 33.4h2v-14.8c0-1.8-1-3.4-2.6-4 0.2 0.4 0.4 1 0.4 1.6v17.2zM34.2 55.4v-2h-24.2c-1 0-1.8-0.8-1.8-1.8v-26.2h40v8h2v-17.8c0-2.4-2-4.2-4.2-4.2h-3.8v-4.8c0-1-1-1.8-2-1.8s-2 0.8-2 1.8v4.8h-20v-4.8c0-1-1-1.8-2-1.8s-2 0.8-2 1.8v4.8h-3.8c-2.4 0-4.2 2-4.2 4.2v35.6c0 2.4 2 4.2 4.2 4.2h23.8zM38.2 14v1.4c0 1.8 2 1.8 2 1.8 1 0 2-0.8 2-1.8v-1.4c0.4 0.4 0.6 1.2 0.6 1.8 0 1.6-1.2 2.8-2.8 2.8s-2.8-1.2-2.8-2.8c0.2-0.6 0.6-1.4 1-1.8zM14.2 14v1.4c0 1.8 2 1.8 2 1.8 1 0 2-0.8 2-1.8v-1.4c0.4 0.4 0.6 1.2 0.6 1.8 0 1.6-1.2 2.8-2.8 2.8s-2.8-1.2-2.8-2.8c0.2-0.6 0.6-1.4 1-1.8zM10.4 57c0.6 1.6 2.2 2.4 4 2.4h29.8v-2h-32.4c-0.4-0.2-1-0.2-1.4-0.4zM54.2 47.2v-10h-6v10h-10v6.2h10v10h6v-10h10v-6.2h-10z"></path>
</svg>
