<!-- Generated by IcoMoon.io -->
<svg version="1.1" xmlns="http://www.w3.org/2000/svg" width="64" height="64" viewBox="0 0 64 64">
<title>create_new_vignette</title>
<path d="M8.78 44.662l2.93-3.668 2.296-0.908-4.95-5.088v3.568l-3.974 4.912 0.002-12.236-4.024-4.872 0.010 22.17 18.958-1.248-2.844-3.4-8.404 0.77zM42.992 38.896c0-1.356-0.090-1.984-0.090-3.546-3.46-0.358-7.55-0.066-9.898 2.998v-21.318c0 0-0.688-5.374 2.304-7.516 4.79-3.43 13.722-0.472 13.722-0.472l-0.016 21.896h4.020v-20.18l3.976 2.196v28l4.012 0.036 0.012-27.924-7.93-7.396c0 0-1.5-1.578-11.164-1.578s-11.102 4.832-11.102 4.832-0.76-4.832-11.064-4.832c-9.664 0-10.228 1.578-10.228 1.578l-6.78 5.86 4.124 1.646 2.106-2.416v4.34l4.032-0.102 0.004-5.958c0 0 8.754-2.958 13.546 0.472 2.992 2.142 2.446 7.516 2.446 7.516v21.422c0 0 2.976 2.94 4.334 4.916 0.414-0.992 1.274-2.614 3.070-3.618 1.806-1.012 4.224-1.122 6.564-0.852zM11.132 31.28l8.49 8.632 4.046-3.47-7.85-9.18-4.686 4.018zM20.26 40.658c0 0 10.458 11.548 12.162 10.088 1.706-1.462-8.116-13.556-8.116-13.556l-4.046 3.468zM9.894 29.216l4.686-4.016c0 0-1.46-1.708-3.836-4.474-2.376-2.77-6.332-5.66-8.036-4.2-1.706 1.462 0.792 5.234 3.35 8.218 2.556 2.984 3.836 4.472 3.836 4.472zM15.206 20.824c-2.010-2.344-3.622-2.070-3.622-2.070l9.684 11.29c0 0 0.882-1.126-1.31-3.682-2.194-2.556-2.742-3.194-4.752-5.538zM52.996 44.876v-9.968h-5.956v9.968h-10.012v6.104h10.012v10h5.958v-10h10.012v-6.104h-10.014z"></path>
</svg>
