<!-- Generated by IcoMoon.io -->
<svg version="1.1" xmlns="http://www.w3.org/2000/svg" width="64" height="64" viewBox="0 0 64 64">
<title>credits</title>
<path d="M59.42 34.4l-1.2-0.58c0 0-20.66 11.62-23.28 12.8s-6.3 1.36-9.3-0.080c-3-1.44-19.84-9.52-19.84-9.52l-1.8 0.52c-2.36 0.68-2.58 2.060-0.38 3.080l22.16 10.24c2.78 1.28 6.82 1.42 8.84 0.32l26.92-14.58c0.96-0.52-0.020-1.5-2.12-2.2zM59.42 26.4l-1.2-0.58c0 0-20.66 11.62-23.28 12.8s-6.3 1.36-9.3-0.080c-3-1.44-19.84-9.52-19.84-9.52l-1.8 0.52c-2.36 0.68-2.58 2.060-0.38 3.080l22.16 10.24c2.78 1.28 6.82 1.42 8.84 0.32l26.92-14.58c0.96-0.52-0.020-1.5-2.12-2.2zM3.62 24.78l22.16 10.24c2.78 1.28 6.82 1.42 8.84 0.32l26.92-14.58c0.94-0.52-0.020-1.5-2.12-2.2l-17.28-5.84c-1.8-0.6-4.18-0.82-5.38-0.46l-32.76 9.44c-2.36 0.68-2.58 2.060-0.38 3.080z"></path>
</svg>
