<!-- Generated by IcoMoon.io -->
<svg version="1.1" xmlns="http://www.w3.org/2000/svg" width="64" height="64" viewBox="0 0 64 64">
<title>curriculum</title>
<path d="M61.96 21.264c0.074-2.538-0.928-6.51-6.010-7.926-4.79-1.336-22.034-5.408-22.034-5.408l-25.652 4.9-0.074 1.668 2.3 0.468c0.592 2.872-0.736 6.58-0.736 6.58l-2.148 0.574v1.578l5.968 2.504c0 0-1.034 0-5.57 0.862s-5.968 3.794-5.968 5.728 0.478 5.23 3.74 8.45c3.944 3.896 21.328 14.828 21.328 14.828l33.662-13.394 0.158-2.148c-1.63-0.602-2.15-1.93-2.298-4.002-0.148-2.068 0.594-4.67 0.594-4.67l1.78-0.604v-1.936l-2.076-0.664c2.146-1.736 2.962-4.852 3.036-7.388zM6.668 38.74c-1.62-1.334-2.116-3.826-2.116-5.664 0-1.836 1.694-4.252 4.088-2.86s16.896 10.076 16.896 10.076-0.704 3.234-0.704 6.024c0 2.786 0.752 5.27 0.752 5.27s-17.296-11.516-18.916-12.846zM10.044 22.11c0 0 1.928-3.806 1.186-6.942l17.308 5.472 3.112-0.144c0 0 3.34 1.774 0.522 12.256l-22.128-10.642zM28.088 52.442c0 0-0.542-0.96-0.542-4.954s0.632-5.958 0.632-5.958l28.424-9.036c0 0-0.774 2.722-0.562 4.69 0.21 1.962 1.57 3.63 1.57 3.63l-29.522 11.628zM56.754 27.326c-2.486 0.384-22.016 5.686-22.016 5.686s2.414-5.842 0.14-12.484c0 0 19.082-3.698 20.856-3.89 1.776-0.194 4.71 1.030 4.496 4.992-0.21 3.964-0.992 5.312-3.476 5.696z"></path>
</svg>
