<!-- Generated by IcoMoon.io -->
<svg version="1.1" xmlns="http://www.w3.org/2000/svg" width="32" height="32" viewBox="0 0 32 32">
<title>curriculum</title>
<path d="M30.98 10.632c0.037-1.269-0.464-3.255-3.005-3.963-2.395-0.668-11.017-2.704-11.017-2.704l-12.826 2.45-0.037 0.834 1.15 0.234c0.296 1.436-0.368 3.29-0.368 3.29l-1.074 0.287v0.789l2.984 1.252c0 0-0.517 0-2.785 0.431s-2.984 1.897-2.984 2.864 0.239 2.615 1.87 4.225c1.972 1.948 10.664 7.414 10.664 7.414l16.831-6.697 0.079-1.074c-0.815-0.301-1.075-0.965-1.149-2.001-0.074-1.034 0.297-2.335 0.297-2.335l0.89-0.302v-0.968l-1.038-0.332c1.073-0.868 1.481-2.426 1.518-3.694zM3.334 19.37c-0.81-0.667-1.058-1.913-1.058-2.832 0-0.918 0.847-2.126 2.044-1.43s8.448 5.038 8.448 5.038-0.352 1.617-0.352 3.012c0 1.393 0.376 2.635 0.376 2.635s-8.648-5.758-9.458-6.423zM5.022 11.055c0 0 0.964-1.903 0.593-3.471l8.654 2.736 1.556-0.072c0 0 1.67 0.887 0.261 6.128l-11.064-5.321zM14.044 26.221c0 0-0.271-0.48-0.271-2.477s0.316-2.979 0.316-2.979l14.212-4.518c0 0-0.387 1.361-0.281 2.345 0.105 0.981 0.785 1.815 0.785 1.815l-14.761 5.814zM28.377 13.663c-1.243 0.192-11.008 2.843-11.008 2.843s1.207-2.921 0.070-6.242c0 0 9.541-1.849 10.428-1.945 0.888-0.097 2.355 0.515 2.248 2.496-0.105 1.982-0.496 2.656-1.738 2.848z"></path>
</svg>
