<!-- Generated by IcoMoon.io -->
<svg version="1.1" xmlns="http://www.w3.org/2000/svg" width="64" height="64" viewBox="0 0 64 64">
<title>dashboard</title>
<path d="M34.218 9.946v22.134l11.644 18.818c6.292-3.902 10.488-10.868 10.488-18.818 0.002-12.226-9.908-22.134-22.132-22.134zM10.968 20.056c-2.102 3.384-3.318 7.376-3.318 11.652 0 1.554 0.162 3.072 0.468 4.538l21.664-4.538-18.814-11.652zM40.93 57.41c1.872-0.56 4.046-0.866 5.672-1.874l-10.996-17.82 5.324 19.694zM32.112 18.036v-2.38l-10.308 6.68 1.878 1.164 8.43-5.464zM32.112 10.888l-14.070 9.114 1.88 1.164 12.19-7.896v-2.382zM14.8 14.954l11.832-7.666c-4.744 1.212-8.872 3.948-11.832 7.666zM32.112 8.506v-1.916c-0.272 0-0.532 0.040-0.8 0.050l-17.034 11.032 1.882 1.166 15.952-10.332zM32.112 22.802v-2.382l-6.55 4.244 1.882 1.162 4.668-3.024zM32.112 27.568v-2.382l-2.79 1.806 1.882 1.166 0.908-0.59zM15.986 48.534l6.306 5.17c1.8 0.99 3.754 1.724 5.814 2.184l-15.416-12.636c0.852 1.918 1.96 3.696 3.296 5.282zM20.678 36.866l15.394 12.618-0.648-3.114-12.236-10.034-2.51 0.53zM28.214 35.286l-2.514 0.528 9.074 7.44-0.646-3.118-5.914-4.85zM11.252 38.838c0.058 0.274 0.138 0.542 0.206 0.812l20.412 16.736c0.35 0.018 0.694 0.044 1.046 0.044 1.014 0 1.616 0.028 2.166 0l-21.942-17.988-1.888 0.396zM18.164 37.392l-2.512 0.524 21.714 17.804-0.648-3.118-18.554-15.21zM33.48 37.016l-0.564-2.714-2.188 0.458 2.752 2.256z"></path>
</svg>
