<!-- Generated by IcoMoon.io -->
<svg version="1.1" xmlns="http://www.w3.org/2000/svg" width="32" height="32" viewBox="0 0 32 32">
<title>dashboard</title>
<path d="M17.109 4.973v11.067l5.822 9.409c3.146-1.951 5.244-5.434 5.244-9.409 0.001-6.113-4.954-11.067-11.066-11.067zM5.484 10.028c-1.051 1.692-1.659 3.688-1.659 5.826 0 0.777 0.081 1.536 0.234 2.269l10.832-2.269-9.407-5.826zM20.465 28.705c0.936-0.28 2.023-0.433 2.836-0.937l-5.498-8.91 2.662 9.847zM16.056 9.018v-1.19l-5.154 3.34 0.939 0.582 4.215-2.732zM16.056 5.444l-7.035 4.557 0.94 0.582 6.095-3.948v-1.191zM7.4 7.477l5.916-3.833c-2.372 0.606-4.436 1.974-5.916 3.833zM16.056 4.253v-0.958c-0.136 0-0.266 0.020-0.4 0.025l-8.517 5.516 0.941 0.583 7.976-5.166zM16.056 11.401v-1.191l-3.275 2.122 0.941 0.581 2.334-1.512zM16.056 13.784v-1.191l-1.395 0.903 0.941 0.583 0.454-0.295zM7.993 24.267l3.153 2.585c0.9 0.495 1.877 0.862 2.907 1.092l-7.708-6.318c0.426 0.959 0.98 1.848 1.648 2.641zM10.339 18.433l7.697 6.309-0.324-1.557-6.118-5.017-1.255 0.265zM14.107 17.643l-1.257 0.264 4.537 3.72-0.323-1.559-2.957-2.425zM5.626 19.419c0.029 0.137 0.069 0.271 0.103 0.406l10.206 8.368c0.175 0.009 0.347 0.022 0.523 0.022 0.507 0 0.808 0.014 1.083 0l-10.971-8.994-0.944 0.198zM9.082 18.696l-1.256 0.262 10.857 8.902-0.324-1.559-9.277-7.605zM16.74 18.508l-0.282-1.357-1.094 0.229 1.376 1.128z"></path>
</svg>
