<!-- Generated by IcoMoon.io -->
<svg version="1.1" xmlns="http://www.w3.org/2000/svg" width="32" height="32" viewBox="0 0 32 32">
<title>date</title>
<path d="M11.012 1h-4v4.001h4v-4.001zM26 7.002h-20c-2.209 0-4 1.789-4 3.998v16c0 2.21 1.791 4 4 4h20c2.209 0 4-1.79 4-4v-16c0-2.209-1.791-3.998-4-3.998zM22.908 9.549c1.168 0 2.116 0.949 2.116 2.117 0 1.171-0.948 2.116-2.116 2.116-1.17 0-2.117-0.945-2.117-2.116 0-1.168 0.947-2.117 2.117-2.117zM8.908 9.549c1.169 0 2.117 0.949 2.117 2.117 0 1.171-0.948 2.116-2.117 2.116s-2.117-0.945-2.117-2.116c0-1.168 0.948-2.117 2.117-2.117zM28 27c0 1.105-0.896 2.002-2 2.002h-20c-1.104 0-2-0.896-2-2.002v-9.999c0-1.105 0.896-2.001 2-2.001h20c1.104 0 2 0.896 2 2.001v9.999zM25.013 1h-4.001v4.001h4.001v-4.001z"></path>
</svg>
