<!-- Generated by IcoMoon.io -->
<svg version="1.1" xmlns="http://www.w3.org/2000/svg" width="64" height="64" viewBox="0 0 64 64">
<title>date</title>
<path d="M22.024 2h-8v8.002h8v-8.002zM52 14.004h-40c-4.418 0-8 3.578-8 7.996v32c0 4.42 3.582 8 8 8h40c4.418 0 8-3.58 8-8v-32c0-4.418-3.582-7.996-8-7.996zM45.816 19.098c2.336 0 4.232 1.898 4.232 4.234 0 2.342-1.896 4.232-4.232 4.232-2.34 0-4.234-1.89-4.234-4.232 0-2.336 1.894-4.234 4.234-4.234zM17.816 19.098c2.338 0 4.234 1.898 4.234 4.234 0 2.342-1.896 4.232-4.234 4.232s-4.234-1.89-4.234-4.232c0-2.336 1.896-4.234 4.234-4.234zM56 54c0 2.21-1.792 4.004-4 4.004h-40c-2.208 0-4-1.792-4-4.004v-19.998c0-2.21 1.792-4.002 4-4.002h40c2.208 0 4 1.792 4 4.002v19.998zM50.026 2h-8.002v8.002h8.002v-8.002z"></path>
</svg>
