<!-- Generated by IcoMoon.io -->
<svg version="1.1" xmlns="http://www.w3.org/2000/svg" width="32" height="32" viewBox="0 0 32 32">
<title>decline_button</title>
<path d="M25.824 10.231c-0.467 0.362-1.375 1.061-2.031 1.564 0.676 1.25 1.061 2.682 1.061 4.205 0 4.889-3.965 8.854-8.855 8.854-4.889 0-8.854-3.965-8.854-8.854 0-4.891 3.964-8.854 8.854-8.854 1.39 0 2.707 0.32 3.876 0.893 0.639-0.668 0.963-1.316 1.652-2.003-1.636-0.91-3.521-1.427-5.527-1.427-6.292 0-11.391 5.099-11.391 11.391s5.1 11.391 11.392 11.391c6.291 0 11.39-5.1 11.39-11.391 0-2.106-0.571-4.077-1.567-5.769zM13.695 11.351h-3.063l3.677 4.378-4.029 4.701h3.159l2.636-3.091 2.935 3.091h3.232l-3.652-4.854 7.666-9.007h-2.928l-7.221 7.679-2.412-2.897z"></path>
</svg>
