<!-- Generated by IcoMoon.io -->
<svg version="1.1" xmlns="http://www.w3.org/2000/svg" width="64" height="64" viewBox="0 0 64 64">
<title>decline_button</title>
<path d="M51.648 20.462c-0.934 0.724-2.75 2.122-4.062 3.128 1.352 2.5 2.122 5.364 2.122 8.41 0 9.778-7.93 17.708-17.71 17.708-9.778 0-17.708-7.93-17.708-17.708 0-9.782 7.928-17.708 17.708-17.708 2.78 0 5.414 0.64 7.752 1.786 1.278-1.336 1.926-2.632 3.304-4.006-3.272-1.82-7.042-2.854-11.054-2.854-12.584 0-22.782 10.198-22.782 22.782 0 12.582 10.2 22.782 22.784 22.782 12.582 0 22.78-10.2 22.78-22.782 0-4.212-1.142-8.154-3.134-11.538zM27.39 22.702h-6.126l7.354 8.756-8.058 9.402h6.318l5.272-6.182 5.87 6.182h6.464l-7.304-9.708 15.332-18.014h-5.856l-14.442 15.358-4.824-5.794z"></path>
</svg>
