<!-- Generated by IcoMoon.io -->
<svg version="1.1" xmlns="http://www.w3.org/2000/svg" width="32" height="32" viewBox="0 0 32 32">
<title>delete_image</title>
<path d="M10.8 15.1c0 2.4 1.5 4.4 3.6 5.1 0.5-3.6 3-6.8 6.3-8.2-1-1.4-2.6-2.3-4.5-2.3-3 0-5.4 2.4-5.4 5.4zM23.6 13.8c-3.7 0-6.8 3-6.8 6.8 0 3.7 3 6.8 6.8 6.8 3.7 0 6.8-3 6.8-6.8-0.1-3.7-3.1-6.8-6.8-6.8zM25.5 23.5l-2.1-2.3-2.1 2.3h-1.6l2.9-3-2.9-2.9h1.5l2.1 2.2 2.1-2.2h1.6l-2.9 3 2.9 2.9h-1.5zM8.7 15.1c0-4.1 3.3-7.5 7.5-7.5 2.9 0 5.3 1.6 6.6 4 3.2 0 5.9 1.6 5.9 1.6v-4.2c0-1.3-1.1-2.4-2.4-2.4h-17.6v-2h-4v2h-0.7c-1.3 0-2.3 1.1-2.3 2.4v12.3c0 1.3 1.1 2.4 2.4 2.4h11.5c0 0-0.4-0.8-0.9-1.2-3.4-0.8-6-3.8-6-7.4z"></path>
</svg>
