<!-- Generated by IcoMoon.io -->
<svg version="1.1" xmlns="http://www.w3.org/2000/svg" width="64" height="64" viewBox="0 0 64 64">
<title>delete_content</title>
<path d="M49 15.2c0.4-3 0.6-5.4 0.6-6.2 0.2-2.6-1.2-2.6-1.8-2.6-0.8 0.2-8.2 2-10 2.4s-2.2 1.2-2.8 1.8c-0.4 0.6-0.4 0.6-1.4 2.2-0.6 1-1.6 2.2-3.6 2.8-1.8 0.6-18 5.4-19.6 6-1.4 0.4-5.8 1.8-5 7s4.6 26.4 4.6 27.4c0 0.6 0.4 1.2 0.8 1.4 0-3.6 0-24.4 0-24.8 0-3 2.2-5 5-6 3-1.2 32.8-11.4 33.2-11.4z"></path>
<path d="M45 31c3 0 5.6 0.8 8 2 0.4-1 4.4-13.4 5-16 0.6-2.4 0.6-3.6-1.4-2.8-1.4 0.4-31.4 11-37 12.8-5 1.6-6 4.2-6.2 7.6 0.2 3.4-0.2 19.2-0.2 22.4 0 0.4-0.4 0.6-0.4 0.6s0.6 0 1-0.2c2-1.2 7.8-4.6 14.4-8.6 0-0.2 0-0.6 0-0.8-0.2-9.4 7.6-17 16.8-17z"></path>
<path d="M45 34.4c-7.4 0-13.6 6-13.6 13.6 0 7.4 6 13.6 13.6 13.6 7.4 0 13.6-6 13.6-13.6s-6-13.6-13.6-13.6zM52.8 53.8h-3.2l-4.2-4.6-4.2 4.6h-3l5.8-6-5.8-6h3.2l4.2 4.4 4.2-4.4h3l-5.8 5.8 5.8 6.2z"></path>
</svg>
