<!-- Generated by IcoMoon.io -->
<svg version="1.1" xmlns="http://www.w3.org/2000/svg" width="64" height="64" viewBox="0 0 64 64">
<title>delete_user</title>
<path d="M18.2 50.2c0 0-0.6-3 1.8-8.6l-2.6-0.8c0 0-2.4 4-2.4 9.6h-5.2c0-9.4 5.8-17.4 13.8-20.2 1.6 0.8 3.4 1.2 5.4 1.2s3.8-0.4 5.6-1.2c1 0.4 2 0.8 3 1.2 0.2-1.2 2-1.8 5.4-2.4-1.2-0.8-2.4-1.6-3.6-2.2 2-2.4 3.4-5.6 3.4-9 0-7.6-6-13.6-13.6-13.6s-13.6 6-13.6 13.6c0 3.4 1.4 6.6 3.4 9-8.2 4.2-13.8 13.2-13.8 23.4 0 1.2 0.2 4.2 2.2 4.2s8.4 0 8.4 0 7.2 3.8 13.4 3.8c0.8 0 1.8 0 2.6-0.2-1-1.6-1.6-2.6-2.6-4-5 0-11-3.8-11-3.8zM29 8.4c5.2 0 9.2 4.2 9.2 9.2 0 5.2-4.2 9.2-9.2 9.2-5.2 0-9.2-4.2-9.2-9.2s4.2-9.2 9.2-9.2zM45.4 32.8c-7.4 0-13.6 6-13.6 13.6 0 7.4 6 13.6 13.6 13.6 7.4 0 13.6-6 13.6-13.6-0.2-7.4-6.2-13.6-13.6-13.6zM53 52.4h-3.2l-4.2-4.6-4.2 4.6h-3l5.8-6-5.8-6h3.2l4.2 4.4 4.2-4.4h3l-5.8 5.8 5.8 6.2z"></path>
</svg>
