<!-- Generated by IcoMoon.io -->
<svg version="1.1" xmlns="http://www.w3.org/2000/svg" width="32" height="32" viewBox="0 0 32 32">
<title>delete_content</title>
<path d="M24.5 7.6c0.2-1.5 0.3-2.7 0.3-3.1 0.1-1.3-0.6-1.3-0.9-1.3-0.4 0.1-4.1 1-5 1.2s-1.1 0.6-1.4 0.9c-0.2 0.3-0.2 0.3-0.7 1.1-0.3 0.5-0.8 1.1-1.8 1.4-0.9 0.3-9 2.7-9.8 3-0.7 0.2-2.9 0.9-2.5 3.5s2.3 13.2 2.3 13.7c0 0.3 0.2 0.6 0.4 0.7 0-1.8 0-12.2 0-12.4 0-1.5 1.1-2.5 2.5-3 1.5-0.6 16.4-5.7 16.6-5.7z"></path>
<path d="M22.5 15.5c1.5 0 2.8 0.4 4 1 0.2-0.5 2.2-6.7 2.5-8 0.3-1.2 0.3-1.8-0.7-1.4-0.7 0.2-15.7 5.5-18.5 6.4-2.5 0.8-3 2.1-3.1 3.8 0.1 1.7-0.1 9.6-0.1 11.2 0 0.2-0.2 0.3-0.2 0.3s0.3 0 0.5-0.1c1-0.6 3.9-2.3 7.2-4.3 0-0.1 0-0.3 0-0.4-0.1-4.7 3.8-8.5 8.4-8.5z"></path>
<path d="M22.5 17.2c-3.7 0-6.8 3-6.8 6.8 0 3.7 3 6.8 6.8 6.8 3.7 0 6.8-3 6.8-6.8s-3-6.8-6.8-6.8zM26.4 26.9h-1.6l-2.1-2.3-2.1 2.3h-1.5l2.9-3-2.9-3h1.6l2.1 2.2 2.1-2.2h1.5l-2.9 2.9 2.9 3.1z"></path>
</svg>
