<!-- Generated by IcoMoon.io -->
<svg version="1.1" xmlns="http://www.w3.org/2000/svg" width="64" height="64" viewBox="0 0 64 64">
<title>delete_url</title>
<path d="M45.2 32.6c-7.4 0-13.6 6-13.6 13.6 0 7.4 6 13.6 13.6 13.6 7.4 0 13.6-6 13.6-13.6-0.2-7.2-6.2-13.6-13.6-13.6zM53 52.4h-3.2l-4.2-4.6-4.2 4.6h-3l5.8-6-5.8-6h3.2l4.2 4.4 4.2-4.4h3l-5.8 5.6 5.8 6.4z"></path>
<path d="M21 42v-18.8c0-1.2 1-2.2 2.2-2.2h21.4c1.2 0 2.2 1 2.2 2.2v5.8h4.2v-17.8c0-1.2-1-2.2-2.2-2.2h-39.6c-1.2 0-2.2 1-2.2 2.2v35.6c0 1.2 1 2.2 2.2 2.2h17.8v-4.8h-3.8c-1.2 0-2.2-1-2.2-2.2zM9 15v-2h40v2h-40z"></path>
</svg>
