<!-- Generated by IcoMoon.io -->
<svg version="1.1" xmlns="http://www.w3.org/2000/svg" width="64" height="64" viewBox="0 0 64 64">
<title>delete_image</title>
<path d="M21.6 30.2c0 4.8 3 8.8 7.2 10.2 1-7.2 6-13.6 12.6-16.4-2-2.8-5.2-4.6-9-4.6-6 0-10.8 4.8-10.8 10.8zM47.2 27.6c-7.4 0-13.6 6-13.6 13.6 0 7.4 6 13.6 13.6 13.6 7.4 0 13.6-6 13.6-13.6-0.2-7.4-6.2-13.6-13.6-13.6zM51 47l-4.2-4.6-4.2 4.6h-3.2l5.8-6-5.8-5.8h3l4.2 4.4 4.2-4.4h3.2l-5.8 6 5.8 5.8h-3zM17.4 30.2c0-8.2 6.6-15 15-15 5.8 0 10.6 3.2 13.2 8 6.4 0 11.8 3.2 11.8 3.2v-8.4c0-2.6-2.2-4.8-4.8-4.8h-35.2v-4h-8v4h-1.4c-2.6 0-4.6 2.2-4.6 4.8v24.6c0 2.6 2.2 4.8 4.8 4.8h23c0 0-0.8-1.6-1.8-2.4-6.8-1.6-12-7.6-12-14.8z"></path>
</svg>
