<!-- Generated by IcoMoon.io -->
<svg version="1.1" xmlns="http://www.w3.org/2000/svg" width="32" height="32" viewBox="0 0 32 32">
<title>delete_vignette</title>
<path d="M24.1 16.692c-3.738 0-6.768 3.029-6.768 6.767s3.029 6.77 6.768 6.77 6.768-3.031 6.768-6.77c-0.001-3.737-3.030-6.767-6.768-6.767zM27.953 26.407h-1.568l-2.1-2.272-2.111 2.272h-1.449l2.887-2.952-2.861-2.966h1.57l2.084 2.234 2.094-2.234h1.455l-2.906 2.914 2.905 3.004zM27.047 3.093c0 0-0.75-0.788-5.582-0.788s-5.551 2.416-5.551 2.416-0.381-2.416-5.532-2.416c-4.833 0-5.114 0.788-5.114 0.788l-4.279 3.699 2.736 0.3 1.266-1.452v2.059h2.016l0.001-2.916c0 0 4.377-1.479 6.774 0.236 1.495 1.070 1.223 3.757 1.223 3.757v9.922l1.995-1.198v-8c0 0-0.35-3.412 1.146-4.482 2.396-1.718 6.861-0.236 6.861-0.236l-0.006 10.196 2.010 0.036v-9.375l2 2.276 0.002 8.153 1.988 1.883 0.008-11.16-3.962-3.698zM6.059 15.898l4.245 4.315 2.023-1.733-3.925-4.59-2.343 2.008zM4.883 22.589l1.466-1.833 1.147-0.453-2.475-2.545v1.784l-1.987 2.456 0.001-6.118-2.012-2.436 0.004 11.083 9.479-0.623-1.422-1.7-4.201 0.385zM8.096 10.671c-1.005-1.172-1.81-1.033-1.81-1.033l4.842 5.645c0 0 0.44-0.563-0.655-1.842-1.098-1.28-1.372-1.599-2.377-2.77zM1.847 8.524c-0.853 0.729 0.396 2.616 1.675 4.107 1.278 1.493 1.918 2.237 1.918 2.237l2.343-2.009c0 0-0.73-0.854-1.918-2.237-1.187-1.384-3.166-2.83-4.018-2.098zM10.623 20.588c0 0 5.23 5.773 6.083 5.044 0.854-0.729-4.059-6.778-4.059-6.778l-2.024 1.734z"></path>
</svg>
