<!-- Generated by IcoMoon.io -->
<svg version="1.1" xmlns="http://www.w3.org/2000/svg" width="32" height="32" viewBox="0 0 32 32">
<title>delete_url</title>
<path d="M22.6 16.3c-3.7 0-6.8 3-6.8 6.8 0 3.7 3 6.8 6.8 6.8 3.7 0 6.8-3 6.8-6.8-0.1-3.6-3.1-6.8-6.8-6.8zM26.5 26.2h-1.6l-2.1-2.3-2.1 2.3h-1.5l2.9-3-2.9-3h1.6l2.1 2.2 2.1-2.2h1.5l-2.9 2.8 2.9 3.2z"></path>
<path d="M10.5 21v-9.4c0-0.6 0.5-1.1 1.1-1.1h10.7c0.6 0 1.1 0.5 1.1 1.1v2.9h2.1v-8.9c0-0.6-0.5-1.1-1.1-1.1h-19.8c-0.6 0-1.1 0.5-1.1 1.1v17.8c0 0.6 0.5 1.1 1.1 1.1h8.9v-2.4h-1.9c-0.6 0-1.1-0.5-1.1-1.1zM4.5 7.5v-1h20v1h-20z"></path>
</svg>
