<!-- Generated by IcoMoon.io -->
<svg version="1.1" xmlns="http://www.w3.org/2000/svg" width="32" height="32" viewBox="0 0 32 32">
<title>delete_user</title>
<path d="M9.1 25.1c0 0-0.3-1.5 0.9-4.3l-1.3-0.4c0 0-1.2 2-1.2 4.8h-2.6c0-4.7 2.9-8.7 6.9-10.1 0.8 0.4 1.7 0.6 2.7 0.6s1.9-0.2 2.8-0.6c0.5 0.2 1 0.4 1.5 0.6 0.1-0.6 1-0.9 2.7-1.2-0.6-0.4-1.2-0.8-1.8-1.1 1-1.2 1.7-2.8 1.7-4.5 0-3.8-3-6.8-6.8-6.8s-6.8 3-6.8 6.8c0 1.7 0.7 3.3 1.7 4.5-4.1 2.1-6.9 6.6-6.9 11.7 0 0.6 0.1 2.1 1.1 2.1s4.2 0 4.2 0 3.6 1.9 6.7 1.9c0.4 0 0.9 0 1.3-0.1-0.5-0.8-0.8-1.3-1.3-2-2.5 0-5.5-1.9-5.5-1.9zM14.5 4.2c2.6 0 4.6 2.1 4.6 4.6 0 2.6-2.1 4.6-4.6 4.6-2.6 0-4.6-2.1-4.6-4.6s2.1-4.6 4.6-4.6zM22.7 16.4c-3.7 0-6.8 3-6.8 6.8 0 3.7 3 6.8 6.8 6.8 3.7 0 6.8-3 6.8-6.8-0.1-3.7-3.1-6.8-6.8-6.8zM26.5 26.2h-1.6l-2.1-2.3-2.1 2.3h-1.5l2.9-3-2.9-3h1.6l2.1 2.2 2.1-2.2h1.5l-2.9 2.9 2.9 3.1z"></path>
</svg>
