<!-- Generated by IcoMoon.io -->
<svg version="1.1" xmlns="http://www.w3.org/2000/svg" width="64" height="64" viewBox="0 0 64 64">
<title>delete_vignette</title>
<path d="M48.2 33.384c-7.476 0-13.536 6.058-13.536 13.534s6.058 13.54 13.536 13.54 13.536-6.062 13.536-13.54c-0.002-7.474-6.060-13.534-13.536-13.534zM55.906 52.814h-3.136l-4.2-4.544-4.222 4.544h-2.898l5.774-5.904-5.722-5.932h3.14l4.168 4.468 4.188-4.468h2.91l-5.812 5.828 5.81 6.008zM54.094 6.186c0 0-1.5-1.576-11.164-1.576s-11.102 4.832-11.102 4.832-0.762-4.832-11.064-4.832c-9.666 0-10.228 1.576-10.228 1.576l-8.558 7.398 5.472 0.6 2.532-2.904v4.118h4.032l0.002-5.832c0 0 8.754-2.958 13.548 0.472 2.99 2.14 2.446 7.514 2.446 7.514v19.844l3.99-2.396v-16c0 0-0.7-6.824 2.292-8.964 4.792-3.436 13.722-0.472 13.722-0.472l-0.012 20.392 4.020 0.072v-18.75l4 4.552 0.004 16.306 3.976 3.766 0.016-22.32-7.924-7.396zM12.118 31.796l8.49 8.63 4.046-3.466-7.85-9.18-4.686 4.016zM9.766 45.178l2.932-3.666 2.294-0.906-4.95-5.090v3.568l-3.974 4.912 0.002-12.236-4.024-4.872 0.008 22.166 18.958-1.246-2.844-3.4-8.402 0.77zM16.192 21.342c-2.010-2.344-3.62-2.066-3.62-2.066l9.684 11.29c0 0 0.88-1.126-1.31-3.684-2.196-2.56-2.744-3.198-4.754-5.54zM3.694 17.048c-1.706 1.458 0.792 5.232 3.35 8.214 2.556 2.986 3.836 4.474 3.836 4.474l4.686-4.018c0 0-1.46-1.708-3.836-4.474-2.374-2.768-6.332-5.66-8.036-4.196zM21.246 41.176c0 0 10.46 11.546 12.166 10.088 1.708-1.458-8.118-13.556-8.118-13.556l-4.048 3.468z"></path>
</svg>
