<!-- Generated by IcoMoon.io -->
<svg version="1.1" xmlns="http://www.w3.org/2000/svg" width="64" height="64" viewBox="0 0 64 64">
<title>discoverer</title>
<path d="M45.2 34c-0.6-0.4-2-1.6-1-3.4 0-0.2 0.2-0.2 0.2-0.4 0 0 0 0 0 0 0.2-0.2 0.4-0.4 0.6-0.8 0.8-1 1.2-2 1.6-3.2h0.2c9.6 1 0-7.4 0-7.4v0c0 0 0 0 0 0 1-3.2 1.4-8.6-4.4-11-0.2 0 0.6 2.4 0.2 3-0.2-0.8-0.6-2.8-1-3.4 0 0 0 0-0.2-0.2 0.4 0 0.6-0.4 1-1.2 1.2-2.6-2.8-1.6-3.4-1.8-0.6 0-1.2 0.2-1.8-0.2-0.2-0.2-0.4 0-0.6 0v0c0 0-2.2-2.4-4-1-1.4 1-0.8 1.6-0.6 1.8-3.2 0.6-4.8 2.2-4.8 2.2s-2.4 0.2-4.6 6.4c0 0.2 5.8 2.8 10.8 3.2-1.8-0.2-5.8 0-11.2-2 0 0-10.6 3.6-1.4 6 0.6 0.2 1 0.2 1.6 0.4 0 0.4 0 0.6 0 1 0 4.4 2.2 8.2 5.6 10.4-3.2 1.2-6 2.8-8.4 4.8-0.2-0.6-0.6-1-0.6-1.2 0.6-0.6 1-1.2 1.4-1.8 1.8-3.4 0.2-7.8-3.2-9.4-3.4-1.8-7.8-0.2-9.4 3.2-1.8 3.4-0.2 7.8 3.2 9.4 1.4 0.8 3 0.8 4.6 0.6 0.2 0.2 0.8 1.2 1.4 2-2.4 2.6-3.8 5.6-3.8 8 0 7.8 7.8 6.4 7.8 6.4s1.8 6.6 14.4 6.6c8.6 0 11.6-2.2 11.8-2.2 6.4 2 10.6-2 10.6-2s0-1.4 0-1.8c-0.6-9.2-5.4-17-12.6-21zM40.8 5c0.6 0 1 0.4 1.2 1 0 0.4-0.6 1-1.4 0-1-1.2-2.6-0.6-2.6-0.6v0c0 0-0.2 0-0.2 0 1-0.2 2.6-0.4 3-0.4zM32.8 5c-0.2-0.2-0.2-0.8 0.4-1.2 0.8-0.6 2.8 0.2 3.4 0.6-0.2 0.2-0.4 0.4-0.4 0.6-0.4 0-0.8-0.2-1.4-0.2-0.8 0-1.4 0-2 0.2zM26.2 22.2c0-0.2 0-0.2 0-0.4 6.6 0.4 11.6-1.2 13.8-2.8 0 0 1.4 0.6 3 1.2 0.2 0.6 0.2 1.4 0.2 2 0 4.8-3.8 8.6-8.6 8.6-4.6-0.2-8.4-4-8.4-8.6zM25.6 38l3 1.2-1.6 1c-0.8-0.8-1.8-1.2-2.8-1.4 0.6-0.2 1-0.4 1.4-0.8zM12 35c-2.2-1-3-3.8-2-5.8 1-2.2 3.8-3 5.8-2 2.2 1 3 3.6 2 5.8s-3.8 3.2-5.8 2zM19.2 51c-1.6 0-2.6-1.2-2.2-2.8 0.6-2 1.6-4 3.4-6 1-0.6 3.4-1 4.6 1.6 1.4 3.4-3.6 7.2-5.8 7.2zM24.6 52.6c1-1.2 2.4-2.4 3.2-4.6 1.2 3.2 2 7 2.4 9-3.4-0.8-5.4-2.2-5.6-4.4zM30.8 57c1.4-10.6 0.8-17.4-0.2-21.8 0 0 1.4 0.6 3.6 0.6 2.8 0 5-2.8 5-2.8s0 0.2-2 3-5 10.4-5.8 21c-0.2 0-0.4 0-0.6 0zM47 55.8c-0.2-5.4-2.6-9.2-2.6-9.2l-2.4 0.8c1.6 3.6 1.8 6.6 1.8 7.8-0.2 0.2-2.6 2.2-9 2.2-1 0-2.2 0-3-0.2 1.6-3.6 6-13.2 9.2-14.6l-2-3.2c0 0 5-0.6 5.2-0.6-0.4-0.8-0.8-3-0.8-3s1.8 2.4 2 3.8c4.6 3.4 7.6 9.2 7.6 15.6-1.2 0.2-3.8 0.6-6 0.6z"></path>
</svg>
