<!-- Generated by IcoMoon.io -->
<svg version="1.1" xmlns="http://www.w3.org/2000/svg" width="64" height="64" viewBox="0 0 64 64">
<title>discussion_board</title>
<path d="M61.476 24.846c0-8.066-9.148-14.606-20.422-14.606-11.284 0-20.424 6.54-20.424 14.606s9.14 14.608 20.424 14.608c1.586 0 3.132-0.132 4.626-0.376 2.024-0.336 11.36 6.5 11.36 6.5s-2.844-9.484-1.632-10.344c3.748-2.65 6.068-6.322 6.068-10.388zM18.978 18.702c-9.378 1.324-16.454 7.234-16.454 14.336 0 4.064 2.32 7.736 6.066 10.384 1.21 0.86-1.626 10.336-1.626 10.336s9.332-6.828 11.356-6.492c1.484 0.242 3.036 0.376 4.626 0.376 6.742 0 12.716-2.336 16.444-5.938-15.774 1.35-24.51-11.756-20.412-23.002z"></path>
</svg>
