<!-- Generated by IcoMoon.io -->
<svg version="1.1" xmlns="http://www.w3.org/2000/svg" width="32" height="32" viewBox="0 0 32 32">
<title>discussion_board</title>
<path d="M30.738 12.423c0-4.033-4.574-7.303-10.211-7.303-5.642 0-10.212 3.27-10.212 7.303s4.57 7.304 10.212 7.304c0.793 0 1.566-0.066 2.313-0.188 1.012-0.168 5.68 3.25 5.68 3.25s-1.422-4.742-0.816-5.172c1.874-1.325 3.034-3.161 3.034-5.194zM9.489 9.351c-4.689 0.662-8.227 3.617-8.227 7.168 0 2.032 1.16 3.868 3.033 5.192 0.605 0.43-0.813 5.168-0.813 5.168s4.666-3.414 5.678-3.246c0.742 0.121 1.518 0.188 2.313 0.188 3.371 0 6.358-1.168 8.222-2.969-7.887 0.675-12.255-5.878-10.206-11.501z"></path>
</svg>
