<!-- Generated by IcoMoon.io -->
<svg version="1.1" xmlns="http://www.w3.org/2000/svg" width="32" height="32" viewBox="0 0 32 32">
<title>documents-word-pdf</title>
<path d="M17.835 10.61h-3.872v1.645h3.682l0.19-1.645zM2.922 15.308h14.423l0.245-1.644h-14.668v1.644zM18.637 7.556h-4.674v1.645h3.912l0.762-1.645zM19.835 4.502h-5.872v1.645h5.872v-1.645zM31.42 28.113c-0.418-0.12-0.849 0.1-0.962 0.493s0.134 0.809 0.552 0.929c0.418 0.121 0.85-0.1 0.963-0.492s-0.135-0.81-0.553-0.93zM31.823 29c-0.091 0.315-0.437 0.492-0.772 0.396s-0.534-0.431-0.443-0.746 0.438-0.493 0.772-0.396c0.336 0.097 0.534 0.431 0.443 0.746zM30.619 27.345c0.104-0.141 0.297-0.487 0.297-0.487s-0.354 0.417-1.119 0.196c-1.569-0.453-3.977-2.224-4.75-3.005 1.803 0.313 3.821 0.85 4.944 1.498s0.984 1.152 0.984 1.152c0.962-1.492-1.583-2.376-2.768-2.718-1.070-0.309-1.685-0.527-4.239-0.908-3.228-2.924-3.533-7.292-3.606-7.917 0.531-0.521 1.781-4.246 1.781-4.246-0.165 0.216-1.177 2.048-1.826 2.93-0.060-1.014 0.062-2.854 0.479-4.3 0.227-0.785 0.589-1.837 1.039-1.927 0.338 0.199 0.483 0.813 0.598 1.432s-0.213 1.652-0.213 1.652 0.499-0.866 0.616-1.272c0.033-0.117 0.107-0.456 0.035-0.87-0.064-0.375-0.232-0.796-0.795-1.015-0.038-0.015-0.188-0.058-0.229-0.070-0.454-0.131-0.976-0.193-1.324 0.033-0.43 0.279-0.656 0.935-0.873 1.687-0.605 2.1-0.589 5.612-0.582 6.25-2.096 2.577-7.075 7.605-9.667 9.49s-3.774 1.929-4.051 1.813c0.025-0.213 0.156-0.668 1.616-1.674 1.46-1.005 3.605-1.802 4.045-2.045-0.318 0.054-1.571 0.254-2.822 0.651-0.65 0.206-1.298 0.469-1.784 0.722-1.421 0.738-1.712 1.372-1.775 1.593-0.064 0.221-0.045 0.405 0.159 0.608 0.205 0.202 0.295 0.265 0.438 0.39s0.391 0.307 0.708 0.397c0.937 0.271 2.013-0.248 3.375-1.063s3.289-2.602 3.937-3.182c3.294-0.064 7.944 0.268 9.885 0.608 2.524 2.418 4.842 3.532 5.93 3.846 1.085 0.312 1.456-0.108 1.557-0.249zM13.63 22.687c0 0 3.602-3.247 5.663-6.007 0.213 1.418 1.139 4.216 2.994 6.172-1.696-0.201-5.913-0.44-8.657-0.165zM16.023 16.483h-13.101v1.645h11.522l1.579-1.645zM2.93 12.131h2.399l1.822-3.214v3.214h2.183l3.31-6.62h0.695v-1.079h-3.166v1.079h0.456l-1.318 2.614v-3.645h-2.543l-2.159 4.006v-3.023h0.695v-1.031h-3.070v1.079h0.696v6.62zM31.447 28.501c-0.012-0.004-0.022-0.008-0.031-0.011l-0.404-0.116-0.223 0.773 0.16 0.046 0.087-0.3 0.168 0.048c0.045 0.014 0.073 0.031 0.083 0.055 0.011 0.022 0.010 0.057-0.004 0.103l-0.005 0.018c-0.016 0.056-0.024 0.1-0.027 0.13 0 0.013 0.001 0.024 0.003 0.035l0.174 0.051 0.008-0.024c-0.012-0.015-0.018-0.029-0.018-0.045 0-0.011 0.004-0.026 0.011-0.049l0.014-0.047c0.018-0.062 0.025-0.11 0.023-0.146-0.003-0.040-0.023-0.072-0.062-0.099 0.084-0.006 0.141-0.056 0.168-0.15 0.017-0.059 0.015-0.113-0.006-0.164-0.022-0.055-0.062-0.090-0.119-0.108zM31.41 28.744c-0.005 0.016-0.012 0.029-0.020 0.041-0.026 0.034-0.069 0.042-0.129 0.025l-0.187-0.054 0.059-0.203 0.193 0.056c0.056 0.016 0.085 0.046 0.088 0.090 0 0.003 0.001 0.008 0.002 0.016 0.001 0.003-0.001 0.013-0.006 0.029z"></path>
</svg>
