<!-- Generated by IcoMoon.io -->
<svg version="1.1" xmlns="http://www.w3.org/2000/svg" width="64" height="64" viewBox="0 0 64 64">
<title>document</title>
<path d="M47.862 20.66c-1.748-1.748-9.402-11.086-10.738-12.424-1.336-1.336-3.438-2.226-4.75-2.226h-15.832c-2.504 0-4.536 2.028-4.536 4.536v42.914c0 2.504 2.032 4.536 4.536 4.536h28.926c2.504 0 4.536-2.032 4.536-4.536v-28.080c-0.002-1.19-0.108-2.684-2.142-4.72zM45.978 51.946c0 0.958-1.082 2.036-2.352 2.036-1.274 0-24.864 0-25.626 0s-2.036-0.7-2.036-2.226c0-1.524 0-38.066 0-39.526 0-1.466 0.89-2.29 2.29-2.29s15.752 0 15.752 0 0 9.292 0 11.58 2.29 4.514 5.086 4.514c2.798 0 6.886 0 6.886 0s0 24.958 0 25.912zM29.994 22.028h-10v3.996h10v-3.996zM19.994 50.024h22v-4h-22v4zM19.994 42.024h22v-4h-22v4zM19.994 34.024h22v-4h-22v4zM29.994 14.024h-10v4h10v-4z"></path>
</svg>
