<!-- Generated by IcoMoon.io -->
<svg version="1.1" xmlns="http://www.w3.org/2000/svg" width="32" height="32" viewBox="0 0 32 32">
<title>document</title>
<path d="M23.931 10.33c-0.874-0.874-4.701-5.543-5.369-6.212s-1.719-1.113-2.375-1.113h-7.916c-1.252 0-2.268 1.014-2.268 2.268v21.457c0 1.252 1.016 2.268 2.268 2.268h14.463c1.252 0 2.268-1.016 2.268-2.268v-14.040c-0.001-0.595-0.054-1.342-1.071-2.36zM22.989 25.973c0 0.479-0.541 1.018-1.176 1.018-0.637 0-12.432 0-12.813 0s-1.018-0.35-1.018-1.113c0-0.762 0-19.033 0-19.763 0-0.733 0.445-1.145 1.145-1.145s7.876 0 7.876 0 0 4.646 0 5.79 1.145 2.257 2.543 2.257c1.399 0 3.443 0 3.443 0s0 12.479 0 12.956zM14.997 11.014h-5v1.998h5v-1.998zM9.997 25.012h11v-2h-11v2zM9.997 21.012h11v-2h-11v2zM9.997 17.012h11v-2h-11v2zM14.997 7.012h-5v2h5v-2z"></path>
</svg>
