<!-- Generated by IcoMoon.io -->
<svg version="1.1" xmlns="http://www.w3.org/2000/svg" width="64" height="64" viewBox="0 0 64 64">
<title>documents-word-pdf</title>
<path d="M35.67 21.22h-7.744v3.29h7.364l0.38-3.29zM5.844 30.616h28.846l0.49-3.288h-29.336v3.288zM37.274 15.112h-9.348v3.29h7.824l1.524-3.29zM39.67 9.004h-11.744v3.29h11.744v-3.29zM62.84 56.226c-0.836-0.24-1.698 0.2-1.924 0.986s0.268 1.618 1.104 1.858c0.836 0.242 1.7-0.2 1.926-0.984s-0.27-1.62-1.106-1.86zM63.646 58c-0.182 0.63-0.874 0.984-1.544 0.792s-1.068-0.862-0.886-1.492 0.876-0.986 1.544-0.792c0.672 0.194 1.068 0.862 0.886 1.492zM61.238 54.69c0.208-0.282 0.594-0.974 0.594-0.974s-0.708 0.834-2.238 0.392c-3.138-0.906-7.954-4.448-9.5-6.010 3.606 0.626 7.642 1.7 9.888 2.996s1.968 2.304 1.968 2.304c1.924-2.984-3.166-4.752-5.536-5.436-2.14-0.618-3.37-1.054-8.478-1.816-6.456-5.848-7.066-14.584-7.212-15.834 1.062-1.042 3.562-8.492 3.562-8.492-0.33 0.432-2.354 4.096-3.652 5.86-0.12-2.028 0.124-5.708 0.958-8.6 0.454-1.57 1.178-3.674 2.078-3.854 0.676 0.398 0.966 1.626 1.196 2.864s-0.426 3.304-0.426 3.304 0.998-1.732 1.232-2.544c0.066-0.234 0.214-0.912 0.070-1.74-0.128-0.75-0.464-1.592-1.59-2.030-0.076-0.030-0.376-0.116-0.458-0.14-0.908-0.262-1.952-0.386-2.648 0.066-0.86 0.558-1.312 1.87-1.746 3.374-1.21 4.2-1.178 11.224-1.164 12.5-4.192 5.154-14.15 15.21-19.334 18.98-5.184 3.772-7.548 3.858-8.102 3.626 0.050-0.426 0.312-1.336 3.232-3.348 2.92-2.010 7.21-3.604 8.090-4.090-0.636 0.108-3.142 0.508-5.644 1.302-1.3 0.412-2.596 0.938-3.568 1.444-2.842 1.476-3.424 2.744-3.55 3.186-0.128 0.442-0.090 0.81 0.318 1.216 0.41 0.404 0.59 0.53 0.876 0.78s0.782 0.614 1.416 0.794c1.874 0.542 4.026-0.496 6.75-2.126 2.724-1.628 6.578-5.204 7.874-6.364 6.588-0.128 15.888 0.536 19.77 1.216 5.048 4.836 9.684 7.064 11.86 7.692 2.17 0.624 2.912-0.216 3.114-0.498zM27.26 45.374c0 0 7.204-6.494 11.326-12.014 0.426 2.836 2.278 8.432 5.988 12.344-3.392-0.402-11.826-0.88-17.314-0.33zM32.046 32.966h-26.202v3.29h23.044l3.158-3.29zM5.86 24.262h4.798l3.644-6.428v6.428h4.366l6.62-13.24h1.39v-2.158h-6.332v2.158h0.912l-2.636 5.228v-7.29h-5.086l-4.318 8.012v-6.046h1.39v-2.062h-6.14v2.158h1.392v13.24zM62.894 57.002c-0.024-0.008-0.044-0.016-0.062-0.022l-0.808-0.232-0.446 1.546 0.32 0.092 0.174-0.6 0.336 0.096c0.090 0.028 0.146 0.062 0.166 0.11 0.022 0.044 0.020 0.114-0.008 0.206l-0.010 0.036c-0.032 0.112-0.048 0.2-0.054 0.26 0 0.026 0.002 0.048 0.006 0.070l0.348 0.102 0.016-0.048c-0.024-0.030-0.036-0.058-0.036-0.090 0-0.022 0.008-0.052 0.022-0.098l0.028-0.094c0.036-0.124 0.050-0.22 0.046-0.292-0.006-0.080-0.046-0.144-0.124-0.198 0.168-0.012 0.282-0.112 0.336-0.3 0.034-0.118 0.030-0.226-0.012-0.328-0.044-0.11-0.124-0.18-0.238-0.216zM62.82 57.488c-0.010 0.032-0.024 0.058-0.040 0.082-0.052 0.068-0.138 0.084-0.258 0.050l-0.374-0.108 0.118-0.406 0.386 0.112c0.112 0.032 0.17 0.092 0.176 0.18 0 0.006 0.002 0.016 0.004 0.032 0.002 0.006-0.002 0.026-0.012 0.058z"></path>
</svg>
