<!-- Generated by IcoMoon.io -->
<svg version="1.1" xmlns="http://www.w3.org/2000/svg" width="32" height="32" viewBox="0 0 32 32">
<title>drag_handler</title>
<path d="M13 4c-0.8 0-1.5 0.7-1.5 1.5s0.7 1.5 1.5 1.5c0.8 0 1.5-0.7 1.5-1.5s-0.7-1.5-1.5-1.5zM13 11c-0.8 0-1.5 0.7-1.5 1.5s0.7 1.5 1.5 1.5c0.8 0 1.5-0.7 1.5-1.5s-0.7-1.5-1.5-1.5zM13 18c-0.8 0-1.5 0.7-1.5 1.5s0.7 1.5 1.5 1.5c0.8 0 1.5-0.7 1.5-1.5s-0.7-1.5-1.5-1.5zM19 7c0.8 0 1.5-0.7 1.5-1.5s-0.7-1.5-1.5-1.5c-0.8 0-1.5 0.7-1.5 1.5s0.7 1.5 1.5 1.5zM19 11c-0.8 0-1.5 0.7-1.5 1.5s0.7 1.5 1.5 1.5c0.8 0 1.5-0.7 1.5-1.5s-0.7-1.5-1.5-1.5zM19 18c-0.8 0-1.5 0.7-1.5 1.5s0.7 1.5 1.5 1.5c0.8 0 1.5-0.7 1.5-1.5s-0.7-1.5-1.5-1.5zM13 25c-0.8 0-1.5 0.7-1.5 1.5s0.7 1.5 1.5 1.5c0.8 0 1.5-0.7 1.5-1.5s-0.7-1.5-1.5-1.5zM19 25c-0.8 0-1.5 0.7-1.5 1.5s0.7 1.5 1.5 1.5c0.8 0 1.5-0.7 1.5-1.5s-0.7-1.5-1.5-1.5z"></path>
</svg>
