<!-- Generated by IcoMoon.io -->
<svg version="1.1" xmlns="http://www.w3.org/2000/svg" width="64" height="64" viewBox="0 0 64 64">
<title>drag_handler</title>
<path d="M26 8c-1.6 0-3 1.4-3 3s1.4 3 3 3c1.6 0 3-1.4 3-3s-1.4-3-3-3zM26 22c-1.6 0-3 1.4-3 3s1.4 3 3 3c1.6 0 3-1.4 3-3s-1.4-3-3-3zM26 36c-1.6 0-3 1.4-3 3s1.4 3 3 3c1.6 0 3-1.4 3-3s-1.4-3-3-3zM38 14c1.6 0 3-1.4 3-3s-1.4-3-3-3c-1.6 0-3 1.4-3 3s1.4 3 3 3zM38 22c-1.6 0-3 1.4-3 3s1.4 3 3 3c1.6 0 3-1.4 3-3s-1.4-3-3-3zM38 36c-1.6 0-3 1.4-3 3s1.4 3 3 3c1.6 0 3-1.4 3-3s-1.4-3-3-3zM26 50c-1.6 0-3 1.4-3 3s1.4 3 3 3c1.6 0 3-1.4 3-3s-1.4-3-3-3zM38 50c-1.6 0-3 1.4-3 3s1.4 3 3 3c1.6 0 3-1.4 3-3s-1.4-3-3-3z"></path>
</svg>
