<!-- Generated by IcoMoon.io -->
<svg version="1.1" xmlns="http://www.w3.org/2000/svg" width="32" height="32" viewBox="0 0 32 32">
<title>due_date</title>
<path d="M19.4 7.2v-3.8h2v-2h-6v2h2v3.8c-6 0.5-10.7 5.6-10.7 11.7 0 6.5 5.3 11.7 11.7 11.7 6.5 0 11.7-5.3 11.7-11.7 0.1-6.2-4.7-11.2-10.7-11.7zM19.4 21.7c0 0-4.6-8.1-5.8-10.8 2.1-1 5.8-1.4 5.8-1.4v12.2zM9.2 5.6c0.2 0.2 1.9 2.3 1.9 2.3l2.3-6.5-7.1 0.1c0 0 1.9 2.5 2 2.5-3.1 2.1-5.4 5.3-6.5 8.9 0.7 0.1 0.9 0.2 1.8 0.4 1-3.1 3-5.8 5.6-7.7z"></path>
</svg>
