<!-- Generated by IcoMoon.io -->
<svg version="1.1" xmlns="http://www.w3.org/2000/svg" width="64" height="64" viewBox="0 0 64 64">
<title>due_date</title>
<path d="M38.8 14.4v-7.6h4v-4h-12v4h4v7.6c-12 1-21.4 11.2-21.4 23.4 0 13 10.6 23.4 23.4 23.4 13 0 23.4-10.6 23.4-23.4 0.2-12.4-9.4-22.4-21.4-23.4zM38.8 43.4c0 0-9.2-16.2-11.6-21.6 4.2-2 11.6-2.8 11.6-2.8v24.4zM18.4 11.2c0.4 0.4 3.8 4.6 3.8 4.6l4.6-13-14.2 0.2c0 0 3.8 5 4 5-6.2 4.2-10.8 10.6-13 17.8 1.4 0.2 1.8 0.4 3.6 0.8 2-6.2 6-11.6 11.2-15.4z"></path>
</svg>
