<!-- Generated by IcoMoon.io -->
<svg version="1.1" xmlns="http://www.w3.org/2000/svg" width="32" height="32" viewBox="0 0 32 32">
<title>edit_vignette</title>
<path d="M7.603 10.412c-1.005-1.172-1.811-1.034-1.811-1.034l4.842 5.645c0 0 0.441-0.563-0.655-1.842s-1.371-1.597-2.376-2.769zM5.566 15.641l0.854 0.868 2.427-0.029 0.784 1.397 1.743-0.193-3.464-4.054-2.344 2.011zM26.553 2.834c0 0-0.75-0.789-5.582-0.789s-5.551 2.416-5.551 2.416-0.38-2.416-5.532-2.416c-4.832 0-4.614 0.789-4.614 0.789l-4.278 3.698 2.687 0.356 1.315-1.51v2.087l2.016 0.846 0.002-3.791c0 0 3.877-1.479 6.273 0.237 1.496 1.070 1.223 3.757 1.223 3.757v10.71c0 0 1.518 1.478 2.204 2.17 0.219-0.479 0.65-1.046 1.498-1.52 2.484-1.391 7.248 0.622 7.248 0.622l1.508 1.834-8.875-0.74c0 0-0.422 0.219-0.832 0.432 0.078 0.243 0.209 1.557 0.209 1.557l13.039 0.69 0.008-17.737-3.966-3.698zM24.506 18.371c0 0-5.695-2.164-8.004 0.854v-10.71c0 0-0.344-2.687 1.152-3.757 2.395-1.717 6.861-0.237 6.861-0.237l-0.009 13.85zM26.518 19.283v-13.904l2 2.277 0.002 14.083-2.002-2.456zM11.696 22.625c-0.565-0.824 0.588-1.954 0.588-1.954l-1.601-1.695c0 0-1.247 1.224-1.93 0.824-0.683-0.401-0.471-1.766-0.471-1.766h-2.424c0 0 0.306 1.295-0.636 1.766s-1.906-0.753-1.906-0.753l-1.695 1.646c0 0 1.483 1.013 0.706 2.096-0.424 0.591-1.718 0.495-1.718 0.495v2.33c0 0 1.601-0.094 1.906 0.729 0.306 0.824-0.824 1.766-0.824 1.766l1.648 1.695c0 0 1.271-1.177 1.977-0.777s0.542 1.837 0.542 1.837h2.354c0 0-0.164-1.53 0.824-1.884s1.647 0.824 1.647 0.824l1.766-1.719c-0.471-0.47-1.177-1.342-0.706-2.048s1.695-0.354 1.695-0.354v-2.519c0 0.002-1.178 0.284-1.742-0.539zM7.058 26.76c-1.295 0-2.346-1.051-2.346-2.346 0-1.297 1.051-2.348 2.346-2.348s2.347 1.051 2.347 2.348c0 1.295-1.051 2.346-2.347 2.346zM1.354 8.265c-0.853 0.73 0.396 2.617 1.675 4.108s1.918 2.235 1.918 2.235l2.343-2.008c0 0-0.73-0.853-1.918-2.237s-3.166-2.83-4.018-2.098zM13.010 21.943l0.996 0.045 0.916 2.955c0 0 1.063 0.623 1.289 0.43 0.541-0.464-1.236-3.065-2.608-4.906-0.228 0.986-0.593 1.476-0.593 1.476z"></path>
</svg>
