<!-- Generated by IcoMoon.io -->
<svg version="1.1" xmlns="http://www.w3.org/2000/svg" width="32" height="32" viewBox="0 0 32 32">
<title>edit</title>
<path d="M18.96 16.324c-2.553 3.914-4.401 7.21-5.151 9.281-0.428 1.182-0.499 1.965-0.138 2.234 0.324 0.246 1.051-0.188 1.984-1.041 1.927-1.758 4.732-5.298 6.693-8.354-1.202-0.32-2.157-0.985-3.364-2.158-0.007 0.012-0.015 0.025-0.024 0.038zM26.704 8.216c-0.996-0.597-3.025 0.912-7.019 7.025 1.216 1.315 2.917 1.964 3.387 2.125 2.9-4.523 4.628-8.551 3.632-9.15zM22 4h-17v20h4.35l12.65-16.944v-3.056z"></path>
</svg>
