<!-- Generated by IcoMoon.io -->
<svg version="1.1" xmlns="http://www.w3.org/2000/svg" width="64" height="64" viewBox="0 0 64 64">
<title>edit_curriculum_info</title>
<path d="M61.96 23.496c0.074-2.538-0.928-6.508-6.010-7.926-4.79-1.336-22.034-5.406-22.034-5.406l-25.652 4.898-0.074 1.67 2.298 0.468c0.594 2.87-0.734 6.582-0.734 6.582l-2.148 0.572v1.576l5.968 2.506c0 0-1.034 0-5.57 0.86-4.536 0.862-5.968 3.796-5.968 5.728 0 1.262 0.204 3.104 1.25 5.126 0.558-0.158 1.006-0.826 1.774-1.642-0.37-1.070-0.508-2.226-0.508-3.2 0-1.836 1.694-4.254 4.088-2.86 0.73 0.426 4.802 2.85 4.802 2.85s4.25-1.46 6.858 2.654c6.996-2.056 7.88 5.812 7.88 5.812l28.424-9.036c0 0-0.774 2.724-0.562 4.688 0.21 1.966 1.57 3.632 1.57 3.632l-26.422 10.402-3.052 4.44 32.626-12.982 0.158-2.148c-1.63-0.602-2.15-1.93-2.298-4s0.594-4.672 0.594-4.672l1.78-0.602v-1.938l-2.076-0.664c2.148-1.736 2.964-4.85 3.038-7.388zM32.172 34.984l-22.128-10.64c0 0 1.928-3.806 1.186-6.942l17.308 5.474 3.112-0.146c0.002 0 3.34 1.776 0.522 12.254zM56.752 29.56c-2.484 0.384-22.014 5.688-22.014 5.688s2.414-5.844 0.14-12.486c0 0 19.082-3.702 20.856-3.892 1.776-0.19 4.71 1.034 4.496 4.994-0.21 3.962-0.992 5.314-3.478 5.696zM24.388 47.522c-1.13-1.648 1.176-3.908 1.176-3.908l-3.202-3.39c0 0-2.496 2.448-3.86 1.648-1.366-0.804-0.942-3.532-0.942-3.532h-4.85c0 0 0.612 2.59-1.27 3.532-1.884 0.942-3.814-1.508-3.814-1.508l-3.388 3.294c0 0 2.964 2.026 1.412 4.192-0.848 1.182-3.438 0.99-3.438 0.99v4.66c0 0 3.202-0.188 3.814 1.46 0.612 1.646-1.648 3.532-1.648 3.532l3.296 3.388c0 0 2.542-2.354 3.954-1.552 1.412 0.798 1.082 3.672 1.082 3.672h4.708c0 0-0.33-3.060 1.648-3.768 1.976-0.706 3.294 1.648 3.294 1.648l3.532-3.438c-0.942-0.94-2.354-2.684-1.412-4.096 0.942-1.414 3.388-0.708 3.388-0.708v-5.038c0.002 0.004-2.352 0.568-3.48-1.078zM15.112 55.792c-2.592 0-4.692-2.104-4.692-4.694 0-2.594 2.1-4.694 4.692-4.694s4.694 2.1 4.694 4.694c0 2.592-2.102 4.694-4.694 4.694z"></path>
</svg>
