<!-- Generated by IcoMoon.io -->
<svg version="1.1" xmlns="http://www.w3.org/2000/svg" width="32" height="32" viewBox="0 0 32 32">
<title>edit_image</title>
<path d="M23.18 14.521c0-3.008-2.432-5.445-5.432-5.445s-5.431 2.438-5.431 5.445c3.080 1.17 1.55 4.442 3.703 5.166 0.543 0.182 1.124 0.28 1.729 0.28 2.999 0.001 5.431-2.437 5.431-5.446zM12.884 19.705c-0.565-0.823 0.588-1.953 0.588-1.953l-1.601-1.695c0 0-1.248 1.224-1.93 0.823-0.683-0.399-0.471-1.766-0.471-1.766h-2.424c0 0 0.306 1.295-0.636 1.766-0.941 0.472-1.907-0.753-1.907-0.753l-1.695 1.648c0 0 1.483 1.012 0.707 2.095-0.424 0.591-1.719 0.493-1.719 0.493v2.332c0 0 1.601-0.095 1.907 0.729 0.307 0.825-0.823 1.766-0.823 1.766l1.648 1.695c0 0 1.271-1.178 1.977-0.776 0.706 0.399 0.542 1.835 0.542 1.835h2.353c0 0-0.165-1.528 0.824-1.883 0.989-0.354 1.648 0.824 1.648 0.824l1.766-1.719c-0.471-0.472-1.177-1.342-0.707-2.048 0.471-0.707 1.695-0.354 1.695-0.354v-2.52c0 0.002-1.177 0.286-1.742-0.539zM8.247 23.841c-1.296 0-2.346-1.050-2.346-2.346 0-1.297 1.050-2.347 2.346-2.347s2.347 1.050 2.347 2.347c0 1.296-1.051 2.346-2.347 2.346zM27.843 6.038h-17.634v-1.982h-4.022v1.982h-0.64c-1.304 0-2.361 1.060-2.361 2.368v6.526l2.188-0.264 2.111-1.848 1.672 0.088c0 0 1.123 1.244 1.136 1.061 0.282-3.881 3.512-6.943 7.455-6.943 4.128 0 7.475 3.356 7.475 7.495 0 4.141-3.347 7.495-7.475 7.495-0.664 0-0.999-0.086-1.612-0.25-0.030 0.119 0.016 1.283 0.016 1.283h11.628c1.304 0 2.423-1.060 2.423-2.367v-12.276c0-1.308-1.057-2.368-2.36-2.368z"></path>
</svg>
