<!-- Generated by IcoMoon.io -->
<svg version="1.1" xmlns="http://www.w3.org/2000/svg" width="32" height="32" viewBox="0 0 32 32">
<title>edit_course</title>
<path d="M6.112 8.131l-0.979-0.007-2.716 8.454 2.118-1.221 1.577-7.226zM13.658 14.1c0.486 0.179 0.851 0.543 1.241 0.87v-11.261c-0.074-0.145-0.257-0.438-0.76-0.567-0.842-0.219-1.75 0.057-5.84 3.977-0.102 0.473-1.731 7.938-1.731 7.938s2.507-0.577 2.939-0.682c1.306-0.561 2.685-0.813 4.151-0.275zM25.642 16.178c-0.662-3.034-1.861-8.526-1.978-9.060-4.089-3.92-5.127-4.195-5.969-3.977-0.503 0.129-0.686 0.422-0.76 0.567v11.26c0.391-0.326 0.755-0.691 1.24-0.87 2.718-0.995 5.268 0.724 7.467 2.080zM27.149 8.307l-1.262-0.011 2.161 9.899-1.469 1.159c-1.543-1.221-6.134-4.171-8.818-3.185-0.815 0.301-1.397 1.388-1.779 2.502-0.382-1.114-0.965-2.201-1.78-2.502-0.478-0.176-1.517-0.227-2.088-0.184 2.984 2.211 1.56 3.8 1.56 3.8l1.693 1.213h15.6l-3.818-12.691zM12.12 20.673c-0.564-0.824 0.588-1.954 0.588-1.954l-1.601-1.694c0 0-1.247 1.223-1.93 0.823s-0.471-1.765-0.471-1.765h-2.424c0 0 0.306 1.294-0.636 1.765s-1.906-0.753-1.906-0.753l-1.695 1.646c0 0 1.483 1.014 0.706 2.096-0.424 0.592-1.718 0.495-1.718 0.495v2.331c0 0 1.601-0.094 1.906 0.729s-0.824 1.766-0.824 1.766l1.648 1.694c0 0 1.271-1.176 1.978-0.776s0.541 1.837 0.541 1.837h2.354c0 0-0.164-1.531 0.824-1.885 0.988-0.352 1.647 0.824 1.647 0.824l1.766-1.719c-0.471-0.469-1.177-1.342-0.706-2.047 0.471-0.707 1.695-0.354 1.695-0.354v-2.52c0 0.002-1.177 0.285-1.742-0.539zM7.483 24.809c-1.296 0-2.347-1.052-2.347-2.347 0-1.297 1.051-2.347 2.347-2.347s2.346 1.050 2.346 2.347c0 1.295-1.050 2.347-2.346 2.347z"></path>
</svg>
