<!-- Generated by IcoMoon.io -->
<svg version="1.1" xmlns="http://www.w3.org/2000/svg" width="32" height="32" viewBox="0 0 32 32">
<title>edit_questions</title>
<path d="M15.672 11.351c1.182 0 1.524 1.156 1.524 1.38 0 0.602-0.341 1.225-1.025 1.868-1.534 1.437-2.308 2.458-2.322 3.059v1.931h3.367v-1.089c0.026-0.656 0.351-1.271 0.971-1.848 1.129-1.006 2.744-1.909 2.744-4.065 0-1.937-1.56-3.326-1.56-3.326-0.959-0.793-2.778-1.191-4.188-1.191-1.383 0-2.519 0.489-3.552 1.294-1.565 1.215-1.479 4.451-1.479 4.451h3.438c0.003-1.423 0.793-2.464 2.082-2.464zM11.681 20.409c-0.565-0.822 0.588-1.952 0.588-1.952l-1.601-1.695c0 0-1.247 1.223-1.93 0.823s-0.471-1.766-0.471-1.766h-2.423c0 0 0.306 1.295-0.636 1.766-0.941 0.472-1.906-0.753-1.906-0.753l-1.697 1.648c0 0 1.483 1.011 0.706 2.095-0.424 0.591-1.718 0.491-1.718 0.491v2.332c0 0 1.601-0.094 1.906 0.73s-0.824 1.766-0.824 1.766l1.648 1.695c0 0 1.271-1.178 1.978-0.777 0.706 0.4 0.541 1.836 0.541 1.836h2.354c0 0-0.164-1.528 0.824-1.883 0.988-0.354 1.647 0.824 1.647 0.824l1.766-1.719c-0.471-0.473-1.177-1.342-0.706-2.049 0.471-0.706 1.695-0.354 1.695-0.354v-2.519c0.002 0.003-1.176 0.286-1.741-0.539zM7.044 24.545c-1.296 0-2.347-1.050-2.347-2.345 0-1.298 1.051-2.349 2.347-2.349s2.346 1.051 2.346 2.349c0 1.295-1.049 2.345-2.346 2.345zM15.675 3.351c-6.7 0-12.132 5.432-12.132 12.132 1.175-0.679 2.184-1.342 2.774-1.41 0.68-4.557 4.61-8.053 9.357-8.053 5.227 0 9.463 4.236 9.463 9.461 0 5.227-4.236 9.46-9.463 9.46-0.47 0-0.931-0.032-1.383-0.1-0.397 1.092-0.364 1.605-0.522 2.623 0.62 0.1 1.257 0.149 1.905 0.149 6.701 0 12.133-5.433 12.133-12.132s-5.431-12.13-12.132-12.13zM17.201 23.448v-2.604h-2.476v2.604h2.476z"></path>
</svg>
