<!-- Generated by IcoMoon.io -->
<svg version="1.1" xmlns="http://www.w3.org/2000/svg" width="64" height="64" viewBox="0 0 64 64">
<title>edit_questions</title>
<path d="M31.344 22.702c2.364 0 3.048 2.312 3.048 2.76 0 1.204-0.682 2.45-2.050 3.736-3.068 2.874-4.616 4.916-4.644 6.118v3.862h6.734v-2.178c0.052-1.312 0.702-2.542 1.942-3.696 2.258-2.012 5.488-3.818 5.488-8.13 0-3.874-3.12-6.652-3.12-6.652-1.918-1.586-5.556-2.382-8.376-2.382-2.766 0-5.038 0.978-7.104 2.588-3.13 2.43-2.958 8.902-2.958 8.902h6.876c0.006-2.846 1.586-4.928 4.164-4.928zM23.362 40.818c-1.13-1.644 1.176-3.904 1.176-3.904l-3.202-3.39c0 0-2.494 2.446-3.86 1.646s-0.942-3.532-0.942-3.532h-4.846c0 0 0.612 2.59-1.272 3.532-1.882 0.944-3.812-1.506-3.812-1.506l-3.394 3.296c0 0 2.966 2.022 1.412 4.19-0.848 1.182-3.436 0.982-3.436 0.982v4.664c0 0 3.202-0.188 3.812 1.46s-1.648 3.532-1.648 3.532l3.296 3.39c0 0 2.542-2.356 3.956-1.554 1.412 0.8 1.082 3.672 1.082 3.672h4.708c0 0-0.328-3.056 1.648-3.766 1.976-0.708 3.294 1.648 3.294 1.648l3.532-3.438c-0.942-0.946-2.354-2.684-1.412-4.098 0.942-1.412 3.39-0.708 3.39-0.708v-5.038c0.004 0.006-2.352 0.572-3.482-1.078zM14.088 49.090c-2.592 0-4.694-2.1-4.694-4.69 0-2.596 2.102-4.698 4.694-4.698s4.692 2.102 4.692 4.698c0 2.59-2.098 4.69-4.692 4.69zM31.35 6.702c-13.4 0-24.264 10.864-24.264 24.264 2.35-1.358 4.368-2.684 5.548-2.82 1.36-9.114 9.22-16.106 18.714-16.106 10.454 0 18.926 8.472 18.926 18.922 0 10.454-8.472 18.92-18.926 18.92-0.94 0-1.862-0.064-2.766-0.2-0.794 2.184-0.728 3.21-1.044 5.246 1.24 0.2 2.514 0.298 3.81 0.298 13.402 0 24.266-10.866 24.266-24.264s-10.862-24.26-24.264-24.26zM34.402 46.896v-5.208h-4.952v5.208h4.952z"></path>
</svg>
