<!-- Generated by IcoMoon.io -->
<svg version="1.1" xmlns="http://www.w3.org/2000/svg" width="64" height="64" viewBox="0 0 64 64">
<title>edit_image</title>
<path d="M46.36 29.042c0-6.016-4.864-10.89-10.864-10.89s-10.862 4.876-10.862 10.89c6.16 2.34 3.1 8.884 7.406 10.332 1.086 0.364 2.248 0.56 3.458 0.56 5.998 0.002 10.862-4.874 10.862-10.892zM25.768 39.41c-1.13-1.646 1.176-3.906 1.176-3.906l-3.202-3.39c0 0-2.496 2.448-3.86 1.646-1.366-0.798-0.942-3.532-0.942-3.532h-4.848c0 0 0.612 2.59-1.272 3.532-1.882 0.944-3.814-1.506-3.814-1.506l-3.39 3.296c0 0 2.966 2.024 1.414 4.19-0.848 1.182-3.438 0.986-3.438 0.986v4.664c0 0 3.202-0.19 3.814 1.458 0.614 1.65-1.646 3.532-1.646 3.532l3.296 3.39c0 0 2.542-2.356 3.954-1.552 1.412 0.798 1.084 3.67 1.084 3.67h4.706c0 0-0.33-3.056 1.648-3.766 1.978-0.708 3.296 1.648 3.296 1.648l3.532-3.438c-0.942-0.944-2.354-2.684-1.414-4.096 0.942-1.414 3.39-0.708 3.39-0.708v-5.040c0 0.004-2.354 0.572-3.484-1.078zM16.494 47.682c-2.592 0-4.692-2.1-4.692-4.692 0-2.594 2.1-4.694 4.692-4.694s4.694 2.1 4.694 4.694c0 2.592-2.102 4.692-4.694 4.692zM55.686 12.076h-35.268v-3.964h-8.044v3.964h-1.28c-2.608 0-4.722 2.12-4.722 4.736v13.052l4.376-0.528 4.222-3.696 3.344 0.176c0 0 2.246 2.488 2.272 2.122 0.564-7.762 7.024-13.886 14.91-13.886 8.256 0 14.95 6.712 14.95 14.99 0 8.282-6.694 14.99-14.95 14.99-1.328 0-1.998-0.172-3.224-0.5-0.060 0.238 0.032 2.566 0.032 2.566h23.256c2.608 0 4.846-2.12 4.846-4.734v-24.552c0-2.616-2.114-4.736-4.72-4.736z"></path>
</svg>
