<!-- Generated by IcoMoon.io -->
<svg version="1.1" xmlns="http://www.w3.org/2000/svg" width="64" height="64" viewBox="0 0 64 64">
<title>edit_vignette</title>
<path d="M15.206 20.824c-2.010-2.344-3.622-2.068-3.622-2.068l9.684 11.29c0 0 0.882-1.126-1.31-3.684-2.194-2.556-2.742-3.194-4.752-5.538zM11.132 31.282l1.708 1.736 4.854-0.058 1.568 2.794 3.486-0.386-6.928-8.108-4.688 4.022zM53.106 5.668c0 0-1.5-1.578-11.164-1.578s-11.102 4.832-11.102 4.832-0.76-4.832-11.064-4.832c-9.664 0-9.228 1.578-9.228 1.578l-8.556 7.396 5.374 0.712 2.63-3.020v4.174l4.032 1.692 0.004-7.582c0 0 7.754-2.958 12.546 0.474 2.992 2.14 2.446 7.514 2.446 7.514v21.42c0 0 3.036 2.956 4.408 4.34 0.438-0.958 1.3-2.092 2.996-3.040 4.968-2.782 14.496 1.244 14.496 1.244l3.016 3.668-17.75-1.48c0 0-0.844 0.438-1.664 0.864 0.156 0.486 0.418 3.114 0.418 3.114l26.078 1.38 0.016-35.474-7.932-7.396zM49.012 36.742c0 0-11.39-4.328-16.008 1.708v-21.42c0 0-0.688-5.374 2.304-7.514 4.79-3.434 13.722-0.474 13.722-0.474l-0.018 27.7zM53.036 38.566v-27.808l4 4.554 0.004 28.166-4.004-4.912zM23.392 45.25c-1.13-1.648 1.176-3.908 1.176-3.908l-3.202-3.39c0 0-2.494 2.448-3.86 1.648-1.366-0.802-0.942-3.532-0.942-3.532h-4.848c0 0 0.612 2.59-1.272 3.532s-3.812-1.506-3.812-1.506l-3.39 3.292c0 0 2.966 2.026 1.412 4.192-0.848 1.182-3.436 0.99-3.436 0.99v4.66c0 0 3.202-0.188 3.812 1.458 0.612 1.648-1.648 3.532-1.648 3.532l3.296 3.39c0 0 2.542-2.354 3.954-1.554 1.414 0.8 1.084 3.674 1.084 3.674h4.708c0 0-0.328-3.060 1.648-3.768 1.976-0.706 3.294 1.648 3.294 1.648l3.532-3.438c-0.942-0.94-2.354-2.684-1.412-4.096s3.39-0.708 3.39-0.708v-5.038c0 0.004-2.356 0.568-3.484-1.078zM14.116 53.52c-2.59 0-4.692-2.102-4.692-4.692 0-2.594 2.102-4.696 4.692-4.696 2.592 0 4.694 2.102 4.694 4.696 0 2.59-2.102 4.692-4.694 4.692zM2.708 16.53c-1.706 1.46 0.792 5.234 3.35 8.216 2.556 2.982 3.836 4.47 3.836 4.47l4.686-4.016c0 0-1.46-1.706-3.836-4.474s-6.332-5.66-8.036-4.196zM26.020 43.886l1.992 0.090 1.832 5.91c0 0 2.126 1.246 2.578 0.86 1.082-0.928-2.472-6.13-5.216-9.812-0.456 1.972-1.186 2.952-1.186 2.952z"></path>
</svg>
