<!-- Generated by IcoMoon.io -->
<svg version="1.1" xmlns="http://www.w3.org/2000/svg" width="64" height="64" viewBox="0 0 64 64">
<title>edit</title>
<path d="M37.92 32.648c-5.106 7.828-8.802 14.42-10.302 18.562-0.856 2.364-0.998 3.93-0.276 4.468 0.648 0.492 2.102-0.376 3.968-2.082 3.854-3.516 9.464-10.596 13.386-16.708-2.404-0.64-4.314-1.97-6.728-4.316-0.014 0.024-0.030 0.050-0.048 0.076zM53.408 16.432c-1.992-1.194-6.050 1.824-14.038 14.050 2.432 2.63 5.834 3.928 6.774 4.25 5.8-9.046 9.256-17.102 7.264-18.3zM44 8h-34v40h8.7l25.3-33.888v-6.112z"></path>
</svg>
