<!-- Generated by IcoMoon.io -->
<svg version="1.1" xmlns="http://www.w3.org/2000/svg" width="64" height="64" viewBox="0 0 64 64">
<title>edit_course_exams</title>
<path d="M13.782 27.378l4.688-4.016c0 0-1.462-1.706-3.838-4.474-2.376-2.77-6.332-5.66-8.036-4.198-1.706 1.46 0.792 5.234 3.35 8.216 2.556 2.982 3.836 4.472 3.836 4.472zM27.28 43.41c-1.13-1.648 1.178-3.908 1.178-3.908l-3.204-3.388c0 0-2.494 2.446-3.86 1.644s-0.942-3.53-0.942-3.53h-4.848c0 0 0.612 2.59-1.272 3.53-1.882 0.944-3.812-1.504-3.812-1.504l-3.39 3.292c0 0 2.966 2.026 1.412 4.192-0.848 1.182-3.436 0.988-3.436 0.988v4.662c0 0 3.202-0.188 3.812 1.458 0.612 1.648-1.648 3.532-1.648 3.532l3.296 3.39c0 0 2.542-2.354 3.956-1.554 1.412 0.8 1.082 3.674 1.082 3.674h4.708c0 0-0.328-3.060 1.648-3.768 1.976-0.706 3.294 1.648 3.294 1.648l3.532-3.438c-0.942-0.94-2.354-2.684-1.412-4.096s3.39-0.708 3.39-0.708v-5.038c0 0.004-2.356 0.568-3.484-1.078zM18.006 51.68c-2.592 0-4.694-2.102-4.694-4.692 0-2.594 2.102-4.696 4.694-4.696s4.692 2.102 4.692 4.696c0 2.59-2.1 4.692-4.692 4.692zM23.844 24.522c-2.192-2.554-2.74-3.194-4.75-5.538-2.008-2.342-3.624-2.068-3.624-2.068l9.684 11.288c0 0 0.884-1.126-1.31-3.682zM15.020 29.44l1.708 1.738 4.854-0.060 1.568 2.796 3.486-0.386-6.928-8.108-4.688 4.020zM28.926 32.074h21.946v-4.026h-21.946v4.026zM56.058 4.112h-32.342c-1.566 0-2.834 1.268-2.834 2.834v7.798l4.012 6.908v-13.63h29.988v34.154l-8.012 0.016 0.002 5.892h-10.394c-0.28-1.838-3.106-5.934-5.384-8.99-0.456 1.972-1.186 2.954-1.186 2.954l1.992 0.090 1.832 5.91c0 0 0.042 0.024 0.104 0.058l-1.58 4.016h15.776l10.864-10.554v-34.622c-0.002-1.568-1.27-2.834-2.838-2.834zM50.872 40.072v-4.026h-19.046l2.586 4.026h16.46zM50.872 12.046h-21.946v4.026h21.946v-4.026zM28.926 24.072h21.946v-4.026h-21.946v4.026z"></path>
</svg>
