<!-- Generated by IcoMoon.io -->
<svg version="1.1" xmlns="http://www.w3.org/2000/svg" width="32" height="32" viewBox="0 0 32 32">
<title>edit_course_exams</title>
<path d="M6.891 13.689l2.344-2.008c0 0-0.731-0.853-1.919-2.237s-3.166-2.83-4.018-2.099c-0.853 0.73 0.396 2.617 1.675 4.108s1.918 2.236 1.918 2.236zM13.64 21.705c-0.565-0.824 0.589-1.954 0.589-1.954l-1.602-1.694c0 0-1.247 1.223-1.93 0.822s-0.471-1.765-0.471-1.765h-2.424c0 0 0.306 1.295-0.636 1.765-0.941 0.472-1.906-0.752-1.906-0.752l-1.695 1.646c0 0 1.483 1.013 0.706 2.096-0.424 0.591-1.718 0.494-1.718 0.494v2.331c0 0 1.601-0.094 1.906 0.729 0.306 0.824-0.824 1.766-0.824 1.766l1.648 1.695c0 0 1.271-1.177 1.978-0.777s0.541 1.837 0.541 1.837h2.354c0 0-0.164-1.53 0.824-1.884s1.647 0.824 1.647 0.824l1.766-1.719c-0.471-0.47-1.177-1.342-0.706-2.048s1.695-0.354 1.695-0.354v-2.519c0 0.002-1.178 0.284-1.742-0.539zM9.003 25.84c-1.296 0-2.347-1.051-2.347-2.346 0-1.297 1.051-2.348 2.347-2.348s2.346 1.051 2.346 2.348c0 1.295-1.050 2.346-2.346 2.346zM11.922 12.261c-1.096-1.277-1.37-1.597-2.375-2.769-1.004-1.171-1.812-1.034-1.812-1.034l4.842 5.644c0 0 0.442-0.563-0.655-1.841zM7.51 14.72l0.854 0.869 2.427-0.030 0.784 1.398 1.743-0.193-3.464-4.054-2.344 2.010zM14.463 16.037h10.973v-2.013h-10.973v2.013zM28.029 2.056h-16.171c-0.783 0-1.417 0.634-1.417 1.417v3.899l2.006 3.454v-6.815h14.994v17.077l-4.006 0.008 0.001 2.946h-5.197c-0.14-0.919-1.553-2.967-2.692-4.495-0.228 0.986-0.593 1.477-0.593 1.477l0.996 0.045 0.916 2.955c0 0 0.021 0.012 0.052 0.029l-0.79 2.008h7.888l5.432-5.277v-17.311c-0.001-0.784-0.635-1.417-1.419-1.417zM25.436 20.036v-2.013h-9.523l1.293 2.013h8.23zM25.436 6.023h-10.973v2.013h10.973v-2.013zM14.463 12.036h10.973v-2.013h-10.973v2.013z"></path>
</svg>
