<!-- Generated by IcoMoon.io -->
<svg version="1.1" xmlns="http://www.w3.org/2000/svg" width="64" height="64" viewBox="0 0 64 64">
<title>edit_lecture</title>
<path d="M28.724 57.078l8.584-3.66-8.582 0.038-0.002 3.622zM23.606 13.784c-1.044-0.072-2.052 0.068-2.698 0.364l-14.354 6.604c-2.016 0.924-2.898 3.314-1.97 5.328l5.31 10.164 2.404-2.792c0 0-3.724-7.090-3.904-7.484-0.542-1.176-0.13-2.17 0.994-2.692 1.122-0.512 14.16-6.51 14.282-6.568v-0.18c-0.016-0.516-0.064-2.1-0.064-2.744zM23.556 32.45l0.078-3.964-8.37 3.878 4.928 1.636 3.364-1.55zM12.304 25.924l1.48 3.218 9.658-4.44-1.482-3.22-9.656 4.442zM24.996 45.008c-1.096-1.596 1.14-3.788 1.14-3.788l-3.102-3.286c0 0-2.416 2.372-3.742 1.598-1.324-0.782-0.914-3.426-0.914-3.426h-4.7c0 0 0.592 2.514-1.232 3.426s-3.698-1.462-3.698-1.462l-3.284 3.194c0 0 2.876 1.964 1.368 4.062-0.822 1.146-3.332 0.96-3.332 0.96v4.518c0 0 3.104-0.182 3.698 1.414 0.592 1.596-1.598 3.424-1.598 3.424l3.196 3.284c0 0 2.464-2.278 3.832-1.504 1.368 0.776 1.050 3.562 1.050 3.562h4.562c0 0-0.32-2.97 1.598-3.656 1.916-0.68 3.194 1.598 3.194 1.598l3.422-3.332c-0.914-0.908-2.282-2.602-1.37-3.966 0.914-1.372 3.284-0.686 3.284-0.686v-4.884c0.002-0.002-2.28 0.548-3.372-1.050zM16.004 53.026c-2.512 0-4.546-2.040-4.546-4.548 0-2.514 2.036-4.548 4.546-4.548 2.512 0 4.55 2.036 4.55 4.548 0 2.508-2.038 4.548-4.55 4.548zM58.428 17.222c-1.698-1.694-9.116-10.75-10.412-12.046-1.292-1.294-3.332-2.158-4.604-2.158h-15.346c-2.43 0-4.396 1.968-4.396 4.396v9.114c0.004 0.104 0.006 0.18 0.006 0.18l-0.006 0.002v18.132l3.838 3.004c0 0 0-27.834 0-28.8 0-1.418 0.862-2.218 2.218-2.218s15.268 0 15.268 0 0 9.008 0 11.226c0 2.22 2.218 4.376 4.932 4.376s6.674 0 6.674 0 0 24.194 0 25.122c0 0.924-1.046 1.97-2.28 1.97-1.004 0-22.442 0-22.442 0l-2.644 3.886h26.87c2.428 0 4.396-1.968 4.396-4.396v-27.216c0-1.154-0.102-2.602-2.072-4.574zM41.106 10.79h-9.692v3.876h9.692v-3.876zM31.414 30.174h21.326v-3.878h-21.326v3.878zM31.414 37.93h21.326v-3.876h-21.326v3.876zM31.414 45.686h21.326v-3.876h-21.326v3.876zM31.414 22.42h9.692v-3.876h-9.692v3.876z"></path>
</svg>
