<!-- Generated by IcoMoon.io -->
<svg version="1.1" xmlns="http://www.w3.org/2000/svg" width="32" height="32" viewBox="0 0 32 32">
<title>edit_curriculum_info</title>
<path d="M30.98 11.748c0.037-1.269-0.464-3.254-3.005-3.963-2.395-0.668-11.017-2.703-11.017-2.703l-12.826 2.449-0.037 0.835 1.149 0.234c0.297 1.435-0.367 3.291-0.367 3.291l-1.074 0.286v0.788l2.984 1.253c0 0-0.517 0-2.785 0.43s-2.984 1.898-2.984 2.864c0 0.631 0.102 1.552 0.625 2.563 0.279-0.079 0.503-0.413 0.887-0.821-0.185-0.535-0.254-1.113-0.254-1.6 0-0.918 0.847-2.127 2.044-1.43 0.365 0.213 2.401 1.425 2.401 1.425s2.125-0.73 3.429 1.327c3.498-1.028 3.94 2.906 3.94 2.906l14.212-4.518c0 0-0.387 1.362-0.281 2.344 0.105 0.983 0.785 1.816 0.785 1.816l-13.211 5.201-1.526 2.22 16.313-6.491 0.079-1.074c-0.815-0.301-1.075-0.965-1.149-2s0.297-2.336 0.297-2.336l0.89-0.301v-0.969l-1.038-0.332c1.074-0.868 1.482-2.425 1.519-3.694zM16.086 17.492l-11.064-5.32c0 0 0.964-1.903 0.593-3.471l8.654 2.737 1.556-0.073c0.001 0 1.67 0.888 0.261 6.127zM28.376 14.78c-1.242 0.192-11.007 2.844-11.007 2.844s1.207-2.922 0.070-6.243c0 0 9.541-1.851 10.428-1.946 0.888-0.095 2.355 0.517 2.248 2.497-0.105 1.981-0.496 2.657-1.739 2.848zM12.194 23.761c-0.565-0.824 0.588-1.954 0.588-1.954l-1.601-1.695c0 0-1.248 1.224-1.93 0.824-0.683-0.402-0.471-1.766-0.471-1.766h-2.425c0 0 0.306 1.295-0.635 1.766-0.942 0.471-1.907-0.754-1.907-0.754l-1.694 1.647c0 0 1.482 1.013 0.706 2.096-0.424 0.591-1.719 0.495-1.719 0.495v2.33c0 0 1.601-0.094 1.907 0.73 0.306 0.823-0.824 1.766-0.824 1.766l1.648 1.694c0 0 1.271-1.177 1.977-0.776 0.706 0.399 0.541 1.836 0.541 1.836h2.354c0 0-0.165-1.53 0.824-1.884s1.647 0.824 1.647 0.824l1.766-1.719c-0.471-0.47-1.177-1.342-0.706-2.048 0.471-0.707 1.694-0.354 1.694-0.354v-2.519c0.001 0.002-1.176 0.284-1.74-0.539zM7.556 27.896c-1.296 0-2.346-1.052-2.346-2.347 0-1.297 1.050-2.347 2.346-2.347s2.347 1.050 2.347 2.347c0 1.296-1.051 2.347-2.347 2.347z"></path>
</svg>
