<!-- Generated by IcoMoon.io -->
<svg version="1.1" xmlns="http://www.w3.org/2000/svg" width="64" height="64" viewBox="0 0 64 64">
<title>edit_course</title>
<path d="M12.224 16.262l-1.958-0.014-5.432 16.908 4.236-2.442 3.154-14.452zM27.316 28.2c0.972 0.358 1.702 1.086 2.482 1.74v-22.522c-0.148-0.29-0.514-0.876-1.52-1.134-1.684-0.438-3.5 0.114-11.68 7.954-0.204 0.946-3.462 15.876-3.462 15.876s5.014-1.154 5.878-1.364c2.612-1.122 5.37-1.626 8.302-0.55zM51.284 32.356c-1.324-6.068-3.722-17.052-3.956-18.12-8.178-7.84-10.254-8.39-11.938-7.954-1.006 0.258-1.372 0.844-1.52 1.134v22.52c0.782-0.652 1.51-1.382 2.48-1.74 5.436-1.99 10.536 1.448 14.934 4.16zM54.298 16.614l-2.524-0.022 4.322 19.798-2.938 2.318c-3.086-2.442-12.268-8.342-17.636-6.37-1.63 0.602-2.794 2.776-3.558 5.004-0.764-2.228-1.93-4.402-3.56-5.004-0.956-0.352-3.034-0.454-4.176-0.368 5.968 4.422 3.12 7.6 3.12 7.6l3.386 2.426h31.2l-7.636-25.382zM24.24 41.346c-1.128-1.648 1.176-3.908 1.176-3.908l-3.202-3.388c0 0-2.494 2.446-3.86 1.646s-0.942-3.53-0.942-3.53h-4.848c0 0 0.612 2.588-1.272 3.53s-3.812-1.506-3.812-1.506l-3.39 3.292c0 0 2.966 2.028 1.412 4.192-0.848 1.184-3.436 0.99-3.436 0.99v4.662c0 0 3.202-0.188 3.812 1.458s-1.648 3.532-1.648 3.532l3.296 3.388c0 0 2.542-2.352 3.956-1.552s1.082 3.674 1.082 3.674h4.708c0 0-0.328-3.062 1.648-3.77 1.976-0.704 3.294 1.648 3.294 1.648l3.532-3.438c-0.942-0.938-2.354-2.684-1.412-4.094 0.942-1.414 3.39-0.708 3.39-0.708v-5.040c0 0.004-2.354 0.57-3.484-1.078zM14.966 49.618c-2.592 0-4.694-2.104-4.694-4.694 0-2.594 2.102-4.694 4.694-4.694s4.692 2.1 4.692 4.694c0 2.59-2.1 4.694-4.692 4.694z"></path>
</svg>
