<!-- Generated by IcoMoon.io -->
<svg version="1.1" xmlns="http://www.w3.org/2000/svg" width="64" height="64" viewBox="0 0 64 64">
<title>employee_about</title>
<path d="M61.26 32.1c-1.16-1.16-6-6-6.88-6.88s-2.26-1.38-3.14-1.38h-11.58c-0.44 0-0.86 0.1-1.24 0.28 0.6-1.56 0.96-3.24 0.96-5.020 0-7.52-5.96-13.6-13.3-13.6s-13.3 6.1-13.3 13.6c0 3.5 1.3 6.68 3.42 9.080-7.96 4.18-13.46 13.12-13.46 23.5 0 1.16 0.14 4.14 2.16 4.14s8.3 0 8.3 0 7.080 3.82 13.020 3.82c4 0 8.56-1.58 11.32-2.72 0.54 0.56 1.3 0.9 2.14 0.9h20.020c1.66 0 3-1.34 3-3v-19.62c-0.040-0.78-0.1-1.76-1.44-3.1zM26.060 9.82c5 0 9.040 4.14 9.040 9.24s-4.040 9.24-9.040 9.24c-4.98 0-9.040-4.14-9.040-9.24s4.060-9.24 9.040-9.24zM36.66 51.78c-1.14 0.68-6.32 3.68-10.54 3.68-4.74 0-10.7-3.82-10.7-3.82s-0.62-3.020 1.74-8.7l-2.52-0.88c0 0-2.32 4.1-2.32 9.58-1.12 0-3.24 0-5.080 0 0-9.48 5.7-17.5 13.5-20.1 1.62 0.72 3.42 1.14 5.3 1.14 1.94 0 3.8-0.44 5.46-1.22 1.84 0.58 3.56 1.48 5.14 2.62v17.7zM36.66 28.32c-0.22-0.12-0.42-0.24-0.58-0.32 0.2-0.24 0.4-0.5 0.58-0.74v1.060zM40.66 27.86h8v2h-8v-2zM40.66 33.86h8v2h-8v-2zM58.66 53.86h-18v-2h18v2zM58.66 47.86h-18v-2h18v2zM58.66 41.86h-18v-2h18v2zM52.56 37.9c-1.020 0-1.88-0.84-1.88-2.58s0-8.7 0-8.7l10.7 11.28c-0.020 0-7.82 0-8.82 0z"></path>
</svg>
