<!-- Generated by IcoMoon.io -->
<svg version="1.1" xmlns="http://www.w3.org/2000/svg" width="32" height="32" viewBox="0 0 32 32">
<title>enrolled_course</title>
<path d="M23.9 9.6c-2.4-0.3-4.1 0.5-4.1 0.5l-1.1-2.4-3.4 7 7.3 1.7-1-2.3c0 0 1.3-0.9 3.2-1 2.1-0.1 5.8 1.1 7 5.8-1.1-6.9-5.3-9-7.9-9.3z"></path>
<path d="M20.2 20.4c-0.2-0.9-0.7-3.1-0.7-3.1l-5.2-1.4c0 0 0.7-4.3 1.1-5.6-0.8-0.5-1.2-0.6-1.6-0.5s-0.6 0.3-0.6 0.5v9.1c0.3-0.3 0.6-0.6 1-0.7 2.1-0.8 4.2 0.6 6 1.7z"></path>
<path d="M10.5 18.7c0.4 0.1 0.7 0.4 1 0.7v-9.1c-0.1-0.1-0.2-0.4-0.6-0.5-0.7-0.2-1.4 0-4.7 3.2-0.1 0.4-1.1 4.9-1.6 7.3 1.7-1 3.7-2.4 5.9-1.6z"></path>
<path d="M21.1 17.4l1 4.6-1.2 0.9c-1.2-1-5-3.4-7.1-2.6-0.7 0.2-1.1 1.1-1.4 2-0.3-0.9-0.8-1.8-1.4-2-2.2-0.7-6 1.7-7.2 2.6l-1.2-0.9 1.8-8.1h-0.8l-3.4 10.4h24.2l-2-6.6-1.3-0.3z"></path>
</svg>
