<!-- Generated by IcoMoon.io -->
<svg version="1.1" xmlns="http://www.w3.org/2000/svg" width="64" height="64" viewBox="0 0 64 64">
<title>enrolled_course</title>
<path d="M47.8 19.2c-4.8-0.6-8.2 1-8.2 1l-2.2-4.8-6.8 14 14.6 3.4-2-4.6c0 0 2.6-1.8 6.4-2 4.2-0.2 11.6 2.2 14 11.6-2.2-13.8-10.6-18-15.8-18.6z"></path>
<path d="M40.4 40.8c-0.4-1.8-1.4-6.2-1.4-6.2l-10.4-2.8c0 0 1.4-8.6 2.2-11.2-1.6-1-2.4-1.2-3.2-1s-1.2 0.6-1.2 1v18.2c0.6-0.6 1.2-1.2 2-1.4 4.2-1.6 8.4 1.2 12 3.4z"></path>
<path d="M21 37.4c0.8 0.2 1.4 0.8 2 1.4v-18.2c-0.2-0.2-0.4-0.8-1.2-1-1.4-0.4-2.8 0-9.4 6.4-0.2 0.8-2.2 9.8-3.2 14.6 3.4-2 7.4-4.8 11.8-3.2z"></path>
<path d="M42.2 34.8l2 9.2-2.4 1.8c-2.4-2-10-6.8-14.2-5.2-1.4 0.4-2.2 2.2-2.8 4-0.6-1.8-1.6-3.6-2.8-4-4.4-1.4-12 3.4-14.4 5.2l-2.4-1.8 3.6-16.2h-1.6l-6.8 20.8h48.4l-4-13.2-2.6-0.6z"></path>
</svg>
