<!-- Generated by IcoMoon.io -->
<svg version="1.1" xmlns="http://www.w3.org/2000/svg" width="32" height="32" viewBox="0 0 32 32">
<title>equivalent_events</title>
<path d="M27 18.5l1 0.7v-9.9c0-0.9-0.5-1.7-1.3-2 0.1 0.2 0.3 0.5 0.3 0.8v10.4zM8 27.6v-1h-2.1c-0.5 0-0.9-0.4-0.9-0.9v-13h20v6h1v-10.9c0-1.2-1-2.1-2.1-2.1h-1.9v-2.5c0-0.5-0.5-0.9-1-0.9s-1 0.4-1 0.9v2.4h-10v-2.4c0-0.5-0.5-0.9-1-0.9s-1 0.4-1 0.9v2.4h-1.9c-1.2 0-2.1 1-2.1 2.2v17.8c0 1.2 1 2.1 2.1 2.1h1.9zM20 6.9v0.7c0 0.9 1 0.9 1 0.9 0.5 0 1-0.4 1-0.9v-0.6c0.2 0.2 0.3 0.6 0.3 0.9 0 0.8-0.6 1.4-1.4 1.4s-1.4-0.6-1.4-1.4c0.1-0.4 0.2-0.7 0.5-1zM8 6.9v0.7c0 0.9 1 0.9 1 0.9 0.5 0 1-0.4 1-0.9v-0.6c0.2 0.2 0.3 0.6 0.3 0.9 0 0.8-0.6 1.4-1.4 1.4s-1.4-0.6-1.4-1.4c0.1-0.4 0.2-0.7 0.5-1zM6.8 28.6c-0.3 0-0.5 0-0.8-0.1 0.3 0.8 1.1 1.2 2 1.2h1.6l-0.7-1h-2.1zM26 19.6l-1.4 1.5 1.4 1.6h-11.2l1.5-1.6-1.5-1.4-6 6 6 6 1.5-1.5-1.4-1.5h11.1l-1.4 1.5 1.5 1.5 6-6-6.1-6.1zM12.9 26.7l-1.1-1 1.1-1h15.1l1.1 1-1.1 1h-15.1z"></path>
</svg>
