<!-- Generated by IcoMoon.io -->
<svg version="1.1" xmlns="http://www.w3.org/2000/svg" width="64" height="64" viewBox="0 0 64 64">
<title>equivalent_events</title>
<path d="M54 37l2 1.4v-19.8c0-1.8-1-3.4-2.6-4 0.2 0.4 0.6 1 0.6 1.6v20.8zM16 55.2v-2h-4.2c-1 0-1.8-0.8-1.8-1.8v-26h40v12h2v-21.8c0-2.4-2-4.2-4.2-4.2h-3.8v-5c0-1-1-1.8-2-1.8s-2 0.8-2 1.8v4.8h-20v-4.8c0-1-1-1.8-2-1.8s-2 0.8-2 1.8v4.8h-3.8c-2.4 0-4.2 2-4.2 4.4v35.6c0 2.4 2 4.2 4.2 4.2h3.8zM40 13.8v1.4c0 1.8 2 1.8 2 1.8 1 0 2-0.8 2-1.8v-1.2c0.4 0.4 0.6 1.2 0.6 1.8 0 1.6-1.2 2.8-2.8 2.8s-2.8-1.2-2.8-2.8c0.2-0.8 0.4-1.4 1-2zM16 13.8v1.4c0 1.8 2 1.8 2 1.8 1 0 2-0.8 2-1.8v-1.2c0.4 0.4 0.6 1.2 0.6 1.8 0 1.6-1.2 2.8-2.8 2.8s-2.8-1.2-2.8-2.8c0.2-0.8 0.4-1.4 1-2zM13.6 57.2c-0.6 0-1 0-1.6-0.2 0.6 1.6 2.2 2.4 4 2.4h3.2l-1.4-2h-4.2zM52 39.2l-2.8 3 2.8 3.2h-22.4l3-3.2-3-2.8-12 12 12 12 3-3-2.8-3h22.2l-2.8 3 3 3 12-12-12.2-12.2zM25.8 53.4l-2.2-2 2.2-2h30.2l2.2 2-2.2 2h-30.2z"></path>
</svg>
