<!-- Generated by IcoMoon.io -->
<svg version="1.1" xmlns="http://www.w3.org/2000/svg" width="64" height="64" viewBox="0 0 64 64">
<title>events_multiple</title>
<path d="M45.746 53.292c2.364 0 4.282-1.922 4.282-4.282v-35.458c0-2.368-1.918-4.286-4.282-4.286h-3.772v-4.78c0-0.984-1.048-1.784-2.034-1.784s-1.91 0.798-1.91 1.784v4.782h-20.056v-4.782c0-0.984-1.048-1.784-2.034-1.784s-1.908 0.798-1.908 1.784v4.782h-3.766c-2.364 0-4.282 1.918-4.282 4.286v35.46c0 2.36 1.918 4.282 4.282 4.282h35.48zM38.032 11.85v1.378c0 1.892 1.91 1.786 1.91 1.786 0.984 0 2.034-0.8 2.034-1.786v-1.2c0.426 0.484 0.694 1.114 0.694 1.808 0 1.516-1.23 2.744-2.746 2.744-1.52 0-2.75-1.228-2.75-2.744-0.002-0.78 0.33-1.484 0.858-1.986zM14.032 11.85v1.378c0 1.892 1.91 1.786 1.91 1.786 0.986 0 2.034-0.8 2.034-1.786v-1.2c0.424 0.486 0.692 1.116 0.692 1.81 0 1.516-1.23 2.744-2.748 2.744s-2.748-1.228-2.748-2.744c0-0.782 0.332-1.486 0.86-1.988zM7.982 49.446v-26.136h40.046v26.136c0 0.988-0.8 1.786-1.784 1.786h-36.478c-0.982-0.002-1.784-0.798-1.784-1.786zM47.904 57.296c3.748 0 6.112-3.122 6.112-6.602v-34.076c0-1.83-0.906-3.392-2.528-4.004 0.178 0.466 0.464 0.976 0.464 1.51v36.834c0 2.364-1.916 4.278-4.282 4.278h-35.976c-0.532 0-1.038-0.098-1.506-0.274 0.61 1.622 2.17 2.336 4.004 2.336h33.712zM55.488 16.614c0.178 0.466 0.464 0.976 0.464 1.508v36.834c0 2.364-1.916 4.278-4.282 4.278h-35.976c-0.532 0-1.038-0.098-1.506-0.274 0.61 1.622 2.17 2.336 4.004 2.336h33.712c3.746 0 6.112-3.122 6.112-6.602v-34.076c0-1.83-0.906-3.392-2.528-4.004z"></path>
</svg>
