<!-- Generated by IcoMoon.io -->
<svg version="1.1" xmlns="http://www.w3.org/2000/svg" width="64" height="64" viewBox="0 0 64 64">
<title>events</title>
<path d="M47.746 55.292c2.364 0 4.282-1.918 4.282-4.284v-35.458c0-2.368-1.918-4.286-4.282-4.286h-3.772v-4.78c0-0.982-1.048-1.784-2.034-1.784s-1.91 0.8-1.91 1.784v4.782h-20.056v-4.782c0-0.982-1.048-1.784-2.036-1.784-0.984 0-1.908 0.8-1.908 1.784v4.782h-3.762c-2.366 0-4.284 1.918-4.284 4.286v35.456c0 2.366 1.918 4.284 4.284 4.284h35.478zM40.032 13.85v1.38c0 1.89 1.91 1.784 1.91 1.784 0.984 0 2.034-0.8 2.034-1.784v-1.2c0.426 0.484 0.694 1.114 0.694 1.808 0 1.516-1.23 2.746-2.746 2.746-1.52 0-2.75-1.23-2.75-2.746-0.002-0.784 0.33-1.486 0.858-1.988zM16.032 13.852v1.378c0 1.89 1.908 1.784 1.908 1.784 0.986 0 2.036-0.8 2.036-1.784v-1.2c0.426 0.484 0.694 1.114 0.694 1.808 0 1.516-1.23 2.746-2.748 2.746s-2.75-1.23-2.75-2.746c0-0.784 0.332-1.486 0.86-1.986zM9.982 51.448v-26.14h40.046v26.138c0 0.986-0.8 1.784-1.784 1.784h-36.478c-0.982 0-1.784-0.796-1.784-1.782zM53.488 14.614c0.178 0.466 0.466 0.976 0.466 1.508v36.836c0 2.364-1.918 4.278-4.284 4.278h-35.976c-0.532 0-1.038-0.096-1.506-0.274 0.61 1.622 2.17 2.338 4.004 2.338h33.712c3.748 0 6.112-3.126 6.112-6.604v-34.076c0-1.834-0.906-3.394-2.528-4.006z"></path>
</svg>
