<!-- Generated by IcoMoon.io -->
<svg version="1.1" xmlns="http://www.w3.org/2000/svg" width="32" height="32" viewBox="0 0 32 32">
<title>events_multiple</title>
<path d="M22.873 26.646c1.182 0 2.141-0.961 2.141-2.141v-17.729c0-1.184-0.959-2.143-2.141-2.143h-1.886v-2.39c0-0.492-0.524-0.892-1.017-0.892s-0.955 0.399-0.955 0.892v2.391h-10.028v-2.391c0-0.492-0.524-0.892-1.017-0.892s-0.954 0.399-0.954 0.892v2.391h-1.883c-1.182 0-2.141 0.959-2.141 2.143v17.73c0 1.18 0.959 2.141 2.141 2.141h17.74zM19.016 5.925v0.689c0 0.946 0.955 0.893 0.955 0.893 0.492 0 1.017-0.4 1.017-0.893v-0.6c0.213 0.242 0.347 0.557 0.347 0.904 0 0.758-0.615 1.372-1.373 1.372-0.76 0-1.375-0.614-1.375-1.372-0.001-0.39 0.165-0.742 0.429-0.993zM7.016 5.925v0.689c0 0.946 0.955 0.893 0.955 0.893 0.493 0 1.017-0.4 1.017-0.893v-0.6c0.212 0.243 0.346 0.558 0.346 0.905 0 0.758-0.615 1.372-1.374 1.372s-1.374-0.614-1.374-1.372c0-0.391 0.166-0.743 0.43-0.994zM3.991 24.723v-13.068h20.023v13.068c0 0.494-0.4 0.893-0.892 0.893h-18.239c-0.491-0.001-0.892-0.399-0.892-0.893zM23.952 28.648c1.874 0 3.056-1.561 3.056-3.301v-17.038c0-0.915-0.453-1.696-1.264-2.002 0.089 0.233 0.232 0.488 0.232 0.755v18.417c0 1.182-0.958 2.139-2.141 2.139h-17.988c-0.266 0-0.519-0.049-0.753-0.137 0.305 0.811 1.085 1.168 2.002 1.168h16.856zM27.744 8.307c0.089 0.233 0.232 0.488 0.232 0.754v18.417c0 1.182-0.958 2.139-2.141 2.139h-17.988c-0.266 0-0.519-0.049-0.753-0.137 0.305 0.811 1.085 1.168 2.002 1.168h16.856c1.873 0 3.056-1.561 3.056-3.301v-17.038c0-0.915-0.453-1.696-1.264-2.002z"></path>
</svg>
