<!-- Generated by IcoMoon.io -->
<svg version="1.1" xmlns="http://www.w3.org/2000/svg" width="32" height="32" viewBox="0 0 32 32">
<title>events</title>
<path d="M23.873 27.646c1.182 0 2.141-0.959 2.141-2.142v-17.729c0-1.184-0.959-2.143-2.141-2.143h-1.886v-2.39c0-0.491-0.524-0.892-1.017-0.892s-0.955 0.4-0.955 0.892v2.391h-10.028v-2.391c0-0.491-0.524-0.892-1.018-0.892-0.492 0-0.954 0.4-0.954 0.892v2.391h-1.881c-1.183 0-2.142 0.959-2.142 2.143v17.728c0 1.183 0.959 2.142 2.142 2.142h17.739zM20.016 6.925v0.69c0 0.945 0.955 0.892 0.955 0.892 0.492 0 1.017-0.4 1.017-0.892v-0.6c0.213 0.242 0.347 0.557 0.347 0.904 0 0.758-0.615 1.373-1.373 1.373-0.76 0-1.375-0.615-1.375-1.373-0.001-0.392 0.165-0.743 0.429-0.994zM8.016 6.926v0.689c0 0.945 0.954 0.892 0.954 0.892 0.493 0 1.018-0.4 1.018-0.892v-0.6c0.213 0.242 0.347 0.557 0.347 0.904 0 0.758-0.615 1.373-1.374 1.373s-1.375-0.615-1.375-1.373c0-0.392 0.166-0.743 0.43-0.993zM4.991 25.724v-13.070h20.023v13.069c0 0.493-0.4 0.892-0.892 0.892h-18.239c-0.491 0-0.892-0.398-0.892-0.891zM26.744 7.307c0.089 0.233 0.233 0.488 0.233 0.754v18.418c0 1.182-0.959 2.139-2.142 2.139h-17.988c-0.266 0-0.519-0.048-0.753-0.137 0.305 0.811 1.085 1.169 2.002 1.169h16.856c1.874 0 3.056-1.563 3.056-3.302v-17.038c0-0.917-0.453-1.697-1.264-2.003z"></path>
</svg>
