<!-- Generated by IcoMoon.io -->
<svg version="1.1" xmlns="http://www.w3.org/2000/svg" width="32" height="32" viewBox="0 0 32 32">
<title>event</title>
<path d="M24.87 6.635h-1.886v-2.391c0-0.492-0.524-0.892-1.017-0.892s-0.955 0.399-0.955 0.892v2.391h-10.028v-2.391c0-0.492-0.524-0.892-1.017-0.892s-0.954 0.4-0.954 0.892v2.391h-1.883c-1.182 0-2.141 0.959-2.141 2.143v17.729c0 1.181 0.959 2.141 2.141 2.141h17.74c1.182 0 2.141-0.96 2.141-2.141v-17.73c0-1.183-0.959-2.142-2.141-2.142zM21.013 7.927v0.689c0 0.946 0.955 0.893 0.955 0.893 0.492 0 1.017-0.4 1.017-0.893v-0.6c0.213 0.242 0.347 0.557 0.347 0.904 0 0.758-0.615 1.372-1.373 1.372-0.76 0-1.375-0.614-1.375-1.372-0.001-0.391 0.165-0.742 0.429-0.993zM9.013 7.927v0.689c0 0.946 0.955 0.893 0.955 0.893 0.493 0 1.017-0.4 1.017-0.893v-0.6c0.213 0.242 0.347 0.557 0.347 0.904 0 0.758-0.615 1.372-1.374 1.372s-1.375-0.613-1.375-1.371c0-0.392 0.167-0.743 0.43-0.994zM26.012 26.725c0 0.494-0.4 0.892-0.892 0.892h-18.24c-0.492 0-0.892-0.397-0.892-0.892v-13.069h20.023v13.069z"></path>
</svg>
