<!-- Generated by IcoMoon.io -->
<svg version="1.1" xmlns="http://www.w3.org/2000/svg" width="64" height="64" viewBox="0 0 64 64">
<title>event</title>
<path d="M49.74 13.27h-3.772v-4.782c0-0.984-1.048-1.784-2.034-1.784s-1.91 0.798-1.91 1.784v4.782h-20.056v-4.782c0-0.984-1.048-1.784-2.034-1.784s-1.908 0.8-1.908 1.784v4.782h-3.766c-2.364 0-4.282 1.918-4.282 4.286v35.458c0 2.362 1.918 4.282 4.282 4.282h35.48c2.364 0 4.282-1.92 4.282-4.282v-35.46c0-2.366-1.918-4.284-4.282-4.284zM42.026 15.854v1.378c0 1.892 1.91 1.786 1.91 1.786 0.984 0 2.034-0.8 2.034-1.786v-1.2c0.426 0.484 0.694 1.114 0.694 1.808 0 1.516-1.23 2.744-2.746 2.744-1.52 0-2.75-1.228-2.75-2.744-0.002-0.782 0.33-1.484 0.858-1.986zM18.026 15.854v1.378c0 1.892 1.91 1.786 1.91 1.786 0.986 0 2.034-0.8 2.034-1.786v-1.2c0.426 0.484 0.694 1.114 0.694 1.808 0 1.516-1.23 2.744-2.748 2.744s-2.75-1.226-2.75-2.742c0-0.784 0.334-1.486 0.86-1.988zM52.024 53.45c0 0.988-0.8 1.784-1.784 1.784h-36.48c-0.984 0-1.784-0.794-1.784-1.784v-26.138h40.046v26.138z"></path>
</svg>
