<!-- Generated by IcoMoon.io -->
<svg version="1.1" xmlns="http://www.w3.org/2000/svg" width="32" height="32" viewBox="0 0 32 32">
<title>exam_success_rate</title>
<path d="M20.719 23.029l-4.006 0.008 0.002 2.945h-1.582c-1.039-2.014-3.758-5.365-3.758-5.365l-2.023 1.734c0 0 1.924 2.123 3.628 3.631h-5.255v-2.516l-2.006-2.5v5.619c0 0.781 0.634 1.416 1.417 1.416h10.158l5.157-5.010-1.732-1.162v1.2zM7.725 5.953h12.994v4.701l2.006 2.282v-7.52c0-0.784-0.634-1.418-1.416-1.418h-14.173c-0.783 0-1.417 0.634-1.417 1.418v4.138l2.006 2.439v-6.040zM18.713 7.965h-8.972v2.014h8.972v-2.014zM9.741 13.979h5.573l2.153-2.013h-7.726v2.013zM9.741 17.979h7.64l-1.696-2.014h-5.944v0.025c-0.113-0.224-0.282-0.483-0.541-0.786-1.096-1.277-1.371-1.598-2.375-2.771-1.005-1.17-1.812-1.032-1.812-1.032l4.728 5.511v1.067zM18.713 21.979v-2.012h-6.972l1.293 2.012h5.679zM11.056 20.242l-3.925-4.59-2.343 2.010 4.245 4.318 2.023-1.738zM4.593 12.385c-1.188-1.382-3.167-2.829-4.019-2.097-0.852 0.729 0.396 2.618 1.675 4.107 1.279 1.49 1.918 2.238 1.918 2.238l2.343-2.011c0.001 0-0.729-0.852-1.917-2.237zM31.419 8.539c-7.128 3.157-8.886 7.977-8.886 7.977l-2.406-4.567-3.428 2.693 5.752 6.855h0.693c4.324-10.895 8.561-12.549 8.561-12.549l-0.286-0.409z"></path>
</svg>
