<!-- Generated by IcoMoon.io -->
<svg version="1.1" xmlns="http://www.w3.org/2000/svg" width="32" height="32" viewBox="0 0 32 32">
<title>exam_delete</title>
<path d="M8.9 14.2c-1.1-1.3-1.4-1.6-2.4-2.8s-1.8-1-1.8-1l4.9 5.6c0 0 0.4-0.5-0.7-1.8zM22.4 8h-11v2h11v-2zM22.4 12h-11v2h11v-2zM19.2 16h-7.7v2h5.2l2.5-2zM9.4 6h15v9.2l2 0.8v-10.6c0-0.8-0.6-1.4-1.4-1.4h-16.2c-0.7 0-1.4 0.6-1.4 1.4v3.9l2 3.5v-6.8zM15 22v-2h-1.6l1.3 2h0.3zM4.3 11.4c-1.2-1.4-3.2-2.8-4-2.1-0.9 0.7 0.4 2.6 1.7 4.1s1.9 2.2 1.9 2.2l2.3-2c0 0-0.7-0.8-1.9-2.2zM14.3 26.2c-0.1 0-0.4-2.2-0.4-2.8-1.2-1.8-2.8-3.8-2.8-3.8l-2 1.7c0 0 3.1 3.4 4.9 4.6h-4.6v-2.1l-2-2.5v5.2c0 0.8 0.6 1.4 1.4 1.4h6.5l-1.1-1.8c0.1 0.1 0.1 0.1 0.1 0.1zM22.5 17.2c-3.7 0-6.8 3-6.8 6.8 0 3.7 3 6.8 6.8 6.8 3.7 0 6.8-3 6.8-6.8s-3-6.8-6.8-6.8zM26.4 26.9h-1.6l-2.1-2.3-2.1 2.3h-1.5l2.9-3-2.9-3h1.6l2.1 2.2 2.1-2.2h1.5l-2.9 2.9 2.9 3.1zM10.8 19.2l-3.9-4.6-2.3 2 4.1 4.4 2.1-1.8z"></path>
</svg>
