<!-- Generated by IcoMoon.io -->
<svg version="1.1" xmlns="http://www.w3.org/2000/svg" width="64" height="64" viewBox="0 0 64 64">
<title>exam_success_rate</title>
<path d="M41.438 46.058l-8.012 0.016 0.004 5.89h-3.164c-2.078-4.028-7.516-10.73-7.516-10.73l-4.046 3.468c0 0 3.848 4.246 7.256 7.262h-10.51v-5.032l-4.012-5v11.238c0 1.562 1.268 2.832 2.834 2.832h20.316l10.314-10.020-3.464-2.324v2.4zM15.45 11.906h25.988v9.402l4.012 4.564v-15.040c0-1.568-1.268-2.836-2.832-2.836h-28.346c-1.566 0-2.834 1.268-2.834 2.836v8.276l4.012 4.878v-12.080zM37.426 15.93h-17.944v4.028h17.944v-4.028zM19.482 27.958h11.146l4.306-4.026h-15.452v4.026zM19.482 35.958h15.28l-3.392-4.028h-11.888v0.050c-0.226-0.448-0.564-0.966-1.082-1.572-2.192-2.554-2.742-3.196-4.75-5.542-2.010-2.34-3.624-2.064-3.624-2.064l9.456 11.022v2.134zM37.426 43.958v-4.024h-13.944l2.586 4.024h11.358zM22.112 40.484l-7.85-9.18-4.686 4.020 8.49 8.636 4.046-3.476zM9.186 24.77c-2.376-2.764-6.334-5.658-8.038-4.194-1.704 1.458 0.792 5.236 3.35 8.214 2.558 2.98 3.836 4.476 3.836 4.476l4.686-4.022c0.002 0-1.458-1.704-3.834-4.474zM62.838 17.078c-14.256 6.314-17.772 15.954-17.772 15.954l-4.812-9.134-6.856 5.386 11.504 13.71h1.386c8.648-21.79 17.122-25.098 17.122-25.098l-0.572-0.818z"></path>
</svg>
