<!-- Generated by IcoMoon.io -->
<svg version="1.1" xmlns="http://www.w3.org/2000/svg" width="64" height="64" viewBox="0 0 64 64">
<title>exam_delete</title>
<path d="M17.8 28.4c-2.2-2.6-2.8-3.2-4.8-5.6s-3.6-2-3.6-2l9.8 11.2c0 0 0.8-1-1.4-3.6zM44.8 16h-22v4h22v-4zM44.8 24h-22v4h22v-4zM38.4 32h-15.4v4h10.4l5-4zM18.8 12h30v18.4l4 1.6v-21.2c0-1.6-1.2-2.8-2.8-2.8h-32.4c-1.4 0-2.8 1.2-2.8 2.8v7.8l4 7v-13.6zM30 44v-4h-3.2l2.6 4h0.6zM8.6 22.8c-2.4-2.8-6.4-5.6-8-4.2-1.8 1.4 0.8 5.2 3.4 8.2s3.8 4.4 3.8 4.4l4.6-4c0 0-1.4-1.6-3.8-4.4zM28.6 52.4c-0.2 0-0.8-4.4-0.8-5.6-2.4-3.6-5.6-7.6-5.6-7.6l-4 3.4c0 0 6.2 6.8 9.8 9.2h-9.2v-4.2l-4-5v10.4c0 1.6 1.2 2.8 2.8 2.8h13l-2.2-3.6c0.2 0.2 0.2 0.2 0.2 0.2zM45 34.4c-7.4 0-13.6 6-13.6 13.6 0 7.4 6 13.6 13.6 13.6 7.4 0 13.6-6 13.6-13.6s-6-13.6-13.6-13.6zM52.8 53.8h-3.2l-4.2-4.6-4.2 4.6h-3l5.8-6-5.8-6h3.2l4.2 4.4 4.2-4.4h3l-5.8 5.8 5.8 6.2zM21.6 38.4l-7.8-9.2-4.6 4 8.2 8.8 4.2-3.6z"></path>
</svg>
