<!-- Generated by IcoMoon.io -->
<svg version="1.1" xmlns="http://www.w3.org/2000/svg" width="64" height="64" viewBox="0 0 64 64">
<title>exam_copy</title>
<path d="M28.8 32h-6v2h6v-2zM22.4 37.8c-1.2 1 0.6 3.6 2.4 5.8 1.8 2 2.6 3.2 2.6 3.2l3.2-2.8c0 0-1-1.2-2.6-3.2-1.8-2-4.4-4-5.6-3zM31 40.8c-1.4-1.6-2.6-1.4-2.6-1.4l6.8 7.8c0 0 0.6-0.8-1-2.6-1.4-1.6-1.8-2.2-3.2-3.8zM43 61.8c1.2-1-5.6-9.4-5.6-9.4l-2.8 2.4c0 0 7.2 8 8.4 7zM18.8 12h30v14h4v-15.2c0-1.6-1.2-2.8-2.8-2.8h-32.4c-1.4 0-2.8 1.2-2.8 2.8v7.8l4 7v-13.6zM56.8 30h-22c-1 0-2 0.8-2 2v7.2c0 0 6.8 7.8 4.4 10 7.2 9.4 7.8 13 7.8 13s-4 0-5.6 0c-1.6 0-4.6-3.8-4.6-3.8l-2-2.4v6c0 1 0.8 2 2 2h16.6l7.4-6.2v-25.8c0-1.2-0.8-2-2-2zM52.8 56h-10.4l-1.2-2h11.6v2zM52.8 50h-14v-2h14v2zM52.8 44h-14v-2h14v2zM52.8 38h-14v-2h14v2zM28.2 48.2l6 6 2.8-2.4-5.4-6.4-3.4 2.8zM44.8 24h-22v4h8v-2h14v-2zM18.8 34.4l-5.2-5-4.6 4 9.8 9.2v-8.2zM18.8 52v-4.2l-4-5v10.4c0 1.6 1.2 2.8 2.8 2.8h11.6l-2.6-4h-7.8zM8.6 22.8c-2.4-2.8-6.4-5.6-8-4.2-1.8 1.4 0.8 5.2 3.4 8.2s3.8 4.4 3.8 4.4l4.6-4c0 0-1.4-1.6-3.8-4.4zM44.8 16h-22v4h22v-4zM17.8 28.4c-2.2-2.6-2.8-3.2-4.8-5.6s-3.6-2-3.6-2l9.8 11.2c0 0 0.8-1-1.4-3.6z"></path>
</svg>
