<!-- Generated by IcoMoon.io -->
<svg version="1.1" xmlns="http://www.w3.org/2000/svg" width="32" height="32" viewBox="0 0 32 32">
<title>exam</title>
<path d="M25.015 3.998h-16.173c-0.783 0-1.417 0.635-1.417 1.418v3.897l2.005 3.454v-6.812h14.995v17.074l-4.006 0.010 0.002 2.945h-5.204c-0.226-1.549-4.135-6.367-4.135-6.367l-2.023 1.734c0 0 3.058 3.373 4.878 4.633h-4.506v-2.098l-2.005-2.5v5.196c0 0.782 0.634 1.418 1.417 1.418h12.158l5.431-5.274v-17.31c-0.001-0.783-0.635-1.418-1.417-1.418zM22.419 7.967h-10.972v2.012h10.972v-2.012zM11.447 13.979h10.972v-2.013h-10.972v2.013zM11.447 17.98h10.972v-2.017h-10.972v2.017zM22.419 21.979v-2.014h-8.972l1.292 2.014h7.68zM10.762 19.244l-3.925-4.592-2.343 2.012 4.245 4.314 2.023-1.734zM4.299 11.386c-1.188-1.385-3.167-2.83-4.019-2.099s0.396 2.617 1.675 4.109c1.279 1.49 1.918 2.236 1.918 2.236l2.343-2.010c0.001 0.001-0.729-0.852-1.917-2.236zM8.906 14.203c-1.096-1.277-1.371-1.598-2.375-2.768-1.005-1.171-1.812-1.035-1.812-1.035l4.842 5.645c0 0 0.442-0.563-0.655-1.842z"></path>
</svg>
