<!-- Generated by IcoMoon.io -->
<svg version="1.1" xmlns="http://www.w3.org/2000/svg" width="64" height="64" viewBox="0 0 64 64">
<title>exam</title>
<path d="M50.030 7.996h-32.346c-1.566 0-2.834 1.27-2.834 2.836v7.794l4.010 6.908v-13.624h29.99v34.148l-8.012 0.020 0.004 5.89h-10.408c-0.452-3.098-8.27-12.734-8.27-12.734l-4.046 3.468c0 0 6.116 6.746 9.756 9.266h-9.012v-4.196l-4.010-5v10.392c0 1.564 1.268 2.836 2.834 2.836h24.316l10.862-10.548v-34.62c-0.002-1.566-1.27-2.836-2.834-2.836zM44.838 15.934h-21.944v4.024h21.944v-4.024zM22.894 27.958h21.944v-4.026h-21.944v4.026zM22.894 35.96h21.944v-4.034h-21.944v4.034zM44.838 43.958v-4.028h-17.944l2.584 4.028h15.36zM21.524 38.488l-7.85-9.184-4.686 4.024 8.49 8.628 4.046-3.468zM8.598 22.772c-2.376-2.77-6.334-5.66-8.038-4.198-1.704 1.46 0.792 5.234 3.35 8.218 2.558 2.98 3.836 4.472 3.836 4.472l4.686-4.020c0.002 0.002-1.458-1.704-3.834-4.472zM17.812 28.406c-2.192-2.554-2.742-3.196-4.75-5.536-2.010-2.342-3.624-2.070-3.624-2.070l9.684 11.29c0 0 0.884-1.126-1.31-3.684z"></path>
</svg>
