<!-- Generated by IcoMoon.io -->
<svg version="1.1" xmlns="http://www.w3.org/2000/svg" width="32" height="32" viewBox="0 0 32 32">
<title>exam_copy</title>
<path d="M14.4 16h-3v1h3v-1zM11.2 18.9c-0.6 0.5 0.3 1.8 1.2 2.9 0.9 1 1.3 1.6 1.3 1.6l1.6-1.4c0 0-0.5-0.6-1.3-1.6-0.9-1-2.2-2-2.8-1.5zM15.5 20.4c-0.7-0.8-1.3-0.7-1.3-0.7l3.4 3.9c0 0 0.3-0.4-0.5-1.3-0.7-0.8-0.9-1.1-1.6-1.9zM21.5 30.9c0.6-0.5-2.8-4.7-2.8-4.7l-1.4 1.2c0 0 3.6 4 4.2 3.5zM9.4 6h15v7h2v-7.6c0-0.8-0.6-1.4-1.4-1.4h-16.2c-0.7 0-1.4 0.6-1.4 1.4v3.9l2 3.5v-6.8zM28.4 15h-11c-0.5 0-1 0.4-1 1v3.6c0 0 3.4 3.9 2.2 5 3.6 4.7 3.9 6.5 3.9 6.5s-2 0-2.8 0c-0.8 0-2.3-1.9-2.3-1.9l-1-1.2v3c0 0.5 0.4 1 1 1h8.3l3.7-3.1v-12.9c0-0.6-0.4-1-1-1zM26.4 28h-5.2l-0.6-1h5.8v1zM26.4 25h-7v-1h7v1zM26.4 22h-7v-1h7v1zM26.4 19h-7v-1h7v1zM14.1 24.1l3 3 1.4-1.2-2.7-3.2-1.7 1.4zM22.4 12h-11v2h4v-1h7v-1zM9.4 17.2l-2.6-2.5-2.3 2 4.9 4.6v-4.1zM9.4 26v-2.1l-2-2.5v5.2c0 0.8 0.6 1.4 1.4 1.4h5.8l-1.3-2h-3.9zM4.3 11.4c-1.2-1.4-3.2-2.8-4-2.1-0.9 0.7 0.4 2.6 1.7 4.1s1.9 2.2 1.9 2.2l2.3-2c0 0-0.7-0.8-1.9-2.2zM22.4 8h-11v2h11v-2zM8.9 14.2c-1.1-1.3-1.4-1.6-2.4-2.8s-1.8-1-1.8-1l4.9 5.6c0 0 0.4-0.5-0.7-1.8z"></path>
</svg>
