<!-- Generated by IcoMoon.io -->
<svg version="1.1" xmlns="http://www.w3.org/2000/svg" width="64" height="64" viewBox="0 0 64 64">
<title>exit_logout</title>
<path d="M40.376 16.496c0 3.772 0.248 4.020 0.248 7.326 2.72 2.42 4.44 5.966 4.44 9.918 0 7.3-5.85 13.214-13.066 13.214-7.218 0-13.068-5.914-13.068-13.214 0-3.614 1.436-6.888 3.766-9.278 0-3.366 0.092-4.060 0.092-7.612-5.924 3.254-9.79 9.6-9.79 16.894 0 10.61 8.508 19.214 19 19.214s19-8.606 19-19.214c0.002-7.568-4.328-14.116-10.622-17.248zM31.646 35.974c1.146 0 4.158-1.86 4.158-4.156v-16.622c0-2.294-1.862-4.156-4.158-4.156-2.294 0-4.156 1.862-4.156 4.156v16.624c0 2.588 3.008 4.154 4.156 4.154z"></path>
</svg>
