<!-- Generated by IcoMoon.io -->
<svg version="1.1" xmlns="http://www.w3.org/2000/svg" width="32" height="32" viewBox="0 0 32 32">
<title>exit_logout</title>
<path d="M20.188 8.248c0 1.886 0.124 2.010 0.124 3.663 1.36 1.21 2.22 2.983 2.22 4.959 0 3.65-2.925 6.607-6.533 6.607s-6.534-2.957-6.534-6.607c0-1.807 0.718-3.444 1.883-4.639 0-1.683 0.046-2.030 0.046-3.806-2.962 1.627-4.895 4.8-4.895 8.447 0 5.305 4.254 9.607 9.5 9.607s9.5-4.303 9.5-9.607c0.001-3.784-2.164-7.058-5.311-8.624zM15.823 17.987c0.573 0 2.079-0.93 2.079-2.078v-8.311c0-1.147-0.931-2.078-2.079-2.078s-2.078 0.931-2.078 2.078v8.312c0 1.294 1.504 2.077 2.078 2.077z"></path>
</svg>
