<!-- Generated by IcoMoon.io -->
<svg version="1.1" xmlns="http://www.w3.org/2000/svg" width="32" height="32" viewBox="0 0 32 32">
<title>export_json</title>
<path d="M16.9 20.6c0.2-0.3 0.4-0.7 0.4-1.2v-1.2c0-0.5-0.1-0.9-0.4-1.2-0.2-0.3-0.6-0.5-1-0.5s-0.8 0.2-1 0.5c-0.2 0.3-0.4 0.7-0.4 1.2v1.2c0 0.5 0.1 0.9 0.4 1.2 0.2 0.3 0.6 0.5 1 0.5 0.5 0 0.8-0.1 1-0.5zM29.1 8.6c-1.1-1.1-5.9-4.9-6.8-5.8s-2.2-1.4-3.1-1.4h-8.8c-1.6 0-2.9 1.3-2.9 2.9v10.1h-4c-1.1 0-2 0.9-2 2v5c0 1.1 0.9 2 2 2h4v4.1c0 1.6 1.3 2.9 2.9 2.9h17.1c1.6 0 2.9-1.3 2.9-2.9v-15.8c0.1-0.8 0-1.8-1.3-3.1zM6.7 20c0 0.6-0.2 1.1-0.6 1.5s-0.9 0.6-1.5 0.6c-0.7 0-1.2-0.2-1.6-0.5s-0.6-0.8-0.6-1.5v0h1.2c0 0.3 0.1 0.6 0.3 0.8s0.4 0.2 0.7 0.2c0.2 0 0.4-0.1 0.6-0.3 0.1-0.2 0.2-0.5 0.2-0.8v-4.4h1.3v4.4zM10.1 22.1c-0.7 0-1.3-0.2-1.8-0.5s-0.7-0.9-0.7-1.5v0h1.2c0 0.4 0.1 0.7 0.3 0.8 0.2 0.2 0.5 0.3 0.9 0.3 0.3 0 0.6-0.1 0.8-0.2s0.3-0.3 0.3-0.6c0-0.2-0.1-0.4-0.3-0.6-0.2-0.1-0.5-0.3-0.9-0.4-0.7-0.2-1.3-0.5-1.7-0.8s-0.6-0.7-0.6-1.2c0-0.5 0.2-1 0.6-1.3s1-0.5 1.6-0.5c0.7 0 1.3 0.2 1.7 0.5 0.4 0.4 0.6 0.8 0.6 1.4v0h-1.2c0-0.3-0.1-0.6-0.3-0.7-0.2-0.2-0.5-0.3-0.8-0.3s-0.6 0.1-0.7 0.2c-0.2 0.2-0.3 0.3-0.3 0.6 0 0.2 0.1 0.4 0.3 0.5s0.5 0.3 1 0.4c0.7 0.2 1.2 0.5 1.6 0.8s0.6 0.7 0.6 1.3c0 0.5-0.2 1-0.6 1.3-0.3 0.4-0.9 0.5-1.6 0.5zM27.5 26.3c0 0.6-0.6 1.2-1.4 1.2h-14.4c-0.4 0-1.2-0.4-1.2-1.3v-2.7h14c1.1 0 2-0.9 2-2v-5c0-1.1-0.9-2-2-2h-14v-8.7c0-0.8 0.5-1.3 1.3-1.3s7.7 0 7.7 0 0 2.7 0 4.1c0 1.4 1.4 2.8 3.1 2.8s4.9 0 4.9 0 0 14.4 0 14.9zM13.3 19.4v-1.2c0-0.8 0.2-1.4 0.7-1.9s1.1-0.8 1.9-0.8c0.8 0 1.4 0.3 1.9 0.8s0.7 1.2 0.7 1.9v1.2c0 0.8-0.2 1.4-0.7 1.9s-1.1 0.8-1.9 0.8c-0.8 0-1.4-0.3-1.9-0.8s-0.7-1.1-0.7-1.9zM19.6 22v-6.4h1.3l2.6 4.3v-4.3h1.3v6.4h-1.3l-2.6-4.3v4.3h-1.3z"></path>
</svg>
