<!-- Generated by IcoMoon.io -->
<svg version="1.1" xmlns="http://www.w3.org/2000/svg" width="64" height="64" viewBox="0 0 64 64">
<title>export_pdf</title>
<path d="M57.8 52v-5.2h-9.4v5.2h-5.6l9.8 12 10.6-12z"></path>
<path d="M20.4 55c-0.8 0-2.4-0.8-2.4-2.6v-3.6h22c2.2 0 4-1.8 4-4v-14.4c0-2.2-1.8-4-4-4h-22v-14.8c0-1.6 1-2.6 2.6-2.6s15.4 0 15.4 0 0 5.4 0 8.2c0 2.8 2.8 5.6 6.2 5.6s9.8 0 9.8 0 0 11.2 0 20h5.8v-19.4c0.2-1.6 0-3.6-2.6-6.2-2.2-2.2-11.8-9.8-13.6-11.6-1.6-1.6-4.4-2.6-6-2.6h-17.8c-3.2 0-5.8 2.6-5.8 5.8v17.4h-7c-2.2 0-4 1.8-4 4v14.4c0 2.2 1.8 4 4 4h7v6.4c0 3.2 2.6 5.8 5.8 5.8h27l-5-6h-19.4zM14 43.2c-1 1-2.2 1.6-3.8 1.6s-3-0.6-3.8-1.6h-0.2c0.2 1 0.2 1.6 0.2 1.8v2.8h-2.6v-14.8h2.2c0 0.2 0.2 0.8 0.4 1.6h0.2c0.8-1.2 2.2-1.8 3.8-1.8s2.8 0.6 3.8 1.6c1 1 1.4 2.6 1.4 4.4-0.2 1.8-0.6 3.2-1.6 4.4zM32 34.4l2.2-0.8v-0.8c0-1.4 0.4-2.4 1-3 0.8-0.6 1.8-1 3.2-1 1 0 2 0.2 2.8 0.4l-0.8 1.8c-0.6-0.2-1.4-0.2-2-0.2s-1 0.2-1.4 0.6c-0.2 0.4-0.4 0.8-0.4 1.6v0.8h3.2v1.8h-3.2v9h-2.8v-9h-1.8v-1.2zM19.2 34.2c1-1 2.2-1.6 3.8-1.6 1.8 0 3 0.6 3.8 1.6h0.2c-0.2-0.8-0.2-1.4-0.2-2v-4.2h2.8v16.4h-2.2l-0.4-1.6h-0.2c-0.8 1.2-2.2 1.8-3.8 1.8s-2.8-0.6-3.8-1.6c-1-1-1.4-2.6-1.4-4.4s0.6-3.2 1.4-4.4z"></path>
<path d="M9.6 34.6c-1 0-1.8 0.2-2.4 0.8s-0.8 1.4-0.8 2.8v0.4c0 1.4 0.2 2.4 0.8 3s1.4 1 2.4 1c1 0 1.6-0.4 2.2-1 0.6-0.8 0.8-1.8 0.8-3 0-1.4-0.2-2.2-0.8-3-0.4-0.6-1.2-1-2.2-1z"></path>
<path d="M23.8 42.8c1.2 0 2-0.2 2.4-0.8s0.8-1.6 0.8-2.8v-0.4c0-1.4-0.2-2.6-0.8-3.2s-1.4-1-2.4-1c-1 0-1.8 0.4-2.2 1-0.6 0.8-0.8 1.8-0.8 3s0.2 2.2 0.8 3 1.2 1.2 2.2 1.2z"></path>
</svg>
