<!-- Generated by IcoMoon.io -->
<svg version="1.1" xmlns="http://www.w3.org/2000/svg" width="32" height="32" viewBox="0 0 32 32">
<title>export_csv</title>
<path d="M28.6 8.6c-1.1-1.1-5.9-4.9-6.8-5.8-0.8-0.8-2.2-1.3-3-1.3h-8.9c-1.6 0-2.9 1.3-2.9 2.9v10.1h-3c-1.1 0-2 0.9-2 2v5c0 1.1 0.9 2 2 2h3v4.1c0 1.6 1.3 2.9 2.9 2.9h17.1c1.6 0 2.9-1.3 2.9-2.9v-15.9c0.1-0.8 0-1.8-1.3-3.1zM9.2 17.7h-1.3c0-0.4-0.1-0.7-0.3-0.9s-0.5-0.3-0.9-0.3c-0.4 0-0.7 0.2-0.9 0.5s-0.3 0.7-0.3 1.2v1.3c0 0.5 0.1 0.9 0.3 1.2s0.6 0.4 1 0.4c0.4 0 0.7-0.1 0.9-0.3s0.3-0.5 0.3-0.9h1.2c0 0.7-0.2 1.2-0.6 1.6s-1 0.6-1.8 0.6c-0.8 0-1.4-0.2-1.9-0.7s-0.7-1.1-0.7-1.9v-1.3c0-0.8 0.2-1.4 0.7-1.9s1.1-0.7 1.8-0.7c0.8 0 1.4 0.2 1.8 0.6 0.5 0.3 0.7 0.8 0.7 1.5v0zM9.9 20.1v0h1.3c0 0.4 0.1 0.7 0.3 0.8 0.2 0.2 0.5 0.3 0.9 0.3 0.3 0 0.6-0.1 0.8-0.2s0.3-0.3 0.3-0.6c0-0.2-0.1-0.4-0.3-0.6-0.2-0.1-0.5-0.3-0.9-0.4-0.7-0.2-1.3-0.5-1.7-0.8s-0.6-0.7-0.6-1.2c0-0.5 0.2-1 0.6-1.3s1-0.5 1.6-0.5c0.7 0 1.3 0.2 1.7 0.5 0.4 0.4 0.6 0.8 0.6 1.4v0h-1.2c0-0.3-0.1-0.6-0.3-0.7-0.2-0.2-0.5-0.3-0.8-0.3s-0.6 0.1-0.7 0.2c-0.2 0.2-0.3 0.3-0.3 0.6 0 0.2 0.1 0.4 0.3 0.5s0.5 0.3 1 0.4c0.7 0.2 1.2 0.5 1.6 0.8s0.6 0.7 0.6 1.3c0 0.5-0.2 1-0.6 1.3s-1 0.5-1.7 0.5c-0.7 0-1.3-0.2-1.8-0.5s-0.7-0.8-0.7-1.5zM27 26.3c0 0.6-0.6 1.2-1.4 1.2h-14.4c-0.4 0-1.2-0.4-1.2-1.3v-2.7h11c1.1 0 2-0.9 2-2v-5c0-1.1-0.9-2-2-2h-11v-8.7c0-0.8 0.5-1.3 1.3-1.3s7.7 0 7.7 0 0 2.7 0 4.1c0 1.4 1.4 2.8 3.1 2.8s4.9 0 4.9 0 0 14.4 0 14.9zM15.1 15.6h1.4l1.4 4.7 0.1 0.4 0.1-0.3 1.4-4.7h1.4l-2.3 6.3h-1.3l-2.2-6.4z"></path>
</svg>
