<!-- Generated by IcoMoon.io -->
<svg version="1.1" xmlns="http://www.w3.org/2000/svg" width="32" height="32" viewBox="0 0 32 32">
<title>export_pdf</title>
<path d="M28.9 26v-2.6h-4.7v2.6h-2.8l4.9 6 5.3-6z"></path>
<path d="M10.2 27.5c-0.4 0-1.2-0.4-1.2-1.3v-1.8h11c1.1 0 2-0.9 2-2v-7.2c0-1.1-0.9-2-2-2h-11v-7.4c0-0.8 0.5-1.3 1.3-1.3s7.7 0 7.7 0 0 2.7 0 4.1c0 1.4 1.4 2.8 3.1 2.8s4.9 0 4.9 0 0 5.6 0 10h2.9v-9.7c0.1-0.8 0-1.8-1.3-3.1-1.1-1.1-5.9-4.9-6.8-5.8-0.8-0.8-2.2-1.3-3-1.3h-8.9c-1.6 0-2.9 1.3-2.9 2.9v8.7h-3.5c-1.1 0-2 0.9-2 2v7.2c0 1.1 0.9 2 2 2h3.5v3.2c0 1.6 1.3 2.9 2.9 2.9h13.5l-2.5-3h-9.7zM7 21.6c-0.5 0.5-1.1 0.8-1.9 0.8s-1.5-0.3-1.9-0.8h-0.1c0.1 0.5 0.1 0.8 0.1 0.9v1.4h-1.3v-7.4h1.1c0 0.1 0.1 0.4 0.2 0.8h0.1c0.4-0.6 1.1-0.9 1.9-0.9s1.4 0.3 1.9 0.8c0.5 0.5 0.7 1.3 0.7 2.2-0.1 0.9-0.3 1.6-0.8 2.2zM16 17.2l1.1-0.4v-0.4c0-0.7 0.2-1.2 0.5-1.5 0.4-0.3 0.9-0.5 1.6-0.5 0.5 0 1 0.1 1.4 0.2l-0.4 0.9c-0.3-0.1-0.7-0.1-1-0.1s-0.5 0.1-0.7 0.3c-0.1 0.2-0.2 0.4-0.2 0.8v0.4h1.6v0.9h-1.6v4.5h-1.4v-4.5h-0.9v-0.6zM9.6 17.1c0.5-0.5 1.1-0.8 1.9-0.8 0.9 0 1.5 0.3 1.9 0.8h0.1c-0.1-0.4-0.1-0.7-0.1-1v-2.1h1.4v8.2h-1.1l-0.2-0.8h-0.1c-0.4 0.6-1.1 0.9-1.9 0.9s-1.4-0.3-1.9-0.8c-0.5-0.5-0.7-1.3-0.7-2.2s0.3-1.6 0.7-2.2z"></path>
<path d="M4.8 17.3c-0.5 0-0.9 0.1-1.2 0.4s-0.4 0.7-0.4 1.4v0.2c0 0.7 0.1 1.2 0.4 1.5s0.7 0.5 1.2 0.5c0.5 0 0.8-0.2 1.1-0.5 0.3-0.4 0.4-0.9 0.4-1.5 0-0.7-0.1-1.1-0.4-1.5-0.2-0.3-0.6-0.5-1.1-0.5z"></path>
<path d="M11.9 21.4c0.6 0 1-0.1 1.2-0.4s0.4-0.8 0.4-1.4v-0.2c0-0.7-0.1-1.3-0.4-1.6s-0.7-0.5-1.2-0.5c-0.5 0-0.9 0.2-1.1 0.5-0.3 0.4-0.4 0.9-0.4 1.5s0.1 1.1 0.4 1.5 0.6 0.6 1.1 0.6z"></path>
</svg>
