<!-- Generated by IcoMoon.io -->
<svg version="1.1" xmlns="http://www.w3.org/2000/svg" width="64" height="64" viewBox="0 0 64 64">
<title>export_json</title>
<path d="M33.8 41.2c0.4-0.6 0.8-1.4 0.8-2.4v-2.4c0-1-0.2-1.8-0.8-2.4-0.4-0.6-1.2-1-2-1s-1.6 0.4-2 1c-0.4 0.6-0.8 1.4-0.8 2.4v2.4c0 1 0.2 1.8 0.8 2.4 0.4 0.6 1.2 1 2 1 1 0 1.6-0.2 2-1zM58.2 17.2c-2.2-2.2-11.8-9.8-13.6-11.6s-4.4-2.8-6.2-2.8h-17.6c-3.2 0-5.8 2.6-5.8 5.8v20.2h-8c-2.2 0-4 1.8-4 4v10c0 2.2 1.8 4 4 4h8v8.2c0 3.2 2.6 5.8 5.8 5.8h34.2c3.2 0 5.8-2.6 5.8-5.8v-31.6c0.2-1.6 0-3.6-2.6-6.2zM13.4 40c0 1.2-0.4 2.2-1.2 3s-1.8 1.2-3 1.2c-1.4 0-2.4-0.4-3.2-1s-1.2-1.6-1.2-3v0h2.4c0 0.6 0.2 1.2 0.6 1.6s0.8 0.4 1.4 0.4c0.4 0 0.8-0.2 1.2-0.6 0.2-0.4 0.4-1 0.4-1.6v-8.8h2.6v8.8zM20.2 44.2c-1.4 0-2.6-0.4-3.6-1s-1.4-1.8-1.4-3v0h2.4c0 0.8 0.2 1.4 0.6 1.6 0.4 0.4 1 0.6 1.8 0.6 0.6 0 1.2-0.2 1.6-0.4s0.6-0.6 0.6-1.2c0-0.4-0.2-0.8-0.6-1.2-0.4-0.2-1-0.6-1.8-0.8-1.4-0.4-2.6-1-3.4-1.6s-1.2-1.4-1.2-2.4c0-1 0.4-2 1.2-2.6s2-1 3.2-1c1.4 0 2.6 0.4 3.4 1 0.8 0.8 1.2 1.6 1.2 2.8v0h-2.4c0-0.6-0.2-1.2-0.6-1.4-0.4-0.4-1-0.6-1.6-0.6s-1.2 0.2-1.4 0.4c-0.4 0.4-0.6 0.6-0.6 1.2 0 0.4 0.2 0.8 0.6 1s1 0.6 2 0.8c1.4 0.4 2.4 1 3.2 1.6s1.2 1.4 1.2 2.6c0 1-0.4 2-1.2 2.6-0.6 0.8-1.8 1-3.2 1zM55 52.6c0 1.2-1.2 2.4-2.8 2.4h-28.8c-0.8 0-2.4-0.8-2.4-2.6v-5.4h28c2.2 0 4-1.8 4-4v-10c0-2.2-1.8-4-4-4h-28v-17.4c0-1.6 1-2.6 2.6-2.6s15.4 0 15.4 0 0 5.4 0 8.2c0 2.8 2.8 5.6 6.2 5.6s9.8 0 9.8 0 0 28.8 0 29.8zM26.6 38.8v-2.4c0-1.6 0.4-2.8 1.4-3.8s2.2-1.6 3.8-1.6c1.6 0 2.8 0.6 3.8 1.6s1.4 2.4 1.4 3.8v2.4c0 1.6-0.4 2.8-1.4 3.8s-2.2 1.6-3.8 1.6c-1.6 0-2.8-0.6-3.8-1.6s-1.4-2.2-1.4-3.8zM39.2 44v-12.8h2.6l5.2 8.6v-8.6h2.6v12.8h-2.6l-5.2-8.6v8.6h-2.6z"></path>
</svg>
