<!-- Generated by IcoMoon.io -->
<svg version="1.1" xmlns="http://www.w3.org/2000/svg" width="64" height="64" viewBox="0 0 64 64">
<title>export_excel</title>
<path d="M58.2 17.2c-2.2-2.2-11.8-9.8-13.6-11.6s-4.4-2.8-6.2-2.8h-17.6c-3.2 0-5.8 2.6-5.8 5.8v20.2h-8c-2.2 0-4 1.8-4 4v10c0 2.2 1.8 4 4 4h8v8.2c0 3.2 2.6 5.8 5.8 5.8h34.2c3.2 0 5.8-2.6 5.8-5.8v-31.6c0.2-1.6 0-3.6-2.6-6.2zM15.4 43h-7.4v-10.2h7.4v1.2h-6v3h5.4v1.2h-5.4v3.4h6v1.4zM20.4 38.8l-2.6 4.2h-1.8l3.6-5.2-3.4-5h1.8l2.4 3.8 2.4-3.8h1.6l-3.4 5 3.6 5.2h-1.8l-2.4-4.2zM55 52.6c0 1.2-1.2 2.4-2.8 2.4-1.4 0-28 0-29 0-0.8 0-2.4-0.8-2.4-2.6s0-3.6 0-5.4h28c2.2 0 4-1.8 4-4v-10c0-2.2-1.8-4-4-4h-28c0-6.4 0-11.8 0-17.4 0-1.6 1-2.6 2.6-2.6s15.4 0 15.4 0 0 5.4 0 8.2c0 2.8 2.8 5.6 6.2 5.6s9.8 0 9.8 0 0.2 28.8 0.2 29.8zM27.6 40.8c0.6 0.8 1.4 1.4 2.6 1.4 0.8 0 1.6-0.2 2-0.8 0.6-0.6 0.8-1.2 0.8-2h1.4c0 1.2-0.4 2.2-1.2 3s-1.8 1.2-3 1.2c-1.4 0-2.6-0.6-3.4-1.6s-1.2-2.2-1.2-3.8c0-1.6 0.4-2.8 1.2-3.8s2-1.6 3.6-1.6c1 0 2 0.2 2.8 0.8s1.4 1.4 1.4 2.6h-1.4c-0.2-0.6-0.4-1.2-1-1.6s-1.2-0.6-1.8-0.6c-1 0-2 0.4-2.6 1.4-0.6 0.8-0.8 1.8-0.8 2.8-0.2 0.8 0 1.8 0.6 2.6zM42.8 37.2v1.2h-5.4v3.4h6v1.2h-7.4v-10.2h7.4v1.2h-6v3h5.4zM51.4 41.8v1.2h-6.6v-10.2h1.4v9h5.2z"></path>
</svg>
