<!-- Generated by IcoMoon.io -->
<svg version="1.1" xmlns="http://www.w3.org/2000/svg" width="32" height="32" viewBox="0 0 32 32">
<title>export_excel</title>
<path d="M29.1 8.6c-1.1-1.1-5.9-4.9-6.8-5.8s-2.2-1.4-3.1-1.4h-8.8c-1.6 0-2.9 1.3-2.9 2.9v10.1h-4c-1.1 0-2 0.9-2 2v5c0 1.1 0.9 2 2 2h4v4.1c0 1.6 1.3 2.9 2.9 2.9h17.1c1.6 0 2.9-1.3 2.9-2.9v-15.8c0.1-0.8 0-1.8-1.3-3.1zM7.7 21.5h-3.7v-5.1h3.7v0.6h-3v1.5h2.7v0.6h-2.7v1.7h3v0.7zM10.2 19.4l-1.3 2.1h-0.9l1.8-2.6-1.7-2.5h0.9l1.2 1.9 1.2-1.9h0.8l-1.7 2.5 1.8 2.6h-0.9l-1.2-2.1zM27.5 26.3c0 0.6-0.6 1.2-1.4 1.2-0.7 0-14 0-14.5 0-0.4 0-1.2-0.4-1.2-1.3s0-1.8 0-2.7h14c1.1 0 2-0.9 2-2v-5c0-1.1-0.9-2-2-2h-14c0-3.2 0-5.9 0-8.7 0-0.8 0.5-1.3 1.3-1.3s7.7 0 7.7 0 0 2.7 0 4.1c0 1.4 1.4 2.8 3.1 2.8s4.9 0 4.9 0 0.1 14.4 0.1 14.9zM13.8 20.4c0.3 0.4 0.7 0.7 1.3 0.7 0.4 0 0.8-0.1 1-0.4 0.3-0.3 0.4-0.6 0.4-1h0.7c0 0.6-0.2 1.1-0.6 1.5s-0.9 0.6-1.5 0.6c-0.7 0-1.3-0.3-1.7-0.8s-0.6-1.1-0.6-1.9c0-0.8 0.2-1.4 0.6-1.9s1-0.8 1.8-0.8c0.5 0 1 0.1 1.4 0.4s0.7 0.7 0.7 1.3h-0.7c-0.1-0.3-0.2-0.6-0.5-0.8s-0.6-0.3-0.9-0.3c-0.5 0-1 0.2-1.3 0.7-0.3 0.4-0.4 0.9-0.4 1.4-0.1 0.4 0 0.9 0.3 1.3zM21.4 18.6v0.6h-2.7v1.7h3v0.6h-3.7v-5.1h3.7v0.6h-3v1.5h2.7zM25.7 20.9v0.6h-3.3v-5.1h0.7v4.5h2.6z"></path>
</svg>
