<!-- Generated by IcoMoon.io -->
<svg version="1.1" xmlns="http://www.w3.org/2000/svg" width="64" height="64" viewBox="0 0 64 64">
<title>export_csv</title>
<path d="M57.2 17.2c-2.2-2.2-11.8-9.8-13.6-11.6-1.6-1.6-4.4-2.6-6-2.6h-17.8c-3.2 0-5.8 2.6-5.8 5.8v20.2h-6c-2.2 0-4 1.8-4 4v10c0 2.2 1.8 4 4 4h6v8.2c0 3.2 2.6 5.8 5.8 5.8h34.2c3.2 0 5.8-2.6 5.8-5.8v-31.8c0.2-1.6 0-3.6-2.6-6.2zM18.4 35.4h-2.6c0-0.8-0.2-1.4-0.6-1.8s-1-0.6-1.8-0.6c-0.8 0-1.4 0.4-1.8 1s-0.6 1.4-0.6 2.4v2.6c0 1 0.2 1.8 0.6 2.4s1.2 0.8 2 0.8c0.8 0 1.4-0.2 1.8-0.6s0.6-1 0.6-1.8h2.4c0 1.4-0.4 2.4-1.2 3.2s-2 1.2-3.6 1.2c-1.6 0-2.8-0.4-3.8-1.4s-1.4-2.2-1.4-3.8v-2.6c0-1.6 0.4-2.8 1.4-3.8s2.2-1.4 3.6-1.4c1.6 0 2.8 0.4 3.6 1.2 1 0.6 1.4 1.6 1.4 3v0zM19.8 40.2v0h2.6c0 0.8 0.2 1.4 0.6 1.6 0.4 0.4 1 0.6 1.8 0.6 0.6 0 1.2-0.2 1.6-0.4s0.6-0.6 0.6-1.2c0-0.4-0.2-0.8-0.6-1.2-0.4-0.2-1-0.6-1.8-0.8-1.4-0.4-2.6-1-3.4-1.6s-1.2-1.4-1.2-2.4c0-1 0.4-2 1.2-2.6s2-1 3.2-1c1.4 0 2.6 0.4 3.4 1 0.8 0.8 1.2 1.6 1.2 2.8v0h-2.4c0-0.6-0.2-1.2-0.6-1.4-0.4-0.4-1-0.6-1.6-0.6s-1.2 0.2-1.4 0.4c-0.4 0.4-0.6 0.6-0.6 1.2 0 0.4 0.2 0.8 0.6 1s1 0.6 2 0.8c1.4 0.4 2.4 1 3.2 1.6s1.2 1.4 1.2 2.6c0 1-0.4 2-1.2 2.6s-2 1-3.4 1c-1.4 0-2.6-0.4-3.6-1s-1.4-1.6-1.4-3zM54 52.6c0 1.2-1.2 2.4-2.8 2.4h-28.8c-0.8 0-2.4-0.8-2.4-2.6v-5.4h22c2.2 0 4-1.8 4-4v-10c0-2.2-1.8-4-4-4h-22v-17.4c0-1.6 1-2.6 2.6-2.6s15.4 0 15.4 0 0 5.4 0 8.2c0 2.8 2.8 5.6 6.2 5.6s9.8 0 9.8 0 0 28.8 0 29.8zM30.2 31.2h2.8l2.8 9.4 0.2 0.8 0.2-0.6 2.8-9.4h2.8l-4.6 12.6h-2.6l-4.4-12.8z"></path>
</svg>
