<!-- Generated by IcoMoon.io -->
<svg version="1.1" xmlns="http://www.w3.org/2000/svg" width="32" height="32" viewBox="0 0 32 32">
<title>facebook2</title>
<path d="M16 2.5c-7.456 0-13.5 6.044-13.5 13.5s6.044 13.5 13.5 13.5c7.456 0 13.5-6.044 13.5-13.5s-6.044-13.5-13.5-13.5zM18.477 15.8h-1.565v5.65h-2.342v-5.627h-1.166v-1.965h1.188c0 0 0-0.178 0-1.376 0-1.365 0.688-2.297 2.375-2.297 0.666 0 1.698 0 1.698 0v1.931c0 0-0.755 0-1.154 0s-0.6 0.311-0.6 0.644c0 0.333 0 1.11 0 1.11h1.766l-0.2 1.93z"></path>
</svg>
