<!-- Generated by IcoMoon.io -->
<svg version="1.1" xmlns="http://www.w3.org/2000/svg" width="32" height="32" viewBox="0 0 32 32">
<title>feeds</title>
<path d="M25.552 23.858c1.37-1.896 2.191-4.268 2.191-6.831 0-6.487-5.258-11.745-11.745-11.745s-11.745 5.258-11.745 11.745c0 2.453 0.752 4.73 2.038 6.614l-0.026-0.041c1.126-0.823 1.197-0.808 1.877-1.383-0.977-1.461-1.559-3.257-1.559-5.19 0-5.2 4.216-9.416 9.416-9.416s9.416 4.216 9.416 9.416c0 1.995-0.62 3.845-1.678 5.367l0.020-0.031c0.963 0.789 0.946 0.922 1.796 1.494zM22.121 21.524c0.878-1.215 1.404-2.735 1.404-4.377 0-4.157-3.369-7.526-7.526-7.526s-7.526 3.37-7.526 7.526c0 1.571 0.482 3.030 1.305 4.237l-0.017-0.026c0.722-0.527 1.338-0.989 1.728-1.316-0.561-0.838-0.896-1.869-0.896-2.978 0-2.981 2.417-5.398 5.398-5.398s5.398 2.417 5.398 5.398c0 1.144-0.356 2.204-0.962 3.077l0.012-0.018c0.552 0.452 1.137 1.032 1.681 1.4zM14.855 19.258c-0.835-0.415-1.398-1.262-1.398-2.241 0-1.378 1.117-2.494 2.494-2.494s2.494 1.117 2.494 2.494c0 0.947-0.528 1.771-1.305 2.193l-0.013 0.007c0.241 0.585 4.138 7.502 4.138 7.502h-10.433s3.852-6.999 4.021-7.461z"></path>
</svg>
