<!-- Generated by IcoMoon.io -->
<svg version="1.1" xmlns="http://www.w3.org/2000/svg" width="64" height="64" viewBox="0 0 64 64">
<title>feeds</title>
<path d="M51.104 47.716c2.739-3.793 4.381-8.535 4.381-13.661 0-12.973-10.517-23.49-23.49-23.49s-23.49 10.517-23.49 23.49c0 4.906 1.504 9.46 4.076 13.228l-0.052-0.081c2.252-1.646 2.394-1.617 3.753-2.767-1.954-2.921-3.118-6.514-3.118-10.379 0-10.401 8.432-18.832 18.832-18.832s18.832 8.432 18.832 18.832c0 3.99-1.241 7.689-3.357 10.735l0.041-0.062c1.925 1.578 1.893 1.843 3.592 2.988zM44.242 43.048c1.756-2.43 2.808-5.47 2.808-8.755 0-8.313-6.739-15.052-15.052-15.052s-15.052 6.739-15.052 15.052c0 3.143 0.963 6.061 2.611 8.475l-0.033-0.052c1.444-1.054 2.675-1.978 3.455-2.632-1.122-1.676-1.791-3.738-1.791-5.956 0-5.963 4.834-10.797 10.797-10.797s10.797 4.834 10.797 10.797c0 2.287-0.711 4.409-1.925 6.155l0.023-0.035c1.103 0.905 2.274 2.064 3.361 2.801zM29.71 38.516c-1.669-0.83-2.796-2.524-2.796-4.481 0-2.755 2.233-4.989 4.989-4.989s4.989 2.233 4.989 4.989c0 1.894-1.055 3.541-2.61 4.386l-0.026 0.013c0.481 1.169 8.277 15.004 8.277 15.004h-20.865s7.705-13.998 8.042-14.922z"></path>
</svg>
