<!-- Generated by IcoMoon.io -->
<svg version="1.1" xmlns="http://www.w3.org/2000/svg" width="32" height="32" viewBox="0 0 32 32">
<title>files_converted</title>
<path d="M23.2 8c0.1-1.4 0.3-2.5 0.3-2.9 0.1-1.1-0.5-1.2-0.9-1.1-0.3 0-3.8 0.9-4.6 1.1s-1.1 0.5-1.3 0.8c-0.2 0.3-0.2 0.2-0.6 1-0.3 0.5-0.8 1-1.6 1.3-0.9 0.3-8.5 2.6-9.1 2.8-0.7 0.2-2.7 0.8-2.4 3.3 0.2 2.5 2 12.4 2 12.9 0 0.3 0.2 0.5 0.4 0.6 0-1.6 0-11.4 0-11.6 0-1.4 1-2.3 2.3-2.8 1.4-0.6 15.4-5.3 15.5-5.4zM23.3 14.6c1.2 0 1.9 0.5 1.9 0.5s0.3-1.4 0.9-1.5c0.6-1.8 1.3-3.9 1.4-4.5 0.3-1.1 0.3-1.6-0.6-1.4-0.7 0.2-14.7 5.1-17.3 6-2.4 0.8-2.8 1.9-2.9 3.6-0.1 1.6-0.2 9-0.2 10.5 0 0.2-0.2 0.3-0.2 0.3s0.3 0 0.5-0.1c1.3-0.8 5.8-3.5 10-6-0.1-4.9 3.6-7.4 6.5-7.4zM19.9 22.7c-0.8-2 0.1-4.2 2.1-5 1-0.4 2-0.4 2.9 0l-0.6 1.5 3.4-1.4-1.4-3.4-0.7 1.6c-1.3-0.6-2.9-0.6-4.3 0-2.9 1.2-4.3 4.5-3.1 7.4 0 0.1 0.1 0.2 0.1 0.2l1.7-0.7c0 0-0.1-0.1-0.1-0.2zM28.7 19.1c0-0.1 0-0.1-0.1-0.2l-1.7 0.7c0 0.1 0 0.1 0.1 0.2 0.8 2-0.1 4.2-2.1 5-1 0.4-2 0.4-2.9 0l0.6-1.5-3.4 1.4 1.4 3.4 0.7-1.6c1.3 0.6 2.9 0.6 4.3 0 2.9-1.2 4.3-4.5 3.1-7.4z"></path>
</svg>
