<!-- Generated by IcoMoon.io -->
<svg version="1.1" xmlns="http://www.w3.org/2000/svg" width="64" height="64" viewBox="0 0 64 64">
<title>files_converted</title>
<path d="M46.4 16c0.2-2.8 0.6-5 0.6-5.8 0.2-2.2-1-2.4-1.8-2.2-0.6 0-7.6 1.8-9.2 2.2s-2.2 1-2.6 1.6c-0.4 0.6-0.4 0.4-1.2 2-0.6 1-1.6 2-3.2 2.6-1.8 0.6-17 5.2-18.2 5.6-1.4 0.4-5.4 1.6-4.8 6.6 0.4 5 4 24.8 4 25.8 0 0.6 0.4 1 0.8 1.2 0-3.2 0-22.8 0-23.2 0-2.8 2-4.6 4.6-5.6 2.8-1.2 30.8-10.6 31-10.8zM46.6 29.2c2.4 0 3.8 1 3.8 1s0.6-2.8 1.8-3c1.2-3.6 2.6-7.8 2.8-9 0.6-2.2 0.6-3.2-1.2-2.8-1.4 0.4-29.4 10.2-34.6 12-4.8 1.6-5.6 3.8-5.8 7.2-0.2 3.2-0.4 18-0.4 21 0 0.4-0.4 0.6-0.4 0.6s0.6 0 1-0.2c2.6-1.6 11.6-7 20-12-0.2-9.8 7.2-14.8 13-14.8zM39.8 45.4c-1.6-4 0.2-8.4 4.2-10 2-0.8 4-0.8 5.8 0l-1.2 3 6.8-2.8-2.8-6.8-1.4 3.2c-2.6-1.2-5.8-1.2-8.6 0-5.8 2.4-8.6 9-6.2 14.8 0 0.2 0.2 0.4 0.2 0.4l3.4-1.4c0 0-0.2-0.2-0.2-0.4zM57.4 38.2c0-0.2 0-0.2-0.2-0.4l-3.4 1.4c0 0.2 0 0.2 0.2 0.4 1.6 4-0.2 8.4-4.2 10-2 0.8-4 0.8-5.8 0l1.2-3-6.8 2.8 2.8 6.8 1.4-3.2c2.6 1.2 5.8 1.2 8.6 0 5.8-2.4 8.6-9 6.2-14.8z"></path>
</svg>
