<!-- Generated by IcoMoon.io -->
<svg version="1.1" xmlns="http://www.w3.org/2000/svg" width="64" height="64" viewBox="0 0 64 64">
<title>free_trial_need_assistance</title>
<path d="M32 4.398c-15.246 0-27.602 12.356-27.602 27.602s12.358 27.602 27.604 27.602c15.246 0 27.602-12.358 27.602-27.602 0-15.246-12.358-27.602-27.604-27.602zM32 53.524c-11.888 0-21.528-9.64-21.528-21.524 0-11.89 9.64-21.528 21.528-21.528 11.886 0 21.526 9.636 21.526 21.528 0.002 11.882-9.64 21.524-21.526 21.524zM27.568 50.122h7.902v-5.924h-7.902v5.924zM40.41 17.846c-2.18-1.81-6.318-2.712-9.526-2.712-3.146 0-5.732 1.114-8.080 2.942-3.56 2.766-3.364 10.13-3.364 10.13h7.824c0-3.24 1.794-5.606 4.728-5.606 2.688 0 3.47 2.626 3.47 3.136 0 1.374-0.778 2.792-2.334 4.254-3.49 3.266-5.25 5.588-5.282 6.958v4.388h7.658v-2.472c0.064-1.498 0.796-2.894 2.208-4.208 2.568-2.292 6.248-4.346 6.248-9.248 0-4.404-3.55-7.562-3.55-7.562z"></path>
</svg>
