<!-- Generated by IcoMoon.io -->
<svg version="1.1" xmlns="http://www.w3.org/2000/svg" width="32" height="32" viewBox="0 0 32 32">
<title>free_trial_need_assistance</title>
<path d="M16 2.199c-7.623 0-13.801 6.178-13.801 13.801s6.179 13.801 13.802 13.801c7.623 0 13.801-6.179 13.801-13.801 0-7.623-6.179-13.801-13.802-13.801zM16 26.762c-5.944 0-10.764-4.82-10.764-10.762 0-5.945 4.82-10.764 10.764-10.764 5.943 0 10.763 4.818 10.763 10.764 0.001 5.941-4.82 10.762-10.763 10.762zM13.784 25.061h3.951v-2.962h-3.951v2.962zM20.205 8.923c-1.090-0.905-3.159-1.356-4.763-1.356-1.573 0-2.866 0.557-4.040 1.471-1.78 1.383-1.682 5.065-1.682 5.065h3.912c0-1.62 0.897-2.803 2.364-2.803 1.344 0 1.735 1.313 1.735 1.568 0 0.687-0.389 1.396-1.167 2.127-1.745 1.633-2.625 2.794-2.641 3.479v2.194h3.829v-1.236c0.032-0.749 0.398-1.447 1.104-2.104 1.284-1.146 3.124-2.173 3.124-4.624 0-2.202-1.775-3.781-1.775-3.781z"></path>
</svg>
