<!-- Generated by IcoMoon.io -->
<svg version="1.1" xmlns="http://www.w3.org/2000/svg" width="64" height="64" viewBox="0 0 64 64">
<title>free_trial_play_around</title>
<path d="M49.248 12.57h-6.71v7.668h3.994c0.624 0 1.802 0.298 1.802 1.802 0 1.502 0 26.008 0 27.246 0 1.24-1.18 1.802-1.802 1.802h-29.064c-0.622 0-1.8-0.6-1.8-1.802 0-1.2 0-25.894 0-27.246 0-1.35 1.178-1.802 1.8-1.802l10.47-0.12-1.644 2.97c-0.998 1.428-0.648 3.392 0.78 4.39 0.55 0.384 1.178 0.568 1.802 0.568 0.994 0 1.974-0.47 2.588-1.348l5.284-7.59c1.182-1.512 0.59-3.904-0.194-4.992l-5.12-7.442c-1.020-1.414-2.99-1.732-4.402-0.712s-1.728 2.988-0.71 4.402l1.594 2.208h-13.162c-3.724 0-6.756 3.57-6.756 7.294v32.018c0 3.722 3.032 6.754 6.756 6.754h34.494c3.724 0 6.754-3.032 6.754-6.754v-32.56c0-3.724-3.030-6.754-6.754-6.754z"></path>
</svg>
