<!-- Generated by IcoMoon.io -->
<svg version="1.1" xmlns="http://www.w3.org/2000/svg" width="64" height="64" viewBox="0 0 64 64">
<title>free_trial_manager</title>
<path d="M39.672 28.992c3.528-2.39 5.844-6.426 5.844-11.010 0-7.334-5.948-13.284-13.286-13.284-7.336 0-13.286 5.95-13.286 13.284 0 4.646 2.384 8.732 5.994 11.11-9.314 3.376-14.146 10.28-14.146 21.474 0 0.3 0.006 1.342 0.016 1.636 0.014 0.152 2.58 3.44 8.948 2.396 0 0.118 3.538 4.702 12.682 4.702 9.148 0 12.274-4.702 12.388-4.702 6.83 2.086 8.358-2.154 8.358-2.154s0.024-1.5 0.024-1.878c0-11.302-4.082-18.276-13.536-21.574zM31.472 54.434c0 0-3.4-2.798-2.668-6.2 0.734-3.398 2.602-9.066 2.334-9.132-0.268-0.068-1.066-2.062-1.066-2.062l1.404-1.872 1.066 0.066 1.128 1.934-1.4 2.266c0 0 0.868 5.066 1.8 8.668s-2.598 6.332-2.598 6.332zM36.274 38.32l-4.18-4.462-4.114 4.28-2.966-9.038 7.268 3.322 7.196-3.278-3.204 9.176z"></path>
</svg>
