<!-- Generated by IcoMoon.io -->
<svg version="1.1" xmlns="http://www.w3.org/2000/svg" width="32" height="32" viewBox="0 0 32 32">
<title>free_trial_switch_roles</title>
<path d="M6.88 15.839c0-5.037 4.083-8.96 9.12-8.96 2.519 0 4.799 1.234 6.448 2.884l-2.817 3.301h8.852v-9.392l-2.961 3.017c-2.437-2.438-5.802-4.157-9.522-4.157-7.438 0-13.469 5.868-13.469 13.307 0 0.199 0.006-0.058 0.014 0.138h4.354c-0.012-0.194-0.019 0.061-0.019-0.138zM29.461 15.964h-4.351c0.006 0.141 0.010 0.056 0.010 0.199 0 5.035-4.083 8.958-9.12 8.958-2.519 0-5.040-1.022-6.689-2.672l3.016-3.565h-8.912v9.486l2.821-2.848c2.438 2.437 6.045 3.947 9.765 3.947 7.438 0 13.469-5.868 13.469-13.306-0.001-0.143-0.004-0.056-0.009-0.199z"></path>
</svg>
