<!-- Generated by IcoMoon.io -->
<svg version="1.1" xmlns="http://www.w3.org/2000/svg" width="64" height="64" viewBox="0 0 64 64">
<title>free_trial_admin</title>
<path d="M40.054 27.092h-4.222c1.18 0.026 2.576 0.096 4.084 0.096 1.506 0 2.902-0.070 4.082-0.096h-3.866c6.12-0.022 11.074-4.986 11.074-11.114 0-6.136-4.976-11.112-11.114-11.112s-11.114 4.976-11.114 11.112c0.002 6.128 4.956 11.094 11.076 11.114zM26.046 42.652c-1.13-1.648 1.176-3.91 1.176-3.91l-3.202-3.386c0 0-2.496 2.45-3.862 1.644-1.366-0.796-0.942-3.528-0.942-3.528h-4.846c0 0 0.614 2.59-1.27 3.528-1.884 0.946-3.814-1.504-3.814-1.504l-3.388 3.292c0 0 2.964 2.032 1.412 4.192-0.848 1.188-3.438 0.988-3.438 0.988v4.668c0 0 3.202-0.196 3.814 1.458 0.612 1.648-1.648 3.528-1.648 3.528l3.294 3.394c0 0 2.542-2.356 3.956-1.55 1.412 0.792 1.082 3.668 1.082 3.668h4.708c0 0-0.33-3.062 1.648-3.77 1.976-0.704 3.294 1.652 3.294 1.652l3.532-3.438c-0.942-0.946-2.354-2.684-1.412-4.098 0.942-1.41 3.388-0.708 3.388-0.708v-5.040c0.002 0.002-2.352 0.568-3.482-1.080zM16.772 50.93c-2.592 0-4.694-2.102-4.694-4.7 0-2.59 2.102-4.692 4.694-4.692s4.694 2.102 4.694 4.692c-0.002 2.598-2.102 4.7-4.694 4.7zM46.004 27.092h-0.708c1.366 0.044 2.21 0.274 2.21 1.010 0 1.476-3.398 2.678-7.59 2.678-4.194 0-7.592-1.202-7.592-2.678 0-0.736 0.846-0.964 2.21-1.010h-0.304c-3.784 0-7.218 1.49-9.756 3.908 3.208 1.566 3.398 4.144 3.398 4.144s3.178 1.34 3.756 3.652-1.012 3.614-1.012 3.614 3.322 1.586 3.466 4.622c0.144 3.032-3.178 5.058-3.178 5.058s0.868 3.262 3.324 3.262h11.774c7.8 0 14.126-6.332 14.126-14.132 0-7.806-6.324-14.128-14.124-14.128zM52.662 41.636c0 0-1.104-0.316-1.53 0.32s0.212 1.418 0.636 1.848l-1.592 1.55c0 0-0.596-1.062-1.486-0.746-0.892 0.32-0.742 1.704-0.742 1.704h-2.126c0 0 0.148-1.296-0.488-1.66-0.636-0.36-1.784 0.704-1.784 0.704l-1.486-1.532c0 0 1.020-0.852 0.742-1.59-0.276-0.746-1.718-0.66-1.718-0.66v-2.102c0 0 1.168 0.082 1.55-0.446 0.7-0.976-0.638-1.894-0.638-1.894l1.53-1.484c0 0 0.872 1.106 1.718 0.684 0.852-0.43 0.574-1.598 0.574-1.598h2.188c0 0-0.192 1.234 0.426 1.598 0.614 0.36 1.74-0.746 1.74-0.746l1.444 1.532c0 0-1.040 1.020-0.532 1.762 0.512 0.742 1.572 0.492 1.572 0.492v2.264zM46.908 38.376c-1.17 0-2.118 0.95-2.118 2.118s0.948 2.114 2.118 2.114c1.168 0 2.116-0.946 2.116-2.114s-0.948-2.118-2.116-2.118z"></path>
</svg>
