<!-- Generated by IcoMoon.io -->
<svg version="1.1" xmlns="http://www.w3.org/2000/svg" width="32" height="32" viewBox="0 0 32 32">
<title>free_trial_employee</title>
<path d="M21.015 13.738c1.045-1.195 1.682-2.755 1.682-4.467 0-3.757-3.045-6.804-6.803-6.804s-6.803 3.047-6.803 6.804c0 1.748 0.665 3.336 1.748 4.541-4.068 2.088-6.887 6.559-6.887 11.747 0 0.58 0.072 2.066 1.107 2.066s4.242 0 4.242 0 3.617 1.908 6.662 1.908c3.178 0 7.061-1.908 7.061-1.908s2.776 0.012 3.844 0c1.068-0.012 1.18-1.393 1.18-2.066 0-5.25-2.885-9.765-7.033-11.821zM15.892 4.65c2.553 0 4.621 2.068 4.621 4.621 0 2.551-2.068 4.617-4.621 4.617-2.551 0-4.619-2.066-4.619-4.617-0.001-2.553 2.068-4.621 4.619-4.621zM22.944 25.576c0-1.865-1.146-4.809-1.146-4.809l-1.29 0.443c1.206 2.836 0.925 4.348 0.925 4.348s-3.075 1.908-5.508 1.908c-2.42 0-5.469-1.908-5.469-1.908s-0.316-1.512 0.889-4.348l-1.289-0.443c0 0-1.191 2.045-1.191 4.791-0.576 0-1.652 0-2.592 0 0-4.742 2.91-8.748 6.906-10.051 0.832 0.359 1.749 0.566 2.715 0.566 0.996 0 1.939-0.221 2.793-0.604 4.064 1.259 7.041 5.294 7.041 10.089-0.676 0.001-1.968 0.018-2.784 0.018z"></path>
</svg>
