<!-- Generated by IcoMoon.io -->
<svg version="1.1" xmlns="http://www.w3.org/2000/svg" width="32" height="32" viewBox="0 0 32 32">
<title>free_trial_understand_schoox</title>
<path d="M23.972 17.771c0.673-0.443 1.213-1.066 1.57-1.794 0.288 0.055 0.632 0.032 0.862-0.275 0.464-0.621 0.464-1.241 0.309-1.734-0.123-0.395-0.825-1.406-1.11-1.809-0.408-0.906-1.109-1.646-1.979-2.116l-0.122-1.575c-0.029-0.399-0.295-0.727-0.59-0.734l-6.897-0.197c0.251-0.364 0.398-0.808 0.398-1.285 0-1.256-1.019-2.275-2.276-2.275s-2.276 1.020-2.276 2.275c0 0.434 0.127 0.832 0.336 1.176l-8.865-0.251c-0.439-0.012-0.771 0.373-0.74 0.86l1.014 15.81c0.032 0.497 0.416 0.854 0.855 0.796l9.057-1.188 0.135 0.471c-0.134 0.624-0.208 1.271-0.208 1.94 0 0.131 0.008 0.638 0.008 0.638s1.454 1.438 3.771 0.734c0.040 0 1.101 0.784 4.204 0.784s4.303-0.748 4.303-0.784c2.16 0.352 3.67-0.764 3.675-0.816 0.002-0.1 0.005-0.451 0.005-0.556-0.001-3.798-2.279-6.948-5.439-8.095zM24.561 14.004c0 0.636-0.194 1.228-0.527 1.717-0.551 0.81-1.285 1.439-2.341 1.439-0.879 0-1.866-0.468-2.426-1.061-0.514-0.549-0.828-1.284-0.828-2.096 0-1.69 1.369-3.061 3.060-3.061s3.062 1.371 3.062 3.062zM14.135 5.17c0.598 0 1.083 0.485 1.083 1.082 0 0.6-0.485 1.083-1.083 1.083s-1.083-0.483-1.083-1.083c0.001-0.597 0.486-1.082 1.083-1.082zM6.579 22.158c-0.314 0.036-0.589-0.224-0.612-0.582l-0.741-11.421c-0.023-0.352 0.214-0.634 0.527-0.628l14.234 0.23c-1.457 0.521-2.57 1.768-2.896 3.309-0.239 0.354-0.455 0.703-0.516 0.902-0.156 0.494-0.214 1.172 0.249 1.792 0.173 0.229 0.425 0.307 0.674 0.316 0.348 0.668 0.854 1.241 1.474 1.663-1.756 0.61-3.237 1.846-4.226 3.464l-1.061 0.125-2.119-7.357-0.736 0.156 2.099 7.289-6.35 0.742zM25.85 26.103c-0.055-1.965-0.905-3.337-0.905-3.337l-0.854 0.295c0.542 1.272 0.62 2.341 0.629 2.806 0 0.041-0.974 0.786-3.252 0.786-2.279 0-3.169-0.745-3.232-0.786 0.008-0.465 0.086-1.533 0.628-2.806l-0.854-0.295c0 0-0.851 1.372-0.905 3.337-0.784 0-1.733-0.115-2.109-0.232l-0.011-0.038c0.014-3.030 1.822-5.549 4.333-6.471l-0.039 2.235 2.268-1.649 2.243 1.587-0.297-2.189c2.546 0.91 4.383 3.457 4.383 6.521-0.603 0.236-1.258 0.236-2.026 0.236z"></path>
</svg>
