<!-- Generated by IcoMoon.io -->
<svg version="1.1" xmlns="http://www.w3.org/2000/svg" width="64" height="64" viewBox="0 0 64 64">
<title>free_trial_switch_roles</title>
<path d="M13.76 31.678c0-10.074 8.166-17.92 18.24-17.92 5.038 0 9.598 2.468 12.896 5.768l-5.634 6.602h17.704v-18.784l-5.922 6.034c-4.874-4.876-11.604-8.314-19.044-8.314-14.876 0-26.938 11.736-26.938 26.614 0 0.398 0.012-0.116 0.028 0.276h8.708c-0.024-0.388-0.038 0.122-0.038-0.276zM58.922 31.928h-8.702c0.012 0.282 0.020 0.112 0.020 0.398 0 10.070-8.166 17.916-18.24 17.916-5.038 0-10.080-2.044-13.378-5.344l6.032-7.13h-17.824v18.972l5.642-5.696c4.876 4.874 12.090 7.894 19.53 7.894 14.876 0 26.938-11.736 26.938-26.612-0.002-0.286-0.008-0.112-0.018-0.398z"></path>
</svg>
