<!-- Generated by IcoMoon.io -->
<svg version="1.1" xmlns="http://www.w3.org/2000/svg" width="64" height="64" viewBox="0 0 64 64">
<title>free_trial_understand_schoox</title>
<path d="M47.944 35.542c1.346-0.886 2.426-2.132 3.14-3.588 0.576 0.11 1.264 0.064 1.724-0.55 0.928-1.242 0.928-2.482 0.618-3.468-0.246-0.79-1.65-2.812-2.22-3.618-0.816-1.812-2.218-3.292-3.958-4.232l-0.244-3.15c-0.058-0.798-0.59-1.454-1.18-1.468l-13.794-0.394c0.502-0.728 0.796-1.616 0.796-2.57 0-2.512-2.038-4.55-4.552-4.55s-4.552 2.040-4.552 4.55c0 0.868 0.254 1.664 0.672 2.352l-17.73-0.502c-0.878-0.024-1.542 0.746-1.48 1.72l2.028 31.62c0.064 0.994 0.832 1.708 1.71 1.592l18.114-2.376 0.27 0.942c-0.268 1.248-0.416 2.542-0.416 3.88 0 0.262 0.016 1.276 0.016 1.276s2.908 2.876 7.542 1.468c0.080 0 2.202 1.568 8.408 1.568s8.606-1.496 8.606-1.568c4.32 0.704 7.34-1.528 7.35-1.632 0.004-0.2 0.010-0.902 0.010-1.112-0.002-7.596-4.558-13.896-10.878-16.19zM49.122 28.008c0 1.272-0.388 2.456-1.054 3.434-1.102 1.62-2.57 2.878-4.682 2.878-1.758 0-3.732-0.936-4.852-2.122-1.028-1.098-1.656-2.568-1.656-4.192 0-3.38 2.738-6.122 6.12-6.122 3.38 0.002 6.124 2.742 6.124 6.124zM28.27 10.34c1.196 0 2.166 0.97 2.166 2.164 0 1.2-0.97 2.166-2.166 2.166s-2.166-0.966-2.166-2.166c0.002-1.194 0.972-2.164 2.166-2.164zM13.158 44.316c-0.628 0.072-1.178-0.448-1.224-1.164l-1.482-22.842c-0.046-0.704 0.428-1.268 1.054-1.256l28.468 0.46c-2.914 1.042-5.14 3.536-5.792 6.618-0.478 0.708-0.91 1.406-1.032 1.804-0.312 0.988-0.428 2.344 0.498 3.584 0.346 0.458 0.85 0.614 1.348 0.632 0.696 1.336 1.708 2.482 2.948 3.326-3.512 1.22-6.474 3.692-8.452 6.928l-2.122 0.25-4.238-14.714-1.472 0.312 4.198 14.578-12.7 1.484zM51.7 52.206c-0.11-3.93-1.81-6.674-1.81-6.674l-1.708 0.59c1.084 2.544 1.24 4.682 1.258 5.612 0 0.082-1.948 1.572-6.504 1.572-4.558 0-6.338-1.49-6.464-1.572 0.016-0.93 0.172-3.066 1.256-5.612l-1.708-0.59c0 0-1.702 2.744-1.81 6.674-1.568 0-3.466-0.23-4.218-0.464l-0.022-0.076c0.028-6.060 3.644-11.098 8.666-12.942l-0.078 4.47 4.536-3.298 4.486 3.174-0.594-4.378c5.092 1.82 8.766 6.914 8.766 13.042-1.206 0.472-2.516 0.472-4.052 0.472z"></path>
</svg>
