<!-- Generated by IcoMoon.io -->
<svg version="1.1" xmlns="http://www.w3.org/2000/svg" width="32" height="32" viewBox="0 0 32 32">
<title>free_trial_admin</title>
<path d="M20.027 13.546h-2.111c0.59 0.013 1.288 0.048 2.042 0.048s1.451-0.035 2.041-0.048h-1.933c3.060-0.011 5.537-2.493 5.537-5.557 0-3.068-2.488-5.556-5.557-5.556s-5.557 2.488-5.557 5.556c0.001 3.064 2.478 5.547 5.538 5.557zM13.023 21.326c-0.565-0.824 0.588-1.955 0.588-1.955l-1.601-1.693c0 0-1.248 1.225-1.931 0.822-0.683-0.398-0.471-1.764-0.471-1.764h-2.423c0 0 0.307 1.295-0.635 1.764-0.942 0.473-1.907-0.752-1.907-0.752l-1.694 1.646c0 0 1.482 1.016 0.706 2.096-0.424 0.594-1.719 0.494-1.719 0.494v2.334c0 0 1.601-0.098 1.907 0.729 0.306 0.824-0.824 1.764-0.824 1.764l1.647 1.697c0 0 1.271-1.178 1.978-0.775 0.706 0.396 0.541 1.834 0.541 1.834h2.354c0 0-0.165-1.531 0.824-1.885 0.988-0.352 1.647 0.826 1.647 0.826l1.766-1.719c-0.471-0.473-1.177-1.342-0.706-2.049 0.471-0.705 1.694-0.354 1.694-0.354v-2.52c0.001 0.001-1.176 0.284-1.741-0.54zM8.386 25.465c-1.296 0-2.347-1.051-2.347-2.35 0-1.295 1.051-2.346 2.347-2.346s2.347 1.051 2.347 2.346c-0.001 1.299-1.051 2.35-2.347 2.35zM23.002 13.546h-0.354c0.683 0.022 1.105 0.137 1.105 0.505 0 0.738-1.699 1.339-3.795 1.339-2.097 0-3.796-0.601-3.796-1.339 0-0.368 0.423-0.482 1.105-0.505h-0.152c-1.892 0-3.609 0.745-4.878 1.954 1.604 0.783 1.699 2.072 1.699 2.072s1.589 0.67 1.878 1.826-0.506 1.807-0.506 1.807 1.661 0.793 1.733 2.311c0.072 1.516-1.589 2.529-1.589 2.529s0.434 1.631 1.662 1.631h5.887c3.9 0 7.063-3.166 7.063-7.066 0-3.903-3.162-7.064-7.062-7.064zM26.331 20.818c0 0-0.552-0.158-0.765 0.16s0.106 0.709 0.318 0.924l-0.796 0.775c0 0-0.298-0.531-0.743-0.373-0.446 0.16-0.371 0.852-0.371 0.852h-1.063c0 0 0.074-0.648-0.244-0.83-0.318-0.18-0.892 0.352-0.892 0.352l-0.743-0.766c0 0 0.51-0.426 0.371-0.795-0.138-0.373-0.859-0.33-0.859-0.33v-1.051c0 0 0.584 0.041 0.775-0.223 0.35-0.488-0.319-0.947-0.319-0.947l0.765-0.742c0 0 0.436 0.553 0.859 0.342 0.426-0.215 0.287-0.799 0.287-0.799h1.094c0 0-0.096 0.617 0.213 0.799 0.307 0.18 0.87-0.373 0.87-0.373l0.722 0.766c0 0-0.52 0.51-0.266 0.881 0.256 0.371 0.786 0.246 0.786 0.246v1.132zM23.454 19.188c-0.585 0-1.059 0.475-1.059 1.059s0.474 1.057 1.059 1.057c0.584 0 1.058-0.473 1.058-1.057s-0.474-1.059-1.058-1.059z"></path>
</svg>
