<!-- Generated by IcoMoon.io -->
<svg version="1.1" xmlns="http://www.w3.org/2000/svg" width="64" height="64" viewBox="0 0 64 64">
<title>free_trial_employee</title>
<path d="M42.030 27.476c2.090-2.39 3.364-5.51 3.364-8.934 0-7.514-6.090-13.608-13.606-13.608s-13.606 6.094-13.606 13.608c0 3.496 1.33 6.672 3.496 9.082-8.136 4.176-13.774 13.118-13.774 23.494 0 1.16 0.144 4.132 2.214 4.132 2.072 0 8.484 0 8.484 0s7.234 3.816 13.324 3.816c6.356 0 14.122-3.816 14.122-3.816s5.552 0.024 7.688 0c2.136-0.024 2.36-2.786 2.36-4.132 0-10.5-5.77-19.53-14.066-23.642zM31.784 9.3c5.106 0 9.242 4.136 9.242 9.242 0 5.102-4.136 9.234-9.242 9.234-5.102 0-9.238-4.132-9.238-9.234-0.002-5.106 4.136-9.242 9.238-9.242zM45.888 51.152c0-3.73-2.292-9.618-2.292-9.618l-2.58 0.886c2.412 5.672 1.85 8.696 1.85 8.696s-6.15 3.816-11.016 3.816c-4.84 0-10.938-3.816-10.938-3.816s-0.632-3.024 1.778-8.696l-2.578-0.886c0 0-2.382 4.090-2.382 9.582-1.152 0-3.304 0-5.184 0 0-9.484 5.82-17.496 13.812-20.102 1.664 0.718 3.498 1.132 5.43 1.132 1.992 0 3.878-0.442 5.586-1.208 8.128 2.518 14.082 10.588 14.082 20.178-1.352 0.002-3.936 0.036-5.568 0.036z"></path>
</svg>
