<!-- Generated by IcoMoon.io -->
<svg version="1.1" xmlns="http://www.w3.org/2000/svg" width="32" height="32" viewBox="0 0 32 32">
<title>free_trial_play_around</title>
<path d="M24.624 6.285h-3.355v3.834h1.997c0.312 0 0.901 0.149 0.901 0.901 0 0.751 0 13.004 0 13.623 0 0.62-0.59 0.901-0.901 0.901h-14.532c-0.311 0-0.9-0.3-0.9-0.901s0-12.947 0-13.623c0-0.675 0.589-0.901 0.9-0.901l5.235-0.060-0.822 1.485c-0.499 0.714-0.324 1.696 0.39 2.195 0.275 0.192 0.589 0.284 0.901 0.284 0.497 0 0.987-0.235 1.294-0.674l2.642-3.795c0.591-0.756 0.295-1.952-0.097-2.496l-2.56-3.721c-0.51-0.707-1.495-0.866-2.201-0.356s-0.864 1.494-0.355 2.201l0.797 1.104h-6.581c-1.862 0-3.378 1.785-3.378 3.647v16.009c0 1.861 1.516 3.377 3.378 3.377h17.247c1.862 0 3.377-1.516 3.377-3.377v-16.28c0-1.862-1.515-3.377-3.377-3.377z"></path>
</svg>
