<!-- Generated by IcoMoon.io -->
<svg version="1.1" xmlns="http://www.w3.org/2000/svg" width="32" height="32" viewBox="0 0 32 32">
<title>free_trial_manager</title>
<path d="M19.836 14.496c1.764-1.195 2.922-3.213 2.922-5.505 0-3.667-2.974-6.642-6.643-6.642-3.668 0-6.643 2.975-6.643 6.642 0 2.323 1.192 4.366 2.997 5.555-4.657 1.688-7.073 5.14-7.073 10.737 0 0.15 0.003 0.671 0.008 0.818 0.007 0.076 1.29 1.72 4.474 1.198 0 0.059 1.769 2.351 6.341 2.351 4.574 0 6.137-2.351 6.194-2.351 3.415 1.043 4.179-1.077 4.179-1.077s0.012-0.75 0.012-0.939c0-5.651-2.041-9.138-6.768-10.787zM15.736 27.217c0 0-1.7-1.399-1.334-3.1 0.367-1.699 1.301-4.533 1.167-4.566-0.134-0.034-0.533-1.031-0.533-1.031l0.702-0.936 0.533 0.033 0.564 0.967-0.7 1.133c0 0 0.434 2.533 0.9 4.334s-1.299 3.166-1.299 3.166zM18.137 19.16l-2.090-2.231-2.057 2.14-1.483-4.519 3.634 1.661 3.598-1.639-1.602 4.588z"></path>
</svg>
