<!-- Generated by IcoMoon.io -->
<svg version="1.1" xmlns="http://www.w3.org/2000/svg" width="32" height="32" viewBox="0 0 32 32">
<title>frientship_request</title>
<path d="M18.506 15.301c-1.502-0.927-2.311-0.977-3.505-0.977-2.676 0-7.683 1.548-7.683 8.198 0 0.387 0.046 1.372 0.712 1.372h1.768c0.211 0 0.747-3.504 1.359-4.264-0.214 1.11-0.397 4.264-0.397 4.264s2.327 1.267 4.286 1.267c1.249 0 1.213 1.574-0.177-6.764-0.153-0.92 2.526-2.474 3.637-3.096zM14.996 13.411c2.003 0 3.626-1.674 3.626-3.739s-1.623-3.74-3.626-3.74-3.626 1.675-3.626 3.74c0 2.065 1.623 3.739 3.626 3.739zM26.774 22.169c0.218 0.127 2.666 1.621 2.669 1.629 0.035-0.161 0.029-0.334-0.011-0.469-0.1-0.337-1.047-3.535-1.101-3.713s-0.182-0.321-0.182-0.321-1.923 2.246-2.675 3.137c-0.576 0.683-1.244 0.609-2.089 0.101-0.488-0.296-6.788-3.977-6.788-3.977s-0.174 0.133-0.103 0.503c0.069 0.376 0.939 5.013 1.068 5.703 0.060 0.315 1.099 0.279 1.387 0.533 0.005-0.021 2.72-2.77 2.72-2.77 0.219-0.188 0.541 0.041 0.309 0.268-0.009 0.009-3.486 3.17-3.484 3.144 0.308 0.128 0.69 0.173 1.154 0.089 2.292-0.42 9.351-1.717 9.351-1.717 0.167-0.030 0.285-0.138 0.361-0.279 0.004-0.008-2.547-1.528-2.718-1.637-0.171-0.111-0.088-0.349 0.132-0.224zM20.295 17.905c0.991 0.094 5.49 0.52 5.718 0.542 0.438 0.041 0.646 0.42 0.706 0.634 0.062 0.217 0.212 0.747 0.212 0.747l0.791-0.948c0 0-3.124-2.079-3.832-2.546-0.737-0.484-1.235-0.716-2.002-0.379-0.457 0.2-4.726 2.067-4.726 2.067l2.478 1.512c0 0-0.117-0.546-0.21-0.978-0.094-0.428 0.133-0.718 0.865-0.651zM5.739 17.219c0 0-0.626 1.108-0.626 2.595h-1.362c0-2.571 1.529-4.738 3.628-5.446 0.438 0.196 0.919 0.308 1.427 0.308 0.522 0 1.019-0.121 1.467-0.329 0.353-0.126 0.521-0.34 0.521-0.34s-0.329-0.6-0.46-1.074c-0.417 0.349-0.949 0.561-1.529 0.561-1.34 0-2.426-1.122-2.426-2.503s1.086-2.502 2.426-2.502c0.448 0 0.867 0.124 1.227 0.343 0.322-0.366 0.705-0.985 0.655-0.976-0.546-0.349-1.19-0.55-1.88-0.55-1.974 0-3.574 1.651-3.574 3.685 0 0.946 0.349 1.809 0.918 2.461-2.137 1.13-3.617 3.554-3.617 6.364 0 0.314 0.037 1.119 0.581 1.119s2.228 0 2.228 0l0.606-1.12c0 0-0.166-0.818 0.467-2.354l-0.677-0.242zM19.518 14.347c0.447 0.208 0.944 0.329 1.467 0.329 0.508 0 0.988-0.112 1.426-0.308 0.481-0.349 0.914-0.504 1.229-0.917 0.569-0.652 0.918-1.515 0.918-2.461 0-2.033-1.6-3.685-3.573-3.685-0.445 0-0.873 0.083-1.266 0.237-0.021 0.523 0.002 0.897 0.268 1.167 0.305-0.143 0.643-0.221 0.999-0.221 1.34 0 2.427 1.12 2.427 2.502s-1.087 2.503-2.427 2.503c-0.58 0-1.111-0.211-1.528-0.561-0.133 0.474-0.46 1.074-0.46 1.074s0.167 0.215 0.52 0.341z"></path>
</svg>
