<!-- Generated by IcoMoon.io -->
<svg version="1.1" xmlns="http://www.w3.org/2000/svg" width="64" height="64" viewBox="0 0 64 64">
<title>friends</title>
<path d="M32.2 27.6c2-2.2 3.2-5.2 3.2-8.6 0-7.2-5.6-13-12.6-13-7.2 0-12.8 5.8-12.8 13 0 3.4 1.2 6.4 3.2 8.8-6.2 4.2-10.6 12.6-10.6 22.6 0 1.2 0.2 4 2 4 2 0 7.8 0 7.8 0s4.6 3.6 10.4 3.6c6 0 11-3.6 11-3.6s5.2 0 7.2 0c2 0 2.2-2.6 2.2-4-0.2-10.2-5.6-18.8-11-22.8zM22.6 10.2c4.8 0 8.6 4 8.6 8.8s-3.8 8.8-8.6 8.8c-4.8 0.2-8.6-3.8-8.6-8.8 0-4.8 3.8-8.8 8.6-8.8zM33.6 50.4c0-3.6-2.2-9.2-2.2-9.2l-2.4 0.8c2.2 5.4 1.8 8.4 1.8 8.4s-3.6 3.6-8 3.6c-4.4 0-8-3.6-8-3.6s-0.8-3 1.6-8.4l-2.4-0.8c0 0-2.2 4-2.2 9.2h-4.8c0-9 3.8-15.2 10.6-19.2 1.6 0.6 3.2 1 5 1s3.6-0.4 5.2-1.2c5.8 3.2 11 10.2 11 19.4-1.4 0-3.8 0-5.2 0zM51.2 26.4c1.8-2.2 3-5 3-8 0-6.8-5.4-12.4-12-12.4-3.2 0-6 1.2-8 3.2 0.6 1.2 1.4 2 2.2 3.2 1.4-1.4 3.4-2.4 5.8-2.4 4.4 0 8.2 3.8 8.2 8.4s-3.6 8.4-8.2 8.4c-1.4 0-2.6-0.4-3.8-1-0.4 1.2-1.2 3.8-1 4 1.4 0.6 3 1 4.8 1s3.4-0.4 5-1c5.4 3 10.2 9.6 10.2 18.2-1.2 0-3.4 0-4.8 0 0-3.4-2-8.8-2-8.8l-2.4 0.8c2.2 5.2 1.6 7.8 1.6 7.8s-2.2 2.2-5.2 3.2c-0.8 0.2-1 4-0.4 4 4.8-0.6 8.4-3.4 8.4-3.4s4.8 0 6.8 0c1.8 0 2-2.6 2-3.8 0-9.4-5.2-17.6-10.2-21.4z"></path>
</svg>
