<!-- Generated by IcoMoon.io -->
<svg version="1.1" xmlns="http://www.w3.org/2000/svg" width="32" height="32" viewBox="0 0 32 32">
<title>friends</title>
<path d="M16.1 13.8c1-1.1 1.6-2.6 1.6-4.3 0-3.6-2.8-6.5-6.3-6.5-3.6 0-6.4 2.9-6.4 6.5 0 1.7 0.6 3.2 1.6 4.4-3.1 2.1-5.3 6.3-5.3 11.3 0 0.6 0.1 2 1 2 1 0 3.9 0 3.9 0s2.3 1.8 5.2 1.8c3 0 5.5-1.8 5.5-1.8s2.6 0 3.6 0c1 0 1.1-1.3 1.1-2-0.1-5.1-2.8-9.4-5.5-11.4zM11.3 5.1c2.4 0 4.3 2 4.3 4.4s-1.9 4.4-4.3 4.4c-2.4 0.1-4.3-1.9-4.3-4.4 0-2.4 1.9-4.4 4.3-4.4zM16.8 25.2c0-1.8-1.1-4.6-1.1-4.6l-1.2 0.4c1.1 2.7 0.9 4.2 0.9 4.2s-1.8 1.8-4 1.8c-2.2 0-4-1.8-4-1.8s-0.4-1.5 0.8-4.2l-1.2-0.4c0 0-1.1 2-1.1 4.6h-2.4c0-4.5 1.9-7.6 5.3-9.6 0.8 0.3 1.6 0.5 2.5 0.5s1.8-0.2 2.6-0.6c2.9 1.6 5.5 5.1 5.5 9.7-0.7 0-1.9 0-2.6 0zM25.6 13.2c0.9-1.1 1.5-2.5 1.5-4 0-3.4-2.7-6.2-6-6.2-1.6 0-3 0.6-4 1.6 0.3 0.6 0.7 1 1.1 1.6 0.7-0.7 1.7-1.2 2.9-1.2 2.2 0 4.1 1.9 4.1 4.2s-1.8 4.2-4.1 4.2c-0.7 0-1.3-0.2-1.9-0.5-0.2 0.6-0.6 1.9-0.5 2 0.7 0.3 1.5 0.5 2.4 0.5s1.7-0.2 2.5-0.5c2.7 1.5 5.1 4.8 5.1 9.1-0.6 0-1.7 0-2.4 0 0-1.7-1-4.4-1-4.4l-1.2 0.4c1.1 2.6 0.8 3.9 0.8 3.9s-1.1 1.1-2.6 1.6c-0.4 0.1-0.5 2-0.2 2 2.4-0.3 4.2-1.7 4.2-1.7s2.4 0 3.4 0c0.9 0 1-1.3 1-1.9 0-4.7-2.6-8.8-5.1-10.7z"></path>
</svg>
