<!-- Generated by IcoMoon.io -->
<svg version="1.1" xmlns="http://www.w3.org/2000/svg" width="64" height="64" viewBox="0 0 64 64">
<title>frientship_request</title>
<path d="M37.012 30.602c-3.004-1.854-4.622-1.954-7.010-1.954-5.352 0-15.366 3.096-15.366 16.396 0 0.774 0.092 2.744 1.424 2.744h3.536c0.422 0 1.494-7.008 2.718-8.528-0.428 2.22-0.794 8.528-0.794 8.528s4.654 2.534 8.572 2.534c2.498 0 2.426 3.148-0.354-13.528-0.306-1.84 5.052-4.948 7.274-6.192zM29.992 26.822c4.006 0 7.252-3.348 7.252-7.478 0-4.128-3.246-7.48-7.252-7.48s-7.252 3.35-7.252 7.48c0 4.13 3.246 7.478 7.252 7.478zM53.548 44.338c0.436 0.254 5.332 3.242 5.338 3.258 0.070-0.322 0.058-0.668-0.022-0.938-0.2-0.674-2.094-7.070-2.202-7.426-0.106-0.358-0.364-0.642-0.364-0.642s-3.846 4.492-5.35 6.274c-1.152 1.366-2.488 1.218-4.178 0.202-0.976-0.592-13.576-7.954-13.576-7.954s-0.348 0.266-0.206 1.006c0.138 0.752 1.878 10.026 2.136 11.406 0.12 0.63 2.198 0.558 2.774 1.066 0.010-0.042 5.44-5.54 5.44-5.54 0.438-0.376 1.082 0.082 0.618 0.536-0.018 0.018-6.972 6.34-6.968 6.288 0.616 0.256 1.38 0.346 2.308 0.178 4.584-0.84 18.702-3.434 18.702-3.434 0.334-0.060 0.57-0.276 0.722-0.558 0.008-0.016-5.094-3.056-5.436-3.274-0.342-0.222-0.176-0.698 0.264-0.448zM40.59 35.81c1.982 0.188 10.98 1.040 11.436 1.084 0.876 0.082 1.292 0.84 1.412 1.268 0.124 0.434 0.424 1.494 0.424 1.494l1.582-1.896c0 0-6.248-4.158-7.664-5.092-1.474-0.968-2.47-1.432-4.004-0.758-0.914 0.4-9.452 4.134-9.452 4.134l4.956 3.024c0 0-0.234-1.092-0.42-1.956-0.188-0.856 0.266-1.436 1.73-1.302zM11.478 34.438c0 0-1.252 2.216-1.252 5.19h-2.724c0-5.142 3.058-9.476 7.256-10.892 0.876 0.392 1.838 0.616 2.854 0.616 1.044 0 2.038-0.242 2.934-0.658 0.706-0.252 1.042-0.68 1.042-0.68s-0.658-1.2-0.92-2.148c-0.834 0.698-1.898 1.122-3.058 1.122-2.68 0-4.852-2.244-4.852-5.006 0-2.764 2.172-5.004 4.852-5.004 0.896 0 1.734 0.248 2.454 0.686 0.644-0.732 1.41-1.97 1.31-1.952-1.092-0.698-2.38-1.1-3.76-1.1-3.948 0-7.148 3.302-7.148 7.37 0 1.892 0.698 3.618 1.836 4.922-4.274 2.26-7.234 7.108-7.234 12.728 0 0.628 0.074 2.238 1.162 2.238s4.456 0 4.456 0l1.212-2.24c0 0-0.332-1.636 0.934-4.708l-1.354-0.484zM39.036 28.694c0.894 0.416 1.888 0.658 2.934 0.658 1.016 0 1.976-0.224 2.852-0.616 0.962-0.698 1.828-1.008 2.458-1.834 1.138-1.304 1.836-3.030 1.836-4.922 0-4.066-3.2-7.37-7.146-7.37-0.89 0-1.746 0.166-2.532 0.474-0.042 1.046 0.004 1.794 0.536 2.334 0.61-0.286 1.286-0.442 1.998-0.442 2.68 0 4.854 2.24 4.854 5.004 0 2.762-2.174 5.006-4.854 5.006-1.16 0-2.222-0.422-3.056-1.122-0.266 0.948-0.92 2.148-0.92 2.148s0.334 0.43 1.040 0.682z"></path>
</svg>
