<!-- Generated by IcoMoon.io -->
<svg version="1.1" xmlns="http://www.w3.org/2000/svg" width="32" height="32" viewBox="0 0 32 32">
<title>gamification</title>
<path d="M19.4 7.1l4.7-5h-16l4.5 5h6.8zM22.3 15.4l7.7-9.1-4.1-4-9 10.3c0 0 3.7 0.6 5.4 2.8zM16 14.6c-4.2 0-7.7 3.4-7.7 7.7 0 4.2 3.4 7.7 7.7 7.7 4.2 0 7.7-3.4 7.7-7.7s-3.4-7.7-7.7-7.7zM16 27.7c-3 0-5.4-2.4-5.4-5.4s2.4-5.4 5.4-5.4c3 0 5.4 2.4 5.4 5.4 0 2.9-2.4 5.4-5.4 5.4zM15.1 12.6l-9-10.3-4.1 4 7.7 9.1c1.7-2.1 5.4-2.8 5.4-2.8zM12.3 22.9c0.4 0 1.4 0 1.9 0 0-1.5 0.5-2.2 2.1-2.2 0-0.5 0-1.2 0-1.8-2.2 0-4 1.8-4 4z"></path>
</svg>
