<!-- Generated by IcoMoon.io -->
<svg version="1.1" xmlns="http://www.w3.org/2000/svg" width="64" height="64" viewBox="0 0 64 64">
<title>gamification</title>
<path d="M38.8 14.2l9.4-10h-32l9 10h13.6zM44.6 30.8l15.4-18.2-8.2-8-18 20.6c0 0 7.4 1.2 10.8 5.6zM32 29.2c-8.4 0-15.4 6.8-15.4 15.4 0 8.4 6.8 15.4 15.4 15.4 8.4 0 15.4-6.8 15.4-15.4s-6.8-15.4-15.4-15.4zM32 55.4c-6 0-10.8-4.8-10.8-10.8s4.8-10.8 10.8-10.8c6 0 10.8 4.8 10.8 10.8 0 5.8-4.8 10.8-10.8 10.8zM30.2 25.2l-18-20.6-8.2 8 15.4 18.2c3.4-4.2 10.8-5.6 10.8-5.6zM24.6 45.8c0.8 0 2.8 0 3.8 0 0-3 1-4.4 4.2-4.4 0-1 0-2.4 0-3.6-4.4 0-8 3.6-8 8z"></path>
</svg>
