<!-- Generated by IcoMoon.io -->
<svg version="1.1" xmlns="http://www.w3.org/2000/svg" width="32" height="32" viewBox="0 0 32 32">
<title>gift</title>
<path d="M23.061 9.407c0.704-0.46 1.446-1.871 1.446-3.121s-0.986-3.221-2.893-3.221c-3.419 0-4.535 4.076-5.652 4.076-1.118 0.001-2.433-4.141-5.523-4.141-1.709 0-3.023 1.644-3.023 3.287 0 1.644 0.906 2.66 1.38 3.121-1.752 0-3.049 0-3.049 0v4.727h20.506v-4.728c0 0-1.277 0-3.192 0zM13.99 9.407c0 0-0.539 0-1.052 0-1.314 0-3.747-1.477-3.747-2.989 0-0.329 0.196-1.578 1.183-1.578 1.709 0 3.616 2.827 3.616 3.681 0 0.395 0 0.886 0 0.886zM18.991 9.407c-0.514 0-1.052 0-1.052 0s0-0.491 0-0.886c0-0.854 1.906-3.681 3.614-3.681 0.986 0 1.185 1.25 1.185 1.578 0 1.512-2.432 2.989-3.747 2.989zM6.682 29h8.407v-13.022h-8.407v13.022zM16.928 29h8.406v-13.022h-8.406v13.022z"></path>
</svg>
