<!-- Generated by IcoMoon.io -->
<svg version="1.1" xmlns="http://www.w3.org/2000/svg" width="64" height="64" viewBox="0 0 64 64">
<title>gift</title>
<path d="M46.122 18.814c1.408-0.92 2.892-3.742 2.892-6.242 0-2.498-1.972-6.442-5.786-6.442-6.838 0-9.070 8.152-11.304 8.152-2.236 0.002-4.866-8.282-11.046-8.282-3.418 0-6.046 3.288-6.046 6.574 0 3.288 1.812 5.32 2.76 6.242-3.504 0-6.098 0-6.098 0v9.454h41.012v-9.456c0 0-2.554 0-6.384 0zM27.98 18.814c0 0-1.078 0-2.104 0-2.628 0-7.494-2.954-7.494-5.978 0-0.658 0.392-3.156 2.366-3.156 3.418 0 7.232 5.654 7.232 7.362 0 0.79 0 1.772 0 1.772zM37.982 18.814c-1.028 0-2.104 0-2.104 0s0-0.982 0-1.772c0-1.708 3.812-7.362 7.228-7.362 1.972 0 2.37 2.5 2.37 3.156 0 3.024-4.864 5.978-7.494 5.978zM13.364 58h16.814v-26.044h-16.814v26.044zM33.856 58h16.812v-26.044h-16.812v26.044z"></path>
</svg>
