<!-- Generated by IcoMoon.io -->
<svg version="1.1" xmlns="http://www.w3.org/2000/svg" width="64" height="64" viewBox="0 0 64 64">
<title>globe-time_zone</title>
<path d="M32 6.2c-14.2 0-25.8 11.6-25.8 25.8s11.6 25.8 25.8 25.8 25.8-11.6 25.8-25.8c0-14.2-11.6-25.8-25.8-25.8zM51.4 21.2c1.6 2.8 2.6 6.2 2.8 9.6h-8.6c-0.2-3.6-0.8-6.8-1.8-9.6h7.6zM49.8 18.8h-7c-1.6-3.6-3.8-6.4-5.8-8.4 5.2 1.2 9.8 4.2 12.8 8.4zM33.2 10.2c1.8 1.4 4.6 4.2 6.8 8.6h-6.8v-8.6zM33.2 21.2h8c1.2 2.8 2 6 2 9.6h-10v-9.6zM33.2 33.2h10c-0.2 3.6-1 6.8-2 9.6h-7.8v-9.6zM40 45.2c-2.2 4.2-5 7.2-6.8 8.4v-8.4h6.8zM30.8 30.8h-9.8c0.2-3.6 0.8-6.8 2-9.6h8v9.6zM30.8 33.2v9.6h-7.8c-1-2.8-1.8-6-2-9.6h9.8zM30.8 45.2v8.4c-2-1.4-4.8-4.2-6.8-8.4h6.8zM30.8 10.4v8.4h-6.8c2-4.2 4.8-7 6.8-8.4zM27.2 10.4c-2 2-4.2 4.8-5.8 8.4h-7.2c3-4.2 7.6-7.2 13-8.4zM12.6 21.2h7.8c-1 2.8-1.6 6-1.8 9.6h-8.8c0.2-3.4 1.2-6.8 2.8-9.6zM12.6 42.8c-1.6-2.8-2.6-6.2-2.8-9.6h8.6c0.2 3.6 0.8 6.8 1.8 9.6h-7.6zM14.2 45.2h7.2c1.8 3.8 4 6.6 6 8.6-5.4-1.4-10.2-4.4-13.2-8.6zM36.8 53.6c2-2 4.2-4.8 6-8.4h7.2c-3.2 4.2-7.8 7.2-13.2 8.4zM43.8 42.8c1-2.8 1.6-6 1.8-9.6h8.6c-0.2 3.4-1.2 6.8-2.8 9.6h-7.6z"></path>
</svg>
