<!-- Generated by IcoMoon.io -->
<svg version="1.1" xmlns="http://www.w3.org/2000/svg" width="32" height="32" viewBox="0 0 32 32">
<title>globe-time_zone</title>
<path d="M16 3.1c-7.1 0-12.9 5.8-12.9 12.9s5.8 12.9 12.9 12.9 12.9-5.8 12.9-12.9c0-7.1-5.8-12.9-12.9-12.9zM25.7 10.6c0.8 1.4 1.3 3.1 1.4 4.8h-4.3c-0.1-1.8-0.4-3.4-0.9-4.8h3.8zM24.9 9.4h-3.5c-0.8-1.8-1.9-3.2-2.9-4.2 2.6 0.6 4.9 2.1 6.4 4.2zM16.6 5.1c0.9 0.7 2.3 2.1 3.4 4.3h-3.4v-4.3zM16.6 10.6h4c0.6 1.4 1 3 1 4.8h-5v-4.8zM16.6 16.6h5c-0.1 1.8-0.5 3.4-1 4.8h-3.9v-4.8zM20 22.6c-1.1 2.1-2.5 3.6-3.4 4.2v-4.2h3.4zM15.4 15.4h-4.9c0.1-1.8 0.4-3.4 1-4.8h4v4.8zM15.4 16.6v4.8h-3.9c-0.5-1.4-0.9-3-1-4.8h4.9zM15.4 22.6v4.2c-1-0.7-2.4-2.1-3.4-4.2h3.4zM15.4 5.2v4.2h-3.4c1-2.1 2.4-3.5 3.4-4.2zM13.6 5.2c-1 1-2.1 2.4-2.9 4.2h-3.6c1.5-2.1 3.8-3.6 6.5-4.2zM6.3 10.6h3.9c-0.5 1.4-0.8 3-0.9 4.8h-4.4c0.1-1.7 0.6-3.4 1.4-4.8zM6.3 21.4c-0.8-1.4-1.3-3.1-1.4-4.8h4.3c0.1 1.8 0.4 3.4 0.9 4.8h-3.8zM7.1 22.6h3.6c0.9 1.9 2 3.3 3 4.3-2.7-0.7-5.1-2.2-6.6-4.3zM18.4 26.8c1-1 2.1-2.4 3-4.2h3.6c-1.6 2.1-3.9 3.6-6.6 4.2zM21.9 21.4c0.5-1.4 0.8-3 0.9-4.8h4.3c-0.1 1.7-0.6 3.4-1.4 4.8h-3.8z"></path>
</svg>
