<!-- Generated by IcoMoon.io -->
<svg version="1.1" xmlns="http://www.w3.org/2000/svg" width="64" height="64" viewBox="0 0 64 64">
<title>go_to</title>
<path d="M48.2 50.6h-32.8v-32.8h19.2l-6.6-6.4c0 0-9.4 0-12.4 0s-6.6 1.8-6.6 6.6v31.8c0 4.6 2.6 7.2 7 7.2h31.4c4.4 0 7.2-2.6 7.2-7s0-12.2 0-12.2l-6.4-6.6v19.4zM54.4 7h-16.6c-2.2 0-3.2 2.4-1.6 4s6.4 6.4 6.4 6.4-13.6 13.6-15.8 15.6-2.6 4.4-0.8 6.6c1.8 2 4.4 1.6 6 0.2 1.4-1.4 16.6-16.4 16.6-16.4s4.6 4.8 6.4 6.6 4 0 4-1.8v-16.8c0-3.2-1.6-4.4-4.6-4.4z"></path>
</svg>
