<!-- Generated by IcoMoon.io -->
<svg version="1.1" xmlns="http://www.w3.org/2000/svg" width="32" height="32" viewBox="0 0 32 32">
<title>go_to</title>
<path d="M24.1 25.3h-16.4v-16.4h9.6l-3.3-3.2c0 0-4.7 0-6.2 0s-3.3 0.9-3.3 3.3v15.9c0 2.3 1.3 3.6 3.5 3.6h15.7c2.2 0 3.6-1.3 3.6-3.5s0-6.1 0-6.1l-3.2-3.3v9.7zM27.2 3.5h-8.3c-1.1 0-1.6 1.2-0.8 2s3.2 3.2 3.2 3.2-6.8 6.8-7.9 7.8-1.3 2.2-0.4 3.3c0.9 1 2.2 0.8 3 0.1 0.7-0.7 8.3-8.2 8.3-8.2s2.3 2.4 3.2 3.3 2 0 2-0.9v-8.4c0-1.6-0.8-2.2-2.3-2.2z"></path>
</svg>
