<!-- Generated by IcoMoon.io -->
<svg version="1.1" xmlns="http://www.w3.org/2000/svg" width="32" height="32" viewBox="0 0 32 32">
<title>goal_organasational</title>
<path d="M17.8 9c-1.5 0-2.8 0.4-4 1 0.5 0.6 0.9 1 1.5 1.4 0.8-0.3 1.6-0.5 2.5-0.5 3.1 0 5.7 2.1 6.5 5 0.8 0 1.4 0 2 0-0.8-3.9-4.3-6.9-8.5-6.9zM17.8 6.1c6.3 0 11.5 5.1 11.5 11.5 0 1.5-0.3 2.9-0.8 4.2 0.3 0.3 0.8 0.7 1.4 1.4 0.8-1.7 1.2-3.6 1.2-5.6 0-7.4-6-13.3-13.3-13.3-2.9 0-5.5 0.9-7.7 2.5 0.6 0.5 0.9 0.8 1.4 1.2 1.8-1.2 4-1.9 6.3-1.9zM14.9 16c-0.3 0.5-0.4 1-0.4 1.6 0 0.9 0.3 1.7 0.9 2.3 0-1.8 0-3.9 0-3.9s3.3 0 5.3 0c-0.6-1-1.7-1.7-2.9-1.7-0.7 0-1.3 0.2-1.8 0.6l-8.5-7.7v-2.4l-4-3.6v3.4l-3.5 0.4 4 3.6 2.4-0.3 8.5 7.7zM6.3 17.6c0-1.9 0.5-3.7 1.3-5.3-0.7-0.6-0.9-0.8-1.4-1.3-1.1 2-1.8 4.2-1.8 6.6 0 4.3 2 8.1 5.1 10.5 0.2-0.5 0.5-1 0.9-1.7-2.5-2.1-4.1-5.3-4.1-8.8zM9.9 14.3c-0.4 1-0.7 2.1-0.7 3.3 0 2.6 1.2 5 3 6.5 0.3-0.7 0.6-0.9 1-1.7-1.3-1.2-2.1-2.9-2.1-4.8 0-0.7 0.1-1.3 0.3-1.9-0.5-0.5-1.1-0.8-1.5-1.4zM29.2 27.9v-3.9h-7v-2h4v-4h-9v4h4v2h-7v3.9h-3v3h7v-3h-3v-3h6v3h-2v3h5v-3h-2v-3h6v3h-3v3h7v-3h-3z"></path>
</svg>
