<!-- Generated by IcoMoon.io -->
<svg version="1.1" xmlns="http://www.w3.org/2000/svg" width="32" height="32" viewBox="0 0 32 32">
<title>goal_edit</title>
<path d="M14.9 16c-0.3 0.5-0.4 1-0.4 1.6 0 1.3 0.8 2.4 1.8 3 0.7-1.3 2.3-3.4 4.5-4.6-0.6-1.1-1.7-1.8-3-1.8-0.7 0-1.3 0.2-1.8 0.6l-8.5-7.6v-2.4l-4-3.6v3.4l-3.5 0.4 4 3.6 2.4-0.3 8.5 7.7zM17.4 29.1c-6.1-0.2-11-5.3-11-11.5 0-1.9 0.5-3.7 1.3-5.3-0.7-0.6-0.9-0.8-1.4-1.3-1.1 2-1.8 4.2-1.8 6.6 0 7.4 6 13.3 13.3 13.3 0.4 0 0.7-0.1 0.9-0.2-0.7-0.5-1.2-1.3-1.3-1.6zM17.8 10.9c3.1 0 5.7 2.1 6.5 5 0.5 0 1.1 0.1 2 0.1-0.8-4-4.3-7-8.5-7-1.5 0-2.8 0.4-4 1 0.5 0.6 0.9 1 1.5 1.4 0.8-0.3 1.6-0.5 2.5-0.5zM9.9 14.3c-0.4 1-0.7 2.1-0.7 3.3 0 4.2 3 7.7 7 8.5-0.1-0.7-0.1-1.4-0.1-2-2.8-0.8-4.9-3.4-4.9-6.4 0-0.7 0.1-1.3 0.3-1.9-0.6-0.6-1.2-0.9-1.6-1.5zM17.8 4.3c-2.9 0-5.5 0.9-7.7 2.5 0.6 0.5 0.9 0.8 1.4 1.2 1.8-1.2 4-1.9 6.3-1.9 6.2 0 11.2 4.8 11.5 10.9 0.2 0.1 1 0.5 1.8 1.4 0-0.3 0-0.5 0-0.8 0-7.4-5.9-13.3-13.3-13.3zM29.3 22.6c-0.6-0.8 0.6-2 0.6-2l-1.6-1.7c0 0-1.2 1.2-1.9 0.8s-0.5-1.8-0.5-1.8h-2.4c0 0 0.3 1.3-0.6 1.8-1 0.5-1.9-0.7-1.9-0.7l-1.7 1.6c0 0 1.5 1 0.7 2.1-0.4 0.6-1.7 0.5-1.7 0.5v2.3c0 0 1.6-0.1 1.9 0.7s-0.8 1.8-0.8 1.8l1.6 1.7c0 0 1.3-1.2 2-0.8s0.5 1.8 0.5 1.8h2.4c0 0-0.2-1.5 0.8-1.9s1.6 0.8 1.6 0.8l1.8-1.7c-0.5-0.5-1.2-1.3-0.7-2s1.7-0.4 1.7-0.4v-2.5c0 0.1-1.2 0.4-1.8-0.4zM24.7 26.7c-1.3 0-2.3-1.1-2.3-2.3 0-1.3 1.1-2.3 2.3-2.3 1.3 0 2.3 1.1 2.3 2.3 0 1.3-1 2.3-2.3 2.3z"></path>
</svg>
