<!-- Generated by IcoMoon.io -->
<svg version="1.1" xmlns="http://www.w3.org/2000/svg" width="64" height="64" viewBox="0 0 64 64">
<title>goal_team</title>
<path d="M16.4 47.8c-2.4-3.6-3.8-8-3.8-12.6 0-3.8 1-7.4 2.6-10.6-1.4-1.2-1.8-1.6-2.8-2.6-2.2 4-3.6 8.4-3.6 13.2 0 7.2 2.8 13.8 7.6 18.6 0-1.8 0-4.6 0-6zM35.6 21.8c5.4 0 10.2 3.2 12.2 8 1.8 0 2.6 0 4.2 0-2.2-6.8-8.8-11.8-16.4-11.8-3 0-5.6 0.8-8 2 1 1.2 1.8 2 3 2.8 1.6-0.6 3.2-1 5-1zM27.6 30l2.8-1.6-15.4-14v-4.8l-8-7.2v6.8l-7 0.8 8 7.2 4.8-0.6 14.8 13.4zM35.6 8.6c-5.8 0-11 1.8-15.4 5 1.2 1 1.8 1.6 2.8 2.4 3.6-2.4 8-3.8 12.6-3.8 12.6 0 23 10.2 23 23 0 1.6-0.2 3-0.4 4.4 1 1.8 2 2.6 2.8 3.6 0.8-2.6 1.2-5.2 1.2-8 0-14.8-11.8-26.6-26.6-26.6zM22.2 35.2c0-1.4 0.2-2.6 0.6-3.8-1-1-2.2-1.6-3-2.8-0.8 2-1.4 4.2-1.4 6.6s0.4 4.6 1.4 6.6c0.8-0.8 2.4-1.6 3.4-2-0.6-1.4-1-3-1-4.6zM54 42.2c1-1 1.4-2.4 1.4-4 0-3.2-2.6-6-5.8-6-1.6 0-3.2 0.8-4.2 1.8-0.8-2.4-3-4-5.6-4s-4.8 1.8-5.6 4.4c-1-1.2-2.6-2.2-4.4-2.2-3.2 0-5.8 2.6-5.8 6 0 1.6 0.6 3 1.4 4-3.4 1.8-5.8 5.8-5.8 10.2 0 0.6 0 1.8 1 1.8 0.8 0 3.6 0 3.6 0s1.4 0.8 3.2 1.2c-0.2-0.2 0.2-1.8 0.2-2-1.2-0.4-2.4-1.2-2.4-1.2s-0.2-1.4 0.8-3.8l-1-0.4c0 0-1 1.8-1 4.2-0.4 0-1.4 0-2.2 0 0-4.2 2.4-7.6 5.8-8.8 0.8 0.4 1.4 0.4 2.4 0.4 0.8 0 1.6-0.2 2.4-0.6 0.6-0.2 0.8-0.6 0.8-0.6s-0.6-1-0.8-1.8c-0.6 0.6-1.6 1-2.4 1-2.2 0-4-1.8-4-4s1.8-4 4-4c1.2 0 2.4 0.6 3 1.6 0.4-0.2 1-0.8 1.2-1 0 0.4-0.2 0.8-0.2 1.4 0 3.4 2.6 6 5.8 6s5.8-2.8 5.8-6c0-0.4 0-0.6 0-1 0.2 0.2 0.6 0.4 0.8 0.6 0.8-1 1.8-1.6 3-1.6 2.2 0 4 1.8 4 4s-1.8 4-4 4c-1 0-1.8-0.4-2.4-1-0.2 0.8-0.8 1.8-0.8 1.8s0.2 0.4 0.8 0.6c0.8 0.4 1.6 0.6 2.4 0.6s1.6-0.2 2.4-0.4c3.4 1.2 5.8 4.6 5.8 8.8-0.8 0-1.8 0-2.2 0 0-2.4-1-4.2-1-4.2l-1 0.4c1 2.4 0.8 3.8 0.8 3.8s-0.8 0.6-2 1c-1.6-8-8.4-9.8-12.4-9.8-4.4 0-12.4 2.6-12.4 13.2 0 0.6 0 2.2 1.2 2.2 0.6 0 1.8 0 2.8 0 0.4 0 1.2-5.6 2.2-6.8-0.4 1.8-0.6 6.8-0.6 6.8s3.8 2 7 2c3.4 0 7.4-2 7.4-2s0.2-4.6 0-6.8c0.4 0 1.8 6.8 2.2 6.8 0.6 0 1.4 0 1.8 0 1.2 0 1.2-1.4 1.2-2.2 0-0.6 0-1 0-1.4 1.6-0.4 2.6-1.2 2.6-1.2s2.8 0 3.6 0c0.8 0 1-1.4 1-1.8 0-4.4-2.4-8.2-5.8-10z"></path>
</svg>
