<!-- Generated by IcoMoon.io -->
<svg version="1.1" xmlns="http://www.w3.org/2000/svg" width="64" height="64" viewBox="0 0 64 64">
<title>goal_management</title>
<path d="M20.6 28.422c-0.856 2.042-1.328 4.288-1.328 6.64 0 9.512 7.708 17.22 17.216 17.22 9.512 0 17.222-7.708 17.222-17.22 0-9.508-7.71-17.216-17.222-17.216-2.918 0-5.664 0.724-8.072 2.006 1.022 1.198 1.834 1.92 3.014 2.856 1.56-0.64 3.268-0.992 5.058-0.992 7.376 0 13.352 5.976 13.352 13.348 0 7.376-5.976 13.352-13.352 13.352-7.372 0-13.348-5.976-13.348-13.352 0-1.32 0.192-2.598 0.55-3.804-0.966-0.946-2.134-1.588-3.090-2.838zM36.488 8.388c-5.746 0-11.068 1.818-15.422 4.91 1.228 1.214 1.746 1.712 2.832 2.526 3.618-2.372 7.944-3.752 12.592-3.752 12.7 0 22.992 10.292 22.992 22.99 0 12.7-10.292 22.992-22.992 22.992-12.696 0-22.99-10.292-22.99-22.992 0-3.838 0.94-7.456 2.604-10.636-1.372-1.29-1.782-1.592-2.77-2.61-2.238 3.902-3.518 8.426-3.518 13.246 0 14.734 11.944 26.676 26.672 26.676 14.734 0 26.676-11.942 26.676-26.676 0-14.73-11.942-26.674-26.676-26.674zM30.666 31.796c-0.55 0.976-0.89 2.086-0.89 3.286 0 3.718 3.014 6.73 6.73 6.73 3.718 0 6.73-3.012 6.73-6.73 0-3.716-3.012-6.73-6.73-6.73-1.372 0-2.648 0.416-3.712 1.122l-16.978-15.154-0.058-4.826-8.056-7.232 0.082 6.886-6.95 0.762 8.058 7.232 4.766-0.522 17.008 15.176z"></path>
</svg>
