<!-- Generated by IcoMoon.io -->
<svg version="1.1" xmlns="http://www.w3.org/2000/svg" width="64" height="64" viewBox="0 0 64 64">
<title>goal_create</title>
<path d="M35.4 18c-3 0-5.6 0.8-8 2 1 1.2 1.8 2 3 2.8 1.6-0.6 3.2-1 5-1 6.2 0 11.4 4.2 12.8 10 0.8 0 2 0 4 0-1.4-8-8.4-13.8-16.8-13.8zM29.8 31.8c-0.6 1-0.8 2-0.8 3.2 0 3.6 3 6.6 6.6 6.6s6.6-3 6.6-6.6c0-3.6-3-6.6-6.6-6.6-1.4 0-2.6 0.4-3.6 1.2l-17-15.2v-4.8l-8-7.2v6.8l-7 0.8 8 7.2 4.8-0.6 17 15.2zM35.4 12.2c12.6 0 22.8 10.2 22.8 22.8 0 2.2-0.4 4.4-1 6.4 1.6 0 2.8 0.2 3.8 0.2 0.6-2.2 0.8-4.4 0.8-6.6 0-14.6-11.8-26.6-26.6-26.6-5.8 0-11 1.8-15.4 4.8 1.2 1.2 1.8 1.8 2.8 2.6 4-2.2 8.2-3.6 12.8-3.6zM19.6 28.4c-0.8 2-1.4 4.2-1.4 6.6 0 9 7 16.4 15.8 17 0-1.6 0-3 0-3.8-6.8-0.6-12-6.4-12-13.2 0-1.4 0.2-2.6 0.6-3.8-0.8-0.8-2-1.6-3-2.8zM35.4 58c-12.6 0-22.8-10.2-22.8-22.8 0-3.8 1-7.4 2.6-10.6-1.4-1.2-1.8-1.6-2.8-2.6-2.2 3.8-3.6 8.4-3.6 13.2 0 14.6 11.8 26.6 26.6 26.6 3 0 6-0.6 8.6-1.4 0-0.8 0-2.8 0-4-2.6 1-5.4 1.6-8.6 1.6zM54 45.6v-10h-6v10h-10v6h10v10h6v-10h10v-6h-10z"></path>
</svg>
