<!-- Generated by IcoMoon.io -->
<svg version="1.1" xmlns="http://www.w3.org/2000/svg" width="64" height="64" viewBox="0 0 64 64">
<title>goal_edit</title>
<path d="M29.8 32c-0.6 1-0.8 2-0.8 3.2 0 2.6 1.6 4.8 3.6 6 1.4-2.6 4.6-6.8 9-9.2-1.2-2.2-3.4-3.6-6-3.6-1.4 0-2.6 0.4-3.6 1.2l-17-15.2v-4.8l-8-7.2v6.8l-7 0.8 8 7.2 4.8-0.6 17 15.4zM34.8 58.2c-12.2-0.4-22-10.6-22-23 0-3.8 1-7.4 2.6-10.6-1.4-1.2-1.8-1.6-2.8-2.6-2.2 4-3.6 8.4-3.6 13.2 0 14.8 12 26.6 26.6 26.6 0.8 0 1.4-0.2 1.8-0.4-1.4-1-2.4-2.6-2.6-3.2zM35.6 21.8c6.2 0 11.4 4.2 13 10 1 0 2.2 0.2 4 0.2-1.6-8-8.6-14-17-14-3 0-5.6 0.8-8 2 1 1.2 1.8 2 3 2.8 1.6-0.6 3.2-1 5-1zM19.8 28.6c-0.8 2-1.4 4.2-1.4 6.6 0 8.4 6 15.4 14 17-0.2-1.4-0.2-2.8-0.2-4-5.6-1.6-9.8-6.8-9.8-12.8 0-1.4 0.2-2.6 0.6-3.8-1.2-1.2-2.4-1.8-3.2-3zM35.6 8.6c-5.8 0-11 1.8-15.4 5 1.2 1 1.8 1.6 2.8 2.4 3.6-2.4 8-3.8 12.6-3.8 12.4 0 22.4 9.6 23 21.8 0.4 0.2 2 1 3.6 2.8 0-0.6 0-1 0-1.6 0-14.8-11.8-26.6-26.6-26.6zM58.6 45.2c-1.2-1.6 1.2-4 1.2-4l-3.2-3.4c0 0-2.4 2.4-3.8 1.6s-1-3.6-1-3.6h-4.8c0 0 0.6 2.6-1.2 3.6-2 1-3.8-1.4-3.8-1.4l-3.4 3.2c0 0 3 2 1.4 4.2-0.8 1.2-3.4 1-3.4 1v4.6c0 0 3.2-0.2 3.8 1.4s-1.6 3.6-1.6 3.6l3.2 3.4c0 0 2.6-2.4 4-1.6s1 3.6 1 3.6h4.8c0 0-0.4-3 1.6-3.8s3.2 1.6 3.2 1.6l3.6-3.4c-1-1-2.4-2.6-1.4-4s3.4-0.8 3.4-0.8v-5c0 0.2-2.4 0.8-3.6-0.8zM49.4 53.4c-2.6 0-4.6-2.2-4.6-4.6 0-2.6 2.2-4.6 4.6-4.6 2.6 0 4.6 2.2 4.6 4.6 0 2.6-2 4.6-4.6 4.6z"></path>
</svg>
