<!-- Generated by IcoMoon.io -->
<svg version="1.1" xmlns="http://www.w3.org/2000/svg" width="64" height="64" viewBox="0 0 64 64">
<title>goal_personal</title>
<path d="M29.8 32c-0.6 1-0.8 2-0.8 3.2 0 3.8 3 6.8 6.8 6.8 0.4 0 0.8 0 1.2-0.2-1.8-4.2-1.8-8.6 1.8-12.6-1-0.4-2-0.8-3-0.8-1.4 0-2.6 0.4-3.6 1.2l-17.2-15.2v-4.8l-8-7.2v6.8l-7 0.8 8 7.2 4.8-0.6 17 15.4zM27.6 20c1 1.2 1.8 2 3 2.8 1.6-0.6 3.2-1 5-1 3.8 0 7.2 1.6 9.6 4 1.8 0 2.6 0 5 0-3-4.8-8.4-8-14.4-8-3 0.2-5.8 1-8.2 2.2zM12.6 35.2c0-3.8 1-7.4 2.6-10.6-1.4-1.2-1.8-1.6-2.8-2.6-2.2 4-3.6 8.4-3.6 13.2 0 13.2 9.6 24.2 22 26.2-0.6-1-1.2-2.6-1.8-4.2-9.4-2.8-16.4-11.6-16.4-22zM22.2 35.2c0-1.4 0.2-2.6 0.6-3.8-1-1-2.2-1.6-3-2.8-0.8 2-1.4 4.2-1.4 6.6 0 7.4 4.8 13.8 11.4 16.2 0.4-1 1.4-2.8 2.2-3.4-5.6-1.6-9.8-6.6-9.8-12.8zM35.6 12.2c12.6 0 23 10.2 23 23 0 1.8-0.2 3.6-0.6 5.4 1 0.8 2 1.4 3.2 2.4 0.8-2.4 1.2-5 1.2-7.6 0-14.8-12-26.6-26.6-26.6-5.8 0-11 1.8-15.4 5 1 0.8 1.6 1.4 2.6 2.2 3.6-2.4 8-3.8 12.6-3.8zM54 42.4c1.2-1.4 2-3.4 2-5.4 0-4.6-3.6-8.2-8.2-8.2s-8.2 3.8-8.2 8.2c0 2.2 0.8 4 2.2 5.6-5 2.6-8.4 8-8.4 14.2 0 0.8 0 3 1.4 3 1.2 0 5.2 0 5.2 0s4.4 2.4 8 2.4c3.8 0 8.6-2.4 8.6-2.4s3.4 0 4.6 0c1.2 0 1.4-2.2 1.4-3 0-6.4-3.6-12-8.6-14.4zM47.8 31.6c3 0 5.2 2.4 5.2 5.2s-2.4 5.2-5.2 5.2c-3 0-5.2-2.4-5.2-5.2s2.2-5.2 5.2-5.2zM56 56.4c0-2.2-1.4-5.6-1.4-5.6l-2 0.6c1.4 3.4 1.2 5 1.2 5s-3 2.2-6 2.2c-3 0-6-2.2-6-2.2s-0.4-1.6 1-5l-2-0.6c0 0-1.4 2.2-1.4 5.6-0.8 0-1.6 0-2.8 0 0-5.8 3.2-9.8 8-11.4 1 0.4 1.8 0.6 3 0.6s2-0.2 3-0.8c5 1.6 8.6 5.6 8.6 11.4-0.6 0.2-2.2 0.2-3.2 0.2z"></path>
</svg>
