<!-- Generated by IcoMoon.io -->
<svg version="1.1" xmlns="http://www.w3.org/2000/svg" width="32" height="32" viewBox="0 0 32 32">
<title>goal_create</title>
<path d="M17.7 9c-1.5 0-2.8 0.4-4 1 0.5 0.6 0.9 1 1.5 1.4 0.8-0.3 1.6-0.5 2.5-0.5 3.1 0 5.7 2.1 6.4 5 0.4 0 1 0 2 0-0.7-4-4.2-6.9-8.4-6.9zM14.9 15.9c-0.3 0.5-0.4 1-0.4 1.6 0 1.8 1.5 3.3 3.3 3.3s3.3-1.5 3.3-3.3c0-1.8-1.5-3.3-3.3-3.3-0.7 0-1.3 0.2-1.8 0.6l-8.5-7.6v-2.4l-4-3.6v3.4l-3.5 0.4 4 3.6 2.4-0.3 8.5 7.6zM17.7 6.1c6.3 0 11.4 5.1 11.4 11.4 0 1.1-0.2 2.2-0.5 3.2 0.8 0 1.4 0.1 1.9 0.1 0.3-1.1 0.4-2.2 0.4-3.3 0-7.3-5.9-13.3-13.3-13.3-2.9 0-5.5 0.9-7.7 2.4 0.6 0.6 0.9 0.9 1.4 1.3 2-1.1 4.1-1.8 6.4-1.8zM9.8 14.2c-0.4 1-0.7 2.1-0.7 3.3 0 4.5 3.5 8.2 7.9 8.5 0-0.8 0-1.5 0-1.9-3.4-0.3-6-3.2-6-6.6 0-0.7 0.1-1.3 0.3-1.9-0.4-0.4-1-0.8-1.5-1.4zM17.7 29c-6.3 0-11.4-5.1-11.4-11.4 0-1.9 0.5-3.7 1.3-5.3-0.7-0.6-0.9-0.8-1.4-1.3-1.1 1.9-1.8 4.2-1.8 6.6 0 7.3 5.9 13.3 13.3 13.3 1.5 0 3-0.3 4.3-0.7 0-0.4 0-1.4 0-2-1.3 0.5-2.7 0.8-4.3 0.8zM27 22.8v-5h-3v5h-5v3h5v5h3v-5h5v-3h-5z"></path>
</svg>
