<!-- Generated by IcoMoon.io -->
<svg version="1.1" xmlns="http://www.w3.org/2000/svg" width="64" height="64" viewBox="0 0 64 64">
<title>goal_tasks</title>
<path d="M23.2 35c0-1.4 0.2-2.6 0.6-3.8-1-1-2.2-1.6-3-2.8-0.8 2-1.4 4.2-1.4 6.6 0 8.2 5.8 15 13.4 16.8v-4c-5.6-1.6-9.6-6.8-9.6-12.8z"></path>
<path d="M15.8 9.4l-8-7.2v6.8l-7 1 8 7.2 4.8-0.6 17 15.2c-0.6 1-0.8 2-0.8 3.2 0 2.2 1.2 4.2 2.8 5.4v-9.8c0-0.4 0-0.8 0.2-1.2l-17-15v-5z"></path>
<path d="M28.4 19.8c1 1.2 1.8 2 3 2.8 1.6-0.6 3.2-1 5-1 3.6 0 7 1.4 9.4 4h5c-3-4.6-8.4-7.8-14.4-7.8-2.8 0-5.6 0.8-8 2z"></path>
<path d="M13.6 35c0-3.8 1-7.4 2.6-10.6-1.4-1.2-1.8-1.6-2.8-2.6-2.2 4-3.6 8.4-3.6 13.2 0 13.4 10 24.4 22.8 26.4v-3.8c-10.8-1.8-19-11.2-19-22.6z"></path>
<path d="M36.4 12c9.4 0 17.4 5.6 21 13.6h4c-3.8-10-13.6-17.2-25-17.2-5.8 0-11 1.8-15.4 5 1.2 1.2 1.8 1.8 2.8 2.6 3.8-2.6 8-4 12.6-4z"></path>
<path d="M62 28.8h-23.8c-1.2 0-2 1-2 2v31.2c0 1 1 2 2 2h18l7.8-7v-26c0-1.2-0.8-2.2-2-2.2zM61 57h-5.6v4h-16.2v-28.8h21.8v24.8z"></path>
<path d="M40.8 52h8v2.4h-8v-2.4z"></path>
<path d="M58.4 47.8c0.8-0.6 1.4-1 1.4-1l-0.2-0.2c-0.4 0.2-0.8 0.4-1.2 0.6v-0.6h-8v8h8v-6.8zM57.6 53.6h-2.4c0.4-2.2 1.4-4 2.4-5v5zM57.6 47.6c-2.4 1.6-3 3.6-3 3.6l-1.4-2.8-1.8 1.4 3.2 3.8h-3.2v-6.4h6.4v0.4z"></path>
<path d="M58.4 36.6c0.8-0.6 1.4-1 1.4-1l-0.2-0.2c-0.4 0.2-0.8 0.4-1.2 0.6v-0.6h-8v8h8v-6.8zM57.6 42.4h-2.4c0.4-2.2 1.4-4 2.4-5v5zM57.6 36.4c-2.4 1.6-3 3.6-3 3.6l-1.4-2.8-1.8 1.4 3.2 3.8h-3.2v-6.4h6.4v0.4z"></path>
<path d="M40.8 36h8v2.4h-8v-2.4z"></path>
<path d="M40.8 41h8v2.4h-8v-2.4z"></path>
<path d="M40.8 47.4h8v2.4h-8v-2.4z"></path>
</svg>
