<!-- Generated by IcoMoon.io -->
<svg version="1.1" xmlns="http://www.w3.org/2000/svg" width="32" height="32" viewBox="0 0 32 32">
<title>goal_management</title>
<path d="M10.3 14.211c-0.428 1.021-0.664 2.144-0.664 3.32 0 4.756 3.854 8.61 8.608 8.61 4.756 0 8.611-3.854 8.611-8.61 0-4.754-3.855-8.608-8.611-8.608-1.459 0-2.832 0.362-4.036 1.003 0.511 0.599 0.917 0.96 1.507 1.428 0.78-0.32 1.634-0.496 2.529-0.496 3.688 0 6.676 2.988 6.676 6.674 0 3.688-2.988 6.676-6.676 6.676-3.686 0-6.674-2.988-6.674-6.676 0-0.66 0.096-1.299 0.275-1.902-0.483-0.473-1.067-0.794-1.545-1.419zM18.244 4.194c-2.873 0-5.534 0.909-7.711 2.455 0.614 0.607 0.873 0.856 1.416 1.263 1.809-1.186 3.972-1.876 6.296-1.876 6.35 0 11.496 5.146 11.496 11.495 0 6.35-5.146 11.496-11.496 11.496-6.348 0-11.495-5.146-11.495-11.496 0-1.919 0.47-3.728 1.302-5.318-0.686-0.645-0.891-0.796-1.385-1.305-1.119 1.951-1.759 4.213-1.759 6.623 0 7.367 5.972 13.338 13.336 13.338 7.367 0 13.338-5.971 13.338-13.338 0-7.365-5.971-13.337-13.338-13.337zM15.333 15.898c-0.275 0.488-0.445 1.043-0.445 1.643 0 1.859 1.507 3.365 3.365 3.365 1.859 0 3.365-1.506 3.365-3.365 0-1.858-1.506-3.365-3.365-3.365-0.686 0-1.324 0.208-1.856 0.561l-8.489-7.577-0.029-2.413-4.028-3.616 0.041 3.443-3.475 0.381 4.029 3.616 2.383-0.261 8.504 7.588z"></path>
</svg>
