<!-- Generated by IcoMoon.io -->
<svg version="1.1" xmlns="http://www.w3.org/2000/svg" width="32" height="32" viewBox="0 0 32 32">
<title>goal_team</title>
<path d="M8.2 23.9c-1.2-1.8-1.9-4-1.9-6.3 0-1.9 0.5-3.7 1.3-5.3-0.7-0.6-0.9-0.8-1.4-1.3-1.1 2-1.8 4.2-1.8 6.6 0 3.6 1.4 6.9 3.8 9.3 0-0.9 0-2.3 0-3zM17.8 10.9c2.7 0 5.1 1.6 6.1 4 0.9 0 1.3 0 2.1 0-1.1-3.4-4.4-5.9-8.2-5.9-1.5 0-2.8 0.4-4 1 0.5 0.6 0.9 1 1.5 1.4 0.8-0.3 1.6-0.5 2.5-0.5zM13.8 15l1.4-0.8-7.7-7v-2.4l-4-3.6v3.4l-3.5 0.4 4 3.6 2.4-0.3 7.4 6.7zM17.8 4.3c-2.9 0-5.5 0.9-7.7 2.5 0.6 0.5 0.9 0.8 1.4 1.2 1.8-1.2 4-1.9 6.3-1.9 6.3 0 11.5 5.1 11.5 11.5 0 0.8-0.1 1.5-0.2 2.2 0.5 0.9 1 1.3 1.4 1.8 0.4-1.3 0.6-2.6 0.6-4 0-7.4-5.9-13.3-13.3-13.3zM11.1 17.6c0-0.7 0.1-1.3 0.3-1.9-0.5-0.5-1.1-0.8-1.5-1.4-0.4 1-0.7 2.1-0.7 3.3s0.2 2.3 0.7 3.3c0.4-0.4 1.2-0.8 1.7-1-0.3-0.7-0.5-1.5-0.5-2.3zM27 21.1c0.5-0.5 0.7-1.2 0.7-2 0-1.6-1.3-3-2.9-3-0.8 0-1.6 0.4-2.1 0.9-0.4-1.2-1.5-2-2.8-2s-2.4 0.9-2.8 2.2c-0.5-0.6-1.3-1.1-2.2-1.1-1.6 0-2.9 1.3-2.9 3 0 0.8 0.3 1.5 0.7 2-1.7 0.9-2.9 2.9-2.9 5.1 0 0.3 0 0.9 0.5 0.9 0.4 0 1.8 0 1.8 0s0.7 0.4 1.6 0.6c-0.1-0.1 0.1-0.9 0.1-1-0.6-0.2-1.2-0.6-1.2-0.6s-0.1-0.7 0.4-1.9l-0.5-0.2c0 0-0.5 0.9-0.5 2.1-0.2 0-0.7 0-1.1 0 0-2.1 1.2-3.8 2.9-4.4 0.4 0.2 0.7 0.2 1.2 0.2 0.4 0 0.8-0.1 1.2-0.3 0.3-0.1 0.4-0.3 0.4-0.3s-0.3-0.5-0.4-0.9c-0.3 0.3-0.8 0.5-1.2 0.5-1.1 0-2-0.9-2-2s0.9-2 2-2c0.6 0 1.2 0.3 1.5 0.8 0.2-0.1 0.5-0.4 0.6-0.5 0 0.2-0.1 0.4-0.1 0.7 0 1.7 1.3 3 2.9 3s2.9-1.4 2.9-3c0-0.2 0-0.3 0-0.5 0.1 0.1 0.3 0.2 0.4 0.3 0.4-0.5 0.9-0.8 1.5-0.8 1.1 0 2 0.9 2 2s-0.9 2-2 2c-0.5 0-0.9-0.2-1.2-0.5-0.1 0.4-0.4 0.9-0.4 0.9s0.1 0.2 0.4 0.3c0.4 0.2 0.8 0.3 1.2 0.3s0.8-0.1 1.2-0.2c1.7 0.6 2.9 2.3 2.9 4.4-0.4 0-0.9 0-1.1 0 0-1.2-0.5-2.1-0.5-2.1l-0.5 0.2c0.5 1.2 0.4 1.9 0.4 1.9s-0.4 0.3-1 0.5c-0.8-4-4.2-4.9-6.2-4.9-2.2 0-6.2 1.3-6.2 6.6 0 0.3 0 1.1 0.6 1.1 0.3 0 0.9 0 1.4 0 0.2 0 0.6-2.8 1.1-3.4-0.2 0.9-0.3 3.4-0.3 3.4s1.9 1 3.5 1c1.7 0 3.7-1 3.7-1s0.1-2.3 0-3.4c0.2 0 0.9 3.4 1.1 3.4 0.3 0 0.7 0 0.9 0 0.6 0 0.6-0.7 0.6-1.1 0-0.3 0-0.5 0-0.7 0.8-0.2 1.3-0.6 1.3-0.6s1.4 0 1.8 0c0.4 0 0.5-0.7 0.5-0.9 0-2.2-1.2-4.1-2.9-5z"></path>
</svg>
