<!-- Generated by IcoMoon.io -->
<svg version="1.1" xmlns="http://www.w3.org/2000/svg" width="64" height="64" viewBox="0 0 64 64">
<title>goal_organasational</title>
<path d="M35.6 18c-3 0-5.6 0.8-8 2 1 1.2 1.8 2 3 2.8 1.6-0.6 3.2-1 5-1 6.2 0 11.4 4.2 13 10 1.6 0 2.8 0 4 0-1.6-7.8-8.6-13.8-17-13.8zM35.6 12.2c12.6 0 23 10.2 23 23 0 3-0.6 5.8-1.6 8.4 0.6 0.6 1.6 1.4 2.8 2.8 1.6-3.4 2.4-7.2 2.4-11.2 0-14.8-12-26.6-26.6-26.6-5.8 0-11 1.8-15.4 5 1.2 1 1.8 1.6 2.8 2.4 3.6-2.4 8-3.8 12.6-3.8zM29.8 32c-0.6 1-0.8 2-0.8 3.2 0 1.8 0.6 3.4 1.8 4.6 0-3.6 0-7.8 0-7.8s6.6 0 10.6 0c-1.2-2-3.4-3.4-5.8-3.4-1.4 0-2.6 0.4-3.6 1.2l-17-15.4v-4.8l-8-7.2v6.8l-7 0.8 8 7.2 4.8-0.6 17 15.4zM12.6 35.2c0-3.8 1-7.4 2.6-10.6-1.4-1.2-1.8-1.6-2.8-2.6-2.2 4-3.6 8.4-3.6 13.2 0 8.6 4 16.2 10.2 21 0.4-1 1-2 1.8-3.4-5-4.2-8.2-10.6-8.2-17.6zM19.8 28.6c-0.8 2-1.4 4.2-1.4 6.6 0 5.2 2.4 10 6 13 0.6-1.4 1.2-1.8 2-3.4-2.6-2.4-4.2-5.8-4.2-9.6 0-1.4 0.2-2.6 0.6-3.8-1-1-2.2-1.6-3-2.8zM58.4 55.8v-7.8h-14v-4h8v-8h-18v8h8v4h-14v7.8h-6v6h14v-6h-6v-6h12v6h-4v6h10v-6h-4v-6h12v6h-6v6h14v-6h-6z"></path>
</svg>
