<!-- Generated by IcoMoon.io -->
<svg version="1.1" xmlns="http://www.w3.org/2000/svg" width="64" height="64" viewBox="0 0 64 64">
<title>group-delete</title>
<path d="M39.4 30.6l3.2-3.2-6.2-3.4v-10l9-5 9 5v10l-6 3.4 3 3.2 7-4v-15l-13.2-7.6-13 7.6v15l7.2 4zM30.2 11.4l-13-7.4-12.8 7.6v15l13 7.4 13-7.6-0.2-15zM17.4 29l-9-5v-10l9-5 9 5v10l-9 5zM46.2 32c-7.4 0-13.6 6-13.6 13.6 0 7.4 6 13.6 13.6 13.6 7.4 0 13.6-6 13.6-13.6-0.2-7.4-6.2-13.6-13.6-13.6zM50 51.4l-4.2-4.6-4.2 4.6h-3.2l5.8-6-5.8-5.8h3l4.2 4.4 4.2-4.4h3.2l-5.8 6 5.8 5.8h-3zM31.4 55l-9-5v-10l9-5 1.6 0.8 2.8-3.4-4.6-2.4-13 7.6v15l13 7.4 3.2-1.8-2-3.8-1 0.6z"></path>
</svg>
