<!-- Generated by IcoMoon.io -->
<svg version="1.1" xmlns="http://www.w3.org/2000/svg" width="32" height="32" viewBox="0 0 32 32">
<title>group-members</title>
<path d="M26.3 13.5c0.7-0.8 1.1-1.8 1.1-2.9 0-2.4-1.9-4.3-4.2-4.3-1.2 0-2.3 0.5-3 1.3-0.6-1.7-2.1-3-4-3s-3.5 1.3-4.1 3.2c-0.8-0.9-1.9-1.5-3.2-1.5-2.3 0-4.2 1.9-4.2 4.3 0 1.1 0.4 2.1 1.1 2.9-2.5 1.3-4.3 4.2-4.3 7.5 0 0.4 0 1.3 0.7 1.3 0.6 0 2.6 0 2.6 0s1 0.6 2.3 0.9c-0.1-0.1 0.1-1.3 0.1-1.4-1-0.3-1.7-0.8-1.7-0.8s-0.2-1 0.5-2.8l-0.8-0.2c0 0-0.7 1.3-0.7 3.1-0.4 0-1 0-1.6 0 0-3 1.8-5.6 4.3-6.4 0.5 0.1 1 0.3 1.6 0.3s1.2-0.1 1.7-0.4c0.4-0.1 0.6-0.4 0.6-0.4s-0.4-0.7-0.5-1.3c-0.5 0.4-1.1 0.7-1.8 0.7-1.6 0-2.9-1.3-2.9-2.9 0.1-1.7 1.4-3 2.9-3 0.9 0 1.7 0.4 2.3 1.1 0.3-0.2 0.7-0.5 0.9-0.7-0.1 0.3-0.1 0.6-0.1 1 0 2.4 1.9 4.4 4.3 4.4s4.3-2 4.3-4.4c0-0.2 0-0.5-0.1-0.7 0.2 0.2 0.4 0.3 0.6 0.4 0.5-0.7 1.3-1.1 2.3-1.1 1.6 0 2.9 1.3 2.9 2.9s-1.3 2.9-2.9 2.9c-0.7 0-1.3-0.2-1.8-0.7-0.2 0.6-0.5 1.3-0.5 1.3s0.2 0.3 0.6 0.4c0.5 0.2 1.1 0.4 1.7 0.4s1.2-0.1 1.7-0.4c2.5 0.8 4.3 3.4 4.3 6.4-0.6 0-1.2 0-1.6 0 0-1.7-0.7-3.1-0.7-3.1l-1 0.4c0.7 1.8 0.5 2.8 0.5 2.8s-0.6 0.4-1.4 0.7c-1.1-5.8-6.2-7.2-9-7.2-3.1 0-9 1.8-9 9.6 0 0.5 0.1 1.6 0.8 1.6 0.4 0 1.3 0 2.1 0 0.2 0 0.9-4.1 1.6-5-0.3 1.3-0.5 5-0.5 5s2.7 1.5 5 1.5c2.4 0 5.3-1.5 5.3-1.5s0.2-3.3 0-4.9c0.3 0 1.3 4.9 1.6 4.9 0.5 0 1 0 1.3 0 0.8 0 0.9-1.1 0.9-1.6 0-0.4 0-0.7-0.1-1 1.1-0.4 2-0.8 2-0.8s2 0 2.6 0c0.6 0 0.7-0.9 0.7-1.3 0.1-3.3-1.6-6.1-4.1-7.5z"></path>
</svg>
