<!-- Generated by IcoMoon.io -->
<svg version="1.1" xmlns="http://www.w3.org/2000/svg" width="64" height="64" viewBox="0 0 64 64">
<title>group-members</title>
<path d="M52.6 27c1.4-1.6 2.2-3.6 2.2-5.8 0-4.8-3.8-8.6-8.4-8.6-2.4 0-4.6 1-6 2.6-1.2-3.4-4.2-6-8-6s-7 2.6-8.2 6.4c-1.6-1.8-3.8-3-6.4-3-4.6 0-8.4 3.8-8.4 8.6 0 2.2 0.8 4.2 2.2 5.8-5 2.6-8.6 8.4-8.6 15 0 0.8 0 2.6 1.4 2.6 1.2 0 5.2 0 5.2 0s2 1.2 4.6 1.8c-0.2-0.2 0.2-2.6 0.2-2.8-2-0.6-3.4-1.6-3.4-1.6s-0.4-2 1-5.6l-1.6-0.4c0 0-1.4 2.6-1.4 6.2-0.8 0-2 0-3.2 0 0-6 3.6-11.2 8.6-12.8 1 0.2 2 0.6 3.2 0.6s2.4-0.2 3.4-0.8c0.8-0.2 1.2-0.8 1.2-0.8s-0.8-1.4-1-2.6c-1 0.8-2.2 1.4-3.6 1.4-3.2 0-5.8-2.6-5.8-5.8 0.2-3.4 2.8-6 5.8-6 1.8 0 3.4 0.8 4.6 2.2 0.6-0.4 1.4-1 1.8-1.4-0.2 0.6-0.2 1.2-0.2 2 0 4.8 3.8 8.8 8.6 8.8s8.6-4 8.6-8.8c0-0.4 0-1-0.2-1.4 0.4 0.4 0.8 0.6 1.2 0.8 1-1.4 2.6-2.2 4.6-2.2 3.2 0 5.8 2.6 5.8 5.8s-2.6 5.8-5.8 5.8c-1.4 0-2.6-0.4-3.6-1.4-0.4 1.2-1 2.6-1 2.6s0.4 0.6 1.2 0.8c1 0.4 2.2 0.8 3.4 0.8s2.4-0.2 3.4-0.8c5 1.6 8.6 6.8 8.6 12.8-1.2 0-2.4 0-3.2 0 0-3.4-1.4-6.2-1.4-6.2l-2 0.8c1.4 3.6 1 5.6 1 5.6s-1.2 0.8-2.8 1.4c-2.2-11.6-12.4-14.4-18-14.4-6.2 0-18 3.6-18 19.2 0 1 0.2 3.2 1.6 3.2 0.8 0 2.6 0 4.2 0 0.4 0 1.8-8.2 3.2-10-0.6 2.6-1 10-1 10s5.4 3 10 3c4.8 0 10.6-3 10.6-3s0.4-6.6 0-9.8c0.6 0 2.6 9.8 3.2 9.8 1 0 2 0 2.6 0 1.6 0 1.8-2.2 1.8-3.2 0-0.8 0-1.4-0.2-2 2.2-0.8 4-1.6 4-1.6s4 0 5.2 0c1.2 0 1.4-1.8 1.4-2.6 0.2-6.6-3.2-12.2-8.2-15z"></path>
</svg>
