<!-- Generated by IcoMoon.io -->
<svg version="1.1" xmlns="http://www.w3.org/2000/svg" width="32" height="32" viewBox="0 0 32 32">
<title>group-public</title>
<path d="M6.5 12.2v-4.2l3.5-2.1 3.5 2.1v4.2l-0.3 0.3 1.6 1.2 0.7-0.4v-6.3l-5.5-3.2-5.5 3.1v4.8l3.3 1.3-1.3-0.8zM12.9 19.3c0.9-0.6 1.5-1.7 1.5-2.9 0-1.9-1.6-3.5-3.5-3.5s-3.5 1.6-3.5 3.5c0 1.2 0.6 2.3 1.6 2.9-2 0.8-3.6 2.7-4 5.1-1.3 2.7 1.6 3.8 5.9 3.8s7.5-0.9 6.2-3.3c-0.3-2.6-2-4.8-4.2-5.6zM22.1 3.8l-5.5 3.1v6.3l5.5 3.2 5.5-3.1v-6.3l-5.5-3.2zM25.5 12.2l-3.5 2.1-3.5-2.1v-4.2l3.6-2.1 3.4 2.1v4.2zM15.6 15.1l-0.1 2.2 0.7-0.4 3.3 2.1v4.2l-1 0.7 0.1 2.1 2.9-1.7v-6.3l-5.3-3.2-0.6 0.3z"></path>
</svg>
