<!-- Generated by IcoMoon.io -->
<svg version="1.1" xmlns="http://www.w3.org/2000/svg" width="64" height="64" viewBox="0 0 64 64">
<title>group-edit</title>
<path d="M30.2 49v-5c0 0-2.4 0.6-3.4-1-1.2-1.6 1.2-4 1.2-4l-3.2-3.4c0 0-2.4 2.4-3.8 1.6s-1-3.6-1-3.6h-5c0 0 0.6 2.6-1.2 3.6s-3.8-1.4-3.8-1.4l-3.4 3.2c0 0 3 2 1.4 4.2-0.8 1.2-3.4 1-3.4 1v4.6c0 0 3.2-0.2 3.8 1.4 0.6 1.8-1.6 3.8-1.6 3.8l3.2 3.4c0 0 2.6-2.4 4-1.6s1 3.6 1 3.6h4.8c0 0-0.4-3 1.6-3.8s3.2 1.6 3.2 1.6l3.6-3.4c-1-1-2.4-2.6-1.4-4s3.4-0.8 3.4-0.8zM17.4 51.2c-2.6 0-4.6-2.2-4.6-4.6 0-2.6 2.2-4.6 4.6-4.6 2.6 0 4.6 2.2 4.6 4.6 0.2 2.6-2 4.6-4.6 4.6zM15.4 27.2l-6-3.4v-10l9-5 9 5.2v10l-6.2 3.4 3.2 3.2 7-4v-15l-13-7.6-13 7.4v15l7 4 3-3.2zM28 32.6l2.8 3.4 1.6-0.8 9 5v10l-9 5-1-0.6-2 3.8 3.2 1.8 13-7.4v-15l-13.2-7.8-4.4 2.6zM46.4 4l-13 7.4v15l13 7.6 13-7.4v-15l-13-7.6zM55.4 24l-9 5-9-5v-10l9-5 9 5v10z"></path>
</svg>
