<!-- Generated by IcoMoon.io -->
<svg version="1.1" xmlns="http://www.w3.org/2000/svg" width="32" height="32" viewBox="0 0 32 32">
<title>group-create</title>
<path d="M28.5 12.8v-7.5l-6.5-3.7-6.5 3.7v7.5l6.5 3.8 6.5-3.8zM17.5 6.6l4.5-2.5 4.5 2.5v5l-4.5 2.4-4.5-2.5v-4.9zM14.5 5.3l-6.5-3.7-6.5 3.7v7.5l6.5 3.8 6.5-3.7v-7.6zM12.5 11.6l-4.5 2.4-4.5-2.5v-5l4.5-2.4 4.5 2.5v5zM15 27l-4.5-2.5v-5l4.5-2.5 4.5 2.5v1.8h2v-3.1l-6.5-3.6-6.5 3.7v7.5l6.5 3.8 5.3-3.2h-4l-1.3 0.6zM25.5 22.4v-5h-3v5h-5v3.1h5v5h3v-5h5v-3.1h-5z"></path>
</svg>
