<!-- Generated by IcoMoon.io -->
<svg version="1.1" xmlns="http://www.w3.org/2000/svg" width="32" height="32" viewBox="0 0 32 32">
<title>group_courses</title>
<path d="M5.356 20.867c-0.988-2.172-1.259-4.684-0.594-7.168 0.849-3.167 3.038-5.617 5.794-6.903l0.566 2.114 3.892-4.714-5.727-2.137 0.531 1.98c-3.696 1.564-6.658 4.754-7.777 8.93-0.683 2.549-0.585 5.122 0.143 7.468l-0.018-0.106 3.19 0.536zM23.735 22.665c-2.512 3.508-7.021 5.274-11.433 4.092-1.238-0.331-2.366-0.868-3.358-1.563l1.55-1.551-6.028-1.013 1.014 6.028 1.449-1.449c1.348 1.021 2.911 1.804 4.645 2.269 4.998 1.339 10.091-0.316 13.381-3.863l-0.090 0.074-1.13-3.024zM28.437 18.125c0.828-6.578-3.302-12.923-9.886-14.687-0.165-0.045-0.331-0.085-0.496-0.122l0.102 0.038-2.058 2.492c0.573 0.057 1.148 0.159 1.724 0.313 5.077 1.361 8.309 6.166 7.86 11.228l-2.113-0.566 2.137 5.728 4.714-3.892-1.984-0.532zM14.519 17.22c0-1.958 0-5.609 0-5.841-0.042-0.076-0.146-0.228-0.433-0.295-0.479-0.113-0.994 0.029-3.319 2.063-0.065 0.276-0.747 3.126-1.124 4.7 1.25-0.703 2.626-1.595 4.17-1.078 0.276 0.092 0.483 0.282 0.706 0.451zM20.626 17.847c-0.377-1.574-1.059-4.423-1.124-4.7-2.325-2.034-2.916-2.177-3.394-2.063-0.286 0.067-0.39 0.219-0.433 0.295 0 0.232 0 3.884 0 5.841 0.223-0.169 0.43-0.358 0.706-0.451 1.545-0.518 2.995 0.375 4.245 1.078zM14.122 17.843c-1.525-0.512-4.136 1.020-5.013 1.652l-0.836-0.602 1.249-5.221-0.557-0.003-2.352 6.678h17.040l-2.171-6.584-0.718-0.005 1.229 5.135-0.836 0.602c-0.877-0.633-3.487-2.164-5.013-1.652-0.467 0.157-0.796 0.729-1.013 1.311-0.214-0.582-0.543-1.154-1.009-1.311z"></path>
</svg>
