<!-- Generated by IcoMoon.io -->
<svg version="1.1" xmlns="http://www.w3.org/2000/svg" width="32" height="32" viewBox="0 0 32 32">
<title>group-edit</title>
<path d="M15.1 24.5v-2.5c0 0-1.2 0.3-1.7-0.5-0.6-0.8 0.6-2 0.6-2l-1.6-1.7c0 0-1.2 1.2-1.9 0.8s-0.5-1.8-0.5-1.8h-2.5c0 0 0.3 1.3-0.6 1.8s-1.9-0.7-1.9-0.7l-1.7 1.6c0 0 1.5 1 0.7 2.1-0.4 0.6-1.7 0.5-1.7 0.5v2.3c0 0 1.6-0.1 1.9 0.7 0.3 0.9-0.8 1.9-0.8 1.9l1.6 1.7c0 0 1.3-1.2 2-0.8s0.5 1.8 0.5 1.8h2.4c0 0-0.2-1.5 0.8-1.9s1.6 0.8 1.6 0.8l1.8-1.7c-0.5-0.5-1.2-1.3-0.7-2s1.7-0.4 1.7-0.4zM8.7 25.6c-1.3 0-2.3-1.1-2.3-2.3 0-1.3 1.1-2.3 2.3-2.3 1.3 0 2.3 1.1 2.3 2.3 0.1 1.3-1 2.3-2.3 2.3zM7.7 13.6l-3-1.7v-5l4.5-2.5 4.5 2.6v5l-3.1 1.7 1.6 1.6 3.5-2v-7.5l-6.5-3.8-6.5 3.7v7.5l3.5 2 1.5-1.6zM14 16.3l1.4 1.7 0.8-0.4 4.5 2.5v5l-4.5 2.5-0.5-0.3-1 1.9 1.6 0.9 6.5-3.7v-7.5l-6.6-3.9-2.2 1.3zM23.2 2l-6.5 3.7v7.5l6.5 3.8 6.5-3.7v-7.5l-6.5-3.8zM27.7 12l-4.5 2.5-4.5-2.5v-5l4.5-2.5 4.5 2.5v5z"></path>
</svg>
