<!-- Generated by IcoMoon.io -->
<svg version="1.1" xmlns="http://www.w3.org/2000/svg" width="64" height="64" viewBox="0 0 64 64">
<title>group_courses</title>
<path d="M10.712 41.734c-1.976-4.344-2.518-9.368-1.188-14.336 1.698-6.334 6.076-11.234 11.588-13.806l1.132 4.228 7.784-9.428-11.454-4.274 1.062 3.96c-7.392 3.128-13.316 9.508-15.554 17.86-1.366 5.098-1.17 10.244 0.286 14.936l-0.036-0.212 6.38 1.072zM47.47 45.33c-5.024 7.016-14.042 10.548-22.866 8.184-2.476-0.662-4.732-1.736-6.716-3.126l3.1-3.102-12.056-2.026 2.028 12.056 2.898-2.898c2.696 2.042 5.822 3.608 9.29 4.538 9.996 2.678 20.182-0.632 26.762-7.726l-0.18 0.148-2.26-6.048zM56.874 36.25c1.656-13.156-6.604-25.846-19.772-29.374-0.33-0.090-0.662-0.17-0.992-0.244l0.204 0.076-4.116 4.984c1.146 0.114 2.296 0.318 3.448 0.626 10.154 2.722 16.618 12.332 15.72 22.456l-4.226-1.132 4.274 11.456 9.428-7.784-3.968-1.064zM29.038 34.44c0-3.916 0-11.218 0-11.682-0.084-0.152-0.292-0.456-0.866-0.59-0.958-0.226-1.988 0.058-6.638 4.126-0.13 0.552-1.494 6.252-2.248 9.4 2.5-1.406 5.252-3.19 8.34-2.156 0.552 0.184 0.966 0.564 1.412 0.902zM41.252 35.694c-0.754-3.148-2.118-8.846-2.248-9.4-4.65-4.068-5.832-4.354-6.788-4.126-0.572 0.134-0.78 0.438-0.866 0.59 0 0.464 0 7.768 0 11.682 0.446-0.338 0.86-0.716 1.412-0.902 3.090-1.036 5.99 0.75 8.49 2.156zM28.244 35.686c-3.050-1.024-8.272 2.040-10.026 3.304l-1.672-1.204 2.498-10.442-1.114-0.006-4.704 13.356h34.080l-4.342-13.168-1.436-0.010 2.458 10.27-1.672 1.204c-1.754-1.266-6.974-4.328-10.026-3.304-0.934 0.314-1.592 1.458-2.026 2.622-0.428-1.164-1.086-2.308-2.018-2.622z"></path>
</svg>
