<!-- Generated by IcoMoon.io -->
<svg version="1.1" xmlns="http://www.w3.org/2000/svg" width="64" height="64" viewBox="0 0 64 64">
<title>group-public</title>
<path d="M13 24.4v-8.4l7-4.2 7 4.2v8.4l-0.6 0.6 3.2 2.4 1.4-0.8v-12.6l-11-6.4-11 6.2v9.6l6.6 2.6-2.6-1.6zM25.8 38.6c1.8-1.2 3-3.4 3-5.8 0-3.8-3.2-7-7-7s-7 3.2-7 7c0 2.4 1.2 4.6 3.2 5.8-4 1.6-7.2 5.4-8 10.2-2.6 5.4 3.2 7.6 11.8 7.6s15-1.8 12.4-6.6c-0.6-5.2-4-9.6-8.4-11.2zM44.2 7.6l-11 6.2v12.6l11 6.4 11-6.2v-12.6l-11-6.4zM51 24.4l-7 4.2-7-4.2v-8.4l7.2-4.2 6.8 4.2v8.4zM31.2 30.2l-0.2 4.4 1.4-0.8 6.6 4.2v8.4l-2 1.4 0.2 4.2 5.8-3.4v-12.6l-10.6-6.4-1.2 0.6z"></path>
</svg>
