<!-- Generated by IcoMoon.io -->
<svg version="1.1" xmlns="http://www.w3.org/2000/svg" width="64" height="64" viewBox="0 0 64 64">
<title>group_leave</title>
<path d="M31 11.6l-13-7.6-13 7.4v15l13 7.6 13-7.4v-15zM27 24l-9 5-9-5v-10l9-5 9 5v10z"></path>
<path d="M19 37.4v15l13 7.6v-5l-9-5v-10l9-5v-5z"></path>
<path d="M46 4l-13 7.4v15l8 4.6h10.4l7.8-4.4v-15l-13.2-7.6zM55 24l-9 5-9-5v-10l9-5 9 5v10z"></path>
<path d="M52.6 39.8c-0.6-0.6-1.6-0.6-2.4 0v0c-0.6 0.6-0.6 1.6 0 2.2l1.8 1.6c0 0 0.2 0.2 0.6 0.6h-9.6c-0.8 0-1.6 0.6-1.6 1.4s0.6 1.4 1.6 1.4h9.4c-1 1-2.4 2.4-2.4 2.4-0.6 0.6-0.6 1.6 0 2.2 0.8 0.6 1.8 0.6 2.4 0l5.2-4.8c0.4-0.2 0.4-0.8 0.4-1.2s-0.2-0.8-0.4-1.2l-5-4.6z"></path>
<path d="M39.4 54.4v-17.8h13.8v-1.2c0-0.4-0.2-0.8-0.4-1s-0.6-0.4-1.2-0.4h-13.6c-0.4 0-0.8 0.2-1.2 0.4-0.2 0.2-0.6 0.6-0.4 1v20.4c0 0.4 0.2 0.8 0.4 1s0.6 0.4 1.2 0.4h13.6c0.4 0 0.8-0.2 1.2-0.4 0.2-0.2 0.4-0.6 0.4-1v-1.2h-13.8z"></path>
</svg>
