<!-- Generated by IcoMoon.io -->
<svg version="1.1" xmlns="http://www.w3.org/2000/svg" width="32" height="32" viewBox="0 0 32 32">
<title>group-delete</title>
<path d="M19.7 15.3l1.6-1.6-3.1-1.7v-5l4.5-2.5 4.5 2.5v5l-3 1.7 1.5 1.6 3.5-2v-7.5l-6.6-3.8-6.5 3.8v7.5l3.6 2zM15.1 5.7l-6.5-3.7-6.4 3.8v7.5l6.5 3.7 6.5-3.8-0.1-7.5zM8.7 14.5l-4.5-2.5v-5l4.5-2.5 4.5 2.5v5l-4.5 2.5zM23.1 16c-3.7 0-6.8 3-6.8 6.8 0 3.7 3 6.8 6.8 6.8 3.7 0 6.8-3 6.8-6.8-0.1-3.7-3.1-6.8-6.8-6.8zM25 25.7l-2.1-2.3-2.1 2.3h-1.6l2.9-3-2.9-2.9h1.5l2.1 2.2 2.1-2.2h1.6l-2.9 3 2.9 2.9h-1.5zM15.7 27.5l-4.5-2.5v-5l4.5-2.5 0.8 0.4 1.4-1.7-2.3-1.2-6.5 3.8v7.5l6.5 3.7 1.6-0.9-1-1.9-0.5 0.3z"></path>
</svg>
