<!-- Generated by IcoMoon.io -->
<svg version="1.1" xmlns="http://www.w3.org/2000/svg" width="32" height="32" viewBox="0 0 32 32">
<title>help_center-light_bulb</title>
<path d="M16 0.5c-6.6 0-10.1 4.9-10.1 9.7 0 6.1 2.7 7.5 3.6 8.7 0.6 0.9 0.7 1.2 0.7 1.9 0 1.2 0 3.9 0 5.8 0 1.4 2.1 2.8 3.3 3.4 0 0.7 1.3 1.5 2.1 1.5s2.1-0.4 2.1-1.5c1.5-0.4 3.5-2.5 3.5-3.3 0-1.4 0-5.2 0-5.8s0.1-1 1.1-1.9c1-1 3.9-3.5 3.9-9-0.1-4.6-3.5-9.5-10.2-9.5zM20.2 17.6c-1.2 0.9-1.1 1.7-1.1 2.2s0 4.6 0 5.7c0 1.1-0.7 2-2 2.3 0 1.2-0.9 1.6-1.6 1.6s-1.4-0.8-1.4-1.6c-0.8-0.3-2-0.7-2-2.3s0-4.7 0-5.7c0-1-0.2-1.4-1.1-2.3s-3.3-2.8-3.3-6.8c0-4 2.7-8.2 8.2-8.2s8 4.2 8 7.9-2.5 6.3-3.7 7.2zM13.2 23.4h4.9v-1.1h-4.9v1.1zM13.2 25.4h4.9v-1.1h-4.9v1.1zM13.2 21.4h4.9v-1.1h-4.9v1.1zM16.3 4.1c-4.3 0-5.8 4.6-5.8 4.6l1.2 0.8c0-0.1 1.3-4.7 4.6-5.4z"></path>
</svg>
