<!-- Generated by IcoMoon.io -->
<svg version="1.1" xmlns="http://www.w3.org/2000/svg" width="32" height="32" viewBox="0 0 32 32">
<title>help</title>
<path d="M16 3.868c-6.7 0-12.133 5.431-12.133 12.132s5.433 12.133 12.133 12.133 12.133-5.432 12.133-12.133c0-6.701-5.433-12.132-12.133-12.132zM16 25.461c-5.226 0-9.462-4.236-9.462-9.461 0-5.227 4.236-9.462 9.462-9.462s9.462 4.236 9.462 9.462c0 5.225-4.236 9.461-9.462 9.461zM19.696 9.78c-0.958-0.795-2.777-1.192-4.187-1.192-1.383 0-2.52 0.49-3.552 1.293-1.565 1.216-1.479 4.452-1.479 4.452h3.438c0-1.424 0.789-2.464 2.078-2.464 1.181 0 1.525 1.155 1.525 1.379 0 0.603-0.342 1.227-1.024 1.87-1.534 1.435-2.309 2.457-2.322 3.058v1.932h3.365v-1.088c0.028-0.658 0.352-1.273 0.971-1.85 1.129-1.007 2.746-1.91 2.746-4.064 0.002-1.938-1.559-3.326-1.559-3.326zM14.052 23.967h3.474v-2.605h-3.474v2.605z"></path>
</svg>
