<!-- Generated by IcoMoon.io -->
<svg version="1.1" xmlns="http://www.w3.org/2000/svg" width="64" height="64" viewBox="0 0 64 64">
<title>help</title>
<path d="M32 7.736c-13.4 0-24.266 10.862-24.266 24.264s10.866 24.266 24.266 24.266 24.266-10.864 24.266-24.266c0-13.402-10.866-24.264-24.266-24.264zM32 50.922c-10.452 0-18.924-8.472-18.924-18.922 0-10.454 8.472-18.924 18.924-18.924s18.924 8.472 18.924 18.924c0 10.45-8.472 18.922-18.924 18.922zM39.392 19.56c-1.916-1.59-5.554-2.384-8.374-2.384-2.766 0-5.040 0.98-7.104 2.586-3.13 2.432-2.958 8.904-2.958 8.904h6.876c0-2.848 1.578-4.928 4.156-4.928 2.362 0 3.050 2.31 3.050 2.758 0 1.206-0.684 2.454-2.048 3.74-3.068 2.87-4.618 4.914-4.644 6.116v3.864h6.73v-2.176c0.056-1.316 0.704-2.546 1.942-3.7 2.258-2.014 5.492-3.82 5.492-8.128 0.004-3.876-3.118-6.652-3.118-6.652zM28.104 47.934h6.948v-5.21h-6.948v5.21z"></path>
</svg>
