<!-- Generated by IcoMoon.io -->
<svg version="1.1" xmlns="http://www.w3.org/2000/svg" width="64" height="64" viewBox="0 0 64 64">
<title>help_center-light_bulb</title>
<path d="M32 1c-13.2 0-20.2 9.8-20.2 19.4 0 12.2 5.4 15 7.2 17.4 1.2 1.8 1.4 2.4 1.4 3.8 0 2.4 0 7.8 0 11.6 0 2.8 4.2 5.6 6.6 6.8 0 1.4 2.6 3 4.2 3s4.2-0.8 4.2-3c3-0.8 7-5 7-6.6 0-2.8 0-10.4 0-11.6s0.2-2 2.2-3.8c2-2 7.8-7 7.8-18-0.2-9.2-7-19-20.4-19zM40.4 35.2c-2.4 1.8-2.2 3.4-2.2 4.4s0 9.2 0 11.4c0 2.2-1.4 4-4 4.6 0 2.4-1.8 3.2-3.2 3.2s-2.8-1.6-2.8-3.2c-1.6-0.6-4-1.4-4-4.6s0-9.4 0-11.4c0-2-0.4-2.8-2.2-4.6s-6.6-5.6-6.6-13.6c0-8 5.4-16.4 16.4-16.4s16 8.4 16 15.8-5 12.6-7.4 14.4zM26.4 46.8h9.8v-2.2h-9.8v2.2zM26.4 50.8h9.8v-2.2h-9.8v2.2zM26.4 42.8h9.8v-2.2h-9.8v2.2zM32.6 8.2c-8.6 0-11.6 9.2-11.6 9.2l2.4 1.6c0-0.2 2.6-9.4 9.2-10.8z"></path>
</svg>
