<!-- Generated by IcoMoon.io -->
<svg version="1.1" xmlns="http://www.w3.org/2000/svg" width="64" height="64" viewBox="0 0 64 64">
<title>home</title>
<path d="M32 16.4l11 11c0 0 0 25 0 28s2.4 4.4 4.8 4.4c2.4 0 5-2 5-4.4s0-18.6 0-18.6 3.6 1.6 6-1.4c2.4-3 0.4-5.8 0.4-5.8s-20.8-20.8-23.4-23.4c-2.6-2.6-5.4-2.4-7.8 0-2.2 2.4-20.8 21-22.2 22.4s-2.8 4.6-0.8 6.8c2 2.6 5.4 1.8 5.4 1.8s0 14.4 0 17c0 2.6 0.6 5.4 5 5.4 4.2 0 16 0 18.6 0s3.2-3 3.2-5c0-2-0.8-5-3.2-5-4.6 0-13.8 0-13.8 0v-21.4l11.8-11.8z"></path>
</svg>
