<!-- Generated by IcoMoon.io -->
<svg version="1.1" xmlns="http://www.w3.org/2000/svg" width="32" height="32" viewBox="0 0 32 32">
<title>home</title>
<path d="M16 8.2l5.5 5.5c0 0 0 12.5 0 14s1.2 2.2 2.4 2.2c1.2 0 2.5-1 2.5-2.2s0-9.3 0-9.3 1.8 0.8 3-0.7c1.2-1.5 0.2-2.9 0.2-2.9s-10.4-10.4-11.7-11.7c-1.3-1.3-2.7-1.2-3.9 0-1.1 1.2-10.4 10.5-11.1 11.2s-1.4 2.3-0.4 3.4c1 1.3 2.7 0.9 2.7 0.9s0 7.2 0 8.5c0 1.3 0.3 2.7 2.5 2.7 2.1 0 8 0 9.3 0s1.6-1.5 1.6-2.5c0-1-0.4-2.5-1.6-2.5-2.3 0-6.9 0-6.9 0v-10.7l5.9-5.9z"></path>
</svg>
