<!-- Generated by IcoMoon.io -->
<svg version="1.1" xmlns="http://www.w3.org/2000/svg" width="32" height="32" viewBox="0 0 32 32">
<title>hotschedules2</title>
<path d="M11.1 3.5c-2.8 0-7.5 0-7.5 0s0 5.6 0 7.9c0 1.9 1.7 3.6 3.8 3.6 0 0 1.7 0 1.8 0-1.4 0-2.7-1.1-2.7-3 0-1.7 0-5.7 0-5.7s4 0 6 0c2 0 2.7 2 2.7 2.4 0 0 0-0.6 0-1.4-0.2-1.8-1.7-3.8-4.1-3.8zM19.7 6.4c2 0 6 0 6 0s0 4 0 5.7c0 1.8-1.3 3-2.7 3 0.1 0 1.8 0 1.8 0 2 0 3.8-1.7 3.8-3.6 0-2.3 0-7.9 0-7.9s-4.7 0-7.5 0c-2.4 0-4 2-4 3.9 0 0.9 0 1.4 0 1.4-0.1-0.5 0.6-2.5 2.6-2.5zM12.3 25.6c-2 0-6 0-6 0s0-4 0-5.7c0-1.8 1.3-3 2.7-3-0.1 0-1.8 0-1.8 0-2 0-3.8 1.7-3.8 3.6 0 2.3 0 7.9 0 7.9s4.7 0 7.5 0c2.4 0 4-2 4-3.9 0-0.9 0-1.4 0-1.4 0.1 0.5-0.6 2.5-2.6 2.5zM24.7 17c0 0-1.7 0-1.8 0 1.4 0 2.7 1.1 2.7 3 0 1.7 0 5.7 0 5.7s-4 0-6 0c-2 0-2.7-2-2.7-2.4 0 0 0 0.6 0 1.4 0 1.8 1.5 3.9 4 3.9 2.8 0 7.5 0 7.5 0s0-5.6 0-7.9c0.1-2-1.6-3.7-3.7-3.7zM15 15v-3.3c0-2.1-2-3.7-3.9-3.7-0.8 0-1.5 0-1.5 0 0.7 0 2.5 0.9 2.5 2.6 0 1.8 0 4.4 0 4.4h2.9zM24 11.1c0-0.8 0-1.5 0-1.5 0 0.7-0.9 2.5-2.6 2.5-1.8 0-4.4 0-4.4 0v2.9h3.3c2.1 0 3.7-1.9 3.7-3.9zM17 17v3.3c0 2.1 1.9 3.7 3.9 3.7 0.8 0 1.5 0 1.5 0-0.7 0-2.5-0.9-2.5-2.6 0-1.8 0-4.4 0-4.4h-2.9zM8 20.9c0 0.8 0 1.5 0 1.5 0-0.7 0.9-2.5 2.6-2.5 1.8 0 4.4 0 4.4 0v-2.9h-3.3c-2.1 0-3.7 1.9-3.7 3.9z"></path>
</svg>
