<!-- Generated by IcoMoon.io -->
<svg version="1.1" xmlns="http://www.w3.org/2000/svg" width="64" height="64" viewBox="0 0 64 64">
<title>hotschedules</title>
<path d="M32 5c-14.912 0-27 12.088-27 27s12.088 27 27 27c14.912 0 27-12.088 27-27s-12.088-27-27-27zM31.198 39.226c0 1.52-1.274 3.224-3.306 3.224-2.334 0-6.308 0-6.308 0s-0.010-4.684-0.010-6.646c0-1.564 1.46-3.002 3.166-3.002 0 0 1.416 0 1.516 0-1.182 0-2.276 0.946-2.276 2.476 0 1.402 0 4.738 0 4.738s3.318 0 4.98 0c1.664 0 2.238-1.692 2.238-1.982 0 0.002 0 0.48 0 1.192zM26.652 25.258c0 0 0.582 0 1.29 0 1.618 0 3.23 1.356 3.23 3.102v2.736h-2.412c0 0 0-2.176 0-3.688 0-1.414-1.512-2.15-2.108-2.15zM28.436 32.808h2.734v2.412c0 0-2.176 0-3.688 0-1.414 0-2.148 1.512-2.148 2.108 0 0 0-0.582 0-1.29 0-1.616 1.354-3.23 3.102-3.23zM31.198 25.906c0-0.292-0.576-1.98-2.238-1.98s-4.98 0-4.98 0 0 3.334 0 4.738c0 1.532 1.094 2.476 2.276 2.476-0.102 0-1.516 0-1.516 0-1.706 0-3.166-1.436-3.166-3.002 0-1.962 0.010-6.646 0.010-6.646s3.972 0 6.308 0c2.034 0 3.306 1.706 3.306 3.224 0 0.71 0 1.19 0 1.19zM32.862 28.726c0 0 2.178 0 3.688 0 1.414 0 2.15-1.51 2.15-2.106 0 0 0 0.582 0 1.29 0 1.618-1.356 3.23-3.104 3.23h-2.734v-2.414zM37.42 38.682c0 0-0.582 0-1.29 0-1.618 0-3.232-1.356-3.232-3.102v-2.736h2.414c0 0 0 2.176 0 3.688 0 1.416 1.51 2.15 2.108 2.15zM42.476 42.452c0 0-3.972 0-6.308 0-2.032 0-3.306-1.706-3.306-3.224 0-0.712 0-1.192 0-1.192 0 0.292 0.576 1.982 2.238 1.982s4.982 0 4.982 0 0-3.336 0-4.738c0-1.532-1.096-2.476-2.278-2.476 0.102 0 1.518 0 1.518 0 1.706 0 3.166 1.438 3.166 3.002 0 1.962-0.012 6.646-0.012 6.646zM39.322 31.138c0 0-1.416 0-1.518 0 1.182 0 2.278-0.944 2.278-2.476 0-1.402 0-4.738 0-4.738s-3.32 0-4.982 0-2.238 1.69-2.238 1.98c0 0 0-0.478 0-1.192 0-1.518 1.274-3.224 3.306-3.224 2.336 0 6.308 0 6.308 0s0.012 4.684 0.012 6.646c0 1.568-1.46 3.004-3.166 3.004z"></path>
</svg>
