<!-- Generated by IcoMoon.io -->
<svg version="1.1" xmlns="http://www.w3.org/2000/svg" width="64" height="64" viewBox="0 0 64 64">
<title>hotschedules2</title>
<path d="M22.2 7c-5.6 0-15 0-15 0s0 11.2 0 15.8c0 3.8 3.4 7.2 7.6 7.2 0 0 3.4 0 3.6 0-2.8 0-5.4-2.2-5.4-6 0-3.4 0-11.4 0-11.4s8 0 12 0c4 0 5.4 4 5.4 4.8 0 0 0-1.2 0-2.8-0.4-3.6-3.4-7.6-8.2-7.6zM39.4 12.8c4 0 12 0 12 0s0 8 0 11.4c0 3.6-2.6 6-5.4 6 0.2 0 3.6 0 3.6 0 4 0 7.6-3.4 7.6-7.2 0-4.6 0-15.8 0-15.8s-9.4 0-15 0c-4.8 0-8 4-8 7.8 0 1.8 0 2.8 0 2.8-0.2-1 1.2-5 5.2-5zM24.6 51.2c-4 0-12 0-12 0s0-8 0-11.4c0-3.6 2.6-6 5.4-6-0.2 0-3.6 0-3.6 0-4 0-7.6 3.4-7.6 7.2 0 4.6 0 15.8 0 15.8s9.4 0 15 0c4.8 0 8-4 8-7.8 0-1.8 0-2.8 0-2.8 0.2 1-1.2 5-5.2 5zM49.4 34c0 0-3.4 0-3.6 0 2.8 0 5.4 2.2 5.4 6 0 3.4 0 11.4 0 11.4s-8 0-12 0c-4 0-5.4-4-5.4-4.8 0 0 0 1.2 0 2.8 0 3.6 3 7.8 8 7.8 5.6 0 15 0 15 0s0-11.2 0-15.8c0.2-4-3.2-7.4-7.4-7.4zM30 30v-6.6c0-4.2-4-7.4-7.8-7.4-1.6 0-3 0-3 0 1.4 0 5 1.8 5 5.2 0 3.6 0 8.8 0 8.8h5.8zM48 22.2c0-1.6 0-3 0-3 0 1.4-1.8 5-5.2 5-3.6 0-8.8 0-8.8 0v5.8h6.6c4.2 0 7.4-3.8 7.4-7.8zM34 34v6.6c0 4.2 3.8 7.4 7.8 7.4 1.6 0 3 0 3 0-1.4 0-5-1.8-5-5.2 0-3.6 0-8.8 0-8.8h-5.8zM16 41.8c0 1.6 0 3 0 3 0-1.4 1.8-5 5.2-5 3.6 0 8.8 0 8.8 0v-5.8h-6.6c-4.2 0-7.4 3.8-7.4 7.8z"></path>
</svg>
