<!-- Generated by IcoMoon.io -->
<svg version="1.1" xmlns="http://www.w3.org/2000/svg" width="32" height="32" viewBox="0 0 32 32">
<title>hotschedules</title>
<path d="M16 2.5c-7.456 0-13.5 6.044-13.5 13.5s6.044 13.5 13.5 13.5c7.456 0 13.5-6.044 13.5-13.5s-6.044-13.5-13.5-13.5zM15.599 19.613c0 0.76-0.637 1.612-1.653 1.612-1.167 0-3.154 0-3.154 0s-0.005-2.342-0.005-3.323c0-0.782 0.73-1.501 1.583-1.501 0 0 0.708 0 0.758 0-0.591 0-1.138 0.473-1.138 1.238 0 0.701 0 2.369 0 2.369s1.659 0 2.49 0c0.832 0 1.119-0.846 1.119-0.991 0 0.001 0 0.24 0 0.596zM13.326 12.629c0 0 0.291 0 0.645 0 0.809 0 1.615 0.678 1.615 1.551v1.368h-1.206c0 0 0-1.088 0-1.844 0-0.707-0.756-1.075-1.054-1.075zM14.218 16.404h1.367v1.206c0 0-1.088 0-1.844 0-0.707 0-1.074 0.756-1.074 1.054 0 0 0-0.291 0-0.645 0-0.808 0.677-1.615 1.551-1.615zM15.599 12.953c0-0.146-0.288-0.99-1.119-0.99s-2.49 0-2.49 0 0 1.667 0 2.369c0 0.766 0.547 1.238 1.138 1.238-0.051 0-0.758 0-0.758 0-0.853 0-1.583-0.718-1.583-1.501 0-0.981 0.005-3.323 0.005-3.323s1.986 0 3.154 0c1.017 0 1.653 0.853 1.653 1.612 0 0.355 0 0.595 0 0.595zM16.431 14.363c0 0 1.089 0 1.844 0 0.707 0 1.075-0.755 1.075-1.053 0 0 0 0.291 0 0.645 0 0.809-0.678 1.615-1.552 1.615h-1.367v-1.207zM18.71 19.341c0 0-0.291 0-0.645 0-0.809 0-1.616-0.678-1.616-1.551v-1.368h1.207c0 0 0 1.088 0 1.844 0 0.708 0.755 1.075 1.054 1.075zM21.238 21.226c0 0-1.986 0-3.154 0-1.016 0-1.653-0.853-1.653-1.612 0-0.356 0-0.596 0-0.596 0 0.146 0.288 0.991 1.119 0.991s2.491 0 2.491 0 0-1.668 0-2.369c0-0.766-0.548-1.238-1.139-1.238 0.051 0 0.759 0 0.759 0 0.853 0 1.583 0.719 1.583 1.501 0 0.981-0.006 3.323-0.006 3.323zM19.661 15.569c0 0-0.708 0-0.759 0 0.591 0 1.139-0.472 1.139-1.238 0-0.701 0-2.369 0-2.369s-1.66 0-2.491 0-1.119 0.845-1.119 0.99c0 0 0-0.239 0-0.596 0-0.759 0.637-1.612 1.653-1.612 1.168 0 3.154 0 3.154 0s0.006 2.342 0.006 3.323c0 0.784-0.73 1.502-1.583 1.502z"></path>
</svg>
