<!-- Generated by IcoMoon.io -->
<svg version="1.1" xmlns="http://www.w3.org/2000/svg" width="32" height="32" viewBox="0 0 32 32">
<title>hourly_worker</title>
<path d="M9.2 24l3.3 2.1-2.2-2.5-1.1 0.4zM9.7 19.2l-0.7-0.1-0.4 4.3h1.4l-0.3-4.2zM10 16.6v-1h2v-1.9h-5v1.9h2v1c-3.4 0.2-6.2 3-6.2 6.5 0 3.6 2.9 6.5 6.5 6.5s6.5-2.9 6.5-6.5c0-3.4-2.5-6.1-5.8-6.5zM9.3 27.7c-2.6 0-4.7-2.1-4.7-4.7s2.1-4.7 4.7-4.7 4.7 2.1 4.7 4.7c0 2.6-2.1 4.7-4.7 4.7zM22.1 13.7c1-1.2 1.7-2.8 1.7-4.5 0-3.8-3-6.8-6.8-6.8s-6.8 3-6.8 6.8c0 0.9 0.2 1.8 0.5 2.6 1.7-0.5 3.2 1.1 3.6 3.7 0.8 0.4 1.7 0.6 2.7 0.6s1.9-0.2 2.8-0.6c4.1 1.3 7 5.3 7 10.1-0.7 0-2 0-2.8 0 0-1.9-1.1-4.8-1.1-4.8l-1.3 0.4c1.2 2.8 0.9 4.3 0.9 4.3s-3.1 1.9-5.5 1.9c-0.2 0-0.4 0-0.6 0-0.4 0.7-0.8 1.3-1.6 1.8 0.7 0.2 1.5 0.3 2.3 0.3 3.2 0 7.1-1.9 7.1-1.9s2.8 0 3.8 0c1.1 0 1.2-1.4 1.2-2.1 0-5.2-2.9-9.7-7.1-11.8zM17 13.9c-2.6 0-4.6-2.1-4.6-4.6 0-2.6 2.1-4.6 4.6-4.6 2.6 0 4.6 2.1 4.6 4.6s-2.1 4.6-4.6 4.6z"></path>
</svg>
