<!-- Generated by IcoMoon.io -->
<svg version="1.1" xmlns="http://www.w3.org/2000/svg" width="64" height="64" viewBox="0 0 64 64">
<title>hourly_worker</title>
<path d="M18.4 48l6.6 4.2-4.4-5-2.2 0.8zM19.4 38.4l-1.4-0.2-0.8 8.6h2.8l-0.6-8.4zM20 33.2v-2h4v-3.8h-10v3.8h4v2c-6.8 0.4-12.4 6-12.4 13 0 7.2 5.8 13 13 13s13-5.8 13-13c0-6.8-5-12.2-11.6-13zM18.6 55.4c-5.2 0-9.4-4.2-9.4-9.4s4.2-9.4 9.4-9.4 9.4 4.2 9.4 9.4c0 5.2-4.2 9.4-9.4 9.4zM44.2 27.4c2-2.4 3.4-5.6 3.4-9 0-7.6-6-13.6-13.6-13.6s-13.6 6-13.6 13.6c0 1.8 0.4 3.6 1 5.2 3.4-1 6.4 2.2 7.2 7.4 1.6 0.8 3.4 1.2 5.4 1.2s3.8-0.4 5.6-1.2c8.2 2.6 14 10.6 14 20.2-1.4 0-4 0-5.6 0 0-3.8-2.2-9.6-2.2-9.6l-2.6 0.8c2.4 5.6 1.8 8.6 1.8 8.6s-6.2 3.8-11 3.8c-0.4 0-0.8 0-1.2 0-0.8 1.4-1.6 2.6-3.2 3.6 1.4 0.4 3 0.6 4.6 0.6 6.4 0 14.2-3.8 14.2-3.8s5.6 0 7.6 0c2.2 0 2.4-2.8 2.4-4.2 0-10.4-5.8-19.4-14.2-23.6zM34 27.8c-5.2 0-9.2-4.2-9.2-9.2 0-5.2 4.2-9.2 9.2-9.2 5.2 0 9.2 4.2 9.2 9.2s-4.2 9.2-9.2 9.2z"></path>
</svg>
