<!-- Generated by IcoMoon.io -->
<svg version="1.1" xmlns="http://www.w3.org/2000/svg" width="32" height="32" viewBox="0 0 32 32">
<title>hr_manager</title>
<path d="M19.8 13.9c3.1 0 5.6-2.5 5.6-5.6s-2.5-5.6-5.6-5.6c-3.1 0-5.6 2.5-5.6 5.6s2.5 5.6 5.6 5.6zM22.8 13.9c0 0 0.6 0.3 0.8 0.5 0 0.7-1.7 1.3-3.8 1.3s0.9-0.4-0.7 3.3c4 1.4 2.5 8 2.3 9h1.5c3.9 0 7.1-3.2 7.1-7.1-0.2-3.8-3.3-7-7.2-7zM11.4 20.3c0.6-0.7 1-1.7 1-2.7 0-2.3-1.8-4.2-4-4.2s-4 1.9-4 4.2c0 1.1 0.4 2 1 2.8-2 1.4-3.4 4-3.4 7.2 0 0.4 0 1.3 0.7 1.3 0.6 0 2.5 0 2.5 0s1.4 1.1 3.2 1.1c1.9 0 3.5-1.2 3.5-1.2s1.6 0 2.3 0c0.6 0 0.7-0.9 0.7-1.3 0-3.1-1.8-5.9-3.5-7.2zM8.4 14.8c1.5 0 2.7 1.3 2.7 2.8 0 1.6-1.2 2.8-2.7 2.8s-2.7-1.3-2.7-2.8c-0.1-1.5 1.2-2.8 2.7-2.8zM11.9 27.6c0-1.1-0.7-2.9-0.7-2.9l-0.8 0.3c0.7 1.7 0.5 2.7 0.5 2.7s-1.1 1.2-2.6 1.2c-1.4 0-2.5-1.2-2.5-1.2s-0.2-0.9 0.5-2.7l-0.8-0.3c0 0-0.7 1.3-0.7 2.9-0.3 0-1 0-1.5 0 0-2.9 1.2-4.8 3.4-6.1 0.5 0.2 1 0.3 1.6 0.3s1.2-0.1 1.7-0.4c1.8 1 3.5 3.2 3.5 6.2-0.4 0-1.2 0-1.6 0zM17.5 20c0.6-0.7 0.9-1.6 0.9-2.6 0-2.2-1.7-3.9-3.8-3.9-1 0-1.9 0.4-2.6 1 0.2 0.4 0.4 0.7 0.7 1 0.5-0.5 1.1-0.8 1.9-0.8 1.4 0 2.6 1.2 2.6 2.7s-1.2 2.7-2.6 2.7c-0.4 0-0.9-0.1-1.2-0.3-0.1 0.3-0.4 1.2-0.3 1.2 0.5 0.2 1 0.3 1.5 0.3 0.6 0 1.1-0.1 1.6-0.3 1.7 1 3.3 3.1 3.3 5.8-0.4 0-1.1 0-1.6 0 0-1.1-0.6-2.8-0.6-2.8l-0.7 0.3c0.7 1.6 0.5 2.5 0.5 2.5s-0.7 0.7-1.7 1c-0.2 0.1-0.3 1.3-0.2 1.3 1.5-0.2 2.7-1.1 2.7-1.1s1.6 0 2.2 0c0.6 0 0.7-0.8 0.7-1.2-0.1-3.1-1.7-5.7-3.3-6.8z"></path>
</svg>
