<!-- Generated by IcoMoon.io -->
<svg version="1.1" xmlns="http://www.w3.org/2000/svg" width="64" height="64" viewBox="0 0 64 64">
<title>hr_manager</title>
<path d="M39.6 27.8c6.2 0 11.2-5 11.2-11.2s-5-11.2-11.2-11.2c-6.2 0-11.2 5-11.2 11.2s5 11.2 11.2 11.2zM45.6 27.8c0 0 1.2 0.6 1.6 1 0 1.4-3.4 2.6-7.6 2.6s1.8-0.8-1.4 6.6c8 2.8 5 16 4.6 18h3c7.8 0 14.2-6.4 14.2-14.2-0.4-7.6-6.6-14-14.4-14zM22.8 40.6c1.2-1.4 2-3.4 2-5.4 0-4.6-3.6-8.4-8-8.4s-8 3.8-8 8.4c0 2.2 0.8 4 2 5.6-4 2.8-6.8 8-6.8 14.4 0 0.8 0 2.6 1.4 2.6 1.2 0 5 0 5 0s2.8 2.2 6.4 2.2c3.8 0 7-2.4 7-2.4s3.2 0 4.6 0c1.2 0 1.4-1.8 1.4-2.6 0-6.2-3.6-11.8-7-14.4zM16.8 29.6c3 0 5.4 2.6 5.4 5.6 0 3.2-2.4 5.6-5.4 5.6s-5.4-2.6-5.4-5.6c-0.2-3 2.4-5.6 5.4-5.6zM23.8 55.2c0-2.2-1.4-5.8-1.4-5.8l-1.6 0.6c1.4 3.4 1 5.4 1 5.4s-2.2 2.4-5.2 2.4c-2.8 0-5-2.4-5-2.4s-0.4-1.8 1-5.4l-1.6-0.6c0 0-1.4 2.6-1.4 5.8-0.6 0-2 0-3 0 0-5.8 2.4-9.6 6.8-12.2 1 0.4 2 0.6 3.2 0.6s2.4-0.2 3.4-0.8c3.6 2 7 6.4 7 12.4-0.8 0-2.4 0-3.2 0zM35 40c1.2-1.4 1.8-3.2 1.8-5.2 0-4.4-3.4-7.8-7.6-7.8-2 0-3.8 0.8-5.2 2 0.4 0.8 0.8 1.4 1.4 2 1-1 2.2-1.6 3.8-1.6 2.8 0 5.2 2.4 5.2 5.4s-2.4 5.4-5.2 5.4c-0.8 0-1.8-0.2-2.4-0.6-0.2 0.6-0.8 2.4-0.6 2.4 1 0.4 2 0.6 3 0.6 1.2 0 2.2-0.2 3.2-0.6 3.4 2 6.6 6.2 6.6 11.6-0.8 0-2.2 0-3.2 0 0-2.2-1.2-5.6-1.2-5.6l-1.4 0.6c1.4 3.2 1 5 1 5s-1.4 1.4-3.4 2c-0.4 0.2-0.6 2.6-0.4 2.6 3-0.4 5.4-2.2 5.4-2.2s3.2 0 4.4 0c1.2 0 1.4-1.6 1.4-2.4-0.2-6.2-3.4-11.4-6.6-13.6z"></path>
</svg>
