<!-- Generated by IcoMoon.io -->
<svg version="1.1" xmlns="http://www.w3.org/2000/svg" width="32" height="32" viewBox="0 0 32 32">
<title>in_classes_training</title>
<path d="M24.84 17.965c0.746-0.492 1.345-1.184 1.74-1.989 0.32 0.061 0.701 0.034 0.956-0.307 0.515-0.688 0.515-1.375 0.343-1.923-0.137-0.438-0.915-1.559-1.231-2.005-0.452-1.006-1.23-1.826-2.194-2.347l-0.135-1.746c-0.033-0.442-0.326-0.806-0.654-0.813l-7.648-0.219c0.279-0.403 0.441-0.896 0.441-1.424 0-1.393-1.129-2.523-2.523-2.523s-2.523 1.131-2.523 2.523c0 0.48 0.141 0.922 0.373 1.303l-9.83-0.277c-0.488-0.014-0.856 0.412-0.822 0.952l1.125 17.531c0.035 0.551 0.461 0.945 0.947 0.883l10.043-1.318 0.15 0.523c-0.148 0.689-0.232 1.41-0.232 2.152 0 0.145 0.010 0.705 0.010 0.705s1.611 1.596 4.182 0.814c0.044 0 1.221 0.869 4.661 0.869s4.771-0.828 4.771-0.869c2.396 0.391 4.069-0.848 4.075-0.904 0.003-0.111 0.005-0.502 0.005-0.615-0.001-4.212-2.526-7.705-6.030-8.976zM25.492 13.787c0 0.706-0.216 1.362-0.584 1.904-0.611 0.899-1.426 1.596-2.596 1.596-0.975 0-2.070-0.52-2.689-1.176-0.57-0.609-0.92-1.424-0.92-2.324 0-1.875 1.52-3.394 3.395-3.394s3.394 1.519 3.394 3.394zM13.933 3.992c0.663 0 1.2 0.537 1.2 1.199 0 0.666-0.537 1.201-1.2 1.201s-1.2-0.535-1.2-1.201c-0.001-0.662 0.537-1.199 1.2-1.199zM5.554 22.83c-0.349 0.039-0.653-0.25-0.679-0.646l-0.822-12.664c-0.026-0.392 0.238-0.704 0.586-0.697l15.783 0.255c-1.616 0.578-2.85 1.961-3.211 3.669-0.265 0.393-0.505 0.78-0.572 1-0.172 0.548-0.236 1.3 0.277 1.987 0.191 0.255 0.471 0.341 0.746 0.351 0.386 0.742 0.947 1.376 1.635 1.843-1.947 0.678-3.59 2.047-4.686 3.842l-1.178 0.139-2.349-8.157-0.816 0.172 2.327 8.083-7.041 0.823zM26.921 27.201c-0.060-2.178-1.003-3.699-1.003-3.699l-0.947 0.326c0.601 1.412 0.688 2.598 0.696 3.111 0.001 0.045-1.079 0.871-3.604 0.871-2.527 0-3.514-0.826-3.584-0.871 0.008-0.514 0.095-1.699 0.695-3.111l-0.947-0.326c0 0-0.943 1.521-1.003 3.699-0.87 0-1.923-0.127-2.339-0.256l-0.012-0.043c0.016-3.359 2.020-6.152 4.805-7.176l-0.043 2.48 2.514-1.83 2.488 1.76-0.33-2.428c2.823 1.008 4.859 3.834 4.859 7.23-0.665 0.263-1.392 0.263-2.245 0.263z"></path>
</svg>
