<!-- Generated by IcoMoon.io -->
<svg version="1.1" xmlns="http://www.w3.org/2000/svg" width="32" height="32" viewBox="0 0 32 32">
<title>in_class_training</title>
<path d="M24.84 17.965c0.746-0.492 1.345-1.183 1.74-1.988 0.32 0.061 0.701 0.034 0.956-0.307 0.515-0.688 0.515-1.376 0.343-1.924-0.137-0.438-0.915-1.559-1.231-2.004-0.452-1.006-1.23-1.826-2.194-2.347l-0.135-1.747c-0.033-0.441-0.326-0.806-0.654-0.813l-7.648-0.218c0.278-0.404 0.441-0.896 0.441-1.425 0-1.392-1.13-2.523-2.524-2.523-1.393 0-2.523 1.132-2.523 2.523 0 0.48 0.142 0.923 0.373 1.304l-9.83-0.278c-0.486-0.014-0.855 0.413-0.82 0.953l1.124 17.53c0.035 0.551 0.461 0.946 0.948 0.882l10.042-1.316 0.15 0.522c-0.148 0.691-0.231 1.41-0.231 2.152 0 0.144 0.009 0.705 0.009 0.705s1.612 1.597 4.182 0.814c0.044 0 1.221 0.87 4.661 0.87s4.771-0.829 4.771-0.87c2.396 0.391 4.069-0.848 4.075-0.904 0.003-0.111 0.005-0.502 0.005-0.615-0.001-4.212-2.526-7.705-6.030-8.976zM25.492 13.787c0 0.705-0.216 1.362-0.584 1.903-0.611 0.899-1.426 1.597-2.596 1.597-0.975 0-2.070-0.52-2.689-1.177-0.57-0.608-0.92-1.423-0.92-2.323 0-1.874 1.52-3.395 3.395-3.395s3.394 1.521 3.394 3.395zM13.933 3.992c0.662 0 1.199 0.537 1.199 1.199 0 0.665-0.537 1.201-1.199 1.201-0.663 0-1.201-0.536-1.201-1.201 0-0.662 0.538-1.199 1.201-1.199zM5.554 22.829c-0.348 0.040-0.653-0.248-0.679-0.646l-0.822-12.663c-0.025-0.391 0.238-0.704 0.586-0.697l15.783 0.255c-1.616 0.577-2.85 1.96-3.211 3.669-0.265 0.393-0.505 0.78-0.572 0.999-0.172 0.548-0.237 1.302 0.277 1.988 0.191 0.255 0.471 0.341 0.746 0.351 0.386 0.741 0.947 1.377 1.635 1.843-1.947 0.679-3.59 2.048-4.686 3.842l-1.177 0.139-2.349-8.157-0.816 0.173 2.328 8.082-7.043 0.822zM26.921 27.201c-0.060-2.179-1.003-3.699-1.003-3.699l-0.947 0.327c0.601 1.411 0.688 2.596 0.696 3.111 0.001 0.045-1.079 0.871-3.604 0.871-2.527 0-3.514-0.826-3.584-0.871 0.008-0.516 0.095-1.7 0.695-3.111l-0.947-0.327c0 0-0.943 1.521-1.003 3.699-0.871 0-1.923-0.127-2.339-0.257l-0.012-0.043c0.016-3.358 2.020-6.152 4.805-7.174l-0.043 2.479 2.514-1.829 2.488 1.76-0.33-2.429c2.823 1.010 4.859 3.835 4.859 7.232-0.665 0.261-1.392 0.261-2.245 0.261z"></path>
</svg>
