<!-- Generated by IcoMoon.io -->
<svg version="1.1" xmlns="http://www.w3.org/2000/svg" width="64" height="64" viewBox="0 0 64 64">
<title>in_classes_training</title>
<path d="M49.68 35.93c1.492-0.984 2.69-2.368 3.48-3.978 0.64 0.122 1.402 0.068 1.912-0.614 1.030-1.376 1.030-2.75 0.686-3.846-0.274-0.876-1.83-3.118-2.462-4.010-0.904-2.012-2.46-3.652-4.388-4.694l-0.27-3.492c-0.066-0.884-0.652-1.612-1.308-1.626l-15.296-0.438c0.558-0.806 0.882-1.792 0.882-2.848 0-2.786-2.258-5.046-5.046-5.046s-5.046 2.262-5.046 5.046c0 0.96 0.282 1.844 0.746 2.606l-19.66-0.554c-0.976-0.028-1.712 0.824-1.644 1.904l2.25 35.062c0.070 1.102 0.922 1.89 1.894 1.766l20.086-2.636 0.3 1.046c-0.296 1.378-0.464 2.82-0.464 4.304 0 0.29 0.020 1.41 0.020 1.41s3.222 3.192 8.364 1.628c0.088 0 2.442 1.738 9.322 1.738s9.542-1.656 9.542-1.738c4.792 0.782 8.138-1.696 8.15-1.808 0.006-0.222 0.010-1.004 0.010-1.23-0.002-8.424-5.052-15.41-12.060-17.952zM50.984 27.574c0 1.412-0.432 2.724-1.168 3.808-1.222 1.798-2.852 3.192-5.192 3.192-1.95 0-4.14-1.040-5.378-2.352-1.14-1.218-1.84-2.848-1.84-4.648 0-3.75 3.040-6.788 6.79-6.788s6.788 3.038 6.788 6.788zM27.866 7.984c1.326 0 2.4 1.074 2.4 2.398 0 1.332-1.074 2.402-2.4 2.402s-2.4-1.070-2.4-2.402c-0.002-1.324 1.074-2.398 2.4-2.398zM11.108 45.66c-0.698 0.078-1.306-0.5-1.358-1.292l-1.644-25.328c-0.052-0.784 0.476-1.408 1.172-1.394l31.566 0.51c-3.232 1.156-5.7 3.922-6.422 7.338-0.53 0.786-1.010 1.56-1.144 2-0.344 1.096-0.472 2.6 0.554 3.974 0.382 0.51 0.942 0.682 1.492 0.702 0.772 1.484 1.894 2.752 3.27 3.686-3.894 1.356-7.18 4.094-9.372 7.684l-2.356 0.278-4.698-16.314-1.632 0.344 4.654 16.166-14.082 1.646zM53.842 54.402c-0.12-4.356-2.006-7.398-2.006-7.398l-1.894 0.652c1.202 2.824 1.376 5.196 1.392 6.222 0.002 0.090-2.158 1.742-7.208 1.742-5.054 0-7.028-1.652-7.168-1.742 0.016-1.028 0.19-3.398 1.39-6.222l-1.894-0.652c0 0-1.886 3.042-2.006 7.398-1.74 0-3.846-0.254-4.678-0.512l-0.024-0.086c0.032-6.718 4.040-12.304 9.61-14.352l-0.086 4.96 5.028-3.66 4.976 3.52-0.66-4.856c5.646 2.016 9.718 7.668 9.718 14.46-1.33 0.526-2.784 0.526-4.49 0.526z"></path>
</svg>
