<!-- Generated by IcoMoon.io -->
<svg version="1.1" xmlns="http://www.w3.org/2000/svg" width="64" height="64" viewBox="0 0 64 64">
<title>in_class_training</title>
<path d="M49.68 35.93c1.492-0.984 2.69-2.366 3.48-3.976 0.64 0.122 1.402 0.068 1.912-0.614 1.030-1.376 1.030-2.752 0.686-3.848-0.274-0.876-1.83-3.118-2.462-4.008-0.904-2.012-2.46-3.652-4.388-4.694l-0.27-3.494c-0.066-0.882-0.652-1.612-1.308-1.626l-15.296-0.436c0.556-0.808 0.882-1.792 0.882-2.85 0-2.784-2.26-5.046-5.048-5.046-2.786 0-5.046 2.264-5.046 5.046 0 0.96 0.284 1.846 0.746 2.608l-19.66-0.556c-0.972-0.028-1.71 0.826-1.64 1.906l2.248 35.060c0.070 1.102 0.922 1.892 1.896 1.764l20.084-2.632 0.3 1.044c-0.296 1.382-0.462 2.82-0.462 4.304 0 0.288 0.018 1.41 0.018 1.41s3.224 3.194 8.364 1.628c0.088 0 2.442 1.74 9.322 1.74s9.542-1.658 9.542-1.74c4.792 0.782 8.138-1.696 8.15-1.808 0.006-0.222 0.010-1.004 0.010-1.23-0.002-8.424-5.052-15.41-12.060-17.952zM50.984 27.574c0 1.41-0.432 2.724-1.168 3.806-1.222 1.798-2.852 3.194-5.192 3.194-1.95 0-4.14-1.040-5.378-2.354-1.14-1.216-1.84-2.846-1.84-4.646 0-3.748 3.040-6.79 6.79-6.79s6.788 3.042 6.788 6.79zM27.866 7.984c1.324 0 2.398 1.074 2.398 2.398 0 1.33-1.074 2.402-2.398 2.402-1.326 0-2.402-1.072-2.402-2.402 0-1.324 1.076-2.398 2.402-2.398zM11.108 45.658c-0.696 0.080-1.306-0.496-1.358-1.292l-1.644-25.326c-0.050-0.782 0.476-1.408 1.172-1.394l31.566 0.51c-3.232 1.154-5.7 3.92-6.422 7.338-0.53 0.786-1.010 1.56-1.144 1.998-0.344 1.096-0.474 2.604 0.554 3.976 0.382 0.51 0.942 0.682 1.492 0.702 0.772 1.482 1.894 2.754 3.27 3.686-3.894 1.358-7.18 4.096-9.372 7.684l-2.354 0.278-4.698-16.314-1.632 0.346 4.656 16.164-14.086 1.644zM53.842 54.402c-0.12-4.358-2.006-7.398-2.006-7.398l-1.894 0.654c1.202 2.822 1.376 5.192 1.392 6.222 0.002 0.090-2.158 1.742-7.208 1.742-5.054 0-7.028-1.652-7.168-1.742 0.016-1.032 0.19-3.4 1.39-6.222l-1.894-0.654c0 0-1.886 3.042-2.006 7.398-1.742 0-3.846-0.254-4.678-0.514l-0.024-0.086c0.032-6.716 4.040-12.304 9.61-14.348l-0.086 4.958 5.028-3.658 4.976 3.52-0.66-4.858c5.646 2.020 9.718 7.67 9.718 14.464-1.33 0.522-2.784 0.522-4.49 0.522z"></path>
</svg>
