<!-- Generated by IcoMoon.io -->
<svg version="1.1" xmlns="http://www.w3.org/2000/svg" width="32" height="32" viewBox="0 0 32 32">
<title>inbox</title>
<path d="M13.542 19.663c1.531 1.533 3.123 1.462 4.725-0.142 1.604-1.604 8.659-8.788 9.799-9.928s0.035-2.984-1.104-2.984-20.689 0-22.043 0-2.245 2.058-1.105 3.198c1.14 1.14 7.911 8.040 9.728 9.856zM24.651 9.596c0 0-6.293 6.441-7.257 7.405s-2.045 1.008-2.966 0.085c-1.094-1.092-7.444-7.503-7.444-7.503l17.667 0.013zM25.702 14.8c0 0 0.016 4.295 0.016 5.863 0 1.566-1.068 1.724-1.4 1.724-3.74 0-12.393 0-16.297 0-0.41 0-1.425-0.208-1.425-1.704 0-1.782-0.011-5.927-0.011-5.927l-3.038-2.93v11.428c0 1.181 0.463 2.138 1.644 2.138h21.379c1.182 0 2.138-0.957 2.138-2.138v-11.429l-3.006 2.975z"></path>
</svg>
