<!-- Generated by IcoMoon.io -->
<svg version="1.1" xmlns="http://www.w3.org/2000/svg" width="64" height="64" viewBox="0 0 64 64">
<title>inbox</title>
<path d="M27.084 39.326c3.062 3.066 6.246 2.924 9.45-0.284 3.208-3.208 17.318-17.576 19.598-19.856s0.070-5.968-2.208-5.968-41.378 0-44.086 0-4.49 4.116-2.21 6.396c2.28 2.28 15.822 16.080 19.456 19.712zM49.302 19.192c0 0-12.586 12.882-14.514 14.81-1.93 1.93-4.090 2.016-5.932 0.17-2.188-2.184-14.888-15.006-14.888-15.006l35.334 0.026zM51.404 29.6c0 0 0.032 8.59 0.032 11.726 0 3.132-2.136 3.448-2.8 3.448-7.48 0-24.786 0-32.594 0-0.82 0-2.85-0.416-2.85-3.408 0-3.564-0.022-11.854-0.022-11.854l-6.076-5.86v22.856c0 2.362 0.926 4.276 3.288 4.276h42.758c2.364 0 4.276-1.914 4.276-4.276v-22.858l-6.012 5.95z"></path>
</svg>
