<!-- Generated by IcoMoon.io -->
<svg version="1.1" xmlns="http://www.w3.org/2000/svg" width="64" height="64" viewBox="0 0 64 64">
<title>influencer</title>
<path d="M10.4 33l-1.2-0.4c0 0-1 1.8-1 4.2h-2.2c0-4.2 2.6-7.8 6-9 0.8 0.4 1.6 0.6 2.4 0.6 0.2 0 0-2 0-2-2.2 0-4-1.8-4-4.2 0-2.2 1.8-4.2 4-4.2 1 0 2 0.4 2.6 1 0.2 0 0.6-1.4 0.8-1.8-1-0.6-2.2-1-3.6-1-3.2 0-6 2.8-6 6 0 1.6 0.6 3 1.6 4-3.6 1.8-6 5.8-6 10.6 0 0.6 0 1.8 1 1.8 0.8 0 4.8 0 4.8 0s-0.4-3 0.8-5.6zM48.8 25c1-1 1.6-2.6 1.6-4 0-3.4-2.6-6-6-6-1.2 0-2.4 0.4-3.4 1.2 0.2 0.4 0.6 1.8 0.8 1.8 0.8-0.6 1.6-1 2.6-1 2.2 0 4 1.8 4 4.2 0 2.2-1.8 4.2-4 4.2 0 0-0.2 2 0 2 0.8 0 1.6-0.2 2.4-0.6 3.4 1.2 6 4.8 6 9h-2.2c0-2.4-1-4.2-1-4.2l-1.2 0.4c1 2.6 0.8 5.8 0.8 5.8s3.8 0 4.8 0c1 0 1-1.4 1-1.8-0.2-5-2.6-9-6.2-11zM55 22c0.8-1 1.4-2.2 1.4-3.4 0-2.8-2.2-5.2-5-5.2-1 0-2.2 0.4-3 1 0.2 0.4 0.6 1.6 0.6 1.6 0.6-0.6 1.4-0.8 2.2-0.8 1.8 0 3.4 1.6 3.4 3.6s-0.6 3.6-2.4 3.6c0 0-1.2 1.6-1 1.6 0.8 0 1.4-0.2 2-0.4 3 1 5.2 4 5.2 7.8h-2c0-2.2-0.8-3.6-0.8-3.6v0.4c1 2.2-0.4 5-0.4 5s3.2 0 4 0 0.8-1.2 0.8-1.6c0.2-4.4-2-7.8-5-9.6zM41 28.2c1.2-1.2 1.8-3 1.8-4.8 0-4-3.2-7.4-7-7.4-1.6 0-3 0.6-4.2 1.4 0 0.8 0.4 2.6 0.4 2.8 0.8-1.2 2.2-1.8 3.8-1.8 2.6 0 4.8 2.2 4.8 5s-2.2 5-4.8 5c-1.2 0-2.4-0.4-3.2-1.2 0 1.4 0.4 3 0.4 2.8 0.8 0.4 1.8 0.6 3 0.6 1 0 2-0.2 2.8-0.6 4.2 1.4 7.2 5.8 7.2 10.8h-2.8c0-3-1.2-5.2-1.2-5.2l-1.4 0.4c1.2 3 1 4.6 1 4.6s-1.2 0.8-2.8 1.4c0 0-0.4 1.4-0.8 2-0.8-5.8-4.8-10.4-9.8-12.2 2.2-1.4 3.6-4 3.6-6.8 0-4.4-3.6-8.2-8.2-8.2-4.4 0-8.2 3.6-8.2 8.2 0 2.8 1.4 5.4 3.6 6.8-5.8 2-9.8 7.8-9.8 14.6 0 0.2 0 0.8 0 1 0 0 2.8 2.2 6.6 1.4 0 0 2.2 1.4 7.8 1.4s7.6-1.4 7.6-1.4c4.2 1.2 6.8-1.4 6.8-1.4s0-1 0-1.2c0-0.6 0-1.4-0.2-2 2.4-0.2 4.8-1.6 4.8-1.6s3.4 0 4.4 0c1 0 1.2-1.6 1.2-2.2 0-5.2-3-10-7.2-12.2zM17.8 25.2c0-3 2.4-5.6 5.6-5.6 3 0 5.6 2.4 5.6 5.6 0 3-2.4 5.6-5.6 5.6-3 0-5.6-2.4-5.6-5.6zM31.4 47.2c0-3.6-1.6-6-1.6-6l-1.6 0.6c1 2.2 1.2 4.2 1.2 5-0.2 0-1.8 1.4-5.8 1.4-4.2 0-5.8-1.4-5.8-1.4 0-0.8 0.2-2.8 1.2-5l-1.6-0.6c0 0-1.6 2.4-1.6 6-1.4 0-2.6 0-3.6-0.4 0-7 5.2-12.4 11.6-12.4s11.6 5.4 11.6 12.4c-0.8 0.2-2.6 0.4-4 0.4z"></path>
</svg>
