<!-- Generated by IcoMoon.io -->
<svg version="1.1" xmlns="http://www.w3.org/2000/svg" width="32" height="32" viewBox="0 0 32 32">
<title>influencer</title>
<path d="M5.2 16.5l-0.6-0.2c0 0-0.5 0.9-0.5 2.1h-1.1c0-2.1 1.3-3.9 3-4.5 0.4 0.2 0.8 0.3 1.2 0.3 0.1 0 0-1 0-1-1.1 0-2-0.9-2-2.1 0-1.1 0.9-2.1 2-2.1 0.5 0 1 0.2 1.3 0.5 0.1 0 0.3-0.7 0.4-0.9-0.5-0.3-1.1-0.5-1.8-0.5-1.6 0-3 1.4-3 3 0 0.8 0.3 1.5 0.8 2-1.8 0.9-3 2.9-3 5.3 0 0.3 0 0.9 0.5 0.9 0.4 0 2.4 0 2.4 0s-0.2-1.5 0.4-2.8zM24.4 12.5c0.5-0.5 0.8-1.3 0.8-2 0-1.7-1.3-3-3-3-0.6 0-1.2 0.2-1.7 0.6 0.1 0.2 0.3 0.9 0.4 0.9 0.4-0.3 0.8-0.5 1.3-0.5 1.1 0 2 0.9 2 2.1 0 1.1-0.9 2.1-2 2.1 0 0-0.1 1 0 1 0.4 0 0.8-0.1 1.2-0.3 1.7 0.6 3 2.4 3 4.5h-1.1c0-1.2-0.5-2.1-0.5-2.1l-0.6 0.2c0.5 1.3 0.4 2.9 0.4 2.9s1.9 0 2.4 0c0.5 0 0.5-0.7 0.5-0.9-0.1-2.5-1.3-4.5-3.1-5.5zM27.5 11c0.4-0.5 0.7-1.1 0.7-1.7 0-1.4-1.1-2.6-2.5-2.6-0.5 0-1.1 0.2-1.5 0.5 0.1 0.2 0.3 0.8 0.3 0.8 0.3-0.3 0.7-0.4 1.1-0.4 0.9 0 1.7 0.8 1.7 1.8s-0.3 1.8-1.2 1.8c0 0-0.6 0.8-0.5 0.8 0.4 0 0.7-0.1 1-0.2 1.5 0.5 2.6 2 2.6 3.9h-1c0-1.1-0.4-1.8-0.4-1.8v0.2c0.5 1.1-0.2 2.5-0.2 2.5s1.6 0 2 0 0.4-0.6 0.4-0.8c0.1-2.2-1-3.9-2.5-4.8zM20.5 14.1c0.6-0.6 0.9-1.5 0.9-2.4 0-2-1.6-3.7-3.5-3.7-0.8 0-1.5 0.3-2.1 0.7 0 0.4 0.2 1.3 0.2 1.4 0.4-0.6 1.1-0.9 1.9-0.9 1.3 0 2.4 1.1 2.4 2.5s-1.1 2.5-2.4 2.5c-0.6 0-1.2-0.2-1.6-0.6 0 0.7 0.2 1.5 0.2 1.4 0.4 0.2 0.9 0.3 1.5 0.3 0.5 0 1-0.1 1.4-0.3 2.1 0.7 3.6 2.9 3.6 5.4h-1.4c0-1.5-0.6-2.6-0.6-2.6l-0.7 0.2c0.6 1.5 0.5 2.3 0.5 2.3s-0.6 0.4-1.4 0.7c0 0-0.2 0.7-0.4 1-0.4-2.9-2.4-5.2-4.9-6.1 1.1-0.7 1.8-2 1.8-3.4 0-2.2-1.8-4.1-4.1-4.1-2.2 0-4.1 1.8-4.1 4.1 0 1.4 0.7 2.7 1.8 3.4-2.9 1-4.9 3.9-4.9 7.3 0 0.1 0 0.4 0 0.5 0 0 1.4 1.1 3.3 0.7 0 0 1.1 0.7 3.9 0.7s3.8-0.7 3.8-0.7c2.1 0.6 3.4-0.7 3.4-0.7s0-0.5 0-0.6c0-0.3 0-0.7-0.1-1 1.2-0.1 2.4-0.8 2.4-0.8s1.7 0 2.2 0c0.5 0 0.6-0.8 0.6-1.1 0-2.6-1.5-5-3.6-6.1zM8.9 12.6c0-1.5 1.2-2.8 2.8-2.8 1.5 0 2.8 1.2 2.8 2.8 0 1.5-1.2 2.8-2.8 2.8-1.5 0-2.8-1.2-2.8-2.8zM15.7 23.6c0-1.8-0.8-3-0.8-3l-0.8 0.3c0.5 1.1 0.6 2.1 0.6 2.5-0.1 0-0.9 0.7-2.9 0.7-2.1 0-2.9-0.7-2.9-0.7 0-0.4 0.1-1.4 0.6-2.5l-0.8-0.3c0 0-0.8 1.2-0.8 3-0.7 0-1.3 0-1.8-0.2 0-3.5 2.6-6.2 5.8-6.2s5.8 2.7 5.8 6.2c-0.4 0.1-1.3 0.2-2 0.2z"></path>
</svg>
