<!-- Generated by IcoMoon.io -->
<svg version="1.1" xmlns="http://www.w3.org/2000/svg" width="64" height="64" viewBox="0 0 64 64">
<title>info</title>
<path d="M32 7.734c-13.402 0-24.266 10.864-24.266 24.266 0 13.398 10.864 24.266 24.266 24.266 13.4 0 24.266-10.868 24.266-24.264 0-13.404-10.868-24.268-24.266-24.268zM40.048 50.18v-0.28h-0.68c-1.078 0-1.816-0.144-2.212-0.442-0.398-0.294-0.6-0.962-0.6-2.004v-15.908c-4.902 0.972-8.69 1.46-11.368 1.46v2.762c1.356 0 2.242 0.11 2.658 0.312 0.628 0.316 0.94 1.060 0.94 2.246v10.012c0 0.728-0.348 1.196-1.042 1.406-0.348 0.106-1.010 0.154-1.984 0.154h-0.574v0.772c-7.628-2.786-13.084-10.080-13.084-18.674 0-10.988 8.908-19.892 19.892-19.892 10.988 0 19.892 8.904 19.892 19.892 0.002 8.124-4.864 15.092-11.838 18.184zM32.226 18.93c-1.25 0-2.294 0.408-3.13 1.224-0.834 0.818-1.252 1.85-1.252 3.104 0 1.218 0.426 2.25 1.278 3.102s1.884 1.276 3.104 1.276c1.216 0 2.242-0.424 3.076-1.276 0.836-0.852 1.252-1.884 1.252-3.102s-0.416-2.244-1.252-3.078c-0.834-0.836-1.858-1.25-3.076-1.25z"></path>
</svg>
