<!-- Generated by IcoMoon.io -->
<svg version="1.1" xmlns="http://www.w3.org/2000/svg" width="32" height="32" viewBox="0 0 32 32">
<title>info</title>
<path d="M16 3.867c-6.701 0-12.133 5.432-12.133 12.133 0 6.699 5.432 12.133 12.133 12.133 6.7 0 12.133-5.434 12.133-12.132 0-6.702-5.434-12.134-12.133-12.134zM20.024 25.090v-0.14h-0.34c-0.539 0-0.908-0.072-1.106-0.221-0.199-0.147-0.3-0.481-0.3-1.002v-7.954c-2.451 0.486-4.345 0.73-5.684 0.73v1.381c0.678 0 1.121 0.055 1.329 0.156 0.314 0.158 0.47 0.53 0.47 1.123v5.006c0 0.364-0.174 0.598-0.521 0.703-0.174 0.053-0.505 0.077-0.992 0.077h-0.287v0.386c-3.814-1.393-6.542-5.040-6.542-9.337 0-5.494 4.454-9.946 9.946-9.946 5.494 0 9.946 4.452 9.946 9.946 0.001 4.062-2.432 7.546-5.919 9.092zM16.113 9.465c-0.625 0-1.147 0.204-1.565 0.612-0.417 0.409-0.626 0.925-0.626 1.552 0 0.609 0.213 1.125 0.639 1.551s0.942 0.638 1.552 0.638c0.608 0 1.121-0.212 1.538-0.638s0.626-0.942 0.626-1.551-0.208-1.122-0.626-1.539c-0.417-0.418-0.929-0.625-1.538-0.625z"></path>
</svg>
