<!-- Generated by IcoMoon.io -->
<svg version="1.1" xmlns="http://www.w3.org/2000/svg" width="32" height="32" viewBox="0 0 32 32">
<title>instructor</title>
<path d="M28.763 9.496l-1.012-0.218-3.424 12.157c-1.22-3.247-3.674-5.771-6.752-6.869 0.852-0.589 1.542-1.394 2.020-2.331 0.344-0.011 0.692-0.12 0.93-0.445 0.64-0.872 0.559-1.823 0.347-2.521-0.085-0.275-0.382-0.769-0.709-1.266-0.594-2.863-3.077-5.012-6.055-5.012-2.518 0-4.673 1.542-5.642 3.748-0.395 0.57-1.353 1.979-1.523 2.53-0.213 0.697-0.213 1.568 0.425 2.439 0.321 0.437 0.803 0.465 1.203 0.384 0.49 1.021 1.214 1.902 2.138 2.523-4.343 1.61-7.472 6.032-7.472 11.368 0 0.144 0.002 0.641 0.008 0.782 0.006 0.071 2.080 1.638 5.049 1.141 0 0.058 1.648 1.104 5.912 1.104 4.262 0 5.719-1.104 5.773-1.104 3.185 0.993 5.184-1.026 5.184-1.026s0.010-0.713 0.010-0.896c0-0.924-0.125-1.807-0.303-2.668l3.893-13.82zM10.624 11.734c-0.457-0.687-0.723-1.517-0.723-2.411 0-2.376 1.883-4.3 4.206-4.3 2.321 0 4.205 1.924 4.205 4.3 0 1.137-0.432 2.172-1.14 2.942-0.767 0.834-2.124 1.49-3.333 1.49-1.447 0-2.458-0.881-3.215-2.021zM20.146 26.313c-0.075-2.761-1.243-4.688-1.243-4.688l-1.174 0.418c0.744 1.785 0.852 3.286 0.861 3.938-0.087 0.058-1.311 1.104-4.439 1.104-3.13 0-4.47-1.046-4.468-1.104 0.012-0.652 0.12-2.153 0.864-3.938l-1.176-0.418c0 0-1.166 1.927-1.241 4.688-1.056 0-1.957 0-2.782-0.331 0-4.296 2.527-7.839 6.016-9.122l-0.405 3.037 3.084-2.227 3.113 2.313-0.054-3.104c3.448 1.299 5.938 4.808 5.954 9.061l-0.013 0.045c-0.512 0.165-1.819 0.328-2.897 0.328z"></path>
</svg>
