<!-- Generated by IcoMoon.io -->
<svg version="1.1" xmlns="http://www.w3.org/2000/svg" width="64" height="64" viewBox="0 0 64 64">
<title>instructor</title>
<path d="M57.526 18.992l-2.024-0.436-6.848 24.314c-2.44-6.494-7.348-11.542-13.504-13.738 1.704-1.178 3.084-2.788 4.040-4.662 0.688-0.022 1.384-0.24 1.86-0.89 1.28-1.744 1.118-3.646 0.694-5.042-0.17-0.55-0.764-1.538-1.418-2.532-1.188-5.726-6.154-10.024-12.11-10.024-5.036 0-9.346 3.084-11.284 7.496-0.79 1.14-2.706 3.958-3.046 5.060-0.426 1.394-0.426 3.136 0.85 4.878 0.642 0.874 1.606 0.93 2.406 0.768 0.98 2.042 2.428 3.804 4.276 5.046-8.686 3.22-14.944 12.064-14.944 22.736 0 0.288 0.004 1.282 0.016 1.564 0.012 0.142 4.16 3.276 10.098 2.282 0 0.116 3.296 2.208 11.824 2.208 8.524 0 11.438-2.208 11.546-2.208 6.37 1.986 10.368-2.052 10.368-2.052s0.020-1.426 0.020-1.792c0-1.848-0.25-3.614-0.606-5.336l7.786-27.64zM21.248 23.468c-0.914-1.374-1.446-3.034-1.446-4.822 0-4.752 3.766-8.6 8.412-8.6 4.642 0 8.41 3.848 8.41 8.6 0 2.274-0.864 4.344-2.28 5.884-1.534 1.668-4.248 2.98-6.666 2.98-2.894 0-4.916-1.762-6.43-4.042zM40.292 52.626c-0.15-5.522-2.486-9.376-2.486-9.376l-2.348 0.836c1.488 3.57 1.704 6.572 1.722 7.876-0.174 0.116-2.622 2.208-8.878 2.208-6.26 0-8.94-2.092-8.936-2.208 0.024-1.304 0.24-4.306 1.728-7.876l-2.352-0.836c0 0-2.332 3.854-2.482 9.376-2.112 0-3.914 0-5.564-0.662 0-8.592 5.054-15.678 12.032-18.244l-0.81 6.074 6.168-4.454 6.226 4.626-0.108-6.208c6.896 2.598 11.876 9.616 11.908 18.122l-0.026 0.090c-1.024 0.33-3.638 0.656-5.794 0.656z"></path>
</svg>
