<!-- Generated by IcoMoon.io -->
<svg version="1.1" xmlns="http://www.w3.org/2000/svg" width="32" height="32" viewBox="0 0 32 32">
<title>invite_academy</title>
<path d="M25 18.2v6h2v-6h-2zM22 18.2v6h2v-6h-2zM15 25.6h13v-1h-13v1zM19 18.2v6h2v-6h-2zM16 18.2v6h2v-6h-2zM28 17.2h-13v0.5h13v-0.5zM7.3 17.2c-0.4 0-1.3-0.2-1.3-1.6 0-1.6 0-6.1 0-6.1l-2.5-2.1v10.3c0 1.1 0.9 1.9 1.9 1.9h8.4l-1.2-2.5c0.1 0.1-4.1 0.1-5.3 0.1zM12.8 14.1c1.4 1.4 2.8 1.3 4.2-0.1s8-6.6 9-7.6c1-1 0-2.7-1-2.7h-19.8c-1.2 0-2 1.8-1 2.8s7 5.9 8.6 7.6zM23 6.2c0 0-5.9 4.7-6.7 5.5-0.9 0.9-1.8 0.9-2.6 0.1-1-1-6.6-5.6-6.6-5.6h15.9zM14.5 27.2h14v-1h-14v1zM24 12.5l2.5 1.7v-6.8l-2.5 2.2v2.9zM21.5 13.4l-7 3.2h14l-7-3.2z"></path>
</svg>
