<!-- Generated by IcoMoon.io -->
<svg version="1.1" xmlns="http://www.w3.org/2000/svg" width="64" height="64" viewBox="0 0 64 64">
<title>invite_group</title>
<path d="M52 12.6c2-2 0-5.4-2-5.4h-39.6c-2.4 0-4 3.6-2 5.6s14 11.8 17.4 15.2c2.8 2.8 5.6 2.6 8.4-0.2s15.8-13.2 17.8-15.2zM27.2 23.6c-2-2-13.2-11.2-13.2-11.2h32c0 0-11.8 9.4-13.4 11-1.8 1.6-3.6 1.8-5.4 0.2zM48 25.4l5 0.2v-10.8l-5 4.4v6.2zM14.6 34.4c-0.8 0-2.6-0.4-2.6-3.2 0-3.2 0-12.2 0-12.2l-5-4.2v20.6c0 2.2 1.8 3.8 3.8 3.8h16l-0.2-5c0.2 0.2-9.2 0.2-12 0.2zM50.4 28.4l-6.4 3.8v7.6l6.4 3.8 6.6-3.8v-7.6l-6.6-3.8zM54 38.2l-3.6 2.2-3.4-2.2v-4.4l3.4-2 3.6 2v4.4zM37 45.2v7.6l6.4 3.8 6.6-3.8v-7.6l-6.6-3.8-6.4 3.8zM47 51.2l-3.6 2.2-3.4-2.2v-4.4l3.4-2 3.6 2v4.4zM43 32.4l-6.6-3.8-6.4 3.6v7.6l6.4 3.8 6.6-3.8v-7.4zM40 38.2l-3.6 2.2-3.4-2.2v-4.4l3.4-2 3.6 2v4.4z"></path>
</svg>
