<!-- Generated by IcoMoon.io -->
<svg version="1.1" xmlns="http://www.w3.org/2000/svg" width="32" height="32" viewBox="0 0 32 32">
<title>invite_group</title>
<path d="M26 6.3c1-1 0-2.7-1-2.7h-19.8c-1.2 0-2 1.8-1 2.8s7 5.9 8.7 7.6c1.4 1.4 2.8 1.3 4.2-0.1s7.9-6.6 8.9-7.6zM13.6 11.8c-1-1-6.6-5.6-6.6-5.6h16c0 0-5.9 4.7-6.7 5.5-0.9 0.8-1.8 0.9-2.7 0.1zM24 12.7l2.5 0.1v-5.4l-2.5 2.2v3.1zM7.3 17.2c-0.4 0-1.3-0.2-1.3-1.6 0-1.6 0-6.1 0-6.1l-2.5-2.1v10.3c0 1.1 0.9 1.9 1.9 1.9h8l-0.1-2.5c0.1 0.1-4.6 0.1-6 0.1zM25.2 14.2l-3.2 1.9v3.8l3.2 1.9 3.3-1.9v-3.8l-3.3-1.9zM27 19.1l-1.8 1.1-1.7-1.1v-2.2l1.7-1 1.8 1v2.2zM18.5 22.6v3.8l3.2 1.9 3.3-1.9v-3.8l-3.3-1.9-3.2 1.9zM23.5 25.6l-1.8 1.1-1.7-1.1v-2.2l1.7-1 1.8 1v2.2zM21.5 16.2l-3.3-1.9-3.2 1.8v3.8l3.2 1.9 3.3-1.9v-3.7zM20 19.1l-1.8 1.1-1.7-1.1v-2.2l1.7-1 1.8 1v2.2z"></path>
</svg>
