<!-- Generated by IcoMoon.io -->
<svg version="1.1" xmlns="http://www.w3.org/2000/svg" width="64" height="64" viewBox="0 0 64 64">
<title>invite_academy</title>
<path d="M50 36.4v12h4v-12h-4zM44 36.4v12h4v-12h-4zM30 51.2h26v-2h-26v2zM38 36.4v12h4v-12h-4zM32 36.4v12h4v-12h-4zM56 34.4h-26v1h26v-1zM14.6 34.4c-0.8 0-2.6-0.4-2.6-3.2 0-3.2 0-12.2 0-12.2l-5-4.2v20.6c0 2.2 1.8 3.8 3.8 3.8h16.8l-2.4-5c0.2 0.2-8.2 0.2-10.6 0.2zM25.6 28.2c2.8 2.8 5.6 2.6 8.4-0.2s16-13.2 18-15.2c2-2 0-5.4-2-5.4h-39.6c-2.4 0-4 3.6-2 5.6s14 11.8 17.2 15.2zM46 12.4c0 0-11.8 9.4-13.4 11-1.8 1.8-3.6 1.8-5.2 0.2-2-2-13.2-11.2-13.2-11.2h31.8zM29 54.4h28v-2h-28v2zM48 25l5 3.4v-13.6l-5 4.4v5.8zM43 26.8l-14 6.4h28l-14-6.4z"></path>
</svg>
