<!-- Generated by IcoMoon.io -->
<svg version="1.1" xmlns="http://www.w3.org/2000/svg" width="64" height="64" viewBox="0 0 64 64">
<title>invite_user</title>
<path d="M19.6 42l-2.6-0.8c0 0-2.4 4-2.4 9.6-1.2 0-3.4 0-5.2 0 0-9.4 5.8-17.4 13.8-20.2 1.6 0.8 3.4 1.2 5.4 1.2s3.8-0.4 5.6-1.2c3.8 1.2 7 3.4 9.4 6.6 2.6-0.8 5.2-0.2 3.8-3-2.2-3-5.2-5.4-8.6-7 2-2.4 3.4-5.6 3.4-9 0-7.6-6-13.6-13.6-13.6s-13.6 6-13.6 13.6c0 3.6 1.4 6.6 3.4 9-8.2 4.2-13.8 13.2-13.8 23.4 0 1.2 0.2 4.2 2.2 4.2s8.4 0 8.4 0 4.6 2.4 9.6 3.4c0.2-1.6 0.4-2.2 0.8-4-4.2-1-8.2-3.4-8.2-3.4s-0.2-3 2.2-8.8zM28.6 9c5.2 0 9.2 4.2 9.2 9.2 0 5.2-4.2 9.2-9.2 9.2-5.2 0-9.2-4.2-9.2-9.2s4.2-9.2 9.2-9.2zM59.8 40c0 0-14.4 11.2-15.6 12.2-2 1.6-3.8 2-5.2-0.2-2-3-7.2-10.8-7.2-10.8s-0.4 0.4-0.6 1.2c-0.2 0.6-2.6 11.8-3 13-0.2 0.4-0.2 1 0 1.6 0 0 6.6-5.2 7.2-5.6s1.2 1 0.8 1.4c-6.2 5-7.6 6-6.8 6 0 0 17.4 2.8 22.4 3.6 1 0.2 1.6 0.2 2.4-0.2 0 0-7-8.8-7-8.8-0.6-0.6 0.6-2 1.2-1.4 0 0 7.2 8.8 7.2 8.8 0.6-0.8 0.8-1.4 1-2.2 0.4-2 3-15.6 3.4-16.8 0.2-1.4-0.2-1.8-0.2-1.8zM39.2 49.2c1.2 1.8 3.2 2 5.2 0.4 2.2-1.6 14.2-11.2 14.2-11.2l-25.6 1.6c0.2-0.2 5.6 8.2 6.2 9.2z"></path>
</svg>
