<!-- Generated by IcoMoon.io -->
<svg version="1.1" xmlns="http://www.w3.org/2000/svg" width="64" height="64" viewBox="0 0 64 64">
<title>item_pending_approval</title>
<path d="M45.4 45.6c0 0-0.8 2.6-1.6 3.6s-0.2 2.4 1.2 2.4c1.4 0 1.6-1.4 1.2-2.2s-0.8-3.8-0.8-3.8zM56.2 14.2c-1.4 0.4-30.8 10.6-36.2 12.4-5 1.6-5.8 4-6 7.4 0 3.4-0.4 19-0.4 22 0 0.4-0.4 0.6-0.4 0.6s0.6 0 1-0.2c2.8-1.6 22-13.2 22-13.2s-5-5.8-5-11.2c0-5.6 1-6.6 1-6.6h22.6c0 0 2.4-7.2 2.8-8.4 0.6-2.4 0.4-3.4-1.4-2.8zM48.8 44.8c-0.8-0.4-0.8-1.8 0-2.2s3.2-1.8 5-4 2.4-5.6 2.4-7 0-2.8 0-2.8h-21.6c0 0 0 1.2 0 2.8s0.6 5 2.4 7c1.8 2.2 4.2 3.6 5 4s0.8 1.8 0 2.2c-1 0.4-3.4 1.6-5.2 4.2s-2.2 5.2-2.2 6.6c0 1.4 0 3.6 0 3.6h21.6c0 0 0-2.2 0-3.6s-0.6-4-2.2-6.6c-1.8-2.6-4.2-3.6-5.2-4.2zM39.2 37.2c0 0-2.4-1.8-1.8-6.4h16.2c0 0 0.2 3.8-2 6.4h-12.4zM50.6 55.6c-1.2-0.8-3.8-2.6-5.4-2.6-1 0-3.6 1.6-5 2.6-1.2 0.8-2.8 1.2-2.8 1.2 0-3 0.4-4.4 1.6-6.4s3.6-3 4.8-3.6c1-0.6 1.6-2.2 1.6-2.2s0.2 1.6 1.4 2.2 3.6 1.6 4.8 3.6c1.2 2 1.6 3.2 1.6 6.4 0.2 0-1.6-0.4-2.6-1.2zM48.6 15c0.2-3 0.6-5.2 0.6-6 0.2-2.4-1-2.6-1.8-2.4s-8 2-9.8 2.2c-1.6 0.4-2.2 1.2-2.6 1.8s-0.4 0.6-1.4 2.2c-0.6 1-1.6 2.2-3.4 2.6-1.8 0.6-17.6 5.4-19 5.8s-5.6 1.8-5 7c0.6 5.4 4.2 26 4.4 27 0 0.6 0.4 1 0.8 1.2 0-3.4 0-23.8 0-24.2 0-3 2-4.8 4.8-6s32-11 32.4-11.2z"></path>
</svg>
