<!-- Generated by IcoMoon.io -->
<svg version="1.1" xmlns="http://www.w3.org/2000/svg" width="32" height="32" viewBox="0 0 32 32">
<title>item_pending_approval</title>
<path d="M22.7 22.8c0 0-0.4 1.3-0.8 1.8s-0.1 1.2 0.6 1.2c0.7 0 0.8-0.7 0.6-1.1s-0.4-1.9-0.4-1.9zM28.1 7.1c-0.7 0.2-15.4 5.3-18.1 6.2-2.5 0.8-2.9 2-3 3.7 0 1.7-0.2 9.5-0.2 11 0 0.2-0.2 0.3-0.2 0.3s0.3 0 0.5-0.1c1.4-0.8 11-6.6 11-6.6s-2.5-2.9-2.5-5.6c0-2.8 0.5-3.3 0.5-3.3h11.3c0 0 1.2-3.6 1.4-4.2 0.3-1.2 0.2-1.7-0.7-1.4zM24.4 22.4c-0.4-0.2-0.4-0.9 0-1.1s1.6-0.9 2.5-2 1.2-2.8 1.2-3.5 0-1.4 0-1.4h-10.8c0 0 0 0.6 0 1.4s0.3 2.5 1.2 3.5c0.9 1.1 2.1 1.8 2.5 2s0.4 0.9 0 1.1c-0.5 0.2-1.7 0.8-2.6 2.1s-1.1 2.6-1.1 3.3c0 0.7 0 1.8 0 1.8h10.8c0 0 0-1.1 0-1.8s-0.3-2-1.1-3.3c-0.9-1.3-2.1-1.8-2.6-2.1zM19.6 18.6c0 0-1.2-0.9-0.9-3.2h8.1c0 0 0.1 1.9-1 3.2h-6.2zM25.3 27.8c-0.6-0.4-1.9-1.3-2.7-1.3-0.5 0-1.8 0.8-2.5 1.3-0.6 0.4-1.4 0.6-1.4 0.6 0-1.5 0.2-2.2 0.8-3.2s1.8-1.5 2.4-1.8c0.5-0.3 0.8-1.1 0.8-1.1s0.1 0.8 0.7 1.1 1.8 0.8 2.4 1.8c0.6 1 0.8 1.6 0.8 3.2 0.1 0-0.8-0.2-1.3-0.6zM24.3 7.5c0.1-1.5 0.3-2.6 0.3-3 0.1-1.2-0.5-1.3-0.9-1.2s-4 1-4.9 1.1c-0.8 0.2-1.1 0.6-1.3 0.9s-0.2 0.3-0.7 1.1c-0.3 0.5-0.8 1.1-1.7 1.3-0.9 0.3-8.8 2.7-9.5 2.9s-2.8 0.9-2.5 3.5c0.3 2.7 2.1 13 2.2 13.5 0 0.3 0.2 0.5 0.4 0.6 0-1.7 0-11.9 0-12.1 0-1.5 1-2.4 2.4-3s16-5.5 16.2-5.6z"></path>
</svg>
