<!-- Generated by IcoMoon.io -->
<svg version="1.1" xmlns="http://www.w3.org/2000/svg" width="64" height="64" viewBox="0 0 64 64">
<title>knowledge_profile</title>
<path d="M36 47.2c0 1.6-0.4 4.8-0.4 4.8s1.8-2.4 1.8-4.8c-0.2-2.4-1.4-1.6-1.4 0zM47.8 34c0 0 2 2 2 8.2 0 0 0.4-7.4 2.2-8.6 1.6-1-0.8-5.2-0.8-5.2s-1.2 4-3.4 5.6zM40 45.4c0 1.6-0.4 4.8-0.4 4.8s1.8-2.4 1.8-4.8c-0.2-2.4-1.6-1.4-1.4 0zM35.6 42c0-2.4-1.4-1.6-1.2 0 0 1.6-0.4 4.8-0.4 4.8s1.6-2.4 1.6-4.8zM39.6 41c0-2.4-1.4-1.6-1.2 0 0 1.6-0.4 4.8-0.4 4.8s1.6-2.4 1.6-4.8zM15.6 11.2c0 0-3.6 3-3.6 10.2 0 7.8 4.6 17.2 20.4 17.2s19.4-9.8 19.4-17.2c0-7.2-3.6-10.2-3.6-10.2s-2.6 1.4-5 0.6c8-1.8 4.6-8.6 4.6-8.6s0.2 1.4-7.6 4c-7.8 2.4-8.2 14.4-8.2 14.4s-0.6-11.8-8.4-14.4c-8-2.6-7.6-4-7.6-4s-3.4 7 4.6 8.6c-2.4 0.8-5-0.6-5-0.6zM32.2 37.2l-2.8-3.8 2.6-3.2 2.6 3-2.4 4zM24 17.2c3.8 0 6.8 2.4 8 5.8 0 0 0 0.2 0 0.2 1-3.4 4.2-6 8-6 4.6 0 8.2 3.8 8.2 8.2 0 4.6-3.8 8.2-8.2 8.2-3.8 0-7-2.4-8-6 0 0 0 0.2 0 0.2-1 3.4-4.2 5.8-7.8 5.8-4.6 0-8.2-3.8-8.2-8.2-0.2-4.4 3.4-8.2 8-8.2zM32 16.6c0-3.2 2-8.6 9-10.6-10-4.6-18 0-18 0 5.2 1 9 7.4 9 10.6zM39.8 29.6c2.2 0 4.2-1.8 4.2-4.2 0-1.2-0.4-2.2-1.2-3-0.6 0.6-1.4 1.8-2.4 2.2-2.8 1-4.8 1-4.2 2.4 0.4 1.4 1.8 2.6 3.6 2.6zM40 26c0.6 0 1 0.4 1 1s-0.4 1-1 1-1-0.4-1-1c-0.2-0.6 0.4-1 1-1zM24.4 29.6c1.8 0 3.2-1 3.8-2.6 0.6-1.4-1.4-1.4-4.2-2.4-1-0.4-1.8-1.4-2.4-2.2-0.8 0.8-1.2 1.8-1.2 3 0 2.2 1.8 4.2 4 4.2zM24.4 26c0.6 0 1 0.4 1 1s-0.4 1-1 1-1-0.4-1-1c-0.2-0.6 0.4-1 1-1zM32.2 56.6c-1.8 0-9.4-1.8-11.4-2.6 1 1.4 4 2.4 3.6 2.6-0.6 0-1.6 0.2-2 1.2-0.6 1.6-1.2 2.4 0 2.8s2-0.6 2.6-1.4c0.6-0.8 1.4-1 2.4-0.8 1.4 0.4 1.6 1.8 2.2 2 0.4 0.2 2 0.8 2-0.4 0.2-1-0.2-1.8-0.8-2.4 0.8 0 1.6 0 2.4 0-0.4 0.8-0.8 1.4-0.8 2.4 0.2 1 1.6 0.6 2 0.4s0.6-1.6 2.2-2c1-0.2 1.8 0 2.4 0.8s1.6 1.8 2.6 1.4c1-0.4 0.4-1.2 0-2.8-0.2-0.6-0.6-0.8-1-1 0.2 0 2-1.2 3.2-2.6-3.4 1.6-9.6 2.4-11.6 2.4zM32.2 49c0 1.4 0.6 4.2 0.6 4.2s1-3 1-4.2c0-1.4-1.6-1.4-1.6 0zM22 40.4c0-1.6-1.2-2.4-1.2 0s1.8 4.8 1.8 4.8-0.6-3.2-0.6-4.8zM42.8 40.4c0 1.6-0.4 4.8-0.4 4.8s1.8-2.4 1.8-4.8c-0.2-2.4-1.4-1.6-1.4 0zM50.6 38.4c-0.8 5.8-1.2 8.6-5 14 0 0 9-3.2 9.6-11.4 0.8-8.4-3.8-8.6-4.6-2.6zM8.8 40.8c0.8 8.2 9.6 11.4 9.6 11.4-3.8-5.4-4.2-8.2-5-14s-5.4-5.6-4.6 2.6zM14.2 42c0-6 1.8-8 1.8-8-2.2-1.6-3.4-5.6-3.4-5.6s-2.4 4-0.8 5.2c2 1 2.4 8.4 2.4 8.4zM27.6 47.2c0 2.4 1.8 4.8 1.8 4.8s-0.4-3.2-0.4-4.8c-0.2-1.6-1.4-2.4-1.4 0zM29.2 42c0 2.4 1.8 4.8 1.8 4.8s-0.4-3.2-0.4-4.8c0-1.4-1.4-2.4-1.4 0zM25.2 41c0 2.4 1.8 4.8 1.8 4.8s-0.4-3.2-0.4-4.8c0-1.6-1.4-2.4-1.4 0zM23.6 45.4c0 2.4 1.8 4.8 1.8 4.8s-0.4-3.2-0.4-4.8c0-1.4-1.4-2.4-1.4 0z"></path>
</svg>
