<!-- Generated by IcoMoon.io -->
<svg version="1.1" xmlns="http://www.w3.org/2000/svg" width="32" height="32" viewBox="0 0 32 32">
<title>knowledge_profile</title>
<path d="M18 23.6c0 0.8-0.2 2.4-0.2 2.4s0.9-1.2 0.9-2.4c-0.1-1.2-0.7-0.8-0.7 0zM23.9 17c0 0 1 1 1 4.1 0 0 0.2-3.7 1.1-4.3 0.8-0.5-0.4-2.6-0.4-2.6s-0.6 2-1.7 2.8zM20 22.7c0 0.8-0.2 2.4-0.2 2.4s0.9-1.2 0.9-2.4c-0.1-1.2-0.8-0.7-0.7 0zM17.8 21c0-1.2-0.7-0.8-0.6 0 0 0.8-0.2 2.4-0.2 2.4s0.8-1.2 0.8-2.4zM19.8 20.5c0-1.2-0.7-0.8-0.6 0 0 0.8-0.2 2.4-0.2 2.4s0.8-1.2 0.8-2.4zM7.8 5.6c0 0-1.8 1.5-1.8 5.1 0 3.9 2.3 8.6 10.2 8.6s9.7-4.9 9.7-8.6c0-3.6-1.8-5.1-1.8-5.1s-1.3 0.7-2.5 0.3c4-0.9 2.3-4.3 2.3-4.3s0.1 0.7-3.8 2c-3.9 1.2-4.1 7.2-4.1 7.2s-0.3-5.9-4.2-7.2c-4-1.3-3.8-2-3.8-2s-1.7 3.5 2.3 4.3c-1.2 0.4-2.5-0.3-2.5-0.3zM16.1 18.6l-1.4-1.9 1.3-1.6 1.3 1.5-1.2 2zM12 8.6c1.9 0 3.4 1.2 4 2.9 0 0 0 0.1 0 0.1 0.5-1.7 2.1-3 4-3 2.3 0 4.1 1.9 4.1 4.1 0 2.3-1.9 4.1-4.1 4.1-1.9 0-3.5-1.2-4-3 0 0 0 0.1 0 0.1-0.5 1.7-2.1 2.9-3.9 2.9-2.3 0-4.1-1.9-4.1-4.1-0.1-2.2 1.7-4.1 4-4.1zM16 8.3c0-1.6 1-4.3 4.5-5.3-5-2.3-9 0-9 0 2.6 0.5 4.5 3.7 4.5 5.3zM19.9 14.8c1.1 0 2.1-0.9 2.1-2.1 0-0.6-0.2-1.1-0.6-1.5-0.3 0.3-0.7 0.9-1.2 1.1-1.4 0.5-2.4 0.5-2.1 1.2 0.2 0.7 0.9 1.3 1.8 1.3zM20 13c0.3 0 0.5 0.2 0.5 0.5s-0.2 0.5-0.5 0.5-0.5-0.2-0.5-0.5c-0.1-0.3 0.2-0.5 0.5-0.5zM12.2 14.8c0.9 0 1.6-0.5 1.9-1.3 0.3-0.7-0.7-0.7-2.1-1.2-0.5-0.2-0.9-0.7-1.2-1.1-0.4 0.4-0.6 0.9-0.6 1.5 0 1.1 0.9 2.1 2 2.1zM12.2 13c0.3 0 0.5 0.2 0.5 0.5s-0.2 0.5-0.5 0.5-0.5-0.2-0.5-0.5c-0.1-0.3 0.2-0.5 0.5-0.5zM16.1 28.3c-0.9 0-4.7-0.9-5.7-1.3 0.5 0.7 2 1.2 1.8 1.3-0.3 0-0.8 0.1-1 0.6-0.3 0.8-0.6 1.2 0 1.4s1-0.3 1.3-0.7c0.3-0.4 0.7-0.5 1.2-0.4 0.7 0.2 0.8 0.9 1.1 1 0.2 0.1 1 0.4 1-0.2 0.1-0.5-0.1-0.9-0.4-1.2 0.4 0 0.8 0 1.2 0-0.2 0.4-0.4 0.7-0.4 1.2 0.1 0.5 0.8 0.3 1 0.2s0.3-0.8 1.1-1c0.5-0.1 0.9 0 1.2 0.4s0.8 0.9 1.3 0.7c0.5-0.2 0.2-0.6 0-1.4-0.1-0.3-0.3-0.4-0.5-0.5 0.1 0 1-0.6 1.6-1.3-1.7 0.8-4.8 1.2-5.8 1.2zM16.1 24.5c0 0.7 0.3 2.1 0.3 2.1s0.5-1.5 0.5-2.1c0-0.7-0.8-0.7-0.8 0zM11 20.2c0-0.8-0.6-1.2-0.6 0s0.9 2.4 0.9 2.4-0.3-1.6-0.3-2.4zM21.4 20.2c0 0.8-0.2 2.4-0.2 2.4s0.9-1.2 0.9-2.4c-0.1-1.2-0.7-0.8-0.7 0zM25.3 19.2c-0.4 2.9-0.6 4.3-2.5 7 0 0 4.5-1.6 4.8-5.7 0.4-4.2-1.9-4.3-2.3-1.3zM4.4 20.4c0.4 4.1 4.8 5.7 4.8 5.7-1.9-2.7-2.1-4.1-2.5-7s-2.7-2.8-2.3 1.3zM7.1 21c0-3 0.9-4 0.9-4-1.1-0.8-1.7-2.8-1.7-2.8s-1.2 2-0.4 2.6c1 0.5 1.2 4.2 1.2 4.2zM13.8 23.6c0 1.2 0.9 2.4 0.9 2.4s-0.2-1.6-0.2-2.4c-0.1-0.8-0.7-1.2-0.7 0zM14.6 21c0 1.2 0.9 2.4 0.9 2.4s-0.2-1.6-0.2-2.4c0-0.7-0.7-1.2-0.7 0zM12.6 20.5c0 1.2 0.9 2.4 0.9 2.4s-0.2-1.6-0.2-2.4c0-0.8-0.7-1.2-0.7 0zM11.8 22.7c0 1.2 0.9 2.4 0.9 2.4s-0.2-1.6-0.2-2.4c0-0.7-0.7-1.2-0.7 0z"></path>
</svg>
