<!-- Generated by IcoMoon.io -->
<svg version="1.1" xmlns="http://www.w3.org/2000/svg" width="64" height="64" viewBox="0 0 64 64">
<title>latest_content</title>
<path d="M49 15.2c0.4-3 0.6-5.4 0.6-6.2 0.2-2.6-1.2-2.6-1.8-2.6-0.8 0.2-8.2 2-10 2.4s-2.2 1.2-2.8 1.8c-0.4 0.6-0.4 0.6-1.4 2.2-0.6 1-1.6 2.2-3.6 2.8-1.8 0.6-18 5.4-19.6 6-1.4 0.4-5.8 1.8-5 7s4.6 26.4 4.6 27.4c0 0.6 0.4 1.2 0.8 1.4 0-3.6 0-24.4 0-24.8 0-3 2.2-5 5-6 3-1.2 32.8-11.4 33.2-11.4z"></path>
<path d="M45 31c3 0 5.6 0.8 8 2 0.4-1 4.4-13.4 5-16 0.6-2.4 0.6-3.6-1.4-2.8-1.4 0.4-31.4 11-37 12.8-5 1.6-6 4.2-6.2 7.6 0.2 3.4-0.2 19.2-0.2 22.4 0 0.4-0.4 0.6-0.4 0.6s0.6 0 1-0.2c1.6-1 5.8-3.4 10.8-6.4-1.2-0.8-3.2-3-3.2-5.2 0.4-7.6 12.6-14.8 23.6-14.8z"></path>
<path d="M44 36c-12.6 0-18 9.8-18 9.8s4.6 9.8 18.2 9.8c13.4 0 17.2-9.8 17.2-9.8s-4.8-9.8-17.4-9.8zM43.8 52.4c-3.6 0-6.6-3-6.6-6.6 0-0.6 0.2-1.4 0.4-2l-1.6-0.6c-0.2 0.8-0.4 1.8-0.4 2.6 0 3.2 2 6 4.6 7.4-8-1.6-10.8-7.6-10.8-7.6s3.6-6.4 11.6-7.6c-0.2 0-0.6 0.2-0.8 0.4 0 0 0.2 0 0.2 0l0.6 1.4c0.8-0.4 1.8-0.6 2.6-0.6 3.6 0 6.6 3 6.6 6.6 0.2 3.8-2.8 6.6-6.4 6.6zM47.2 53.4c2.8-1.2 5-4.2 5-7.6 0-3.6-2.4-6.8-5.6-7.8 8.4 1.2 11.6 7.8 11.6 7.8s-2.6 6.4-11 7.6zM43.8 41c-0.8 0-1.4 0.2-2 0.4l2.4 5.2-5.2-2c-0.2 0.4-0.2 0.8-0.2 1.4 0 2.8 2.2 5 5 5s5-2.2 5-5c0-2.8-2.2-5-5-5z"></path>
</svg>
