<!-- Generated by IcoMoon.io -->
<svg version="1.1" xmlns="http://www.w3.org/2000/svg" width="64" height="64" viewBox="0 0 64 64">
<title>learner</title>
<path d="M39 34.4c3-2 5-5.4 5.2-9.2 0 0 0 0 0 0l0.2-7.8-2.4-3.6 4.4 2.8 7.8-1.6-21.8-13-22.6 13 8.2 1.8 4.6-2.6-2.8 3.4v6.6c0 0 0 0 0.2-0.2 0 0.2 0 0.2 0 0.4 0 4.2 2.2 8 5.4 10.2-8.4 3-14.4 11.4-14.4 21.6 0 0.2 0 1.2 0 1.4s4 3.2 9.8 2.2c0 0.2 3.2 2.2 11.6 2.2s11.2-2.2 11.2-2.2c6.2 1.8 10.2-2 10.2-2s0-1.4 0-1.8c0-10-6.2-18.6-14.8-21.6zM24 24.4c0-1.2 0.2-2.4 0.8-3.4 2-0.8 4.4-1.4 7.4-1.4 3.2 0 5.8 1 7.8 2 0.4 0.8 0.6 1.8 0.6 2.8 0 4.6-3.6 8.2-8.2 8.2-4.8 0-8.4-3.6-8.4-8.2zM44 56.8c-0.2-5.2-2.4-9-2.4-9l-2.2 0.8c1.4 3.4 1.6 6.2 1.6 7.6-0.2 0.2-2.6 2.2-8.6 2.2-6.2 0-8.8-2-8.8-2.2 0-1.2 0.2-4.2 1.6-7.6l-2.2-0.8c0 0-2.2 3.6-2.4 9-2 0-3.8 0-5.4-0.6 0-10.4 7.8-18.4 17.2-18.4 9.6 0 17.2 8.2 17.2 18.4-1 0.4-3.6 0.6-5.6 0.6zM49.4 34.6c0 0-0.6-0.8-1-2.8s0.8-0.4 0.8-3-1-3.2-1-3.2v-8.4h-0.4v8.4c0 0-1.2 1.4-1.2 3s1 2 1 3c0 1.2-1.2 2.8-1.2 2.8h3z"></path>
</svg>
