<!-- Generated by IcoMoon.io -->
<svg version="1.1" xmlns="http://www.w3.org/2000/svg" width="32" height="32" viewBox="0 0 32 32">
<title>learner</title>
<path d="M19.5 17.2c1.5-1 2.5-2.7 2.6-4.6 0 0 0 0 0 0l0.1-3.9-1.2-1.8 2.2 1.4 3.9-0.8-10.9-6.5-11.3 6.5 4.1 0.9 2.3-1.3-1.4 1.7v3.3c0 0 0 0 0.1-0.1 0 0.1 0 0.1 0 0.2 0 2.1 1.1 4 2.7 5.1-4.2 1.5-7.2 5.7-7.2 10.8 0 0.1 0 0.6 0 0.7s2 1.6 4.9 1.1c0 0.1 1.6 1.1 5.8 1.1s5.6-1.1 5.6-1.1c3.1 0.9 5.1-1 5.1-1s0-0.7 0-0.9c0-5-3.1-9.3-7.4-10.8zM12 12.2c0-0.6 0.1-1.2 0.4-1.7 1-0.4 2.2-0.7 3.7-0.7 1.6 0 2.9 0.5 3.9 1 0.2 0.4 0.3 0.9 0.3 1.4 0 2.3-1.8 4.1-4.1 4.1-2.4 0-4.2-1.8-4.2-4.1zM22 28.4c-0.1-2.6-1.2-4.5-1.2-4.5l-1.1 0.4c0.7 1.7 0.8 3.1 0.8 3.8-0.1 0.1-1.3 1.1-4.3 1.1-3.1 0-4.4-1-4.4-1.1 0-0.6 0.1-2.1 0.8-3.8l-1.1-0.4c0 0-1.1 1.8-1.2 4.5-1 0-1.9 0-2.7-0.3 0-5.2 3.9-9.2 8.6-9.2 4.8 0 8.6 4.1 8.6 9.2-0.5 0.2-1.8 0.3-2.8 0.3zM24.7 17.3c0 0-0.3-0.4-0.5-1.4s0.4-0.2 0.4-1.5-0.5-1.6-0.5-1.6v-4.2h-0.2v4.2c0 0-0.6 0.7-0.6 1.5s0.5 1 0.5 1.5c0 0.6-0.6 1.4-0.6 1.4h1.5z"></path>
</svg>
