<!-- Generated by IcoMoon.io -->
<svg version="1.1" xmlns="http://www.w3.org/2000/svg" width="64" height="64" viewBox="0 0 64 64">
<title>lecture</title>
<path d="M23 14.4c-1 0-2.2 0-2.8 0.4l-14.8 6.8c-2 1-3 3.4-2 5.4l16.4 31.2c1 2 3.4 3 5.4 2l12-5h-8.8c0 0-3.2 1.4-3.4 1.6-0.6 0.2-2 0.2-2.6-1s-14.6-27.6-15-28.8c-0.6-1.2-0.2-2.2 1-2.8s14.6-6.8 14.8-6.8v-0.2c-0.2-0.6-0.2-2.2-0.2-2.8zM41 19.2v4h-10v-4h10zM41 11.2v4h-10v-4h10zM31 47.2v-4h22v4h-22zM31 31.2v-4h22v4h-22zM31 39.2v-4h22v4h-22zM19 43.6l4-2v-4l-5.6 2.6 1.6 3.4zM14.4 33.6l1.6 3.4 7-3.2v-4l-8.6 3.8zM58.8 18c-1.8-1.8-9.4-11-10.8-12.4s-3.4-2.2-4.8-2.2h-15.8c-2.6 0-4.6 2-4.6 4.6v9.4c0 0.2 0 0.2 0 0.2s0 0 0 0v33.4c0 2.6 2 4.6 4.6 4.6h29c2.6 0 4.6-2 4.6-4.6v-28c0-1.6 0-3-2.2-5zM57 49.2c0 1-1 2-2.4 2s-24.8 0-25.6 0c-0.8 0-2-0.6-2-2.2s0-38 0-39.6c0-1.4 0.8-2.2 2.2-2.2s15.8 0 15.8 0 0 9.2 0 11.6c0 2.2 2.2 4.6 5 4.6s6.8 0 6.8 0 0.2 24.8 0.2 25.8zM11.4 27l1.6 3.4 10-4.6-1.6-3.4-10 4.6z"></path>
</svg>
