<!-- Generated by IcoMoon.io -->
<svg version="1.1" xmlns="http://www.w3.org/2000/svg" width="32" height="32" viewBox="0 0 32 32">
<title>lecture</title>
<path d="M11.5 7.2c-0.5 0-1.1 0-1.4 0.2l-7.4 3.4c-1 0.5-1.5 1.7-1 2.7l8.2 15.6c0.5 1 1.7 1.5 2.7 1l6-2.5h-4.4c0 0-1.6 0.7-1.7 0.8-0.3 0.1-1 0.1-1.3-0.5s-7.3-13.8-7.5-14.4c-0.3-0.6-0.1-1.1 0.5-1.4s7.3-3.4 7.4-3.4v-0.1c-0.1-0.3-0.1-1.1-0.1-1.4zM20.5 9.6v2h-5v-2h5zM20.5 5.6v2h-5v-2h5zM15.5 23.6v-2h11v2h-11zM15.5 15.6v-2h11v2h-11zM15.5 19.6v-2h11v2h-11zM9.5 21.8l2-1v-2l-2.8 1.3 0.8 1.7zM7.2 16.8l0.8 1.7 3.5-1.6v-2l-4.3 1.9zM29.4 9c-0.9-0.9-4.7-5.5-5.4-6.2s-1.7-1.1-2.4-1.1h-7.9c-1.3 0-2.3 1-2.3 2.3v4.7c0 0.1 0 0.1 0 0.1s0 0 0 0v16.7c0 1.3 1 2.3 2.3 2.3h14.5c1.3 0 2.3-1 2.3-2.3v-14c0-0.8 0-1.5-1.1-2.5zM28.5 24.6c0 0.5-0.5 1-1.2 1s-12.4 0-12.8 0c-0.4 0-1-0.3-1-1.1s0-19 0-19.8c0-0.7 0.4-1.1 1.1-1.1s7.9 0 7.9 0 0 4.6 0 5.8c0 1.1 1.1 2.3 2.5 2.3s3.4 0 3.4 0 0.1 12.4 0.1 12.9zM5.7 13.5l0.8 1.7 5-2.3-0.8-1.7-5 2.3z"></path>
</svg>
