<!-- Generated by IcoMoon.io -->
<svg version="1.1" xmlns="http://www.w3.org/2000/svg" width="64" height="64" viewBox="0 0 64 64">
<title>light_bulb2</title>
<path d="M44.6 10.6c-3.4-3.2-8-5-12.6-5v0c0 0 0 0 0 0s0 0 0 0v0c-4.6 0-9.2 1.8-12.6 5s-5.4 7.2-5.4 11.2c0 7.4 4.2 12 7 15 0.6 0.6 1.2 1.2 1.6 1.8 1.6 2 2 4.6 1.6 5.8-0.2 0.4-0.4 1.4 0.2 2.2s1.4 0.8 2.2 0.8c0.2 0 10.6 0 11 0 0.8 0 1.6 0 2.2-0.8s0.4-1.8 0.2-2.2c-0.4-1.2 0-4 1.6-5.8 0.4-0.6 1-1.2 1.6-1.8 2.8-3 7-7.6 7-15 0-4-2-8-5.6-11.2zM31 43.6c-0.2-4-1-12.6-3-17.4 2 0.2 3.8-2 3.8-2s1.4 1.8 3.8 2.2c-2.2 5.8-2.8 13.6-3 17.2-0.4 0-1 0-1.6 0zM40.4 34.4c-0.6 0.6-1.2 1.2-1.6 1.8-1.8 2.2-2.4 5.4-2 7.2 0 0-1 0-2.4 0 0.2-3.8 1.2-11.8 3.4-18 0.6-2.8 0.2-3.2-0.4-3.2s-1.2 1.2-2 1.2c-0.8 0-2.2-1.2-2.8-2-0.6-1-0.8-1-1.4 0s-2 2-2.8 2c-0.8 0-1.4-1.2-2-1.2s-1.2 0.4-0.4 3.2c2.2 6.2 3 14.2 3.4 18-1.2 0-2.2 0-2.2 0 0.4-2-0.2-5-2-7.2-0.4-0.6-1-1.2-1.6-1.8-2.4-2.6-5.8-6.4-5.8-12.2-0.2-3 1.4-6.2 4.2-8.6 2.8-2.6 6.4-4 10-4s7.2 1.4 10 4c2.8 2.4 4.2 5.6 4.2 8.6 0.2 5.8-3.2 9.6-5.8 12.2zM38 52.2h-1.2c0.8-0.6 1.6-1.2 2-1.4s0.8-0.8 0.6-1.4c-0.2-0.6-0.6-1-1.2-1h-12.2c-0.6 0-1.2 0.6-1.2 1.2s0.6 1.2 1.2 1.2h8.2c-0.4 0.4-0.8 0.8-1 1.2h-7.2c-0.6 0-1.2 0.6-1.2 1.2s0.6 1.2 1.2 1.2h6.8c-0.4 0.4-0.6 0.8-1 1.2h-4.8c-0.6 0-1.2 0.6-1.2 1.2s0.6 1.2 1.2 1.2h9.8c0.6 0 1.2-0.6 1.2-1.2s-0.6-1.2-1.2-1.2h-1.4c0.4-0.4 1-0.6 1.2-0.8 0.2 0 0.8-0.2 1.4-0.2s1.2-0.6 1.2-1.2c0-0.6-0.6-1.2-1.2-1.2z"></path>
</svg>
