<!-- Generated by IcoMoon.io -->
<svg version="1.1" xmlns="http://www.w3.org/2000/svg" width="32" height="32" viewBox="0 0 32 32">
<title>light_bulb2</title>
<path d="M22.3 5.3c-1.7-1.6-4-2.5-6.3-2.5v0c0 0 0 0 0 0s0 0 0 0v0c-2.3 0-4.6 0.9-6.3 2.5s-2.7 3.6-2.7 5.6c0 3.7 2.1 6 3.5 7.5 0.3 0.3 0.6 0.6 0.8 0.9 0.8 1 1 2.3 0.8 2.9-0.1 0.2-0.2 0.7 0.1 1.1s0.7 0.4 1.1 0.4c0.1 0 5.3 0 5.5 0 0.4 0 0.8 0 1.1-0.4s0.2-0.9 0.1-1.1c-0.2-0.6 0-2 0.8-2.9 0.2-0.3 0.5-0.6 0.8-0.9 1.4-1.5 3.5-3.8 3.5-7.5 0-2-1-4-2.8-5.6zM15.5 21.8c-0.1-2-0.5-6.3-1.5-8.7 1 0.1 1.9-1 1.9-1s0.7 0.9 1.9 1.1c-1.1 2.9-1.4 6.8-1.5 8.6-0.2 0-0.5 0-0.8 0zM20.2 17.2c-0.3 0.3-0.6 0.6-0.8 0.9-0.9 1.1-1.2 2.7-1 3.6 0 0-0.5 0-1.2 0 0.1-1.9 0.6-5.9 1.7-9 0.3-1.4 0.1-1.6-0.2-1.6s-0.6 0.6-1 0.6c-0.4 0-1.1-0.6-1.4-1-0.3-0.5-0.4-0.5-0.7 0s-1 1-1.4 1c-0.4 0-0.7-0.6-1-0.6s-0.6 0.2-0.2 1.6c1.1 3.1 1.5 7.1 1.7 9-0.6 0-1.1 0-1.1 0 0.2-1-0.1-2.5-1-3.6-0.2-0.3-0.5-0.6-0.8-0.9-1.2-1.3-2.9-3.2-2.9-6.1-0.1-1.5 0.7-3.1 2.1-4.3 1.4-1.3 3.2-2 5-2s3.6 0.7 5 2c1.4 1.2 2.1 2.8 2.1 4.3 0.1 2.9-1.6 4.8-2.9 6.1zM19 26.1h-0.6c0.4-0.3 0.8-0.6 1-0.7s0.4-0.4 0.3-0.7c-0.1-0.3-0.3-0.5-0.6-0.5h-6.1c-0.3 0-0.6 0.3-0.6 0.6s0.3 0.6 0.6 0.6h4.1c-0.2 0.2-0.4 0.4-0.5 0.6h-3.6c-0.3 0-0.6 0.3-0.6 0.6s0.3 0.6 0.6 0.6h3.4c-0.2 0.2-0.3 0.4-0.5 0.6h-2.4c-0.3 0-0.6 0.3-0.6 0.6s0.3 0.6 0.6 0.6h4.9c0.3 0 0.6-0.3 0.6-0.6s-0.3-0.6-0.6-0.6h-0.7c0.2-0.2 0.5-0.3 0.6-0.4 0.1 0 0.4-0.1 0.7-0.1s0.6-0.3 0.6-0.6c0-0.3-0.3-0.6-0.6-0.6z"></path>
</svg>
