<!-- Generated by IcoMoon.io -->
<svg version="1.1" xmlns="http://www.w3.org/2000/svg" width="32" height="32" viewBox="0 0 32 32">
<title>linkedin</title>
<path d="M5.3 12.3h4.6v14.7h-4.6v-14.7z"></path>
<path d="M10.3 7.7c0 1.491-1.209 2.7-2.7 2.7s-2.7-1.209-2.7-2.7c0-1.491 1.209-2.7 2.7-2.7s2.7 1.209 2.7 2.7z"></path>
<path d="M21.5 11.9c-2.2 0-3.7 1.2-4.3 2.4h-0.1v-2h-4.4v14.7h4.6v-7.3c0-1.9 0.4-3.8 2.7-3.8s2.4 2.2 2.4 3.9v7.2h4.6v-8.1c0-3.9-0.8-7-5.5-7z"></path>
<path d="M12.8 12.3v0 0z"></path>
</svg>
