<!-- Generated by IcoMoon.io -->
<svg version="1.1" xmlns="http://www.w3.org/2000/svg" width="64" height="64" viewBox="0 0 64 64">
<title>links</title>
<path d="M18.8 39.8c1 1.8 3.4 2.6 5.4 1.4l19.6-11.4c1.8-1 2.6-3.4 1.4-5.4-1-1.8-3.4-2.6-5.4-1.4l-19.6 11.4c-1.8 1.2-2.4 3.6-1.4 5.4zM16.2 26v0c0.4-0.2 0.4-0.4 0 0zM17.6 47c0 0-4.2 3-7.2-2.4-3.2-5.2 1.6-7.6 1.6-7.6l15.6-9c0 0-5.4-5.4-11.4-2.2-1.4 0.8-8 4.6-8 4.6s-12.4 4.8-4.6 18 18 5 18 5 6.4-3.6 8-4.6c5.8-3.4 3.8-11 3.8-11l-15.8 9.2zM60.4 15.8c-7.6-13.2-18-5-18-5s-6.6 3.8-8 4.6c-5.8 3.4-3.8 10.8-3.8 10.8l15.6-9c0 0 4.4-2.8 7.4 2.4s-1.6 7.4-1.6 7.4l-15.4 9.2c0 0 5.6 5.6 11.4 2.2 1.6-1 8-4.6 8-4.6s12.2-4.8 4.4-18zM34.6 15.4v0c-0.6 0.2-0.4 0.2 0 0z"></path>
</svg>
