<!-- Generated by IcoMoon.io -->
<svg version="1.1" xmlns="http://www.w3.org/2000/svg" width="32" height="32" viewBox="0 0 32 32">
<title>links</title>
<path d="M9.4 19.9c0.5 0.9 1.7 1.3 2.7 0.7l9.8-5.7c0.9-0.5 1.3-1.7 0.7-2.7-0.5-0.9-1.7-1.3-2.7-0.7l-9.8 5.7c-0.9 0.6-1.2 1.8-0.7 2.7zM8.1 13v0c0.2-0.1 0.2-0.2 0 0zM8.8 23.5c0 0-2.1 1.5-3.6-1.2-1.6-2.6 0.8-3.8 0.8-3.8l7.8-4.5c0 0-2.7-2.7-5.7-1.1-0.7 0.4-4 2.3-4 2.3s-6.2 2.4-2.3 9 9 2.5 9 2.5 3.2-1.8 4-2.3c2.9-1.7 1.9-5.5 1.9-5.5l-7.9 4.6zM30.2 7.9c-3.8-6.6-9-2.5-9-2.5s-3.3 1.9-4 2.3c-2.9 1.7-1.9 5.4-1.9 5.4l7.8-4.5c0 0 2.2-1.4 3.7 1.2s-0.8 3.7-0.8 3.7l-7.7 4.6c0 0 2.8 2.8 5.7 1.1 0.8-0.5 4-2.3 4-2.3s6.1-2.4 2.2-9zM17.3 7.7v0c-0.3 0.1-0.2 0.1 0 0z"></path>
</svg>
