<!-- Generated by IcoMoon.io -->
<svg version="1.1" xmlns="http://www.w3.org/2000/svg" width="64" height="64" viewBox="0 0 64 64">
<title>linkedin</title>
<path d="M10.6 24.6h9.2v29.4h-9.2v-29.4z"></path>
<path d="M20.6 15.4c0 2.982-2.418 5.4-5.4 5.4s-5.4-2.418-5.4-5.4c0-2.982 2.418-5.4 5.4-5.4s5.4 2.418 5.4 5.4z"></path>
<path d="M43 23.8c-4.4 0-7.4 2.4-8.6 4.8h-0.2v-4h-8.8v29.4h9.2v-14.6c0-3.8 0.8-7.6 5.4-7.6s4.8 4.4 4.8 7.8v14.4h9.2v-16.2c0-7.8-1.6-14-11-14z"></path>
<path d="M25.6 24.6v0 0z"></path>
</svg>
