<!-- Generated by IcoMoon.io -->
<svg version="1.1" xmlns="http://www.w3.org/2000/svg" width="64" height="64" viewBox="0 0 64 64">
<title>list_sort_asc</title>
<path d="M59.2 15.6l-9-9.2c-0.6-0.6-1.4-1-2.2-1s-1.8 0.4-2.4 1l-9.6 9.4c0 0-2.4 2-0.4 4.2s4.4-0.2 4.4-0.2 3-2.8 5-4.8v24.4c0 1.6 1.4 3 3 3s3-1.4 3-3v-24.4c1.8 1.8 4.8 4.8 4.8 4.8s2.6 2.6 4.4 0.4c1.6-2-1-4.6-1-4.6z"></path>
<path d="M19 23h14v4h-14v-4z"></path>
<path d="M19 9.2h10v4h-10v-4z"></path>
<path d="M7 49h8v8h-8v-8z"></path>
<path d="M19 37h20v4h-20v-4z"></path>
<path d="M7 7h8v8h-8v-8z"></path>
<path d="M7 35h8v8h-8v-8z"></path>
<path d="M19 51h38v4h-38v-4z"></path>
<path d="M7 21h8v8h-8v-8z"></path>
</svg>
