<!-- Generated by IcoMoon.io -->
<svg version="1.1" xmlns="http://www.w3.org/2000/svg" width="32" height="32" viewBox="0 0 32 32">
<title>live_session</title>
<path d="M13.606 25.486l-2.873 2.017h10.628l-2.872-2.017h-4.883zM29.935 4.497h-27.869c-0.317 0-0.575 0.257-0.575 0.576v18.837c0 0.318 0.258 0.575 0.575 0.575h27.868c0.317 0 0.574-0.257 0.574-0.575v-18.837c0.001-0.319-0.256-0.576-0.573-0.576zM21.567 21.483h-1.483c-0.090-1.663-0.794-2.814-0.794-2.814l-0.762 0.263c0.482 1.136 0.553 2.089 0.56 2.504-0.008 0.005-0.032 0.022-0.069 0.048h-5.661c-0.033-0.025-0.053-0.043-0.053-0.048 0.007-0.415 0.077-1.368 0.56-2.504l-0.762-0.263c0 0-0.705 1.151-0.794 2.814h-1.428c-0.039-0.014-0.073-0.021-0.114-0.037 0-2.548 1.495-4.673 3.587-5.486l-0.22 1.611 2.001-1.415 2.022 1.47-0.030-1.666c2.091 0.814 3.585 2.939 3.585 5.486-0.039 0.013-0.096 0.025-0.145 0.037zM14.045 12.301c-0.28-0.412-0.443-0.909-0.443-1.444 0-1.423 1.152-2.575 2.575-2.575 1.422 0 2.574 1.152 2.574 2.575 0 0.681-0.266 1.301-0.697 1.762-0.47 0.5-1.301 0.894-2.041 0.894-0.887-0.001-1.505-0.529-1.968-1.212zM27.073 23.389c-0.213 0-0.385-0.173-0.385-0.385s0.172-0.387 0.385-0.387 0.386 0.174 0.386 0.387c0 0.212-0.173 0.385-0.386 0.385zM28.519 20.954c0 0.292-0.236 0.529-0.529 0.529h-4.63v-0.048c0-0.145-0.024-0.281-0.032-0.424l2.895-10.047-1.188-0.14-2.223 7.721c-0.791-2.063-2.385-3.665-4.383-4.362 0.554-0.374 1.005-0.885 1.315-1.481 0.222-0.008 0.446-0.077 0.6-0.282 0.414-0.553 0.362-1.158 0.224-1.601-0.055-0.175-0.247-0.487-0.46-0.801-0.385-1.819-1.997-3.185-3.931-3.185-1.637 0-3.040 0.982-3.667 2.386-0.259 0.364-0.876 1.252-0.985 1.601-0.138 0.442-0.138 0.997 0.277 1.549 0.205 0.273 0.511 0.294 0.768 0.246 0.318 0.649 0.801 1.205 1.4 1.601-2.819 1.022-4.851 3.832-4.851 7.221v0.048h-5.076c-0.293 0-0.53-0.237-0.53-0.529v-13.959c0-0.294 0.237-0.531 0.53-0.531h23.946c0.293 0 0.529 0.237 0.529 0.531v13.957z"></path>
</svg>
