<!-- Generated by IcoMoon.io -->
<svg version="1.1" xmlns="http://www.w3.org/2000/svg" width="64" height="64" viewBox="0 0 64 64">
<title>live_session</title>
<path d="M27.212 50.972l-5.746 4.034h21.256l-5.744-4.034h-9.766zM59.87 8.994h-55.738c-0.634 0-1.15 0.514-1.15 1.152v37.674c0 0.636 0.516 1.15 1.15 1.15h55.736c0.634 0 1.148-0.514 1.148-1.15v-37.674c0.002-0.638-0.512-1.152-1.146-1.152zM43.134 42.966h-2.966c-0.18-3.326-1.588-5.628-1.588-5.628l-1.524 0.526c0.964 2.272 1.106 4.178 1.12 5.008-0.016 0.010-0.064 0.044-0.138 0.096h-11.322c-0.066-0.050-0.106-0.086-0.106-0.096 0.014-0.83 0.154-2.736 1.12-5.008l-1.524-0.526c0 0-1.41 2.302-1.588 5.628h-2.856c-0.078-0.028-0.146-0.042-0.228-0.074 0-5.096 2.99-9.346 7.174-10.972l-0.44 3.222 4.002-2.83 4.044 2.94-0.060-3.332c4.182 1.628 7.17 5.878 7.17 10.972-0.078 0.026-0.192 0.050-0.29 0.074zM28.090 24.602c-0.56-0.824-0.886-1.818-0.886-2.888 0-2.846 2.304-5.15 5.15-5.15 2.844 0 5.148 2.304 5.148 5.15 0 1.362-0.532 2.602-1.394 3.524-0.94 1-2.602 1.788-4.082 1.788-1.774-0.002-3.010-1.058-3.936-2.424zM54.146 46.778c-0.426 0-0.77-0.346-0.77-0.77 0-0.426 0.344-0.774 0.77-0.774s0.772 0.348 0.772 0.774c0 0.424-0.346 0.77-0.772 0.77zM57.038 41.908c0 0.584-0.472 1.058-1.058 1.058h-9.26v-0.096c0-0.29-0.048-0.562-0.064-0.848l5.79-20.094-2.376-0.28-4.446 15.442c-1.582-4.126-4.77-7.33-8.766-8.724 1.108-0.748 2.010-1.77 2.63-2.962 0.444-0.016 0.892-0.154 1.2-0.564 0.828-1.106 0.724-2.316 0.448-3.202-0.11-0.35-0.494-0.974-0.92-1.602-0.77-3.638-3.994-6.37-7.862-6.37-3.274 0-6.080 1.964-7.334 4.772-0.518 0.728-1.752 2.504-1.97 3.202-0.276 0.884-0.276 1.994 0.554 3.098 0.41 0.546 1.022 0.588 1.536 0.492 0.636 1.298 1.602 2.41 2.8 3.202-5.638 2.044-9.702 7.664-9.702 14.442v0.096h-10.152c-0.586 0-1.060-0.474-1.060-1.058v-27.918c0-0.588 0.474-1.062 1.060-1.062h47.892c0.586 0 1.058 0.474 1.058 1.062v27.914z"></path>
</svg>
