<!-- Generated by IcoMoon.io -->
<svg version="1.1" xmlns="http://www.w3.org/2000/svg" width="32" height="32" viewBox="0 0 32 32">
<title>location</title>
<path d="M24.8 11.3c0-4.9-3.9-8.8-8.8-8.8s-8.8 3.9-8.8 8.8c0 4.9 8.8 14.7 8.8 14.7s8.8-9.8 8.8-14.7zM11.7 11.3c0-2.4 1.9-4.3 4.3-4.3s4.3 1.9 4.3 4.3c0 2.4-1.9 4.3-4.3 4.3s-4.3-1.9-4.3-4.3zM20.6 22.7c-0.2 0.2-0.6 0.5-0.8 0.6 2.4 0.4 4.1 1.2 4.1 2.2 0 1.4-3.6 2.5-7.9 2.5s-7.9-1.1-7.9-2.5c0-0.9 1.6-1.7 4-2.2 0 0-0.5-0.4-0.7-0.6-3.3 0.6-5.5 1.8-5.5 3.2 0 2 4.5 3.6 10.1 3.6s10.1-1.6 10.1-3.6c0-1.4-2.2-2.6-5.5-3.2z"></path>
</svg>
