<!-- Generated by IcoMoon.io -->
<svg version="1.1" xmlns="http://www.w3.org/2000/svg" width="64" height="64" viewBox="0 0 64 64">
<title>location</title>
<path d="M49.6 22.6c0-9.8-7.8-17.6-17.6-17.6s-17.6 7.8-17.6 17.6c0 9.8 17.6 29.4 17.6 29.4s17.6-19.6 17.6-29.4zM23.4 22.6c0-4.8 3.8-8.6 8.6-8.6s8.6 3.8 8.6 8.6c0 4.8-3.8 8.6-8.6 8.6s-8.6-3.8-8.6-8.6zM41.2 45.4c-0.4 0.4-1.2 1-1.6 1.2 4.8 0.8 8.2 2.4 8.2 4.4 0 2.8-7.2 5-15.8 5s-15.8-2.2-15.8-5c0-1.8 3.2-3.4 8-4.4 0 0-1-0.8-1.4-1.2-6.6 1.2-11 3.6-11 6.4 0 4 9 7.2 20.2 7.2s20.2-3.2 20.2-7.2c0-2.8-4.4-5.2-11-6.4z"></path>
</svg>
