<!-- Generated by IcoMoon.io -->
<svg version="1.1" xmlns="http://www.w3.org/2000/svg" width="64" height="64" viewBox="0 0 64 64">
<title>locked</title>
<path d="M49.426 28.16h-3.458v-5.994c0-9.352-7.384-14.244-13.974-14.244-6.592 0-13.998 4.892-13.998 14.244v5.994h-3.42c-1.43 0-2.586 1.16-2.586 2.586v22.746c0 1.43 1.156 2.586 2.586 2.586h34.852c1.43 0 2.586-1.156 2.586-2.586v-22.746c-0.002-1.426-1.158-2.586-2.588-2.586zM23.966 21.968c0-6.188 4.022-8.020 8.026-8.020 4.006 0 8.008 1.832 8.008 8.020v6.192h-16.036v-6.192zM34.056 42.27v5.086h-0.036c0.020 0.104 0.038 0.214 0.038 0.332 0 1.11-0.926 2-2.070 2s-2.068-0.89-2.068-2c0-0.118 0.016-0.228 0.036-0.332h-0.036v-5.086c-1.432-0.728-2.414-2.178-2.414-3.848 0-2.39 2.004-4.332 4.482-4.332s4.482 1.942 4.482 4.332c-0.002 1.67-0.982 3.12-2.414 3.848z"></path>
</svg>
