<!-- Generated by IcoMoon.io -->
<svg version="1.1" xmlns="http://www.w3.org/2000/svg" width="32" height="32" viewBox="0 0 32 32">
<title>locked</title>
<path d="M24.713 14.080h-1.729v-2.997c0-4.676-3.692-7.122-6.987-7.122s-6.999 2.446-6.999 7.122v2.997h-1.71c-0.715 0-1.293 0.58-1.293 1.293v11.373c0 0.715 0.578 1.293 1.293 1.293h17.426c0.715 0 1.293-0.578 1.293-1.293v-11.373c-0.001-0.713-0.579-1.293-1.294-1.293zM11.983 10.984c0-3.094 2.011-4.010 4.013-4.010 2.003 0 4.004 0.916 4.004 4.010v3.096h-8.018v-3.096zM17.028 21.135v2.543h-0.018c0.010 0.052 0.019 0.107 0.019 0.166 0 0.555-0.463 1-1.035 1s-1.034-0.445-1.034-1c0-0.059 0.008-0.114 0.018-0.166h-0.018v-2.543c-0.716-0.364-1.207-1.089-1.207-1.924 0-1.195 1.002-2.166 2.241-2.166s2.241 0.971 2.241 2.166c-0.001 0.835-0.491 1.56-1.207 1.924z"></path>
</svg>
