<!-- Generated by IcoMoon.io -->
<svg version="1.1" xmlns="http://www.w3.org/2000/svg" width="32" height="32" viewBox="0 0 32 32">
<title>members_employees_users</title>
<path d="M16.072 13.83c0.971-1.146 1.563-2.642 1.563-4.28 0-3.604-2.832-6.523-6.325-6.523s-6.327 2.919-6.327 6.523c0 1.673 0.618 3.195 1.625 4.353-3.134 2.134-5.313 6.287-5.313 11.261 0 0.558 0.067 1.98 1.030 1.98s3.945 0 3.945 0 2.274 1.83 5.105 1.83c2.955 0 5.476-1.83 5.476-1.83s2.582 0.014 3.575 0c0.992-0.010 1.096-1.334 1.096-1.98-0.001-5.034-2.762-9.364-5.45-11.334zM11.308 5.119c2.373 0 4.296 1.981 4.296 4.431 0 2.443-1.923 4.428-4.296 4.428s-4.295-1.984-4.295-4.428c0-2.449 1.923-4.431 4.295-4.431zM16.776 25.183c0-1.794-1.067-4.613-1.067-4.613l-1.199 0.426c1.122 2.717 0.86 4.166 0.86 4.166s-1.771 1.832-4.033 1.832c-2.25 0-3.996-1.832-3.996-1.832s-0.294-1.449 0.827-4.166l-1.198-0.427c0 0-1.107 1.963-1.107 4.592-0.536 0-1.537 0-2.411 0 0-4.545 1.876-7.58 5.333-9.635 0.774 0.346 1.626 0.544 2.525 0.544 0.926 0 1.804-0.212 2.597-0.581 2.871 1.61 5.458 5.076 5.458 9.672-0.629 0-1.83 0.022-2.589 0.022zM25.563 13.22c0.916-1.081 1.475-2.492 1.475-4.041 0-3.397-2.67-6.152-5.967-6.152-1.559 0-2.979 0.616-4.041 1.625 0.285 0.633 0.668 1.023 1.131 1.619 0.735-0.783 1.767-1.271 2.907-1.271 2.238 0 4.053 1.873 4.053 4.179 0 2.309-1.814 4.182-4.053 4.182-0.688 0-1.334-0.178-1.9-0.488-0.178 0.644-0.555 1.928-0.48 1.948 0.73 0.329 1.535 0.513 2.383 0.513 0.873 0 1.701-0.199 2.449-0.547 2.709 1.519 5.15 4.789 5.15 9.127-0.594 0-1.727 0.017-2.441 0.017 0-1.69-1.008-4.351-1.008-4.351l-1.131 0.402c1.059 2.564 0.813 3.932 0.813 3.932s-1.080 1.115-2.611 1.553c-0.373 0.105-0.539 2.021-0.24 1.982 2.371-0.306 4.246-1.668 4.246-1.668s2.438 0.014 3.373 0c0.938-0.012 1.035-1.258 1.035-1.866-0.001-4.752-2.606-8.836-5.143-10.695z"></path>
</svg>
