<!-- Generated by IcoMoon.io -->
<svg version="1.1" xmlns="http://www.w3.org/2000/svg" width="64" height="64" viewBox="0 0 64 64">
<title>members_employees_users</title>
<path d="M32.144 27.66c1.942-2.292 3.126-5.284 3.126-8.56 0-7.208-5.664-13.046-12.65-13.046s-12.654 5.838-12.654 13.046c0 3.346 1.236 6.39 3.25 8.706-6.268 4.268-10.626 12.574-10.626 22.522 0 1.116 0.134 3.96 2.060 3.96s7.89 0 7.89 0 4.548 3.66 10.21 3.66c5.91 0 10.952-3.66 10.952-3.66s5.164 0.028 7.15 0c1.984-0.020 2.192-2.668 2.192-3.96-0.002-10.068-5.524-18.728-10.9-22.668zM22.616 10.238c4.746 0 8.592 3.962 8.592 8.862 0 4.886-3.846 8.856-8.592 8.856-4.744 0-8.59-3.968-8.59-8.856 0-4.898 3.846-8.862 8.59-8.862zM33.552 50.366c0-3.588-2.134-9.226-2.134-9.226l-2.398 0.852c2.244 5.434 1.72 8.332 1.72 8.332s-3.542 3.664-8.066 3.664c-4.5 0-7.992-3.664-7.992-3.664s-0.588-2.898 1.654-8.332l-2.396-0.854c0 0-2.214 3.926-2.214 9.184-1.072 0-3.074 0-4.822 0 0-9.090 3.752-15.16 10.666-19.27 1.548 0.692 3.252 1.088 5.050 1.088 1.852 0 3.608-0.424 5.194-1.162 5.742 3.22 10.916 10.152 10.916 19.344-1.258 0-3.66 0.044-5.178 0.044zM51.126 26.44c1.832-2.162 2.95-4.984 2.95-8.082 0-6.794-5.34-12.304-11.934-12.304-3.118 0-5.958 1.232-8.082 3.25 0.57 1.266 1.336 2.046 2.262 3.238 1.47-1.566 3.534-2.542 5.814-2.542 4.476 0 8.106 3.746 8.106 8.358 0 4.618-3.628 8.364-8.106 8.364-1.376 0-2.668-0.356-3.8-0.976-0.356 1.288-1.11 3.856-0.96 3.896 1.46 0.658 3.070 1.026 4.766 1.026 1.746 0 3.402-0.398 4.898-1.094 5.418 3.038 10.3 9.578 10.3 18.254-1.188 0-3.454 0.034-4.882 0.034 0-3.38-2.016-8.702-2.016-8.702l-2.262 0.804c2.118 5.128 1.626 7.864 1.626 7.864s-2.16 2.23-5.222 3.106c-0.746 0.21-1.078 4.042-0.48 3.964 4.742-0.612 8.492-3.336 8.492-3.336s4.876 0.028 6.746 0c1.876-0.024 2.070-2.516 2.070-3.732-0.002-9.504-5.212-17.672-10.286-21.39z"></path>
</svg>
