<!-- Generated by IcoMoon.io -->
<svg version="1.1" xmlns="http://www.w3.org/2000/svg" width="64" height="64" viewBox="0 0 64 64">
<title>move</title>
<path d="M58.354 30.38l-6.958-6.94c-0.862-0.86-2.256-0.858-3.116 0.002l-0.078 0.078c-0.86 0.862-0.858 2.256 0.004 3.116 0 0 1.926 1.99 3.222 3.316h-17.374v-17.414c0.454 0.444 0.84 0.818 0.84 0.818l2.436 2.436c0.862 0.862 2.256 0.862 3.118 0.002l0.078-0.078c0.862-0.86 0.862-2.254 0.002-3.116l-6.94-6.958c-0.442-0.442-1.024-0.658-1.604-0.646-0.58-0.012-1.164 0.204-1.606 0.646l-6.94 6.958c-0.86 0.86-0.858 2.256 0.004 3.116l0.078 0.078c0.862 0.86 2.256 0.858 3.116-0.002 0 0 1.99-1.926 3.316-3.224v17.386h-17.384c1.298-1.328 3.224-3.316 3.224-3.316 0.862-0.86 0.864-2.254 0.004-3.116l-0.078-0.078c-0.858-0.862-2.254-0.862-3.116-0.002l-6.958 6.94c-0.442 0.442-0.658 1.026-0.646 1.604-0.012 0.58 0.204 1.164 0.646 1.604l6.958 6.942c0.862 0.858 2.256 0.858 3.116-0.004l0.078-0.078c0.86-0.862 0.858-2.256-0.004-3.118l-2.436-2.436c0 0-0.376-0.386-0.818-0.84h17.416v17.374c-1.326-1.296-3.316-3.222-3.316-3.222-0.858-0.862-2.254-0.864-3.116-0.004l-0.078 0.078c-0.862 0.86-0.864 2.254-0.004 3.116l6.94 6.958c0.442 0.444 1.026 0.658 1.606 0.646 0.58 0.012 1.164-0.204 1.604-0.646l6.94-6.958c0.86-0.862 0.86-2.256-0.002-3.116l-0.078-0.078c-0.862-0.86-2.256-0.858-3.118 0.004l-2.436 2.438c0 0-0.386 0.374-0.84 0.818v-17.406h17.406c-0.446 0.454-0.818 0.84-0.818 0.84l-2.438 2.436c-0.862 0.862-0.864 2.256-0.004 3.118l0.078 0.078c0.86 0.862 2.254 0.862 3.116 0.004l6.958-6.942c0.444-0.442 0.658-1.024 0.646-1.604 0.012-0.582-0.204-1.166-0.646-1.608z"></path>
</svg>
