<!-- Generated by IcoMoon.io -->
<svg version="1.1" xmlns="http://www.w3.org/2000/svg" width="32" height="32" viewBox="0 0 32 32">
<title>move</title>
<path d="M29.177 15.19l-3.479-3.47c-0.431-0.43-1.128-0.429-1.558 0.001l-0.039 0.039c-0.43 0.431-0.429 1.128 0.002 1.558 0 0 0.963 0.995 1.611 1.658h-8.687v-8.707c0.227 0.222 0.42 0.409 0.42 0.409l1.218 1.218c0.431 0.431 1.128 0.431 1.559 0.001l0.039-0.039c0.431-0.43 0.431-1.127 0.001-1.558l-3.47-3.479c-0.221-0.221-0.512-0.329-0.802-0.323-0.29-0.006-0.582 0.102-0.803 0.323l-3.47 3.479c-0.43 0.43-0.429 1.128 0.002 1.558l0.039 0.039c0.431 0.43 1.128 0.429 1.558-0.001 0 0 0.995-0.963 1.658-1.612v8.693h-8.692c0.649-0.664 1.612-1.658 1.612-1.658 0.431-0.43 0.432-1.127 0.002-1.558l-0.039-0.039c-0.429-0.431-1.127-0.431-1.558-0.001l-3.479 3.47c-0.221 0.221-0.329 0.513-0.323 0.802-0.006 0.29 0.102 0.582 0.323 0.802l3.479 3.471c0.431 0.429 1.128 0.429 1.558-0.002l0.039-0.039c0.43-0.431 0.429-1.128-0.002-1.559l-1.218-1.218c0 0-0.188-0.193-0.409-0.42h8.708v8.687c-0.663-0.648-1.658-1.611-1.658-1.611-0.429-0.431-1.127-0.432-1.558-0.002l-0.039 0.039c-0.431 0.43-0.432 1.127-0.002 1.558l3.47 3.479c0.221 0.222 0.513 0.329 0.803 0.323 0.29 0.006 0.582-0.102 0.802-0.323l3.47-3.479c0.43-0.431 0.43-1.128-0.001-1.558l-0.039-0.039c-0.431-0.43-1.128-0.429-1.559 0.002l-1.218 1.219c0 0-0.193 0.187-0.42 0.409v-8.703h8.703c-0.223 0.227-0.409 0.42-0.409 0.42l-1.219 1.218c-0.431 0.431-0.432 1.128-0.002 1.559l0.039 0.039c0.43 0.431 1.127 0.431 1.558 0.002l3.479-3.471c0.222-0.221 0.329-0.512 0.323-0.802 0.006-0.291-0.102-0.583-0.323-0.804z"></path>
</svg>
