<!-- Generated by IcoMoon.io -->
<svg version="1.1" xmlns="http://www.w3.org/2000/svg" width="64" height="64" viewBox="0 0 64 64">
<title>no_answer_outline</title>
<path d="M32 8c-13.2 0-24 10.8-24 24s10.8 24 24 24c13.2 0 24-10.8 24-24s-10.8-24-24-24zM32 52c-11 0-20-9-20-20s9-20 20-20c11 0 20 9 20 20s-9 20-20 20zM27.4 31.6c0 0.8 0 2.4 0.2 4.4v0l-7-12h-4.4v16h3v-7.6c0-1 0-2.4-0.2-4.6v0l7 12h4.4v-16h-3v7.8zM42.2 24h-4.2l-5.6 16h3.6l1.2-3.8h5.8l1.2 3.8h3.6l-5.6-16zM38 33.4c1.2-3.6 1.8-6 2-7 0 0.2 0.2 0.6 0.2 1 0.2 0.4 0.8 2.4 1.8 5.8h-4z"></path>
</svg>
