<!-- Generated by IcoMoon.io -->
<svg version="1.1" xmlns="http://www.w3.org/2000/svg" width="64" height="64" viewBox="0 0 64 64">
<title>non_visible</title>
<path d="M15.6 41c1-1 1.2-1.2 2.2-2.2-3.8-2.8-5.4-6-5.4-6s4.8-8.6 15.8-10.4c-0.4 0.2-0.6 0.2-1 0.4 0 0 0.2 0 0.2 0l1 2c1-0.4 2-0.6 3-0.8 1-1.2 1.8-2.4 3.4-4.4-0.8 0-1.6-0.2-2.6-0.2-16.8 0-24.2 13.2-24.2 13.2s2.2 4.6 7.6 8.4zM21.2 34.6c1.2-1.2 1.6-1.4 2.2-2 0-0.8 0.2-1.6 0.4-2.4l-2.2-0.8c-0.4 1.2-0.6 2.4-0.6 3.6 0 0.4 0 1 0.2 1.6zM46.4 23c-1 1-1.2 1.4-2 2.2 5 3.2 7.2 7.4 7.2 7.4s-3.4 8.6-14.8 10.4c4-1.8 6.6-5.6 6.6-10.2 0-1.8-0.4-3.4-1.2-5-0.8 0.8-0.8 1-1.8 1.8 0.4 1 0.6 2 0.6 3.2 0 4.8-4 8.8-8.8 8.8-0.6 0-1.2 0-1.8-0.2-1.8 1.6-2.6 2.4-4.2 3.8 2 0.4 4.2 0.6 6.4 0.6 18.2 0 23.4-13.2 23.4-13.2s-2.8-5.6-9.6-9.6zM38.8 32.8c0-0.4 0-0.8 0-1-2.6 3-4.2 5-6.6 7.8 3.6-0.2 6.6-3 6.6-6.8zM49 9.4l-39.4 42.8 3.4 2.4 39.4-41.8-3.4-3.4z"></path>
</svg>
