<!-- Generated by IcoMoon.io -->
<svg version="1.1" xmlns="http://www.w3.org/2000/svg" width="32" height="32" viewBox="0 0 32 32">
<title>notifications</title>
<path d="M16.585 18.646c0 0.438-0.356 1.14-0.794 1.14h-4.433c-0.206 0-0.404 0.076-0.555 0.215l-1.966 2.341-0.001-1.53c0-0.452-0.368-1.025-0.821-1.025h-2.759c-0.438 0-0.794-0.356-0.794-0.796v-5.030c0-0.436 0.356-0.792 0.794-0.792h5.791v-2.191h-6.367c-1.344 0-2.436 1.091-2.436 2.434v6.122c0 1.343 1.092 2.435 2.436 2.435h1.974l0.001 2.63c0 0.324 0.193 0.619 0.491 0.75 0.106 0.047 0.218 0.070 0.33 0.070 0.201 0 0.857-0.075 1.012-0.217l3.189-3.233h4.699c1.322 0 2.397-2.006 2.429-3.349h-2.219v0.026zM18.81 18.619v-0.063c0 0.021-0.005 0.043-0.006 0.063h0.006zM27.146 6.582h-12.392c-1.439 0-2.61 1.171-2.61 2.608v5.762c0 1.437 1.171 2.609 2.61 2.609h4.908l3.722 3.478c0.154 0.141 0.319 0.216 1.002 0.216 0.112 0 0.361-0.022 0.468-0.070 0.297-0.131 0.489-0.424 0.489-0.75l0.003-2.873h1.8c1.439 0 2.61-1.172 2.61-2.609v-5.763c0-1.438-1.171-2.608-2.61-2.608zM27.545 15.402h-3.334l-1.513 2.476-1.855-2.476h-6.497v-6.6h13.199v6.6z"></path>
</svg>
