<!-- Generated by IcoMoon.io -->
<svg version="1.1" xmlns="http://www.w3.org/2000/svg" width="64" height="64" viewBox="0 0 64 64">
<title>notifications</title>
<path d="M33.17 37.292c0 0.876-0.712 2.28-1.588 2.28h-8.866c-0.412 0-0.808 0.152-1.11 0.43l-3.932 4.682-0.002-3.060c0-0.904-0.736-2.050-1.642-2.050h-5.518c-0.876 0-1.588-0.712-1.588-1.592v-10.060c0-0.872 0.712-1.584 1.588-1.584h11.582v-4.382h-12.734c-2.688 0-4.872 2.182-4.872 4.868v12.244c0 2.686 2.184 4.87 4.872 4.87h3.948l0.002 5.26c0 0.648 0.386 1.238 0.982 1.5 0.212 0.094 0.436 0.14 0.66 0.14 0.402 0 1.714-0.15 2.024-0.434l6.378-6.466h9.398c2.644 0 4.794-4.012 4.858-6.698h-4.438v0.052zM37.62 37.238v-0.126c0 0.042-0.010 0.086-0.012 0.126h0.012zM54.292 13.164h-24.784c-2.878 0-5.22 2.342-5.22 5.216v11.524c0 2.874 2.342 5.218 5.22 5.218h9.816l7.444 6.956c0.308 0.282 0.638 0.432 2.004 0.432 0.224 0 0.722-0.044 0.936-0.14 0.594-0.262 0.978-0.848 0.978-1.5l0.006-5.746h3.6c2.878 0 5.22-2.344 5.22-5.218v-11.526c0-2.876-2.342-5.216-5.22-5.216zM55.090 30.804h-6.668l-3.026 4.952-3.71-4.952h-12.994v-13.2h26.398v13.2z"></path>
</svg>
