<!-- Generated by IcoMoon.io -->
<svg version="1.1" xmlns="http://www.w3.org/2000/svg" width="32" height="32" viewBox="0 0 32 32">
<title>on_the_job_training_info</title>
<path d="M12.1 10.5c1.5-3.7 3.9-4.6 3.9-4.6l-0.3-0.5c-2.4 0.8-4 3-4 3l-1.2-1.4-1.2 0.9 2.2 2.6h0.6z"></path>
<path d="M11.6 17.5h0.5c1.5-3.7 3.9-4.6 3.9-4.6l-0.3-0.5c-2.4 0.8-4 3-4 3l-1.2-1.4-1.1 0.9 2.2 2.6z"></path>
<path d="M15.9 19.9l-0.3-0.5c-2.4 0.8-4 3-4 3l-1.1-1.4-1.1 0.9 2.2 2.6h0.5c1.4-3.7 3.8-4.6 3.8-4.6z"></path>
<path d="M17.5 22.5h-2.5v2h2.3z"></path>
<path d="M8 27.5v-23h16v12.6l2 0.1c0-6.7 0-13.9 0-13.9 0-0.5-0.4-0.8-0.8-0.8h-18.4c-0.4 0-0.8 0.4-0.8 0.8v25.4c0 0.4 0.4 0.8 0.8 0.8h12.4l-1.3-2h-9.9z"></path>
<path d="M15 8.5h7v2h-7v-2z"></path>
<path d="M15 15.5h7v2h-7v-2z"></path>
<path d="M24.7 18.3c-3.4 0-6.2 2.8-6.2 6.2s2.8 6.2 6.2 6.2c3.4 0 6.2-2.8 6.2-6.2-0.1-3.5-2.8-6.2-6.2-6.2zM26.7 29.1v0l-0.2-0.1c-0.3 0-0.5 0-0.6-0.1s-0.2-0.2-0.2-0.5v-4c-1.2 0.2-2.2 0.4-2.9 0.4v0.7c0.3 0 0.6 0 0.7 0.1 0.2 0.1 0.2 0.3 0.2 0.6v2.5c0 0.2-0.1 0.3-0.3 0.4-0.1 0-0.3 0-0.5 0h-0.1v0.2c-1.9-0.7-3.3-2.6-3.3-4.7 0-2.8 2.3-5.1 5.1-5.1s5.1 2.3 5.1 5.1c0 1.9-1.2 3.7-3 4.5z"></path>
<path d="M24.7 21.1c-0.3 0-0.6 0.1-0.8 0.3s-0.3 0.5-0.3 0.8c0 0.3 0.1 0.6 0.3 0.8s0.5 0.3 0.8 0.3c0.3 0 0.6-0.1 0.8-0.3s0.3-0.5 0.3-0.8-0.1-0.6-0.3-0.8c-0.2-0.2-0.5-0.3-0.8-0.3z"></path>
</svg>
