<!-- Generated by IcoMoon.io -->
<svg version="1.1" xmlns="http://www.w3.org/2000/svg" width="64" height="64" viewBox="0 0 64 64">
<title>on_the_job_training1</title>
<path d="M50.372 4.992h-36.746c-0.9 0-1.63 0.732-1.63 1.634v50.748c0 0.898 0.73 1.632 1.63 1.632 0 0 34.436 0 35.874 0s2.504-0.7 2.504-2.2c0-1.502 0-50.182 0-50.182 0-0.9-0.73-1.632-1.632-1.632zM48.008 55.032l-32.016 0.026v-46.062h32.016v46.036zM24.132 48.976c2.9-7.308 7.762-9.18 7.762-9.18l-0.652-0.92c-4.874 1.668-8.076 6.060-8.076 6.060l-2.174-2.926-2.298 1.804 4.418 5.16h1.020zM30.038 49.048h13.924v-4.008h-13.924v4.008zM24.132 34.976c2.9-7.308 7.762-9.178 7.762-9.178l-0.652-0.92c-4.874 1.668-8.076 6.060-8.076 6.060l-2.174-2.926-2.298 1.806 4.418 5.16h1.020zM30.038 35.048h13.924v-4.008h-13.924v4.008zM24.132 20.976c2.9-7.308 7.762-9.178 7.762-9.178l-0.652-0.92c-4.874 1.668-8.076 6.060-8.076 6.060l-2.174-2.926-2.298 1.804 4.418 5.16h1.020zM30.038 21.048h13.924v-4.008h-13.924v4.008z"></path>
</svg>
