<!-- Generated by IcoMoon.io -->
<svg version="1.1" xmlns="http://www.w3.org/2000/svg" width="32" height="32" viewBox="0 0 32 32">
<title>on_the_job_training_delete</title>
<path d="M14.6 22.5h-1v2h1v-2zM10.1 24.5h0.5c1.5-3.7 3.9-4.6 3.9-4.6l-0.3-0.5c-2.4 0.8-4 3-4 3l-1.1-1.4-1.1 0.9 2.1 2.6zM6.6 27.5v-23h16v9h2v-10.2c0-0.5-0.4-0.8-0.8-0.8h-18.4c-0.5 0-0.8 0.4-0.8 0.8v25.4c0 0.4 0.4 0.8 0.8 0.8h11.1l-1.1-2h-8.8zM10.1 17.5h0.5c1.5-3.7 3.9-4.6 3.9-4.6l-0.3-0.5c-2.4 0.8-4 3-4 3l-1.1-1.4-1.1 0.9 2.1 2.6zM10.6 10.5c1.5-3.7 3.9-4.6 3.9-4.6l-0.3-0.5c-2.4 0.8-4 3-4 3l-1.1-1.4-1.2 0.9 2.2 2.6h0.5zM22.7 15.7c-3.7 0-6.8 3-6.8 6.8 0 3.7 3 6.8 6.8 6.8 3.7 0 6.8-3 6.8-6.8-0.1-3.8-3.1-6.8-6.8-6.8zM26.5 25.4h-1.5l-2.1-2.3-2.1 2.3h-1.5l2.9-3-2.9-3h1.6l2.1 2.2 2.1-2.2h1.5l-2.9 2.9 2.8 3.1zM16.7 15.5h-3.2v2h1.8l1.4-2zM20.5 8.5h-7v2h7v-2z"></path>
</svg>
