<!-- Generated by IcoMoon.io -->
<svg version="1.1" xmlns="http://www.w3.org/2000/svg" width="64" height="64" viewBox="0 0 64 64">
<title>on_the_job_training_delete</title>
<path d="M29.2 45h-2v4h2v-4zM20.2 49h1c3-7.4 7.8-9.2 7.8-9.2l-0.6-1c-4.8 1.6-8 6-8 6l-2.2-2.8-2.2 1.8 4.2 5.2zM13.2 55v-46h32v18h4v-20.4c0-1-0.8-1.6-1.6-1.6h-36.8c-1 0-1.6 0.8-1.6 1.6v50.8c0 0.8 0.8 1.6 1.6 1.6h22.2l-2.2-4h-17.6zM20.2 35h1c3-7.4 7.8-9.2 7.8-9.2l-0.6-1c-4.8 1.6-8 6-8 6l-2.2-2.8-2.2 1.8 4.2 5.2zM21.2 21c3-7.4 7.8-9.2 7.8-9.2l-0.6-1c-4.8 1.6-8 6-8 6l-2.2-2.8-2.4 1.8 4.4 5.2h1zM45.4 31.4c-7.4 0-13.6 6-13.6 13.6 0 7.4 6 13.6 13.6 13.6 7.4 0 13.6-6 13.6-13.6-0.2-7.6-6.2-13.6-13.6-13.6zM53 50.8h-3l-4.2-4.6-4.2 4.6h-3l5.8-6-5.8-6h3.2l4.2 4.4 4.2-4.4h3l-5.8 5.8 5.6 6.2zM33.4 31h-6.4v4h3.6l2.8-4zM41 17h-14v4h14v-4z"></path>
</svg>
