<!-- Generated by IcoMoon.io -->
<svg version="1.1" xmlns="http://www.w3.org/2000/svg" width="32" height="32" viewBox="0 0 32 32">
<title>on_the_job_training</title>
<path d="M25.186 2.496h-18.373c-0.45 0-0.815 0.366-0.815 0.817v25.374c0 0.449 0.365 0.816 0.815 0.816 0 0 17.218 0 17.937 0s1.252-0.35 1.252-1.1c0-0.751 0-25.091 0-25.091 0-0.45-0.365-0.816-0.816-0.816zM24.004 27.516l-16.008 0.013v-23.031h16.008v23.018zM12.066 24.488c1.45-3.654 3.881-4.59 3.881-4.59l-0.326-0.46c-2.437 0.834-4.038 3.030-4.038 3.030l-1.087-1.463-1.149 0.902 2.209 2.58h0.51zM15.019 24.524h6.962v-2.004h-6.962v2.004zM12.066 17.488c1.45-3.654 3.881-4.589 3.881-4.589l-0.326-0.46c-2.437 0.834-4.038 3.030-4.038 3.030l-1.087-1.463-1.149 0.903 2.209 2.58h0.51zM15.019 17.524h6.962v-2.004h-6.962v2.004zM12.066 10.488c1.45-3.654 3.881-4.589 3.881-4.589l-0.326-0.46c-2.437 0.834-4.038 3.030-4.038 3.030l-1.087-1.463-1.149 0.902 2.209 2.58h0.51zM15.019 10.524h6.962v-2.004h-6.962v2.004z"></path>
</svg>
