<!-- Generated by IcoMoon.io -->
<svg version="1.1" xmlns="http://www.w3.org/2000/svg" width="64" height="64" viewBox="0 0 64 64">
<title>on_the_job_training_edit</title>
<path d="M36.2 45h-9v4h6.6z"></path>
<path d="M21.2 21c3-7.4 7.8-9.2 7.8-9.2l-0.6-1c-4.8 1.6-8 6-8 6l-2.2-2.8-2.4 1.8 4.4 5.2h1z"></path>
<path d="M20.2 35h1c3-7.4 7.8-9.2 7.8-9.2l-0.6-1c-4.8 1.6-8 6-8 6l-2.2-2.8-2.2 1.8 4.2 5.2z"></path>
<path d="M29 39.8l-0.6-1c-4.8 1.6-8 6-8 6l-2.2-2.8-2.2 1.8 4.4 5.2h1c2.8-7.4 7.6-9.2 7.6-9.2z"></path>
<path d="M13.2 9h32v22.6l4-5v-20c0-1-0.8-1.6-1.6-1.6h-36.8c-1 0-1.6 0.8-1.6 1.6v50.8c0 0.8 0.8 1.6 1.6 1.6h18.2l1.6-4h-17.4v-46z"></path>
<path d="M27.2 31h14v4h-14v-4z"></path>
<path d="M27.2 17h14v4h-14v-4z"></path>
<path d="M42.8 40.2c-5.2 7.8-8.8 14.4-10.4 18.6-0.8 2.4-1 4-0.2 4.4 0.6 0.4 2.2-0.4 4-2 3.8-3.6 9.4-10.6 13.4-16.8-2.4-0.6-4.4-1.8-6.8-4.2 0 0 0 0 0 0z"></path>
<path d="M58.2 24c-2-1.2-6 1.8-14 14 2.4 2.6 5.8 4 6.8 4.2 5.8-8.8 9.2-17 7.2-18.2z"></path>
</svg>
