<!-- Generated by IcoMoon.io -->
<svg version="1.1" xmlns="http://www.w3.org/2000/svg" width="64" height="64" viewBox="0 0 64 64">
<title>on_the_job_training_create</title>
<path d="M16 9h32v22h4v-24.4c0-1-0.8-1.6-1.6-1.6h-36.8c-0.8 0-1.6 0.8-1.6 1.6v50.8c0 0.8 0.8 1.6 1.6 1.6h28.4v-4h-26v-46zM23.2 49h1c3-7.4 7.8-9.2 7.8-9.2l-0.6-1c-4.8 1.6-8 6-8 6l-2.4-2.8-2.2 1.8 4.4 5.2zM32 45h-2v4h2v-4zM23.2 35h1c3-7.4 7.8-9.2 7.8-9.2l-0.6-1c-4.8 1.6-8 6-8 6l-2.4-2.8-2.2 1.8 4.4 5.2zM44 31h-14v4h14v-4zM24.2 21c3-7.4 7.8-9.2 7.8-9.2l-0.6-1c-4.8 1.6-8 6-8 6l-2.4-2.8-2.4 1.8 4.4 5.2h1.2zM44 17h-14v4h14v-4zM52 45v-10h-6v10h-10v6.2h10v10h6v-10h10v-6.2h-10z"></path>
</svg>
