<!-- Generated by IcoMoon.io -->
<svg version="1.1" xmlns="http://www.w3.org/2000/svg" width="64" height="64" viewBox="0 0 64 64">
<title>on_the_job_training_pools</title>
<path d="M23.4 16.8l-2.4-2.8-2.4 1.8 4.4 5.2h1.2c3-7.4 7.8-9.2 7.8-9.2l-0.6-1c-4.8 1.6-8 6-8 6z"></path>
<path d="M23.4 30.8l-2.4-2.8-2.2 1.8 4.4 5.2h1c3-7.4 7.8-9.2 7.8-9.2l-0.6-1c-4.8 1.6-8 6-8 6z"></path>
<path d="M24.2 49c2.8-7.4 7.6-9.2 7.6-9.2l-0.6-1c-4.8 1.6-8 6-8 6l-2.2-2.8-2.2 1.8 4.4 5.2h1z"></path>
<path d="M30 49h6.4v-4h-6.4z"></path>
<path d="M16 55v-46h32v25.2h4c0-13.4 0-27.6 0-27.6 0-1-0.8-1.6-1.6-1.6h-36.8c-0.8 0-1.6 0.8-1.6 1.6v50.8c0 0.8 0.8 1.6 1.6 1.6h22.6v-4h-20.2z"></path>
<path d="M30 17h14v4h-14v-4z"></path>
<path d="M30 31h14v4h-14v-4z"></path>
<path d="M40 39.8c0 1.4 5.6 2.8 12.2 2.8s11.6-1.2 11.6-2.8c0-1.4-5-2.8-11.6-2.8-6.4 0.2-12.2 1.4-12.2 2.8z"></path>
<path d="M40 48c0 0 0 4.2 0 5.6s5.6 2.8 12.4 2.8c6.6 0 11.6-1.2 11.6-2.8s0-5.6 0-5.6-3.6 2.4-11.8 2.4c-8.4 0.2-12.2-2.4-12.2-2.4z"></path>
<path d="M40 41.2c0 0 0 3.8 0 5.2s5.8 2.8 12.4 2.8c6.6 0 11.6-1.2 11.6-2.8 0-1.4 0-5.2 0-5.2s-2.6 2.8-11.8 2.8-12.2-2.8-12.2-2.8z"></path>
<path d="M40 55.6c0 0 0 4 0 5.4s5.8 2.8 12.4 2.8c6.6 0 11.6-1.2 11.6-2.8 0-1.4 0-5.4 0-5.4s-2.6 2.2-11.8 2.2c-9.4 0-12.2-2.2-12.2-2.2z"></path>
</svg>
