<!-- Generated by IcoMoon.io -->
<svg version="1.1" xmlns="http://www.w3.org/2000/svg" width="32" height="32" viewBox="0 0 32 32">
<title>on_the_job_training_edit</title>
<path d="M18.1 22.5h-4.5v2h3.3z"></path>
<path d="M10.6 10.5c1.5-3.7 3.9-4.6 3.9-4.6l-0.3-0.5c-2.4 0.8-4 3-4 3l-1.1-1.4-1.2 0.9 2.2 2.6h0.5z"></path>
<path d="M10.1 17.5h0.5c1.5-3.7 3.9-4.6 3.9-4.6l-0.3-0.5c-2.4 0.8-4 3-4 3l-1.1-1.4-1.1 0.9 2.1 2.6z"></path>
<path d="M14.5 19.9l-0.3-0.5c-2.4 0.8-4 3-4 3l-1.1-1.4-1.1 0.9 2.2 2.6h0.5c1.4-3.7 3.8-4.6 3.8-4.6z"></path>
<path d="M6.6 4.5h16v11.3l2-2.5v-10c0-0.5-0.4-0.8-0.8-0.8h-18.4c-0.5 0-0.8 0.4-0.8 0.8v25.4c0 0.4 0.4 0.8 0.8 0.8h9.1l0.8-2h-8.7v-23z"></path>
<path d="M13.6 15.5h7v2h-7v-2z"></path>
<path d="M13.6 8.5h7v2h-7v-2z"></path>
<path d="M21.4 20.1c-2.6 3.9-4.4 7.2-5.2 9.3-0.4 1.2-0.5 2-0.1 2.2 0.3 0.2 1.1-0.2 2-1 1.9-1.8 4.7-5.3 6.7-8.4-1.2-0.3-2.2-0.9-3.4-2.1 0 0 0 0 0 0z"></path>
<path d="M29.1 12c-1-0.6-3 0.9-7 7 1.2 1.3 2.9 2 3.4 2.1 2.9-4.4 4.6-8.5 3.6-9.1z"></path>
</svg>
