<!-- Generated by IcoMoon.io -->
<svg version="1.1" xmlns="http://www.w3.org/2000/svg" width="32" height="32" viewBox="0 0 32 32">
<title>on_the_job_training_pools</title>
<path d="M11.7 8.4l-1.2-1.4-1.2 0.9 2.2 2.6h0.6c1.5-3.7 3.9-4.6 3.9-4.6l-0.3-0.5c-2.4 0.8-4 3-4 3z"></path>
<path d="M11.7 15.4l-1.2-1.4-1.1 0.9 2.2 2.6h0.5c1.5-3.7 3.9-4.6 3.9-4.6l-0.3-0.5c-2.4 0.8-4 3-4 3z"></path>
<path d="M12.1 24.5c1.4-3.7 3.8-4.6 3.8-4.6l-0.3-0.5c-2.4 0.8-4 3-4 3l-1.1-1.4-1.1 0.9 2.2 2.6h0.5z"></path>
<path d="M15 24.5h3.2v-2h-3.2z"></path>
<path d="M8 27.5v-23h16v12.6h2c0-6.7 0-13.8 0-13.8 0-0.5-0.4-0.8-0.8-0.8h-18.4c-0.4 0-0.8 0.4-0.8 0.8v25.4c0 0.4 0.4 0.8 0.8 0.8h11.3v-2h-10.1z"></path>
<path d="M15 8.5h7v2h-7v-2z"></path>
<path d="M15 15.5h7v2h-7v-2z"></path>
<path d="M20 19.9c0 0.7 2.8 1.4 6.1 1.4s5.8-0.6 5.8-1.4c0-0.7-2.5-1.4-5.8-1.4-3.2 0.1-6.1 0.7-6.1 1.4z"></path>
<path d="M20 24c0 0 0 2.1 0 2.8s2.8 1.4 6.2 1.4c3.3 0 5.8-0.6 5.8-1.4s0-2.8 0-2.8-1.8 1.2-5.9 1.2c-4.2 0.1-6.1-1.2-6.1-1.2z"></path>
<path d="M20 20.6c0 0 0 1.9 0 2.6s2.9 1.4 6.2 1.4c3.3 0 5.8-0.6 5.8-1.4 0-0.7 0-2.6 0-2.6s-1.3 1.4-5.9 1.4-6.1-1.4-6.1-1.4z"></path>
<path d="M20 27.8c0 0 0 2 0 2.7s2.9 1.4 6.2 1.4c3.3 0 5.8-0.6 5.8-1.4 0-0.7 0-2.7 0-2.7s-1.3 1.1-5.9 1.1c-4.7 0-6.1-1.1-6.1-1.1z"></path>
</svg>
