<!-- Generated by IcoMoon.io -->
<svg version="1.1" xmlns="http://www.w3.org/2000/svg" width="64" height="64" viewBox="0 0 64 64">
<title>on_the_job_training_info</title>
<path d="M24.2 21c3-7.4 7.8-9.2 7.8-9.2l-0.6-1c-4.8 1.6-8 6-8 6l-2.4-2.8-2.4 1.8 4.4 5.2h1.2z"></path>
<path d="M23.2 35h1c3-7.4 7.8-9.2 7.8-9.2l-0.6-1c-4.8 1.6-8 6-8 6l-2.4-2.8-2.2 1.8 4.4 5.2z"></path>
<path d="M31.8 39.8l-0.6-1c-4.8 1.6-8 6-8 6l-2.2-2.8-2.2 1.8 4.4 5.2h1c2.8-7.4 7.6-9.2 7.6-9.2z"></path>
<path d="M35 45h-5v4h4.6z"></path>
<path d="M16 55v-46h32v25.2l4 0.2c0-13.4 0-27.8 0-27.8 0-1-0.8-1.6-1.6-1.6h-36.8c-0.8 0-1.6 0.8-1.6 1.6v50.8c0 0.8 0.8 1.6 1.6 1.6h24.8l-2.6-4h-19.8z"></path>
<path d="M30 17h14v4h-14v-4z"></path>
<path d="M30 31h14v4h-14v-4z"></path>
<path d="M49.4 36.6c-6.8 0-12.4 5.6-12.4 12.4s5.6 12.4 12.4 12.4c6.8 0 12.4-5.6 12.4-12.4-0.2-7-5.6-12.4-12.4-12.4zM53.4 58.2v0l-0.4-0.2c-0.6 0-1 0-1.2-0.2s-0.4-0.4-0.4-1v-8c-2.4 0.4-4.4 0.8-5.8 0.8v1.4c0.6 0 1.2 0 1.4 0.2 0.4 0.2 0.4 0.6 0.4 1.2v5c0 0.4-0.2 0.6-0.6 0.8-0.2 0-0.6 0-1 0h-0.2v0.4c-3.8-1.4-6.6-5.2-6.6-9.4 0-5.6 4.6-10.2 10.2-10.2s10.2 4.6 10.2 10.2c0 3.8-2.4 7.4-6 9z"></path>
<path d="M49.4 42.2c-0.6 0-1.2 0.2-1.6 0.6s-0.6 1-0.6 1.6c0 0.6 0.2 1.2 0.6 1.6s1 0.6 1.6 0.6c0.6 0 1.2-0.2 1.6-0.6s0.6-1 0.6-1.6-0.2-1.2-0.6-1.6c-0.4-0.4-1-0.6-1.6-0.6z"></path>
</svg>
