<!-- Generated by IcoMoon.io -->
<svg version="1.1" xmlns="http://www.w3.org/2000/svg" width="32" height="32" viewBox="0 0 32 32">
<title>on_the_job_training_create</title>
<path d="M8 4.5h16v11h2v-12.2c0-0.5-0.4-0.8-0.8-0.8h-18.4c-0.4 0-0.8 0.4-0.8 0.8v25.4c0 0.4 0.4 0.8 0.8 0.8h14.2v-2h-13v-23zM11.6 24.5h0.5c1.5-3.7 3.9-4.6 3.9-4.6l-0.3-0.5c-2.4 0.8-4 3-4 3l-1.2-1.4-1.1 0.9 2.2 2.6zM16 22.5h-1v2h1v-2zM11.6 17.5h0.5c1.5-3.7 3.9-4.6 3.9-4.6l-0.3-0.5c-2.4 0.8-4 3-4 3l-1.2-1.4-1.1 0.9 2.2 2.6zM22 15.5h-7v2h7v-2zM12.1 10.5c1.5-3.7 3.9-4.6 3.9-4.6l-0.3-0.5c-2.4 0.8-4 3-4 3l-1.2-1.4-1.2 0.9 2.2 2.6h0.6zM22 8.5h-7v2h7v-2zM26 22.5v-5h-3v5h-5v3.1h5v5h3v-5h5v-3.1h-5z"></path>
</svg>
