<!-- Generated by IcoMoon.io -->
<svg version="1.1" xmlns="http://www.w3.org/2000/svg" width="32" height="32" viewBox="0 0 32 32">
<title>onboarding</title>
<path d="M11.479 15.302h6.261l1.573-1.922h-7.834v1.922zM19.763 8.272h-8.283v1.922h8.283v-1.922zM7.659 15.959h0.373c1.058-2.665 2.832-3.349 2.832-3.349l-0.239-0.336c-1.777 0.609-2.945 2.211-2.945 2.211l-0.794-1.066-0.838 0.658 1.611 1.882zM8.031 10.851c1.058-2.665 2.832-3.348 2.832-3.348l-0.239-0.336c-1.777 0.609-2.945 2.211-2.945 2.211l-0.794-1.067-0.838 0.659 1.612 1.881h0.372zM23.602 15.084v-10.191c0-0.812-1.548-2.359-2.359-2.359h-15.688c-0.811 0-2.359 1.548-2.359 2.359v20.194c0 0.811 1.548 2.359 2.359 2.359h6.474l-2.292-1.938h-4.633v-21.076h16.6l-0.013 9.499-7.734 7.654-4.183-4.369-1.752 1.682 5.936 6.041 9.644-9.855zM21.539 21.165c-0.008 0.008-0.017 0.018-0.024 0.025-2.635 2.764-4.64 5.104-5.608 6.59-0.552 0.846-0.768 1.416-0.57 1.629 0.177 0.189 0.783-0.1 1.624-0.687 1.734-1.212 4.468-3.692 6.502-5.851-0.783-0.28-1.318-0.804-1.924-1.706zM28.707 15.56c-0.577-0.477-2.332 0.549-6.451 4.867 0.582 1.008 1.647 1.547 1.946 1.683 3.008-3.197 5.083-6.076 4.505-6.55z"></path>
</svg>
