<!-- Generated by IcoMoon.io -->
<svg version="1.1" xmlns="http://www.w3.org/2000/svg" width="64" height="64" viewBox="0 0 64 64">
<title>onboarding</title>
<path d="M22.958 30.604h12.522l3.146-3.844h-15.668v3.844zM39.526 16.544h-16.566v3.844h16.566v-3.844zM15.318 31.918h0.746c2.116-5.33 5.664-6.698 5.664-6.698l-0.478-0.672c-3.554 1.218-5.89 4.422-5.89 4.422l-1.588-2.132-1.676 1.316 3.222 3.764zM16.062 21.702c2.116-5.33 5.664-6.696 5.664-6.696l-0.478-0.672c-3.554 1.218-5.89 4.422-5.89 4.422l-1.588-2.134-1.676 1.318 3.224 3.762h0.744zM47.204 30.168v-20.382c0-1.624-3.096-4.718-4.718-4.718h-31.376c-1.622 0-4.718 3.096-4.718 4.718v40.388c0 1.622 3.096 4.718 4.718 4.718h12.948l-4.584-3.876h-9.266v-42.152h33.2l-0.026 18.998-15.468 15.308-8.366-8.738-3.504 3.364 11.872 12.082 19.288-19.71zM43.078 42.33c-0.016 0.016-0.034 0.036-0.048 0.050-5.27 5.528-9.28 10.208-11.216 13.18-1.104 1.692-1.536 2.832-1.14 3.258 0.354 0.378 1.566-0.2 3.248-1.374 3.468-2.424 8.936-7.384 13.004-11.702-1.566-0.56-2.636-1.608-3.848-3.412zM57.414 31.12c-1.154-0.954-4.664 1.098-12.902 9.734 1.164 2.016 3.294 3.094 3.892 3.366 6.016-6.394 10.166-12.152 9.010-13.1z"></path>
</svg>
