<!-- Generated by IcoMoon.io -->
<svg version="1.1" xmlns="http://www.w3.org/2000/svg" width="32" height="32" viewBox="0 0 32 32">
<title>payment_subscription_bassed</title>
<path d="M11.688 18.215c0.419 0.096 0.839 0.197 1.251 0.307 0.67-1.473 1.691-3.021 2.71-3.732-1.036-0.368-2.1-0.648-3.089-0.866-3.924-0.865-4.941-1.766-4.941-2.908 0-1.869 2.361-3.046 4.65-3.046 2.936 0 4.215 1.848 4.215 2.492 0.542-0.193 4.506-1.246 4.506-1.246-1.526-4.466-6.395-5.366-6.395-5.366v-3.856h-4.651v3.926c0 0-6.976 1.266-6.976 6.958s6.143 6.751 8.72 7.337zM12.269 24.031c-2.288 0-4.18-1.367-4.215-2.492l-4.505 1.246c0 0 1.006 4.186 6.395 5.365v3.857h4.651c0 0 0-1.607 0-2.781-0.756-0.615-1.99-2.263-2.326-5.195zM28.616 20.043l-0.891 1.342-1.676-0.723c0.53 1.301 0.509 2.82-0.191 4.162-1.246 2.393-4.169 3.307-6.527 2.041-2.359-1.264-3.261-4.229-2.014-6.621 0.891-1.707 2.521-2.719 4.306-2.664l-1.156 2.219 5.739-1.217-2.271-5.436-0.991 1.9c-3.165-0.657-6.392 0.896-7.977 3.938-1.928 3.695-0.533 8.275 3.112 10.23s8.162 0.545 10.089-3.152c1.006-1.931 1.103-4.105 0.448-6.019z"></path>
</svg>
