<!-- Generated by IcoMoon.io -->
<svg version="1.1" xmlns="http://www.w3.org/2000/svg" width="64" height="64" viewBox="0 0 64 64">
<title>payment_one_time_fee</title>
<path d="M27.35 56.3v7.714h9.3v-7.992c6.25-0.754 13.954-6.782 13.954-13.778 0-9-10.174-12.668-18.024-14.4-7.848-1.73-9.882-3.532-9.882-5.816 0-3.738 4.724-6.092 9.302-6.092 5.872 0 8.43 3.696 8.43 4.984 1.082-0.386 9.010-2.492 9.010-2.492-3.050-8.932-12.79-10.732-12.79-10.732v-7.712h-9.3v7.852c0 0-13.954 2.532-13.954 13.918s12.288 13.502 17.442 14.674c5.152 1.176 10.462 2.812 10.462 5.816 0 3.008-4.724 5.816-9.3 5.816s-8.36-2.734-8.43-4.984l-9.010 2.494c0 0 2.012 8.372 12.79 10.73z"></path>
</svg>
