<!-- Generated by IcoMoon.io -->
<svg version="1.1" xmlns="http://www.w3.org/2000/svg" width="64" height="64" viewBox="0 0 64 64">
<title>payment_subscription_bassed</title>
<path d="M23.376 36.43c0.838 0.192 1.678 0.394 2.502 0.614 1.34-2.946 3.382-6.042 5.42-7.464-2.072-0.736-4.2-1.296-6.178-1.732-7.848-1.73-9.882-3.532-9.882-5.816 0-3.738 4.722-6.092 9.3-6.092 5.872 0 8.43 3.696 8.43 4.984 1.084-0.386 9.012-2.492 9.012-2.492-3.052-8.932-12.79-10.732-12.79-10.732v-7.712h-9.302v7.852c0 0-13.952 2.532-13.952 13.916s12.286 13.502 17.44 14.674zM24.538 48.062c-4.576 0-8.36-2.734-8.43-4.984l-9.010 2.492c0 0 2.012 8.372 12.79 10.73v7.714h9.302c0 0 0-3.214 0-5.562-1.512-1.23-3.98-4.526-4.652-10.39zM57.232 40.086l-1.782 2.684-3.352-1.446c1.060 2.602 1.018 5.64-0.382 8.324-2.492 4.786-8.338 6.614-13.054 4.082-4.718-2.528-6.522-8.458-4.028-13.242 1.782-3.414 5.042-5.438 8.612-5.328l-2.312 4.438 11.478-2.434-4.542-10.872-1.982 3.8c-6.33-1.314-12.784 1.792-15.954 7.876-3.856 7.39-1.066 16.55 6.224 20.46 7.292 3.91 16.324 1.090 20.178-6.304 2.012-3.862 2.206-8.21 0.896-12.038z"></path>
</svg>
