<!-- Generated by IcoMoon.io -->
<svg version="1.1" xmlns="http://www.w3.org/2000/svg" width="32" height="32" viewBox="0 0 32 32">
<title>payment_one_time_fee</title>
<path d="M13.675 28.15v3.857h4.65v-3.996c3.125-0.377 6.977-3.391 6.977-6.889 0-4.5-5.087-6.334-9.012-7.2-3.924-0.865-4.941-1.766-4.941-2.908 0-1.869 2.362-3.046 4.651-3.046 2.936 0 4.215 1.848 4.215 2.492 0.541-0.193 4.505-1.246 4.505-1.246-1.525-4.466-6.395-5.366-6.395-5.366v-3.856h-4.65v3.926c0 0-6.977 1.266-6.977 6.959s6.144 6.751 8.721 7.337c2.576 0.588 5.231 1.406 5.231 2.908 0 1.504-2.362 2.908-4.65 2.908s-4.18-1.367-4.215-2.492l-4.505 1.247c0 0 1.006 4.186 6.395 5.365z"></path>
</svg>
