<!-- Generated by IcoMoon.io -->
<svg version="1.1" xmlns="http://www.w3.org/2000/svg" width="64" height="64" viewBox="0 0 64 64">
<title>performance_reviews</title>
<path d="M37.2 23.4c1.8-1.8 4.4-4.6 6-6.4-3.4-1.8-7.2-2.8-11.2-2.8-14.2 0-25.6 11.6-25.6 25.8 0 3.4 0.6 6.6 1.8 9.6-0.2-4-0.2-11.2 1.6-15.2 4-8.4 11.4-12.6 20-12.6 2.8-0.2 5.2 0.4 7.4 1.6zM52.8 24.8c-1.8 2.6-4.8 6.2-7.4 8.8 1.4 5.4-1.2 10.4-1.2 10.4s7.2 2 12.2 3.8c0.8-2.6 1.2-5.2 1.2-8 0-5.4-1.8-10.8-4.8-15zM24 40.4c-2.4 2.8-2.6 6.6-0.6 8.4 2.2 1.8 5.8 1.2 8.2-1.6s21-31.8 21-31.8-26.2 22.2-28.6 25z"></path>
</svg>
