<!-- Generated by IcoMoon.io -->
<svg version="1.1" xmlns="http://www.w3.org/2000/svg" width="32" height="32" viewBox="0 0 32 32">
<title>performance_reviews</title>
<path d="M18.6 11.7c0.9-0.9 2.2-2.3 3-3.2-1.7-0.9-3.6-1.4-5.6-1.4-7.1 0-12.8 5.8-12.8 12.9 0 1.7 0.3 3.3 0.9 4.8-0.1-2-0.1-5.6 0.8-7.6 2-4.2 5.7-6.3 10-6.3 1.4-0.1 2.6 0.2 3.7 0.8zM26.4 12.4c-0.9 1.3-2.4 3.1-3.7 4.4 0.7 2.7-0.6 5.2-0.6 5.2s3.6 1 6.1 1.9c0.4-1.3 0.6-2.6 0.6-4 0-2.7-0.9-5.4-2.4-7.5zM12 20.2c-1.2 1.4-1.3 3.3-0.3 4.2 1.1 0.9 2.9 0.6 4.1-0.8s10.5-15.9 10.5-15.9-13.1 11.1-14.3 12.5z"></path>
</svg>
