<!-- Generated by IcoMoon.io -->
<svg version="1.1" xmlns="http://www.w3.org/2000/svg" width="32" height="32" viewBox="0 0 32 32">
<title>prerequisites</title>
<path d="M8.4 16.9c-3.6 0-6.6 2.9-6.6 6.6s2.9 6.6 6.6 6.6c3.6 0 6.6-2.9 6.6-6.6s-3-6.6-6.6-6.6zM8.4 27.7c-2.3 0-4.2-1.9-4.2-4.2s1.9-4.2 4.2-4.2c2.3 0 4.2 1.9 4.2 4.2s-1.9 4.2-4.2 4.2zM7.7 15.2c3.7 0 6.6-3 6.6-6.6 0-0.4 0-0.9-0.1-1.3-1.8 1.5-1.9 1.6-2.3 1.9-0.3 2-2.1 3.6-4.2 3.6-2.3 0-4.2-1.9-4.2-4.2s1.9-4.2 4.2-4.2c0.7 0 1.4 0.2 2 0.5 0.3-0.2 0.4-0.4 1.7-1.8-1-0.7-2.3-1.1-3.6-1.1-3.7 0-6.6 3-6.6 6.6s2.9 6.6 6.5 6.6zM5.7 6.1l-1.4 1.2 3.7 3.8 6.7-6.7-1.3-1.3-5.3 5.5-2.4-2.5zM22.9 12h-6v2h6v-2zM16.9 10h14v-2h-14v2zM16.9 4v2h14v-2h-14zM16.9 24h14v-2h-14v2zM16.9 20h14v-2h-14v2zM16.9 28h6v-2h-6v2z"></path>
</svg>
