<!-- Generated by IcoMoon.io -->
<svg version="1.1" xmlns="http://www.w3.org/2000/svg" width="64" height="64" viewBox="0 0 64 64">
<title>prerequisites</title>
<path d="M16.8 33.8c-7.2 0-13.2 5.8-13.2 13.2s5.8 13.2 13.2 13.2c7.2 0 13.2-5.8 13.2-13.2s-6-13.2-13.2-13.2zM16.8 55.4c-4.6 0-8.4-3.8-8.4-8.4s3.8-8.4 8.4-8.4c4.6 0 8.4 3.8 8.4 8.4s-3.8 8.4-8.4 8.4zM15.4 30.4c7.4 0 13.2-6 13.2-13.2 0-0.8 0-1.8-0.2-2.6-3.6 3-3.8 3.2-4.6 3.8-0.6 4-4.2 7.2-8.4 7.2-4.6 0-8.4-3.8-8.4-8.4s3.8-8.4 8.4-8.4c1.4 0 2.8 0.4 4 1 0.6-0.4 0.8-0.8 3.4-3.6-2-1.4-4.6-2.2-7.2-2.2-7.4 0-13.2 6-13.2 13.2s5.8 13.2 13 13.2zM11.4 12.2l-2.8 2.4 7.4 7.6 13.4-13.4-2.6-2.6-10.6 11-4.8-5zM45.8 24h-12v4h12v-4zM33.8 20h28v-4h-28v4zM33.8 8v4h28v-4h-28zM33.8 48h28v-4h-28v4zM33.8 40h28v-4h-28v4zM33.8 56h12v-4h-12v4z"></path>
</svg>
