<!-- Generated by IcoMoon.io -->
<svg version="1.1" xmlns="http://www.w3.org/2000/svg" width="64" height="64" viewBox="0 0 64 64">
<title>preview_button</title>
<path d="M30.968 49.83c-9.78 0-17.708-7.93-17.708-17.708 0-8.806 6.43-16.114 14.854-17.478 0.81-2.050 2.078-3.496 5.052-5.198-0.722-0.068-1.458-0.104-2.196-0.104-12.584 0-22.782 10.198-22.782 22.778 0 12.582 10.2 22.784 22.782 22.784 11.808 0 21.516-8.982 22.668-20.488-1.836 1.906-3.542 3.032-5.79 3.068-2.268 7.156-8.97 12.346-16.88 12.346zM31.802 29.26l-2.376 0.89-11.33 10.774 3.918 4.070 11.33-10.774 0.952-2.126c2.282 1.946 5.23 3.126 8.454 3.126 7.204 0 13.062-5.862 13.062-13.062 0-7.206-5.86-13.060-13.062-13.060s-13.060 5.856-13.060 13.060c0 2.616 0.78 5.054 2.112 7.102zM42.748 13.178c4.954 0 8.98 4.028 8.98 8.98s-4.028 8.978-8.98 8.978c-4.95 0-8.976-4.026-8.976-8.978s4.026-8.98 8.976-8.98z"></path>
</svg>
