<!-- Generated by IcoMoon.io -->
<svg version="1.1" xmlns="http://www.w3.org/2000/svg" width="32" height="32" viewBox="0 0 32 32">
<title>preview_button</title>
<path d="M15.484 24.915c-4.89 0-8.854-3.965-8.854-8.854 0-4.403 3.215-8.057 7.427-8.739 0.405-1.025 1.039-1.748 2.526-2.599-0.361-0.034-0.729-0.052-1.098-0.052-6.292 0-11.391 5.099-11.391 11.389 0 6.291 5.1 11.392 11.391 11.392 5.904 0 10.758-4.491 11.334-10.244-0.918 0.953-1.771 1.516-2.895 1.534-1.134 3.578-4.485 6.173-8.44 6.173zM15.901 14.63l-1.188 0.445-5.665 5.387 1.959 2.035 5.665-5.387 0.476-1.063c1.141 0.973 2.615 1.563 4.227 1.563 3.602 0 6.531-2.931 6.531-6.531 0-3.603-2.93-6.53-6.531-6.53s-6.53 2.928-6.53 6.53c0 1.308 0.39 2.527 1.056 3.551zM21.374 6.589c2.477 0 4.49 2.014 4.49 4.49s-2.014 4.489-4.49 4.489c-2.475 0-4.488-2.013-4.488-4.489s2.013-4.49 4.488-4.49z"></path>
</svg>
