<!-- Generated by IcoMoon.io -->
<svg version="1.1" xmlns="http://www.w3.org/2000/svg" width="32" height="32" viewBox="0 0 32 32">
<title>professional_instructor</title>
<path d="M19.8 14h-2.1c0.6 0 1.3 0 2.1 0 0.7 0 1.3 0 1.9 0h-1.9c3.1 0 5.6-2.5 5.6-5.6s-2.5-5.6-5.6-5.6c-3.1 0-5.6 2.5-5.6 5.6 0.1 3.1 2.6 5.6 5.6 5.6zM22.8 14h-0.3c0.7 0 1.1 0.1 1.1 0.5 0 0.7-1.7 1.3-3.8 1.3s-3.8-0.6-3.8-1.3c0-0.4 0.4-0.5 1.1-0.5h-0.1c-1.5 0-2.9 0.5-4 1.2-0.4 0.3-0.6 0.5-0.8 0.9 2.1 0.3 3.2 3.9 0.9 5.1 3.2 1.8 2 5.2 0.8 5.9-0.4 0.3 0.8 1 1.5 1h7.5c3.9 0 7.1-3.2 7.1-7.1-0.1-3.8-3.3-7-7.2-7zM11.2 21.8c-0.2-0.1-0.8-0.3-2.2-0.8v-2.7c0.6 0.2 1 0.7 1.3 1.5l2.4-0.3c-0.2-1-0.6-1.8-1.4-2.3-0.6-0.5-1.4-0.7-2.3-0.8v-0.9h-1v1c-0.9 0.1-1.8 0.4-2.5 1-0.8 0.7-1.2 1.5-1.2 2.5s0.8 2.2 2.2 2.7c0.6 0.2 1.1 0.3 1.5 0.5v3c-0.3-0.1-0.6-0.2-0.8-0.3-0.3-0.3-0.5-0.7-0.7-1.2l-2.6 0.3c0.2 0.8 0.5 1.3 0.7 1.7 0.7 0.9 1.9 1.4 3.4 1.5v1.2h1v-1.2c1-0.1 1.9-0.4 2.6-0.9 0.9-0.6 1.4-1.5 1.4-2.5 0.1-1.5-0.4-2.6-1.8-3zM8 20.6c-0.7-0.3-1.1-0.7-1.1-1.2 0-0.4 0.2-0.7 0.5-0.9 0.2-0.1 0.5-0.2 0.7-0.3v2.4zM10 25.6c-0.3 0.2-0.6 0.3-0.9 0.4v-2.7c0 0 0 0 0 0 1.1 0.3 1.4 0.8 1.4 1.3 0 0.4-0.2 0.7-0.5 1z"></path>
</svg>
