<!-- Generated by IcoMoon.io -->
<svg version="1.1" xmlns="http://www.w3.org/2000/svg" width="64" height="64" viewBox="0 0 64 64">
<title>professional_instructor</title>
<path d="M39.6 28h-4.2c1.2 0 2.6 0 4.2 0 1.4 0 2.6 0 3.8 0h-3.8c6.2 0 11.2-5 11.2-11.2s-5-11.2-11.2-11.2c-6.2 0-11.2 5-11.2 11.2 0.2 6.2 5.2 11.2 11.2 11.2zM45.6 28h-0.6c1.4 0 2.2 0.2 2.2 1 0 1.4-3.4 2.6-7.6 2.6s-7.6-1.2-7.6-2.6c0-0.8 0.8-1 2.2-1h-0.2c-3 0-5.8 1-8 2.4-0.8 0.6-1.2 1-1.6 1.8 4.2 0.6 6.4 7.8 1.8 10.2 6.4 3.6 4 10.4 1.6 11.8-0.8 0.6 1.6 2 3 2h15c7.8 0 14.2-6.4 14.2-14.2-0.2-7.6-6.6-14-14.4-14zM22.4 43.6c-0.4-0.2-1.6-0.6-4.4-1.6v-5.4c1.2 0.4 2 1.4 2.6 3l4.8-0.6c-0.4-2-1.2-3.6-2.8-4.6-1.2-1-2.8-1.4-4.6-1.6v-1.8h-2v2c-1.8 0.2-3.6 0.8-5 2-1.6 1.4-2.4 3-2.4 5s1.6 4.4 4.4 5.4c1.2 0.4 2.2 0.6 3 1v6c-0.6-0.2-1.2-0.4-1.6-0.6-0.6-0.6-1-1.4-1.4-2.4l-5.2 0.6c0.4 1.6 1 2.6 1.4 3.4 1.4 1.8 3.8 2.8 6.8 3v2.4h2v-2.4c2-0.2 3.8-0.8 5.2-1.8 1.8-1.2 2.8-3 2.8-5 0.2-3-0.8-5.2-3.6-6zM16 41.2c-1.4-0.6-2.2-1.4-2.2-2.4 0-0.8 0.4-1.4 1-1.8 0.4-0.2 1-0.4 1.4-0.6v4.8zM20 51.2c-0.6 0.4-1.2 0.6-1.8 0.8v-5.4c0 0 0 0 0 0 2.2 0.6 2.8 1.6 2.8 2.6 0 0.8-0.4 1.4-1 2z"></path>
</svg>
