<!-- Generated by IcoMoon.io -->
<svg version="1.1" xmlns="http://www.w3.org/2000/svg" width="32" height="32" viewBox="0 0 32 32">
<title>promoted</title>
<path d="M21.7 12l2-1-2-1 1.5-1.6-2.2-0.2 0.9-2.1-2.2 0.5 0.1-2.2-1.8 1.2-0.7-2.1-1.3 1.8-1.3-1.8-0.7 2.1-1.8-1.2 0.1 2.2-2.2-0.5 0.9 2.1-2.2 0.2 1.5 1.6-2 1 2 1-1.5 1.7 2.2 0.2-0.9 2.1 2.2-0.6-0.1 2.3 1.8-1.3 0.7 2.2 1.3-1.8 1.3 1.8 0.7-2.2 1.8 1.3-0.1-2.3 2.2 0.6-0.9-2.1 2.2-0.2z"></path>
<path d="M17.8 21.2l-1.8-2.4-1.8 2.4-0.9-2.9-1.8 1.3v8.9l4.5-3.7 4.5 3.6v-8.8l-1.8-1.3z"></path>
</svg>
