<!-- Generated by IcoMoon.io -->
<svg version="1.1" xmlns="http://www.w3.org/2000/svg" width="64" height="64" viewBox="0 0 64 64">
<title>promoted</title>
<path d="M43.4 24l4-2-4-2 3-3.2-4.4-0.4 1.8-4.2-4.4 1 0.2-4.4-3.6 2.4-1.4-4.2-2.6 3.6-2.6-3.6-1.4 4.2-3.6-2.4 0.2 4.4-4.4-1 1.8 4.2-4.4 0.4 3 3.2-4 2 4 2-3 3.4 4.4 0.4-1.8 4.2 4.4-1.2-0.2 4.6 3.6-2.6 1.4 4.4 2.6-3.6 2.6 3.6 1.4-4.4 3.6 2.6-0.2-4.6 4.4 1.2-1.8-4.2 4.4-0.4z"></path>
<path d="M35.6 42.4l-3.6-4.8-3.6 4.8-1.8-5.8-3.6 2.6v17.8l9-7.4 9 7.2v-17.6l-3.6-2.6z"></path>
</svg>
