<!-- Generated by IcoMoon.io -->
<svg version="1.1" xmlns="http://www.w3.org/2000/svg" width="64" height="64" viewBox="0 0 64 64">
<title>questions_pools</title>
<path d="M12.456 30.964c0-10.45 8.472-18.922 18.922-18.922 10.454 0 18.926 8.472 18.926 18.922 3 0 5.34-0.256 5.34 0.002 0-13.402-10.864-24.264-24.266-24.264-13.4 0-24.262 10.864-24.262 24.264 0 13.398 10.864 24.262 24.262 24.262 1.566 0 3.098-0.144 4.578-0.43 0-1.816 0.098-3.266 0.098-5.496-1.496 0.382-3.062 0.582-4.676 0.582-10.45 0-18.922-8.468-18.922-18.92zM34.432 41.69h-6.948v5.208h6.948v-5.208zM38.774 18.524c-1.918-1.588-5.554-2.382-8.374-2.382-2.766 0-5.038 0.978-7.104 2.588-3.13 2.43-2.958 8.902-2.958 8.902h6.876c0-2.848 1.58-4.928 4.16-4.928 2.36 0 3.046 2.31 3.046 2.76 0 1.206-0.682 2.45-2.046 3.736-3.070 2.874-4.618 4.912-4.646 6.116v3.862h6.732v-2.178c0.054-1.314 0.704-2.544 1.942-3.698 2.258-2.008 5.492-3.816 5.492-8.126 0-3.872-3.12-6.652-3.12-6.652zM40.020 39.908c0 0-0.032 3.738-0.032 5.234 0 1.492 5.712 2.704 12.332 2.704 6.622 0 11.68-1.21 11.68-2.704 0-1.496 0-5.234 0-5.234s-2.622 2.766-11.726 2.766c-9.11 0-12.254-2.766-12.254-2.766zM40.020 54.326c0 0-0.032 3.996-0.032 5.492 0 1.492 5.712 2.704 12.332 2.704 6.622 0 11.68-1.21 11.68-2.704 0-1.496 0-5.492 0-5.492s-2.528 2.106-11.84 2.106c-9.31 0-12.14-2.106-12.14-2.106zM40.020 46.798c0 0-0.012 4.188-0.012 5.68 0 1.496 5.694 2.708 12.312 2.708 6.622 0 11.68-1.21 11.68-2.708 0-1.492 0-5.68 0-5.68s-3.546 2.48-11.872 2.48-12.108-2.48-12.108-2.48zM40.032 38.522c0 1.492 5.67 2.704 12.29 2.704 6.622 0 11.68-1.21 11.68-2.704s-5.058-2.704-11.68-2.704c-6.62 0-12.29 1.212-12.29 2.704z"></path>
</svg>
