<!-- Generated by IcoMoon.io -->
<svg version="1.1" xmlns="http://www.w3.org/2000/svg" width="32" height="32" viewBox="0 0 32 32">
<title>questions_pools</title>
<path d="M6.228 15.482c0-5.225 4.236-9.461 9.461-9.461 5.227 0 9.463 4.236 9.463 9.461 1.5 0 2.67-0.128 2.67 0.001 0-6.701-5.432-12.132-12.133-12.132s-12.131 5.432-12.131 12.132c0 6.699 5.432 12.131 12.131 12.131 0.783 0 1.549-0.072 2.289-0.215 0-0.908 0.049-1.633 0.049-2.748-0.748 0.191-1.531 0.291-2.338 0.291-5.225 0-9.461-4.234-9.461-9.46zM17.216 20.845h-3.474v2.604h3.474v-2.604zM19.387 9.262c-0.959-0.794-2.777-1.191-4.187-1.191-1.383 0-2.519 0.489-3.552 1.294-1.565 1.215-1.479 4.451-1.479 4.451h3.438c0-1.424 0.79-2.464 2.080-2.464 1.18 0 1.523 1.155 1.523 1.38 0 0.603-0.341 1.225-1.023 1.868-1.535 1.437-2.309 2.456-2.323 3.058v1.931h3.366v-1.089c0.027-0.657 0.352-1.272 0.971-1.849 1.129-1.004 2.746-1.908 2.746-4.063 0-1.936-1.56-3.326-1.56-3.326zM20.010 19.954c0 0-0.016 1.869-0.016 2.617 0 0.746 2.856 1.352 6.166 1.352s5.84-0.605 5.84-1.352c0-0.748 0-2.617 0-2.617s-1.311 1.383-5.863 1.383c-4.555 0-6.127-1.383-6.127-1.383zM20.010 27.163c0 0-0.016 1.998-0.016 2.746 0 0.746 2.856 1.352 6.166 1.352s5.84-0.605 5.84-1.352c0-0.748 0-2.746 0-2.746s-1.264 1.053-5.92 1.053c-4.655 0-6.070-1.053-6.070-1.053zM20.010 23.399c0 0-0.006 2.094-0.006 2.84 0 0.748 2.847 1.354 6.156 1.354 3.311 0 5.84-0.605 5.84-1.354 0-0.746 0-2.84 0-2.84s-1.773 1.24-5.936 1.24-6.054-1.24-6.054-1.24zM20.016 19.261c0 0.746 2.835 1.352 6.145 1.352 3.311 0 5.84-0.605 5.84-1.352s-2.529-1.352-5.84-1.352c-3.31 0-6.145 0.606-6.145 1.352z"></path>
</svg>
