<!-- Generated by IcoMoon.io -->
<svg version="1.1" xmlns="http://www.w3.org/2000/svg" width="32" height="32" viewBox="0 0 32 32">
<title>quick_tools</title>
<path d="M28.014 22.779c0 0-1.719-12.558-1.779-13.164-0.061-0.604-1.832-2.791-1.832-2.791l0.824 12.546 1.579 4.773-3.562-3.115h-14.382l-3.566 3.115 1.58-4.773 0.836-12.633c0 0-1.758 1.942-1.946 2.879-0.188 0.938-1.779 13.164-1.779 13.164-0.19 1.299 0.814 3.227 2.249 3.227h19.528c1.435-0.001 2.439-1.929 2.25-3.228zM9.876 19.967h12.352c0.955 0 1.656-0.771 1.57-1.705l-0.971-11.010c-0.066-0.699-0.77-1.257-1.573-1.257h-10.407c-0.804 0-1.508 0.558-1.572 1.257l-0.968 11.010c-0.087 0.933 0.615 1.705 1.569 1.705zM14.050 10.299l1.59 1.986-0.682 0.707-2.612-2.693h1.704zM20.65 8.009l0.623-0.073-4.85 5.346 2.969 3.703h-0.568l-2.98-3.063-3.489 3.846-1.755 0.060 10.050-9.819z"></path>
</svg>
