<!-- Generated by IcoMoon.io -->
<svg version="1.1" xmlns="http://www.w3.org/2000/svg" width="64" height="64" viewBox="0 0 64 64">
<title>quick_tools</title>
<path d="M56.028 45.558c0 0-3.438-25.116-3.558-26.328-0.122-1.208-3.664-5.582-3.664-5.582l1.648 25.092 3.158 9.546-7.124-6.23h-28.764l-7.132 6.23 3.16-9.546 1.672-25.266c0 0-3.516 3.884-3.892 5.758-0.376 1.876-3.558 26.328-3.558 26.328-0.38 2.598 1.628 6.454 4.498 6.454h39.056c2.87-0.002 4.878-3.858 4.5-6.456zM19.752 39.934h24.704c1.91 0 3.312-1.542 3.14-3.41l-1.942-22.020c-0.132-1.398-1.54-2.514-3.146-2.514h-20.814c-1.608 0-3.016 1.116-3.144 2.514l-1.936 22.020c-0.174 1.866 1.23 3.41 3.138 3.41zM28.1 20.598l3.18 3.972-1.364 1.414-5.224-5.386h3.408zM41.3 16.018l1.246-0.146-9.7 10.692 5.938 7.406h-1.136l-5.96-6.126-6.978 7.692-3.51 0.12 20.1-19.638z"></path>
</svg>
