<!-- Generated by IcoMoon.io -->
<svg version="1.1" xmlns="http://www.w3.org/2000/svg" width="32" height="32" viewBox="0 0 32 32">
<title>ranking</title>
<path d="M24.502 20.931c-0.391 0-0.705 0.324-0.705 0.726 0 0.127-0.021 0.246-0.254 0.308-0.368 0.095-0.928-0.080-1.142-0.485-0.321-0.613 0.202-1.66 1.401-2.799 5.234-4.961 7.098-9.557 5.342-14.222-2.442 0-9.443 0.045-9.443 0.045s2.102-0.381 2.102-1.971h-11.606c0 1.589 1.102 1.971 1.102 1.971s-6.001-0.046-8.444-0.046c-1.756 4.665 0.107 9.261 5.342 14.222 1.2 1.139 1.723 2.186 1.401 2.799-0.213 0.405-0.773 0.58-1.141 0.485-0.233-0.062-0.253-0.181-0.253-0.308 0-0.401-0.315-0.726-0.705-0.726s-0.706 0.324-0.706 0.726c0 0.847 0.505 1.502 1.317 1.715 0.906 0.236 2.174-0.148 2.728-1.201 0.24-0.454 0.443-1.229 0.007-2.281 1.312 1.946 3.128 3.609 3.128 3.609l0.059 1.092-5.79 4-0.146 0.878h15.807l-0.265-0.878-5.671-4 0.059-1.092c0 0 1.816-1.663 3.128-3.609-0.436 1.053-0.232 1.827 0.007 2.281 0.554 1.053 1.822 1.438 2.729 1.201 0.813-0.213 1.317-0.868 1.317-1.715 0-0.401-0.316-0.725-0.705-0.725zM9.153 17.612c-4.788-4.54-6.039-8.058-5.075-11.154 3.056 0 3.999-0.029 3.999-0.029s-0.52 8.073 1.785 11.927c-0.206-0.239-0.438-0.487-0.709-0.744zM24.059 6.429c0 0 0.809 0.029 3.863 0.029 0.963 3.097-0.287 6.615-5.075 11.154-0.271 0.257-0.503 0.505-0.708 0.743 2.035-3.404 1.92-11.926 1.92-11.926z"></path>
</svg>
