<!-- Generated by IcoMoon.io -->
<svg version="1.1" xmlns="http://www.w3.org/2000/svg" width="32" height="32" viewBox="0 0 32 32">
<title>rd_party_login</title>
<path d="M16 2.5c-7.456 0-13.5 6.044-13.5 13.5s6.044 13.5 13.5 13.5c7.456 0 13.5-6.044 13.5-13.5s-6.044-13.5-13.5-13.5zM10.2 17.141c-0.417 0-0.754-0.338-0.754-0.754s0.337-0.754 0.754-0.754h4.688c-0.163-0.167-0.301-0.31-0.301-0.31l-0.896-0.896c-0.317-0.316-0.317-0.83-0.001-1.147l0.029-0.028c0.317-0.317 0.83-0.317 1.146-0.001l2.56 2.553c0.162 0.163 0.241 0.377 0.237 0.59 0.004 0.213-0.075 0.428-0.237 0.59l-2.56 2.554c-0.317 0.316-0.83 0.315-1.146-0.001l-0.029-0.029c-0.315-0.316-0.315-0.83 0.001-1.146 0 0 0.709-0.731 1.186-1.22h-4.677zM20.263 21.877c0 0.221-0.095 0.417-0.246 0.555-0.138 0.149-0.334 0.246-0.554 0.246h-5.215c-0.417 0-0.754-0.338-0.754-0.755s0.338-0.754 0.754-0.754h4.506v-9.593h-4.506c-0.417 0-0.754-0.338-0.754-0.754s0.338-0.754 0.754-0.754h5.215c0.22 0 0.416 0.096 0.554 0.246 0.151 0.138 0.246 0.334 0.246 0.555v11.008z"></path>
</svg>
