<!-- Generated by IcoMoon.io -->
<svg version="1.1" xmlns="http://www.w3.org/2000/svg" width="64" height="64" viewBox="0 0 64 64">
<title>rd_party_login</title>
<path d="M32 5c-14.912 0-27 12.088-27 27s12.088 27 27 27c14.912 0 27-12.088 27-27s-12.088-27-27-27zM20.4 34.282c-0.834 0-1.508-0.676-1.508-1.508 0-0.834 0.674-1.508 1.508-1.508h9.376c-0.326-0.334-0.602-0.62-0.602-0.62l-1.792-1.792c-0.634-0.632-0.634-1.66-0.002-2.294l0.058-0.056c0.634-0.634 1.66-0.634 2.292-0.002l5.12 5.106c0.324 0.326 0.482 0.754 0.474 1.18 0.008 0.426-0.15 0.856-0.474 1.18l-5.12 5.108c-0.634 0.632-1.66 0.63-2.292-0.002l-0.058-0.058c-0.63-0.632-0.63-1.66 0.002-2.292 0 0 1.418-1.462 2.372-2.44h-9.354zM40.526 43.754c0 0.442-0.19 0.834-0.492 1.11-0.276 0.298-0.668 0.492-1.108 0.492h-10.43c-0.834 0-1.508-0.676-1.508-1.51s0.676-1.508 1.508-1.508h9.012v-19.186h-9.012c-0.834 0-1.508-0.676-1.508-1.508 0-0.834 0.676-1.508 1.508-1.508h10.43c0.44 0 0.832 0.192 1.108 0.492 0.302 0.276 0.492 0.668 0.492 1.11v22.016z"></path>
</svg>
