<!-- Generated by IcoMoon.io -->
<svg version="1.1" xmlns="http://www.w3.org/2000/svg" width="64" height="64" viewBox="0 0 64 64">
<title>recent</title>
<path d="M34 7.8c-11 0.2-20.2 7.2-23 17.2l-6 0.2 9.8 12.2 9.6-12.6h-6.6c2.8-6.2 9-11 16.2-11.2 10-0.2 18.4 7.8 18.6 18 0.2 10-7.8 18.8-18 18.6-2.2 0-7.6 0.6-11-3.4l-3.8 4.8c3.2 2.8 8 4.8 15 4.6 13.4-0.2 24-11.2 23.8-24.6-0.2-13.2-11.2-24-24.6-23.8zM31.6 20c-1.4 0-2.6 1.2-2.6 2.6v14.6c0 0.4 0 0.6 0.2 1 0.4 1 1.2 1.6 2.4 1.6h10.6c1.4 0 2.6-1.2 2.6-2.6s-1.2-2.6-2.6-2.6h-8v-12c-0.2-1.4-1.2-2.6-2.6-2.6z"></path>
</svg>
