<!-- Generated by IcoMoon.io -->
<svg version="1.1" xmlns="http://www.w3.org/2000/svg" width="32" height="32" viewBox="0 0 32 32">
<title>recent</title>
<path d="M17 3.9c-5.5 0.1-10.1 3.6-11.5 8.6l-3 0.1 4.9 6.1 4.8-6.3h-3.3c1.4-3.1 4.5-5.5 8.1-5.6 5-0.1 9.2 3.9 9.3 9 0.1 5-3.9 9.4-9 9.3-1.1 0-3.8 0.3-5.5-1.7l-1.9 2.4c1.6 1.4 4 2.4 7.5 2.3 6.7-0.1 12-5.6 11.9-12.3-0.1-6.6-5.6-12-12.3-11.9zM15.8 10c-0.7 0-1.3 0.6-1.3 1.3v7.3c0 0.2 0 0.3 0.1 0.5 0.2 0.5 0.6 0.8 1.2 0.8h5.3c0.7 0 1.3-0.6 1.3-1.3s-0.6-1.3-1.3-1.3h-4v-6c-0.1-0.7-0.6-1.3-1.3-1.3z"></path>
</svg>
