<!-- Generated by IcoMoon.io -->
<svg version="1.1" xmlns="http://www.w3.org/2000/svg" width="32" height="32" viewBox="0 0 32 32">
<title>register_user</title>
<path d="M28.7 14.6h-12.4c-0.5 0-0.8 0.4-0.8 0.8v3.4l2 2v-4.2h10v12h-7.5c0.4-0.6-2.5-4.6-2.5-4.6s-4.3-5.2-4.5-5.4c-0.8-0.9-1.9-1.7-2.5-1.2s-0.1 1.8 0.8 2.8c0.2 0.2 4.7 5.2 4.7 5.2s2.5 2.7 3.6 3.2h-2.1l-2-1.8v3c0 0.5 0.4 0.8 0.8 0.8 0 0 11.2 0 11.9 0s1.3-0.3 1.3-1.1c0-0.8 0-14.1 0-14.1 0-0.4-0.4-0.8-0.8-0.8zM19.5 23.6h6v-2h-6v2zM25.5 18.6h-6v2h6v-2zM19.5 26.6h6v-2h-6v2zM9.9 20.1l-1.3-0.4c0 0-1.2 2-1.2 4.8-0.6 0-1.7 0-2.6 0 0-4.7 2.9-8.7 6.9-10.1 0.5 0.2 0.9 0.3 1.4 0.4 0.2-0.6 1.7-2.1 1.3-2.1-2.6 0-4.6-2.1-4.6-4.6 0-2.6 2.1-4.6 4.6-4.6 2.6 0 4.6 2.1 4.6 4.6 0 1.9-1.1 3.5-2.8 4.2 0.9 0.2 1.8 0.2 3.3 0.2 1-1.2 1.7-2.8 1.7-4.5 0-3.8-3-6.8-6.8-6.8s-6.8 3-6.8 6.8c0 1.7 0.7 3.3 1.7 4.5-4.1 2.1-6.9 6.6-6.9 11.7 0 0.6 0.1 2.1 1.1 2.1s4.2 0 4.2 0 2.5 1.2 5.6 1.6c0-0.7 0-1.2 0-2.2-2.2-0.1-4.3-1.2-4.3-1.2s-0.3-1.5 0.9-4.4z"></path>
</svg>
