<!-- Generated by IcoMoon.io -->
<svg version="1.1" xmlns="http://www.w3.org/2000/svg" width="32" height="32" viewBox="0 0 32 32">
<title>retake_date</title>
<path d="M8.4 9.6c-1.8 1.8-2.9 4.4-2.9 7.2-0.1 5.6 4.5 10.2 10.2 10.2s10.2-4.6 10.2-10.2c0-5.4-4.1-9.8-9.4-10.2v-3.4h1.8v-1.7h-5.3v1.7h1.8v3.3c-2.4 0.2-4.6 1.3-6.2 2.8l-0.1 0.4-0.1-0.1zM14.8 8.6v10.4l4.7-9.6c2.6 1.4 4.4 4.1 4.4 7.2 0 4.5-3.7 8.2-8.2 8.2s-8.2-3.7-8.2-8.2c0-4.1 3.2-7.5 7.3-8zM22.2 4.2c-0.3 0.7-0.3 1.1-0.4 1.8 4.1 2 6.9 6.1 6.9 10.7 0 6.7-5.7 12.1-12.7 12.1s-12.7-5.4-12.7-12.1c0-3.3 1.4-6.3 3.7-8.5l1.4 1.4c0.1-0.1 0.1-0.1 0.2-0.2l1.9-6.6-7.6 1.3 2.9 2.8c0 0-0.1 0.1-0.1 0.1-2.7 2.6-4.2 6-4.2 9.7 0 7.6 6.5 13.8 14.5 13.8s14.5-6.2 14.5-13.8c0-5.5-3.4-10.3-8.3-12.5z"></path>
</svg>
