<!-- Generated by IcoMoon.io -->
<svg version="1.1" xmlns="http://www.w3.org/2000/svg" width="64" height="64" viewBox="0 0 64 64">
<title>retake_date</title>
<path d="M16.8 19.2c-3.6 3.6-5.8 8.8-5.8 14.4-0.2 11.2 9 20.4 20.4 20.4s20.4-9.2 20.4-20.4c0-10.8-8.2-19.6-18.8-20.4v-6.8h3.6v-3.4h-10.6v3.4h3.6v6.6c-4.8 0.4-9.2 2.6-12.4 5.6l-0.2 0.8-0.2-0.2zM29.6 17.2v20.8l9.4-19.2c5.2 2.8 8.8 8.2 8.8 14.4 0 9-7.4 16.4-16.4 16.4s-16.4-7.4-16.4-16.4c0-8.2 6.4-15 14.6-16zM44.4 8.4c-0.6 1.4-0.6 2.2-0.8 3.6 8.2 4 13.8 12.2 13.8 21.4 0 13.4-11.4 24.2-25.4 24.2s-25.4-10.8-25.4-24.2c0-6.6 2.8-12.6 7.4-17l2.8 2.8c0.2-0.2 0.2-0.2 0.4-0.4l3.8-13.2-15.2 2.6 5.8 5.6c0 0-0.2 0.2-0.2 0.2-5.4 5.2-8.4 12-8.4 19.4 0 15.2 13 27.6 29 27.6s29-12.4 29-27.6c0-11-6.8-20.6-16.6-25z"></path>
</svg>
