<!-- Generated by IcoMoon.io -->
<svg version="1.1" xmlns="http://www.w3.org/2000/svg" width="64" height="64" viewBox="0 0 64 64">
<title>review</title>
<path d="M19.8 31.2c0-8.2 6.8-15 15-15 2.2 0 4.2 0.4 6.2 1.4v-1.6c0-3.4-2.6-6-6-6h-24c-3.4 0-6 2.6-6 6v32c0 3.4 2.6 6 6 6h24c3.4 0 6-2.6 6-6v-3.2c-1.8 0.8-4 1.4-6.2 1.4-8.4 0-15-6.8-15-15zM48.2 39.2l-2.2-0.8c1.2-2 2-4.4 2-6.8 0-7-5.6-12.6-12.6-12.6s-12.6 5.6-12.6 12.6c0 7 5.6 12.6 12.6 12.6 3.2 0 6-1.2 8.2-3l1 2 11 10.4 3.8-4-11.2-10.4zM35.4 41c-5.2 0-9.4-4.2-9.4-9.4s4.2-9.4 9.4-9.4c5.2 0 9.4 4.2 9.4 9.4s-4.2 9.4-9.4 9.4z"></path>
</svg>
