<!-- Generated by IcoMoon.io -->
<svg version="1.1" xmlns="http://www.w3.org/2000/svg" width="32" height="32" viewBox="0 0 32 32">
<title>review</title>
<path d="M9.9 15.6c0-4.1 3.4-7.5 7.5-7.5 1.1 0 2.1 0.2 3.1 0.7v-0.8c0-1.7-1.3-3-3-3h-12c-1.7 0-3 1.3-3 3v16c0 1.7 1.3 3 3 3h12c1.7 0 3-1.3 3-3v-1.6c-0.9 0.4-2 0.7-3.1 0.7-4.2 0-7.5-3.4-7.5-7.5zM24.1 19.6l-1.1-0.4c0.6-1 1-2.2 1-3.4 0-3.5-2.8-6.3-6.3-6.3s-6.3 2.8-6.3 6.3c0 3.5 2.8 6.3 6.3 6.3 1.6 0 3-0.6 4.1-1.5l0.5 1 5.5 5.2 1.9-2-5.6-5.2zM17.7 20.5c-2.6 0-4.7-2.1-4.7-4.7s2.1-4.7 4.7-4.7c2.6 0 4.7 2.1 4.7 4.7s-2.1 4.7-4.7 4.7z"></path>
</svg>
