<!-- Generated by IcoMoon.io -->
<svg version="1.1" xmlns="http://www.w3.org/2000/svg" width="32" height="32" viewBox="0 0 32 32">
<title>sales</title>
<path d="M19.985 22.772c0 0.869 2.879 1.574 5.775 1.574s5.244-0.705 5.244-1.574c0-0.867-2.348-1.572-5.244-1.572s-5.775 0.705-5.775 1.572zM25.761 24.872c-2.896 0-5.775-0.706-5.775-1.574v2.885c0 0.868 2.879 1.572 5.775 1.572s5.244-0.704 5.244-1.572v-2.885c0 0.868-2.348 1.574-5.244 1.574zM13.968 4.245c-2.896 0-4.932 0.705-4.932 1.574s2.035 1.573 4.932 1.573 5.025-0.704 5.025-1.573c0-0.869-2.129-1.574-5.025-1.574zM13.968 15.782c-2.896 0-4.932-0.705-4.932-1.573v2.884c0 0.868 2.035 1.572 4.932 1.572s5.025-0.704 5.025-1.572v-2.884c0 0.868-2.129 1.573-5.025 1.573zM13.968 7.917c-2.896 0-4.932-0.705-4.932-1.574v2.884c0 0.869 2.035 1.573 4.932 1.573s5.025-0.705 5.025-1.573v-2.884c0 0.868-2.129 1.574-5.025 1.574zM13.968 19.714c-2.896 0-4.932-0.703-4.932-1.573v2.884c0 0.869 2.035 1.574 4.932 1.574s5.025-0.705 5.025-1.574v-2.884c0 0.87-2.129 1.573-5.025 1.573zM0.995 15.257c0 0.869 2.223 1.573 5.119 1.573 0.815 0 1.209-0.057 1.897-0.157v-2.832c-0.688-0.1-1.082-0.157-1.897-0.157-2.896 0-5.119 0.705-5.119 1.573zM0.995 15.781v2.884c0 0.869 2.223 1.573 5.119 1.573 0.815 0 1.209-0.058 1.897-0.156v-2.885c-0.688 0.1-1.082 0.158-1.897 0.158-2.896 0-5.119-0.705-5.119-1.574zM28.001 10.159c0-0.87-2.348-1.574-5.244-1.574-1.029 0-1.986 0.091-2.797 0.245v2.658c0.811 0.153 1.768 0.243 2.797 0.243 2.896 0 5.244-0.704 5.244-1.572zM28.001 13.567v-2.884c0 0.868-2.348 1.572-5.244 1.572-1.029 0-1.986-0.090-2.797-0.244v2.885c0.811 0.153 1.768 0.243 2.797 0.243 2.896 0.001 5.244-0.703 5.244-1.572zM28.001 17.5v-2.883c0 0.869-2.348 1.572-5.244 1.572-1.029 0-1.986-0.090-2.797-0.244v2.884c0.811 0.154 1.768 0.244 2.797 0.244 2.896 0 5.244-0.704 5.244-1.573zM13.968 11.849c-2.896 0-4.932-0.705-4.932-1.572v2.884c0 0.868 2.035 1.572 4.932 1.572s5.025-0.704 5.025-1.572v-2.884c0 0.867-2.129 1.572-5.025 1.572z"></path>
</svg>
