<!-- Generated by IcoMoon.io -->
<svg version="1.1" xmlns="http://www.w3.org/2000/svg" width="64" height="64" viewBox="0 0 64 64">
<title>sales</title>
<path d="M39.97 45.544c0 1.738 5.758 3.148 11.55 3.148s10.488-1.41 10.488-3.148c0-1.734-4.696-3.144-10.488-3.144s-11.55 1.41-11.55 3.144zM51.522 49.744c-5.792 0-11.55-1.412-11.55-3.148v5.77c0 1.736 5.758 3.144 11.55 3.144s10.488-1.408 10.488-3.144v-5.77c0 1.736-4.696 3.148-10.488 3.148zM27.936 8.49c-5.792 0-9.864 1.41-9.864 3.148s4.070 3.146 9.864 3.146 10.050-1.408 10.050-3.146c0-1.738-4.258-3.148-10.050-3.148zM27.936 31.564c-5.792 0-9.864-1.41-9.864-3.146v5.768c0 1.736 4.070 3.144 9.864 3.144s10.050-1.408 10.050-3.144v-5.768c0 1.736-4.258 3.146-10.050 3.146zM27.936 15.834c-5.792 0-9.864-1.41-9.864-3.148v5.768c0 1.738 4.070 3.146 9.864 3.146s10.050-1.41 10.050-3.146v-5.768c0 1.736-4.258 3.148-10.050 3.148zM27.936 39.428c-5.792 0-9.864-1.406-9.864-3.146v5.768c0 1.738 4.070 3.148 9.864 3.148s10.050-1.41 10.050-3.148v-5.768c0 1.74-4.258 3.146-10.050 3.146zM1.99 30.514c0 1.738 4.446 3.146 10.238 3.146 1.63 0 2.418-0.114 3.794-0.314v-5.664c-1.376-0.2-2.164-0.314-3.794-0.314-5.792 0-10.238 1.41-10.238 3.146zM1.99 31.562v5.768c0 1.738 4.446 3.146 10.238 3.146 1.63 0 2.418-0.116 3.794-0.312v-5.77c-1.376 0.2-2.164 0.316-3.794 0.316-5.792 0-10.238-1.41-10.238-3.148zM56.002 20.318c0-1.74-4.696-3.148-10.488-3.148-2.058 0-3.972 0.182-5.594 0.49v5.316c1.622 0.306 3.536 0.486 5.594 0.486 5.792 0 10.488-1.408 10.488-3.144zM56.002 27.134v-5.768c0 1.736-4.696 3.144-10.488 3.144-2.058 0-3.972-0.18-5.594-0.488v5.77c1.622 0.306 3.536 0.486 5.594 0.486 5.792 0.002 10.488-1.406 10.488-3.144zM56.002 35v-5.766c0 1.738-4.696 3.144-10.488 3.144-2.058 0-3.972-0.18-5.594-0.488v5.768c1.622 0.308 3.536 0.488 5.594 0.488 5.792 0 10.488-1.408 10.488-3.146zM27.936 23.698c-5.792 0-9.864-1.41-9.864-3.144v5.768c0 1.736 4.070 3.144 9.864 3.144s10.050-1.408 10.050-3.144v-5.768c0 1.734-4.258 3.144-10.050 3.144z"></path>
</svg>
