<!-- Generated by IcoMoon.io -->
<svg version="1.1" xmlns="http://www.w3.org/2000/svg" width="64" height="64" viewBox="0 0 64 64">
<title>scorm</title>
<path d="M24.374 6.076h-11.566l-8.954 11.818h19.808l0.712-11.818zM60.146 17.894l-8.958-11.818h-12.226l0.848 11.818h20.336zM35.802 6.076h-7.934v23.906h7.934v-23.906zM31.466 40.094c-0.262-0.352-0.628-0.528-1.102-0.528-1.032 0-1.554 0.84-1.578 2.516v3.996c0.012 0.734 0.098 1.29 0.264 1.66 0.252 0.55 0.69 0.824 1.314 0.824 0.722 0 1.192-0.368 1.398-1.102 0.098-0.34 0.152-0.8 0.164-1.382l0.050-1.972-0.050-2.024c-0.022-0.942-0.174-1.602-0.46-1.988zM38.998 39.782h-1.102v3.386h1.296c0.668 0 1.118-0.144 1.348-0.426 0.23-0.286 0.348-0.77 0.348-1.45 0-0.382-0.106-0.718-0.312-1.008-0.21-0.292-0.5-0.46-0.872-0.504h-0.706zM39.898 34.050h-16v-11.96h-20.044v35.834h56.032v-35.834h-19.986v11.96zM15.876 49.458c-0.652 0.598-1.524 0.894-2.618 0.894-1.246 0-2.148-0.328-2.706-0.984-0.59-0.692-0.87-1.656-0.836-2.894v-0.59h2.236v0.754c0 0.594 0.064 1.036 0.196 1.316 0.186 0.406 0.534 0.61 1.046 0.61 0.424 0 0.768-0.132 1.030-0.398 0.26-0.262 0.392-0.61 0.392-1.040 0-0.692-0.408-1.332-1.224-1.914-0.516-0.36-1.29-0.894-2.324-1.602-0.836-0.726-1.252-1.558-1.252-2.5 0-1.028 0.302-1.832 0.912-2.41 0.608-0.582 1.428-0.876 2.458-0.876 2.28 0 3.42 1.312 3.42 3.93h-2.122c0-1.422-0.45-2.136-1.348-2.136-0.352 0-0.636 0.114-0.856 0.344-0.218 0.234-0.328 0.524-0.328 0.876 0 0.558 0.422 1.128 1.266 1.708 1.49 1.020 2.274 1.57 2.352 1.644 0.854 0.79 1.282 1.704 1.282 2.746 0 1.084-0.324 1.924-0.976 2.522zM22.802 40.258c-0.222-0.45-0.562-0.672-1.028-0.672-0.804 0-1.256 0.542-1.356 1.626 0 0.218-0.012 0.582-0.034 1.086v3.356c0 0.57 0.034 1.074 0.1 1.512 0.132 0.93 0.56 1.398 1.282 1.398 0.41 0 0.726-0.14 0.95-0.414s0.334-0.618 0.334-1.036c0.032-0.262 0.048-0.7 0.048-1.316h2.152c0 1.426-0.222 2.496-0.674 3.208-0.568 0.898-1.524 1.348-2.86 1.348-0.846 0-1.562-0.2-2.154-0.606-0.636-0.442-1.036-1.058-1.2-1.86-0.188-0.91-0.28-2.23-0.28-3.96 0-1.25 0.050-2.184 0.15-2.796 0.352-2.2 1.536-3.304 3.55-3.304 1.254 0 2.162 0.368 2.724 1.106 0.496 0.632 0.742 1.598 0.742 2.89h-2.202v-0.296c0.026-0.454-0.056-0.876-0.244-1.27zM34.198 46.012c-0.122 1.402-0.43 2.442-0.922 3.11-0.614 0.82-1.582 1.23-2.91 1.23-1.83 0-2.984-0.722-3.468-2.168-0.274-0.812-0.41-2.172-0.41-4.078 0-1.292 0.054-2.262 0.164-2.91 0.382-2.246 1.622-3.372 3.714-3.372 2.554 0 3.832 1.45 3.832 4.34 0 0.2 0.008 0.5 0.024 0.906s0.024 0.708 0.024 0.902c-0.002 0.966-0.018 1.646-0.048 2.040zM44.604 38.090h3.356l1.648 7.754 1.614-7.754h3.394v11.984h-2.122v-10.606l-2.204 10.606h-1.348l-2.254-10.606 0.066 10.606h-2.152v-11.984zM43.138 41.164c0 1.468-0.562 2.368-1.692 2.696 0.958 0.262 1.478 0.774 1.562 1.528 0.066 0.594 0.098 1.562 0.098 2.91 0 0.824 0.222 1.414 0.672 1.778h-2.676c-0.122-0.472-0.188-0.93-0.2-1.382v-1.726c-0.012-0.632-0.094-1.106-0.246-1.414-0.21-0.45-0.594-0.672-1.152-0.672-0.196-0.032-0.41-0.046-0.64-0.046h-0.968v5.242h-2.156v-11.984h3.996c2.27-0.004 3.402 1.020 3.402 3.070z"></path>
</svg>
