<!-- Generated by IcoMoon.io -->
<svg version="1.1" xmlns="http://www.w3.org/2000/svg" width="32" height="32" viewBox="0 0 32 32">
<title>scorm</title>
<path d="M12.187 3.038h-5.783l-4.477 5.909h9.904l0.356-5.909zM30.073 8.947l-4.479-5.909h-6.113l0.424 5.909h10.168zM17.901 3.038h-3.967v11.953h3.967v-11.953zM15.733 20.047c-0.131-0.176-0.314-0.264-0.551-0.264-0.516 0-0.777 0.42-0.789 1.258v1.998c0.006 0.367 0.049 0.645 0.132 0.83 0.126 0.275 0.345 0.412 0.657 0.412 0.361 0 0.596-0.184 0.699-0.551 0.049-0.17 0.076-0.4 0.082-0.691l0.025-0.986-0.025-1.012c-0.011-0.471-0.087-0.801-0.23-0.994zM19.499 19.891h-0.551v1.693h0.648c0.334 0 0.559-0.072 0.674-0.213 0.115-0.143 0.174-0.385 0.174-0.725 0-0.191-0.053-0.359-0.156-0.504-0.105-0.146-0.25-0.23-0.436-0.252h-0.353zM19.949 17.025h-8v-5.98h-10.022v17.917h28.016v-17.917h-9.993v5.98zM7.938 24.729c-0.326 0.299-0.762 0.447-1.309 0.447-0.623 0-1.074-0.164-1.353-0.492-0.295-0.346-0.435-0.828-0.418-1.447v-0.295h1.118v0.377c0 0.297 0.032 0.518 0.098 0.658 0.093 0.203 0.267 0.305 0.523 0.305 0.212 0 0.384-0.066 0.515-0.199 0.13-0.131 0.196-0.305 0.196-0.52 0-0.346-0.204-0.666-0.612-0.957-0.258-0.18-0.645-0.447-1.162-0.801-0.418-0.363-0.626-0.779-0.626-1.25 0-0.514 0.151-0.916 0.456-1.205 0.304-0.291 0.714-0.438 1.229-0.438 1.14 0 1.71 0.656 1.71 1.965h-1.061c0-0.711-0.225-1.068-0.674-1.068-0.176 0-0.318 0.057-0.428 0.172-0.109 0.117-0.164 0.262-0.164 0.438 0 0.279 0.211 0.564 0.633 0.854 0.745 0.51 1.137 0.785 1.176 0.822 0.427 0.395 0.641 0.852 0.641 1.373 0 0.542-0.162 0.962-0.488 1.261zM11.401 20.129c-0.111-0.225-0.281-0.336-0.514-0.336-0.402 0-0.628 0.271-0.678 0.813 0 0.109-0.006 0.291-0.017 0.543v1.678c0 0.285 0.017 0.537 0.050 0.756 0.066 0.465 0.28 0.699 0.641 0.699 0.205 0 0.363-0.070 0.475-0.207s0.167-0.309 0.167-0.518c0.016-0.131 0.024-0.35 0.024-0.658h1.076c0 0.713-0.111 1.248-0.337 1.604-0.284 0.449-0.762 0.674-1.43 0.674-0.423 0-0.781-0.1-1.077-0.303-0.318-0.221-0.518-0.529-0.6-0.93-0.094-0.455-0.14-1.115-0.14-1.98 0-0.625 0.025-1.092 0.075-1.398 0.176-1.1 0.768-1.652 1.775-1.652 0.627 0 1.081 0.184 1.362 0.553 0.248 0.316 0.371 0.799 0.371 1.445h-1.101v-0.148c0.013-0.227-0.028-0.438-0.122-0.635zM17.099 23.006c-0.061 0.701-0.215 1.221-0.461 1.555-0.307 0.41-0.791 0.615-1.455 0.615-0.915 0-1.492-0.361-1.734-1.084-0.137-0.406-0.205-1.086-0.205-2.039 0-0.646 0.027-1.131 0.082-1.455 0.191-1.123 0.811-1.686 1.857-1.686 1.277 0 1.916 0.725 1.916 2.17 0 0.1 0.004 0.25 0.012 0.453s0.012 0.354 0.012 0.451c-0.001 0.483-0.009 0.823-0.024 1.020zM22.302 19.045h1.678l0.824 3.877 0.807-3.877h1.697v5.992h-1.061v-5.303l-1.102 5.303h-0.674l-1.127-5.303 0.033 5.303h-1.076v-5.992zM21.569 20.582c0 0.734-0.281 1.184-0.846 1.348 0.479 0.131 0.739 0.387 0.781 0.764 0.033 0.297 0.049 0.781 0.049 1.455 0 0.412 0.111 0.707 0.336 0.889h-1.338c-0.061-0.236-0.094-0.465-0.1-0.691v-0.863c-0.006-0.316-0.047-0.553-0.123-0.707-0.105-0.225-0.297-0.336-0.576-0.336-0.098-0.016-0.205-0.023-0.32-0.023h-0.484v2.621h-1.078v-5.992h1.998c1.135-0.002 1.701 0.51 1.701 1.535z"></path>
</svg>
