<!-- Generated by IcoMoon.io -->
<svg version="1.1" xmlns="http://www.w3.org/2000/svg" width="32" height="32" viewBox="0 0 32 32">
<title>send_invitation</title>
<path d="M28.6 11.1c0 0-12.1 8.4-13.1 9.1-1.6 1.2-3 1.4-4.3 0-1.6-1.9-6.2-6.8-6.2-6.8s-0.3 0.3-0.3 0.8c-0.1 0.4-1.4 7.8-1.5 8.5-0.1 0.3 0 0.7 0.1 1 0 0 4.9-3.5 5.3-3.8s1.1 0.6 0.7 0.9c-4.6 3.4-5.7 4-5 4 0 0 14.4 1.8 18.8 2.4 0.9 0.1 1.5 0.1 2.1-0.2 0 0.1-6.8-6-6.8-6-0.5-0.5 0.4-1.4 0.9-1 0 0 7 6 7 6.1 0.5-0.5 0.6-1 0.7-1.6 0.2-1.4 1.8-11.2 1.9-12.1 0.1-1-0.3-1.3-0.3-1.3zM8.9 13.2c0.1-0.5 0.4-1.3 1.3-1.4 0.4-0.1 9.1-1 10.9-1.2 1.3-0.2 1.9 0.4 1.8 1.3-0.1 0.3-0.3 1.7-0.3 1.7l5-3.7c0 0-8.7-4.2-9.6-4.7-1.7-0.8-2.7-0.2-4.2 0.9-1.4 1.1-7.8 6.2-7.8 6.2l3 3.3c-0.1 0.1-0.2-1.6-0.1-2.4z"></path>
</svg>
