<!-- Generated by IcoMoon.io -->
<svg version="1.1" xmlns="http://www.w3.org/2000/svg" width="64" height="64" viewBox="0 0 64 64">
<title>send_announcements</title>
<path d="M27.916 40.628c3.106 3.106 6.33 2.96 9.58-0.29s17.55-17.314 19.864-19.626c2.312-2.31 0.070-6.050-2.238-6.050h-44.684c-2.744 0-4.55 4.174-2.238 6.484 2.31 2.314 16.032 15.8 19.716 19.482zM50.438 20.718c0 0-12.758 12.554-14.71 14.512-1.958 1.956-4.144 2.042-6.014 0.172-2.216-2.214-15.088-14.712-15.088-14.712l35.812 0.028zM15.524 44.648c-0.83 0-2.886-0.422-2.886-3.454 0-3.614-0.022-12.018-0.022-12.018l-5.96-5.936v23.164c0 2.394 1.94 4.332 4.332 4.332h17.332l4.254-6.086c0-0.002-13.13-0.002-17.050-0.002zM63.344 44.5l-14.626-11.914v6.108c-10.046 2.938-20.028 14.31-20.028 25.306 1.602-4.95 14.576-12.828 20.030-14.238v6.876l14.624-12.138z"></path>
</svg>
