<!-- Generated by IcoMoon.io -->
<svg version="1.1" xmlns="http://www.w3.org/2000/svg" width="32" height="32" viewBox="0 0 32 32">
<title>send_announcements</title>
<path d="M13.958 20.314c1.553 1.553 3.165 1.48 4.79-0.145s8.775-8.657 9.932-9.813c1.156-1.155 0.035-3.025-1.119-3.025h-22.342c-1.372 0-2.275 2.087-1.119 3.242 1.155 1.157 8.016 7.9 9.858 9.741zM25.219 10.359c0 0-6.379 6.277-7.355 7.256-0.979 0.978-2.072 1.021-3.007 0.086-1.108-1.107-7.544-7.356-7.544-7.356l17.906 0.014zM7.762 22.324c-0.415 0-1.443-0.211-1.443-1.727 0-1.807-0.011-6.009-0.011-6.009l-2.98-2.968v11.582c0 1.197 0.97 2.166 2.166 2.166h8.666l2.127-3.043c0-0.001-6.565-0.001-8.525-0.001zM31.672 22.25l-7.313-5.957v3.054c-5.023 1.469-10.014 7.155-10.014 12.653 0.801-2.475 7.288-6.414 10.015-7.119v3.438l7.312-6.069z"></path>
</svg>
