<!-- Generated by IcoMoon.io -->
<svg version="1.1" xmlns="http://www.w3.org/2000/svg" width="64" height="64" viewBox="0 0 64 64">
<title>send_invitation</title>
<path d="M57.2 22.2c0 0-24.2 16.8-26.2 18.2-3.2 2.4-6 2.8-8.6 0-3.2-3.8-12.4-13.6-12.4-13.6s-0.6 0.6-0.6 1.6c-0.2 0.8-2.8 15.6-3 17-0.2 0.6 0 1.4 0.2 2 0 0 9.8-7 10.6-7.6s2.2 1.2 1.4 1.8c-9.2 6.8-11.4 8-10 8 0 0 28.8 3.6 37.6 4.8 1.8 0.2 3 0.2 4.2-0.4 0 0.2-13.6-12-13.6-12-1-1 0.8-2.8 1.8-2 0 0 14 12 14 12.2 1-1 1.2-2 1.4-3.2 0.4-2.8 3.6-22.4 3.8-24.2 0.2-2-0.6-2.6-0.6-2.6zM17.8 26.4c0.2-1 0.8-2.6 2.6-2.8 0.8-0.2 18.2-2 21.8-2.4 2.6-0.4 3.8 0.8 3.6 2.6-0.2 0.6-0.6 3.4-0.6 3.4l10-7.4c0 0-17.4-8.4-19.2-9.4-3.4-1.6-5.4-0.4-8.4 1.8-2.8 2.2-15.6 12.4-15.6 12.4l6 6.6c-0.2 0.2-0.4-3.2-0.2-4.8z"></path>
</svg>
