<!-- Generated by IcoMoon.io -->
<svg version="1.1" xmlns="http://www.w3.org/2000/svg" width="64" height="64" viewBox="0 0 64 64">
<title>settings</title>
<path d="M38.5 28.98c-1.864-2.716 1.942-6.442 1.942-6.442l-5.278-5.586c0 0-4.114 4.038-6.364 2.712-2.25-1.316-1.55-5.818-1.55-5.818h-7.994c0 0 1.008 4.268-2.096 5.818-3.104 1.556-6.286-2.48-6.286-2.48l-5.588 5.432c0 0 4.888 3.336 2.328 6.906-1.396 1.95-5.664 1.628-5.664 1.628v7.68c0 0 5.276-0.304 6.286 2.406 1.008 2.718-2.716 5.824-2.716 5.824l5.432 5.59c0 0 4.192-3.882 6.52-2.566 2.328 1.32 1.786 6.054 1.786 6.054h7.758c0 0-0.542-5.042 2.714-6.208 3.262-1.164 5.434 2.718 5.434 2.718l5.82-5.668c-1.554-1.554-3.882-4.426-2.328-6.754 1.55-2.324 5.586-1.16 5.586-1.16v-8.302c0 0.004-3.878 0.934-5.742-1.784zM23.214 47.372c-6.9 0-12.494-5.594-12.494-12.496 0-6.894 5.594-12.49 12.494-12.49s12.494 5.596 12.494 12.49c0 6.902-5.594 12.496-12.494 12.496zM59.128 15.546c-0.946-1.38 0.988-3.274 0.988-3.274l-2.68-2.836c0 0-2.090 2.048-3.234 1.376-1.14-0.666-0.79-2.956-0.79-2.956h-4.058c0 0 0.512 2.168-1.062 2.956-1.578 0.79-3.192-1.26-3.192-1.26l-2.84 2.76c0 0 2.484 1.696 1.184 3.508-0.71 0.986-2.878 0.826-2.878 0.826v3.902c0 0 2.68-0.156 3.196 1.224 0.512 1.376-1.382 2.954-1.382 2.954l2.762 2.838c0 0 2.128-1.964 3.308-1.3 1.184 0.674 0.906 3.074 0.906 3.074h3.942c0 0-0.274-2.56 1.378-3.148 1.656-0.59 2.762 1.376 2.762 1.376l2.954-2.876c-0.786-0.79-1.968-2.248-1.18-3.43 0.786-1.182 2.836-0.592 2.836-0.592v-4.214c-0.002 0-1.97 0.472-2.92-0.908zM51.368 22.47c-2.172 0-3.93-1.758-3.93-3.93 0-2.17 1.758-3.928 3.93-3.928 2.168 0 3.93 1.758 3.93 3.928-0.002 2.172-1.762 3.93-3.93 3.93zM23.214 26.25c-4.766 0-8.626 3.862-8.626 8.626 0 4.77 3.862 8.628 8.626 8.628 4.766 0 8.63-3.86 8.63-8.628 0-4.764-3.864-8.626-8.63-8.626z"></path>
</svg>
