<!-- Generated by IcoMoon.io -->
<svg version="1.1" xmlns="http://www.w3.org/2000/svg" width="32" height="32" viewBox="0 0 32 32">
<title>settings</title>
<path d="M19.25 14.49c-0.932-1.358 0.971-3.221 0.971-3.221l-2.639-2.793c0 0-2.057 2.019-3.182 1.356-1.125-0.658-0.775-2.909-0.775-2.909h-3.997c0 0 0.504 2.134-1.048 2.909-1.552 0.778-3.143-1.24-3.143-1.24l-2.794 2.716c0 0 2.444 1.668 1.164 3.453-0.698 0.975-2.832 0.814-2.832 0.814v3.84c0 0 2.638-0.152 3.143 1.203 0.504 1.359-1.358 2.912-1.358 2.912l2.716 2.795c0 0 2.096-1.941 3.26-1.283 1.164 0.66 0.893 3.027 0.893 3.027h3.879c0 0-0.271-2.521 1.357-3.104 1.631-0.582 2.717 1.359 2.717 1.359l2.91-2.834c-0.777-0.777-1.941-2.213-1.164-3.377 0.775-1.162 2.793-0.58 2.793-0.58v-4.151c0 0.002-1.939 0.467-2.871-0.892zM11.607 23.686c-3.45 0-6.247-2.797-6.247-6.248 0-3.447 2.797-6.245 6.247-6.245s6.247 2.798 6.247 6.245c0 3.451-2.797 6.248-6.247 6.248zM29.564 7.773c-0.473-0.69 0.494-1.637 0.494-1.637l-1.34-1.418c0 0-1.045 1.024-1.617 0.688-0.57-0.333-0.395-1.478-0.395-1.478h-2.029c0 0 0.256 1.084-0.531 1.478-0.789 0.395-1.596-0.63-1.596-0.63l-1.42 1.38c0 0 1.242 0.848 0.592 1.754-0.355 0.493-1.439 0.413-1.439 0.413v1.951c0 0 1.34-0.078 1.598 0.612 0.256 0.688-0.691 1.477-0.691 1.477l1.381 1.419c0 0 1.064-0.982 1.654-0.65 0.592 0.337 0.453 1.537 0.453 1.537h1.971c0 0-0.137-1.28 0.689-1.574 0.828-0.295 1.381 0.688 1.381 0.688l1.477-1.438c-0.393-0.395-0.984-1.124-0.59-1.715s1.418-0.296 1.418-0.296v-2.107c-0.001 0-0.985 0.236-1.46-0.454zM25.684 11.235c-1.086 0-1.965-0.879-1.965-1.965s0.879-1.964 1.965-1.964c1.084 0 1.965 0.879 1.965 1.964-0.001 1.086-0.881 1.965-1.965 1.965zM11.607 13.125c-2.383 0-4.313 1.931-4.313 4.313 0 2.385 1.931 4.314 4.313 4.314s4.315-1.93 4.315-4.314c0-2.382-1.932-4.313-4.315-4.313z"></path>
</svg>
