<!-- Generated by IcoMoon.io -->
<svg version="1.1" xmlns="http://www.w3.org/2000/svg" width="32" height="32" viewBox="0 0 32 32">
<title>share</title>
<path d="M12.354 15.486c0.014 0.146 0.021 0.296 0.021 0.445 0 0.207-0.014 0.408-0.039 0.606 1.254 0.717 8.045 4.162 8.871 4.541 0.81-0.703 1.866-1.129 3.022-1.129 2.544 0 4.606 2.061 4.606 4.604 0 2.547-2.063 4.607-4.606 4.607s-4.606-2.061-4.606-4.607c-0.723-0.404-8.755-4.508-9.229-4.834-0.744 0.516-1.648 0.82-2.624 0.82-2.544 0-4.605-2.063-4.605-4.608 0-2.543 2.062-4.604 4.605-4.604 1.027 0 1.976 0.337 2.742 0.904 1.273-0.429 8.612-4.173 9.125-4.439-0.009-0.114-0.014-0.229-0.014-0.346 0-2.542 2.063-4.605 4.606-4.605s4.606 2.063 4.606 4.605c0 2.545-2.063 4.605-4.606 4.605-1.219 0-2.327-0.473-3.151-1.246-0.976 0.56-7.443 4.18-8.724 4.681z"></path>
</svg>
