<!-- Generated by IcoMoon.io -->
<svg version="1.1" xmlns="http://www.w3.org/2000/svg" width="32" height="32" viewBox="0 0 32 32">
<title>shared_content</title>
<path d="M22.7 8.6c0.2-1.3 0.3-2.3 0.3-2.7 0.1-1.1-0.5-1.2-0.8-1.1s-3.6 0.9-4.3 1c-0.8 0.2-1 0.5-1.2 0.7s-0.2 0.2-0.6 0.9c-0.3 0.5-0.7 1-1.5 1.2-0.9 0.4-7.9 2.6-8.6 2.7-0.6 0.2-2.5 0.8-2.2 3.1 0.3 2.4 1.9 11.6 2 12 0 0.3 0.2 0.5 0.3 0.6 0-1.5 0-10.6 0-10.8 0-1.3 0.9-2.1 2.2-2.6 1.2-0.5 14.3-4.9 14.4-5zM17.4 16.7c1.4 0 2 0.4 2 0.4l3.5-1.9c0 0-0.1-2.3 3-2.9 0 0 0.7-2.3 0.8-2.7 0.3-1.1 0.2-1.6-0.6-1.3-0.6 0.2-13.7 4.7-16.1 5.5-2.2 0.7-2.6 1.8-2.7 3.3-0.1 1.4-0.2 8.4-0.2 9.8 0 0.2-0.2 0.3-0.2 0.3s0.3 0 0.4-0.1c1-0.6 7.9-4.7 7.9-4.7s-0.9-1-0.9-2.5c0-1.5 1.1-3.2 3.1-3.2zM25.9 22c-0.6 0-1.1 0.2-1.5 0.6-0.4-0.2-3.9-1.9-4.5-2.3 0-0.1 0-0.2 0-0.3s0-0.2 0-0.2c0.7-0.3 3.9-2.1 4.4-2.4 0.4 0.4 1 0.6 1.6 0.6 1.3 0 2.3-1 2.3-2.3s-1-2.3-2.3-2.3c-1.3 0-2.3 1-2.3 2.3 0 0.1 0 0.1 0 0.2-0.3 0.1-4 2-4.6 2.3-0.4-0.3-0.9-0.5-1.4-0.5-1.3 0-2.3 1-2.3 2.3s1 2.3 2.3 2.3c0.5 0 1-0.2 1.3-0.4 0.2 0.2 4.3 2.3 4.7 2.5 0 1.3 1 2.3 2.3 2.3s2.3-1 2.3-2.3c0-1.3-1-2.4-2.3-2.4z"></path>
</svg>
