<!-- Generated by IcoMoon.io -->
<svg version="1.1" xmlns="http://www.w3.org/2000/svg" width="64" height="64" viewBox="0 0 64 64">
<title>share</title>
<path d="M24.708 30.972c0.028 0.292 0.042 0.592 0.042 0.89 0 0.414-0.028 0.816-0.078 1.212 2.508 1.434 16.090 8.324 17.742 9.082 1.62-1.406 3.732-2.258 6.044-2.258 5.088 0 9.212 4.122 9.212 9.208 0 5.094-4.126 9.214-9.212 9.214s-9.212-4.122-9.212-9.214c-1.446-0.808-17.51-9.016-18.458-9.668-1.488 1.032-3.296 1.64-5.248 1.64-5.088 0-9.21-4.126-9.21-9.216 0-5.086 4.124-9.208 9.21-9.208 2.054 0 3.952 0.674 5.484 1.808 2.546-0.858 17.224-8.346 18.25-8.878-0.018-0.228-0.028-0.458-0.028-0.692 0-5.084 4.126-9.21 9.212-9.21s9.212 4.126 9.212 9.21c0 5.090-4.126 9.21-9.212 9.21-2.438 0-4.654-0.946-6.302-2.492-1.952 1.12-14.886 8.36-17.448 9.362z"></path>
</svg>
