<!-- Generated by IcoMoon.io -->
<svg version="1.1" xmlns="http://www.w3.org/2000/svg" width="64" height="64" viewBox="0 0 64 64">
<title>shared_content</title>
<path d="M45.4 17.2c0.4-2.6 0.6-4.6 0.6-5.4 0.2-2.2-1-2.4-1.6-2.2s-7.2 1.8-8.6 2c-1.6 0.4-2 1-2.4 1.4s-0.4 0.4-1.2 1.8c-0.6 1-1.4 2-3 2.4-1.8 0.8-15.8 5.2-17.2 5.4-1.2 0.4-5 1.6-4.4 6.2 0.6 4.8 3.8 23.2 4 24 0 0.6 0.4 1 0.6 1.2 0-3 0-21.2 0-21.6 0-2.6 1.8-4.2 4.4-5.2 2.4-1 28.6-9.8 28.8-10zM34.8 33.4c2.8 0 4 0.8 4 0.8l7-3.8c0 0-0.2-4.6 6-5.8 0 0 1.4-4.6 1.6-5.4 0.6-2.2 0.4-3.2-1.2-2.6-1.2 0.4-27.4 9.4-32.2 11-4.4 1.4-5.2 3.6-5.4 6.6-0.2 2.8-0.4 16.8-0.4 19.6 0 0.4-0.4 0.6-0.4 0.6s0.6 0 0.8-0.2c2-1.2 15.8-9.4 15.8-9.4s-1.8-2-1.8-5c0-3 2.2-6.4 6.2-6.4zM51.8 44c-1.2 0-2.2 0.4-3 1.2-0.8-0.4-7.8-3.8-9-4.6 0-0.2 0-0.4 0-0.6s0-0.4 0-0.4c1.4-0.6 7.8-4.2 8.8-4.8 0.8 0.8 2 1.2 3.2 1.2 2.6 0 4.6-2 4.6-4.6s-2-4.6-4.6-4.6c-2.6 0-4.6 2-4.6 4.6 0 0.2 0 0.2 0 0.4-0.6 0.2-8 4-9.2 4.6-0.8-0.6-1.8-1-2.8-1-2.6 0-4.6 2-4.6 4.6s2 4.6 4.6 4.6c1 0 2-0.4 2.6-0.8 0.4 0.4 8.6 4.6 9.4 5 0 2.6 2 4.6 4.6 4.6s4.6-2 4.6-4.6c0-2.6-2-4.8-4.6-4.8z"></path>
</svg>
