<!-- Generated by IcoMoon.io -->
<svg version="1.1" xmlns="http://www.w3.org/2000/svg" width="32" height="32" viewBox="0 0 32 32">
<title>signatures</title>
<path d="M31.9 7c-0.1-0.2-0.2-0.3-0.4-0.4l-5.2-2.1c-0.2-0.1-0.4-0.1-0.6 0s-0.3 0.3-0.4 0.5l-0.8 2.5-3.7 4.3c-0.2 0.2-0.2 0.4-0.2 0.6l0.7 10.5c0 0.3 0.2 0.5 0.5 0.6 0.2 0.1 0.4 0.1 0.6 0 0.1 0 0.1-0.1 0.2-0.1v0c0.1 0 0.1-0.1 0.1-0.1l7.6-6.9c0.2-0.2 0.3-0.4 0.3-0.6l0.4-5.9 1-2.2c0-0.3 0-0.5-0.1-0.7zM29.1 15.4l-5.1 4.7 2.7-6.8c0.2-0.4 0-0.8-0.4-1s-0.8 0-1 0.4l-2.7 6.9-0.4-7.2 3.3-3.8 4 1.5-0.4 5.3zM24.2 24.9c-1.1 1-1.2 1.3-1.7 0.9-0.5-0.3 0-1-1.3-1.3s-1.9 1.1-2.5 1.1c-0.1 0-0.2 0-0.3-0.2-0.2-0.4-0.1-1.3 0.5-2.5 0.2-0.4 0.1-0.9-0.2-1-0.3-0.2-0.7 0-0.9 0.4v0c-0.8 1.6-2 3.9-3 3.6-0.1 0-0.2-0.1-0.2-0.3-0.3-1.1 0.3-4.4 2.9-10.7 0.2-0.4 0.1-0.9-0.2-1s-0.7 0.1-0.9 0.5c-4.4 10.4-7.2 11-7.2 11-0.1 0-0.1 0-0.2-0.2s-0.4-1.7 2.1-7c0.2-0.4 0.1-0.9-0.2-1-0.3-0.2-0.7 0-0.9 0.4-3.7 7.7-8.9 7.9-9.3 7.9 0 0 0 0 0 0-0.4 0-0.7 0.4-0.8 0.8s0.2 0.8 0.5 0.8c0.1 0 1.2 0 3.4-1.1 1.2-0.6 2.6-1.5 4-3-0.4 1.4-0.4 2.5-0.1 3.2 0.4 0.5 0.8 0.8 1.3 0.8 0.8 0 2.4-1 4.5-4.3-0.3 1.5-0.4 2.8-0.2 3.7 0.2 0.6 0.5 1 1 1.1 0.2 0 0.3 0.1 0.5 0.1 0.9 0 1.7-0.7 2.4-1.6 0 0.1 0.1 0.2 0.1 0.4 0.2 0.6 0.7 0.9 1.3 0.9 0.9 0 1.8-0.4 2.5-1.3 0.1 0.5 0.2 0.9 0.5 1.2 0.7 0.6 1.8 0.3 3.2-1.1 0.3-0.3 0.4-0.8 0.2-1.1-0.1-0.4-0.5-0.4-0.8-0.1z"></path>
</svg>
