<!-- Generated by IcoMoon.io -->
<svg version="1.1" xmlns="http://www.w3.org/2000/svg" width="64" height="64" viewBox="0 0 64 64">
<title>signatures</title>
<path d="M63.8 14c-0.2-0.4-0.4-0.6-0.8-0.8l-10.4-4.2c-0.4-0.2-0.8-0.2-1.2 0s-0.6 0.6-0.8 1l-1.6 5-7.4 8.6c-0.4 0.4-0.4 0.8-0.4 1.2l1.4 21c0 0.6 0.4 1 1 1.2 0.4 0.2 0.8 0.2 1.2 0 0.2 0 0.2-0.2 0.4-0.2v0c0.2 0 0.2-0.2 0.2-0.2l15.2-13.8c0.4-0.4 0.6-0.8 0.6-1.2l0.8-11.8 2-4.4c0-0.6 0-1-0.2-1.4zM58.2 30.8l-10.2 9.4 5.4-13.6c0.4-0.8 0-1.6-0.8-2s-1.6 0-2 0.8l-5.4 13.8-0.8-14.4 6.6-7.6 8 3-0.8 10.6zM48.4 49.8c-2.2 2-2.4 2.6-3.4 1.8-1-0.6 0-2-2.6-2.6s-3.8 2.2-5 2.2c-0.2 0-0.4 0-0.6-0.4-0.4-0.8-0.2-2.6 1-5 0.4-0.8 0.2-1.8-0.4-2-0.6-0.4-1.4 0-1.8 0.8v0c-1.6 3.2-4 7.8-6 7.2-0.2 0-0.4-0.2-0.4-0.6-0.6-2.2 0.6-8.8 5.8-21.4 0.4-0.8 0.2-1.8-0.4-2s-1.4 0.2-1.8 1c-8.8 20.8-14.4 22-14.4 22-0.2 0-0.2 0-0.4-0.4s-0.8-3.4 4.2-14c0.4-0.8 0.2-1.8-0.4-2-0.6-0.4-1.4 0-1.8 0.8-7.4 15.4-17.8 15.8-18.6 15.8 0 0 0 0 0 0-0.8 0-1.4 0.8-1.6 1.6s0.4 1.6 1 1.6c0.2 0 2.4 0 6.8-2.2 2.4-1.2 5.2-3 8-6-0.8 2.8-0.8 5-0.2 6.4 0.8 1 1.6 1.6 2.6 1.6 1.6 0 4.8-2 9-8.6-0.6 3-0.8 5.6-0.4 7.4 0.4 1.2 1 2 2 2.2 0.4 0 0.6 0.2 1 0.2 1.8 0 3.4-1.4 4.8-3.2 0 0.2 0.2 0.4 0.2 0.8 0.4 1.2 1.4 1.8 2.6 1.8 1.8 0 3.6-0.8 5-2.6 0.2 1 0.4 1.8 1 2.4 1.4 1.2 3.6 0.6 6.4-2.2 0.6-0.6 0.8-1.6 0.4-2.2-0.2-0.8-1-0.8-1.6-0.2z"></path>
</svg>
