<!-- Generated by IcoMoon.io -->
<svg version="1.1" xmlns="http://www.w3.org/2000/svg" width="32" height="32" viewBox="0 0 32 32">
<title>skill_assessment</title>
<path d="M28.5 19.854h-25c-0.552 0-1 0.447-1 0.999 0 0.554 0.448 1.001 1 1.001h25c0.553 0 1-0.447 1-1.001 0-0.552-0.447-0.999-1-0.999zM13.2 15.654c0 1.377 1.116 2.493 2.493 2.493 1.376 0 2.492-1.116 2.492-2.493 0.906-0.644 4.94-3.985 4.94-3.985s-4.388 1.695-5.671 2.222c-0.451-0.449-1.074-0.729-1.762-0.729-1.376 0-2.492 1.116-2.492 2.492zM3.5 18.41h2c0.552 0 1-0.348 1-0.778s-0.448-0.777-1-0.777h-2c-0.552 0-1 0.348-1 0.777 0 0.431 0.448 0.778 1 0.778zM26.5 16.854c-0.553 0-1 0.348-1 0.777 0 0.431 0.447 0.778 1 0.778h2c0.553 0 1-0.348 1-0.778s-0.447-0.777-1-0.777h-2zM16.003 8.136c0.43 0 0.778-0.449 0.778-1.001v-2c0-0.552-0.349-1-0.778-1-0.431 0-0.778 0.448-0.778 1v2c0 0.552 0.347 1.001 0.778 1.001zM3.725 15.149l1.932 0.518c0.533 0.144 1.056-0.078 1.167-0.494 0.111-0.414-0.23-0.867-0.764-1.011l-1.932-0.518c-0.533-0.143-1.056 0.078-1.167 0.493-0.111 0.417 0.231 0.87 0.764 1.012zM18.461 8.46c0.416 0.11 0.868-0.231 1.012-0.766l0.518-1.932c0.143-0.533-0.078-1.056-0.494-1.167-0.414-0.112-0.867 0.23-1.010 0.765l-0.518 1.932c-0.144 0.535 0.077 1.056 0.492 1.168zM4.787 12.056l1.733 1.001c0.478 0.275 1.039 0.197 1.254-0.174 0.216-0.372 0.002-0.897-0.477-1.175l-1.731-1c-0.479-0.275-1.041-0.198-1.255 0.175-0.216 0.372-0.002 0.898 0.476 1.173zM20.752 9.411c0.373 0.213 0.898 0 1.175-0.479l1-1.732c0.276-0.478 0.198-1.039-0.175-1.254-0.372-0.216-0.897-0.001-1.174 0.478l-1 1.73c-0.276 0.478-0.198 1.040 0.174 1.257zM8.027 10.759c0.391 0.392 0.953 0.461 1.257 0.156s0.233-0.867-0.156-1.258l-1.415-1.413c-0.39-0.391-0.953-0.462-1.257-0.157s-0.234 0.868 0.157 1.258l1.414 1.414zM22.719 10.919c0.305 0.305 0.867 0.234 1.258-0.156l1.414-1.414c0.391-0.39 0.461-0.954 0.157-1.258s-0.867-0.234-1.257 0.157l-1.415 1.413c-0.391 0.392-0.46 0.955-0.157 1.258zM10.078 8.925c0.277 0.479 0.803 0.692 1.175 0.479 0.372-0.215 0.45-0.778 0.175-1.256l-1-1.732c-0.277-0.478-0.803-0.69-1.175-0.477s-0.45 0.776-0.175 1.254l1 1.732zM24.229 12.884c0.216 0.371 0.777 0.448 1.256 0.174l1.732-1.001c0.479-0.275 0.691-0.802 0.477-1.174s-0.777-0.449-1.256-0.174l-1.731 1c-0.479 0.276-0.693 0.803-0.478 1.175zM12.535 7.689c0.143 0.534 0.595 0.876 1.010 0.766 0.416-0.112 0.637-0.634 0.494-1.168l-0.518-1.933c-0.144-0.533-0.596-0.875-1.012-0.764-0.415 0.11-0.636 0.633-0.492 1.166l0.518 1.933zM25.179 15.175c0.111 0.415 0.634 0.637 1.167 0.494l1.932-0.519c0.534-0.143 0.876-0.595 0.766-1.011s-0.635-0.636-1.168-0.493l-1.932 0.518c-0.534 0.144-0.877 0.596-0.765 1.011z"></path>
</svg>
