<!-- Generated by IcoMoon.io -->
<svg version="1.1" xmlns="http://www.w3.org/2000/svg" width="64" height="64" viewBox="0 0 64 64">
<title>skill_assessment</title>
<path d="M57 39.708h-50c-1.104 0-2 0.894-2 1.998 0 1.108 0.896 2.002 2 2.002h50c1.106 0 2-0.894 2-2.002 0-1.104-0.894-1.998-2-1.998zM26.4 31.308c0 2.754 2.232 4.986 4.986 4.986 2.752 0 4.984-2.232 4.984-4.986 1.812-1.288 9.88-7.97 9.88-7.97s-8.776 3.39-11.342 4.444c-0.902-0.898-2.148-1.458-3.524-1.458-2.752 0-4.984 2.232-4.984 4.984zM7 36.82h4c1.104 0 2-0.696 2-1.556s-0.896-1.554-2-1.554h-4c-1.104 0-2 0.696-2 1.554 0 0.862 0.896 1.556 2 1.556zM53 33.708c-1.106 0-2 0.696-2 1.554 0 0.862 0.894 1.556 2 1.556h4c1.106 0 2-0.696 2-1.556s-0.894-1.554-2-1.554h-4zM32.006 16.272c0.86 0 1.556-0.898 1.556-2.002v-4c0-1.104-0.698-2-1.556-2-0.862 0-1.556 0.896-1.556 2v4c0 1.104 0.694 2.002 1.556 2.002zM7.45 30.298l3.864 1.036c1.066 0.288 2.112-0.156 2.334-0.988 0.222-0.828-0.46-1.734-1.528-2.022l-3.864-1.036c-1.066-0.286-2.112 0.156-2.334 0.986-0.222 0.834 0.462 1.74 1.528 2.024zM36.922 16.92c0.832 0.22 1.736-0.462 2.024-1.532l1.036-3.864c0.286-1.066-0.156-2.112-0.988-2.334-0.828-0.224-1.734 0.46-2.020 1.53l-1.036 3.864c-0.288 1.070 0.154 2.112 0.984 2.336zM9.574 24.112l3.466 2.002c0.956 0.55 2.078 0.394 2.508-0.348 0.432-0.744 0.004-1.794-0.954-2.35l-3.462-2c-0.958-0.55-2.082-0.396-2.51 0.35-0.432 0.744-0.004 1.796 0.952 2.346zM41.504 18.822c0.746 0.426 1.796 0 2.35-0.958l2-3.464c0.552-0.956 0.396-2.078-0.35-2.508-0.744-0.432-1.794-0.002-2.348 0.956l-2 3.46c-0.552 0.956-0.396 2.080 0.348 2.514zM16.054 21.518c0.782 0.784 1.906 0.922 2.514 0.312 0.608-0.608 0.466-1.734-0.312-2.516l-2.83-2.826c-0.78-0.782-1.906-0.924-2.514-0.314-0.608 0.608-0.468 1.736 0.314 2.516l2.828 2.828zM45.438 21.838c0.61 0.61 1.734 0.468 2.516-0.312l2.828-2.828c0.782-0.78 0.922-1.908 0.314-2.516s-1.734-0.468-2.514 0.314l-2.83 2.826c-0.782 0.784-0.92 1.91-0.314 2.516zM20.156 17.85c0.554 0.958 1.606 1.384 2.35 0.958 0.744-0.43 0.9-1.556 0.35-2.512l-2-3.464c-0.554-0.956-1.606-1.38-2.35-0.954s-0.9 1.552-0.35 2.508l2 3.464zM48.458 25.768c0.432 0.742 1.554 0.896 2.512 0.348l3.464-2.002c0.958-0.55 1.382-1.604 0.954-2.348s-1.554-0.898-2.512-0.348l-3.462 2c-0.958 0.552-1.386 1.606-0.956 2.35zM25.070 15.378c0.286 1.068 1.19 1.752 2.020 1.532 0.832-0.224 1.274-1.268 0.988-2.336l-1.036-3.866c-0.288-1.066-1.192-1.75-2.024-1.528-0.83 0.22-1.272 1.266-0.984 2.332l1.036 3.866zM50.358 30.35c0.222 0.83 1.268 1.274 2.334 0.988l3.864-1.038c1.068-0.286 1.752-1.19 1.532-2.022-0.222-0.83-1.27-1.272-2.336-0.986l-3.864 1.036c-1.068 0.288-1.754 1.192-1.53 2.022z"></path>
</svg>
