<!-- Generated by IcoMoon.io -->
<svg version="1.1" xmlns="http://www.w3.org/2000/svg" width="64" height="64" viewBox="0 0 64 64">
<title>social_folk</title>
<path d="M56.4 28.6c-2 0-3.4 1.6-3.4 3.4 0 0.2 0 0.2 0 0.2h-11.6c-1.4-1.4-3.2-2.4-5-3.2l12.8-9.2c0.6 0.8 1.6 1.2 2.6 1.2 2 0 3.4-1.6 3.4-3.4 0-2-1.6-3.4-3.4-3.4-2 0-3.4 1.6-3.4 3.4 0 0.6 0.2 1.2 0.6 1.8l-11 8c1.2-1.4 1.8-3.2 1.8-5.2 0-2.2-1-4.4-2.4-5.8l1.4-4.4c0.2 0 0.6 0.2 0.8 0.2 2 0 3.4-1.6 3.4-3.4 0-2-1.6-3.4-3.4-3.4-2 0-3.4 1.6-3.4 3.4 0 1.4 0.8 2.6 2.2 3.2l-1.4 4.2c-1.4-1.2-3.2-2-5.4-2-1.8 0-3.4 0.6-4.6 1.4l-1.2-3.6c1.2-0.6 2.2-1.8 2.2-3.2 0-2-1.6-3.4-3.4-3.4-2 0-3.4 1.6-3.4 3.4 0 2 1.6 3.4 3.4 3.4 0.2 0 0.6 0 0.8-0.2l1.2 4c-1.8 1.4-3.2 3.8-3.2 6.4 0 1.4 0.4 2.8 1 3.8l-9.2-6.8c0.4-0.6 0.6-1.2 0.6-1.8 0-2-1.6-3.4-3.4-3.4-2 0-3.4 1.6-3.4 3.4 0 2 1.6 3.4 3.4 3.4 1 0 2-0.4 2.6-1.2l10.2 7.4c0.6 0.6 1.2 1.2 1.8 1.8-1.8 0.6-3.6 1.8-5 3.2h-11c0 0 0-0.2 0-0.2 0-2-1.6-3.4-3.4-3.4-2 0-3.4 1.6-3.4 3.4 0 2 1.6 3.4 3.4 3.4 1.6 0 3-1.2 3.4-2.6h10.6c-2.4 2.4-3.8 5.8-4.2 9.6l-2.4 1.8c-0.6-0.8-1.6-1.2-2.6-1.2-2 0-3.4 1.6-3.4 3.4 0 2 1.6 3.4 3.4 3.4 2 0 3.4-1.6 3.4-3.4 0-0.6-0.2-1.2-0.6-1.8l2.2-1.6c0 0.2 0 0.4 0 0.8 0 0.2 0 0.8 0 1 0 0 2.8 2.2 6.6 1.4 0 0 0.8 0.6 3 1l-1.6 4.6c-0.2 0-0.6-0.2-0.8-0.2-2 0-3.4 1.6-3.4 3.4 0 2 1.6 3.4 3.4 3.4 2 0 3.4-1.6 3.4-3.4 0-1.4-0.8-2.6-2.2-3.2l1.6-4.8c1.2 0.2 2.6 0.4 4.4 0.4 2.2 0 3.8-0.2 5-0.4l1.6 4.8c-1.2 0.6-2.2 1.8-2.2 3.2 0 2 1.6 3.4 3.4 3.4 2 0 3.4-1.6 3.4-3.4 0-2-1.6-3.4-3.4-3.4-0.2 0-0.6 0-0.8 0.2l-1.6-4.8c1.4-0.4 2-0.8 2.2-0.8 4.2 1.2 6.8-1.4 6.8-1.4s0-1 0-1.2c0-0.4 0-0.8 0-1.2l2.8 2c-0.4 0.6-0.6 1.2-0.6 1.8 0 2 1.6 3.4 3.4 3.4 2 0 3.4-1.6 3.4-3.4 0-2-1.6-3.4-3.4-3.4-1 0-2 0.4-2.6 1.2l-3.2-2.2c-0.4-3.6-1.8-6.6-4.2-9h11.2c0.4 1.6 1.8 2.6 3.4 2.6 2 0 3.4-1.6 3.4-3.4 0-2-1.4-3.4-3.4-3.4zM31.6 16.8c3 0 5.6 2.4 5.6 5.6 0 3-2.4 5.6-5.6 5.6-3 0-5.6-2.4-5.6-5.6s2.4-5.6 5.6-5.6zM39.4 44.2c0-3.6-1.6-6-1.6-6l-1.6 0.6c1 2.4 1.2 4.2 1.2 5-0.2 0-1.8 1.4-5.8 1.4-4.2 0-5.8-1.4-5.8-1.4 0-0.8 0.2-2.8 1.2-5l-1.6-0.6c0 0-1.6 2.4-1.6 6-1.4 0-2.6 0-3.6-0.4 0-7 5.2-12.4 11.6-12.4s11.6 5.6 11.6 12.4c-0.8 0.2-2.4 0.4-4 0.4z"></path>
</svg>
