<!-- Generated by IcoMoon.io -->
<svg version="1.1" xmlns="http://www.w3.org/2000/svg" width="32" height="32" viewBox="0 0 32 32">
<title>social_folk</title>
<path d="M28.2 14.3c-1 0-1.7 0.8-1.7 1.7 0 0.1 0 0.1 0 0.1h-5.8c-0.7-0.7-1.6-1.2-2.5-1.6l6.4-4.6c0.3 0.4 0.8 0.6 1.3 0.6 1 0 1.7-0.8 1.7-1.7 0-1-0.8-1.7-1.7-1.7-1 0-1.7 0.8-1.7 1.7 0 0.3 0.1 0.6 0.3 0.9l-5.5 4c0.6-0.7 0.9-1.6 0.9-2.6 0-1.1-0.5-2.2-1.2-2.9l0.7-2.2c0.1 0 0.3 0.1 0.4 0.1 1 0 1.7-0.8 1.7-1.7 0-1-0.8-1.7-1.7-1.7-1 0-1.7 0.8-1.7 1.7 0 0.7 0.4 1.3 1.1 1.6l-0.7 2.1c-0.7-0.6-1.6-1-2.7-1-0.9 0-1.7 0.3-2.3 0.7l-0.6-1.8c0.6-0.3 1.1-0.9 1.1-1.6 0-1-0.8-1.7-1.7-1.7-1 0-1.7 0.8-1.7 1.7 0 1 0.8 1.7 1.7 1.7 0.1 0 0.3 0 0.4-0.1l0.6 2c-0.9 0.7-1.6 1.9-1.6 3.2 0 0.7 0.2 1.4 0.5 1.9l-4.6-3.4c0.2-0.3 0.3-0.6 0.3-0.9 0-1-0.8-1.7-1.7-1.7-1 0-1.7 0.8-1.7 1.7 0 1 0.8 1.7 1.7 1.7 0.5 0 1-0.2 1.3-0.6l5.1 3.7c0.3 0.3 0.6 0.6 0.9 0.9-0.9 0.3-1.8 0.9-2.5 1.6h-5.5c0 0 0-0.1 0-0.1 0-1-0.8-1.7-1.7-1.7-1 0-1.7 0.8-1.7 1.7 0 1 0.8 1.7 1.7 1.7 0.8 0 1.5-0.6 1.7-1.3h5.3c-1.2 1.2-1.9 2.9-2.1 4.8l-1.2 0.9c-0.3-0.4-0.8-0.6-1.3-0.6-1 0-1.7 0.8-1.7 1.7 0 1 0.8 1.7 1.7 1.7 1 0 1.7-0.8 1.7-1.7 0-0.3-0.1-0.6-0.3-0.9l1.1-0.8c0 0.1 0 0.2 0 0.4 0 0.1 0 0.4 0 0.5 0 0 1.4 1.1 3.3 0.7 0 0 0.4 0.3 1.5 0.5l-0.8 2.3c-0.1 0-0.3-0.1-0.4-0.1-1 0-1.7 0.8-1.7 1.7 0 1 0.8 1.7 1.7 1.7 1 0 1.7-0.8 1.7-1.7 0-0.7-0.4-1.3-1.1-1.6l0.8-2.4c0.6 0.1 1.3 0.2 2.2 0.2 1.1 0 1.9-0.1 2.5-0.2l0.8 2.4c-0.6 0.3-1.1 0.9-1.1 1.6 0 1 0.8 1.7 1.7 1.7 1 0 1.7-0.8 1.7-1.7 0-1-0.8-1.7-1.7-1.7-0.1 0-0.3 0-0.4 0.1l-0.8-2.4c0.7-0.2 1-0.4 1.1-0.4 2.1 0.6 3.4-0.7 3.4-0.7s0-0.5 0-0.6c0-0.2 0-0.4 0-0.6l1.4 1c-0.2 0.3-0.3 0.6-0.3 0.9 0 1 0.8 1.7 1.7 1.7 1 0 1.7-0.8 1.7-1.7 0-1-0.8-1.7-1.7-1.7-0.5 0-1 0.2-1.3 0.6l-1.6-1.1c-0.2-1.8-0.9-3.3-2.1-4.5h5.6c0.2 0.8 0.9 1.3 1.7 1.3 1 0 1.7-0.8 1.7-1.7 0-1-0.7-1.7-1.7-1.7zM15.8 8.4c1.5 0 2.8 1.2 2.8 2.8 0 1.5-1.2 2.8-2.8 2.8-1.5 0-2.8-1.2-2.8-2.8s1.2-2.8 2.8-2.8zM19.7 22.1c0-1.8-0.8-3-0.8-3l-0.8 0.3c0.5 1.2 0.6 2.1 0.6 2.5-0.1 0-0.9 0.7-2.9 0.7-2.1 0-2.9-0.7-2.9-0.7 0-0.4 0.1-1.4 0.6-2.5l-0.8-0.3c0 0-0.8 1.2-0.8 3-0.7 0-1.3 0-1.8-0.2 0-3.5 2.6-6.2 5.8-6.2s5.8 2.8 5.8 6.2c-0.4 0.1-1.2 0.2-2 0.2z"></path>
</svg>
