<!-- Generated by IcoMoon.io -->
<svg version="1.1" xmlns="http://www.w3.org/2000/svg" width="64" height="64" viewBox="0 0 64 64">
<title>steps_configurator</title>
<path d="M28.8 26c0 0 0-16 0-16.8-0.2-0.2-0.6-0.8-1.6-1.2-1.6-0.4-3.4 0.2-11.6 8-0.2 1-2.6 12-4 18.2 3.4-2 7-4.6 11-4.8 1-4.8 6.2-3.4 6.2-3.4zM49 28c0 0-2.4-11-2.6-11.8-8.2-7.8-10.2-8.4-12-8-1 0.2-1.4 0.8-1.6 1.2 0 0.8 0 16.8 0 16.8s4.2-0.6 4.2 1.8c2.4 0 12 0 12 0zM9.8 40.6l-3-2.4 4.4-20h-2l-8.2 25.6h21.8c0 0 0-4.8 0-9.8-4.8 1-10.6 4.8-13 6.6zM56.2 27.8l-2.8-9.4h-2.6l2 9.4h3.4zM27 35.8h6v-6h-6v6zM37 32v4h26v-4h-26zM27 45.8h6v-6h-6v6zM37 46h26v-4h-26v4zM27 55.8h6v-6h-6v6zM37 56h26v-4h-26v4z"></path>
</svg>
