<!-- Generated by IcoMoon.io -->
<svg version="1.1" xmlns="http://www.w3.org/2000/svg" width="32" height="32" viewBox="0 0 32 32">
<title>steps_configurator</title>
<path d="M14.4 13c0 0 0-8 0-8.4-0.1-0.1-0.3-0.4-0.8-0.6-0.8-0.2-1.7 0.1-5.8 4-0.1 0.5-1.3 6-2 9.1 1.7-1 3.5-2.3 5.5-2.4 0.5-2.4 3.1-1.7 3.1-1.7zM24.5 14c0 0-1.2-5.5-1.3-5.9-4.1-3.9-5.1-4.2-6-4-0.5 0.1-0.7 0.4-0.8 0.6 0 0.4 0 8.4 0 8.4s2.1-0.3 2.1 0.9c1.2 0 6 0 6 0zM4.9 20.3l-1.5-1.2 2.2-10h-1l-4.1 12.8h10.9c0 0 0-2.4 0-4.9-2.4 0.5-5.3 2.4-6.5 3.3zM28.1 13.9l-1.4-4.7h-1.3l1 4.7h1.7zM13.5 17.9h3v-3h-3v3zM18.5 16v2h13v-2h-13zM13.5 22.9h3v-3h-3v3zM18.5 23h13v-2h-13v2zM13.5 27.9h3v-3h-3v3zM18.5 28h13v-2h-13v2z"></path>
</svg>
