<!-- Generated by IcoMoon.io -->
<svg version="1.1" xmlns="http://www.w3.org/2000/svg" width="64" height="64" viewBox="0 0 64 64">
<title>students-community</title>
<path d="M32.6 40.8l6.4-1.4c0 0 0.6-1.8 0.2-3 0 0-2.2-1.8-2.4-2.6s-0.4-0.2-0.4-1.6c0-1.4-0.6-8.4-0.6-8.4s1.8-2.4 3.2-0.2l1.6-2.6v3.8c0 0 2.2-7 4.8-8.8 0 0 5.2 3 5 9.6 0 6.6-0.8 8.4-0.8 8.4l-1.2 1 0.2 4.4 10.2 3c0 0-4.8-5.6-3.8-11.8 1.2-6-1-21.8-12.8-20.6-9.4 1-10.4 12.8-10.6 16 0-0.8 0.2 6.4-1 11.4 0.8 1.2 2 3.4 2 3.4zM26.4 38.2c0 0-3 6.8-8 6.4s-7.2-6.4-7.2-6.4-1.8 1-5.6 5.4c-3.8 4.4-3.6 10-3.6 10h33.8c0 0-0.4-6.2-3.2-9.8-2.8-3.2-6.2-5.6-6.2-5.6zM10 30.2c1.2 6.4 6.8 10.2 8.8 10.2s6.8-1.8 8.8-10c0 0 2.4-0.8 2.8-4s-2.2-3.2-2.2-3.2 3.8-11.8-9.6-12.2c-1.8 0-3.6 0.6-4 1.6-8.4 0.8-5.8 10.8-5.8 10.8s-2.2 0.2-1.6 3.6c0.6 3.4 2.8 3.2 2.8 3.2zM10.4 23.8h16.6c0 0 0.4 7-2.8 7s-5.2-4.2-5.2-4.2-1.2 4-5.2 4-3.4-6.8-3.4-6.8zM60.6 47.2c-0.6-1.4-1.6-2.6-3.8-3.4-2.2-0.6-8.4-3-8.4-3l-5.2 9.4-4.6-9.4c0 0-1.8 0.6-4.6 1.6 3.2 6.6 3.2 9.6 3.6 11.4h21.4c1 0 1-0.4 2-1.2 0.8-0.8 1-1 1-1s-0.8-3-1.4-4.4z"></path>
</svg>
