<!-- Generated by IcoMoon.io -->
<svg version="1.1" xmlns="http://www.w3.org/2000/svg" width="32" height="32" viewBox="0 0 32 32">
<title>students-community</title>
<path d="M16.3 20.4l3.2-0.7c0 0 0.3-0.9 0.1-1.5 0 0-1.1-0.9-1.2-1.3s-0.2-0.1-0.2-0.8c0-0.7-0.3-4.2-0.3-4.2s0.9-1.2 1.6-0.1l0.8-1.3v1.9c0 0 1.1-3.5 2.4-4.4 0 0 2.6 1.5 2.5 4.8 0 3.3-0.4 4.2-0.4 4.2l-0.6 0.5 0.1 2.2 5.1 1.5c0 0-2.4-2.8-1.9-5.9 0.6-3-0.5-10.9-6.4-10.3-4.7 0.5-5.2 6.4-5.3 8 0-0.4 0.1 3.2-0.5 5.7 0.4 0.6 1 1.7 1 1.7zM13.2 19.1c0 0-1.5 3.4-4 3.2s-3.6-3.2-3.6-3.2-0.9 0.5-2.8 2.7c-1.9 2.2-1.8 5-1.8 5h16.9c0 0-0.2-3.1-1.6-4.9-1.4-1.6-3.1-2.8-3.1-2.8zM5 15.1c0.6 3.2 3.4 5.1 4.4 5.1s3.4-0.9 4.4-5c0 0 1.2-0.4 1.4-2s-1.1-1.6-1.1-1.6 1.9-5.9-4.8-6.1c-0.9 0-1.8 0.3-2 0.8-4.2 0.4-2.9 5.4-2.9 5.4s-1.1 0.1-0.8 1.8c0.3 1.7 1.4 1.6 1.4 1.6zM5.2 11.9h8.3c0 0 0.2 3.5-1.4 3.5s-2.6-2.1-2.6-2.1-0.6 2-2.6 2-1.7-3.4-1.7-3.4zM30.3 23.6c-0.3-0.7-0.8-1.3-1.9-1.7-1.1-0.3-4.2-1.5-4.2-1.5l-2.6 4.7-2.3-4.7c0 0-0.9 0.3-2.3 0.8 1.6 3.3 1.6 4.8 1.8 5.7h10.7c0.5 0 0.5-0.2 1-0.6 0.4-0.4 0.5-0.5 0.5-0.5s-0.4-1.5-0.7-2.2z"></path>
</svg>
