<!-- Generated by IcoMoon.io -->
<svg version="1.1" xmlns="http://www.w3.org/2000/svg" width="32" height="32" viewBox="0 0 32 32">
<title>subtitles</title>
<path d="M26.7 4.2h-21.3c-1.3 0-2.4 1.1-2.4 2.4v12.2c0 1.3 1.1 2.4 2.4 2.4h8.5l5.7 6.2c1.2 1.1 2.5 0.1 2.5-0.5 0-0.7 0-5.6 0-5.6h4.6c1.3 0 2.4-1.1 2.4-2.4v-12.3c-0.1-1.3-1.1-2.4-2.4-2.4zM26 17.1c0 0.5-0.4 1.1-0.9 1.1h-4.4c-0.4 0-0.7 0.3-0.7 0.7v5.3l-5.1-5.9c-0.1-0.1-0.3-0.2-0.5-0.2h-7.5c-0.5 0-0.9-0.7-0.9-1.1v-9c0-0.5 0.4-0.9 0.9-0.9h18.2c0.5 0 0.9 0.4 0.9 0.9v9.1zM8 16.2h6v-2h-6v2zM20 16.2h4v-1.9h-4v1.9zM16 16.2h2v-1.9h-2v1.9z"></path>
</svg>
