<!-- Generated by IcoMoon.io -->
<svg version="1.1" xmlns="http://www.w3.org/2000/svg" width="64" height="64" viewBox="0 0 64 64">
<title>subtitles</title>
<path d="M53.4 8.4h-42.6c-2.6 0-4.8 2.2-4.8 4.8v24.4c0 2.6 2.2 4.8 4.8 4.8h17l11.4 12.4c2.4 2.2 5 0.2 5-1 0-1.4 0-11.2 0-11.2h9.2c2.6 0 4.8-2.2 4.8-4.8v-24.6c-0.2-2.6-2.2-4.8-4.8-4.8zM52 34.2c0 1-0.8 2.2-1.8 2.2h-8.8c-0.8 0-1.4 0.6-1.4 1.4v10.6l-10.2-11.8c-0.2-0.2-0.6-0.4-1-0.4h-15c-1 0-1.8-1.4-1.8-2.2v-18c0-1 0.8-1.8 1.8-1.8h36.4c1 0 1.8 0.8 1.8 1.8v18.2zM16 32.4h12v-4h-12v4zM40 32.4h8v-3.8h-8v3.8zM32 32.4h4v-3.8h-4v3.8z"></path>
</svg>
