<!-- Generated by IcoMoon.io -->
<svg version="1.1" xmlns="http://www.w3.org/2000/svg" width="64" height="64" viewBox="0 0 64 64">
<title>support_center</title>
<path d="M40 49c4.8-3 6-10.6 6-17.2 0-9.8-5.2-14.8-14.2-14.8s-14.2 5-14.2 14.8c0 6.4 1.2 14 6 17.2 1.2-1.6 3.8-4.4 8.4-4.4 4.2-0.2 7.2 3.2 8 4.4zM56 24.6v0c-3.4-11.6-12.6-20-24.4-20-11.8-0.2-20.8 8.4-23.6 20v0c-2.2 0-4 1.8-4 4v12.2c0 2.2 1.8 4 4 4h2c2.2 0 4-1.8 4-4v-12.2c0-1.4-0.6-2.6-1.8-3.4 1.4-5.4 4.8-10 8.8-12.8l2 3.2c0 0 3-3 8.6-3s9.4 2.8 9.4 2.8l1.8-3c4.4 2.8 7.2 7.4 8.8 12.8-1 0.8-1.6 2-1.6 3.4v12.2c0 0.8 0.2 1.4 0.6 2-2.6 5.6-7.6 9.6-14 10.8-0.2-2.8-2.4-5-5-5-2.8 0-5 2.4-5 5.4s2.2 5.4 5 5.4c1.2 0 2.2-0.4 3-1.2 8.8-0.8 16-5.8 19.6-13.6h1.8c2.2 0 4-1.8 4-4v-12.2c0-2-1.8-3.8-4-3.8z"></path>
</svg>
