<!-- Generated by IcoMoon.io -->
<svg version="1.1" xmlns="http://www.w3.org/2000/svg" width="64" height="64" viewBox="0 0 64 64">
<title>tags</title>
<path d="M25.8 11.8c0 0 0.2 0 0 0 0 0 0 0 0 0zM13.6 31.8c0-3 1.8-4.6 1.8-4.6l15.6-15.6c0 0-4.8 0-5 0-0.6 0-1.2 0.4-1.8 0.8l-20.8 21c-1 1-1 2.8 0 4l17.8 17.8c1 1 2.8 1 4 0l4.6-4.6-14.6-14.6c0 0-1.6-1.2-1.6-4.2zM58.2 8.2h-17c-1.2 0-1.6 0.2-2.6 1.2l-20.4 20.4c-1 1-1 2.8 0 4l17.8 17.8c1 1 2.8 1 4 0l20.6-20.6c0.6-0.6 1-1.2 1-3.2v-16.4c0-2.2-1.2-3.2-3.4-3.2zM51.6 23.2c-2.8 0-5-2.2-5-5s2.2-5 5-5c2.8 0 5 2.2 5 5 0 2.6-2.2 5-5 5z"></path>
</svg>
