<!-- Generated by IcoMoon.io -->
<svg version="1.1" xmlns="http://www.w3.org/2000/svg" width="64" height="64" viewBox="0 0 64 64">
<title>team_builder</title>
<path d="M51.4 26.6c1.2-1.4 2-3.2 2-5.4 0-4.4-3.4-8-7.8-8-1.6 0-3.2 0.6-4.4 1.4 0 1 0.4 2.8 0.4 3.2 1-1.2 2.4-2 4-2 2.8 0 5.2 2.4 5.2 5.4s-2.4 5.4-5.2 5.4c-1.2 0-2.6-0.4-3.6-1.2 0 1.4 0.4 3.2 0.4 3 1 0.4 2 0.8 3.2 0.8 1 0 2.2-0.2 3-0.6 4.6 1.6 7.8 6.2 7.8 11.8h-3c0-3.2-1.4-5.6-1.4-5.6l-1.4 0.6c1.4 3.4 1 5 1 5s-1.4 0.8-3.2 1.6c0 0.2-0.8 2.6-1 2.8 2.8-0.2 5.4-1.8 5.4-1.8s3.6 0 4.8 0c1.2 0 1.2-1.8 1.2-2.4 0.4-6.4-2.8-11.6-7.4-14zM32 25.2c4.4 0 7.8-3.6 7.8-8s-3.6-8-7.8-8c-4.4 0-7.8 3.6-7.8 8s3.6 8 7.8 8zM12.2 40.4c0 0-0.4-1.8 1-5l-1.4-0.6c0 0-1.4 2.4-1.4 5.6h-3c0-5.6 3.4-10.2 7.8-11.8 1 0.4 2 0.6 3 0.6 1.2 0 2.2-0.2 3.2-0.8 0 0.2 0.4-1.6 0.4-3-1 0.8-2.4 1.2-3.6 1.2-2.8 0-5.2-2.4-5.2-5.4s2.4-5.4 5.2-5.4c1.6 0 3.2 0.8 4 2 0-0.4 0.4-2.2 0.4-3.2-1-0.8-2.6-1.4-4.4-1.4-4.2 0-7.8 3.6-7.8 8 0 2 0.8 4 2 5.4-4.6 2.4-7.8 7.6-7.8 13.8 0 0.6 0 2.4 1.2 2.4s4.8 0 4.8 0 2.8 1.8 5.4 1.8c0-0.2-0.8-2.6-0.8-2.8-1.8-0.6-3-1.4-3-1.4zM32 26.4c-8 0-14.4 6.4-14.4 14.4s6.4 14.4 14.4 14.4c8 0 14.4-6.4 14.4-14.4s-6.4-14.4-14.4-14.4zM38.6 50.2l-12.6-12.4-1 1-0.8-0.8-0.8 0.8 0.8 0.8-1.6 1.6-3-3 1.6-1.6 0.8 0.8 0.8-0.8-0.8-0.8 4.6-4.4c0 0 2 1.2 4.4-1.2l1.4 1.4-3.8 3.8 12.6 12.6-2.6 2.2z"></path>
</svg>
