<!-- Generated by IcoMoon.io -->
<svg version="1.1" xmlns="http://www.w3.org/2000/svg" width="32" height="32" viewBox="0 0 32 32">
<title>team_builder</title>
<path d="M25.7 13.3c0.6-0.7 1-1.6 1-2.7 0-2.2-1.7-4-3.9-4-0.8 0-1.6 0.3-2.2 0.7 0 0.5 0.2 1.4 0.2 1.6 0.5-0.6 1.2-1 2-1 1.4 0 2.6 1.2 2.6 2.7s-1.2 2.7-2.6 2.7c-0.6 0-1.3-0.2-1.8-0.6 0 0.7 0.2 1.6 0.2 1.5 0.5 0.2 1 0.4 1.6 0.4 0.5 0 1.1-0.1 1.5-0.3 2.3 0.8 3.9 3.1 3.9 5.9h-1.5c0-1.6-0.7-2.8-0.7-2.8l-0.7 0.3c0.7 1.7 0.5 2.5 0.5 2.5s-0.7 0.4-1.6 0.8c0 0.1-0.4 1.3-0.5 1.4 1.4-0.1 2.7-0.9 2.7-0.9s1.8 0 2.4 0c0.6 0 0.6-0.9 0.6-1.2 0.2-3.2-1.4-5.8-3.7-7zM16 12.6c2.2 0 3.9-1.8 3.9-4s-1.8-4-3.9-4c-2.2 0-3.9 1.8-3.9 4s1.8 4 3.9 4zM6.1 20.2c0 0-0.2-0.9 0.5-2.5l-0.7-0.3c0 0-0.7 1.2-0.7 2.8h-1.5c0-2.8 1.7-5.1 3.9-5.9 0.5 0.2 1 0.3 1.5 0.3 0.6 0 1.1-0.1 1.6-0.4 0 0.1 0.2-0.8 0.2-1.5-0.5 0.4-1.2 0.6-1.8 0.6-1.4 0-2.6-1.2-2.6-2.7s1.2-2.7 2.6-2.7c0.8 0 1.6 0.4 2 1 0-0.2 0.2-1.1 0.2-1.6-0.5-0.4-1.3-0.7-2.2-0.7-2.1 0-3.9 1.8-3.9 4 0 1 0.4 2 1 2.7-2.3 1.2-3.9 3.8-3.9 6.9 0 0.3 0 1.2 0.6 1.2s2.4 0 2.4 0 1.4 0.9 2.7 0.9c0-0.1-0.4-1.3-0.4-1.4-0.9-0.3-1.5-0.7-1.5-0.7zM16 13.2c-4 0-7.2 3.2-7.2 7.2s3.2 7.2 7.2 7.2c4 0 7.2-3.2 7.2-7.2s-3.2-7.2-7.2-7.2zM19.3 25.1l-6.3-6.2-0.5 0.5-0.4-0.4-0.4 0.4 0.4 0.4-0.8 0.8-1.5-1.5 0.8-0.8 0.4 0.4 0.4-0.4-0.4-0.4 2.3-2.2c0 0 1 0.6 2.2-0.6l0.7 0.7-1.9 1.9 6.3 6.3-1.3 1.1z"></path>
</svg>
