<!-- Generated by IcoMoon.io -->
<svg version="1.1" xmlns="http://www.w3.org/2000/svg" width="64" height="64" viewBox="0 0 64 64">
<title>third_party_login2</title>
<path d="M26.8 44.6v0c1.6 1.4 3.8 1.4 5.2 0.2l11.4-10.4c0.8-0.6 1-1.6 1-2.4s-0.4-1.8-1-2.4l-11.4-10.2c-1.4-1.2-3.6-1.2-5 0l-0.2 0.2c-1.4 1.2-1.4 3.4 0 4.6l4 3.6c0 0 0.6 0.6 1.4 1.2h-20.8c-1.8 0-3.4 1.4-3.4 3s1.4 3 3.4 3h20.6c-2.2 2-5.2 5-5.2 5-1.4 1.4-1.4 3.4 0 4.6zM54.8 7.6c-0.6-0.6-1.4-1-2.4-1h-23c-2 0-3.4 1.4-3.4 3s1.4 3 3.4 3h20v38.8h-20c-1.8 0-3.4 1.4-3.4 3s1.4 3 3.4 3h23c1 0 1.8-0.4 2.4-1s1-1.4 1-2.2v-44.4c0.2-1-0.4-1.6-1-2.2z"></path>
</svg>
