<!-- Generated by IcoMoon.io -->
<svg version="1.1" xmlns="http://www.w3.org/2000/svg" width="32" height="32" viewBox="0 0 32 32">
<title>third_party_login2</title>
<path d="M13.4 22.3v0c0.8 0.7 1.9 0.7 2.6 0.1l5.7-5.2c0.4-0.3 0.5-0.8 0.5-1.2s-0.2-0.9-0.5-1.2l-5.7-5.1c-0.7-0.6-1.8-0.6-2.5 0l-0.1 0.1c-0.7 0.6-0.7 1.7 0 2.3l2 1.8c0 0 0.3 0.3 0.7 0.6h-10.4c-0.9 0-1.7 0.7-1.7 1.5s0.7 1.5 1.7 1.5h10.3c-1.1 1-2.6 2.5-2.6 2.5-0.7 0.7-0.7 1.7 0 2.3zM27.4 3.8c-0.3-0.3-0.7-0.5-1.2-0.5h-11.5c-1 0-1.7 0.7-1.7 1.5s0.7 1.5 1.7 1.5h10v19.4h-10c-0.9 0-1.7 0.7-1.7 1.5s0.7 1.5 1.7 1.5h11.5c0.5 0 0.9-0.2 1.2-0.5s0.5-0.7 0.5-1.1v-22.2c0.1-0.5-0.2-0.8-0.5-1.1z"></path>
</svg>
