<!-- Generated by IcoMoon.io -->
<svg version="1.1" xmlns="http://www.w3.org/2000/svg" width="64" height="64" viewBox="0 0 64 64">
<title>time</title>
<path d="M31.454 39.872l12.182 7.648-8.074-9.242-4.108 1.594zM33.282 20.688l-2.64-0.198-1.488 16.928h5.5l-1.372-16.73zM33.816 12.784v-2.768h6.118v-5.954h-15.964v5.954h6.052v2.776c-12.118 1.006-21.644 11.142-21.644 23.52 0 13.046 10.576 23.626 23.624 23.626 13.046 0 23.62-10.578 23.62-23.626 0-12.434-9.61-22.6-21.806-23.528zM32 55.144c-10.4 0-18.832-8.43-18.832-18.832s8.432-18.83 18.832-18.83c10.402 0 18.832 8.428 18.832 18.83s-8.43 18.832-18.832 18.832z"></path>
</svg>
