<!-- Generated by IcoMoon.io -->
<svg version="1.1" xmlns="http://www.w3.org/2000/svg" width="32" height="32" viewBox="0 0 32 32">
<title>time</title>
<path d="M15.727 19.936l6.091 3.824-4.037-4.621-2.054 0.797zM16.641 10.344l-1.32-0.099-0.744 8.464h2.75l-0.686-8.365zM16.908 6.392v-1.384h3.059v-2.977h-7.982v2.977h3.026v1.388c-6.059 0.503-10.822 5.571-10.822 11.76 0 6.523 5.288 11.813 11.812 11.813 6.523 0 11.81-5.289 11.81-11.813 0-6.217-4.805-11.3-10.903-11.764zM16 27.572c-5.2 0-9.416-4.215-9.416-9.416s4.216-9.415 9.416-9.415c5.201 0 9.416 4.214 9.416 9.415s-4.215 9.416-9.416 9.416z"></path>
</svg>
