<!-- Generated by IcoMoon.io -->
<svg version="1.1" xmlns="http://www.w3.org/2000/svg" width="64" height="64" viewBox="0 0 64 64">
<title>time_assined-enrolled</title>
<path d="M28.6 14.4v-7.6h4v-4h-12v4h4v7.6c-12 1-21.4 11-21.4 23.4 0 13 10.6 23.4 23.4 23.4s23.4-10.4 23.4-23.4c0.2-12.4-9.2-22.4-21.4-23.4zM26.8 56.4c-10.4 0-18.8-8.4-18.8-18.6 0-9.6 7.2-17.6 16.6-18.6v23.8l10.6-21.8c6 3.2 10 9.4 10 16.6 0.2 10.2-8.2 18.6-18.4 18.6zM55.8 16.6c-4.2-6.2-9.8-10-17.2-12-0.2 1.4-0.4 1.8-0.8 3.6 6.4 2 11 5 14.8 10.2-0.4 0.4-5 3.8-5 3.8l13 4.6v-14.4c0 0.2-4.8 4-4.8 4.2z"></path>
</svg>
