<!-- Generated by IcoMoon.io -->
<svg version="1.1" xmlns="http://www.w3.org/2000/svg" width="32" height="32" viewBox="0 0 32 32">
<title>time_assined-enrolled</title>
<path d="M14.3 7.2v-3.8h2v-2h-6v2h2v3.8c-6 0.5-10.7 5.5-10.7 11.7 0 6.5 5.3 11.7 11.7 11.7s11.7-5.2 11.7-11.7c0.1-6.2-4.6-11.2-10.7-11.7zM13.4 28.2c-5.2 0-9.4-4.2-9.4-9.3 0-4.8 3.6-8.8 8.3-9.3v11.9l5.3-10.9c3 1.6 5 4.7 5 8.3 0.1 5.1-4.1 9.3-9.2 9.3zM27.9 8.3c-2.1-3.1-4.9-5-8.6-6-0.1 0.7-0.2 0.9-0.4 1.8 3.2 1 5.5 2.5 7.4 5.1-0.2 0.2-2.5 1.9-2.5 1.9l6.5 2.3v-7.2c0 0.1-2.4 2-2.4 2.1z"></path>
</svg>
