<!-- Generated by IcoMoon.io -->
<svg version="1.1" xmlns="http://www.w3.org/2000/svg" width="64" height="64" viewBox="0 0 64 64">
<title>tools</title>
<path d="M53.8 14.8l-9.2 10.6-6-2.6-2.6-5.6 9.2-10.6c-5.2-0.2-12.4 2.6-15.2 5.8-2.8 3.4-2 10.6-1.4 12.4s0 2.8-1 3.8c-1 1-14.8 16.8-17.2 19.2s-1.4 6.6 0.2 8c1.6 1.4 5.8 1.8 8-0.6s14-17.4 15.4-18.8c1.4-1.4 1.8-2.8 2.8-2.8s9.6 1.8 15-4c5.6-5.4 2-14.8 2-14.8zM15 53.2c-1.2 0-2.2-1-2-2.2s1.4-2.2 2.6-2.2c1.2 0 2.2 1 2 2.2s-1.4 2.2-2.6 2.2z"></path>
</svg>
