<!-- Generated by IcoMoon.io -->
<svg version="1.1" xmlns="http://www.w3.org/2000/svg" width="32" height="32" viewBox="0 0 32 32">
<title>total_tasks</title>
<path d="M22.2 8.7c0.6-0.5 1-0.8 1-0.8l-0.1-0.2c-0.3 0.1-0.6 0.3-0.9 0.4v-0.4h-5.9v5.9h5.9v-4.9zM21.6 13h-1.8c0.3-1.6 1.1-2.9 1.8-3.7v3.7zM21.6 8.5c-1.8 1.2-2.2 2.6-2.2 2.6l-1-2-1.4 1.1 2.3 2.8h-2.4v-4.7h4.7c0 0 0 0.2 0 0.2zM15.1 16.6h-5.9v1.8h5.9v-1.8zM15.1 20.1h-5.9v1.8h5.9v-1.8zM24.8 3h-17.6c-0.9 0-1.5 0.7-1.5 1.5v22.9c0 0.8 0.7 1.5 1.5 1.5h13.3l5.8-5.2v-19.2c0-0.8-0.6-1.5-1.5-1.5zM24 23.7h-4.1v2.9h-11.9v-21.2h16v18.3zM15.1 11.9h-5.9v1.7h5.9v-1.7zM15.1 8.3h-5.9v1.8h5.9v-1.8zM22.2 17c0.6-0.5 1-0.8 1-0.8l-0.1-0.2c-0.3 0.1-0.6 0.3-0.9 0.4v-0.4h-5.9v5.9h5.9v-4.9zM21.6 21.3h-1.8c0.3-1.6 1.1-2.9 1.8-3.7v3.7zM21.6 16.8c-1.8 1.2-2.2 2.6-2.2 2.6l-1-2-1.4 1.1 2.3 2.8h-2.4v-4.7h4.7c0 0 0 0.2 0 0.2z"></path>
</svg>
