<!-- Generated by IcoMoon.io -->
<svg version="1.1" xmlns="http://www.w3.org/2000/svg" width="64" height="64" viewBox="0 0 64 64">
<title>total_checklist</title>
<path d="M43 51.4c-0.6 1.8-1.8 4.2-1.8 4.2h2c2.4 0 4.6-2 4.6-4.6v-5.4c0 0-3.8 4-3.8 4.2 0 0.6-0.4 1.2-1 1.6zM15.8 51.8c-0.8 0-2-0.6-2-2.2v-38.4c0-1.4 0.8-2.2 2.2-2.2s14.2 0 14.2 0 0 8.4 0 10.6c0 2.2 2.2 4.4 5 4.4s8.8 0 8.8 0v11l3.8-3v-7.8c0-1.2-0.2-2.6-2.2-4.6-1.8-1.8-9.4-11-10.6-12.4-1.4-1.4-3.4-2.2-4.8-2.2h-15.8c-2.4 0.2-4.4 2.2-4.4 4.6v41.4c0 2.4 2 4.6 4.6 4.6h13.2l-2.6-3.8c-0.2 0-9.2 0-9.4 0zM16.2 44.2h3.6l4.4-3.8h-8v3.8zM40.2 31.6h-24v3.8h24v-3.8zM25 14h-8.8v3.8h8.8v-3.8zM16.2 26.6h8.8v-3.8h-8.8v3.8zM54 31.8c-15 7.4-17.8 17.4-17.8 17.4l-5.6-10.6-7.4 5.8 14 16.6h0.8c2.2-14.6 11.4-23.6 16-27.2 0-0.6 0-1.2 0-2z"></path>
</svg>
