<!-- Generated by IcoMoon.io -->
<svg version="1.1" xmlns="http://www.w3.org/2000/svg" width="64" height="64" viewBox="0 0 64 64">
<title>total_tasks</title>
<path d="M44.4 17.4c1.2-1 2-1.6 2-1.6l-0.2-0.4c-0.6 0.2-1.2 0.6-1.8 0.8v-0.8h-11.8v11.8h11.8v-9.8zM43.2 26h-3.6c0.6-3.2 2.2-5.8 3.6-7.4v7.4zM43.2 17c-3.6 2.4-4.4 5.2-4.4 5.2l-2-4-2.8 2.2 4.6 5.6h-4.8v-9.4h9.4c0 0 0 0.4 0 0.4zM30.2 33.2h-11.8v3.6h11.8v-3.6zM30.2 40.2h-11.8v3.6h11.8v-3.6zM49.6 6h-35.2c-1.8 0-3 1.4-3 3v45.8c0 1.6 1.4 3 3 3h26.6l11.6-10.4v-38.4c0-1.6-1.2-3-3-3zM48 47.4h-8.2v5.8h-23.8v-42.4h32v36.6zM30.2 23.8h-11.8v3.4h11.8v-3.4zM30.2 16.6h-11.8v3.6h11.8v-3.6zM44.4 34c1.2-1 2-1.6 2-1.6l-0.2-0.4c-0.6 0.2-1.2 0.6-1.8 0.8v-0.8h-11.8v11.8h11.8v-9.8zM43.2 42.6h-3.6c0.6-3.2 2.2-5.8 3.6-7.4v7.4zM43.2 33.6c-3.6 2.4-4.4 5.2-4.4 5.2l-2-4-2.8 2.2 4.6 5.6h-4.8v-9.4h9.4c0 0 0 0.4 0 0.4z"></path>
</svg>
