<!-- Generated by IcoMoon.io -->
<svg version="1.1" xmlns="http://www.w3.org/2000/svg" width="32" height="32" viewBox="0 0 32 32">
<title>total_checklist</title>
<path d="M21.5 25.7c-0.3 0.9-0.9 2.1-0.9 2.1h1c1.2 0 2.3-1 2.3-2.3v-2.7c0 0-1.9 2-1.9 2.1 0 0.3-0.2 0.6-0.5 0.8zM7.9 25.9c-0.4 0-1-0.3-1-1.1v-19.2c0-0.7 0.4-1.1 1.1-1.1s7.1 0 7.1 0 0 4.2 0 5.3c0 1.1 1.1 2.2 2.5 2.2s4.4 0 4.4 0v5.5l1.9-1.5v-3.9c0-0.6-0.1-1.3-1.1-2.3-0.9-0.9-4.7-5.5-5.3-6.2-0.7-0.7-1.7-1.1-2.4-1.1h-7.9c-1.2 0.1-2.2 1.1-2.2 2.3v20.7c0 1.2 1 2.3 2.3 2.3h6.6l-1.3-1.9c-0.1 0-4.6 0-4.7 0zM8.1 22.1h1.8l2.2-1.9h-4v1.9zM20.1 15.8h-12v1.9h12v-1.9zM12.5 7h-4.4v1.9h4.4v-1.9zM8.1 13.3h4.4v-1.9h-4.4v1.9zM27 15.9c-7.5 3.7-8.9 8.7-8.9 8.7l-2.8-5.3-3.7 2.9 7 8.3h0.4c1.1-7.3 5.7-11.8 8-13.6 0-0.3 0-0.6 0-1z"></path>
</svg>
