<!-- Generated by IcoMoon.io -->
<svg version="1.1" xmlns="http://www.w3.org/2000/svg" width="64" height="64" viewBox="0 0 64 64">
<title>training_manager</title>
<path d="M39.6 28h-4c1.2 0 2.4 0 4 0 1.4 0 2.6 0 3.8 0h-3.8c6.2 0 11.2-5 11.2-11.2s-5-11.2-11.2-11.2c-6.2 0-11.2 5-11.2 11.2 0.2 6.2 5.2 11.2 11.2 11.2zM17 50.2c0.6 0.2 1 0.6 1.4 1 0-4.4 0-12.4 0-13 0-0.2-0.2-0.6-0.8-0.6-1-0.2-2 0-6.8 4.6-0.2 0.6-1.6 7-2.2 10.4 2.4-1.6 5.2-3.6 8.4-2.4zM30.8 52.6c-0.8-3.6-2.2-9.8-2.2-10.4-4.8-4.6-6-4.8-7-4.6-0.6 0.2-0.8 0.4-0.8 0.6 0 0.6 0 8.6 0 13 0.4-0.4 0.8-0.8 1.4-1 3.2-1.2 6.2 0.8 8.6 2.4zM45.6 28h-0.6c1.4 0 2.2 0.2 2.2 1 0 1.4-3.4 2.6-7.6 2.6s-7.6-1.2-7.6-2.6c0-0.8 0.8-1 2.2-1h-0.2c-4.8 0-9 2.4-11.6 6 9.4 6.8 14.4 4 17.4 22.2h6c7.8 0 14.2-6.4 14.2-14.2-0.2-7.6-6.6-14-14.4-14zM31.2 43.6l2.4 11.4-1.6 1.4c-1.8-1.4-7-4.8-10.2-3.6-1 0.4-1.6 1.6-2 3-0.4-1.2-1.2-2.6-2-3-3.2-1.2-8.4 2.2-10.2 3.6l-1.6-1.4 2.6-11.6h-1.2l-4.8 14.8h34.6l-4.4-14.6h-1.6z"></path>
</svg>
