<!-- Generated by IcoMoon.io -->
<svg version="1.1" xmlns="http://www.w3.org/2000/svg" width="32" height="32" viewBox="0 0 32 32">
<title>training_manager</title>
<path d="M19.8 14h-2c0.6 0 1.2 0 2 0 0.7 0 1.3 0 1.9 0h-1.9c3.1 0 5.6-2.5 5.6-5.6s-2.5-5.6-5.6-5.6c-3.1 0-5.6 2.5-5.6 5.6 0.1 3.1 2.6 5.6 5.6 5.6zM8.5 25.1c0.3 0.1 0.5 0.3 0.7 0.5 0-2.2 0-6.2 0-6.5 0-0.1-0.1-0.3-0.4-0.3-0.5-0.1-1 0-3.4 2.3-0.1 0.3-0.8 3.5-1.1 5.2 1.2-0.8 2.6-1.8 4.2-1.2zM15.4 26.3c-0.4-1.8-1.1-4.9-1.1-5.2-2.4-2.3-3-2.4-3.5-2.3-0.3 0.1-0.4 0.2-0.4 0.3 0 0.3 0 4.3 0 6.5 0.2-0.2 0.4-0.4 0.7-0.5 1.6-0.6 3.1 0.4 4.3 1.2zM22.8 14h-0.3c0.7 0 1.1 0.1 1.1 0.5 0 0.7-1.7 1.3-3.8 1.3s-3.8-0.6-3.8-1.3c0-0.4 0.4-0.5 1.1-0.5h-0.1c-2.4 0-4.5 1.2-5.8 3 4.7 3.4 7.2 2 8.7 11.1h3c3.9 0 7.1-3.2 7.1-7.1-0.1-3.8-3.3-7-7.2-7zM15.6 21.8l1.2 5.7-0.8 0.7c-0.9-0.7-3.5-2.4-5.1-1.8-0.5 0.2-0.8 0.8-1 1.5-0.2-0.6-0.6-1.3-1-1.5-1.6-0.6-4.2 1.1-5.1 1.8l-0.8-0.7 1.3-5.8h-0.6l-2.4 7.4h17.3l-2.2-7.3h-0.8z"></path>
</svg>
