<!-- Generated by IcoMoon.io -->
<svg version="1.1" xmlns="http://www.w3.org/2000/svg" width="64" height="64" viewBox="0 0 64 64">
<title>trash</title>
<path d="M50 10h-11.6c0-0.2 0-0.2 0-0.4 0-2-1.6-3.6-3.6-3.6h-6c-2 0-3.6 1.6-3.6 3.6 0 0.2 0 0.2 0 0.4h-11.2c-1.4 0-2.6 1.6-2.6 3s1.2 3 2.6 3h36c1.4 0 2.4-1.6 2.4-3 0.2-1.4-1-3-2.4-3zM48.4 20h-33.2c-1.4 0-2.2 1.4-2 3.2l4 33c0.2 1 1 1.8 2 1.8h24.8c1 0 2-0.8 2-1.8l4-33c0.6-1.8-0.4-3.2-1.6-3.2zM23.4 52c-1.2 0.2-2.2-0.8-2.4-2l-2.4-22.2c-0.2-1.2 0.8-2.2 2-2.4s2.2 0.8 2.4 2l2.4 22.2c0.2 1.2-0.6 2.2-2 2.4zM34.2 49.8c0 1.2-1 2.2-2.2 2.2s-2.2-1-2.2-2.2v-22.4c0-1.2 1-2.2 2.2-2.2s2.2 1 2.2 2.2v22.4zM42.4 50c-0.2 1.2-1.2 2-2.4 2-1.2-0.2-2-1.2-2-2.4l2.4-22.2c0.2-1.2 1.2-2 2.4-2 1.2 0.2 2 1.2 2 2.4l-2.4 22.2z"></path>
</svg>
