<!-- Generated by IcoMoon.io -->
<svg version="1.1" xmlns="http://www.w3.org/2000/svg" width="32" height="32" viewBox="0 0 32 32">
<title>twitter</title>
<path d="M11.4 26c9.3 0 14.4-7.7 14.4-14.4 0-0.2 0-0.4 0-0.7 1-0.7 1.8-1.6 2.5-2.6-0.9 0.4-1.9 0.7-2.9 0.8 1.1-0.6 1.8-1.6 2.2-2.8-1 0.6-2.1 1-3.2 1.2-1.9-2-5.1-2.1-7.1-0.2-1.3 1.2-1.9 3.1-1.5 4.8-4-0.1-7.8-2-10.4-5.2-1.3 2.3-0.6 5.3 1.6 6.8-0.8 0-1.6-0.2-2.3-0.6 0 0 0 0 0 0.1 0 2.4 1.7 4.5 4.1 4.9-0.7 0.2-1.5 0.2-2.3 0.1 0.7 2.1 2.6 3.5 4.7 3.5-1.8 1.4-4 2.2-6.3 2.2-0.4 0-0.8 0-1.2-0.1 2.3 1.4 5 2.2 7.7 2.2v0z"></path>
</svg>
