<!-- Generated by IcoMoon.io -->
<svg version="1.1" xmlns="http://www.w3.org/2000/svg" width="64" height="64" viewBox="0 0 64 64">
<title>twitter</title>
<path d="M22.8 52c18.6 0 28.8-15.4 28.8-28.8 0-0.4 0-0.8 0-1.4 2-1.4 3.6-3.2 5-5.2-1.8 0.8-3.8 1.4-5.8 1.6 2.2-1.2 3.6-3.2 4.4-5.6-2 1.2-4.2 2-6.4 2.4-3.8-4-10.2-4.2-14.2-0.4-2.6 2.4-3.8 6.2-3 9.6-8-0.2-15.6-4-20.8-10.4-2.6 4.6-1.2 10.6 3.2 13.6-1.6 0-3.2-0.4-4.6-1.2 0 0 0 0 0 0.2 0 4.8 3.4 9 8.2 9.8-1.4 0.4-3 0.4-4.6 0.2 1.4 4.2 5.2 7 9.4 7-3.6 2.8-8 4.4-12.6 4.4-0.8 0-1.6 0-2.4-0.2 4.6 2.8 10 4.4 15.4 4.4v0z"></path>
</svg>
