<!-- Generated by IcoMoon.io -->
<svg version="1.1" xmlns="http://www.w3.org/2000/svg" width="32" height="32" viewBox="0 0 32 32">
<title>ultipro2</title>
<path d="M21 6.3c0 0 0 9.2 0 12.3s-1.9 5.9-6 5.9c-4.4 0-6-3.2-6-5.8s0-12.4 0-12.4h-3.4c0 0 0 11 0 13.3 0 3.2 3.2 7.9 9.3 7.9s9.4-4.4 9.4-8.1c0-2.9 0-13.1 0-13.1h-3.3zM13.5 22.1h2.7v-6.9h1.3c0 0 0-5.9 0-6.9s-0.7-1.4-1.3-1.4h-2.6c-0.5 0-1.2 0.2-1.2 1.3s0 6.9 0 6.9h1.2v7zM14.8 6c1 0 1.7-0.8 1.7-1.7s-0.8-1.7-1.7-1.7-1.7 0.8-1.7 1.7 0.8 1.7 1.7 1.7z"></path>
</svg>
