<!-- Generated by IcoMoon.io -->
<svg version="1.1" xmlns="http://www.w3.org/2000/svg" width="64" height="64" viewBox="0 0 64 64">
<title>ultipro2</title>
<path d="M42 12.6c0 0 0 18.4 0 24.6s-3.8 11.8-12 11.8c-8.8 0-12-6.4-12-11.6s0-24.8 0-24.8h-6.8c0 0 0 22 0 26.6 0 6.4 6.4 15.8 18.6 15.8s18.8-8.8 18.8-16.2c0-5.8 0-26.2 0-26.2h-6.6zM27 44.2h5.4v-13.8h2.6c0 0 0-11.8 0-13.8s-1.4-2.8-2.6-2.8h-5.2c-1 0-2.4 0.4-2.4 2.6s0 13.8 0 13.8h2.4v14zM29.6 12c2 0 3.4-1.6 3.4-3.4s-1.6-3.4-3.4-3.4-3.4 1.6-3.4 3.4 1.6 3.4 3.4 3.4z"></path>
</svg>
