<!-- Generated by IcoMoon.io -->
<svg version="1.1" xmlns="http://www.w3.org/2000/svg" width="32" height="32" viewBox="0 0 32 32">
<title>unit_store</title>
<path d="M23.4 15.5c0 0-5.4-4.1-6.2-4.7s-1.6-0.6-2.4 0c-0.8 0.6-6.2 4.7-6.2 4.7-0.8 0.5-2.2 1.5-2.2 2.7v7.1c0 1.2 1 2.2 2.2 2.2h3.7v-8.8c0-0.9 0.7-1.5 1.5-1.5h4.3c0.9 0 1.5 0.7 1.5 1.5v8.8h3.7c1.2 0 2.2-1 2.2-2.2v-7.1c0.1-1.2-1.1-1.7-2.1-2.7zM27 12.3c0 0-8.5-6.4-9.5-7.2s-2.1-0.8-3.1 0c-1 0.8-9.6 7.1-9.6 7.1-1 0.7-1.4 0.9-1.4 2.4 0 0 0 0.6 0 1.2 0.1 1.3 0.6 1.2 1.6 0.5 0 0 8.3-6.3 9.4-7.1 1-0.8 2.1-0.8 3.1 0s9.2 6.9 9.2 6.9c1.4 1.3 1.8 0.9 1.8-0.3 0-0.4 0-1.2 0-1.2 0-1.5-0.1-1-1.5-2.3z"></path>
</svg>
