<!-- Generated by IcoMoon.io -->
<svg version="1.1" xmlns="http://www.w3.org/2000/svg" width="64" height="64" viewBox="0 0 64 64">
<title>unit_store</title>
<path d="M46.8 31c0 0-10.8-8.2-12.4-9.4s-3.2-1.2-4.8 0c-1.6 1.2-12.4 9.4-12.4 9.4-1.6 1-4.4 3-4.4 5.4v14.2c0 2.4 2 4.4 4.4 4.4h7.4v-17.6c0-1.8 1.4-3 3-3h8.6c1.8 0 3 1.4 3 3v17.6h7.4c2.4 0 4.4-2 4.4-4.4v-14.2c0.2-2.4-2.2-3.4-4.2-5.4zM54 24.6c0 0-17-12.8-19-14.4s-4.2-1.6-6.2 0c-2 1.6-19.2 14.2-19.2 14.2-2 1.4-2.8 1.8-2.8 4.8 0 0 0 1.2 0 2.4 0.2 2.6 1.2 2.4 3.2 1 0 0 16.6-12.6 18.8-14.2 2-1.6 4.2-1.6 6.2 0s18.4 13.8 18.4 13.8c2.8 2.6 3.6 1.8 3.6-0.6 0-0.8 0-2.4 0-2.4 0-3-0.2-2-3-4.6z"></path>
</svg>
