<!-- Generated by IcoMoon.io -->
<svg version="1.1" xmlns="http://www.w3.org/2000/svg" width="32" height="32" viewBox="0 0 32 32">
<title>unlocked</title>
<path d="M24.713 15.149h-12.972l-1.786-3.335c-1.462-2.727-0.121-4.483 1.645-5.428 1.766-0.948 3.961-1.085 5.422 1.644l1.469 2.742 2.6-1.466-1.393-2.598c-2.207-4.122-6.617-4.536-9.521-2.979-2.907 1.556-5.015 5.461-2.808 9.584l0.984 1.837h-1.066c-0.715 0-1.293 0.58-1.293 1.293v11.372c0 0.715 0.578 1.293 1.293 1.293h17.426c0.715 0 1.293-0.578 1.293-1.293v-11.373c0-0.713-0.578-1.293-1.293-1.293zM17.028 22.202v2.543h-0.018c0.010 0.056 0.019 0.109 0.019 0.166 0 0.554-0.463 1.002-1.035 1.002s-1.034-0.448-1.034-1.002c0-0.057 0.008-0.11 0.018-0.166h-0.018v-2.543c-0.717-0.363-1.207-1.087-1.207-1.922 0-1.194 1.003-2.166 2.241-2.166 1.239 0 2.241 0.972 2.241 2.166-0.001 0.835-0.491 1.559-1.207 1.922z"></path>
</svg>
