<!-- Generated by IcoMoon.io -->
<svg version="1.1" xmlns="http://www.w3.org/2000/svg" width="64" height="64" viewBox="0 0 64 64">
<title>unlocked</title>
<path d="M49.426 30.298h-25.944l-3.572-6.67c-2.924-5.454-0.242-8.966 3.29-10.856 3.532-1.896 7.922-2.17 10.844 3.288l2.938 5.484 5.2-2.932-2.786-5.196c-4.414-8.244-13.234-9.072-19.042-5.958-5.814 3.112-10.030 10.922-5.616 19.168l1.968 3.674h-2.132c-1.43 0-2.586 1.16-2.586 2.586v22.744c0 1.43 1.156 2.586 2.586 2.586h34.852c1.43 0 2.586-1.156 2.586-2.586v-22.746c0-1.426-1.156-2.586-2.586-2.586zM34.056 44.404v5.086h-0.036c0.020 0.112 0.038 0.218 0.038 0.332 0 1.108-0.926 2.004-2.070 2.004-1.142 0-2.068-0.896-2.068-2.004 0-0.114 0.016-0.22 0.036-0.332h-0.036v-5.086c-1.434-0.726-2.414-2.174-2.414-3.844 0-2.388 2.006-4.332 4.482-4.332 2.478 0 4.482 1.944 4.482 4.332-0.002 1.67-0.982 3.118-2.414 3.844z"></path>
</svg>
