<!-- Generated by IcoMoon.io -->
<svg version="1.1" xmlns="http://www.w3.org/2000/svg" width="32" height="32" viewBox="0 0 32 32">
<title>velaki_back</title>
<path d="M20.183 19.968c0 0-1.287-1.335-2.21-2.256-1.63-1.63-1.531-1.865-0.174-3.225 1.2-1.205 2.962-3.113 2.962-3.113 1.186-1.182 1.191-3.102 0.005-4.288l-0.107-0.107c-1.184-1.186-3.099-1.189-4.288-0.005l-6.802 6.777c-0.61 0.608-0.907 1.413-0.889 2.208-0.018 0.8 0.279 1.6 0.889 2.213l6.805 6.777c1.186 1.186 3.104 1.186 4.288-0.005l0.107-0.107c1.184-1.191 1.184-3.106-0.005-4.293l-0.581-0.576z"></path>
</svg>
