<!-- Generated by IcoMoon.io -->
<svg version="1.1" xmlns="http://www.w3.org/2000/svg" width="64" height="64" viewBox="0 0 64 64">
<title>velaki_back</title>
<path d="M40.366 39.936c0 0-2.574-2.67-4.421-4.512-3.259-3.259-3.063-3.73-0.347-6.45 2.4-2.409 5.925-6.226 5.925-6.226 2.373-2.363 2.382-6.203 0.009-8.576l-0.215-0.215c-2.368-2.373-6.199-2.377-8.576-0.009l-13.605 13.554c-1.221 1.216-1.815 2.825-1.778 4.416-0.037 1.6 0.558 3.2 1.778 4.425l13.609 13.554c2.373 2.373 6.208 2.373 8.576-0.009l0.215-0.215c2.368-2.382 2.368-6.213-0.009-8.585l-1.161-1.152z"></path>
</svg>
