<!-- Generated by IcoMoon.io -->
<svg version="1.1" xmlns="http://www.w3.org/2000/svg" width="64" height="64" viewBox="0 0 64 64">
<title>venue</title>
<path d="M36.894 36.714c0.004 1.394 0.090 2.68-0.090 3.84 8.090 0.914 14.054 4.058 14.054 7.632 0 4.258-8.45 7.708-18.866 7.708-10.42 0-18.868-3.45-18.868-7.708 0-3.626 6.126-6.804 14.378-7.668-0.012-1.602 0.062-2.422-0.106-3.84-9.97 1.118-17.454 5.786-17.454 11.376 0 6.422 9.876 11.628 22.054 11.628s22.054-5.208 22.054-11.628c0.004-5.534-7.332-10.168-17.156-11.34zM30.192 31.876v18.378h3.812v-18.416c6.68-0.984 11.812-6.724 11.812-13.678 0-7.646-6.2-13.844-13.842-13.844-7.644 0-13.844 6.198-13.844 13.844 0 7.038 5.262 12.84 12.062 13.716zM28.254 8.44c2.278 0 4.126 1.832 4.126 4.094 0 2.26-1.848 4.094-4.126 4.094s-4.126-1.834-4.126-4.094c0.002-2.262 1.85-4.094 4.126-4.094z"></path>
</svg>
