<!-- Generated by IcoMoon.io -->
<svg version="1.1" xmlns="http://www.w3.org/2000/svg" width="32" height="32" viewBox="0 0 32 32">
<title>venue</title>
<path d="M18.447 18.357c0.002 0.697 0.045 1.34-0.045 1.92 4.045 0.457 7.027 2.029 7.027 3.816 0 2.129-4.225 3.854-9.433 3.854-5.21 0-9.434-1.725-9.434-3.854 0-1.813 3.063-3.402 7.189-3.834-0.006-0.801 0.031-1.211-0.053-1.92-4.985 0.559-8.727 2.893-8.727 5.688 0 3.211 4.938 5.814 11.027 5.814s11.027-2.604 11.027-5.814c0.002-2.767-3.666-5.084-8.578-5.67zM15.096 15.938v9.189h1.906v-9.208c3.34-0.492 5.906-3.362 5.906-6.839 0-3.823-3.1-6.922-6.921-6.922-3.822 0-6.922 3.099-6.922 6.922 0 3.519 2.631 6.42 6.031 6.858zM14.127 4.22c1.139 0 2.063 0.916 2.063 2.047s-0.924 2.047-2.063 2.047-2.063-0.917-2.063-2.047c0.001-1.131 0.925-2.047 2.063-2.047z"></path>
</svg>
