<!-- Generated by IcoMoon.io -->
<svg version="1.1" xmlns="http://www.w3.org/2000/svg" width="64" height="64" viewBox="0 0 64 64">
<title>versions</title>
<path d="M24 18v0-4h-4c-2.2 0-4 1.8-4 4v28c0 2.2 1.8 4 4 4h4v-4c-2.2 0-4-1.8-4-4v-20c0-2.2 1.8-4 4-4zM56 10h-24c-2.2 0-4 1.8-4 4v36c0 2.2 1.8 4 4 4h24c2.2 0 4-1.8 4-4v-36c0-2.2-1.8-4-4-4zM54 44c0 2.2-1.8 4-4 4h-12c-2.2 0-4-1.8-4-4v-24c0-2.2 1.8-4 4-4h12c2.2 0 4 1.8 4 4v24zM12 22v0-4h-4c-2.2 0-4 1.8-4 4v20c0 2.2 1.8 4 4 4h4v-4c-2.2 0-4-1.8-4-4v-12c0-2.2 1.8-4 4-4z"></path>
</svg>
