<!-- Generated by IcoMoon.io -->
<svg version="1.1" xmlns="http://www.w3.org/2000/svg" width="64" height="64" viewBox="0 0 64 64">
<title>video</title>
<path d="M32 32.104c15.348 0 27.872-5.212 27.872-11.592 0-0.41-0.054-1.928-0.156-2.33 0.028-0.208 0.042-0.42 0.042-0.63 0-6.338-12.524-11.534-27.758-11.534s-27.758 5.194-27.758 11.534c0 0.21 0.016 0.42 0.042 0.628-0.102 0.402-0.156 1.918-0.156 2.332 0 6.38 12.522 11.592 27.872 11.592zM32 20.844c-4.372 0-7.958-1.478-7.958-3.304 0-1.824 3.586-3.316 7.958-3.316 4.38 0 7.968 1.492 7.968 3.316 0 1.826-3.588 3.304-7.968 3.304zM57.778 19.006c-1.642 2.428-5.48 4.522-11.078 6.306l-7.146-4.062c1.732-0.626 2.248-1.924 2.684-2.856l15.54 0.612zM41.8 9.058l-6.68 3.324c-2.174-0.32-4.38-0.32-6.554 0l-6.306-3.324c6.492-1.118 13.046-1.118 19.54 0zM21.766 18.38c0.432 0.932 1.036 2.246 2.778 2.87l-7.434 3.878c-5.576-1.786-7.432-2.4-10.888-6.136l15.544-0.612zM17.518 32.696l0.010-0.068c-0.216-0.062-0.438-0.128-0.654-0.192-0.262-0.094-0.532-0.17-0.806-0.236-3.626-1.116-7.318-2.692-9.836-5.196v2.64c0.024 3.696 4.008 6.51 9.66 8.322v0.004c8.492 1.784 8.244 24.278 19.922 24.012l0.032-9.23c-9.638-2.936-11.246-16.778-18.328-20.056zM32.814 34.278c-4.802 0-8.712-0.454-12.79-1.178 0 0 3.712 3.058 5.356 6.81 2 0.092 4.646 0.4 7.114 0.4 10.4 0.146 25.264-3.834 25.254-10.694v-2.598c-2.292 2.158-4.886 3.434-7.67 4.488-5.688 1.866-11.378 2.772-17.264 2.772zM31.774 43.124c-1.792 0.004-3.36 0.054-4.892 0.024 0.93 1.012 1.714 2.582 2.002 2.922 0.946 0.048 1.948 0.068 3.118 0.068 15.348 0 27.872-5.208 27.872-11.588 0-0.4-0.048-1.902-0.144-2.29-0.882 7.076-15.924 10.864-27.956 10.864zM4.282 32.232c-0.1 0.396-0.152 1.908-0.152 2.316 0 4.626 6.474 7.946 16.836 10.434-0.446-0.546-1.25-2.98-1.518-3.040-8.284-1.936-14.662-5.794-15.166-9.71z"></path>
</svg>
