<!-- Generated by IcoMoon.io -->
<svg version="1.1" xmlns="http://www.w3.org/2000/svg" width="32" height="32" viewBox="0 0 32 32">
<title>video2</title>
<path d="M28.8 14.6c-1.4 1.3-3.4 2.5-3.4 2.5v-1.1c0-1.3-1.1-2.4-2.4-2.4h-15.9c-1.3 0-2.4 1.1-2.4 2.4v10.3c0 1.3 1.1 2.4 2.4 2.4h15.9c1.3 0 2.3-1.1 2.3-2.4v-1.1c0 0 1.9 1.1 3.5 2.3 0.9 0.7 2.2 0.9 2.2-0.2v-12.4c0-0.9-1.4-1.1-2.2-0.3zM9.6 12.1c2.4 0 4.4-2 4.4-4.4s-2-4.4-4.4-4.4c-2.4 0-4.4 2-4.4 4.4 0 2.5 2 4.4 4.4 4.4zM18.9 12.1c2.4 0 4.4-2 4.4-4.4s-2-4.4-4.4-4.4-4.4 2-4.4 4.4c0 2.5 2 4.4 4.4 4.4zM1.9 13.7c-0.6 0-0.9 0.5-0.9 1.1v4.3c0 0.6 0.3 1.1 0.9 1.1s1-0.5 1-1.1v-4.3c0-0.6-0.4-1.1-1-1.1z"></path>
</svg>
