<!-- Generated by IcoMoon.io -->
<svg version="1.1" xmlns="http://www.w3.org/2000/svg" width="32" height="32" viewBox="0 0 32 32">
<title>video</title>
<path d="M16 16.052c7.674 0 13.936-2.606 13.936-5.796 0-0.205-0.027-0.964-0.078-1.165 0.014-0.104 0.021-0.21 0.021-0.315 0-3.169-6.262-5.767-13.879-5.767s-13.879 2.597-13.879 5.767c0 0.105 0.008 0.21 0.021 0.314-0.051 0.201-0.078 0.959-0.078 1.166 0 3.19 6.261 5.796 13.936 5.796zM16 10.422c-2.186 0-3.979-0.739-3.979-1.652s1.793-1.658 3.979-1.658c2.19 0 3.984 0.746 3.984 1.658 0 0.913-1.794 1.652-3.984 1.652zM28.889 9.503c-0.821 1.214-2.74 2.261-5.539 3.153l-3.573-2.031c0.866-0.313 1.124-0.962 1.342-1.428l7.77 0.306zM20.9 4.529l-3.34 1.662c-1.087-0.16-2.19-0.16-3.277 0l-3.153-1.662c3.246-0.559 6.523-0.559 9.77 0zM10.883 9.19c0.216 0.466 0.518 1.123 1.389 1.435l-3.717 1.939c-2.788-0.893-3.716-1.2-5.444-3.068l7.772-0.306zM8.759 16.348l0.005-0.034c-0.108-0.031-0.219-0.064-0.327-0.096-0.131-0.047-0.266-0.085-0.403-0.118-1.813-0.558-3.659-1.346-4.918-2.598v1.32c0.012 1.848 2.004 3.255 4.83 4.161v0.002c4.246 0.892 4.122 12.139 9.961 12.006l0.016-4.615c-4.819-1.468-5.623-8.389-9.164-10.028zM16.407 17.139c-2.401 0-4.356-0.227-6.395-0.589 0 0 1.856 1.529 2.678 3.405 1 0.046 2.323 0.2 3.557 0.2 5.2 0.073 12.632-1.917 12.627-5.347v-1.299c-1.146 1.079-2.443 1.717-3.835 2.244-2.844 0.933-5.689 1.386-8.632 1.386zM15.887 21.562c-0.896 0.002-1.68 0.027-2.446 0.012 0.465 0.506 0.857 1.291 1.001 1.461 0.473 0.024 0.974 0.034 1.559 0.034 7.674 0 13.936-2.604 13.936-5.794 0-0.2-0.024-0.951-0.072-1.145-0.441 3.538-7.962 5.432-13.978 5.432zM2.141 16.116c-0.050 0.198-0.076 0.954-0.076 1.158 0 2.313 3.237 3.973 8.418 5.217-0.223-0.273-0.625-1.49-0.759-1.52-4.142-0.968-7.331-2.897-7.583-4.855z"></path>
</svg>
