<!-- Generated by IcoMoon.io -->
<svg version="1.1" xmlns="http://www.w3.org/2000/svg" width="64" height="64" viewBox="0 0 64 64">
<title>video2</title>
<path d="M57.6 29.2c-2.8 2.6-6.8 5-6.8 5v-2.2c0-2.6-2.2-4.8-4.8-4.8h-31.8c-2.6 0-4.8 2.2-4.8 4.8v20.6c0 2.6 2.2 4.8 4.8 4.8h31.8c2.6 0 4.6-2.2 4.6-4.8v-2.2c0 0 3.8 2.2 7 4.6 1.8 1.4 4.4 1.8 4.4-0.4v-24.8c0-1.8-2.8-2.2-4.4-0.6zM19.2 24.2c4.8 0 8.8-4 8.8-8.8s-4-8.8-8.8-8.8c-4.8 0-8.8 4-8.8 8.8 0 5 4 8.8 8.8 8.8zM37.8 24.2c4.8 0 8.8-4 8.8-8.8s-4-8.8-8.8-8.8-8.8 4-8.8 8.8c0 5 4 8.8 8.8 8.8zM3.8 27.4c-1.2 0-1.8 1-1.8 2.2v8.6c0 1.2 0.6 2.2 1.8 2.2s2-1 2-2.2v-8.6c0-1.2-0.8-2.2-2-2.2z"></path>
</svg>
