<!-- Generated by IcoMoon.io -->
<svg version="1.1" xmlns="http://www.w3.org/2000/svg" width="32" height="32" viewBox="0 0 32 32">
<title>vignette</title>
<path d="M4.883 24.589l1.465-1.833 1.148-0.454-2.475-2.544v1.784l-1.987 2.456 0.001-6.118-2.012-2.436 0.005 11.084 9.479-0.623-1.422-1.701-4.202 0.385zM1.847 10.524c-0.853 0.73 0.396 2.616 1.675 4.108s1.918 2.236 1.918 2.236l2.343-2.009c0 0-0.73-0.853-1.918-2.237s-3.166-2.83-4.018-2.098zM6.059 17.899l4.245 4.315 2.023-1.733-3.924-4.591-2.344 2.009zM27.046 5.093c0 0-0.75-0.789-5.582-0.789-4.831 0-5.551 2.416-5.551 2.416s-0.38-2.416-5.532-2.416c-4.832 0-5.114 0.789-5.114 0.789l-4.278 3.699 2.736 0.3 1.266-1.453v2.059h2.016l0.002-2.916c0 0 4.377-1.48 6.773 0.236 1.496 1.071 1.223 3.757 1.223 3.757v9.922c0 0 1.313 1.836 2.173 3.025 0.209-0.492 0.642-1.092 1.527-1.588 2.484-1.391 7.248 0.622 7.248 0.622l1.508 1.833-8.875-0.739-0.941 0.488c0 0 0.25 0.983 0.318 1.5 1.863-0.118 13.039 0.69 13.039 0.69l0.008-17.737-3.964-3.698zM24.999 20.631c0 0-5.695-2.165-8.004 0.854v-10.711c0 0-0.344-2.686 1.152-3.757 2.395-1.717 6.861-0.236 6.861-0.236l-0.009 13.85zM27.011 21.542v-13.904l2 2.277 0.002 14.083-2.002-2.456zM10.623 22.588c0 0 5.229 5.774 6.081 5.044 0.854-0.73-4.058-6.779-4.058-6.779l-2.023 1.735zM8.096 12.671c-1.005-1.172-1.811-1.034-1.811-1.034l4.842 5.645c0 0 0.441-0.563-0.655-1.842s-1.371-1.598-2.376-2.769z"></path>
</svg>
