<!-- Generated by IcoMoon.io -->
<svg version="1.1" xmlns="http://www.w3.org/2000/svg" width="32" height="32" viewBox="0 0 32 32">
<title>vignette_success_rate</title>
<path d="M32 17.705l-0.285-0.408c-7.129 3.156-8.887 7.977-8.887 7.977l-2.406-4.567-3.428 2.692 5.752 6.854h0.693c4.325-10.894 8.561-12.548 8.561-12.548zM29.016 24.004l-1.553 0.592-0.014 1.694 3.557 0.244 0.004-6.223-1.994 1.663v2.030zM4.994 7.644v2.060h2.016l0.001-2.917c0 0 4.378-1.479 6.775 0.236 1.495 1.071 1.223 3.758 1.223 3.758v9.922l0.91 1.268 1.080-1.064v-10.127c0 0-0.344-2.687 1.15-3.758 2.396-1.716 6.861-0.236 6.861-0.236l-0.008 11.872 2.010-1.246v-9.768l2 2.278 0.002 6.702 1.998-1.124 0.002-6.703-3.965-3.697c0 0-0.75-0.79-5.582-0.79s-5.551 2.417-5.551 2.417-0.38-2.417-5.532-2.417c-4.832 0-5.114 0.79-5.114 0.79l-4.278 3.697 2.736 0.3 1.266-1.453zM4.886 24.596l1.465-1.834 1.148-0.453-2.474-2.544v1.784l-1.988 2.455 0.001-6.118-2.012-2.436 0.005 11.084 9.478-0.623-1.421-1.701-4.202 0.386zM12.331 20.486l-3.925-4.591-2.343 2.010 4.245 4.315 2.023-1.734zM10.626 22.595c0 0 5.229 5.773 6.081 5.043 0.854-0.731-4.057-6.778-4.057-6.778l-2.024 1.735zM1.85 10.529c-0.852 0.731 0.396 2.617 1.675 4.108s1.918 2.236 1.918 2.236l2.343-2.009c0 0-0.731-0.853-1.918-2.237s-3.166-2.828-4.018-2.098zM10.474 15.446c-1.096-1.278-1.37-1.598-2.375-2.77s-1.811-1.034-1.811-1.034l4.841 5.645c0 0 0.441-0.563-0.655-1.841z"></path>
</svg>
