<!-- Generated by IcoMoon.io -->
<svg version="1.1" xmlns="http://www.w3.org/2000/svg" width="64" height="64" viewBox="0 0 64 64">
<title>vignette</title>
<path d="M9.766 49.178l2.93-3.666 2.296-0.908-4.95-5.088v3.568l-3.974 4.912 0.002-12.236-4.024-4.872 0.010 22.168 18.958-1.246-2.844-3.402-8.404 0.77zM3.694 21.048c-1.706 1.46 0.792 5.232 3.35 8.216 2.556 2.984 3.836 4.472 3.836 4.472l4.686-4.018c0 0-1.46-1.706-3.836-4.474s-6.332-5.66-8.036-4.196zM12.118 35.798l8.49 8.63 4.046-3.466-7.848-9.182-4.688 4.018zM54.092 10.186c0 0-1.5-1.578-11.164-1.578-9.662 0-11.102 4.832-11.102 4.832s-0.76-4.832-11.064-4.832c-9.664 0-10.228 1.578-10.228 1.578l-8.556 7.398 5.472 0.6 2.532-2.906v4.118h4.032l0.004-5.832c0 0 8.754-2.96 13.546 0.472 2.992 2.142 2.446 7.514 2.446 7.514v19.844c0 0 2.626 3.672 4.346 6.050 0.418-0.984 1.284-2.184 3.054-3.176 4.968-2.782 14.496 1.244 14.496 1.244l3.016 3.666-17.75-1.478-1.882 0.976c0 0 0.5 1.966 0.636 3 3.726-0.236 26.078 1.38 26.078 1.38l0.016-35.474-7.928-7.396zM49.998 41.262c0 0-11.39-4.33-16.008 1.708v-21.422c0 0-0.688-5.372 2.304-7.514 4.79-3.434 13.722-0.472 13.722-0.472l-0.018 27.7zM54.022 43.084v-27.808l4 4.554 0.004 28.166-4.004-4.912zM21.246 45.176c0 0 10.458 11.548 12.162 10.088 1.708-1.46-8.116-13.558-8.116-13.558l-4.046 3.47zM16.192 25.342c-2.010-2.344-3.622-2.068-3.622-2.068l9.684 11.29c0 0 0.882-1.126-1.31-3.684-2.194-2.558-2.742-3.196-4.752-5.538z"></path>
</svg>
