<!-- Generated by IcoMoon.io -->
<svg version="1.1" xmlns="http://www.w3.org/2000/svg" width="64" height="64" viewBox="0 0 64 64">
<title>visible</title>
<path d="M32.434 18.742c-17.006 0-24.356 13.258-24.356 13.258s6.34 13.258 24.5 13.258c18.156 0 23.344-13.258 23.344-13.258s-6.484-13.258-23.488-13.258zM32.144 41.008c-4.894 0-8.864-3.968-8.864-8.864 0-0.942 0.148-1.844 0.42-2.692l-2.138-0.86c-0.376 1.116-0.588 2.308-0.588 3.55 0 4.422 2.578 8.234 6.306 10.042-10.808-2.068-14.736-10.184-14.736-10.184s4.816-8.578 15.794-10.344c-0.352 0.126-0.696 0.272-1.030 0.432 0.1 0.006 0.198 0.020 0.292 0.042l0.908 1.938c1.11-0.498 2.336-0.784 3.632-0.784 4.894 0 8.864 3.964 8.864 8.862 0.004 4.894-3.964 8.862-8.86 8.862zM36.676 42.348c3.91-1.742 6.636-5.65 6.636-10.204 0-4.928-3.196-9.106-7.626-10.586 11.35 1.516 15.77 10.442 15.77 10.442s-3.406 8.586-14.78 10.348zM32.144 25.516c-0.958 0-1.868 0.208-2.69 0.574l3.266 6.99-6.938-2.79c-0.172 0.588-0.268 1.208-0.268 1.854 0 3.66 2.968 6.628 6.628 6.628s6.628-2.968 6.628-6.628c0.004-3.662-2.966-6.628-6.626-6.628z"></path>
</svg>
