<!-- Generated by IcoMoon.io -->
<svg version="1.1" xmlns="http://www.w3.org/2000/svg" width="32" height="32" viewBox="0 0 32 32">
<title>visible</title>
<path d="M16.217 9.371c-8.503 0-12.178 6.629-12.178 6.629s3.17 6.629 12.25 6.629c9.078 0 11.672-6.629 11.672-6.629s-3.242-6.629-11.744-6.629zM16.072 20.504c-2.447 0-4.432-1.984-4.432-4.432 0-0.471 0.074-0.922 0.21-1.346l-1.069-0.43c-0.188 0.558-0.294 1.154-0.294 1.775 0 2.211 1.289 4.117 3.153 5.021-5.404-1.034-7.368-5.092-7.368-5.092s2.408-4.289 7.897-5.172c-0.176 0.063-0.348 0.136-0.515 0.216 0.050 0.003 0.099 0.010 0.146 0.021l0.454 0.969c0.555-0.249 1.168-0.392 1.816-0.392 2.447 0 4.432 1.982 4.432 4.431 0.002 2.447-1.982 4.431-4.43 4.431zM18.338 21.174c1.955-0.871 3.318-2.825 3.318-5.102 0-2.464-1.598-4.553-3.813-5.293 5.675 0.758 7.885 5.221 7.885 5.221s-1.703 4.293-7.39 5.174zM16.072 12.758c-0.479 0-0.934 0.104-1.345 0.287l1.633 3.495-3.469-1.395c-0.086 0.294-0.134 0.604-0.134 0.927 0 1.83 1.484 3.314 3.314 3.314s3.314-1.484 3.314-3.314c0.002-1.831-1.483-3.314-3.313-3.314z"></path>
</svg>
