<!-- Generated by IcoMoon.io -->
<svg version="1.1" xmlns="http://www.w3.org/2000/svg" width="64" height="64" viewBox="0 0 64 64">
<title>waiting_list</title>
<path d="M20.79 25.876c1.104 0.496 2.318 0.776 3.598 0.776 1.32 0 2.572-0.3 3.704-0.828-0.422-1.588-0.486-2.928-0.778-2.796-0.906 0.41-1.96 0.64-2.926 0.64-3.382 0-6.126-2.828-6.126-6.316 0-3.486 2.742-6.314 6.126-6.314 1.308 0 2.522 0.424 3.518 1.144 0.636-0.858 0.484-0.772 1.708-2.41-1.474-1.082-3.278-1.718-5.226-1.718-4.98 0-9.018 4.162-9.018 9.298 0 2.39 0.88 4.56 2.318 6.208-5.394 2.854-9.128 8.966-9.128 16.058 0 0.794 0.094 2.824 1.466 2.824s5.626 0 5.626 0 1.19 0.754 2.842 1.368c0.342-0.636 1.246-3.004 1.246-3.004l-2.56-1.188c0 0-0.42-2.068 1.178-5.942l-1.708-0.61c0 0-1.578 2.798-1.578 6.55h-3.44c0-6.482 3.858-11.956 9.158-13.74zM6.804 27.486c0 0-1.314 2.332-1.314 5.46h-2.866c0-5.404 3.216-9.966 7.632-11.458 0.92 0.414 1.934 0.646 3 0.646 0.136 0-0.444-1.864-0.438-2.55-2.82 0-4.668-2.292-4.668-5.202s2.286-5.262 5.106-5.262c0.708 0 1.38 0.148 1.994 0.418 0.872-1.146 0.496-1.138 1.308-2.12-0.996-0.504-2.116-0.788-3.302-0.788-4.15 0-7.518 3.472-7.518 7.754 0 1.992 0.736 3.802 1.932 5.174-4.496 2.38-7.61 7.476-7.61 13.388 0 0.662 0.080 2.356 1.224 2.356 1.142 0 5.984 0 5.984 0s-0.404-4.004 0.96-7.308l-1.424-0.508zM50.418 34.324c-7.466 0-13.522 6.054-13.522 13.524 0 7.466 6.054 13.522 13.522 13.522s13.522-6.054 13.522-13.522c0-7.47-6.056-13.524-13.522-13.524zM50.408 57.862c-5.55 0-10.048-4.486-10.048-10.020s4.498-10.020 10.048-10.020 10.048 4.486 10.048 10.020-4.498 10.020-10.048 10.020zM32.526 47.136c0.018-1.068 0.2-3.524 1.442-6.45l-1.962-0.678c0 0-1.954 3.152-2.078 7.668-1.82 0-4.032-0.27-4.876-0.542 0-8.834 6.632-15.824 14.812-15.824 2.542 0 4.932 0.674 7.022 1.87 1.524-0.612 2.934-0.366 5.186-0.696-1.83-1.736-3.986-3.090-6.362-3.954 2.814-1.852 4.672-5.036 4.672-8.656 0-5.72-4.636-10.358-10.356-10.358s-10.358 4.636-10.358 10.358c0 3.57 1.806 6.718 4.554 8.582-7.37 2.568-12.704 9.866-12.704 18.68 0 0.294 0.018 1.462 0.018 1.462s3.342 3.306 8.668 1.682c0.062 0 1.264 0.876 4.396 1.408-0.23-0.886-0.206-1.886 0.088-3.402-1.822-0.504-2.072-1.092-2.162-1.15zM32.994 19.876c0-3.884 3.148-7.034 7.032-7.034 3.886 0 7.036 3.148 7.036 7.034s-3.148 7.036-7.036 7.036c-3.884 0-7.032-3.15-7.032-7.036zM55.53 50.246l-3.594-2.242v-5.098c0-1.050-0.852-1.904-1.904-1.904h-0.188c-1.052 0-1.904 0.854-1.904 1.904v5.906c0 0.016 0.010 0.030 0.010 0.044-0.042 0.644 0.238 1.292 0.824 1.658l4.744 2.958c0.848 0.53 1.964 0.272 2.494-0.578l0.096-0.152c0.53-0.85 0.27-1.966-0.578-2.496z"></path>
</svg>
