<!-- Generated by IcoMoon.io -->
<svg version="1.1" xmlns="http://www.w3.org/2000/svg" width="32" height="32" viewBox="0 0 32 32">
<title>waiting_list</title>
<path d="M10.395 12.938c0.552 0.248 1.159 0.388 1.799 0.388 0.66 0 1.286-0.15 1.852-0.414-0.211-0.794-0.243-1.464-0.389-1.398-0.453 0.205-0.98 0.32-1.463 0.32-1.691 0-3.063-1.414-3.063-3.158s1.371-3.157 3.063-3.157c0.654 0 1.261 0.212 1.759 0.572 0.318-0.429 0.242-0.386 0.854-1.205-0.737-0.541-1.639-0.859-2.613-0.859-2.49 0-4.509 2.081-4.509 4.649 0 1.195 0.44 2.28 1.159 3.104-2.697 1.427-4.564 4.483-4.564 8.029 0 0.397 0.047 1.412 0.733 1.412s2.813 0 2.813 0 0.595 0.377 1.421 0.684c0.171-0.318 0.623-1.502 0.623-1.502l-1.28-0.594c0 0-0.21-1.034 0.589-2.971l-0.854-0.305c0 0-0.789 1.399-0.789 3.275h-1.72c0-3.241 1.929-5.978 4.579-6.87zM3.402 13.743c0 0-0.657 1.166-0.657 2.73h-1.433c0-2.702 1.608-4.983 3.816-5.729 0.46 0.207 0.967 0.323 1.5 0.323 0.068 0-0.222-0.932-0.219-1.275-1.41 0-2.334-1.146-2.334-2.601s1.143-2.631 2.553-2.631c0.354 0 0.69 0.074 0.997 0.209 0.436-0.573 0.248-0.569 0.654-1.060-0.498-0.252-1.058-0.394-1.651-0.394-2.075 0-3.759 1.736-3.759 3.877 0 0.996 0.368 1.901 0.966 2.587-2.248 1.19-3.805 3.738-3.805 6.694 0 0.331 0.040 1.178 0.612 1.178 0.571 0 2.992 0 2.992 0s-0.202-2.002 0.48-3.654l-0.712-0.254zM25.209 17.162c-3.733 0-6.761 3.027-6.761 6.762 0 3.733 3.027 6.761 6.761 6.761s6.761-3.027 6.761-6.761c0-3.735-3.028-6.762-6.761-6.762zM25.204 28.931c-2.775 0-5.024-2.243-5.024-5.010s2.249-5.010 5.024-5.010 5.024 2.243 5.024 5.010-2.249 5.010-5.024 5.010zM16.263 23.568c0.009-0.534 0.1-1.762 0.721-3.225l-0.981-0.339c0 0-0.977 1.576-1.039 3.834-0.91 0-2.016-0.135-2.438-0.271 0-4.417 3.316-7.912 7.406-7.912 1.271 0 2.466 0.337 3.511 0.935 0.762-0.306 1.467-0.183 2.593-0.348-0.915-0.868-1.993-1.545-3.181-1.977 1.407-0.926 2.336-2.518 2.336-4.328 0-2.86-2.318-5.179-5.178-5.179s-5.179 2.318-5.179 5.179c0 1.785 0.903 3.359 2.277 4.291-3.685 1.284-6.352 4.933-6.352 9.34 0 0.147 0.009 0.731 0.009 0.731s1.671 1.653 4.334 0.841c0.031 0 0.632 0.438 2.198 0.704-0.115-0.443-0.103-0.943 0.044-1.701-0.911-0.252-1.036-0.546-1.081-0.575zM16.497 9.938c0-1.942 1.574-3.517 3.516-3.517 1.943 0 3.518 1.574 3.518 3.517s-1.574 3.518-3.518 3.518c-1.942 0-3.516-1.575-3.516-3.518zM27.765 25.123l-1.797-1.121v-2.549c0-0.525-0.426-0.952-0.952-0.952h-0.094c-0.526 0-0.952 0.427-0.952 0.952v2.953c0 0.008 0.005 0.015 0.005 0.022-0.021 0.322 0.119 0.646 0.412 0.829l2.372 1.479c0.424 0.265 0.982 0.136 1.247-0.289l0.048-0.076c0.265-0.425 0.135-0.983-0.289-1.248z"></path>
</svg>
