<!-- Generated by IcoMoon.io -->
<svg version="1.1" xmlns="http://www.w3.org/2000/svg" width="32" height="32" viewBox="0 0 32 32">
<title>websites</title>
<path d="M22.646 19.292l-0.396 0.33-0.396 0.988-0.527 0.263-0.065 0.396 0.197 0.197 0.264 0.461 0.725-0.264 0.264-0.922-0.065-0.725 0.197-0.329-0.198-0.395zM16 2.183c-7.631 0-13.817 6.185-13.817 13.817 0 7.631 6.187 13.817 13.817 13.817s13.817-6.186 13.817-13.817c0-7.632-6.186-13.817-13.817-13.817zM17.641 9.414l0.065-0.331h0.461l-0.065 0.264 0.855 0.789-0.131 0.396-0.396 0.066v-0.328l-0.593-0.396-0.46 0.066-0.198-0.396 0.462-0.13zM16 28.058c-3.597 0-6.824-1.576-9.033-4.074l0.729-1.002-1.12-0.791v-0.264l-0.264-0.328h-0.527l-0.669-0.402c-0.752-1.575-1.175-3.337-1.175-5.197 0-1.008 0.126-1.985 0.358-2.922l0.366 0.418 0.526-0.79 0.527-1.91 0.658-1.251 2.174-0.066 0.131-0.461 0.922-0.263 0.659-0.923 0.659-0.329 1.119-1.187 0.065-0.79h0.527l0.069-0.526 0.395-0.46-0.194-0.195c0.898-0.238 1.838-0.372 2.806-0.396l-0.569 0.655 0.329 0.197-0.461 0.265 0.396 0.592-0.593 0.133-0.264-0.265-0.396-0.132v0.396l0.329 0.525-0.725 0.791-0.526-0.396-1.12 0.066-0.855 0.987-0.329 0.922 0.263 0.33 0.264-0.396 0.461-0.197 0.396-0.396v-0.26l0.327-0.066 0.066 1.252-0.396 0.526-0.329-0.064 0.065-0.265-0.065-0.395-0.396 0.131-0.065 0.329 0.065 0.264-1.12 0.726-0.131 0.395-1.055 0.527 0.197 0.395v0.329h-0.393l-0.593-0.264-0.132 0.329 0.198 0.726-0.066 0.525 0.132 0.527 0.329 0.067 0.396-0.132 0.526-0.265 0.329-0.658 0.527 0.131 0.527-0.922 0.725 0.528-0.264 0.394 0.461 0.265 0.593 0.131 0.197-0.725 0.066-0.526 0.131 0.33 0.264 0.263 0.527 0.197 0.132-1.119 0.658-0.132 0.132-0.526 0.79-0.133 0.132-0.527 0.988 0.66-0.922 0.065-0.725 0.264-0.198 0.329-0.725 0.197 0.396 0.725 0.725 0.132 0.461-0.395 0.264 0.132-0.725 0.658-0.922 0.131-0.79 0.396-1.12 0.329-0.725-0.197-0.263-0.463-0.726-0.132h-0.46l-2.438 2.372-0.59 0.33c-0.197 1.581 0.659 3.227 0.659 3.227l1.712 1.517 2.107-0.923 0.132 0.593h0.329l0.593-0.328 0.264 0.986 0.988 0.66 0.461 0.459v0.791l1.054 1.383 1.976 0.923 0.329 0.263 1.712-0.987 0.067-0.657 0.46-0.595-0.264-0.79 0.594-0.527v-1.514l-0.461-0.264-0.198-0.989 1.186-2.567-0.065-0.329 0.197-0.461-0.264-0.264-1.448 0.593-1.252-1.055-0.526-0.064-0.396-0.791-1.449-0.923 0.132-0.197 1.317 0.594 0.725 0.986 0.922 0.331 0.724 0.658 0.66-0.33 0.395-0.724 0.396-0.659 0.526-0.461 0.132-0.594-0.461-0.329h-0.658l-1.186 0.264-1.317-0.593-0.066-0.264 0.527-0.065 1.12 0.594 0.855-0.198 0.197-0.264 0.264 0.197 0.396-0.065 0.593-0.461 0.856 0.329 0.263 0.396 0.264 0.131-0.526-1.382 0.789 1.053 0.265 0.133 0.658 0.921 0.264-0.066 0.197 0.396 0.461 0.198-0.065-1.12-0.329-0.264-0.33-1.12 0.33-0.593-0.132-0.46h0.461l0.527 0.526 0.395 0.065-0.132-0.79 0.182-0.136c0.541 0.914 0.964 1.907 1.249 2.955l-0.442-0.317-0.264-0.461-0.856-0.132 0.527 0.593 0.132 0.725 0.856 0.198 0.263 0.658 0.060 0.010c0.099 0.619 0.15 1.254 0.15 1.901-0.004 6.658-5.403 12.057-12.063 12.057z"></path>
</svg>
