<!-- Generated by IcoMoon.io -->
<svg version="1.1" xmlns="http://www.w3.org/2000/svg" width="64" height="64" viewBox="0 0 64 64">
<title>websites</title>
<path d="M45.292 38.584l-0.792 0.66-0.792 1.976-1.054 0.526-0.13 0.792 0.394 0.394 0.528 0.922 1.45-0.528 0.528-1.844-0.13-1.45 0.394-0.658-0.396-0.79zM32 4.366c-15.262 0-27.634 12.37-27.634 27.634 0 15.262 12.374 27.634 27.634 27.634s27.634-12.372 27.634-27.634c0-15.264-12.372-27.634-27.634-27.634zM35.282 18.828l0.13-0.662h0.922l-0.13 0.528 1.71 1.578-0.262 0.792-0.792 0.132v-0.656l-1.186-0.792-0.92 0.132-0.396-0.792 0.924-0.26zM32 56.116c-7.194 0-13.648-3.152-18.066-8.148l1.458-2.004-2.24-1.582v-0.528l-0.528-0.656h-1.054l-1.338-0.804c-1.504-3.15-2.35-6.674-2.35-10.394 0-2.016 0.252-3.97 0.716-5.844l0.732 0.836 1.052-1.58 1.054-3.82 1.316-2.502 4.348-0.132 0.262-0.922 1.844-0.526 1.318-1.846 1.318-0.658 2.238-2.374 0.13-1.58h1.054l0.138-1.052 0.79-0.92-0.388-0.39c1.796-0.476 3.676-0.744 5.612-0.792l-1.138 1.31 0.658 0.394-0.922 0.53 0.792 1.184-1.186 0.266-0.528-0.53-0.792-0.264v0.792l0.658 1.050-1.45 1.582-1.052-0.792-2.24 0.132-1.71 1.974-0.658 1.844 0.526 0.66 0.528-0.792 0.922-0.394 0.792-0.792v-0.52l0.654-0.132 0.132 2.504-0.792 1.052-0.658-0.128 0.13-0.53-0.13-0.79-0.792 0.262-0.13 0.658 0.13 0.528-2.24 1.452-0.262 0.79-2.11 1.054 0.394 0.79v0.658h-0.786l-1.186-0.528-0.264 0.658 0.396 1.452-0.132 1.050 0.264 1.054 0.658 0.134 0.792-0.264 1.052-0.53 0.658-1.316 1.054 0.262 1.054-1.844 1.45 1.056-0.528 0.788 0.922 0.53 1.186 0.262 0.394-1.45 0.132-1.052 0.262 0.66 0.528 0.526 1.054 0.394 0.264-2.238 1.316-0.264 0.264-1.052 1.58-0.266 0.264-1.054 1.976 1.32-1.844 0.13-1.45 0.528-0.396 0.658-1.45 0.394 0.792 1.45 1.45 0.264 0.922-0.79 0.528 0.264-1.45 1.316-1.844 0.262-1.58 0.792-2.24 0.658-1.45-0.394-0.526-0.926-1.452-0.264h-0.92l-4.876 4.744-1.18 0.66c-0.394 3.162 1.318 6.454 1.318 6.454l3.424 3.034 4.214-1.846 0.264 1.186h0.658l1.186-0.656 0.528 1.972 1.976 1.32 0.922 0.918v1.582l2.108 2.766 3.952 1.846 0.658 0.526 3.424-1.974 0.134-1.314 0.92-1.19-0.528-1.58 1.188-1.054v-3.028l-0.922-0.528-0.396-1.978 2.372-5.134-0.13-0.658 0.394-0.922-0.528-0.528-2.896 1.186-2.504-2.11-1.052-0.128-0.792-1.582-2.898-1.846 0.264-0.394 2.634 1.188 1.45 1.972 1.844 0.662 1.448 1.316 1.32-0.66 0.79-1.448 0.792-1.318 1.052-0.922 0.264-1.188-0.922-0.658h-1.316l-2.372 0.528-2.634-1.186-0.132-0.528 1.054-0.13 2.24 1.188 1.71-0.396 0.394-0.528 0.528 0.394 0.792-0.13 1.186-0.922 1.712 0.658 0.526 0.792 0.528 0.262-1.052-2.764 1.578 2.106 0.53 0.266 1.316 1.842 0.528-0.132 0.394 0.792 0.922 0.396-0.13-2.24-0.658-0.528-0.66-2.24 0.66-1.186-0.264-0.92h0.922l1.054 1.052 0.79 0.13-0.264-1.58 0.364-0.272c1.082 1.828 1.928 3.814 2.498 5.91l-0.884-0.634-0.528-0.922-1.712-0.264 1.054 1.186 0.264 1.45 1.712 0.396 0.526 1.316 0.12 0.020c0.198 1.238 0.3 2.508 0.3 3.802-0.008 13.316-10.806 24.114-24.126 24.114z"></path>
</svg>
