<!-- Generated by IcoMoon.io -->
<svg version="1.1" xmlns="http://www.w3.org/2000/svg" width="64" height="64" viewBox="0 0 64 64">
<title>yammer2</title>
<path d="M32.2 11c-1.6 0-2.2 1.2-2.4 1.8s-8.2 21.6-8.4 21.8c-0.2 0.2-0.2 0.2-0.4 0s-8-20.6-8.8-22.4c-0.8-1.6-2.8-1.4-3.6-1.2-1 0.4-2 1.8-1.4 3.2 0.6 1.6 11.2 27.6 11.2 27.6s-0.8 2.2-1.4 3.4c-0.6 1.2-2 3.2-4.8 3.2-1 0-1.6 0-1.8 0-0.8 0-2.4 0.6-2.4 2.2 0 1 0.4 1.8 1.4 2.2 0.8 0.2 1.8 0.4 2.8 0.4 2.6 0 4.4-0.8 5.4-1.2 0.8-0.6 2.6-2 4.2-5.6 1.6-3.8 12-30 12.4-30.8s0.6-1.4 0.6-1.8c0-1.2-0.8-2.8-2.6-2.8zM54.4 29.8c-3 0.2-14.8 1.4-14.8 2.8 0 1.2 7.4 2 14.6 2.2 1.6 0 2.6-1.2 2.6-2.4 0.2-1.4-1-2.6-2.4-2.6zM50 44.2c-3-1.6-13.2-6.6-14-5.4-0.6 1 5.4 5.6 11.4 9.6 1.4 0.8 2.8 0.6 3.6-0.6 0.6-1 0.2-2.8-1-3.6zM50 20.6c1.2-0.8 1.6-2.4 1-3.6-0.8-1.2-2.2-1.4-3.6-0.6-6 4-12 8.6-11.4 9.6 0.6 1.2 11-3.6 14-5.4z"></path>
</svg>
