<!-- Generated by IcoMoon.io -->
<svg version="1.1" xmlns="http://www.w3.org/2000/svg" width="32" height="32" viewBox="0 0 32 32">
<title>yammer2</title>
<path d="M16.1 5.5c-0.8 0-1.1 0.6-1.2 0.9s-4.1 10.8-4.2 10.9c-0.1 0.1-0.1 0.1-0.2 0s-4-10.3-4.4-11.2c-0.4-0.8-1.4-0.7-1.8-0.6-0.5 0.2-1 0.9-0.7 1.6 0.3 0.8 5.6 13.8 5.6 13.8s-0.4 1.1-0.7 1.7c-0.3 0.6-1 1.6-2.4 1.6-0.5 0-0.8 0-0.9 0-0.4 0-1.2 0.3-1.2 1.1 0 0.5 0.2 0.9 0.7 1.1 0.4 0.1 0.9 0.2 1.4 0.2 1.3 0 2.2-0.4 2.7-0.6 0.4-0.3 1.3-1 2.1-2.8 0.8-1.9 6-15 6.2-15.4s0.3-0.7 0.3-0.9c0-0.6-0.4-1.4-1.3-1.4zM27.2 14.9c-1.5 0.1-7.4 0.7-7.4 1.4 0 0.6 3.7 1 7.3 1.1 0.8 0 1.3-0.6 1.3-1.2 0.1-0.7-0.5-1.3-1.2-1.3zM25 22.1c-1.5-0.8-6.6-3.3-7-2.7-0.3 0.5 2.7 2.8 5.7 4.8 0.7 0.4 1.4 0.3 1.8-0.3 0.3-0.5 0.1-1.4-0.5-1.8zM25 10.3c0.6-0.4 0.8-1.2 0.5-1.8-0.4-0.6-1.1-0.7-1.8-0.3-3 2-6 4.3-5.7 4.8 0.3 0.6 5.5-1.8 7-2.7z"></path>
</svg>
