<!-- Generated by IcoMoon.io -->
<svg version="1.1" xmlns="http://www.w3.org/2000/svg" width="32" height="32" viewBox="0 0 32 32">
<title>yammer</title>
<path d="M16 2.5c-7.456 0-13.5 6.044-13.5 13.5s6.044 13.5 13.5 13.5c7.456 0 13.5-6.044 13.5-13.5s-6.044-13.5-13.5-13.5zM19.156 12.684c0.281-0.186 0.616-0.115 0.77 0.132 0.153 0.247 0.081 0.614-0.195 0.77-0.635 0.357-2.862 1.401-3.019 1.149-0.132-0.214 1.149-1.197 2.444-2.051zM16.339 12.464c-0.081 0.179-2.33 5.82-2.669 6.627s-0.72 1.096-0.911 1.219-0.581 0.279-1.144 0.279c-0.23 0-0.458-0.012-0.611-0.073-0.222-0.090-0.321-0.262-0.321-0.466 0-0.347 0.33-0.503 0.499-0.492 0.063 0.004 0.205 0.010 0.408 0.010 0.598 0 0.893-0.41 1.021-0.683s0.324-0.733 0.324-0.733-2.313-5.612-2.429-5.939c-0.116-0.327 0.115-0.626 0.292-0.694s0.633-0.108 0.796 0.286c0.164 0.395 1.882 4.759 1.907 4.82 0.025 0.063 0.049 0.061 0.079-0.003 0.019-0.038 1.75-4.603 1.792-4.714 0.040-0.111 0.167-0.379 0.526-0.379 0.379 0 0.556 0.338 0.556 0.566-0.001 0.085-0.035 0.19-0.115 0.369zM19.926 19.451c-0.153 0.247-0.488 0.317-0.77 0.132-1.295-0.854-2.576-1.838-2.444-2.051 0.156-0.252 2.384 0.792 3.019 1.149 0.276 0.156 0.348 0.523 0.195 0.77zM20.668 16.643c-1.57-0.033-3.16-0.211-3.16-0.461 0-0.297 2.514-0.553 3.174-0.607 0.316-0.026 0.567 0.245 0.567 0.535s-0.244 0.539-0.581 0.533z"></path>
</svg>
