<!-- Generated by IcoMoon.io -->
<svg version="1.1" xmlns="http://www.w3.org/2000/svg" width="64" height="64" viewBox="0 0 64 64">
<title>yammer</title>
<path d="M32 5c-14.912 0-27 12.088-27 27s12.088 27 27 27c14.912 0 27-12.088 27-27s-12.088-27-27-27zM38.312 25.368c0.562-0.372 1.232-0.23 1.54 0.264 0.306 0.494 0.162 1.228-0.39 1.54-1.27 0.714-5.724 2.802-6.038 2.298-0.264-0.428 2.298-2.394 4.888-4.102zM32.678 24.928c-0.162 0.358-4.66 11.64-5.338 13.254s-1.44 2.192-1.822 2.438-1.162 0.558-2.288 0.558c-0.46 0-0.916-0.024-1.222-0.146-0.444-0.18-0.642-0.524-0.642-0.932 0-0.694 0.66-1.006 0.998-0.984 0.126 0.008 0.41 0.020 0.816 0.020 1.196 0 1.786-0.82 2.042-1.366s0.648-1.466 0.648-1.466-4.626-11.224-4.858-11.878c-0.232-0.654 0.23-1.252 0.584-1.388s1.266-0.216 1.592 0.572c0.328 0.79 3.764 9.518 3.814 9.64 0.050 0.126 0.098 0.122 0.158-0.006 0.038-0.076 3.5-9.206 3.584-9.428 0.080-0.222 0.334-0.758 1.052-0.758 0.758 0 1.112 0.676 1.112 1.132-0.002 0.17-0.070 0.38-0.23 0.738zM39.852 38.902c-0.306 0.494-0.976 0.634-1.54 0.264-2.59-1.708-5.152-3.676-4.888-4.102 0.312-0.504 4.768 1.584 6.038 2.298 0.552 0.312 0.696 1.046 0.39 1.54zM41.336 33.286c-3.14-0.066-6.32-0.422-6.32-0.922 0-0.594 5.028-1.106 6.348-1.214 0.632-0.052 1.134 0.49 1.134 1.070s-0.488 1.078-1.162 1.066z"></path>
</svg>
