<!-- Generated by IcoMoon.io -->
<svg version="1.1" xmlns="http://www.w3.org/2000/svg" width="32" height="32" viewBox="0 0 32 32">
<title>your_feeds</title>
<path d="M16.4 24.1c-1.1 0-2 0.9-2 2s0.9 2 2 2c1.1 0 2-0.9 2-2 0.1-1.1-0.8-2-2-2zM14.6 18.1c0 0-0.1 0-0.1 0v3c0 0 0.1 0 0.1 0 3.7 0 6.8 3 6.8 6.8 0 0 0 0.1 0 0.1h3c0 0 0-0.1 0-0.1 0-5.4-4.4-9.8-9.8-9.8zM14.6 13.1c0 0-0.1 0-0.1 0v2.9c0 0 0.1 0 0.1 0 6.5 0 11.8 5.3 11.8 11.8 0 0 0 0.1 0 0.1h2.9c0 0 0-0.1 0-0.1 0.1-8.1-6.5-14.7-14.7-14.7zM10.7 3.9l-8.1 7.7h5.3l2.7 15.2 2.7-15.2h5.4l-8-7.7z"></path>
</svg>
