<!-- Generated by IcoMoon.io -->
<svg version="1.1" xmlns="http://www.w3.org/2000/svg" width="64" height="64" viewBox="0 0 64 64">
<title>your_feeds</title>
<path d="M32.8 48.2c-2.2 0-4 1.8-4 4s1.8 4 4 4c2.2 0 4-1.8 4-4 0.2-2.2-1.6-4-4-4zM29.2 36.2c0 0-0.2 0-0.2 0v6c0 0 0.2 0 0.2 0 7.4 0 13.6 6 13.6 13.6 0 0 0 0.2 0 0.2h6c0 0 0-0.2 0-0.2 0-10.8-8.8-19.6-19.6-19.6zM29.2 26.2c0 0-0.2 0-0.2 0v5.8c0 0 0.2 0 0.2 0 13 0 23.6 10.6 23.6 23.6 0 0 0 0.2 0 0.2h5.8c0 0 0-0.2 0-0.2 0.2-16.2-13-29.4-29.4-29.4zM21.4 7.8l-16.2 15.4h10.6l5.4 30.4 5.4-30.4h10.8l-16-15.4z"></path>
</svg>
