<!-- Generated by IcoMoon.io -->
<svg version="1.1" xmlns="http://www.w3.org/2000/svg" width="64" height="64" viewBox="0 0 64 64">
<title>zip_icon</title>
<path d="M30.992 44.056l4.024-3.652v-24.148l-3.376-4.294h-22.156l-3.23 4.014h24.738v28.080zM33.006 55.958h3.986v-1.932h-3.986v1.932zM31.028 57.944h1.958v-5.936h-1.958v5.936zM28.994 17.914h-23.978v26.068h23.978v-26.068zM25.008 39.998h-15.978v-8.026h15.978v8.026zM25.008 29.988h-15.978v-7.962h15.978v7.962zM39.020 58.006h11.966v-6.060h-11.966v6.060zM20.018 23.992h-5.998v2.020h5.998v-2.020zM20.018 33.992h-5.998v2.020h5.998v-2.020zM39.012 38.814l11.982-2.354v-2.52l-11.982 2.352v2.522zM39.012 33.086l11.982-2.352v-2.522l-11.982 2.354v2.52zM41.458 10.008l-5.188-4.014h-20.52l-4.2 4.038h22.44l4.84 3.992h14.144v-2.902l-2.302-1.114h-9.214zM57.028 52.008v5.936h1.958v-5.936h-1.958zM39.012 27.42l11.982-2.352v-2.52l-11.982 2.352v2.52zM33.99 46.016h-22.44l4.2 4h19.396l5.75-3.978h9.776l2.302-1.086v-2.93h-14.144l-4.84 3.994zM50.994 16.758l-11.982 2.354v2.52l11.982-2.352v-2.522zM41.006 47.992v2.020h7.998v-2.020h-7.998zM53.006 55.958h3.986v-1.932h-3.986v1.932z"></path>
</svg>
