<!-- Generated by IcoMoon.io -->
<svg version="1.1" xmlns="http://www.w3.org/2000/svg" width="32" height="32" viewBox="0 0 32 32">
<title>zip_icon</title>
<path d="M15.496 22.028l2.012-1.826v-12.074l-1.688-2.147h-11.078l-1.615 2.007h12.369v14.040zM16.503 27.979h1.993v-0.966h-1.993v0.966zM15.514 28.972h0.979v-2.968h-0.979v2.968zM14.497 8.957h-11.989v13.034h11.989v-13.034zM12.504 19.999h-7.989v-4.013h7.989v4.013zM12.504 14.994h-7.989v-3.981h7.989v3.981zM19.51 29.003h5.983v-3.030h-5.983v3.030zM10.009 11.996h-2.999v1.010h2.999v-1.010zM10.009 16.996h-2.999v1.010h2.999v-1.010zM19.506 19.407l5.991-1.177v-1.26l-5.991 1.176v1.261zM19.506 16.543l5.991-1.176v-1.261l-5.991 1.177v1.26zM20.729 5.004l-2.594-2.007h-10.26l-2.1 2.019h11.22l2.42 1.996h7.072v-1.451l-1.151-0.557h-4.607zM28.514 26.004v2.968h0.979v-2.968h-0.979zM19.506 13.71l5.991-1.176v-1.26l-5.991 1.176v1.26zM16.995 23.008h-11.22l2.1 2h9.698l2.875-1.989h4.888l1.151-0.543v-1.465h-7.072l-2.42 1.997zM25.497 8.379l-5.991 1.177v1.26l5.991-1.176v-1.261zM20.503 23.996v1.010h3.999v-1.010h-3.999zM26.503 27.979h1.993v-0.966h-1.993v0.966z"></path>
</svg>
